<?xml version="1.0" encoding="UTF-8" standalone="no"?>
<svg
   xmlns:dc="http://purl.org/dc/elements/1.1/"
   xmlns:cc="http://creativecommons.org/ns#"
   xmlns:rdf="http://www.w3.org/1999/02/22-rdf-syntax-ns#"
   xmlns:svg="http://www.w3.org/2000/svg"
   xmlns="http://www.w3.org/2000/svg"
   xmlns:sodipodi="http://sodipodi.sourceforge.net/DTD/sodipodi-0.dtd"
   xmlns:inkscape="http://www.inkscape.org/namespaces/inkscape"
   version="1.0"
   width="744.09448"
   height="1052.3622"
   viewBox="0 0 595.27559 841.88975"
   preserveAspectRatio="xMidYMid meet"
   id="svg2"
   inkscape:version="0.48.4 r9939"
   sodipodi:docname="circles_and_squares.svg">
  <defs
     id="defs60" />
  <sodipodi:namedview
     pagecolor="#ffffff"
     bordercolor="#666666"
     borderopacity="1"
     objecttolerance="10"
     gridtolerance="10"
     guidetolerance="10"
     inkscape:pageopacity="0"
     inkscape:pageshadow="2"
     inkscape:window-width="640"
     inkscape:window-height="480"
     id="namedview58"
     showgrid="false"
     inkscape:zoom="2.0111851"
     inkscape:cx="329.66403"
     inkscape:cy="431.32414"
     inkscape:current-layer="svg2" />
  <metadata
     id="metadata4">
Created by potrace 1.11, written by Peter Selinger 2001-2013
<rdf:RDF>
  <cc:Work
     rdf:about="">
    <dc:format>image/svg+xml</dc:format>
    <dc:type
       rdf:resource="http://purl.org/dc/dcmitype/StillImage" />
  </cc:Work>
</rdf:RDF>
</metadata>
  <g
     transform="matrix(0.1,0,0,-0.1,36.604238,800.50332)"
     id="g6"
     style="fill:none;stroke:#000000">
    <path
       d="m 160,7484 c 0,-65 -57,-130 -125,-141 -33,-5 -35,-8 -35,-44 0,-44 9,-47 75,-24 53,19 55,19 55,-10 0,-28 -26,-43 -93,-52 -36,-5 -37,-7 -37,-45 0,-38 1,-39 28,-34 101,20 102,20 102,-7 0,-28 -8,-32 -82,-43 -47,-6 -48,-7 -48,-42 l 0,-35 65,5 c 63,6 65,5 65,-17 0,-26 -9,-30 -82,-41 -47,-6 -48,-7 -48,-42 l 0,-35 65,6 c 63,6 65,6 65,-17 0,-29 -16,-36 -81,-36 l -49,0 0,-80 0,-80 48,0 c 119,0 291,-70 392,-158 156,-136 234,-316 228,-525 -3,-101 -3,-102 -29,-105 l -25,-3 4,85 c 6,112 -12,204 -57,301 -45,95 -105,170 -179,226 -96,73 -244,129 -340,129 l -43,0 3,-37 3,-38 74,-7 c 106,-11 222,-69 306,-153 115,-115 181,-296 159,-440 -8,-56 -11,-60 -37,-63 -25,-3 -28,-1 -22,18 13,39 7,179 -10,237 -54,189 -224,332 -412,350 l -63,6 0,-36 0,-35 67,-12 c 83,-14 122,-30 184,-76 102,-74 170,-212 168,-338 -1,-88 -10,-110 -42,-114 -26,-3 -27,-2 -20,25 15,54 7,165 -17,228 -46,119 -187,225 -300,225 -39,0 -40,-1 -40,-34 0,-32 2,-34 42,-40 143,-23 248,-142 248,-282 0,-88 -15,-124 -51,-124 -34,0 -33,-2 -14,43 45,107 -27,262 -137,295 -87,27 -88,26 -88,-18 0,-34 3,-40 20,-40 32,0 74,-25 109,-65 27,-31 31,-43 31,-93 0,-44 -6,-66 -24,-93 -26,-37 -78,-69 -115,-69 -18,0 -21,-6 -21,-40 l 0,-41 37,7 c 21,4 46,11 55,15 29,15 39,10 36,-18 -3,-25 -9,-29 -66,-43 l -62,-15 0,-38 c 0,-37 1,-38 28,-33 101,20 102,20 102,-7 0,-22 -6,-27 -50,-36 -28,-6 -58,-11 -65,-11 -11,0 -15,-11 -15,-36 l 0,-37 65,5 c 63,5 65,5 65,-17 0,-25 -17,-35 -58,-35 -58,0 -72,-10 -72,-48 l 0,-35 66,6 65,5 -3,-27 c -3,-25 -6,-26 -65,-29 l -63,-3 0,-79 0,-80 48,0 c 73,0 169,-27 262,-72 119,-59 230,-170 287,-288 23,-47 49,-114 58,-149 16,-63 23,-250 10,-271 -3,-5 -16,-10 -29,-10 -22,0 -22,2 -18,84 6,120 -11,205 -64,313 -93,190 -280,320 -484,339 l -70,7 0,-36 c 0,-34 2,-36 38,-42 159,-24 254,-68 347,-159 115,-114 182,-300 159,-446 -8,-51 -11,-55 -37,-58 -26,-3 -28,-1 -22,18 14,45 7,184 -13,247 -28,89 -62,141 -135,209 -89,84 -199,133 -299,134 -36,0 -38,-1 -38,-34 0,-33 0,-33 64,-44 74,-12 160,-52 215,-98 105,-91 162,-261 132,-399 -5,-23 -12,-31 -33,-33 -27,-3 -27,-2 -20,30 4,18 7,65 6,103 -2,168 -139,321 -308,344 l -56,8 0,-39 c 0,-34 3,-38 25,-38 39,0 127,-37 167,-70 56,-46 98,-139 98,-215 0,-89 -15,-125 -51,-125 l -28,0 14,41 c 49,139 -39,286 -188,313 l -37,7 0,-41 c 0,-34 3,-40 21,-40 29,0 90,-36 113,-66 63,-87 8,-234 -94,-250 -39,-6 -40,-8 -40,-45 0,-44 9,-47 75,-24 53,19 55,19 55,-10 0,-28 -26,-43 -93,-52 -36,-5 -37,-7 -37,-45 0,-38 1,-39 28,-34 101,20 102,20 102,-7 0,-28 -8,-32 -82,-43 -47,-6 -48,-7 -48,-42 l 0,-35 65,5 c 63,6 65,5 65,-17 0,-26 -9,-30 -82,-41 -47,-6 -48,-7 -48,-42 l 0,-35 65,6 c 63,6 65,6 65,-17 0,-29 -16,-36 -81,-36 l -49,0 0,-80 0,-80 48,0 c 72,0 195,-35 273,-77 168,-91 291,-252 335,-439 15,-65 21,-245 9,-264 -3,-6 -16,-10 -29,-10 -22,0 -22,2 -18,84 6,112 -12,204 -57,301 -45,95 -105,170 -179,226 -96,73 -244,129 -340,129 l -43,0 3,-37 3,-38 74,-7 c 106,-11 222,-69 306,-153 115,-115 181,-296 159,-440 -8,-56 -11,-60 -37,-63 -25,-3 -28,-1 -22,18 13,39 7,179 -10,237 -54,189 -224,332 -412,350 l -63,6 0,-36 0,-35 67,-12 c 83,-14 122,-30 184,-76 100,-73 170,-213 168,-333 -2,-93 -10,-116 -42,-119 -26,-3 -27,-2 -20,25 15,54 7,165 -17,228 -46,119 -187,225 -300,225 -39,0 -40,-1 -40,-34 0,-32 2,-34 42,-40 143,-23 248,-142 248,-282 0,-88 -15,-124 -51,-124 l -28,0 14,41 c 21,59 18,116 -9,174 -36,79 -88,117 -189,139 -26,6 -27,5 -27,-34 0,-34 3,-40 20,-40 32,0 74,-25 109,-65 26,-30 31,-44 31,-86 0,-90 -48,-153 -125,-166 -33,-5 -35,-8 -35,-44 0,-44 9,-47 75,-24 53,19 55,19 55,-10 0,-28 -26,-43 -93,-52 -36,-5 -37,-7 -37,-45 0,-38 1,-39 27,-34 102,20 103,20 103,-7 0,-28 -8,-32 -83,-43 -46,-6 -47,-7 -47,-42 l 0,-35 65,5 c 63,6 65,5 65,-17 0,-26 -9,-30 -83,-41 -46,-6 -47,-7 -47,-42 l 0,-35 65,6 c 63,6 65,6 65,-17 0,-29 -16,-36 -81,-36 l -49,0 0,-80 0,-80 48,0 c 119,0 291,-70 392,-158 156,-136 234,-316 228,-525 -3,-101 -3,-102 -29,-105 l -25,-3 4,85 c 6,112 -12,204 -57,301 -45,95 -105,170 -179,226 -96,73 -244,129 -340,129 l -43,0 3,-37 3,-38 74,-7 c 106,-11 222,-69 306,-153 115,-115 181,-296 159,-440 -8,-56 -11,-60 -37,-63 -25,-3 -28,-1 -22,18 13,39 7,179 -10,237 -54,189 -224,332 -412,350 l -63,6 0,-36 0,-35 67,-12 c 83,-14 122,-30 184,-76 102,-74 170,-212 168,-338 -1,-88 -10,-110 -42,-114 -26,-3 -27,-2 -20,25 15,54 7,165 -17,228 -46,119 -187,225 -300,225 -39,0 -40,-1 -40,-34 0,-32 2,-34 42,-40 143,-23 248,-142 248,-282 0,-88 -15,-124 -51,-124 -34,0 -33,-2 -14,43 45,107 -27,262 -137,295 -87,27 -88,26 -88,-18 0,-34 3,-40 20,-40 32,0 74,-25 109,-65 27,-31 31,-43 31,-93 0,-44 -6,-66 -24,-93 -26,-37 -78,-69 -115,-69 -18,0 -21,-6 -21,-40 l 0,-41 37,7 c 21,4 46,11 55,15 29,15 39,10 36,-19 -3,-24 -9,-28 -65,-42 l -63,-15 0,-38 c 0,-37 1,-38 28,-33 101,20 102,20 102,-7 0,-22 -6,-27 -50,-36 -28,-6 -58,-11 -65,-11 -11,0 -15,-11 -15,-36 l 0,-37 65,5 c 63,5 65,5 65,-17 0,-25 -17,-35 -58,-35 C 14,960 0,950 0,912 l 0,-35 66,6 65,5 -3,-27 c -3,-25 -6,-26 -65,-29 l -63,-3 0,-79 0,-80 48,0 c 73,0 169,-27 261,-72 C 504,502 649,291 669,75 l 6,-70 78,-3 77,-3 0,45 c 0,59 8,76 35,76 22,0 23,-2 18,-60 l -6,-60 42,0 41,0 0,44 c 0,59 8,76 35,76 22,0 23,-2 18,-60 l -6,-60 36,0 c 34,0 36,2 42,43 11,69 15,77 40,77 22,0 23,-2 18,-60 l -6,-60 35,0 c 34,0 34,1 46,60 12,57 14,60 42,60 32,0 34,-3 21,-28 -4,-9 -11,-34 -15,-54 l -7,-38 41,0 c 35,0 40,3 40,24 0,28 35,82 72,109 15,11 49,22 77,25 41,4 58,0 94,-21 45,-27 77,-75 77,-116 0,-18 6,-21 40,-21 45,0 48,7 28,71 -35,118 -174,191 -292,155 -57,-17 -65,-15 -59,17 4,18 15,27 43,36 84,25 190,4 266,-54 45,-34 92,-118 100,-177 l 7,-48 39,0 40,0 -7,48 c -18,125 -115,248 -232,292 -50,19 -72,21 -160,17 -98,-5 -101,-4 -97,16 2,11 9,24 16,28 26,16 120,21 181,9 181,-35 309,-165 340,-344 l 11,-66 39,0 38,0 -7,48 c -26,183 -128,322 -291,400 -76,36 -81,37 -202,38 -107,2 -125,4 -127,18 -4,27 36,39 126,39 272,0 500,-196 542,-466 l 12,-77 33,0 c 32,0 33,1 33,43 -1,152 -102,343 -235,444 -130,98 -211,126 -380,128 -120,2 -130,4 -130,21 -1,30 13,34 120,34 124,0 206,-19 311,-71 207,-102 336,-295 369,-551 l 6,-48 75,0 74,0 0,44 c 0,60 8,76 36,76 23,0 24,-2 17,-60 l -6,-60 36,0 c 38,0 47,12 47,60 0,43 10,60 35,60 22,0 23,-2 18,-60 l -6,-60 36,0 c 34,0 36,2 42,43 11,70 15,77 41,77 26,0 27,-7 8,-97 -4,-21 0,-23 34,-23 l 38,0 12,60 c 12,57 14,60 42,60 17,0 30,-1 30,-2 0,-2 -7,-21 -15,-43 -24,-66 -21,-75 25,-75 35,0 40,3 40,24 0,28 35,82 72,109 14,11 49,22 76,25 80,7 156,-47 171,-122 6,-27 11,-31 44,-34 42,-4 45,4 25,69 -35,118 -174,191 -293,155 -64,-20 -62,-21 -57,13 3,25 10,31 47,40 169,42 339,-68 362,-234 6,-45 6,-45 44,-45 44,0 43,-1 28,72 -17,80 -52,139 -113,196 -89,80 -188,107 -323,88 -49,-7 -52,-7 -50,14 2,28 22,38 88,46 211,24 415,-133 452,-350 l 11,-66 34,0 35,0 -6,63 c -16,194 -176,373 -373,417 -27,7 -92,10 -144,8 -80,-3 -95,-1 -98,13 -6,32 25,42 126,42 114,-1 195,-23 287,-78 75,-46 106,-74 159,-150 56,-79 83,-147 97,-239 l 11,-76 34,0 c 34,0 34,0 34,49 0,96 -58,242 -137,342 -51,65 -96,104 -174,147 -107,61 -162,75 -304,78 -114,2 -130,4 -133,19 -6,28 17,35 123,35 124,0 206,-19 313,-72 93,-45 203,-144 260,-232 52,-80 94,-201 100,-288 l 5,-78 78,0 79,0 0,44 c 0,60 8,76 37,76 24,0 24,-1 17,-60 l -7,-60 36,0 c 34,0 36,2 42,38 13,79 14,82 40,82 24,0 25,-1 18,-60 l -6,-60 35,0 c 35,0 36,1 43,46 10,66 14,74 42,74 24,0 24,-2 18,-42 -3,-24 -9,-51 -11,-60 -5,-15 1,-18 35,-18 37,0 41,2 41,25 0,14 7,41 14,60 12,27 21,35 40,35 15,0 26,-1 26,-2 0,-2 -7,-21 -15,-43 -24,-66 -21,-75 25,-75 35,0 40,3 40,24 0,28 35,82 72,109 36,27 116,34 156,13 47,-24 82,-67 88,-109 6,-35 8,-37 45,-37 29,0 39,4 39,16 0,38 -25,97 -58,134 -73,86 -173,107 -288,63 -10,-4 -14,3 -14,24 0,26 5,31 39,41 88,27 199,3 273,-58 43,-36 98,-140 98,-187 0,-32 1,-33 41,-33 l 41,0 -6,47 c -17,122 -119,250 -232,293 -59,21 -148,28 -217,15 -35,-7 -37,-6 -37,19 0,33 28,41 130,40 207,-1 383,-159 407,-366 6,-48 6,-48 43,-48 l 38,0 -5,43 c -15,130 -61,224 -153,310 -110,104 -216,143 -372,135 -86,-4 -88,-4 -88,18 0,30 26,38 125,37 268,-1 498,-201 536,-466 l 11,-77 34,0 c 32,0 34,2 34,33 0,71 -23,156 -66,244 -73,148 -186,248 -352,311 -59,22 -83,26 -195,26 l -128,1 3,25 c 3,25 5,25 105,28 67,2 126,-3 170,-13 271,-62 487,-307 512,-580 l 6,-70 33,-3 32,-3 0,100 c 0,54 -4,101 -9,103 -4,2 -12,13 -15,26 -6,16 -3,22 8,22 12,0 16,10 16,35 0,32 -2,35 -30,35 -19,0 -33,7 -40,19 -15,29 -13,31 30,31 l 40,0 0,40 0,41 -65,-2 c -51,-2 -70,2 -85,16 -11,10 -20,22 -20,27 0,4 38,8 85,8 l 85,0 0,35 0,35 -85,0 -85,0 0,180 0,180 85,0 85,0 0,35 0,35 -120,0 -120,0 0,-215 c 0,-118 -4,-215 -8,-215 -5,0 -16,8 -25,18 -15,16 -17,48 -17,240 l 0,222 145,0 145,0 0,40 0,40 -180,0 -180,0 0,-235 c 0,-247 -1,-253 -43,-223 -16,12 -17,37 -15,258 l 3,245 208,3 207,2 0,35 0,35 -245,0 -245,0 0,-271 c 0,-243 -2,-271 -16,-265 -9,3 -20,6 -25,6 -5,0 -9,121 -9,290 l 0,290 28,1 c 15,0 136,0 270,-1 l 242,-1 0,200 c 0,109 -4,201 -9,203 -4,2 -12,13 -15,26 -6,16 -3,22 8,22 12,0 16,10 16,35 0,32 -2,35 -30,35 -19,0 -33,7 -40,19 -15,29 -13,31 30,31 l 40,0 0,40 0,40 -68,0 c -54,0 -72,4 -85,18 -10,10 -17,22 -17,25 0,4 38,7 85,7 l 85,0 0,35 0,35 -85,0 -85,0 0,180 0,180 85,0 85,0 0,35 0,35 -120,0 -120,0 0,-215 c 0,-118 -4,-215 -8,-215 -5,0 -16,8 -25,18 -15,16 -17,48 -17,240 l 0,222 145,0 145,0 0,40 0,40 -180,0 -180,0 0,-235 c 0,-160 -3,-235 -11,-235 -6,0 -19,5 -30,10 -18,10 -19,24 -19,260 l 0,250 210,0 210,0 0,35 0,35 -245,0 -245,0 0,-271 c 0,-243 -2,-271 -16,-265 -9,3 -20,6 -25,6 -5,0 -9,121 -9,290 l 0,290 270,0 270,0 0,199 c 0,110 -4,201 -9,203 -4,2 -12,13 -15,26 -6,16 -3,22 8,22 12,0 16,10 16,35 0,32 -2,35 -30,35 -19,0 -33,7 -40,19 -15,29 -13,31 30,31 l 40,0 0,40 0,40 -68,0 c -54,0 -72,4 -85,18 -10,10 -17,22 -17,25 0,4 38,7 85,7 l 85,0 0,35 0,35 -85,0 -85,0 0,180 0,180 85,0 85,0 0,35 0,35 -120,0 -120,0 0,-215 c 0,-118 -4,-215 -8,-215 -5,0 -16,8 -25,18 -15,16 -17,48 -17,240 l 0,222 145,0 145,0 0,40 0,40 -180,0 -180,0 0,-235 c 0,-160 -3,-235 -11,-235 -6,0 -19,5 -30,10 -18,10 -19,24 -19,260 l 0,250 210,0 210,0 0,35 0,35 -245,0 -245,0 0,-271 c 0,-243 -2,-271 -16,-265 -9,3 -20,6 -25,6 -5,0 -9,121 -9,290 l 0,290 270,0 270,0 0,199 c 0,110 -4,201 -9,203 -4,2 -12,13 -15,26 -6,16 -3,22 8,22 12,0 16,10 16,35 0,32 -2,35 -30,35 -19,0 -33,7 -40,19 -15,29 -13,31 30,31 l 40,0 0,40 0,41 -65,-2 c -51,-2 -70,2 -85,16 -11,10 -20,22 -20,27 0,4 38,8 85,8 l 85,0 0,35 0,35 -85,0 -85,0 0,180 0,180 85,0 85,0 0,35 0,35 -120,0 -120,0 0,-215 c 0,-118 -4,-215 -8,-215 -5,0 -16,8 -25,18 -15,16 -17,48 -17,240 l 0,222 145,0 145,0 0,40 0,40 -180,0 -180,0 0,-235 c 0,-247 -1,-253 -43,-222 -16,11 -17,36 -15,257 l 3,245 208,3 207,2 0,35 0,35 -245,0 -245,0 0,-271 c 0,-243 -2,-271 -16,-265 -9,3 -20,6 -25,6 -5,0 -9,121 -9,290 l 0,290 28,1 c 15,0 136,0 270,-1 l 242,-1 0,200 c 0,109 -4,201 -9,203 -4,2 -12,13 -15,26 -6,16 -3,22 8,22 12,0 16,10 16,35 0,32 -2,35 -30,35 -19,0 -33,7 -40,19 -15,29 -13,31 30,31 l 40,0 0,40 0,40 -68,0 c -54,0 -72,4 -85,18 -10,10 -17,22 -17,25 0,4 38,7 85,7 l 85,0 0,35 0,35 -85,0 -85,0 0,180 0,180 85,0 85,0 0,35 0,35 -120,0 -120,0 0,-215 c 0,-118 -4,-215 -8,-215 -5,0 -16,8 -25,18 -15,16 -17,48 -17,240 l 0,222 145,0 145,0 0,40 0,40 -180,0 -180,0 0,-235 c 0,-160 -3,-235 -11,-235 -6,0 -19,5 -30,10 -18,10 -19,24 -19,260 l 0,250 210,0 210,0 0,35 0,35 -245,0 -245,0 0,-271 c 0,-243 -2,-271 -16,-265 -9,3 -20,6 -25,6 -5,0 -9,121 -9,290 l 0,290 270,0 270,0 0,105 0,105 -33,0 -34,0 -2,-57 c -3,-68 -5,-73 -35,-73 -23,0 -24,2 -18,65 l 5,65 -35,0 -35,0 -9,-62 c -8,-58 -11,-63 -36,-66 -29,-3 -29,-4 -13,101 4,25 2,27 -33,27 l -38,0 -10,-62 c -8,-59 -11,-63 -38,-66 -23,-3 -27,0 -23,12 4,9 9,38 13,66 l 7,50 -42,0 c -40,0 -41,-1 -41,-34 0,-18 -5,-47 -11,-65 -9,-25 -16,-31 -40,-31 l -28,0 14,41 c 8,23 15,52 15,65 0,21 -5,24 -39,24 -37,0 -39,-1 -44,-40 -14,-108 -138,-165 -237,-109 -42,24 -80,82 -80,123 0,24 -3,26 -41,26 l -42,0 7,-41 c 23,-147 173,-242 306,-195 60,21 62,20 58,-11 -6,-52 -132,-70 -233,-32 -99,37 -185,153 -185,249 0,28 -2,30 -40,30 l -40,0 7,-47 c 12,-92 42,-154 107,-219 92,-92 201,-124 339,-101 45,8 47,7 47,-16 0,-29 -9,-34 -88,-43 -116,-13 -247,34 -335,118 -58,57 -112,167 -122,251 l -7,57 -36,0 -35,0 6,-72 c 13,-158 125,-310 284,-386 77,-37 79,-37 206,-37 125,0 127,0 127,-22 0,-29 -32,-38 -135,-37 -145,1 -278,57 -380,159 -91,91 -142,203 -160,348 -6,46 -7,47 -41,47 -33,0 -34,-1 -34,-37 0,-21 7,-69 15,-106 43,-205 195,-376 403,-455 59,-23 82,-26 199,-26 129,-1 133,-2 133,-22 0,-30 -16,-34 -128,-34 -164,0 -302,48 -424,145 -144,113 -248,320 -248,491 l 0,44 -80,0 -80,0 0,-65 c 0,-65 0,-65 -28,-65 l -28,0 4,65 4,65 -35,0 -35,0 -9,-62 c -7,-57 -10,-63 -34,-66 -25,-3 -25,-3 -21,63 l 4,65 -34,0 -34,0 -10,-62 c -8,-59 -11,-63 -37,-66 -24,-3 -28,0 -23,15 2,10 8,39 12,66 l 6,47 -41,0 c -38,0 -41,-2 -41,-27 0,-16 -5,-45 -11,-65 -9,-33 -14,-38 -39,-38 l -29,0 14,41 c 8,23 15,52 15,65 0,21 -5,24 -35,24 -30,0 -35,-4 -40,-27 -19,-88 -70,-135 -154,-141 -46,-3 -62,0 -91,20 -44,30 -80,83 -80,119 0,27 -3,29 -41,29 l -41,0 7,-42 c 25,-148 172,-241 305,-194 60,21 62,20 58,-11 -4,-34 -46,-52 -125,-52 -145,-2 -269,107 -289,253 -7,46 -7,46 -45,46 l -39,0 7,-47 c 12,-92 42,-154 107,-219 92,-92 199,-123 339,-101 45,8 47,7 47,-16 0,-30 -15,-36 -96,-44 -216,-20 -424,150 -448,366 l -7,61 -34,0 c -35,0 -35,-1 -35,-43 0,-106 64,-241 154,-325 108,-101 213,-137 372,-130 92,4 94,4 94,-19 0,-29 -30,-37 -135,-37 -145,1 -278,57 -380,160 -92,92 -142,202 -160,347 -6,46 -7,47 -41,47 -34,0 -34,-1 -34,-43 0,-64 35,-189 72,-260 41,-77 149,-191 222,-236 111,-66 176,-84 321,-87 129,-2 130,-2 130,-26 l 0,-23 -135,1 c -120,0 -143,3 -208,26 -253,91 -432,320 -450,576 l -5,72 -72,0 -72,0 -7,-37 c -3,-21 -6,-50 -6,-65 0,-24 -4,-28 -28,-28 l -28,0 4,65 4,65 -35,0 -35,0 -7,-65 c -7,-64 -8,-65 -37,-65 -23,0 -28,4 -24,18 3,9 8,38 12,65 l 6,47 -40,0 -40,0 -7,-65 c -7,-64 -7,-65 -37,-65 -23,0 -29,4 -24,15 3,8 8,37 12,65 l 7,50 -42,0 c -38,0 -41,-2 -41,-27 0,-16 -5,-45 -11,-65 -8,-33 -14,-38 -38,-38 l -29,0 14,38 c 7,20 13,49 14,65 0,25 -3,27 -40,27 -37,0 -40,-2 -40,-28 0,-107 -149,-181 -241,-119 -43,29 -79,82 -79,118 0,27 -3,29 -41,29 l -41,0 7,-42 c 25,-148 172,-241 305,-194 60,21 62,20 58,-11 -2,-23 -11,-31 -43,-41 -55,-19 -150,-11 -206,16 -92,45 -169,155 -169,242 0,28 -2,30 -39,30 l -39,0 6,-47 c 9,-89 41,-153 106,-219 92,-92 201,-124 339,-101 45,8 47,7 47,-16 0,-30 -15,-36 -95,-44 -119,-11 -243,35 -329,122 -64,65 -102,141 -117,234 l -12,71 -33,0 c -33,0 -34,-1 -34,-42 1,-198 177,-405 382,-449 28,-6 93,-9 144,-7 92,4 94,4 94,-19 0,-30 -31,-38 -135,-37 -146,1 -279,57 -380,160 -89,90 -155,228 -155,325 0,58 -8,69 -48,69 l -35,0 6,-67 c 12,-140 74,-274 172,-374 134,-137 293,-198 487,-187 87,5 88,5 88,-18 0,-32 -27,-38 -163,-31 -181,8 -309,62 -433,182 -115,113 -191,269 -201,418 l -6,77 -77,0 -77,0 -2,-57 c -3,-68 -5,-73 -35,-73 -23,0 -24,2 -18,65 l 5,65 -35,0 -35,0 -9,-62 c -8,-58 -11,-63 -36,-66 -29,-3 -29,-4 -13,101 4,25 2,27 -33,27 l -38,0 -10,-62 c -8,-59 -11,-63 -38,-66 -23,-3 -27,0 -23,12 4,9 9,38 13,66 l 7,50 -42,0 c -40,0 -41,-1 -41,-34 0,-18 -5,-47 -11,-65 -9,-25 -16,-31 -40,-31 l -28,0 14,41 c 8,23 15,52 15,65 0,21 -5,24 -40,24 -36,0 -40,-2 -40,-26 z m 2096,-102 c -12,-12 -18,8 -10,35 l 8,28 4,-28 c 2,-16 1,-31 -2,-35 z m 1500,0 c -12,-11 -17,7 -9,34 l 8,29 3,-28 c 2,-16 1,-31 -2,-35 z m -2996,23 c 0,-14 -4,-25 -10,-25 -5,0 -10,11 -10,25 0,14 5,25 10,25 6,0 10,-11 10,-25 z m 24,-121 c 3,-9 6,-20 6,-25 0,-5 -113,-9 -270,-9 l -270,0 0,-271 c 0,-243 -2,-271 -16,-265 -9,3 -20,6 -25,6 -5,0 -9,121 -9,290 l 0,290 289,0 c 254,0 290,-2 295,-16 z m 1500,0 c 3,-9 6,-20 6,-25 0,-5 -113,-9 -270,-9 l -270,0 0,-271 c 0,-243 -2,-271 -16,-265 -9,3 -20,6 -25,6 -5,0 -9,121 -9,290 l 0,290 289,0 c 254,0 290,-2 295,-16 z m 1500,0 c 3,-9 6,-20 6,-25 0,-5 -113,-9 -270,-9 l -270,0 0,-271 c 0,-243 -2,-271 -16,-265 -9,3 -20,6 -25,6 -5,0 -9,121 -9,290 l 0,290 289,0 c 254,0 290,-2 295,-16 z m -2950,-129 16,-25 -235,0 -235,0 0,-235 c 0,-160 -3,-235 -11,-235 -6,0 -19,5 -30,10 -18,10 -19,24 -19,260 l 0,250 249,0 249,0 16,-25 z m 1500,0 16,-25 -237,-2 -238,-3 0,-233 c 0,-127 -4,-232 -8,-232 -5,0 -17,5 -28,10 -18,10 -19,24 -19,260 l 0,250 249,0 249,0 16,-25 z m 1500,0 16,-25 -237,-2 -238,-3 0,-233 c 0,-127 -4,-232 -8,-232 -5,0 -17,5 -28,10 -18,10 -19,24 -19,260 l 0,250 249,0 249,0 16,-25 z M 912,7033 c 10,-9 18,-20 18,-25 0,-4 -97,-8 -215,-8 l -215,0 0,-215 c 0,-118 -3,-215 -7,-215 -3,0 -15,7 -25,17 -16,15 -18,36 -18,240 l 0,223 222,0 c 192,0 224,-2 240,-17 z m 1500,0 c 10,-9 18,-20 18,-25 0,-4 -97,-8 -215,-8 l -215,0 0,-215 c 0,-118 -3,-215 -7,-215 -3,0 -15,7 -25,17 -16,15 -18,36 -18,240 l 0,223 222,0 c 192,0 224,-2 240,-17 z m 1504,0 c 7,-10 14,-21 14,-25 0,-5 -97,-8 -215,-8 l -215,0 0,-215 c 0,-118 -3,-215 -7,-215 -3,0 -15,7 -25,17 -16,15 -18,36 -18,240 l 0,223 226,0 c 204,0 228,-2 240,-17 z m -2986,-283 0,-180 -180,0 -180,0 0,180 0,180 180,0 180,0 0,-180 z m 102,163 c 16,-15 18,-36 18,-240 l 0,-223 -222,0 c -192,0 -224,2 -240,17 -10,9 -18,20 -18,25 0,4 97,8 215,8 l 215,0 0,215 c 0,118 3,215 7,215 3,0 15,-7 25,-17 z m 1398,-163 0,-180 -180,0 -180,0 0,180 0,180 180,0 180,0 0,-180 z m 102,163 c 16,-15 18,-36 18,-240 l 0,-223 -222,0 c -192,0 -224,2 -240,17 -10,9 -18,20 -18,25 0,4 97,8 215,8 l 215,0 0,215 c 0,118 3,215 7,215 3,0 15,-7 25,-17 z m 1398,-163 0,-180 -180,0 -180,0 0,173 c 0,96 3,177 7,180 3,4 84,7 180,7 l 173,0 0,-180 z m 102,163 c 16,-15 18,-36 18,-240 l 0,-223 -222,0 c -192,0 -224,2 -240,17 -10,9 -18,20 -18,25 0,4 97,8 215,8 l 215,0 0,215 c 0,118 3,215 7,215 3,0 15,-7 25,-17 z m -1352,-344 0,-249 -250,0 c -236,0 -250,1 -260,19 -5,11 -10,22 -10,25 0,3 106,6 235,6 l 235,0 0,240 0,240 25,-16 25,-16 0,-249 z m -1519,261 c 18,-10 19,-24 19,-260 l 0,-250 -250,0 c -236,0 -250,1 -260,19 -5,11 -10,22 -10,25 0,3 105,7 233,8 l 232,3 3,233 c 1,127 5,232 8,232 3,0 14,-5 25,-10 z m 3000,0 c 18,-10 19,-24 19,-260 l 0,-250 -250,0 c -236,0 -250,1 -260,19 -5,11 -10,22 -10,25 0,3 105,7 233,8 l 232,3 3,233 c 1,127 5,232 8,232 3,0 14,-5 25,-10 z m -2870,-50 c 5,0 9,-121 9,-290 l 0,-290 -290,0 c -169,0 -290,4 -290,9 0,5 -3,16 -6,25 -6,14 22,16 265,16 l 271,0 0,271 c 0,243 2,271 16,265 9,-3 20,-6 25,-6 z m 1500,0 c 5,0 9,-121 9,-290 l 0,-290 -290,0 c -169,0 -290,4 -290,9 0,5 -3,16 -6,25 -6,14 22,16 265,16 l 271,0 0,271 c 0,243 2,271 16,265 9,-3 20,-6 25,-6 z m 1500,0 c 5,0 9,-121 9,-290 l 0,-290 -290,0 c -169,0 -290,4 -290,9 0,5 -3,16 -6,25 -6,14 22,16 265,16 l 271,0 0,271 c 0,243 2,271 16,265 9,-3 20,-6 25,-6 z M 125,6750 c 3,-5 -3,-10 -14,-10 -11,0 -23,5 -26,10 -3,6 3,10 14,10 11,0 23,-4 26,-10 z m 1290,0 c -3,-5 -15,-10 -26,-10 -11,0 -17,5 -14,10 3,6 15,10 26,10 11,0 17,-4 14,-10 z m 215,0 c 0,-5 -9,-10 -19,-10 -11,0 -23,5 -26,10 -4,6 5,10 19,10 14,0 26,-4 26,-10 z m 1290,0 c 0,-5 -12,-10 -26,-10 -14,0 -23,4 -19,10 3,6 15,10 26,10 10,0 19,-4 19,-10 z m 210,0 c 0,-5 -9,-10 -20,-10 -11,0 -20,5 -20,10 0,6 9,10 20,10 11,0 20,-4 20,-10 z m 1290,0 c 0,-5 -9,-10 -20,-10 -11,0 -20,5 -20,10 0,6 9,10 20,10 11,0 20,-4 20,-10 z m 205,0 c 3,-5 -3,-10 -14,-10 -11,0 -23,5 -26,10 -3,6 3,10 14,10 11,0 23,-4 26,-10 z m -2961,-96 c 33,-8 99,-34 146,-57 148,-72 282,-229 331,-387 28,-91 40,-192 33,-266 -6,-61 -8,-64 -33,-64 l -26,0 4,96 c 13,370 -274,656 -646,642 -89,-3 -103,-1 -103,12 0,9 5,21 12,28 18,18 207,15 282,-4 z m 1522,-7 c 177,-51 332,-178 412,-337 57,-115 72,-181 72,-317 l 0,-113 -27,0 -28,0 3,105 c 3,87 0,118 -18,177 -64,210 -192,348 -398,426 -59,23 -82,26 -199,27 -113,0 -133,2 -133,16 0,32 23,39 131,39 81,0 125,-5 185,-23 z m 1488,3 c 238,-61 426,-254 482,-496 9,-42 14,-102 12,-167 -3,-101 -3,-102 -29,-105 l -25,-3 4,85 c 6,112 -12,204 -57,301 -109,230 -327,362 -582,353 -95,-3 -99,-2 -99,18 0,11 3,24 7,27 15,16 211,7 287,-13 z M 1660,6520 c 69,-20 167,-74 214,-118 42,-40 110,-140 134,-198 30,-73 46,-179 37,-258 -6,-65 -7,-66 -36,-66 -24,0 -29,4 -25,18 26,91 8,219 -44,325 -55,112 -165,206 -290,247 -53,18 -83,21 -169,18 -102,-3 -104,-2 -106,20 -2,24 10,30 80,34 69,5 138,-3 205,-22 z m 1500,0 c 147,-43 264,-144 332,-285 44,-93 64,-207 51,-295 -7,-49 -11,-55 -33,-58 l -25,-3 0,123 c 0,112 -3,129 -29,190 -32,77 -119,179 -193,226 -86,55 -164,74 -282,70 -101,-3 -104,-2 -107,19 -4,25 9,31 81,35 69,5 138,-3 205,-22 z m 1578,-31 c 204,-99 337,-335 306,-544 -8,-56 -11,-60 -37,-63 -25,-3 -28,-1 -22,18 13,39 7,179 -10,237 -42,145 -150,264 -296,325 -46,19 -73,22 -177,23 l -123,0 3,25 c 3,23 8,25 63,30 111,9 201,-6 293,-51 z m -3090,-99 c 108,-38 202,-131 244,-244 23,-60 33,-165 21,-221 -7,-34 -13,-41 -36,-43 -26,-3 -27,-2 -20,25 4,15 8,62 7,103 -1,105 -36,181 -115,254 -85,79 -145,100 -275,93 l -101,-5 5,24 c 3,14 13,26 26,29 11,2 30,6 41,9 36,9 147,-4 203,-24 z m 1490,3 c 113,-38 211,-133 253,-244 24,-63 34,-168 22,-224 -7,-34 -13,-41 -37,-43 -23,-3 -27,0 -22,15 24,84 13,190 -30,274 -32,64 -121,143 -192,169 -47,18 -73,21 -156,18 -88,-3 -99,-1 -102,14 -1,10 3,21 9,25 42,26 174,24 255,-4 z m 1498,2 c 159,-48 286,-226 283,-399 -1,-88 -10,-110 -42,-114 -26,-3 -27,-2 -20,25 15,54 7,165 -17,228 -32,83 -122,173 -205,204 -52,20 -74,22 -157,19 -97,-5 -98,-5 -98,18 0,16 7,25 23,28 12,3 31,7 42,10 31,8 138,-3 191,-19 z M 1587,6275 c 145,-43 234,-204 194,-352 -10,-38 -15,-43 -41,-43 l -29,0 14,41 c 28,79 12,166 -42,229 -64,74 -148,100 -245,75 -33,-8 -61,-15 -62,-15 -1,0 -1,12 0,27 1,23 7,30 40,40 54,16 112,16 171,-2 z m 1535,-12 c 54,-25 110,-79 139,-135 26,-51 35,-148 20,-205 -10,-38 -15,-43 -41,-43 l -29,0 14,41 c 20,57 18,116 -6,169 -52,115 -159,166 -281,135 -33,-8 -61,-15 -62,-15 -2,0 -1,19 3,52 2,13 79,27 137,24 33,-2 81,-12 106,-23 z m 1500,0 c 99,-44 168,-151 168,-259 0,-88 -15,-124 -51,-124 -34,0 -33,-2 -14,43 31,74 8,176 -53,240 -67,71 -174,90 -275,51 -14,-5 -17,0 -17,24 0,26 5,31 38,41 53,15 151,7 204,-16 z M 1584,6137 c 103,-59 102,-213 -1,-274 -106,-62 -243,14 -243,135 0,125 135,202 244,139 z m 1495,3 c 112,-57 112,-223 0,-280 -110,-57 -239,19 -239,139 0,122 128,198 239,141 z m 1490,6 c 15,-8 42,-31 60,-51 27,-31 31,-43 31,-93 0,-69 -29,-120 -83,-146 -168,-79 -320,135 -185,261 46,43 124,56 177,29 z M 760,6088 c 0,-25 -3,-29 -10,-18 -13,20 -13,50 0,50 6,0 10,-15 10,-32 z m 122,-57 c -9,-185 49,-334 182,-467 134,-134 274,-189 463,-182 l 104,4 -3,-26 -3,-25 -140,1 c -125,0 -147,3 -207,26 -197,74 -337,215 -410,410 -25,67 -32,103 -36,190 -6,130 0,158 31,158 23,0 23,-2 19,-89 z m 133,-34 0,-124 42,-85 c 67,-135 187,-234 328,-269 25,-6 89,-10 145,-7 98,4 100,3 100,-19 0,-15 -7,-24 -22,-27 -121,-25 -230,-11 -346,45 -189,91 -304,274 -304,484 0,102 7,125 35,125 21,0 22,-3 22,-123 z m 129,91 c -14,-64 -6,-161 17,-223 31,-82 121,-173 202,-203 64,-24 147,-31 220,-19 46,8 47,7 47,-17 0,-21 -6,-26 -50,-35 -91,-20 -176,-8 -269,38 -167,81 -266,298 -215,474 3,10 15,17 30,17 24,0 25,-3 18,-32 z m 143,18 c -51,-132 -10,-258 103,-316 66,-33 119,-35 218,-5 19,6 22,4 22,-18 0,-38 -32,-51 -125,-52 -65,0 -89,5 -129,24 -128,63 -194,210 -154,342 10,34 15,39 41,39 21,0 28,-4 24,-14 z m 973,-18 c 0,-25 -3,-29 -10,-18 -13,20 -13,50 0,50 6,0 10,-15 10,-32 z m 125,-85 c 0,-94 5,-132 22,-188 58,-184 200,-330 391,-403 59,-23 82,-26 200,-27 l 133,0 -3,-25 -3,-25 -140,1 c -134,0 -144,2 -221,32 -259,103 -420,327 -432,599 -5,125 0,153 31,153 22,0 22,-3 22,-117 z m 127,23 c -8,-185 75,-348 227,-445 86,-55 162,-73 284,-69 105,3 107,3 107,-19 0,-29 -26,-36 -130,-36 -302,0 -543,239 -543,538 0,100 7,125 37,125 21,0 22,-2 18,-94 z m 131,57 c -13,-63 -5,-156 18,-219 31,-82 121,-172 203,-203 65,-24 144,-31 219,-18 43,8 47,7 47,-12 0,-64 -190,-65 -319,-2 -77,37 -147,110 -189,198 -30,64 -35,84 -36,156 -1,108 7,137 40,137 24,0 24,-2 17,-37 z m 142,20 c -17,-42 -26,-101 -20,-137 22,-143 173,-239 305,-192 60,21 62,20 58,-11 -2,-23 -11,-30 -48,-41 -57,-17 -143,-10 -202,16 -121,53 -190,198 -158,331 11,47 14,51 42,51 25,0 29,-3 23,-17 z m 974,-15 c 0,-28 -2,-30 -9,-13 -12,28 -12,45 0,45 6,0 10,-15 9,-32 z m 126,-91 c 1,-106 4,-132 27,-195 68,-189 209,-329 397,-394 55,-19 86,-23 194,-23 l 128,0 -3,-25 c -3,-25 -4,-25 -115,-28 -217,-5 -395,75 -529,236 -103,125 -153,267 -154,434 0,101 5,118 34,118 20,0 21,-4 21,-123 z m 127,37 c -8,-160 42,-288 152,-392 108,-100 209,-137 366,-130 98,4 100,3 100,-18 0,-30 -26,-37 -130,-37 -269,0 -489,186 -536,453 -13,76 -12,140 3,193 2,10 14,17 27,17 22,0 22,-2 18,-86 z m 131,49 c -25,-130 9,-247 101,-339 92,-92 201,-124 339,-101 46,8 47,8 47,-17 0,-22 -6,-26 -57,-36 -106,-22 -228,6 -320,74 -105,77 -167,200 -168,331 0,97 9,125 41,125 24,0 24,-2 17,-37 z m 142,20 c -63,-155 20,-311 180,-337 37,-6 75,-1 143,20 21,6 23,4 20,-22 -2,-24 -10,-30 -48,-42 -139,-41 -299,38 -350,174 -38,102 -19,224 36,224 21,0 25,-3 19,-17 z M 2256,5882 c -12,-12 -18,8 -10,35 l 8,28 4,-28 c 2,-16 1,-31 -2,-35 z m 1500,0 c -12,-12 -18,8 -10,35 l 8,28 4,-28 c 2,-16 1,-31 -2,-35 z m -2996,23 c 0,-14 -4,-25 -10,-25 -11,0 -14,33 -3,43 11,11 13,8 13,-18 z m 22,-118 c 23,-36 14,-37 -262,-37 l -270,0 0,-271 c 0,-243 -2,-271 -16,-265 -9,3 -20,6 -25,6 -5,0 -9,120 -9,289 l 0,290 28,3 c 15,2 144,2 287,0 188,-2 262,-6 267,-15 z m 1500,1 c 23,-37 15,-38 -262,-38 l -270,0 0,-271 c 0,-243 -2,-271 -16,-265 -9,3 -20,6 -25,6 -5,0 -9,122 -9,293 l 0,292 287,-2 c 218,-2 289,-6 295,-15 z m 1500,0 c 23,-37 15,-38 -262,-38 l -270,0 0,-271 c 0,-243 -2,-271 -16,-265 -9,3 -20,6 -25,6 -5,0 -9,120 -9,289 l 0,290 28,3 c 15,2 144,2 286,1 198,-2 261,-5 268,-15 z m -2948,-133 16,-25 -235,0 -235,0 0,-235 c 0,-160 -3,-235 -11,-235 -6,0 -19,5 -30,10 -18,10 -19,24 -19,254 0,133 3,246 7,249 3,4 115,7 249,7 l 242,0 16,-25 z m 1500,0 16,-25 -237,-2 -238,-3 -3,-232 c -1,-128 -5,-233 -8,-233 -3,0 -14,5 -25,10 -18,10 -19,24 -19,260 l 0,250 249,0 249,0 16,-25 z m 1501,3 15,-23 -237,-5 -238,-5 -3,-232 c -1,-128 -5,-233 -8,-233 -3,0 -14,5 -25,10 -18,10 -19,24 -19,260 l 0,250 249,0 c 248,0 250,0 266,-22 z m 81,-126 c 8,-9 14,-20 14,-24 0,-5 -97,-8 -215,-8 l -215,0 0,-215 c 0,-118 -3,-215 -7,-215 -3,0 -15,7 -25,17 -16,15 -18,36 -18,242 l 0,226 227,-3 c 200,-2 228,-5 239,-20 z m -3000,1 c 7,-10 14,-21 14,-25 0,-5 -97,-8 -215,-8 l -215,0 0,-215 c 0,-118 -3,-215 -7,-215 -3,0 -15,7 -25,17 -16,15 -18,36 -18,240 l 0,223 226,0 c 204,0 228,-2 240,-17 z m 1496,0 c 10,-9 18,-20 18,-25 0,-4 -97,-8 -215,-8 l -215,0 0,-215 c 0,-118 -3,-215 -7,-215 -3,0 -15,7 -25,17 -16,15 -18,36 -18,240 l 0,223 222,0 c 192,0 224,-2 240,-17 z m -1482,-283 0,-180 -180,0 -180,0 0,180 0,180 180,0 180,0 0,-180 z m 102,163 c 16,-15 18,-36 18,-240 l 0,-223 -207,-1 c -115,-1 -215,0 -223,1 -18,2 -50,29 -50,42 0,4 97,8 215,8 l 215,0 0,215 c 0,118 3,215 7,215 3,0 15,-7 25,-17 z m 1398,-163 0,-180 -180,0 -180,0 0,180 0,180 180,0 180,0 0,-180 z m 102,163 c 16,-15 18,-36 18,-240 l 0,-223 -222,0 c -192,0 -224,2 -240,17 -10,9 -18,20 -18,25 0,4 97,8 215,8 l 215,0 0,215 c 0,118 3,215 7,215 3,0 15,-7 25,-17 z m 1398,-163 0,-180 -180,0 -180,0 0,180 0,180 180,0 180,0 0,-180 z m 102,163 c 16,-15 18,-36 18,-240 l 0,-223 -222,0 c -192,0 -224,2 -240,17 -10,9 -18,20 -18,25 0,4 97,8 215,8 l 215,0 0,215 c 0,118 3,215 7,215 3,0 15,-7 25,-17 z m -2871,-83 c 18,-10 19,-24 19,-260 l 0,-250 -250,0 c -236,0 -250,1 -260,19 -5,11 -10,22 -10,25 0,3 105,7 233,8 l 232,3 3,233 c 1,127 5,232 8,232 3,0 14,-5 25,-10 z m 1500,0 c 18,-10 19,-24 19,-260 l 0,-250 -250,0 c -236,0 -250,1 -260,19 -5,11 -10,22 -10,25 0,3 105,7 233,8 l 232,3 3,233 c 1,127 5,232 8,232 3,0 14,-5 25,-10 z m 1500,0 c 18,-10 19,-24 19,-260 l 0,-250 -250,0 c -236,0 -250,1 -260,19 -5,11 -10,22 -10,25 0,3 103,6 230,6 l 229,0 6,33 c 3,17 5,123 3,235 -2,111 1,202 5,202 5,0 17,-5 28,-10 z m -2870,-50 c 5,0 9,-121 9,-290 l 0,-290 -290,0 c -169,0 -290,4 -290,9 0,5 -3,16 -6,25 -6,14 22,16 265,16 l 271,0 0,271 c 0,243 2,271 16,265 9,-3 20,-6 25,-6 z m 1500,0 c 5,0 9,-120 9,-290 l 0,-289 -286,-3 -286,-3 -9,23 c -5,13 -9,25 -9,28 0,2 122,4 270,4 l 270,0 0,271 c 0,243 2,271 16,265 9,-3 20,-6 25,-6 z m 1500,0 c 5,0 9,-121 9,-290 l 0,-290 -290,0 c -169,0 -290,4 -290,9 0,5 -3,16 -6,25 -6,14 22,16 265,16 l 271,0 0,271 c 0,243 2,271 16,265 9,-3 20,-6 25,-6 z M 130,5250 c 0,-5 -12,-10 -26,-10 -14,0 -23,4 -19,10 3,6 15,10 26,10 10,0 19,-4 19,-10 z m 1285,0 c 4,-6 -5,-10 -20,-10 -15,0 -24,4 -20,10 3,6 12,10 20,10 8,0 17,-4 20,-10 z m 215,0 c 0,-5 -12,-10 -27,-10 -22,0 -25,2 -13,10 20,13 40,13 40,0 z m 1290,0 c 11,-7 7,-10 -18,-10 -20,0 -31,4 -27,10 8,13 26,13 45,0 z m 210,0 c 0,-5 -12,-10 -26,-10 -14,0 -23,4 -19,10 3,6 15,10 26,10 10,0 19,-4 19,-10 z m 1280,0 c 12,-8 11,-10 -7,-10 -13,0 -23,5 -23,10 0,13 11,13 30,0 z m 220,0 c 0,-5 -12,-10 -26,-10 -14,0 -23,4 -19,10 3,6 15,10 26,10 10,0 19,-4 19,-10 z m -2970,-95 c 36,-9 103,-35 150,-58 149,-73 281,-228 331,-387 28,-91 40,-192 33,-266 -6,-61 -8,-64 -33,-64 l -26,0 3,97 c 10,285 -148,513 -428,616 -43,16 -83,21 -185,22 -120,2 -130,4 -130,21 -1,11 4,22 10,26 18,14 208,8 275,-7 z m 1500,0 c 109,-26 222,-89 304,-169 87,-86 125,-143 168,-250 29,-74 32,-93 36,-218 l 4,-138 -28,0 -29,0 3,105 c 3,87 0,118 -18,177 -53,175 -146,295 -291,376 -107,61 -162,75 -304,78 -114,2 -130,4 -133,19 -2,10 2,21 10,26 22,14 208,10 278,-6 z m 1500,0 c 183,-43 357,-181 437,-345 23,-47 49,-114 58,-149 16,-63 23,-250 10,-271 -3,-5 -16,-10 -29,-10 -22,0 -22,2 -18,84 6,120 -11,205 -64,313 -73,148 -186,248 -352,311 -59,22 -83,26 -194,26 -123,1 -128,2 -128,22 0,11 3,24 7,27 12,13 208,7 273,-8 z M 1650,5023 c 247,-68 419,-316 395,-570 l -7,-73 -30,0 c -21,0 -29,4 -25,13 28,73 9,226 -39,325 -44,89 -133,176 -232,225 l -85,42 -125,1 c -107,2 -126,4 -128,18 -3,20 11,29 61,37 52,9 146,2 215,-18 z m 1515,-4 c 66,-20 164,-75 209,-117 42,-40 110,-140 134,-199 30,-71 46,-184 35,-258 -7,-54 -11,-60 -33,-63 l -25,-3 0,118 c 0,99 -4,128 -23,178 -43,115 -145,224 -258,275 -67,31 -133,42 -234,38 -80,-3 -95,-1 -98,13 -1,9 3,21 10,27 32,26 185,21 283,-9 z m 1485,4 c 85,-23 169,-72 236,-138 114,-112 181,-300 158,-445 -8,-51 -11,-55 -37,-58 -26,-3 -28,-1 -22,18 14,45 7,184 -13,247 -28,89 -62,141 -135,209 -108,101 -214,139 -369,132 -86,-4 -88,-4 -88,19 0,23 6,26 70,37 39,6 139,-4 200,-21 z M 1582,4909 c 217,-46 357,-240 334,-462 -7,-66 -8,-67 -37,-67 -27,0 -28,2 -21,33 4,17 7,64 6,102 -1,98 -38,178 -115,249 -85,79 -145,100 -276,93 -98,-5 -101,-4 -98,15 6,27 8,29 47,38 49,12 101,11 160,-1 z m 1569,-19 c 110,-44 200,-134 241,-242 23,-62 33,-167 21,-223 -7,-34 -13,-41 -37,-43 -23,-3 -27,0 -22,15 24,84 13,190 -30,274 -12,25 -48,69 -78,97 -89,80 -188,107 -324,88 -49,-7 -52,-7 -49,13 4,27 10,32 49,42 51,13 170,2 229,-21 z m 1489,4 c 113,-41 209,-134 251,-244 25,-63 34,-167 22,-225 -7,-33 -13,-41 -36,-43 -26,-3 -26,-2 -19,30 4,18 7,65 6,105 -1,95 -41,180 -119,252 -87,79 -202,109 -328,86 -35,-7 -37,-6 -37,19 0,20 6,27 28,32 15,3 32,8 37,10 22,8 151,-6 195,-22 z M 1602,4770 c 70,-26 118,-67 152,-130 33,-61 44,-152 27,-217 -10,-38 -15,-43 -40,-43 l -29,0 14,38 c 64,181 -108,364 -290,308 -57,-17 -65,-15 -59,18 9,46 133,61 225,26 z m 1502,0 c 63,-24 126,-81 157,-142 26,-51 35,-147 20,-205 -10,-38 -15,-43 -41,-43 l -29,0 14,41 c 64,181 -108,361 -290,305 -65,-20 -62,-21 -57,13 3,24 11,31 41,39 60,16 127,13 185,-8 z m 1498,0 c 74,-28 122,-70 157,-142 25,-48 31,-74 31,-123 0,-89 -15,-125 -51,-125 l -28,0 14,41 c 29,81 14,164 -43,229 -73,86 -173,107 -288,63 -10,-4 -14,3 -14,24 0,25 5,32 33,41 53,17 132,14 189,-8 z M 1585,4635 c 101,-59 101,-214 -1,-272 -166,-95 -332,124 -192,254 52,49 129,56 193,18 z m 1494,4 c 54,-30 83,-78 83,-139 0,-93 -68,-160 -165,-160 -82,0 -157,75 -157,157 0,124 132,203 239,142 z m 1500,0 c 52,-29 74,-64 79,-124 8,-99 -47,-165 -144,-173 -153,-13 -235,170 -122,275 50,47 127,56 187,22 z M 760,4588 c 0,-25 -3,-29 -10,-18 -13,20 -13,50 0,50 6,0 10,-15 10,-32 z m 122,-57 c -12,-255 121,-479 353,-591 97,-47 188,-64 307,-58 87,5 88,5 88,-18 0,-32 -27,-38 -163,-31 -181,8 -309,62 -433,182 -127,124 -194,271 -202,447 -6,130 0,158 31,158 23,0 23,-2 19,-89 z m 130,3 c -8,-160 42,-288 152,-392 108,-100 213,-137 372,-130 92,4 94,4 94,-19 0,-30 -31,-38 -135,-37 -241,2 -450,161 -519,394 -17,55 -23,219 -10,253 3,9 16,17 28,17 22,0 22,-3 18,-86 z m 134,60 c -4,-15 -7,-59 -7,-99 0,-105 29,-175 105,-251 92,-92 201,-124 339,-101 45,8 47,7 47,-16 0,-30 -15,-36 -95,-44 -212,-20 -406,132 -445,347 -10,58 -8,123 6,173 3,10 15,17 31,17 22,0 24,-3 19,-26 z m 139,9 c -29,-70 -28,-148 2,-208 52,-104 179,-158 283,-121 60,21 62,20 58,-11 -4,-36 -59,-56 -143,-51 -184,11 -309,183 -264,364 10,40 14,44 41,44 25,0 29,-3 23,-17 z m 975,-15 c 0,-25 -3,-29 -10,-18 -13,20 -13,50 0,50 6,0 10,-15 10,-32 z m 122,-57 c -9,-173 48,-328 168,-455 75,-79 146,-126 248,-164 57,-22 86,-26 197,-28 129,-2 130,-2 130,-26 l 0,-23 -135,1 c -120,0 -143,3 -208,26 -267,96 -438,325 -450,605 -5,127 0,153 32,153 23,0 23,-1 18,-89 z m 130,-5 c -7,-155 43,-282 152,-384 108,-101 213,-137 372,-130 92,4 94,4 94,-19 0,-29 -30,-37 -135,-37 -297,2 -538,243 -538,539 0,100 7,125 37,125 21,0 22,-2 18,-94 z m 132,62 c -14,-62 -7,-161 17,-223 31,-83 121,-173 203,-204 63,-23 143,-30 219,-18 45,8 47,7 47,-16 0,-30 -15,-36 -96,-44 -170,-16 -334,80 -411,242 -31,66 -36,86 -37,158 -1,109 7,137 40,137 24,0 25,-2 18,-32 z m 141,15 c -40,-98 -25,-193 44,-266 59,-65 161,-91 241,-63 60,21 62,20 58,-11 -4,-34 -46,-52 -125,-52 -187,-2 -327,175 -283,358 11,47 14,51 42,51 25,0 29,-3 23,-17 z m 974,-15 c 0,-28 -2,-30 -9,-13 -12,28 -12,45 0,45 6,0 10,-15 9,-32 z m 124,-55 c -16,-275 147,-520 415,-621 59,-23 82,-26 199,-26 129,-1 133,-2 133,-22 0,-30 -16,-34 -128,-34 -116,0 -203,19 -297,65 -234,114 -375,343 -375,610 0,99 5,115 35,115 23,0 24,-1 18,-87 z m 132,-36 0,-124 42,-84 c 54,-109 130,-184 240,-237 77,-37 79,-37 206,-37 125,0 127,0 127,-22 0,-29 -32,-38 -135,-37 -299,3 -537,242 -538,539 -1,98 7,125 36,125 21,0 22,-3 22,-123 z m 128,76 c -22,-132 11,-238 101,-329 92,-92 201,-124 339,-101 45,8 47,7 47,-16 0,-29 -9,-34 -88,-43 -174,-19 -343,79 -419,243 -31,68 -36,88 -37,158 -1,107 7,135 40,135 25,0 25,-1 17,-47 z m 142,30 c -41,-100 -26,-192 44,-266 59,-65 161,-91 241,-63 60,21 62,20 58,-11 -4,-32 -48,-51 -125,-52 -117,-2 -232,75 -272,184 -39,103 -20,225 35,225 21,0 25,-3 19,-17 z M 2256,4382 c -12,-12 -18,8 -10,35 l 8,28 4,-28 c 2,-16 1,-31 -2,-35 z m 1500,0 c -12,-11 -17,7 -9,34 l 8,29 3,-28 c 2,-16 1,-31 -2,-35 z m -2996,23 c 0,-14 -4,-25 -10,-25 -5,0 -10,11 -10,25 0,14 5,25 10,25 6,0 10,-11 10,-25 z m 24,-121 c 3,-9 6,-20 6,-25 0,-5 -113,-9 -270,-9 l -270,0 0,-271 c 0,-243 -2,-271 -16,-265 -9,3 -20,6 -25,6 -5,0 -9,121 -9,290 l 0,290 289,0 c 254,0 290,-2 295,-16 z m 1500,0 c 3,-9 6,-20 6,-25 0,-5 -113,-9 -270,-9 l -270,0 0,-271 c 0,-243 -2,-271 -16,-265 -9,3 -20,6 -25,6 -5,0 -9,121 -9,290 l 0,290 289,0 c 254,0 290,-2 295,-16 z m 1500,0 c 3,-9 6,-20 6,-25 0,-5 -113,-9 -270,-9 l -270,0 0,-271 c 0,-243 -2,-271 -16,-265 -9,3 -20,6 -25,6 -5,0 -9,121 -9,290 l 0,290 289,0 c 254,0 290,-2 295,-16 z m -2950,-129 16,-25 -235,0 -235,0 0,-235 c 0,-160 -3,-235 -11,-235 -6,0 -19,5 -30,10 -18,10 -19,24 -19,260 l 0,250 249,0 249,0 16,-25 z m 1500,0 16,-25 -237,-2 -238,-3 0,-233 c 0,-127 -4,-232 -8,-232 -5,0 -17,5 -28,10 -18,10 -19,24 -19,260 l 0,250 249,0 249,0 16,-25 z m 1500,0 16,-25 -237,-2 -238,-3 0,-233 c 0,-127 -4,-232 -8,-232 -5,0 -17,5 -28,10 -18,10 -19,24 -19,260 l 0,250 249,0 249,0 16,-25 z M 912,4033 c 10,-9 18,-20 18,-25 0,-4 -97,-8 -215,-8 l -215,0 0,-215 c 0,-118 -3,-215 -7,-215 -3,0 -15,7 -25,17 -16,15 -18,36 -18,240 l 0,223 222,0 c 192,0 224,-2 240,-17 z m 1500,0 c 10,-9 18,-20 18,-25 0,-4 -97,-8 -215,-8 l -215,0 0,-215 c 0,-118 -3,-215 -7,-215 -3,0 -15,7 -25,17 -16,15 -18,36 -18,240 l 0,223 222,0 c 192,0 224,-2 240,-17 z m 1504,0 c 7,-10 14,-21 14,-25 0,-5 -97,-8 -215,-8 l -215,0 0,-215 c 0,-118 -3,-215 -7,-215 -3,0 -15,7 -25,17 -16,15 -18,36 -18,240 l 0,223 226,0 c 204,0 228,-2 240,-17 z m -2986,-283 0,-180 -180,0 -180,0 0,180 0,180 180,0 180,0 0,-180 z m 102,163 c 16,-15 18,-36 18,-240 l 0,-223 -222,0 c -192,0 -224,2 -240,17 -10,9 -18,20 -18,25 0,4 97,8 215,8 l 215,0 0,215 c 0,118 3,215 7,215 3,0 15,-7 25,-17 z m 1398,-163 0,-180 -180,0 -180,0 0,180 0,180 180,0 180,0 0,-180 z m 102,163 c 16,-15 18,-36 18,-240 l 0,-223 -222,0 c -192,0 -224,2 -240,17 -10,9 -18,20 -18,25 0,4 97,8 215,8 l 215,0 0,215 c 0,118 3,215 7,215 3,0 15,-7 25,-17 z m 1398,-163 0,-180 -180,0 -180,0 0,173 c 0,96 3,177 7,180 3,4 84,7 180,7 l 173,0 0,-180 z m 102,163 c 16,-15 18,-36 18,-240 l 0,-223 -222,0 c -192,0 -224,2 -240,17 -10,9 -18,20 -18,25 0,4 97,8 215,8 l 215,0 0,215 c 0,118 3,215 7,215 3,0 15,-7 25,-17 z m -1352,-344 0,-249 -250,0 c -236,0 -250,1 -260,19 -5,11 -10,22 -10,25 0,3 106,6 235,6 l 235,0 0,240 0,240 25,-16 25,-16 0,-249 z m -1519,261 c 18,-10 19,-24 19,-260 l 0,-250 -250,0 c -236,0 -250,1 -260,19 -5,11 -10,22 -10,25 0,3 105,7 233,8 l 232,3 3,233 c 1,127 5,232 8,232 3,0 14,-5 25,-10 z m 3000,0 c 18,-10 19,-24 19,-260 l 0,-250 -250,0 c -236,0 -250,1 -260,19 -5,11 -10,22 -10,25 0,3 105,7 233,8 l 232,3 3,233 c 1,127 5,232 8,232 3,0 14,-5 25,-10 z m -2870,-50 c 5,0 9,-121 9,-290 l 0,-290 -290,0 c -169,0 -290,4 -290,9 0,5 -3,16 -6,25 -6,14 22,16 265,16 l 271,0 0,271 c 0,243 2,271 16,265 9,-3 20,-6 25,-6 z m 1500,0 c 5,0 9,-121 9,-290 l 0,-290 -290,0 c -169,0 -290,4 -290,9 0,5 -3,16 -6,25 -6,14 22,16 265,16 l 271,0 0,271 c 0,243 2,271 16,265 9,-3 20,-6 25,-6 z m 1500,0 c 5,0 9,-121 9,-290 l 0,-290 -290,0 c -169,0 -290,4 -290,9 0,5 -3,16 -6,25 -6,14 22,16 265,16 l 271,0 0,271 c 0,243 2,271 16,265 9,-3 20,-6 25,-6 z M 125,3750 c 3,-5 -3,-10 -14,-10 -11,0 -23,5 -26,10 -3,6 3,10 14,10 11,0 23,-4 26,-10 z m 1290,0 c -3,-5 -15,-10 -26,-10 -11,0 -17,5 -14,10 3,6 15,10 26,10 11,0 17,-4 14,-10 z m 215,0 c 0,-5 -9,-10 -19,-10 -11,0 -23,5 -26,10 -4,6 5,10 19,10 14,0 26,-4 26,-10 z m 1290,0 c 0,-5 -12,-10 -26,-10 -14,0 -23,4 -19,10 3,6 15,10 26,10 10,0 19,-4 19,-10 z m 210,0 c 0,-5 -9,-10 -20,-10 -11,0 -20,5 -20,10 0,6 9,10 20,10 11,0 20,-4 20,-10 z m 1290,0 c 0,-5 -9,-10 -20,-10 -11,0 -20,5 -20,10 0,6 9,10 20,10 11,0 20,-4 20,-10 z m 205,0 c 3,-5 -3,-10 -14,-10 -11,0 -23,5 -26,10 -3,6 3,10 14,10 11,0 23,-4 26,-10 z m -2961,-96 c 33,-8 99,-34 146,-57 148,-72 282,-229 331,-387 28,-91 40,-192 33,-266 -6,-61 -8,-64 -33,-64 l -26,0 4,96 c 13,370 -274,656 -646,642 -89,-3 -103,-1 -103,12 0,9 5,21 12,28 18,18 207,15 282,-4 z m 1522,-7 c 177,-51 332,-178 412,-337 57,-115 72,-181 72,-317 l 0,-113 -27,0 -28,0 3,105 c 3,87 0,118 -18,177 -64,210 -192,348 -398,426 -59,23 -82,26 -199,27 -113,0 -133,2 -133,16 0,32 23,39 131,39 81,0 125,-5 185,-23 z m 1488,3 c 238,-61 425,-254 482,-496 15,-65 21,-245 9,-264 -3,-6 -16,-10 -29,-10 -22,0 -22,2 -18,84 6,112 -12,204 -57,301 -109,230 -327,362 -582,353 -95,-3 -99,-2 -99,18 0,11 3,24 7,27 15,16 211,7 287,-13 z M 1660,3520 c 69,-20 167,-74 214,-118 41,-40 110,-140 133,-197 32,-75 46,-170 38,-252 l -7,-73 -30,0 c -21,0 -29,4 -25,13 16,42 17,128 3,195 -39,185 -161,324 -336,382 -53,18 -83,21 -169,18 -102,-3 -104,-2 -106,20 -2,24 10,30 80,34 69,5 138,-3 205,-22 z m 1500,0 c 147,-43 264,-144 332,-285 44,-93 64,-207 51,-295 -7,-49 -11,-55 -33,-58 l -25,-3 0,123 c 0,112 -3,129 -29,190 -32,77 -119,179 -193,226 -86,55 -164,74 -282,70 -101,-3 -104,-2 -107,19 -4,25 9,31 81,35 69,5 138,-3 205,-22 z m 1578,-31 c 204,-99 337,-335 306,-544 -8,-56 -11,-60 -37,-63 -25,-3 -28,-1 -22,18 13,39 7,179 -10,237 -42,145 -150,264 -296,325 -46,19 -73,22 -177,23 l -123,0 3,25 c 3,23 8,25 63,30 111,9 201,-6 293,-51 z m -3090,-99 c 179,-63 289,-246 267,-445 -6,-64 -7,-65 -36,-65 -27,0 -29,2 -22,28 5,15 8,61 7,102 -1,105 -36,181 -115,254 -85,79 -145,100 -275,93 l -101,-5 5,24 c 3,14 13,26 26,29 11,2 30,6 41,9 36,9 147,-4 203,-24 z m 1490,3 c 113,-38 211,-133 253,-244 24,-63 34,-168 22,-224 -7,-34 -13,-41 -37,-43 -23,-3 -27,0 -22,15 24,84 13,190 -30,274 -32,64 -121,143 -192,169 -47,18 -73,21 -156,18 -88,-3 -99,-1 -102,14 -1,10 3,21 9,25 42,26 174,24 255,-4 z m 1498,2 c 157,-47 286,-227 283,-394 -2,-93 -10,-116 -42,-119 -26,-3 -27,-2 -20,25 15,54 7,165 -17,228 -32,83 -122,173 -205,204 -52,20 -74,22 -157,19 -97,-5 -98,-5 -98,18 0,16 7,25 23,28 12,3 31,7 42,10 31,8 138,-3 191,-19 z M 1587,3275 c 145,-43 234,-204 194,-352 -10,-38 -15,-43 -40,-43 l -29,0 14,38 c 27,77 11,169 -43,232 -64,74 -148,100 -245,75 -33,-8 -61,-15 -62,-15 -1,0 -1,12 0,27 1,23 7,30 40,40 54,16 112,16 171,-2 z m 1535,-12 c 54,-25 110,-79 139,-135 26,-51 35,-148 20,-205 -10,-38 -15,-43 -41,-43 l -29,0 14,41 c 20,57 18,116 -6,169 -52,115 -159,166 -281,135 -33,-8 -61,-15 -62,-15 -2,0 -1,19 3,52 2,13 79,27 137,24 33,-2 81,-12 106,-23 z m 1500,0 c 99,-44 168,-151 168,-259 0,-88 -15,-124 -51,-124 l -28,0 14,41 c 29,83 8,177 -53,242 -67,71 -174,90 -275,51 -14,-5 -17,0 -17,24 0,26 5,31 38,41 53,15 151,7 204,-16 z M 1584,3137 c 48,-27 76,-78 76,-137 0,-92 -68,-160 -161,-160 -84,0 -159,74 -159,158 0,125 135,202 244,139 z m 1495,3 c 112,-57 111,-230 -2,-283 -168,-80 -321,134 -185,260 49,46 124,56 187,23 z m 1490,6 c 15,-8 42,-31 60,-51 26,-30 31,-44 31,-86 0,-99 -52,-159 -146,-167 -153,-13 -235,170 -122,275 46,43 124,56 177,29 z M 760,3088 c 0,-25 -3,-29 -10,-18 -13,20 -13,50 0,50 6,0 10,-15 10,-32 z m 122,-57 c -12,-255 121,-479 353,-591 97,-47 188,-64 307,-58 87,5 88,5 88,-18 0,-32 -27,-38 -163,-31 -181,8 -309,62 -433,182 -127,124 -194,271 -202,447 -6,130 0,158 31,158 23,0 23,-2 19,-89 z m 130,3 c -8,-160 42,-288 152,-392 108,-100 213,-137 372,-130 92,4 94,4 94,-19 0,-30 -31,-38 -135,-37 -242,2 -452,163 -520,396 -16,58 -23,208 -10,247 4,13 15,21 29,21 22,0 22,-2 18,-86 z m 133,54 c -14,-62 -7,-163 16,-224 31,-82 121,-172 203,-203 65,-24 144,-31 219,-18 45,8 47,7 47,-16 0,-30 -15,-36 -95,-44 -212,-20 -406,132 -445,347 -10,58 -8,123 6,173 3,10 15,17 30,17 23,0 25,-3 19,-32 z m 142,18 c -41,-105 -27,-196 42,-269 59,-65 161,-91 241,-63 60,21 62,20 58,-11 -4,-36 -59,-56 -143,-51 -185,11 -316,195 -263,369 10,34 15,39 41,39 21,0 28,-4 24,-14 z m 973,-18 c 0,-25 -3,-29 -10,-18 -13,20 -13,50 0,50 6,0 10,-15 10,-32 z m 122,-57 c -9,-173 48,-328 168,-455 75,-79 146,-126 248,-164 57,-22 86,-26 197,-28 129,-2 130,-2 130,-26 l 0,-23 -135,1 c -120,0 -143,3 -208,26 -267,96 -438,325 -450,605 -5,127 0,153 32,153 23,0 23,-1 18,-89 z m 130,-5 c -7,-155 43,-282 152,-384 108,-101 213,-137 372,-130 92,4 94,4 94,-19 0,-29 -30,-37 -135,-37 -297,2 -538,243 -538,539 0,100 7,125 37,125 21,0 22,-2 18,-94 z m 131,57 c -13,-63 -5,-156 18,-219 31,-82 121,-172 203,-203 63,-23 143,-30 219,-18 45,8 47,7 47,-16 0,-30 -15,-36 -96,-44 -170,-16 -334,80 -411,242 -31,66 -36,86 -37,158 -1,108 7,137 40,137 24,0 24,-2 17,-37 z m 142,20 c -29,-70 -28,-148 2,-208 52,-104 179,-158 283,-121 60,21 62,20 58,-11 -4,-34 -46,-52 -125,-52 -187,-2 -327,175 -283,358 11,47 14,51 42,51 25,0 29,-3 23,-17 z m 974,-15 c 0,-28 -2,-30 -9,-13 -12,28 -12,45 0,45 6,0 10,-15 9,-32 z m 124,-55 c -15,-277 147,-520 415,-621 59,-23 82,-26 199,-26 129,-1 133,-2 133,-22 0,-30 -16,-34 -128,-34 -116,0 -203,19 -297,65 -234,114 -375,343 -375,610 0,99 5,115 35,115 22,0 22,-2 18,-87 z m 132,-36 0,-124 42,-84 c 54,-109 130,-184 240,-237 77,-37 79,-37 206,-37 125,0 127,0 127,-22 0,-29 -32,-38 -135,-37 -299,3 -537,242 -538,539 -1,98 7,125 36,125 21,0 22,-3 22,-123 z m 129,91 c -14,-62 -7,-161 17,-223 31,-83 121,-173 203,-204 65,-24 144,-31 219,-18 45,8 47,7 47,-16 0,-29 -9,-34 -88,-43 -174,-19 -343,79 -419,243 -31,68 -36,88 -37,158 -1,107 7,135 40,135 24,0 25,-2 18,-32 z m 141,15 c -41,-100 -26,-192 44,-266 59,-65 161,-91 241,-63 60,21 62,20 58,-11 -4,-32 -48,-51 -125,-52 -117,-2 -232,75 -272,184 -39,103 -20,225 35,225 21,0 25,-3 19,-17 z M 2256,2882 c -12,-12 -18,8 -10,35 l 8,28 4,-28 c 2,-16 1,-31 -2,-35 z m 1500,0 c -12,-11 -17,7 -9,34 l 8,29 3,-28 c 2,-16 1,-31 -2,-35 z m -2996,23 c 0,-14 -4,-25 -10,-25 -5,0 -10,11 -10,25 0,14 5,25 10,25 6,0 10,-11 10,-25 z m 24,-121 c 3,-9 6,-20 6,-25 0,-5 -113,-9 -270,-9 l -270,0 0,-271 c 0,-243 -2,-271 -16,-265 -9,3 -20,6 -25,6 -5,0 -9,121 -9,290 l 0,290 289,0 c 254,0 290,-2 295,-16 z m 1500,0 c 3,-9 6,-20 6,-25 0,-5 -113,-9 -270,-9 l -270,0 0,-271 c 0,-243 -2,-271 -16,-265 -9,3 -20,6 -25,6 -5,0 -9,121 -9,290 l 0,290 289,0 c 254,0 290,-2 295,-16 z m 1500,0 c 3,-9 6,-20 6,-25 0,-5 -113,-9 -270,-9 l -270,0 0,-271 c 0,-243 -2,-271 -16,-265 -9,3 -20,6 -25,6 -5,0 -9,121 -9,290 l 0,290 289,0 c 254,0 290,-2 295,-16 z m -2950,-129 16,-25 -235,0 -235,0 0,-235 c 0,-160 -3,-235 -11,-235 -6,0 -19,5 -30,10 -18,10 -19,24 -19,260 l 0,250 249,0 249,0 16,-25 z m 1500,0 16,-25 -237,-2 -238,-3 0,-233 c 0,-127 -4,-232 -8,-232 -5,0 -17,5 -28,10 -18,10 -19,24 -19,260 l 0,250 249,0 249,0 16,-25 z m 1500,0 16,-25 -237,-2 -238,-3 0,-233 c 0,-127 -4,-232 -8,-232 -5,0 -17,5 -28,10 -18,10 -19,24 -19,260 l 0,250 249,0 249,0 16,-25 z M 912,2533 c 10,-9 18,-20 18,-25 0,-4 -97,-8 -215,-8 l -215,0 0,-215 c 0,-118 -3,-215 -7,-215 -3,0 -15,7 -25,17 -16,15 -18,36 -18,240 l 0,223 222,0 c 192,0 224,-2 240,-17 z m 1500,0 c 10,-9 18,-20 18,-25 0,-4 -97,-8 -215,-8 l -215,0 0,-215 c 0,-118 -3,-215 -7,-215 -3,0 -15,7 -25,17 -16,15 -18,36 -18,240 l 0,223 222,0 c 192,0 224,-2 240,-17 z m 1504,0 c 7,-10 14,-21 14,-25 0,-5 -97,-8 -215,-8 l -215,0 0,-215 c 0,-118 -3,-215 -7,-215 -3,0 -15,7 -25,17 -16,15 -18,36 -18,240 l 0,223 226,0 c 204,0 228,-2 240,-17 z m -2986,-283 0,-180 -180,0 -180,0 0,180 0,180 180,0 180,0 0,-180 z m 102,163 c 16,-15 18,-36 18,-240 l 0,-223 -222,0 c -192,0 -224,2 -240,17 -10,9 -18,20 -18,25 0,4 97,8 215,8 l 215,0 0,215 c 0,118 3,215 7,215 3,0 15,-7 25,-17 z m 1398,-163 0,-180 -180,0 -180,0 0,180 0,180 180,0 180,0 0,-180 z m 102,163 c 16,-15 18,-36 18,-240 l 0,-223 -222,0 c -192,0 -224,2 -240,17 -10,9 -18,20 -18,25 0,4 97,8 215,8 l 215,0 0,215 c 0,118 3,215 7,215 3,0 15,-7 25,-17 z m 1398,-163 0,-180 -180,0 -180,0 0,173 c 0,96 3,177 7,180 3,4 84,7 180,7 l 173,0 0,-180 z m 102,163 c 16,-15 18,-36 18,-240 l 0,-223 -222,0 c -192,0 -224,2 -240,17 -10,9 -18,20 -18,25 0,4 97,8 215,8 l 215,0 0,215 c 0,118 3,215 7,215 3,0 15,-7 25,-17 z m -1352,-344 0,-249 -250,0 c -236,0 -250,1 -260,19 -5,11 -10,22 -10,25 0,3 106,6 235,6 l 235,0 0,240 0,240 25,-16 25,-16 0,-249 z m -1519,261 c 18,-10 19,-24 19,-260 l 0,-250 -250,0 c -236,0 -250,1 -260,19 -5,11 -10,22 -10,25 0,3 105,7 233,8 l 232,3 3,233 c 1,127 5,232 8,232 3,0 14,-5 25,-10 z m 3000,0 c 18,-10 19,-24 19,-260 l 0,-250 -250,0 c -236,0 -250,1 -260,19 -5,11 -10,22 -10,25 0,3 105,7 233,8 l 232,3 3,233 c 1,127 5,232 8,232 3,0 14,-5 25,-10 z m -2870,-50 c 5,0 9,-121 9,-290 l 0,-290 -290,0 c -169,0 -290,4 -290,9 0,5 -3,16 -6,25 -6,14 22,16 265,16 l 271,0 0,271 c 0,243 2,271 16,265 9,-3 20,-6 25,-6 z m 1500,0 c 5,0 9,-121 9,-290 l 0,-290 -290,0 c -169,0 -290,4 -290,9 0,5 -3,16 -6,25 -6,14 22,16 265,16 l 271,0 0,271 c 0,243 2,271 16,265 9,-3 20,-6 25,-6 z m 1500,0 c 5,0 9,-121 9,-290 l 0,-290 -290,0 c -169,0 -290,4 -290,9 0,5 -3,16 -6,25 -6,14 22,16 265,16 l 271,0 0,271 c 0,243 2,271 16,265 9,-3 20,-6 25,-6 z M 125,2250 c 3,-5 -3,-10 -14,-10 -11,0 -23,5 -26,10 -3,6 3,10 14,10 11,0 23,-4 26,-10 z m 1290,0 c -3,-5 -15,-10 -26,-10 -11,0 -17,5 -14,10 3,6 15,10 26,10 11,0 17,-4 14,-10 z m 215,0 c 0,-5 -9,-10 -19,-10 -11,0 -23,5 -26,10 -4,6 5,10 19,10 14,0 26,-4 26,-10 z m 1290,0 c 0,-5 -12,-10 -26,-10 -14,0 -23,4 -19,10 3,6 15,10 26,10 10,0 19,-4 19,-10 z m 210,0 c 0,-5 -9,-10 -20,-10 -11,0 -20,5 -20,10 0,6 9,10 20,10 11,0 20,-4 20,-10 z m 1290,0 c 0,-5 -9,-10 -20,-10 -11,0 -20,5 -20,10 0,6 9,10 20,10 11,0 20,-4 20,-10 z m 205,0 c 3,-5 -3,-10 -14,-10 -11,0 -23,5 -26,10 -3,6 3,10 14,10 11,0 23,-4 26,-10 z m -2961,-96 c 33,-8 99,-34 146,-57 148,-72 282,-229 331,-387 28,-91 40,-192 33,-266 -6,-61 -8,-64 -33,-64 l -26,0 4,96 c 13,370 -274,656 -646,642 -89,-3 -103,-1 -103,12 0,9 5,21 12,28 18,18 207,15 282,-4 z m 1522,-7 c 177,-51 332,-178 412,-337 57,-115 72,-181 72,-317 l 0,-113 -27,0 -28,0 3,105 c 3,87 0,118 -18,177 -64,210 -192,348 -398,426 -59,23 -82,26 -199,27 -113,0 -133,2 -133,16 0,32 23,39 131,39 81,0 125,-5 185,-23 z m 1488,3 c 238,-61 426,-254 482,-496 9,-42 14,-102 12,-167 -3,-101 -3,-102 -29,-105 l -25,-3 4,85 c 6,112 -12,204 -57,301 -109,230 -327,362 -582,353 -95,-3 -99,-2 -99,18 0,11 3,24 7,27 15,16 211,7 287,-13 z M 1660,2020 c 69,-20 167,-74 214,-118 42,-40 110,-140 134,-198 30,-73 46,-179 37,-258 -6,-65 -7,-66 -36,-66 -24,0 -29,4 -25,18 26,91 8,219 -44,325 -55,112 -165,206 -290,247 -53,18 -83,21 -169,18 -102,-3 -104,-2 -106,20 -2,24 10,30 80,34 69,5 138,-3 205,-22 z m 1500,0 c 147,-43 264,-144 332,-285 44,-93 64,-207 51,-295 -7,-49 -11,-55 -33,-58 l -25,-3 0,123 c 0,112 -3,129 -29,190 -32,77 -119,179 -193,226 -86,55 -164,74 -282,70 -101,-3 -104,-2 -107,19 -4,25 9,31 81,35 69,5 138,-3 205,-22 z m 1578,-31 c 204,-99 337,-335 306,-544 -8,-56 -11,-60 -37,-63 -25,-3 -28,-1 -22,18 13,39 7,179 -10,237 -42,145 -150,264 -296,325 -46,19 -73,22 -177,23 l -123,0 3,25 c 3,23 8,25 63,30 111,9 201,-6 293,-51 z m -3090,-99 c 108,-38 202,-131 244,-244 23,-60 33,-165 21,-221 -7,-34 -13,-41 -36,-43 -26,-3 -27,-2 -20,25 4,15 8,62 7,103 -1,105 -36,181 -115,254 -85,79 -145,100 -275,93 l -101,-5 5,24 c 3,14 13,26 26,29 11,2 30,6 41,9 36,9 147,-4 203,-24 z m 1490,3 c 113,-38 211,-133 253,-244 24,-63 34,-168 22,-224 -7,-34 -13,-41 -37,-43 -23,-3 -27,0 -22,15 24,84 13,190 -30,274 -32,64 -121,143 -192,169 -47,18 -73,21 -156,18 -88,-3 -99,-1 -102,14 -1,10 3,21 9,25 42,26 174,24 255,-4 z m 1498,2 c 159,-48 286,-226 283,-399 -1,-88 -10,-110 -42,-114 -26,-3 -27,-2 -20,25 15,54 7,165 -17,228 -32,83 -122,173 -205,204 -52,20 -74,22 -157,19 -97,-5 -98,-5 -98,18 0,16 7,25 23,28 12,3 31,7 42,10 31,8 138,-3 191,-19 z M 1587,1775 c 145,-43 234,-204 194,-352 -10,-38 -15,-43 -41,-43 l -29,0 14,41 c 28,79 12,166 -42,229 -64,74 -148,100 -245,75 -33,-8 -61,-15 -62,-15 -1,0 -1,12 0,27 1,23 7,30 40,40 54,16 112,16 171,-2 z m 1535,-12 c 54,-25 110,-79 139,-135 26,-51 35,-148 20,-205 -10,-38 -15,-43 -41,-43 l -29,0 14,41 c 20,57 18,116 -6,169 -52,115 -159,166 -281,135 -33,-8 -61,-15 -62,-15 -2,0 -1,19 3,52 2,13 79,27 137,24 33,-2 81,-12 106,-23 z m 1500,0 c 99,-44 168,-151 168,-259 0,-88 -15,-124 -51,-124 -34,0 -33,-2 -14,43 31,74 8,176 -53,240 -67,71 -174,90 -275,51 -14,-5 -17,0 -17,24 0,26 5,31 38,41 53,15 151,7 204,-16 z M 1584,1637 c 103,-59 102,-213 -1,-274 -106,-62 -243,14 -243,135 0,125 135,202 244,139 z m 1495,3 c 112,-57 112,-223 0,-280 -110,-57 -239,19 -239,139 0,122 128,198 239,141 z m 1490,6 c 15,-8 42,-31 60,-51 27,-31 31,-43 31,-93 0,-69 -29,-120 -83,-146 -168,-79 -320,135 -185,261 46,43 124,56 177,29 z M 760,1588 c 0,-25 -3,-29 -10,-18 -13,20 -13,50 0,50 6,0 10,-15 10,-32 z m 122,-57 c -9,-185 49,-334 182,-467 134,-134 274,-189 463,-182 l 104,4 -3,-26 -3,-25 -140,1 c -125,0 -147,3 -207,26 -197,74 -337,215 -410,410 -25,67 -32,103 -36,190 -6,130 0,158 31,158 23,0 23,-2 19,-89 z m 133,-34 0,-124 42,-85 c 67,-135 187,-234 328,-269 25,-6 89,-10 145,-7 98,4 100,3 100,-19 0,-15 -7,-24 -22,-27 -121,-25 -230,-11 -346,45 -189,91 -304,274 -304,484 0,102 7,125 35,125 21,0 22,-3 22,-123 z m 129,91 c -14,-64 -6,-161 17,-223 31,-82 121,-173 202,-203 64,-24 147,-31 220,-19 46,8 47,7 47,-17 0,-21 -6,-26 -50,-35 -91,-20 -176,-8 -269,38 -167,81 -266,298 -215,474 3,10 15,17 30,17 24,0 25,-3 18,-32 z m 143,18 c -51,-132 -10,-258 103,-316 66,-33 119,-35 218,-5 19,6 22,4 22,-18 0,-38 -32,-51 -125,-52 -65,0 -89,5 -129,24 -128,63 -194,210 -154,342 10,34 15,39 41,39 21,0 28,-4 24,-14 z m 973,-18 c 0,-25 -3,-29 -10,-18 -13,20 -13,50 0,50 6,0 10,-15 10,-32 z m 125,-85 c 0,-94 5,-132 22,-188 58,-184 200,-330 391,-403 59,-23 82,-26 200,-27 l 133,0 -3,-25 -3,-25 -140,1 c -134,0 -144,2 -221,32 -259,103 -420,327 -432,599 -5,125 0,153 31,153 22,0 22,-3 22,-117 z m 127,23 c -8,-185 75,-348 227,-445 86,-55 162,-73 284,-69 105,3 107,3 107,-19 0,-29 -26,-36 -130,-36 -302,0 -543,239 -543,538 0,100 7,125 37,125 21,0 22,-2 18,-94 z m 131,57 c -13,-63 -5,-156 18,-219 31,-82 121,-172 203,-203 65,-24 144,-31 219,-18 43,8 47,7 47,-12 0,-64 -190,-65 -319,-2 -77,37 -147,110 -189,198 -30,64 -35,84 -36,156 -1,108 7,137 40,137 24,0 24,-2 17,-37 z m 142,20 c -17,-42 -26,-101 -20,-137 22,-143 173,-239 305,-192 60,21 62,20 58,-11 -2,-23 -11,-30 -48,-41 -57,-17 -143,-10 -202,16 -121,53 -190,198 -158,331 11,47 14,51 42,51 25,0 29,-3 23,-17 z m 974,-15 c 0,-28 -2,-30 -9,-13 -12,28 -12,45 0,45 6,0 10,-15 9,-32 z m 126,-91 c 1,-106 4,-132 27,-195 68,-189 209,-329 397,-394 55,-19 86,-23 194,-23 l 128,0 -3,-25 c -3,-25 -4,-25 -115,-28 -217,-5 -395,75 -529,236 -103,125 -153,267 -154,434 0,101 5,118 34,118 20,0 21,-4 21,-123 z m 127,37 c -8,-160 42,-288 152,-392 108,-100 209,-137 366,-130 98,4 100,3 100,-18 0,-30 -26,-37 -130,-37 -269,0 -489,186 -536,453 -13,76 -12,140 3,193 2,10 14,17 27,17 22,0 22,-2 18,-86 z m 131,49 c -25,-130 9,-247 101,-339 92,-92 201,-124 339,-101 46,8 47,8 47,-17 0,-22 -6,-26 -57,-36 -106,-22 -228,6 -320,74 -105,77 -167,200 -168,331 0,97 9,125 41,125 24,0 24,-2 17,-37 z m 142,20 c -63,-155 20,-311 180,-337 37,-6 75,-1 143,20 21,6 23,4 20,-22 -2,-24 -10,-30 -48,-42 -139,-41 -299,38 -350,174 -38,102 -19,224 36,224 21,0 25,-3 19,-17 z M 2256,1382 c -12,-12 -18,8 -10,35 l 8,28 4,-28 c 2,-16 1,-31 -2,-35 z m 1500,0 c -12,-12 -18,8 -10,35 l 8,28 4,-28 c 2,-16 1,-31 -2,-35 z m -2996,23 c 0,-14 -4,-25 -10,-25 -11,0 -14,33 -3,43 11,11 13,8 13,-18 z m 22,-118 c 23,-36 14,-37 -262,-37 l -270,0 0,-271 c 0,-243 -2,-271 -16,-265 -9,3 -20,6 -25,6 -5,0 -9,120 -9,289 l 0,290 28,3 c 15,2 144,2 287,0 188,-2 262,-6 267,-15 z m 1500,1 c 23,-37 15,-38 -262,-38 l -270,0 0,-271 c 0,-243 -2,-271 -16,-265 -9,3 -20,6 -25,6 -5,0 -9,122 -9,293 l 0,292 287,-2 c 218,-2 289,-6 295,-15 z m 1500,0 c 23,-37 15,-38 -262,-38 l -270,0 0,-271 c 0,-243 -2,-271 -16,-265 -9,3 -20,6 -25,6 -5,0 -9,120 -9,289 l 0,290 28,3 c 15,2 144,2 286,1 198,-2 261,-5 268,-15 z m -2948,-133 16,-25 -235,0 -235,0 0,-235 c 0,-160 -3,-235 -11,-235 -6,0 -19,5 -30,10 -18,10 -19,24 -19,254 0,133 3,246 7,249 3,4 115,7 249,7 l 242,0 16,-25 z m 1500,0 16,-25 -237,-2 -238,-3 -3,-232 c -1,-128 -5,-233 -8,-233 -3,0 -14,5 -25,10 -18,10 -19,24 -19,260 l 0,250 249,0 249,0 16,-25 z m 1501,3 15,-23 -237,-5 -238,-5 -3,-232 c -1,-128 -5,-233 -8,-233 -3,0 -14,5 -25,10 -18,10 -19,24 -19,260 l 0,250 249,0 c 248,0 250,0 266,-22 z m 81,-126 c 8,-9 14,-20 14,-24 0,-5 -97,-8 -215,-8 l -215,0 0,-215 c 0,-118 -3,-215 -7,-215 -3,0 -15,7 -25,17 -16,15 -18,36 -18,242 l 0,226 227,-3 c 200,-2 228,-5 239,-20 z m -3000,1 c 7,-10 14,-21 14,-25 0,-5 -97,-8 -215,-8 l -215,0 0,-215 c 0,-118 -3,-215 -7,-215 -3,0 -15,7 -25,17 -16,15 -18,36 -18,240 l 0,223 226,0 c 204,0 228,-2 240,-17 z m 1496,0 c 10,-9 18,-20 18,-25 0,-4 -97,-8 -215,-8 l -215,0 0,-215 c 0,-118 -3,-215 -7,-215 -3,0 -15,7 -25,17 -16,15 -18,36 -18,240 l 0,223 222,0 c 192,0 224,-2 240,-17 z M 930,750 l 0,-180 -180,0 -180,0 0,180 0,180 180,0 180,0 0,-180 z m 102,163 c 16,-15 18,-36 18,-240 l 0,-223 -207,-1 c -115,-1 -215,0 -223,1 -18,2 -50,29 -50,42 0,4 97,8 215,8 l 215,0 0,215 c 0,118 3,215 7,215 3,0 15,-7 25,-17 z m 1398,-163 0,-180 -180,0 -180,0 0,180 0,180 180,0 180,0 0,-180 z m 102,163 c 16,-15 18,-36 18,-240 l 0,-223 -222,0 c -192,0 -224,2 -240,17 -10,9 -18,20 -18,25 0,4 97,8 215,8 l 215,0 0,215 c 0,118 3,215 7,215 3,0 15,-7 25,-17 z m 1398,-163 0,-180 -180,0 -180,0 0,180 0,180 180,0 180,0 0,-180 z m 102,163 c 16,-15 18,-36 18,-240 l 0,-223 -222,0 c -192,0 -224,2 -240,17 -10,9 -18,20 -18,25 0,4 97,8 215,8 l 215,0 0,215 c 0,118 3,215 7,215 3,0 15,-7 25,-17 z M 1161,830 c 18,-10 19,-24 19,-260 l 0,-250 -250,0 c -236,0 -250,1 -260,19 -5,11 -10,22 -10,25 0,3 105,7 233,8 l 232,3 3,233 c 1,127 5,232 8,232 3,0 14,-5 25,-10 z m 1500,0 c 18,-10 19,-24 19,-260 l 0,-250 -250,0 c -236,0 -250,1 -260,19 -5,11 -10,22 -10,25 0,3 105,7 233,8 l 232,3 3,233 c 1,127 5,232 8,232 3,0 14,-5 25,-10 z m 1500,0 c 18,-10 19,-24 19,-260 l 0,-250 -250,0 c -236,0 -250,1 -260,19 -5,11 -10,22 -10,25 0,3 103,6 230,6 l 229,0 6,33 c 3,17 5,123 3,235 -2,111 1,202 5,202 5,0 17,-5 28,-10 z M 1291,780 c 5,0 9,-121 9,-290 l 0,-290 -290,0 c -169,0 -290,4 -290,9 0,5 -3,16 -6,25 -6,14 22,16 265,16 l 271,0 0,271 c 0,243 2,271 16,265 9,-3 20,-6 25,-6 z m 1500,0 c 5,0 9,-120 9,-290 l 0,-289 -286,-3 -286,-3 -9,23 c -5,13 -9,25 -9,28 0,2 122,4 270,4 l 270,0 0,271 c 0,243 2,271 16,265 9,-3 20,-6 25,-6 z m 1500,0 c 5,0 9,-121 9,-290 l 0,-290 -290,0 c -169,0 -290,4 -290,9 0,5 -3,16 -6,25 -6,14 22,16 265,16 l 271,0 0,271 c 0,243 2,271 16,265 9,-3 20,-6 25,-6 z M 130,750 c 0,-5 -12,-10 -26,-10 -14,0 -23,4 -19,10 3,6 15,10 26,10 10,0 19,-4 19,-10 z m 1285,0 c 4,-6 -5,-10 -20,-10 -15,0 -24,4 -20,10 3,6 12,10 20,10 8,0 17,-4 20,-10 z m 215,0 c 0,-5 -12,-10 -27,-10 -22,0 -25,2 -13,10 20,13 40,13 40,0 z m 1290,0 c 11,-7 7,-10 -18,-10 -20,0 -31,4 -27,10 8,13 26,13 45,0 z m 210,0 c 0,-5 -12,-10 -26,-10 -14,0 -23,4 -19,10 3,6 15,10 26,10 10,0 19,-4 19,-10 z m 1280,0 c 12,-8 11,-10 -7,-10 -13,0 -23,5 -23,10 0,13 11,13 30,0 z m 220,0 c 0,-5 -12,-10 -26,-10 -14,0 -23,4 -19,10 3,6 15,10 26,10 10,0 19,-4 19,-10 z M 760,88 c 0,-25 -3,-29 -10,-18 -13,20 -13,50 0,50 6,0 10,-15 10,-32 z m 1500,0 c 0,-25 -3,-29 -10,-18 -13,20 -13,50 0,50 6,0 10,-15 10,-32 z m 1499,0 c 0,-28 -2,-30 -9,-13 -12,28 -12,45 0,45 6,0 10,-15 9,-32 z"
       id="path8"
       inkscape:connector-curvature="0"
       style="fill:none;stroke:#000000" />
    <path
       d="m 624,6867 c -2,-7 -3,-65 -2,-128 l 3,-114 125,0 125,0 3,128 3,127 -126,0 c -94,0 -127,-3 -131,-13 z m 176,-117 0,-50 -50,0 -50,0 0,50 0,50 50,0 50,0 0,-50 z"
       id="path10"
       inkscape:connector-curvature="0"
       style="fill:none;stroke:#000000" />
    <path
       d="m 2122,6753 3,-128 128,-3 127,-3 0,131 0,130 -130,0 -131,0 3,-127 z m 178,-3 0,-50 -50,0 -50,0 0,50 0,50 50,0 50,0 0,-50 z"
       id="path12"
       inkscape:connector-curvature="0"
       style="fill:none;stroke:#000000" />
    <path
       d="m 3624,6867 c -2,-7 -3,-65 -2,-128 l 3,-114 128,-3 127,-3 0,131 0,130 -125,0 c -94,0 -127,-3 -131,-13 z m 176,-117 0,-50 -50,0 -50,0 0,50 0,50 50,0 50,0 0,-50 z"
       id="path14"
       inkscape:connector-curvature="0"
       style="fill:none;stroke:#000000" />
    <path
       d="m 627,5374 c -4,-4 -7,-63 -7,-131 l 0,-123 130,0 131,0 -3,128 -3,127 -121,3 c -66,1 -123,-1 -127,-4 z m 173,-124 0,-50 -50,0 -50,0 0,50 0,50 50,0 50,0 0,-50 z"
       id="path16"
       inkscape:connector-curvature="0"
       style="fill:none;stroke:#000000" />
    <path
       d="m 2127,5373 c -4,-3 -7,-62 -7,-130 l 0,-123 130,0 130,0 0,130 0,130 -123,0 c -68,0 -127,-3 -130,-7 z m 173,-123 0,-50 -50,0 -50,0 0,50 0,50 50,0 50,0 0,-50 z"
       id="path18"
       inkscape:connector-curvature="0"
       style="fill:none;stroke:#000000" />
    <path
       d="m 3624,5367 c -2,-7 -3,-65 -2,-128 l 3,-114 128,-3 127,-3 0,131 0,130 -125,0 c -94,0 -127,-3 -131,-13 z m 176,-117 0,-50 -50,0 -50,0 0,50 0,50 50,0 50,0 0,-50 z"
       id="path20"
       inkscape:connector-curvature="0"
       style="fill:none;stroke:#000000" />
    <path
       d="m 624,3867 c -2,-7 -3,-65 -2,-128 l 3,-114 125,0 125,0 3,128 3,127 -126,0 c -94,0 -127,-3 -131,-13 z m 176,-117 0,-50 -50,0 -50,0 0,50 0,50 50,0 50,0 0,-50 z"
       id="path22"
       inkscape:connector-curvature="0"
       style="fill:none;stroke:#000000" />
    <path
       d="m 2122,3753 3,-128 128,-3 127,-3 0,131 0,130 -130,0 -131,0 3,-127 z m 178,-3 0,-50 -50,0 -50,0 0,50 0,50 50,0 50,0 0,-50 z"
       id="path24"
       inkscape:connector-curvature="0"
       style="fill:none;stroke:#000000" />
    <path
       d="m 3624,3867 c -2,-7 -3,-65 -2,-128 l 3,-114 128,-3 127,-3 0,131 0,130 -125,0 c -94,0 -127,-3 -131,-13 z m 176,-117 0,-50 -50,0 -50,0 0,50 0,50 50,0 50,0 0,-50 z"
       id="path26"
       inkscape:connector-curvature="0"
       style="fill:none;stroke:#000000" />
    <path
       d="m 624,2367 c -2,-7 -3,-65 -2,-128 l 3,-114 125,0 125,0 3,128 3,127 -126,0 c -94,0 -127,-3 -131,-13 z m 176,-117 0,-50 -50,0 -50,0 0,50 0,50 50,0 50,0 0,-50 z"
       id="path28"
       inkscape:connector-curvature="0"
       style="fill:none;stroke:#000000" />
    <path
       d="m 2122,2253 3,-128 128,-3 127,-3 0,131 0,130 -130,0 -131,0 3,-127 z m 178,-3 0,-50 -50,0 -50,0 0,50 0,50 50,0 50,0 0,-50 z"
       id="path30"
       inkscape:connector-curvature="0"
       style="fill:none;stroke:#000000" />
    <path
       d="m 3624,2367 c -2,-7 -3,-65 -2,-128 l 3,-114 128,-3 127,-3 0,131 0,130 -125,0 c -94,0 -127,-3 -131,-13 z m 176,-117 0,-50 -50,0 -50,0 0,50 0,50 50,0 50,0 0,-50 z"
       id="path32"
       inkscape:connector-curvature="0"
       style="fill:none;stroke:#000000" />
    <path
       d="m 627,874 c -4,-4 -7,-63 -7,-131 l 0,-123 130,0 131,0 -3,128 -3,127 -121,3 c -66,1 -123,-1 -127,-4 z m 173,-124 0,-50 -50,0 -50,0 0,50 0,50 50,0 50,0 0,-50 z"
       id="path34"
       inkscape:connector-curvature="0"
       style="fill:none;stroke:#000000" />
    <path
       d="m 2127,873 c -4,-3 -7,-62 -7,-130 l 0,-123 130,0 130,0 0,130 0,130 -123,0 c -68,0 -127,-3 -130,-7 z m 173,-123 0,-50 -50,0 -50,0 0,50 0,50 50,0 50,0 0,-50 z"
       id="path36"
       inkscape:connector-curvature="0"
       style="fill:none;stroke:#000000" />
    <path
       d="m 3624,867 c -2,-7 -3,-65 -2,-128 l 3,-114 128,-3 127,-3 0,131 0,130 -125,0 c -94,0 -127,-3 -131,-13 z m 176,-117 0,-50 -50,0 -50,0 0,50 0,50 50,0 50,0 0,-50 z"
       id="path38"
       inkscape:connector-curvature="0"
       style="fill:none;stroke:#000000" />
    <path
       d="m 5124,6867 c -2,-7 -3,-65 -2,-128 l 3,-114 58,-3 57,-3 0,41 c 0,33 -3,40 -20,40 -17,0 -20,7 -20,50 0,43 3,50 20,50 17,0 20,7 20,40 l 0,40 -55,0 c -37,0 -57,-4 -61,-13 z"
       id="path40"
       inkscape:connector-curvature="0"
       style="fill:none;stroke:#000000" />
    <path
       d="m 5127,5373 c -4,-3 -7,-62 -7,-130 l 0,-123 60,0 60,0 0,40 c 0,33 -3,40 -20,40 -17,0 -20,7 -20,50 0,43 3,50 20,50 17,0 20,7 20,40 l 0,40 -53,0 c -30,0 -57,-3 -60,-7 z"
       id="path42"
       inkscape:connector-curvature="0"
       style="fill:none;stroke:#000000" />
    <path
       d="m 5124,3867 c -2,-7 -3,-65 -2,-128 l 3,-114 58,-3 57,-3 0,41 c 0,33 -3,40 -20,40 -17,0 -20,7 -20,50 0,43 3,50 20,50 17,0 20,7 20,40 l 0,40 -55,0 c -37,0 -57,-4 -61,-13 z"
       id="path44"
       inkscape:connector-curvature="0"
       style="fill:none;stroke:#000000" />
    <path
       d="m 5124,2367 c -2,-7 -3,-65 -2,-128 l 3,-114 58,-3 57,-3 0,41 c 0,33 -3,40 -20,40 -17,0 -20,7 -20,50 0,43 3,50 20,50 17,0 20,7 20,40 l 0,40 -55,0 c -37,0 -57,-4 -61,-13 z"
       id="path46"
       inkscape:connector-curvature="0"
       style="fill:none;stroke:#000000" />
    <path
       d="m 5127,873 c -4,-3 -7,-62 -7,-130 l 0,-123 60,0 60,0 0,40 c 0,33 -3,40 -20,40 -17,0 -20,7 -20,50 0,43 3,50 20,50 17,0 20,7 20,40 l 0,40 -53,0 c -30,0 -57,-3 -60,-7 z"
       id="path48"
       inkscape:connector-curvature="0"
       style="fill:none;stroke:#000000" />
    <path
       d="M 0,587 C 0,553 2,551 38,545 197,521 292,477 385,386 465,307 525,189 541,78 l 11,-78 34,0 c 32,0 34,2 34,33 0,127 -74,298 -174,399 C 343,537 206,604 70,616 l -70,7 0,-36 z"
       id="path50"
       inkscape:connector-curvature="0"
       style="fill:none;stroke:#000000" />
    <path
       d="M 0,456 C 0,423 0,423 64,412 183,393 289,325 350,230 385,175 420,75 420,29 420,2 423,0 459,0 l 39,0 -5,43 C 478,173 432,267 340,353 249,440 139,489 38,490 2,490 0,489 0,456 z"
       id="path52"
       inkscape:connector-curvature="0"
       style="fill:none;stroke:#000000" />
    <path
       d="m 0,328 c 0,-34 3,-38 25,-38 39,0 127,-37 167,-70 43,-36 98,-140 98,-187 0,-32 1,-33 41,-33 l 41,0 -7,48 C 343,204 209,338 56,359 l -56,8 0,-39 z"
       id="path54"
       inkscape:connector-curvature="0"
       style="fill:none;stroke:#000000" />
    <path
       d="m 0,200 c 0,-35 3,-40 23,-40 26,0 83,-33 108,-63 10,-12 22,-39 25,-60 6,-35 8,-37 45,-37 44,0 47,7 27,71 -23,78 -104,147 -190,163 l -38,7 0,-41 z"
       id="path56"
       inkscape:connector-curvature="0"
       style="fill:none;stroke:#000000" />
  </g>
</svg>
