<?xml version="1.0" standalone="no"?>
<!DOCTYPE svg PUBLIC "-//W3C//DTD SVG 20010904//EN"
 "http://www.w3.org/TR/2001/REC-SVG-20010904/DTD/svg10.dtd">
<svg version="1.0" xmlns="http://www.w3.org/2000/svg"
 width="2126.000000pt" height="2126.000000pt" viewBox="0 0 2126.000000 2126.000000"
 preserveAspectRatio="xMidYMid meet">
<metadata>
Created by potrace 1.11, written by Peter Selinger 2001-2013
</metadata>
<g transform="translate(0.000000,2126.000000) scale(0.100000,-0.100000)"
fill="#000000" stroke="none">
<path d="M9325 19919 c-2056 -66 -4000 -829 -5550 -2178 -1232 -1073 -2159
-2493 -2641 -4046 -482 -1553 -530 -3214 -138 -4790 375 -1510 1156 -2912
2239 -4025 305 -312 527 -514 865 -781 1305 -1035 2840 -1668 4500 -1859 910
-104 1865 -63 2770 120 591 119 1221 318 1775 560 1576 688 2942 1840 3873
3265 47 72 95 146 108 165 238 365 536 959 737 1465 500 1263 699 2680 571
4065 -158 1716 -815 3348 -1889 4695 -1034 1298 -2395 2272 -3955 2833 -1027
369 -2161 546 -3265 511z m739 -79 c1109 -144 2078 -777 2657 -1735 62 -103
185 -344 227 -442 206 -491 305 -1014 289 -1523 -26 -800 -283 -1515 -773
-2150 -188 -244 -564 -594 -832 -773 -513 -343 -1107 -554 -1708 -604 -167
-15 -598 -8 -749 10 -1223 151 -2268 885 -2820 1978 -181 359 -302 755 -360
1179 -22 159 -31 585 -16 747 48 513 169 938 393 1370 248 480 577 877 1003
1210 551 430 1243 698 1941 752 187 15 563 5 748 -19z m-1429 -45 c-131 -36
-314 -98 -414 -139 -36 -14 -66 -26 -68 -26 -2 0 -3 15 -3 33 0 18 -7 43 -16
55 -9 13 -14 25 -13 26 10 8 554 84 609 85 14 0 -29 -15 -95 -34z m2085 4 c85
-11 203 -27 261 -36 l105 -16 -18 -36 c-10 -19 -18 -45 -18 -58 l0 -23 -52 22
c-95 38 -361 127 -458 152 -92 25 -93 25 -35 20 33 -3 130 -14 215 -25z
m-2637 -101 c39 -45 2 -118 -60 -118 -27 0 -73 41 -73 64 0 72 86 107 133 54z
m3150 5 c23 -22 22 -78 -3 -103 -45 -45 -120 -11 -120 54 0 66 72 94 123 49z
m-3333 -33 c0 -42 -53 -57 -66 -18 -9 28 20 52 47 37 11 -5 19 -14 19 -19z
m3474 3 c9 -22 -13 -45 -38 -41 -24 3 -33 33 -16 52 13 17 46 10 54 -11z
m-3609 -37 c34 -22 58 -81 50 -124 -8 -43 -54 -89 -99 -97 -41 -8 -99 15 -121
48 -73 113 58 247 170 173z m3815 2 c29 -18 50 -63 50 -107 0 -49 -44 -106
-90 -116 -103 -23 -186 94 -130 183 35 56 114 75 170 40z m-4077 -70 c26 -34
16 -73 -23 -93 -34 -18 -73 -7 -89 24 -16 29 -14 45 10 75 28 35 73 33 102 -6z
m4295 16 c32 -22 30 -76 -5 -103 -63 -51 -141 41 -83 99 24 24 57 26 88 4z
m-3864 -27 c9 -15 7 -21 -8 -32 -35 -26 -74 13 -44 43 16 16 38 12 52 -11z
m3394 -6 c4 -29 -15 -43 -40 -30 -21 11 -23 30 -6 47 19 19 43 10 46 -17z
m-4042 -47 c104 -50 152 -177 105 -280 -76 -168 -304 -174 -386 -11 -91 183
98 378 281 291z m4824 -4 c134 -68 155 -257 39 -355 -80 -67 -180 -69 -267 -5
-107 77 -113 244 -13 334 11 11 45 27 73 38 61 21 110 18 168 -12z m-4546 -91
c51 -40 23 -109 -45 -109 -30 0 -45 14 -54 52 -5 21 -1 33 19 52 31 31 45 32
80 5z m4164 -1 c17 -15 15 -68 -5 -90 -39 -43 -107 -8 -101 53 5 52 62 71 106
37z m-4884 -22 c73 -30 103 -114 67 -185 -25 -49 -70 -74 -129 -73 -121 1
-174 139 -89 231 39 42 92 52 151 27z m5636 -1 c91 -47 98 -183 13 -236 -70
-44 -162 -19 -199 53 -20 39 -14 106 12 141 39 52 117 71 174 42z m-5880 -60
c0 -8 -4 -15 -10 -15 -5 0 -10 7 -10 15 0 8 5 15 10 15 6 0 10 -7 10 -15z
m6027 -11 c-9 -9 -28 6 -21 18 4 6 10 6 17 -1 6 -6 8 -13 4 -17z m-6097 -29
c0 -19 -20 -29 -32 -17 -15 15 -2 43 17 36 8 -3 15 -12 15 -19z m6187 9 c8
-21 -13 -42 -28 -27 -13 13 -5 43 11 43 6 0 13 -7 17 -16z m-5237 -38 c0 -3
-4 -8 -10 -11 -5 -3 -10 -1 -10 4 0 6 5 11 10 11 6 0 10 -2 10 -4z m4270 -6
c0 -5 -2 -10 -4 -10 -3 0 -8 5 -11 10 -3 6 -1 10 4 10 6 0 11 -4 11 -10z
m-5197 -63 c126 -57 227 -193 246 -330 19 -133 -17 -250 -108 -349 -87 -96
-185 -138 -318 -138 -277 0 -478 264 -407 535 25 99 95 199 171 246 92 57 141
70 253 66 87 -3 115 -8 163 -30z m6458 -5 c170 -82 274 -278 241 -455 -13 -67
-58 -167 -95 -207 -48 -53 -117 -101 -183 -126 -61 -23 -79 -26 -164 -22 -82
4 -105 9 -165 38 -267 127 -327 480 -117 688 94 93 174 123 317 119 89 -3 107
-6 166 -35z m-5981 -91 c37 -26 63 -85 56 -126 -10 -50 -75 -105 -125 -105
-113 0 -172 144 -90 221 45 42 107 46 159 10z m5257 18 c40 -15 71 -47 84 -86
9 -28 8 -43 -6 -78 -38 -102 -169 -114 -225 -22 -44 72 -6 169 75 190 33 8 42
7 72 -4z m-6369 -81 c19 -19 14 -56 -8 -68 -38 -21 -80 22 -60 61 12 21 50 25
68 7z m7436 -4 c11 -29 6 -53 -14 -64 -38 -21 -80 22 -60 61 13 24 65 26 74 3z
m-7566 -56 c30 -30 0 -75 -43 -64 -41 11 -29 76 15 76 9 0 21 -5 28 -12z
m7690 0 c30 -30 0 -75 -43 -64 -19 5 -25 13 -25 35 0 38 41 56 68 29z m-7588
-83 c18 -21 5 -45 -25 -45 -20 0 -25 5 -25 23 0 39 26 50 50 22z m7475 -15 c0
-18 -6 -26 -23 -28 -13 -2 -25 3 -28 12 -10 26 4 48 28 44 17 -2 23 -10 23
-28z m-7620 -31 c113 -53 185 -167 185 -294 0 -126 -59 -225 -171 -285 -277
-147 -575 142 -442 427 30 64 106 135 176 163 69 27 181 22 252 -11z m7990 2
c67 -29 138 -107 165 -179 59 -156 -4 -323 -152 -403 -58 -31 -70 -34 -148
-34 -65 0 -96 5 -131 21 -103 48 -180 155 -195 270 -13 110 53 244 152 305 88
54 214 62 309 20z m-6847 -99 c2 -7 -3 -12 -12 -12 -9 0 -16 7 -16 16 0 17 22
14 28 -4z m5460 0 c2 -7 -3 -12 -12 -12 -9 0 -16 7 -16 16 0 17 22 14 28 -4z
m-7144 -103 c31 -24 34 -57 8 -90 -22 -26 -75 -30 -98 -7 -24 24 -21 78 6 100
29 23 51 23 84 -3z m8884 1 c31 -29 29 -73 -4 -99 -15 -12 -32 -21 -39 -21
-26 0 -65 41 -65 69 0 62 64 92 108 51z m-9033 -116 c31 -33 33 -82 4 -118
-16 -21 -29 -26 -63 -26 -55 0 -88 32 -88 86 0 77 95 114 147 58z m9220 1 c31
-30 33 -82 4 -119 -27 -34 -91 -37 -126 -4 -54 51 -14 148 62 148 25 0 44 -8
60 -25z m-9430 -64 c3 -5 1 -12 -5 -16 -5 -3 -10 1 -10 9 0 18 6 21 15 7z
m385 -11 c11 -11 20 -29 20 -40 0 -11 -9 -29 -20 -40 -11 -11 -29 -20 -40 -20
-11 0 -29 9 -40 20 -11 11 -20 29 -20 40 0 11 9 29 20 40 11 11 29 20 40 20
11 0 29 -9 40 -20z m8815 14 c25 -10 37 -50 23 -79 -6 -14 -14 -25 -17 -25 -3
0 -16 -3 -28 -6 -27 -7 -63 27 -63 60 0 39 45 65 85 50z m335 -4 c0 -5 -4 -10
-10 -10 -5 0 -10 5 -10 10 0 6 5 10 10 10 6 0 10 -4 10 -10z m-1210 -30 c0 -5
-2 -10 -4 -10 -3 0 -8 5 -11 10 -3 6 -1 10 4 10 6 0 11 -4 11 -10z m-8381 -23
c15 -19 -10 -53 -33 -44 -16 6 -22 38 -9 50 10 11 30 8 42 -6z m9671 -2 c17
-20 5 -45 -20 -45 -11 0 -23 7 -26 15 -6 15 11 45 26 45 4 0 13 -7 20 -15z
m-9590 -25 c0 -5 -4 -10 -10 -10 -5 0 -10 5 -10 10 0 6 5 10 10 10 6 0 10 -4
10 -10z m1315 -31 c71 -26 113 -63 151 -131 25 -46 29 -63 29 -133 0 -71 -3
-86 -31 -135 -114 -202 -395 -193 -501 15 -76 149 14 347 176 391 68 18 113
17 176 -7z m7063 -13 c205 -104 201 -408 -7 -504 -149 -69 -317 -5 -384 147
-28 64 -21 181 16 244 79 134 239 182 375 113z m-6730 -15 c8 -4 12 -19 10
-32 -2 -18 -9 -24 -28 -24 -19 0 -26 6 -28 24 -3 20 11 41 28 41 3 0 11 -4 18
-9z m6208 -5 c15 -12 17 -18 8 -33 -14 -23 -43 -23 -57 -1 -8 12 -7 21 2 32
16 20 22 20 47 2z m-7526 -25 c205 -53 346 -130 491 -268 142 -136 246 -313
299 -508 35 -125 39 -331 10 -471 -65 -324 -274 -599 -565 -746 -409 -207
-910 -126 -1235 200 -141 143 -233 305 -283 501 -18 73 -22 113 -22 261 0 168
2 179 33 283 53 178 131 315 251 441 172 180 388 291 633 326 96 14 301 4 388
-19z m9210 14 c186 -28 335 -90 481 -199 457 -344 564 -979 244 -1454 -60 -90
-210 -237 -304 -297 -315 -204 -721 -226 -1054 -59 -292 148 -499 413 -565
724 -29 137 -36 233 -23 340 30 248 130 462 299 634 179 183 371 279 642 320
60 9 192 5 280 -9z m-8000 -15 c0 -13 -7 -20 -18 -20 -24 0 -32 8 -25 26 8 22
43 17 43 -6z m6428 -3 c2 -12 -3 -17 -17 -17 -15 0 -21 6 -21 21 0 25 33 22
38 -4z m-6371 -83 c3 -8 -2 -23 -11 -32 -15 -15 -17 -15 -32 0 -21 21 -11 48
16 48 11 0 23 -7 27 -16z m6322 3 c15 -19 -10 -53 -33 -44 -16 6 -22 38 -9 50
10 11 30 8 42 -6z m-7032 -43 c-9 -9 -28 6 -21 18 4 6 10 6 17 -1 6 -6 8 -13
4 -17z m7713 11 c0 -8 -4 -15 -10 -15 -5 0 -10 7 -10 15 0 8 5 15 10 15 6 0
10 -7 10 -15z m-7794 -16 c10 -17 -13 -36 -27 -22 -12 12 -4 33 11 33 5 0 12
-5 16 -11z m7882 -12 c2 -10 -3 -17 -12 -17 -10 0 -16 9 -16 21 0 24 23 21 28
-4z m-7808 -57 c0 -5 -5 -12 -11 -16 -14 -8 -33 11 -25 25 7 11 36 4 36 -9z
m7740 -6 c0 -16 -16 -19 -25 -4 -8 13 4 32 16 25 5 -4 9 -13 9 -21z m-9522
-286 c-6 -18 -28 -21 -28 -4 0 9 7 16 16 16 9 0 14 -5 12 -12z m11302 -3 c0
-8 -7 -15 -15 -15 -8 0 -15 7 -15 15 0 8 7 15 15 15 8 0 15 -7 15 -15z m-9081
-45 c36 -19 36 -61 0 -81 -46 -24 -86 54 -41 80 21 13 20 13 41 1z m6883 -14
c14 -20 8 -45 -14 -60 -19 -13 -25 -14 -43 -2 -27 18 -31 43 -9 67 18 20 52
18 66 -5z m-7008 -8 c15 -24 -3 -52 -37 -56 -33 -4 -53 28 -37 59 14 25 58 23
74 -3z m7146 7 c17 -21 4 -65 -19 -65 -34 0 -51 12 -51 34 0 42 45 62 70 31z
m-9332 -41 c26 -18 29 -56 6 -78 -18 -19 -65 -21 -82 -4 -28 28 -1 98 37 98 9
0 27 -7 39 -16z m11528 -9 c21 -33 11 -73 -20 -81 -37 -9 -59 -1 -73 25 -30
61 56 113 93 56z m-9270 -80 c26 -27 26 -55 -1 -84 -16 -17 -60 -18 -80 -1
-23 19 -19 76 7 94 31 22 45 20 74 -9z m7014 5 c39 -39 16 -100 -37 -100 -34
0 -63 26 -63 57 0 28 33 63 60 63 11 0 29 -9 40 -20z m-9400 -39 c0 -31 -13
-41 -42 -33 -12 3 -18 14 -18 33 0 26 4 29 30 29 26 0 30 -3 30 -29z m11769 5
c5 -27 -26 -48 -50 -35 -19 10 -25 39 -12 53 14 14 58 1 62 -18z m-11664 -56
c8 -26 -1 -40 -26 -40 -22 0 -34 22 -25 45 8 22 44 18 51 -5z m11550 -10 c0
-18 -6 -26 -23 -28 -24 -4 -38 18 -28 44 3 9 15 14 28 12 17 -2 23 -10 23 -28z
m-11659 -51 c48 -30 84 -95 84 -153 0 -190 -254 -254 -340 -85 -36 70 -19 171
38 222 54 49 153 56 218 16z m11859 20 c54 -15 110 -70 125 -124 18 -65 5
-120 -42 -171 -67 -73 -173 -81 -248 -18 -44 37 -60 75 -60 139 0 86 39 143
117 170 47 17 58 18 108 4z m-9507 -91 c-11 -32 -21 -58 -23 -56 -1 2 -5 30
-9 64 l-7 61 30 -5 29 -4 -20 -60z m7046 35 c-3 -21 -8 -49 -11 -63 -5 -24 -6
-24 -18 10 -28 80 -28 78 2 83 15 2 29 5 30 6 1 0 -1 -16 -3 -36z m-9719 -252
c72 -33 105 -86 105 -167 0 -58 -30 -117 -77 -149 -30 -20 -50 -25 -96 -25
-64 0 -99 14 -139 57 -49 52 -61 122 -33 190 21 50 42 72 90 94 51 24 99 24
150 0z m12484 9 c19 -5 52 -26 72 -46 68 -66 73 -172 13 -244 -37 -44 -75 -60
-139 -60 -64 0 -102 16 -139 60 -75 90 -47 227 56 279 47 23 85 26 137 11z
m-12093 -135 c31 -20 54 -72 54 -122 0 -54 -32 -101 -85 -124 -150 -66 -277
136 -150 238 55 44 122 47 181 8z m11741 5 c77 -46 86 -170 17 -232 -31 -27
-96 -40 -135 -27 -128 43 -142 202 -24 267 32 18 106 14 142 -8z m-12439 -112
c2 -20 -2 -28 -19 -33 -29 -9 -53 15 -44 44 10 34 59 25 63 -11z m13027 -3 c0
-35 -31 -47 -51 -20 -18 25 0 57 29 53 17 -2 22 -10 22 -33z m-13103 -82 c37
-34 15 -93 -35 -93 -39 0 -57 15 -57 49 0 52 54 78 92 44z m13196 1 c53 -37 0
-120 -59 -91 -46 23 -31 107 19 107 10 0 28 -7 40 -16z m-13063 -24 c0 -18 -6
-26 -23 -28 -13 -2 -25 3 -28 12 -10 26 4 48 28 44 17 -2 23 -10 23 -28z
m12910 0 c0 -18 -6 -26 -23 -28 -13 -2 -25 3 -28 12 -10 26 4 48 28 44 17 -2
23 -10 23 -28z m-12165 -20 c0 -5 -7 -10 -15 -10 -8 0 -15 5 -15 10 0 6 7 10
15 10 8 0 15 -4 15 -10z m11390 0 c0 -5 -4 -10 -10 -10 -5 0 -10 5 -10 10 0 6
5 10 10 10 6 0 10 -4 10 -10z m-11765 -50 c438 -62 778 -365 895 -795 34 -123
39 -338 11 -472 -66 -317 -261 -581 -544 -733 -181 -98 -414 -144 -612 -120
-491 59 -875 424 -945 901 -19 128 -8 320 24 439 78 284 270 525 529 665 187
101 430 145 642 115z m12434 -5 c287 -55 508 -190 677 -414 400 -532 218
-1293 -381 -1594 -342 -172 -753 -144 -1076 73 -80 54 -232 206 -282 283 -267
404 -240 911 67 1285 159 195 394 328 650 367 114 18 250 18 345 0z m-12119
-5 c0 -5 -7 -10 -15 -10 -8 0 -15 5 -15 10 0 6 7 10 15 10 8 0 15 -4 15 -10z
m11510 0 c0 -5 -4 -10 -10 -10 -5 0 -10 5 -10 10 0 6 5 10 10 10 6 0 10 -4 10
-10z m-76 -26 c7 -18 -27 -37 -42 -22 -7 7 -8 17 -1 29 10 20 34 16 43 -7z
m-11334 -4 c0 -21 -33 -29 -45 -10 -9 15 4 30 26 30 12 0 19 -7 19 -20z
m-1085 -9 c7 -12 -12 -24 -25 -16 -11 7 -4 25 10 25 5 0 11 -4 15 -9z m10405
-24 c0 -5 -4 -5 -10 -2 -5 3 -10 14 -10 23 0 15 2 15 10 2 5 -8 10 -19 10 -23z
m3080 18 c0 -8 -7 -15 -15 -15 -8 0 -15 7 -15 15 0 8 7 15 15 15 8 0 15 -7 15
-15z m-10420 -10 c0 -8 -4 -15 -10 -15 -5 0 -7 7 -4 15 4 8 8 15 10 15 2 0 4
-7 4 -15z m-12 -93 c3 -18 -1 -22 -22 -22 -19 0 -26 5 -26 18 0 39 43 43 48 4z
m7397 3 c0 -13 -8 -21 -22 -23 -17 -3 -23 2 -23 16 0 10 3 22 7 26 13 13 38 1
38 -19z m-7480 -65 c3 -5 -1 -10 -10 -10 -9 0 -13 5 -10 10 3 6 8 10 10 10 2
0 7 -4 10 -10z m7535 0 c0 -5 -4 -10 -10 -10 -5 0 -10 5 -10 10 0 6 5 10 10
10 6 0 10 -4 10 -10z m-7460 -30 c0 -5 -4 -10 -10 -10 -5 0 -10 5 -10 10 0 6
5 10 10 10 6 0 10 -4 10 -10z m7390 0 c0 -5 -4 -10 -10 -10 -5 0 -10 5 -10 10
0 6 5 10 10 10 6 0 10 -4 10 -10z m-7429 -69 c23 -23 29 -38 29 -71 0 -23 -5
-50 -10 -61 -13 -22 -61 -49 -90 -49 -34 0 -79 28 -96 61 -52 102 86 201 167
120z m7590 0 c23 -24 29 -38 29 -73 -1 -96 -97 -141 -170 -79 -31 25 -35 34
-35 76 0 40 5 51 33 76 45 41 102 41 143 0z m-7806 -157 c47 -51 26 -125 -41
-143 -62 -17 -114 26 -114 94 0 68 107 101 155 49z m8002 4 c61 -68 8 -168
-81 -151 -62 12 -88 102 -41 148 32 33 93 34 122 3z m-9267 -18 c0 -5 -4 -10
-10 -10 -5 0 -10 5 -10 10 0 6 5 10 10 10 6 0 10 -4 10 -10z m10430 0 c0 -5
-4 -10 -10 -10 -5 0 -10 5 -10 10 0 6 5 10 10 10 6 0 10 -4 10 -10z m-9430
-66 c0 -8 -5 -12 -10 -9 -6 4 -8 11 -5 16 9 14 15 11 15 -7z m8420 0 c0 -8 -5
-12 -10 -9 -6 4 -8 11 -5 16 9 14 15 11 15 -7z m-9255 -19 c30 -29 32 -64 5
-93 -43 -46 -120 -15 -120 48 0 64 70 91 115 45z m10172 3 c47 -44 16 -118
-49 -118 -42 0 -68 25 -68 67 0 65 69 96 117 51z m-8853 -14 c20 -21 26 -37
26 -71 0 -59 -35 -93 -95 -93 -60 0 -95 34 -95 93 0 61 35 97 95 97 32 0 48
-6 69 -26z m7577 -3 c38 -39 39 -87 3 -130 -22 -26 -33 -31 -69 -31 -65 0
-100 33 -100 95 0 39 5 51 28 71 41 35 99 33 138 -5z m-8707 -37 c21 -20 20
-73 -1 -96 -23 -26 -78 -24 -97 4 -34 49 -7 108 49 108 18 0 41 -7 49 -16z
m698 -12 c176 -53 326 -165 424 -317 177 -277 140 -660 -85 -899 -143 -151
-298 -223 -502 -233 -215 -11 -388 50 -551 196 -111 99 -205 286 -228 456 -32
235 72 492 266 655 73 62 216 133 309 154 95 21 275 15 367 -12z m8651 14
c472 -91 733 -615 522 -1051 -125 -256 -381 -415 -670 -415 -115 0 -211 23
-320 75 -157 76 -264 183 -340 340 -53 110 -75 205 -75 324 0 211 67 371 222
529 166 169 417 244 661 198z m440 2 c27 -22 31 -61 7 -91 -54 -68 -153 5
-106 78 18 28 70 34 99 13z m-9928 -143 c14 -13 25 -34 25 -45 0 -26 -43 -70
-68 -70 -28 0 -60 30 -68 62 -4 21 0 33 20 52 32 33 60 33 91 1z m10073 -2
c22 -29 15 -81 -13 -99 -54 -35 -118 14 -102 78 12 46 85 59 115 21z m-12398
-88 c10 -12 10 -18 0 -30 -25 -30 -61 -7 -46 30 3 8 12 15 19 15 8 0 20 -7 27
-15z m14670 0 c10 -12 10 -18 0 -30 -25 -30 -61 -7 -46 30 3 8 12 15 19 15 8
0 20 -7 27 -15z m-11034 -6 c10 -17 -13 -36 -27 -22 -12 12 -4 33 11 33 5 0
12 -5 16 -11z m7389 -9 c0 -22 -29 -18 -33 3 -3 14 1 18 15 15 10 -2 18 -10
18 -18z m-11105 -70 c0 -5 -4 -10 -10 -10 -5 0 -10 5 -10 10 0 6 5 10 10 10 6
0 10 -4 10 -10z m14810 0 c0 -5 -4 -10 -10 -10 -5 0 -10 5 -10 10 0 6 5 10 10
10 6 0 10 -4 10 -10z m-14765 -95 c55 -54 16 -145 -61 -145 -52 0 -84 31 -84
82 0 52 35 88 85 88 25 0 44 -8 60 -25z m14820 0 c55 -54 16 -145 -61 -145
-54 0 -84 31 -84 86 0 34 5 47 26 63 37 29 89 27 119 -4z m-14963 -182 c22
-20 23 -70 1 -95 -9 -10 -30 -18 -49 -18 -57 0 -85 69 -44 110 24 24 67 26 92
3z m15064 9 c20 -13 35 -53 28 -75 -16 -52 -80 -63 -113 -21 -12 15 -21 32
-21 39 0 7 9 24 21 39 20 26 61 35 85 18z m-14898 -38 c43 -30 20 -104 -33
-104 -56 0 -75 82 -25 107 32 16 31 16 58 -3z m14730 -12 c26 -34 -1 -92 -44
-92 -28 0 -64 32 -64 58 1 53 74 77 108 34z m-14798 -144 c51 -15 125 -64 155
-104 50 -65 69 -123 69 -206 -1 -134 -69 -239 -194 -296 -113 -53 -261 -26
-351 62 -68 67 -93 125 -97 223 -4 71 -1 88 23 142 69 152 232 226 395 179z
m15022 -16 c65 -29 120 -83 153 -148 26 -52 30 -70 30 -144 0 -73 -4 -93 -28
-142 -58 -119 -198 -199 -321 -184 -115 15 -222 92 -269 195 -17 35 -22 66
-22 131 0 74 4 92 29 143 80 157 266 222 428 149z m-12772 -82 c0 -5 -2 -10
-4 -10 -3 0 -8 5 -11 10 -3 6 -1 10 4 10 6 0 11 -4 11 -10z m10310 6 c0 -11
-19 -15 -25 -6 -3 5 1 10 9 10 9 0 16 -2 16 -4z m-8706 -83 c10 -26 -23 -48
-42 -29 -8 8 -12 22 -9 30 8 21 43 20 51 -1z m7126 -7 c0 -25 -15 -37 -37 -28
-14 4 -18 34 -6 45 3 4 15 7 25 7 12 0 18 -7 18 -24z m-8692 -62 c51 -58 12
-144 -66 -144 -93 0 -123 128 -38 166 40 17 75 10 104 -22z m10340 -1 c49 -54
12 -143 -61 -143 -94 0 -127 123 -44 164 39 19 75 12 105 -21z m-8836 -28 c0
-5 -5 -11 -11 -13 -6 -2 -11 4 -11 13 0 9 5 15 11 13 6 -2 11 -8 11 -13z m91
0 c4 -8 3 -16 -1 -19 -13 -8 -35 11 -28 23 10 15 23 14 29 -4z m7042 -15 c-5
-8 -11 -8 -17 -2 -6 6 -7 16 -3 22 5 8 11 8 17 2 6 -6 7 -16 3 -22z m87 15 c0
-5 -5 -11 -11 -13 -6 -2 -11 4 -11 13 0 9 5 15 11 13 6 -2 11 -8 11 -13z
m-7122 -94 c59 -42 77 -133 37 -192 -40 -59 -117 -80 -182 -48 -84 41 -99 168
-29 230 47 41 125 45 174 10z m7163 2 c39 -20 71 -93 62 -142 -14 -75 -103
-132 -175 -111 -124 36 -141 202 -26 260 45 22 87 20 139 -7z m-10740 2 c1 -5
-6 -11 -15 -13 -11 -2 -18 3 -18 13 0 17 30 18 33 0z m14190 0 c1 -5 -6 -11
-15 -13 -11 -2 -18 3 -18 13 0 17 30 18 33 0z m-12351 -72 c35 -37 43 -72 25
-116 -16 -37 -59 -67 -97 -67 -89 0 -137 115 -75 180 24 25 37 30 75 30 37 0
51 -5 72 -27z m10629 -2 c41 -41 41 -98 0 -143 -25 -28 -36 -33 -76 -33 -40 0
-51 5 -76 33 -63 71 -17 171 79 172 35 0 49 -6 73 -29z m-13239 -6 c14 -32 -5
-57 -41 -53 -20 2 -27 9 -29 32 -6 48 50 65 70 21z m831 10 c1 -5 -6 -11 -15
-13 -11 -2 -18 3 -18 13 0 17 30 18 33 0z m2038 -14 c50 -51 34 -134 -31 -161
-85 -35 -170 61 -124 139 35 58 108 69 155 22z m10100 0 c49 -49 38 -125 -23
-157 -68 -35 -138 11 -138 91 0 86 100 127 161 66z m1932 14 c1 -5 -6 -11 -15
-13 -11 -2 -18 3 -18 13 0 17 30 18 33 0z m867 0 c7 -8 10 -25 6 -40 -11 -41
-76 -29 -76 15 0 36 47 53 70 25z m-15030 -15 c0 -5 -4 -10 -10 -10 -5 0 -10
5 -10 10 0 6 5 10 10 10 6 0 10 -4 10 -10z m14250 0 c0 -5 -7 -10 -15 -10 -8
0 -15 5 -15 10 0 6 7 10 15 10 8 0 15 -4 15 -10z m-14088 -70 c114 -32 198
-145 198 -268 0 -163 -118 -281 -280 -282 -153 0 -279 123 -280 272 0 128 82
243 199 279 38 11 120 10 163 -1z m14081 -6 c193 -66 246 -337 93 -472 -57
-50 -95 -65 -177 -70 -68 -4 -82 -1 -130 23 -69 34 -105 68 -137 130 -73 141
5 337 155 391 52 18 140 17 196 -2z m-12603 -14 c0 -5 -4 -10 -10 -10 -5 0
-10 5 -10 10 0 6 5 10 10 10 6 0 10 -4 10 -10z m10970 0 c0 -5 -4 -10 -10 -10
-5 0 -10 5 -10 10 0 6 5 10 10 10 6 0 10 -4 10 -10z m-13285 -30 c0 -18 -6
-26 -23 -28 -13 -2 -25 3 -28 12 -10 26 4 48 28 44 17 -2 23 -10 23 -28z
m15630 0 c0 -31 -33 -40 -52 -14 -16 22 1 46 31 42 15 -2 21 -10 21 -28z
m-15757 8 c18 -18 14 -56 -7 -68 -29 -15 -39 -13 -56 14 -13 19 -14 29 -5 45
12 23 49 28 68 9z m15890 0 c19 -19 14 -56 -8 -68 -38 -21 -80 22 -60 61 12
21 50 25 68 7z m-13500 -46 c3 -18 -1 -22 -22 -22 -19 0 -26 5 -26 18 0 39 43
43 48 4z m1755 14 c75 -32 110 -123 73 -194 -59 -113 -238 -91 -262 32 -21
114 87 206 189 162z m7654 -5 c116 -53 100 -217 -26 -260 -97 -32 -198 68
-171 170 25 91 110 129 197 90z m1688 -6 c0 -13 -8 -21 -22 -23 -17 -3 -23 2
-23 16 0 10 3 22 7 26 13 13 38 1 38 -19z m-10390 -6 c0 -7 -8 -15 -17 -17
-18 -3 -25 18 -11 32 10 10 28 1 28 -15z m9673 -2 c2 -10 -3 -17 -12 -17 -18
0 -29 16 -21 31 9 14 29 6 33 -14z m-10298 3 c0 -5 -4 -10 -10 -10 -5 0 -10 5
-10 10 0 6 5 10 10 10 6 0 10 -4 10 -10z m10910 0 c0 -5 -7 -10 -16 -10 -8 0
-12 5 -9 10 3 6 10 10 16 10 5 0 9 -4 9 -10z m-11100 -30 c-8 -5 -19 -10 -25
-10 -5 0 -3 5 5 10 8 5 20 10 25 10 6 0 3 -5 -5 -10z m11285 0 c3 -5 2 -10 -4
-10 -5 0 -13 5 -16 10 -3 6 -2 10 4 10 5 0 13 -4 16 -10z m-13284 -28 c88 -25
147 -60 204 -124 128 -142 150 -330 59 -498 -33 -61 -118 -141 -185 -176 -159
-80 -360 -45 -489 85 -170 171 -169 435 0 602 115 112 262 152 411 111z
m15454 7 c129 -24 247 -115 307 -237 32 -64 33 -72 33 -182 0 -110 -2 -119
-32 -181 -107 -217 -354 -307 -568 -205 -91 43 -162 112 -206 201 -33 67 -34
74 -34 185 0 109 2 118 32 181 57 116 158 199 286 234 64 17 107 18 182 4z
m-11204 -24 c97 -51 119 -192 41 -274 -138 -145 -367 12 -283 194 22 49 48 73
98 91 42 16 100 11 144 -11z m6907 11 c83 -30 134 -123 112 -206 -17 -64 -36
-87 -96 -116 -62 -30 -111 -27 -166 10 -74 49 -101 128 -72 204 36 96 130 142
222 108z m-8288 -20 c786 -92 1527 -440 2088 -981 173 -167 279 -285 412 -462
201 -269 381 -601 494 -913 15 -41 31 -85 36 -97 18 -44 79 -271 105 -387 103
-466 110 -971 20 -1446 -109 -575 -344 -1095 -711 -1570 -116 -150 -445 -481
-604 -606 -647 -512 -1429 -783 -2255 -784 -289 0 -519 25 -790 85 -395 88
-758 234 -1096 440 -9 6 -31 18 -49 28 -17 10 -85 56 -150 101 -426 300 -793
695 -1050 1133 -59 100 -200 385 -239 483 -130 328 -220 702 -251 1040 -13
147 -13 493 0 635 102 1104 669 2073 1580 2696 524 359 1156 576 1810 623 115
8 521 -3 650 -18z m10370 -1 c672 -80 1304 -345 1845 -773 141 -111 447 -415
559 -555 435 -544 698 -1171 782 -1867 25 -202 25 -639 0 -835 -56 -445 -169
-824 -360 -1205 -162 -323 -343 -584 -582 -842 -628 -677 -1456 -1080 -2381
-1159 -175 -14 -549 -7 -728 15 -809 100 -1548 460 -2126 1036 -586 584 -936
1299 -1046 2140 -25 192 -25 679 0 870 36 268 104 559 178 760 17 47 39 108
49 135 52 143 173 387 278 560 317 524 785 975 1327 1280 467 262 974 412
1550 459 106 8 526 -4 655 -19z m-9628 0 c0 -5 -5 -11 -11 -13 -6 -2 -11 4
-11 13 0 9 5 15 11 13 6 -2 11 -8 11 -13z m8068 -6 c0 -5 -7 -9 -15 -9 -15 0
-20 12 -9 23 8 8 24 -1 24 -14z m-11470 1 c0 -5 -2 -10 -4 -10 -3 0 -8 5 -11
10 -3 6 -1 10 4 10 6 0 11 -4 11 -10z m804 -12 c16 -26 -4 -53 -40 -53 -23 0
-30 5 -32 23 -2 13 -1 30 2 38 8 20 56 14 70 -8z m13310 0 c14 -23 -3 -52 -34
-56 -25 -4 -40 12 -40 45 0 36 53 43 74 11z m-10786 -32 c-2 -13 -10 -21 -23
-21 -23 0 -33 34 -14 45 20 13 40 -1 37 -24z m8239 -10 c-8 -20 -43 -21 -51
-1 -3 8 2 22 11 30 14 15 18 15 31 1 8 -8 12 -22 9 -30z m-10615 -3 c40 -36 9
-103 -49 -103 -23 0 -53 34 -53 60 0 50 64 78 102 43z m13028 -3 c11 -11 20
-29 20 -40 0 -24 -34 -60 -56 -60 -46 0 -82 47 -63 83 23 43 66 50 99 17z
m830 10 c0 -5 -2 -10 -4 -10 -3 0 -8 5 -11 10 -3 6 -1 10 4 10 6 0 11 -4 11
-10z m-13690 -26 c21 -5 17 -8 -30 -25 -70 -24 -70 -24 -70 10 0 29 2 30 38
25 20 -3 48 -8 62 -10z m12702 -14 c-5 -33 -3 -33 -82 -5 -34 12 -34 13 -10
19 23 5 59 11 86 15 6 0 9 -11 6 -29z m-10412 4 c0 -17 -22 -14 -28 4 -2 7 3
12 12 12 9 0 16 -7 16 -16z m8055 7 c7 -12 -12 -24 -25 -16 -11 7 -4 25 10 25
5 0 11 -4 15 -9z m-10667 -63 c32 -32 -4 -87 -48 -73 -25 8 -37 50 -20 70 15
18 51 20 68 3z m13308 4 c21 -14 25 -45 8 -63 -22 -24 -46 -24 -68 0 -35 38
17 93 60 63z m-9888 -131 c5 -32 -23 -54 -49 -40 -11 5 -19 18 -19 27 0 45 62
56 68 13z m6473 8 c9 -18 7 -25 -9 -41 -16 -16 -23 -18 -41 -9 -23 13 -28 40
-9 59 19 19 46 14 59 -9z m-6573 -81 c17 -17 15 -43 -4 -59 -31 -26 -70 25
-44 56 15 18 32 19 48 3z m6653 2 c27 -15 24 -48 -7 -62 -22 -11 -28 -10 -40
7 -18 24 -18 30 2 49 18 19 20 19 45 6z m-6484 -42 c43 -40 18 -108 -39 -108
-62 0 -91 67 -48 110 26 26 58 25 87 -2z m6358 -3 c30 -29 32 -58 5 -85 -41
-41 -110 -15 -110 42 0 33 31 68 60 68 12 0 32 -11 45 -25z m-10435 -5 c0 -13
-7 -20 -20 -20 -13 0 -20 7 -20 20 0 13 7 20 20 20 13 0 20 -7 20 -20z m14468
-3 c2 -11 -3 -17 -16 -17 -24 0 -32 8 -25 26 7 20 37 13 41 -9z m-14368 -48
c0 -26 -28 -36 -46 -17 -14 13 -14 17 1 31 19 20 45 12 45 -14z m14277 -13
c-4 -9 -16 -16 -27 -16 -29 0 -38 30 -15 47 16 11 21 11 33 -1 8 -8 12 -22 9
-30z m-14373 -39 c9 -15 7 -21 -9 -33 -22 -16 -34 -14 -49 8 -7 12 -6 21 4 33
16 19 39 16 54 -8z m14476 2 c20 -36 -23 -67 -50 -34 -16 19 -3 55 20 55 11 0
24 -9 30 -21z m-10251 -103 c40 -54 67 -94 59 -90 -10 6 -163 115 -197 141 -3
2 8 17 24 33 16 17 32 27 35 23 4 -5 39 -52 79 -107z m6092 71 c19 -14 17 -17
-53 -67 -40 -30 -89 -65 -108 -79 l-35 -26 28 38 c15 20 37 52 50 70 75 106
80 110 89 94 5 -9 18 -23 29 -30z m-11321 13 c0 -11 -6 -20 -14 -20 -18 0 -29
16 -21 30 11 18 35 11 35 -10z m16468 3 c5 -17 -26 -29 -40 -15 -6 6 -7 15 -3
22 9 14 37 9 43 -7z m-16517 -86 c-1 -12 -15 -9 -19 4 -3 6 1 10 8 8 6 -3 11
-8 11 -12z m79 3 c0 -5 -2 -10 -4 -10 -3 0 -8 5 -11 10 -3 6 -1 10 4 10 6 0
11 -4 11 -10z m16461 -3 c-1 -12 -15 -9 -19 4 -3 6 1 10 8 8 6 -3 11 -8 11
-12z m-16429 -73 c9 -3 31 -21 47 -40 77 -87 9 -224 -111 -224 -106 0 -170
139 -101 221 45 53 88 64 165 43z m16441 -16 c100 -71 57 -231 -66 -245 -84
-10 -149 50 -149 137 0 74 37 116 117 133 30 6 66 -3 98 -25z m-16156 -173
c36 -24 56 -63 57 -111 1 -41 -3 -49 -41 -85 -33 -30 -50 -39 -78 -39 -48 0
-92 24 -115 63 -70 114 65 245 177 172z m15870 0 c36 -24 56 -63 56 -109 0
-127 -167 -172 -233 -63 -41 66 -17 146 53 178 45 21 85 19 124 -6z m-15679
-23 c2 -7 -3 -12 -12 -12 -9 0 -16 7 -16 16 0 17 22 14 28 -4z m15380 0 c2 -7
-3 -12 -12 -12 -9 0 -16 7 -16 16 0 17 22 14 28 -4z m-15438 -56 c0 -3 -4 -8
-10 -11 -5 -3 -10 -1 -10 4 0 6 5 11 10 11 6 0 10 -2 10 -4z m-412 -82 c23
-14 55 -44 70 -66 23 -36 27 -52 27 -117 0 -71 -2 -79 -34 -123 -82 -114 -250
-120 -339 -13 -71 87 -68 197 9 280 72 78 175 92 267 39z m16456 25 c174 -44
215 -280 68 -384 -58 -40 -158 -48 -221 -16 -48 25 -96 87 -112 145 -29 108
48 228 166 257 44 10 52 10 99 -2z m-10382 -488 l77 -53 -41 -39 c-33 -31 -44
-37 -50 -25 -4 8 -44 64 -88 126 -43 61 -83 116 -86 122 -4 7 19 -8 52 -33 32
-25 94 -69 136 -98z m4296 82 c-23 -32 -68 -95 -99 -140 l-56 -82 -14 25 c-7
14 -25 32 -40 41 l-27 16 105 74 c58 40 119 84 137 98 17 14 32 25 34 25 1 0
-17 -26 -40 -57z m-10656 -10 c39 -35 8 -113 -45 -113 -58 0 -89 69 -50 112
20 22 70 23 95 1z m16962 -5 c22 -31 20 -58 -6 -85 -57 -60 -149 15 -97 80 27
35 81 37 103 5z m-16714 -52 c0 -3 -4 -8 -10 -11 -5 -3 -10 -1 -10 4 0 6 5 11
10 11 6 0 10 -2 10 -4z m16390 -6 c0 -5 -2 -10 -4 -10 -3 0 -8 5 -11 10 -3 6
-1 10 4 10 6 0 11 -4 11 -10z m-16460 -32 c13 -25 13 -31 0 -55 -21 -38 -81
-45 -104 -11 -20 28 -20 48 0 76 23 34 83 27 104 -10z m16618 0 c21 -44 -8
-88 -57 -88 -53 0 -82 68 -45 105 27 26 86 16 102 -17z m-16762 -112 c28 -28
34 -42 34 -75 0 -81 -49 -131 -126 -131 -52 0 -114 62 -114 114 0 78 49 125
129 126 36 0 49 -6 77 -34z m6513 8 c40 -33 43 -83 6 -119 -54 -55 -145 -19
-145 58 1 77 80 111 139 61z m3882 -3 c32 -33 36 -58 14 -100 -15 -31 -65 -54
-93 -44 -26 9 -53 35 -63 60 -12 32 8 81 40 98 40 22 70 18 102 -14z m6549 12
c53 -37 70 -90 46 -147 -42 -101 -184 -98 -226 5 -30 72 32 159 113 159 24 0
54 -8 67 -17z m-10269 -93 c13 -7 19 -21 19 -45 0 -54 -52 -73 -91 -34 -22 22
-19 55 9 77 19 15 37 15 63 2z m3511 -7 c22 -20 23 -51 1 -75 -22 -25 -59 -23
-77 4 -21 30 -20 44 4 68 24 24 47 25 72 3z m-3240 -127 c118 -59 168 -205
110 -325 -88 -186 -361 -184 -448 4 -52 110 -13 248 87 311 80 50 165 54 251
10z m3089 18 c109 -32 192 -159 175 -266 -39 -243 -361 -297 -471 -79 -56 111
-8 269 99 323 81 42 117 46 197 22z m-3465 -19 c20 -30 11 -62 -21 -77 -35
-16 -75 12 -75 52 0 51 67 69 96 25z m3739 5 c23 -25 13 -67 -20 -82 -52 -23
-100 46 -59 86 21 22 57 20 79 -4z m-10495 -25 c18 -21 3 -55 -25 -55 -15 0
-26 7 -30 20 -7 23 10 50 30 50 7 0 18 -7 25 -15z m17208 6 c8 -4 12 -19 10
-32 -2 -18 -9 -24 -28 -24 -28 0 -39 27 -20 50 14 17 20 18 38 6z m-17093 -71
c0 -18 -6 -26 -23 -28 -24 -4 -38 18 -28 44 3 9 15 14 28 12 17 -2 23 -10 23
-28z m16990 6 c0 -10 -8 -24 -18 -30 -14 -9 -21 -7 -32 7 -19 27 -8 49 24 45
18 -2 26 -9 26 -22z m-9785 -1 c0 -8 -4 -15 -9 -15 -13 0 -22 16 -14 24 11 11
23 6 23 -9z m2550 0 c0 -8 -4 -15 -9 -15 -13 0 -22 16 -14 24 11 11 23 6 23
-9z m-2470 -30 c0 -8 -4 -15 -9 -15 -13 0 -22 16 -14 24 11 11 23 6 23 -9z
m2390 0 c0 -8 -4 -15 -9 -15 -13 0 -22 16 -14 24 11 11 23 6 23 -9z m-9751
-51 c12 -15 21 -34 21 -44 0 -34 -39 -70 -75 -70 -59 0 -91 52 -64 103 16 30
28 37 66 37 22 0 38 -8 52 -26z m17196 6 c42 -46 10 -120 -52 -120 -42 0 -73
30 -73 70 0 62 84 95 125 50z m-9651 -1 c175 -44 214 -287 63 -394 -35 -25
-53 -30 -112 -33 -58 -3 -78 1 -114 20 -128 66 -158 235 -62 342 62 68 132 89
225 65z m2152 -13 c82 -38 127 -110 125 -203 -1 -65 -14 -100 -54 -141 -113
-118 -296 -92 -363 52 -39 84 -26 168 37 240 66 75 163 95 255 52z m-1886 -61
c14 -17 5 -51 -16 -59 -22 -8 -54 11 -54 32 0 38 46 56 70 27z m1530 -4 c12
-23 5 -47 -16 -55 -20 -8 -54 11 -54 29 0 45 49 64 70 26z m-1370 -26 c7 -8
13 -26 13 -40 0 -36 -21 -55 -59 -55 -23 0 -37 6 -44 19 -15 30 -12 69 8 80
25 15 68 13 82 -4z m1232 -2 c36 -32 10 -93 -40 -93 -30 0 -62 26 -62 49 0 51
64 79 102 44z m-1082 -18 c0 -8 -7 -15 -15 -15 -8 0 -15 7 -15 15 0 8 7 15 15
15 8 0 15 -7 15 -15z m872 0 c0 -5 -5 -11 -11 -13 -6 -2 -11 4 -11 13 0 9 5
15 11 13 6 -2 11 -8 11 -13z m-9045 -55 c22 0 23 -1 9 -27 -27 -54 -98 -260
-142 -408 -24 -82 -43 -143 -43 -135 -1 37 48 418 70 546 l11 61 36 -18 c20
-11 47 -19 59 -19z m8806 29 c661 -100 1172 -615 1267 -1277 16 -109 7 -391
-15 -492 -48 -217 -148 -440 -274 -605 -394 -517 -1077 -721 -1686 -505 -347
124 -651 389 -824 720 -303 582 -184 1302 290 1755 234 224 504 354 849 408
56 9 326 6 393 -4z m8537 -369 c33 -272 33 -277 -4 -140 -33 119 -98 311 -145
428 l-21 52 23 0 c12 0 38 8 57 19 l35 19 17 -107 c10 -58 27 -180 38 -271z
m-9467 315 c18 -17 12 -51 -10 -59 -37 -15 -69 34 -41 62 16 16 33 15 51 -3z
m1491 -1 c9 -8 16 -19 16 -24 0 -9 -28 -40 -36 -40 -17 0 -44 23 -44 38 0 38
37 53 64 26z m-2454 -144 c0 -5 -7 -10 -15 -10 -8 0 -15 5 -15 10 0 6 7 10 15
10 8 0 15 -4 15 -10z m331 -5 c46 -7 116 -67 140 -119 47 -104 0 -239 -102
-292 -110 -56 -273 9 -307 122 -18 61 -15 129 8 173 25 50 92 107 138 119 36
9 50 9 123 -3z m2830 0 c64 -23 108 -62 135 -119 28 -60 30 -93 9 -163 -26
-87 -122 -153 -222 -153 -15 0 -51 11 -79 24 -192 89 -155 381 53 416 26 4 51
8 54 9 4 0 26 -6 50 -14z m237 4 c-2 -6 -8 -10 -13 -10 -5 0 -11 4 -13 10 -2
6 4 11 13 11 9 0 15 -5 13 -11z m-3328 -19 c0 -5 -4 -10 -10 -10 -5 0 -10 5
-10 10 0 6 5 10 10 10 6 0 10 -4 10 -10z m-50 -65 c0 -8 -4 -15 -10 -15 -5 0
-10 7 -10 15 0 8 5 15 10 15 6 0 10 -7 10 -15z m3348 4 c-2 -6 -8 -10 -13 -10
-5 0 -11 4 -13 10 -2 6 4 11 13 11 9 0 15 -5 13 -11z m-2748 -69 c0 -5 -4 -10
-10 -10 -5 0 -10 5 -10 10 0 6 5 10 10 10 6 0 10 -4 10 -10z m-440 -334 c6 -8
10 -25 8 -38 -2 -18 -9 -23 -33 -23 -24 0 -31 5 -33 23 -4 25 13 52 33 52 7 0
18 -7 25 -14z m3060 -1 c26 -32 -13 -81 -47 -59 -24 15 -27 38 -8 58 20 20 39
20 55 1z m-2932 -17 c19 -19 14 -56 -8 -63 -41 -13 -69 43 -32 64 22 13 26 13
40 -1z m2796 -4 c19 -18 19 -20 6 -45 -6 -10 -19 -19 -30 -19 -16 0 -40 26
-40 44 0 8 31 36 40 36 5 0 16 -7 24 -16z m-2862 -111 c24 -21 23 -58 -2 -83
-35 -35 -83 -20 -95 32 -13 52 56 88 97 51z m2962 -2 c25 -27 17 -72 -15 -90
-24 -13 -29 -13 -53 2 -17 12 -26 26 -26 44 0 55 59 83 94 44z m-3004 -222 c0
-5 -7 -9 -15 -9 -15 0 -20 12 -9 23 8 8 24 -1 24 -14z m3000 0 c0 -5 -7 -9
-15 -9 -15 0 -20 12 -9 23 8 8 24 -1 24 -14z m-3002 -871 c-6 -18 -28 -21 -28
-4 0 9 7 16 16 16 9 0 14 -5 12 -12z m3000 0 c-6 -18 -28 -21 -28 -4 0 9 7 16
16 16 9 0 14 -5 12 -12z m-2950 -146 c17 -22 15 -57 -4 -76 -23 -24 -70 -20
-88 6 -22 31 -20 45 9 74 27 27 59 26 83 -4z m2960 5 c17 -13 15 -62 -4 -81
-19 -19 -54 -21 -78 -3 -26 19 -18 78 13 93 24 12 45 9 69 -9z m-2888 -172 c0
-15 -7 -26 -20 -30 -41 -13 -70 43 -33 64 25 13 53 -5 53 -34z m2784 29 c27
-27 12 -64 -26 -64 -15 0 -38 27 -38 44 0 8 31 36 40 36 5 0 16 -7 24 -16z
m-2926 -16 c21 -21 14 -57 -12 -64 -33 -8 -46 2 -46 36 0 37 33 53 58 28z
m3066 -10 c23 -38 -35 -78 -61 -42 -17 23 -16 29 3 49 20 19 43 16 58 -7z
m-2865 -122 c39 -21 89 -83 101 -126 25 -89 1 -170 -68 -232 -137 -124 -361
-25 -362 160 -1 173 174 278 329 198z m2838 -7 c116 -72 136 -232 41 -335
-104 -113 -285 -89 -356 47 -19 36 -23 56 -20 115 3 59 8 78 33 113 64 94 203
121 302 60z m7228 -115 c-17 -146 -66 -487 -71 -493 -1 -1 -13 4 -26 13 -12 9
-37 16 -55 16 -18 0 -33 2 -33 5 0 2 17 49 39 102 43 109 108 309 137 420 10
40 19 71 21 69 1 -1 -4 -60 -12 -132z m-17422 -234 c24 -69 53 -148 65 -176
l21 -51 -29 -1 c-16 0 -42 -8 -59 -17 -17 -8 -31 -12 -31 -8 0 5 -7 46 -15 93
-17 99 -65 475 -64 505 0 11 15 -34 34 -100 18 -66 53 -176 78 -245z m9797
150 c0 -5 -4 -10 -10 -10 -5 0 -10 5 -10 10 0 6 5 10 10 10 6 0 10 -4 10 -10z
m-2800 -120 c0 -5 -4 -10 -10 -10 -5 0 -10 5 -10 10 0 6 5 10 10 10 6 0 10 -4
10 -10z m3348 -1 c-2 -6 -8 -10 -13 -10 -5 0 -11 4 -13 10 -2 6 4 11 13 11 9
0 15 -5 13 -11z m-2675 -10 c85 -23 148 -115 148 -214 0 -217 -291 -297 -406
-111 -25 42 -30 59 -30 116 0 57 5 74 30 115 53 86 155 123 258 94z m2135 -4
c73 -31 121 -93 131 -172 11 -75 -3 -124 -50 -177 -69 -78 -181 -98 -274 -50
-81 42 -130 160 -106 250 34 127 179 199 299 149z m-2830 -66 c-2 -6 -8 -10
-13 -10 -5 0 -11 4 -13 10 -2 6 4 11 13 11 9 0 15 -5 13 -11z m3400 0 c-2 -6
-8 -10 -13 -10 -5 0 -11 4 -13 10 -2 6 4 11 13 11 9 0 15 -5 13 -11z m-3194
-59 c170 -64 217 -280 88 -408 -127 -126 -347 -75 -408 95 -44 125 28 274 153
316 65 21 102 21 167 -3z m3115 4 c143 -42 218 -208 155 -340 -56 -117 -202
-174 -319 -124 -101 43 -149 115 -150 225 0 90 29 154 92 199 78 55 136 66
222 40z m-2350 -53 c13 -24 -8 -55 -34 -50 -23 5 -40 32 -32 53 9 22 54 20 66
-3z m1490 5 c9 -11 10 -20 1 -35 -21 -40 -79 -15 -65 29 7 24 46 27 64 6z
m-1364 -52 c27 -11 38 -53 21 -80 -34 -50 -106 -33 -106 26 0 47 38 72 85 54z
m1247 -11 c41 -37 3 -111 -50 -98 -52 12 -67 60 -32 95 24 24 57 26 82 3z
m-1082 -58 c0 -8 -7 -15 -15 -15 -8 0 -15 7 -15 15 0 8 7 15 15 15 8 0 15 -7
15 -15z m872 0 c0 -5 -5 -11 -11 -13 -6 -2 -11 4 -11 13 0 9 5 15 11 13 6 -2
11 -8 11 -13z m-1182 -10 c20 -24 3 -55 -30 -55 -34 0 -44 12 -36 46 7 28 46
33 66 9z m1531 -1 c19 -23 -1 -49 -37 -49 -30 0 -42 20 -30 51 7 19 50 18 67
-2z m-9346 -19 c38 -37 32 -86 -14 -109 -76 -40 -143 41 -90 108 27 34 71 35
104 1z m17186 14 c52 -27 41 -110 -16 -129 -38 -13 -68 -2 -85 30 -35 65 35
135 101 99z m-8376 -39 c534 -46 980 -173 1428 -408 320 -167 575 -353 841
-612 622 -607 994 -1372 1088 -2240 19 -181 16 -598 -5 -780 -76 -628 -300
-1204 -666 -1715 -545 -760 -1405 -1299 -2325 -1455 -231 -39 -316 -45 -631
-45 -338 1 -446 11 -715 65 -451 91 -915 283 -1285 532 -230 156 -439 331
-614 514 -586 616 -925 1368 -1002 2223 -15 168 -6 591 15 746 70 504 218 946
453 1355 652 1129 1833 1818 3138 1829 88 0 214 -4 280 -9z m1005 -70 c0 -5
-4 -10 -10 -10 -5 0 -10 5 -10 10 0 6 5 10 10 10 6 0 10 -4 10 -10z m-9742
-52 c28 -28 3 -66 -33 -52 -18 7 -20 50 -2 57 19 8 22 8 35 -5z m7292 2 c0 -5
-4 -10 -9 -10 -6 0 -13 5 -16 10 -3 6 1 10 9 10 9 0 16 -4 16 -10z m2390 0 c0
-5 -7 -10 -15 -10 -8 0 -15 5 -15 10 0 6 7 10 15 10 8 0 15 -4 15 -10z m7310
-5 c15 -18 7 -43 -16 -52 -24 -9 -46 24 -33 48 12 23 32 24 49 4z m-9780 -20
c0 -8 -4 -15 -9 -15 -13 0 -22 16 -14 24 11 11 23 6 23 -9z m2550 0 c0 -8 -4
-15 -9 -15 -13 0 -22 16 -14 24 11 11 23 6 23 -9z m-9866 -27 c8 -14 7 -21 -6
-34 -30 -30 -75 9 -48 42 16 18 39 15 54 -8z m6755 -2 c25 -45 -24 -95 -70
-73 -27 14 -36 46 -19 76 16 31 72 29 89 -3z m3743 -1 c23 -51 -23 -96 -74
-71 -26 13 -34 46 -18 75 17 32 77 29 92 -4z m6716 -4 c5 -30 -10 -45 -37 -36
-13 4 -21 15 -21 30 0 40 53 46 58 6z m-17064 -66 c71 -34 89 -129 36 -189
-36 -40 -76 -52 -123 -36 -57 18 -82 53 -82 115 0 59 18 88 70 111 39 17 60
17 99 -1z m16985 -15 c113 -80 7 -260 -121 -207 -95 40 -99 171 -7 220 41 21
87 17 128 -13z m-10276 -14 c29 -23 19 -78 -16 -90 -33 -12 -56 -1 -68 33 -7
17 -3 28 16 47 27 27 42 29 68 10z m3505 -2 c24 -16 28 -44 12 -75 -15 -27
-64 -25 -84 3 -21 30 -20 44 4 68 24 24 38 25 68 4z m-3663 -49 c54 -53 15
-145 -62 -145 -74 0 -110 88 -58 144 32 35 86 36 120 1z m3879 -6 c14 -17 26
-41 26 -54 0 -39 -46 -85 -85 -85 -79 0 -116 90 -60 145 36 37 86 34 119 -6z
m-4036 -149 l40 -40 -46 -32 c-26 -17 -88 -62 -139 -99 l-92 -68 78 107 c42
59 86 122 96 140 11 17 20 32 21 32 1 0 20 -18 42 -40z m4163 -37 c29 -43 73
-105 98 -137 25 -33 40 -56 33 -52 -6 3 -61 43 -122 86 -62 44 -119 84 -127
89 -13 7 -9 15 23 49 22 22 40 41 41 41 1 1 25 -34 54 -76z m-10391 35 c27
-30 25 -62 -6 -87 -34 -26 -54 -26 -82 -1 -27 26 -28 64 -2 90 26 26 64 25 90
-2z m16623 -10 c17 -23 19 -31 9 -53 -17 -37 -53 -51 -88 -34 -35 17 -43 58
-19 95 22 34 70 30 98 -8z m-16810 -49 c47 -25 51 -76 10 -109 -67 -53 -144
41 -81 100 25 23 40 25 71 9z m16971 -10 c33 -26 34 -62 1 -94 -26 -27 -46
-31 -76 -14 -31 16 -42 55 -24 89 23 45 58 52 99 19z m-16709 -29 c3 -5 1 -10
-4 -10 -6 0 -11 5 -11 10 0 6 2 10 4 10 3 0 8 -4 11 -10z m16395 0 c0 -5 -5
-10 -11 -10 -5 0 -7 5 -4 10 3 6 8 10 11 10 2 0 4 -4 4 -10z m-16382 -76 c154
-64 179 -269 45 -371 -106 -79 -263 -40 -318 80 -31 66 -31 118 -1 183 48 104
169 152 274 108z m16517 -4 c70 -33 107 -78 125 -152 24 -93 -36 -202 -132
-243 -154 -64 -326 81 -289 245 29 131 179 207 296 150z m-16205 -328 c14 -10
33 -35 43 -55 34 -68 -13 -159 -90 -173 -47 -9 -103 15 -130 55 -78 115 65
255 177 173z m15866 3 c55 -36 73 -110 41 -172 -17 -31 -69 -63 -106 -63 -40
0 -90 28 -111 62 -70 115 64 247 176 173z m-16151 -155 c50 -24 75 -65 75
-121 0 -52 -31 -102 -77 -124 -40 -19 -77 -19 -120 2 -109 51 -95 216 22 252
45 14 55 13 100 -9z m16435 -8 c32 -23 60 -78 60 -118 0 -64 -75 -134 -145
-134 -36 0 -88 30 -110 64 -22 33 -22 103 -1 143 34 67 133 90 196 45z
m-15960 -27 c0 -8 -7 -15 -15 -15 -8 0 -15 7 -15 15 0 8 7 15 15 15 8 0 15 -7
15 -15z m15378 -3 c2 -7 -3 -12 -12 -12 -9 0 -16 7 -16 16 0 17 22 14 28 -4z
m-15300 -93 c91 -31 191 -118 235 -204 79 -157 48 -367 -73 -493 -247 -255
-674 -119 -732 234 -52 313 263 569 570 463z m15477 4 c114 -39 218 -143 260
-257 24 -67 27 -86 23 -168 -3 -78 -9 -104 -34 -158 -167 -351 -665 -325 -794
43 -37 106 -22 254 37 354 34 58 127 141 192 171 90 41 222 48 316 15z
m-10872 -200 l-77 -108 -31 30 -30 30 105 77 c58 42 106 77 107 77 1 1 -32
-47 -74 -106z m6070 -12 l49 -33 -31 -30 c-18 -17 -33 -29 -34 -27 -2 2 -32
45 -68 94 -90 125 -90 124 -23 74 32 -25 81 -60 107 -78z m-11333 19 c0 -5 -7
-10 -15 -10 -8 0 -15 5 -15 10 0 6 7 10 15 10 8 0 15 -4 15 -10z m70 0 c0 -5
-5 -10 -11 -10 -5 0 -7 5 -4 10 3 6 8 10 11 10 2 0 4 -4 4 -10z m16380 0 c0
-5 -5 -10 -11 -10 -5 0 -7 5 -4 10 3 6 8 10 11 10 2 0 4 -4 4 -10z m90 0 c0
-5 -7 -10 -15 -10 -8 0 -15 5 -15 10 0 6 7 10 15 10 8 0 15 -4 15 -10z
m-16500 -80 c0 -13 -7 -20 -20 -20 -19 0 -27 20 -13 33 13 14 33 6 33 -13z
m1004 4 c8 -21 -11 -44 -36 -44 -21 0 -33 22 -24 45 7 20 52 19 60 -1z m14479
4 c8 -26 -5 -48 -29 -48 -26 0 -40 20 -30 45 7 18 53 20 59 3z m981 -3 c3 -9
-1 -18 -10 -22 -19 -7 -39 11 -30 26 10 16 33 13 40 -4z m-11384 -45 c40 -40
11 -110 -47 -110 -37 0 -63 27 -63 66 0 57 69 85 110 44z m6358 0 c27 -26 28
-64 2 -90 -42 -42 -110 -14 -110 46 0 58 65 84 108 44z m-10343 -30 c0 -16 -6
-26 -18 -28 -19 -4 -32 20 -23 44 9 25 41 13 41 -16z m14283 2 c4 -28 -24 -40
-45 -19 -14 13 -14 19 -3 32 18 22 44 15 48 -13z m-14378 -52 c0 -13 -7 -20
-20 -20 -13 0 -20 7 -20 20 0 13 7 20 20 20 13 0 20 -7 20 -20z m3920 -19 c0
-26 -25 -44 -50 -36 -25 8 -27 50 -3 64 23 12 53 -4 53 -28z m6641 29 c21 -12
25 -40 7 -58 -34 -34 -79 7 -52 46 17 25 19 26 45 12z m3909 -9 c0 -19 -23
-35 -34 -24 -14 15 -5 43 14 43 13 0 20 -7 20 -19z m-14168 -49 c101 -50 158
-141 158 -255 0 -160 -118 -279 -274 -278 -115 1 -200 49 -250 142 -82 150
-14 339 145 401 61 24 160 19 221 -10z m14077 -8 c100 -54 158 -160 147 -266
-8 -76 -26 -117 -75 -171 -132 -143 -367 -110 -456 64 -72 141 -19 302 125
377 60 31 71 34 136 30 53 -4 83 -12 123 -34z m-10544 -47 c114 -65 112 -242
-5 -304 -155 -82 -316 75 -239 234 42 87 156 120 244 70z m174 6 c13 -25 -5
-53 -34 -53 -15 0 -26 7 -30 20 -13 41 43 70 64 33z m6472 1 c17 -21 0 -49
-31 -49 -31 0 -48 28 -31 49 8 9 21 16 31 16 10 0 23 -7 31 -16z m275 0 c96
-46 129 -168 70 -257 -26 -40 -98 -77 -149 -77 -108 0 -196 113 -168 217 29
108 148 164 247 117z m-10182 -84 c43 -16 32 -80 -13 -80 -48 0 -66 37 -34 72
19 21 15 20 47 8z m13326 -10 c15 -15 17 -25 11 -42 -11 -30 -60 -37 -78 -12
-17 24 -17 30 7 54 25 25 35 25 60 0z m-13152 -67 c30 -40 3 -93 -48 -93 -57
0 -80 60 -39 101 24 24 65 20 87 -8z m2712 9 c40 -22 70 -72 70 -120 0 -144
-183 -193 -261 -70 -25 40 -22 112 7 151 41 55 121 72 184 39z m7639 0 c49
-25 74 -63 74 -114 0 -57 -20 -97 -63 -126 -64 -43 -165 -16 -199 53 -60 124
66 250 188 187z m2666 -7 c29 -28 31 -42 9 -73 -18 -26 -75 -30 -94 -7 -20 24
-15 67 10 87 30 24 46 23 75 -7z m-12877 -40 c29 -9 52 -18 50 -20 -2 -1 -31
-5 -65 -8 l-62 -7 1 31 c1 17 6 28 12 26 6 -2 35 -12 64 -22z m12727 -32 c0
-1 -30 1 -65 5 l-65 8 60 20 60 21 6 -26 c3 -14 5 -27 4 -28z m-10415 23 c0
-8 -4 -17 -9 -21 -12 -7 -24 12 -16 25 9 15 25 12 25 -4z m8060 -6 c0 -5 -5
-12 -11 -16 -12 -7 -31 15 -23 28 6 9 34 -1 34 -12z m-10668 -36 c11 -23 10
-29 -11 -45 -28 -23 -61 -10 -61 24 0 49 53 64 72 21z m2523 -5 c0 -17 -6 -24
-20 -24 -23 0 -33 34 -13 46 20 13 33 5 33 -22z m8229 25 c21 -8 21 -43 0 -51
-8 -3 -23 1 -31 10 -13 13 -14 19 -3 31 14 18 13 18 34 10z m2556 -9 c15 -18
6 -61 -16 -69 -24 -9 -54 12 -54 37 0 43 44 63 70 32z m-12669 -56 c314 -64
573 -258 723 -540 97 -182 131 -335 123 -549 -7 -165 -30 -265 -98 -408 -62
-132 -115 -206 -225 -313 -102 -98 -148 -131 -260 -187 -177 -88 -314 -117
-524 -109 -152 6 -226 21 -360 74 -307 123 -545 397 -631 726 -27 104 -37 315
-19 425 67 423 384 771 792 871 112 28 116 28 254 30 88 1 149 -5 225 -20z
m12444 -8 c399 -110 683 -405 782 -814 23 -95 23 -340 0 -444 -90 -399 -378
-701 -772 -810 -91 -26 -115 -28 -270 -28 -142 0 -184 4 -256 22 -195 50 -358
142 -501 283 -239 239 -353 576 -303 903 68 454 392 800 837 897 128 27 365
23 483 -9z m-10483 4 c0 -5 -5 -11 -11 -13 -6 -2 -11 4 -11 13 0 9 5 15 11 13
6 -2 11 -8 11 -13z m8068 -6 c0 -5 -7 -9 -15 -9 -15 0 -20 12 -9 23 8 8 24 -1
24 -14z m-8215 -23 c385 -104 621 -491 536 -876 -33 -150 -87 -246 -201 -360
-68 -69 -115 -106 -168 -133 -238 -126 -517 -118 -745 19 -34 21 -94 70 -132
109 -265 264 -292 676 -65 976 75 99 216 203 330 245 128 45 318 54 445 20z
m8689 4 c213 -47 402 -196 497 -392 61 -124 74 -185 73 -338 0 -120 -3 -144
-28 -215 -43 -128 -99 -216 -196 -308 -256 -247 -627 -280 -923 -83 -211 140
-327 359 -327 617 0 208 78 389 231 535 180 172 425 239 673 184z m-10144 -40
c0 -5 -7 -7 -15 -4 -8 4 -15 8 -15 10 0 2 7 4 15 4 8 0 15 -4 15 -10z m11270
6 c0 -3 -4 -8 -10 -11 -5 -3 -10 -1 -10 4 0 6 5 11 10 11 6 0 10 -2 10 -4z
m-13556 -22 c11 -29 6 -53 -14 -64 -38 -21 -80 22 -60 61 13 24 65 26 74 3z
m551 -13 c118 -56 187 -161 189 -291 1 -66 -3 -83 -32 -142 -58 -119 -161
-183 -293 -182 -63 0 -87 5 -134 29 -119 58 -177 148 -183 282 -4 72 -1 88 24
143 73 162 270 237 429 161z m1833 6 c4 -20 -25 -34 -40 -19 -15 15 -1 44 19
40 10 -2 19 -11 21 -21z m706 8 c3 -9 -1 -18 -10 -22 -19 -7 -28 2 -21 22 8
19 23 19 31 0z m9672 4 c10 -17 -13 -36 -27 -22 -12 12 -4 33 11 33 5 0 12 -5
16 -11z m719 -14 c0 -13 -8 -21 -22 -23 -19 -3 -23 1 -23 23 0 22 4 26 23 23
14 -2 22 -10 22 -23z m2040 4 c68 -25 141 -94 175 -164 33 -69 35 -198 3 -267
-100 -217 -378 -260 -541 -84 -148 161 -83 437 122 515 70 27 169 27 241 0z
m369 5 c12 -31 6 -55 -16 -63 -42 -16 -78 22 -58 60 13 24 65 26 74 3z
m-13424 -4 c0 -5 -4 -10 -10 -10 -5 0 -10 5 -10 10 0 6 5 10 10 10 6 0 10 -4
10 -10z m1929 -8 c97 -49 91 -194 -9 -244 -67 -34 -139 -12 -180 54 -73 119
63 255 189 190z m7191 -17 c104 -100 17 -267 -126 -241 -95 18 -141 147 -80
225 46 59 153 67 206 16z m1790 25 c0 -5 -4 -10 -10 -10 -5 0 -10 5 -10 10 0
6 5 10 10 10 6 0 10 -4 10 -10z m-10705 -30 c56 -58 32 -148 -45 -171 -54 -16
-100 4 -124 55 -20 43 -13 80 22 119 21 22 34 27 72 27 38 0 51 -5 75 -30z
m259 -1 c36 -43 35 -91 -3 -130 -52 -51 -133 -36 -161 30 -27 66 20 131 94
131 37 0 48 -5 70 -31z m10101 5 c35 -38 35 -102 -1 -138 -21 -20 -37 -26 -71
-26 -59 0 -93 35 -93 95 0 61 34 95 95 95 37 0 51 -5 70 -26z m266 -3 c87 -87
-29 -228 -131 -159 -38 26 -56 71 -46 113 19 77 120 103 177 46z m-13181 4
c18 -21 5 -47 -22 -43 -26 3 -37 36 -16 49 18 12 24 11 38 -6z m15630 0 c18
-21 5 -45 -25 -45 -20 0 -25 5 -25 23 0 39 26 50 50 22z m-13310 -45 c0 -5 -4
-10 -10 -10 -5 0 -10 5 -10 10 0 6 5 10 10 10 6 0 10 -4 10 -10z m10965 0 c3
-5 1 -10 -4 -10 -6 0 -11 5 -11 10 0 6 2 10 4 10 3 0 8 -4 11 -10z m-13343
-65 c14 -32 -5 -57 -41 -53 -20 2 -27 9 -29 32 -6 48 50 65 70 21z m15772 3
c15 -25 -3 -52 -37 -56 -21 -3 -28 2 -33 22 -12 49 43 76 70 34z m-15034 -33
c0 -8 -4 -15 -10 -15 -5 0 -10 7 -10 15 0 8 5 15 10 15 6 0 10 -7 10 -15z
m14241 2 c-1 -12 -15 -9 -19 4 -3 6 1 10 8 8 6 -3 11 -8 11 -12z m-14151 -17
c0 -11 -4 -20 -9 -20 -14 0 -23 18 -16 30 10 17 25 11 25 -10z m14073 5 c8
-18 -11 -31 -25 -17 -11 11 -3 32 12 32 4 0 10 -7 13 -15z m-12180 -57 c31
-16 46 -39 47 -70 0 -39 -19 -74 -47 -87 -51 -23 -93 -9 -119 40 -39 77 42
158 119 117z m10361 -13 c36 -34 36 -92 0 -129 -64 -63 -172 4 -144 90 22 65
94 85 144 39z m-12310 7 c8 -13 -11 -35 -23 -28 -16 10 -14 36 3 36 8 0 17 -4
20 -8z m14192 -3 c10 -17 -13 -36 -27 -22 -12 12 -4 33 11 33 5 0 12 -5 16
-11z m-10706 -100 c0 -5 -7 -9 -15 -9 -15 0 -20 12 -9 23 8 8 24 -1 24 -14z
m80 5 c0 -17 -22 -14 -28 4 -2 7 3 12 12 12 9 0 16 -7 16 -16z m7050 0 c0 -17
-22 -14 -28 4 -2 7 3 12 12 12 9 0 16 -7 16 -16z m90 -5 c0 -5 -7 -9 -15 -9
-15 0 -20 12 -9 23 8 8 24 -1 24 -14z m-7166 -68 c10 -16 -5 -41 -24 -41 -23
0 -34 16 -26 35 6 16 42 20 50 6z m7129 -3 c7 -21 -4 -38 -23 -38 -23 0 -34
16 -26 35 7 18 43 20 49 3z m-8733 -108 c0 -5 -2 -10 -4 -10 -3 0 -8 5 -11 10
-3 6 -1 10 4 10 6 0 11 -4 11 -10z m10310 6 c0 -11 -19 -15 -25 -6 -3 5 1 10
9 10 9 0 16 -2 16 -4z m-12488 -163 c36 -32 12 -103 -35 -103 -53 0 -77 75
-35 104 29 20 47 20 70 -1z m14718 -3 c11 -11 20 -29 20 -40 0 -11 -9 -29 -20
-40 -11 -11 -29 -20 -40 -20 -11 0 -29 9 -40 20 -11 11 -20 29 -20 40 0 11 9
29 20 40 11 11 29 20 40 20 11 0 29 -9 40 -20z m-14890 -20 c41 -41 14 -110
-43 -110 -62 0 -90 68 -45 110 28 25 62 26 88 0z m15079 -6 c25 -32 26 -52 5
-82 -17 -25 -84 -31 -102 -9 -23 27 -24 62 -2 90 29 36 71 36 99 1z m-14935
-150 c80 -81 -38 -199 -121 -121 -16 14 -23 32 -23 59 0 80 88 118 144 62z
m14820 1 c19 -17 26 -34 26 -60 0 -77 -90 -116 -147 -62 -34 31 -32 98 3 126
36 29 85 27 118 -4z m-134 -195 c0 -5 -4 -10 -10 -10 -5 0 -10 5 -10 10 0 6 5
10 10 10 6 0 10 -4 10 -10z m-14730 -20 c0 -5 -4 -10 -10 -10 -5 0 -10 5 -10
10 0 6 5 10 10 10 6 0 10 -4 10 -10z m14805 0 c3 -5 -1 -10 -10 -10 -9 0 -13
5 -10 10 3 6 8 10 10 10 2 0 7 -4 10 -10z m-14721 -67 c8 -20 -1 -33 -25 -33
-24 0 -35 25 -19 45 13 16 36 10 44 -12z m14670 -16 c-8 -22 -43 -22 -51 -1
-9 25 26 49 44 31 8 -7 11 -21 7 -30z m-11034 12 c0 -12 -29 -24 -37 -16 -3 4
-3 13 0 21 6 16 37 11 37 -5z m7385 0 c0 -7 -8 -15 -17 -17 -18 -3 -25 18 -11
32 10 10 28 1 28 -15z m-8691 -21 c21 -30 20 -50 -5 -82 -28 -35 -70 -35 -99
1 -22 28 -21 63 2 90 18 22 85 16 102 -9z m10060 6 c24 -24 20 -80 -6 -98 -47
-33 -108 -7 -108 46 0 17 7 40 17 50 20 22 76 24 97 2z m-8805 -130 c26 -21
31 -33 31 -68 0 -49 -18 -79 -59 -96 -98 -40 -177 85 -102 161 39 38 87 39
130 3z m7582 -3 c47 -47 36 -121 -23 -155 -56 -34 -131 3 -144 70 -17 93 99
153 167 85z m-8713 3 c25 -17 30 -69 10 -97 -35 -45 -118 -16 -118 41 0 32 8
45 35 60 28 16 47 15 73 -4z m9797 -9 c32 -31 32 -59 -1 -91 -19 -20 -31 -24
-52 -20 -32 8 -62 40 -62 68 0 25 44 68 70 68 11 0 32 -11 45 -25z m-9980 -50
c47 -46 19 -115 -47 -115 -42 0 -68 25 -68 67 0 67 68 96 115 48z m10170 0
c30 -29 32 -68 5 -95 -43 -43 -120 -11 -120 50 0 64 70 91 115 45z m-9084 -58
c43 -33 50 -93 17 -131 -62 -71 -177 -12 -154 79 14 55 93 86 137 52z m8007
-3 c34 -23 45 -60 31 -101 -30 -93 -169 -70 -169 29 0 73 79 114 138 72z
m-8514 -49 c638 -111 1028 -772 821 -1391 -122 -367 -443 -643 -824 -709 -434
-76 -863 118 -1099 496 -49 81 -83 159 -118 276 -38 128 -45 346 -15 488 90
435 423 762 854 840 99 18 277 18 381 0z m9371 -15 c199 -54 346 -139 490
-284 177 -177 270 -365 305 -611 36 -255 -32 -535 -183 -754 -129 -188 -364
-352 -597 -417 -119 -32 -310 -43 -439 -24 -319 47 -610 248 -769 530 -167
297 -182 671 -38 975 148 312 435 537 766 600 113 21 361 14 465 -15z m-9115
10 c0 -5 -2 -10 -4 -10 -3 0 -8 5 -11 10 -3 6 -1 10 4 10 6 0 11 -4 11 -10z
m8420 0 c0 -5 -2 -10 -4 -10 -3 0 -8 5 -11 10 -3 6 -1 10 4 10 6 0 11 -4 11
-10z m-9425 -60 c3 -5 1 -10 -4 -10 -6 0 -11 5 -11 10 0 6 2 10 4 10 3 0 8 -4
11 -10z m1487 -26 c23 -23 28 -36 28 -74 0 -38 -5 -51 -27 -72 -39 -35 -76
-42 -119 -22 -58 28 -78 87 -49 144 33 64 113 75 167 24z m7590 -1 c23 -22 28
-35 28 -73 0 -38 -5 -51 -30 -75 -65 -62 -180 -14 -180 75 0 36 30 81 63 96
42 18 85 10 119 -23z m1358 27 c0 -5 -4 -10 -10 -10 -5 0 -10 5 -10 10 0 6 5
10 10 10 6 0 10 -4 10 -10z m-8910 -240 c0 -5 -4 -10 -10 -10 -5 0 -10 5 -10
10 0 6 5 10 10 10 6 0 10 -4 10 -10z m7390 0 c0 -5 -4 -10 -10 -10 -5 0 -10 5
-10 10 0 6 5 10 10 10 6 0 10 -4 10 -10z m-7460 -30 c0 -5 -4 -10 -10 -10 -5
0 -10 5 -10 10 0 6 5 10 10 10 6 0 10 -4 10 -10z m7530 0 c0 -5 -4 -10 -10
-10 -5 0 -10 5 -10 10 0 6 5 10 10 10 6 0 10 -4 10 -10z m-7452 -63 c4 -20
-25 -34 -40 -19 -15 15 -1 44 19 40 10 -2 19 -11 21 -21z m7397 -2 c0 -13 -8
-21 -22 -23 -19 -3 -23 1 -23 23 0 22 4 26 23 23 14 -2 22 -10 22 -23z m-7385
-90 c0 -8 -2 -15 -4 -15 -2 0 -6 7 -10 15 -3 8 -1 15 4 15 6 0 10 -7 10 -15z
m7331 -12 c-8 -15 -10 -15 -11 -2 0 17 10 32 18 25 2 -3 -1 -13 -7 -23z
m-10393 -1 c2 -7 -6 -12 -17 -12 -21 0 -27 11 -14 24 9 9 26 2 31 -12z m13482
3 c0 -8 -7 -15 -15 -15 -16 0 -20 12 -8 23 11 12 23 8 23 -8z m-12403 -11 c3
-8 1 -20 -6 -27 -14 -14 -47 15 -37 32 10 16 36 13 43 -5z m11331 -6 c-2 -13
-10 -23 -18 -23 -8 0 -16 10 -18 23 -3 17 2 22 18 22 16 0 21 -5 18 -22z
m-11428 -26 c0 -13 -12 -22 -22 -16 -10 6 -1 24 13 24 5 0 9 -4 9 -8z m11510
-7 c0 -8 -4 -15 -10 -15 -5 0 -10 7 -10 15 0 8 5 15 10 15 6 0 10 -7 10 -15z
m-12326 -21 c34 -34 9 -94 -39 -94 -30 0 -55 25 -55 55 0 30 25 55 55 55 13 0
31 -7 39 -16z m13200 -6 c20 -29 20 -47 -1 -70 -18 -20 -63 -24 -81 -6 -18 18
-15 75 6 87 28 17 60 12 76 -11z m-12445 -26 c88 -47 95 -182 13 -240 -46 -33
-95 -37 -146 -12 -79 38 -107 135 -60 208 38 59 128 79 193 44z m11745 4 c77
-32 103 -147 48 -215 -106 -131 -311 -10 -243 144 33 76 114 105 195 71z
m-12369 -16 c8 -26 -1 -40 -26 -40 -22 0 -34 22 -25 45 8 22 44 18 51 -5z
m745 12 c0 -13 -12 -22 -22 -16 -10 6 -1 24 13 24 5 0 9 -4 9 -8z m11390 -7
c0 -8 -4 -15 -10 -15 -5 0 -10 7 -10 15 0 8 5 15 10 15 6 0 10 -7 10 -15z
m768 6 c21 -13 10 -46 -16 -49 -24 -4 -38 18 -28 43 6 17 24 19 44 6z m-12631
-48 c55 -35 83 -87 83 -152 0 -105 -76 -181 -181 -181 -153 0 -233 180 -134
298 56 67 159 83 232 35z m12493 7 c60 -30 95 -90 95 -160 0 -209 -301 -250
-356 -48 -21 80 21 176 92 211 47 23 121 21 169 -3z m-12822 -93 c-2 -17 -10
-22 -33 -22 -35 0 -47 31 -20 51 25 18 57 0 53 -29z m13020 34 c22 -14 10 -56
-17 -59 -37 -6 -52 26 -25 52 18 18 24 19 42 7z m-12398 -242 c106 -60 122
-215 28 -294 -92 -77 -240 -45 -284 62 -32 76 -8 172 56 221 35 27 48 30 109
31 37 1 65 -5 91 -20z m11911 -2 c121 -81 115 -251 -11 -314 -73 -37 -147 -28
-203 25 -43 40 -57 75 -57 139 0 105 70 172 181 173 42 0 64 -6 90 -23z
m-9555 -229 c9 -29 19 -58 21 -64 2 -6 -9 -11 -28 -12 -30 -1 -31 1 -25 30 3
17 6 46 6 64 0 19 2 34 4 34 3 0 12 -24 22 -52z m7046 -30 c5 -47 5 -47 -23
-45 -16 1 -29 4 -29 6 0 2 8 28 17 58 19 59 28 54 35 -19z m-9287 -98 c0 -18
-6 -26 -23 -28 -13 -2 -25 3 -28 12 -10 26 4 48 28 44 17 -2 23 -10 23 -28z
m11550 0 c0 -18 -6 -26 -23 -28 -13 -2 -25 3 -28 12 -10 26 4 48 28 44 17 -2
23 -10 23 -28z m-9272 -12 c28 -22 32 -63 8 -87 -41 -41 -101 -18 -101 39 0
51 53 78 93 48z m7021 -7 c25 -28 17 -72 -16 -91 -25 -13 -31 -13 -55 0 -33
19 -40 52 -19 86 20 30 65 32 90 5z m-9405 -30 c13 -24 -8 -55 -35 -49 -20 3
-30 29 -20 54 8 20 43 17 55 -5z m11766 -10 c0 -34 -30 -51 -51 -29 -25 24
-10 60 24 56 21 -2 27 -8 27 -27z m-11631 -47 c34 -34 9 -94 -39 -94 -30 0
-55 25 -55 55 0 13 7 31 16 39 8 9 26 16 39 16 13 0 31 -7 39 -16z m11518 -1
c35 -32 8 -93 -41 -93 -34 0 -53 21 -53 57 0 47 57 70 94 36z m-9338 -75 c14
-24 -3 -52 -34 -56 -41 -6 -60 46 -26 71 17 11 48 4 60 -15z m147 -4 c16 -45
-36 -85 -69 -52 -16 16 -15 65 1 71 32 14 58 6 68 -19z m6857 14 c19 -19 14
-56 -8 -68 -43 -23 -83 17 -60 60 12 22 49 27 68 8z m142 -3 c7 -9 10 -25 6
-40 -6 -22 -11 -26 -39 -23 -25 2 -33 8 -35 26 -7 44 41 70 68 37z m-9245
-113 c0 -18 -20 -15 -23 4 -3 10 1 15 10 12 7 -3 13 -10 13 -16z m11300 0 c0
-18 -20 -15 -23 4 -3 10 1 15 10 12 7 -3 13 -10 13 -16z m-9060 -36 c180 -84
220 -310 80 -452 -144 -145 -391 -93 -461 98 -69 187 63 377 261 378 53 0 82
-6 120 -24z m7046 -8 c104 -55 156 -152 146 -273 -5 -73 -25 -116 -80 -173
-76 -78 -204 -104 -304 -61 -236 100 -229 440 12 527 17 6 60 11 97 11 56 1
76 -4 129 -31z m-7501 -248 c0 -5 -5 -12 -11 -16 -14 -8 -33 11 -25 25 7 11
36 4 36 -9z m7740 -6 c0 -8 -7 -14 -15 -14 -15 0 -21 21 -9 33 10 9 24 -2 24
-19z m-7814 -45 c10 -17 -13 -36 -27 -22 -12 12 -4 33 11 33 5 0 12 -5 16 -11z
m7884 -15 c0 -8 -7 -14 -15 -14 -15 0 -21 21 -9 33 10 9 24 -2 24 -19z m-7800
-25 c0 -5 -7 -9 -15 -9 -15 0 -20 12 -9 23 8 8 24 -1 24 -14z m705 -14 c0 -22
-31 -33 -47 -17 -17 17 -1 44 24 40 15 -2 23 -10 23 -23z m6328 13 c7 -21 -4
-38 -23 -38 -23 0 -34 16 -26 35 7 18 43 20 49 3z m677 2 c0 -5 -4 -10 -10
-10 -5 0 -10 5 -10 10 0 6 5 10 10 10 6 0 10 -4 10 -10z m-7733 -71 c27 -11
68 -39 92 -62 212 -204 71 -557 -223 -557 -117 0 -216 55 -274 152 -114 191
-14 432 203 489 46 12 149 1 202 -22z m7980 6 c131 -54 204 -166 204 -308 0
-123 -73 -235 -186 -289 -123 -58 -274 -29 -373 73 -139 144 -106 396 66 496
91 54 202 64 289 28z m-7197 -30 c19 -23 8 -50 -20 -50 -19 0 -26 6 -28 24 -5
35 26 53 48 26z m6210 0 c26 -31 -18 -71 -47 -43 -12 12 -13 20 -4 37 14 25
34 27 51 6z m-6320 -15 c0 -13 -7 -20 -20 -20 -13 0 -20 7 -20 20 0 13 7 20
20 20 13 0 20 -7 20 -20z m6430 0 c0 -13 -7 -20 -20 -20 -13 0 -20 7 -20 20 0
13 7 20 20 20 13 0 20 -7 20 -20z m-7598 -105 c15 -33 -12 -75 -49 -75 -51 0
-81 54 -50 92 27 35 79 26 99 -17z m-457 19 c12 -12 13 -19 4 -30 -24 -29 -59
-5 -45 31 7 19 21 19 41 -1z m9281 -8 c23 -36 1 -80 -42 -84 -53 -5 -80 40
-54 89 16 29 75 26 96 -5z m394 9 c17 -20 5 -45 -20 -45 -11 0 -23 7 -26 15
-6 15 11 45 26 45 4 0 13 -7 20 -15z m-7977 -10 c85 -22 136 -51 198 -116 244
-248 106 -663 -239 -720 -213 -35 -421 103 -478 316 -83 311 207 601 519 520z
m6450 0 c85 -22 134 -51 199 -116 167 -167 167 -428 -1 -598 -168 -170 -432
-171 -602 -1 -167 166 -171 423 -8 595 108 114 262 159 412 120z m-7879 -21
c56 -56 18 -144 -62 -144 -52 0 -86 36 -85 87 2 76 93 111 147 57z m9221 1
c55 -54 16 -145 -61 -145 -54 0 -84 31 -84 86 0 34 5 47 26 63 37 29 89 27
119 -4z m-9425 -55 c0 -5 -4 -10 -10 -10 -5 0 -10 5 -10 10 0 6 5 10 10 10 6
0 10 -4 10 -10z m9530 0 c0 -5 -4 -10 -10 -10 -5 0 -10 5 -10 10 0 6 5 10 10
10 6 0 10 -4 10 -10z m-1160 -30 c0 -5 -2 -10 -4 -10 -3 0 -8 5 -11 10 -3 6
-1 10 4 10 6 0 11 -4 11 -10z m-8010 -60 c26 -26 25 -60 0 -88 -39 -42 -112
-14 -112 41 0 60 70 89 112 47z m8882 3 c39 -35 8 -113 -45 -113 -58 0 -89 69
-50 112 20 22 70 23 95 1z m-7202 -198 c0 -8 -7 -15 -15 -15 -8 0 -15 7 -15
15 0 8 7 15 15 15 8 0 15 -7 15 -15z m5458 -3 c2 -7 -3 -12 -12 -12 -9 0 -16
7 -16 16 0 17 22 14 28 -4z m-68 -52 c0 -5 -5 -10 -11 -10 -5 0 -7 5 -4 10 3
6 8 10 11 10 2 0 4 -4 4 -10z m-6386 -55 c13 -36 -24 -61 -52 -33 -7 7 -8 17
-1 30 12 22 45 24 53 3z m7471 -15 c0 -18 -6 -26 -23 -28 -24 -4 -38 18 -28
44 3 9 15 14 28 12 17 -2 23 -10 23 -28z m-6368 -1 c40 -15 71 -47 84 -86 24
-75 -42 -163 -123 -163 -75 0 -138 78 -124 154 9 47 33 74 81 91 49 17 48 17
82 4z m5282 1 c44 -12 78 -44 92 -87 9 -28 8 -43 -6 -78 -38 -102 -169 -114
-225 -22 -39 63 -14 148 53 181 38 19 42 19 86 6z m-6494 -43 c13 -10 16 -21
11 -41 -6 -24 -11 -27 -39 -24 -25 2 -33 8 -35 26 -4 25 13 52 32 52 7 0 20
-6 31 -13z m7690 0 c13 -10 16 -21 11 -41 -6 -24 -11 -27 -39 -24 -25 2 -33 8
-35 26 -4 25 13 52 32 52 7 0 20 -6 31 -13z m-7557 -59 c19 -19 14 -56 -8 -68
-38 -21 -80 22 -60 61 12 21 50 25 68 7z m7430 0 c19 -19 14 -56 -9 -68 -16
-9 -26 -8 -45 5 -27 17 -29 27 -14 56 12 21 50 25 68 7z m-6059 -147 c84 -43
128 -124 118 -219 -8 -75 -46 -129 -117 -165 -46 -24 -63 -28 -108 -24 -73 8
-130 42 -166 100 -91 148 8 326 182 327 33 0 67 -7 91 -19z m4822 -4 c54 -29
104 -99 113 -161 10 -65 -10 -122 -64 -177 -82 -85 -194 -91 -285 -17 -124
103 -92 308 57 368 45 18 132 11 179 -13z m-5250 -24 c16 -10 39 -36 50 -60
26 -54 18 -104 -26 -151 -27 -30 -39 -36 -86 -39 -66 -5 -107 17 -132 70 -32
66 -12 137 48 177 38 25 107 26 146 3z m5645 -15 c91 -84 47 -224 -74 -236
-114 -11 -185 91 -135 195 22 47 66 73 126 73 40 0 53 -5 83 -32z m-5031 -88
c3 -5 1 -10 -4 -10 -6 0 -11 5 -11 10 0 6 2 10 4 10 3 0 8 -4 11 -10z m4275 0
c0 -5 -5 -10 -11 -10 -5 0 -7 5 -4 10 3 6 8 10 11 10 2 0 4 -4 4 -10z m880 0
c0 -5 -2 -10 -4 -10 -3 0 -8 5 -11 10 -3 6 -1 10 4 10 6 0 11 -4 11 -10z
m-6102 -37 c-5 -26 -38 -29 -38 -4 0 15 6 21 21 21 14 0 19 -5 17 -17z m6190
0 c-2 -10 -10 -18 -18 -18 -8 0 -16 8 -18 18 -2 12 3 17 18 17 15 0 20 -5 18
-17z m-5148 -33 c11 -11 20 -31 20 -45 0 -29 -32 -65 -59 -65 -10 0 -31 10
-46 21 -22 18 -26 27 -21 53 11 55 67 75 106 36z m4154 1 c26 -29 18 -82 -16
-101 -25 -13 -31 -13 -55 0 -38 21 -45 81 -11 104 30 21 61 20 82 -3z m-5124
-6 c0 -8 -4 -15 -10 -15 -5 0 -10 7 -10 15 0 8 5 15 10 15 6 0 10 -7 10 -15z
m6027 -11 c-9 -9 -28 6 -21 18 4 6 10 6 17 -1 6 -6 8 -13 4 -17z m-4866 -101
c95 -57 60 -208 -51 -219 -55 -6 -86 9 -118 56 -34 50 -26 104 22 147 42 38
99 44 147 16z m3835 -17 c28 -28 34 -42 34 -75 0 -81 -51 -131 -131 -131 -47
0 -109 65 -109 114 0 78 49 125 129 126 36 0 49 -6 77 -34z m-4110 -24 c26
-17 36 -53 24 -83 -24 -56 -107 -50 -124 9 -8 28 -6 36 14 57 23 24 63 32 86
17z m4316 -9 c22 -20 23 -70 1 -95 -9 -10 -30 -18 -49 -18 -57 0 -85 69 -44
110 24 24 67 26 92 3z m-3872 -48 c15 -19 -3 -45 -31 -45 -23 0 -32 15 -24 40
7 24 37 26 55 5z m3395 -15 c0 -18 -6 -26 -23 -28 -24 -4 -38 18 -28 44 3 9
15 14 28 12 17 -2 23 -10 23 -28z m-3249 -55 c33 -33 30 -80 -8 -108 -58 -43
-135 17 -108 84 23 54 75 65 116 24z m3148 4 c52 -41 19 -129 -48 -129 -62 0
-89 90 -40 129 15 12 34 21 44 21 10 0 29 -9 44 -21z m-3330 -51 c8 -14 7 -21
-6 -34 -30 -30 -75 9 -48 42 16 18 39 15 54 -8z m516 -74 c85 -30 196 -65 245
-78 50 -14 81 -25 70 -25 -33 -1 -415 48 -542 70 l-62 11 14 28 c8 16 15 43
15 59 l0 31 53 -22 c28 -11 122 -45 207 -74z m2670 -8 c8 -11 9 -16 1 -16 -6
0 -50 -7 -98 -15 -102 -17 -478 -65 -508 -65 -11 1 23 12 75 26 114 30 364
113 440 147 l55 24 11 -43 c6 -23 16 -50 24 -58z m291 83 c9 -17 8 -24 -4 -36
-21 -22 -57 -8 -57 22 0 38 43 47 61 14z"/>
</g>
</svg>
