<?xml version="1.0" encoding="UTF-8" standalone="no"?>
<svg
   xmlns:dc="http://purl.org/dc/elements/1.1/"
   xmlns:cc="http://creativecommons.org/ns#"
   xmlns:rdf="http://www.w3.org/1999/02/22-rdf-syntax-ns#"
   xmlns:svg="http://www.w3.org/2000/svg"
   xmlns="http://www.w3.org/2000/svg"
   xmlns:sodipodi="http://sodipodi.sourceforge.net/DTD/sodipodi-0.dtd"
   xmlns:inkscape="http://www.inkscape.org/namespaces/inkscape"
   version="1.0"
   width="744.09448"
   height="1052.3622"
   viewBox="0 0 595.27559 841.88975"
   preserveAspectRatio="xMidYMid meet"
   id="svg2"
   inkscape:version="0.48.4 r9939"
   sodipodi:docname="DAHLIA_STENCIL.svg">
  <defs
     id="defs12" />
  <sodipodi:namedview
     pagecolor="#ffffff"
     bordercolor="#666666"
     borderopacity="1"
     objecttolerance="10"
     gridtolerance="10"
     guidetolerance="10"
     inkscape:pageopacity="0"
     inkscape:pageshadow="2"
     inkscape:window-width="640"
     inkscape:window-height="480"
     id="namedview10"
     showgrid="false"
     inkscape:zoom="0.76437247"
     inkscape:cx="237.23234"
     inkscape:cy="110.17067"
     inkscape:current-layer="g6" />
  <metadata
     id="metadata4">
Created by potrace 1.11, written by Peter Selinger 2001-2013
<rdf:RDF>
  <cc:Work
     rdf:about="">
    <dc:format>image/svg+xml</dc:format>
    <dc:type
       rdf:resource="http://purl.org/dc/dcmitype/StillImage" />
    <dc:title></dc:title>
  </cc:Work>
</rdf:RDF>
</metadata>
  <g
     transform="matrix(0.1,0,0,-0.1,0,841.88976)"
     id="g6"
     style="fill:#000000;stroke:none">
    <path
       d="m 1885.6462,6926.3982 c -37.7344,-39.0358 -98.8904,-148.3358 -136.6249,-248.5274 -49.4453,-132.7214 -80.6739,-303.1773 -85.8785,-474.9345 l -5.2048,-134.0225 -157.4441,2.6022 c -111.9024,2.6024 -165.2511,-1.3011 -178.2631,-13.0118 -15.6142,-13.0119 -19.5178,-49.4453 -16.9154,-186.0702 l 1.3012,-170.4559 -160.0464,-7.8072 c -88.4809,-5.2048 -201.68454,-15.6142 -251.12975,-24.7227 -163.94999,-29.9273 -350.02021,-109.2999 -433.29638,-186.0701 -40.33691,-36.4333 -37.73452,-84.5774 7.80714,-218.6 59.85475,-175.6607 152.23927,-322.6952 303.17734,-485.344 L 868.11544,4676.64 741.89999,4549.1234 c -70.26428,-70.2643 -127.51666,-134.0226 -127.51666,-141.8297 0,-9.1084 55.95119,-71.5655 124.91428,-140.5286 121.0107,-118.4083 124.91426,-124.9143 101.49284,-144.4322 C 797.85117,4085.8997 659.92499,3923.2509 609.17858,3847.7818 535.01073,3739.783 458.24049,3570.6283 437.42146,3467.8343 415.30121,3359.8355 417.9036,3353.3296 537.61311,3280.4629 687.24999,3190.6807 905.84997,3133.4284 1136.1606,3126.9224 l 160.0465,-5.2047 0,-175.6607 c 1.3011,-96.2881 5.2047,-179.5643 9.1083,-184.7691 5.2047,-3.9035 85.8785,-9.1083 179.5643,-10.4095 l 170.4559,-2.6024 6.5059,-130.119 c 13.012,-283.6595 93.6857,-560.8131 199.0821,-681.8237 l 50.7464,-58.5536 91.0834,16.9155 c 183.4678,32.5297 418.9833,170.4559 607.6558,355.225 l 76.7703,75.4689 123.613,-130.119 c 66.3608,-71.5654 132.7215,-130.119 144.4322,-130.119 22.1202,0 180.8654,147.0345 239.419,222.5036 l 29.9274,39.0357 97.5893,-92.3846 c 104.0952,-98.8904 258.9369,-208.1904 382.5499,-270.6476 92.3845,-45.5416 252.4309,-87.1796 296.6714,-75.4689 41.6381,10.4094 115.8059,122.3118 163.95,248.5273 46.8429,124.9143 78.0714,290.1654 88.4809,477.5368 l 7.8072,140.5286 169.1547,-1.3012 c 92.3846,0 171.7572,3.9036 176.9619,7.8071 3.9036,5.2048 7.8071,88.481 9.1084,186.0702 l 1.3011,178.2631 57.2524,-2.6024 c 162.6488,-5.2048 437.1999,35.1322 508.7654,74.1678 13.0119,7.8072 32.5298,13.012 45.5416,13.012 29.9275,0 184.7691,85.8785 229.0095,127.5166 32.5298,31.2286 36.4334,41.6381 28.6262,91.0833 -11.7107,80.6739 -66.3606,231.6119 -107.9988,300.5751 -57.2523,96.288 -59.8547,100.1916 -87.1797,139.2273 -35.1321,53.3488 -175.6607,214.6964 -213.3952,247.2261 l -31.2286,26.0238 118.4084,114.5048 c 65.0595,63.7583 122.3118,126.2154 127.5166,141.8297 6.5059,20.8191 -16.9155,50.7465 -121.0107,152.2393 l -128.8178,126.2154 100.1916,105.3965 c 106.6976,111.9023 149.6369,171.7571 225.106,304.4785 55.9511,101.4928 111.9023,266.7441 111.9023,333.1047 0,44.2405 -6.5059,52.0476 -81.975,102.794 -157.4441,105.3965 -413.7785,173.0584 -662.3059,173.0584 l -126.2155,0 0,178.2631 c 0,130.119 -5.2046,180.8654 -16.9154,188.6725 -9.1083,5.2048 -88.4809,10.4096 -175.6607,9.1083 l -160.0464,-1.3011 -5.2047,147.0345 c -6.506,166.5524 -41.6382,351.3214 -92.3846,485.344 -42.9393,113.2036 -119.7095,226.4071 -161.3476,238.1178 -40.3369,10.4095 -218.5999,-40.3369 -320.0928,-91.0833 -121.0107,-61.1559 -308.3821,-202.9857 -403.369,-305.7798 l -44.2404,-48.144 -119.7096,121.0107 c -91.0833,91.0833 -127.5167,119.7095 -154.8416,119.7095 -26.0238,0 -61.156,-27.3249 -148.3357,-117.1071 -62.4572,-63.7583 -118.4084,-117.1071 -126.2154,-117.1071 -6.5061,0 -18.2168,11.7107 -27.3251,26.0238 -18.2166,28.6262 -223.8047,208.1904 -238.1178,208.1904 -5.2048,0 -26.0238,14.3132 -46.8429,31.2286 -61.1559,52.0476 -217.2988,124.9143 -321.3939,152.2392 -117.1072,29.9275 -137.9262,29.9275 -162.6489,6.5061 z m 199.0822,-55.9512 c 76.7702,-24.7227 219.9011,-96.2881 236.8166,-117.1072 7.8071,-9.1083 19.5178,-16.9155 27.325,-16.9155 19.5179,0 189.9738,-140.5285 258.9368,-214.6963 59.8549,-62.4572 59.8549,-65.0595 37.7346,-91.0834 -44.2405,-50.7465 -121.0107,-176.9619 -163.95,-271.9488 l -44.2405,-96.2881 -85.8785,31.2286 c -46.8429,16.9155 -91.0833,31.2286 -96.2881,31.2286 -15.6143,0 -76.7702,-96.2881 -87.1797,-135.3239 -3.9036,-18.2166 -13.012,-33.8308 -18.2167,-33.8308 -5.2047,0 -70.2643,19.5178 -144.4321,44.2404 -74.1679,24.7226 -170.456,48.144 -212.094,52.0477 -42.9394,3.9035 -80.6739,11.7107 -84.5774,15.6142 -11.7107,11.7107 -2.6024,290.1655 11.7107,370.8392 29.9273,163.95 107.9988,357.8274 179.5642,443.7059 22.1203,26.0238 85.8786,22.1203 184.7691,-11.7106 z m 1925.7616,18.2166 c 40.337,-31.2286 115.806,-187.3714 149.6369,-308.3821 36.4333,-128.8178 68.9632,-424.1881 54.6501,-484.0428 -7.8072,-29.9273 -18.2168,-35.1321 -102.7941,-48.1441 -52.0476,-7.8071 -149.6369,-31.2285 -217.2988,-53.3488 -67.6619,-20.819 -123.613,-37.7345 -124.9143,-35.1321 -1.3011,1.3012 -22.1202,39.0358 -46.8428,84.5774 -24.7226,45.5417 -52.0477,80.6738 -63.7584,80.6738 -11.7107,0 -58.5536,-14.3131 -102.794,-32.5298 l -81.975,-31.2285 -7.8071,28.6262 c -16.9155,63.7582 -173.0583,333.1047 -200.3833,344.8154 -24.7227,10.4095 -5.2048,42.9393 71.5655,117.1071 44.2404,42.9393 94.9868,91.0833 113.2036,104.0952 158.7452,121.0108 335.707,213.3952 448.9105,234.2143 87.1798,16.9155 88.4811,16.9155 110.6012,-1.3012 z m -952.4712,-271.9488 c 84.5773,-80.6737 171.757,-188.6726 270.6475,-335.707 33.8309,-50.7465 109.3,-205.5881 109.3,-225.106 0,-3.9035 -31.2286,-26.0238 -67.6619,-49.4453 -111.9024,-70.2642 -162.6487,-114.5047 -221.2023,-195.1785 -29.9274,-42.9393 -61.156,-76.7702 -68.9632,-76.7702 -7.807,0 -35.1321,18.2167 -61.1559,39.0357 -54.6499,44.2405 -74.1678,41.6381 -137.9262,-18.2166 l -41.6381,-39.0358 -19.5178,27.3251 c -78.0714,110.6011 -183.4678,210.7928 -288.8643,273.2499 -31.2285,18.2167 -55.9511,35.1322 -55.9511,39.0357 0,11.7107 100.1916,206.8893 132.7213,257.6357 75.4691,118.4083 327.9,402.0678 350.0203,394.2606 5.2047,-2.6024 50.7464,-42.9393 100.1917,-91.0833 z m 650.5951,-624.5714 c 59.8548,-126.2154 87.1797,-247.2261 85.8786,-381.2486 -1.3012,-63.7584 -7.8072,-132.7215 -15.6144,-150.9382 -13.0118,-31.2286 -20.819,-33.8309 -122.3118,-40.3369 -128.8178,-9.1083 -240.7202,-48.144 -296.6715,-104.0952 -22.1201,-22.1203 -42.9392,-37.7345 -45.5416,-35.1321 -2.6024,3.9035 -6.5059,39.0357 -10.4095,80.6737 -3.9036,54.6501 -15.6143,92.3846 -46.8429,140.5286 -22.1202,36.4334 -40.3368,71.5655 -40.3368,78.0715 0,6.5059 -3.9037,11.7107 -9.1083,11.7107 -6.5061,0 -29.9275,23.4214 -53.3489,52.0476 l -42.9393,52.0476 39.0357,57.2524 c 61.156,88.4809 162.6489,180.8654 252.431,229.0095 81.9749,44.2404 243.3226,104.0952 257.6357,96.2881 5.2047,-2.6024 26.0238,-41.6382 48.144,-85.8787 z m -1335.0212,53.3489 c 44.2404,-14.3131 96.288,-36.4334 114.5047,-49.4452 18.2167,-11.7107 49.4452,-29.9275 70.2642,-40.3369 48.1441,-24.7226 199.0821,-175.6608 225.106,-225.106 16.9155,-33.8309 16.9155,-40.3368 -5.2048,-65.0595 -13.0119,-15.6143 -27.325,-31.2286 -31.2285,-35.1321 -3.9037,-3.9036 -29.9274,-39.0357 -57.2525,-78.0714 -54.6499,-78.0715 -84.5773,-160.0465 -84.5773,-232.9131 l 0,-45.5416 -41.6381,39.0356 c -66.3607,62.4571 -167.8535,97.5893 -301.8762,107.9988 l -118.4083,7.8071 -7.8071,39.0358 c -19.5178,89.7821 -11.7108,271.9487 15.6143,369.5381 31.2285,113.2035 96.2881,235.5154 123.6131,235.5154 10.4094,0 54.6499,-11.7107 98.8905,-27.325 z m -601.15,-32.5298 c 67.6619,-10.4095 141.8297,-24.7226 162.6488,-31.2285 22.1203,-6.506 63.7583,-18.2167 94.9869,-27.325 98.8904,-28.6262 100.1917,-31.2286 74.1678,-148.3357 -16.9155,-76.7703 -20.819,-136.6251 -16.9155,-240.7202 l 6.506,-139.2274 -59.8547,-11.7107 -59.8548,-11.7107 -6.506,-71.5655 c -5.2047,-62.4571 -9.1083,-71.5655 -32.5297,-67.6619 -102.7941,18.2166 -294.069,15.6142 -374.7428,-2.6024 -49.4452,-11.7107 -91.0833,-20.819 -93.6857,-20.819 -14.3131,0 -40.3369,71.5655 -75.4691,201.6845 -33.831,124.9142 -39.0356,171.7571 -44.2404,366.9357 l -6.506,222.5035 37.7346,5.2047 c 71.5654,7.8072 271.9487,-3.9035 394.2606,-23.4214 z m 2801.4627,11.7107 c 20.8191,-13.0119 0,-351.3213 -29.9273,-495.7534 -27.3251,-136.6251 -70.2643,-269.3465 -91.0833,-282.3584 -6.506,-3.9036 -44.2405,2.6024 -85.8786,13.0119 -84.5774,22.1202 -269.3464,26.0239 -350.0202,6.506 -28.6261,-6.506 -53.3488,-10.4095 -54.65,-7.8072 -2.6024,1.3012 -7.8071,32.5297 -11.7107,67.6619 -9.1083,72.8667 -31.2286,96.2881 -88.4809,96.2881 l -40.3369,0 3.9035,158.7452 c 3.9035,117.1071 0,182.1666 -15.6143,239.4191 -11.7107,44.2404 -20.819,84.5774 -20.819,88.4809 0,11.7107 106.6976,55.9512 152.2393,63.7584 19.5178,3.9035 76.7702,16.9153 126.2155,28.6261 156.1428,36.4333 461.9225,50.7465 506.1629,23.4214 z M 3094.4521,5651.2316 c 161.3476,-160.0464 208.1904,-301.8762 154.8416,-463.2238 -22.1203,-66.3606 -24.7226,-68.963 -117.1071,-110.6011 -61.156,-28.6262 -107.9988,-59.8548 -132.7214,-89.7822 -19.5179,-26.0238 -39.0358,-46.8428 -42.9393,-46.8428 -3.9036,0 -18.2167,16.9155 -29.9274,39.0358 -15.6142,26.0237 -55.9512,53.3487 -132.7214,89.782 l -107.9988,52.0477 -20.819,71.5654 c -50.7464,175.6607 -7.8072,295.3702 171.757,471.0309 128.8179,127.5167 115.806,127.5167 257.6358,-13.0119 z m -1819.0641,10.4096 c 36.4333,-7.8072 39.0357,-11.7108 53.3488,-107.9989 14.3131,-93.6857 55.9512,-240.7202 80.6738,-290.1654 18.2166,-35.1322 14.3131,-41.6381 -29.9274,-61.156 -23.4214,-10.4094 -63.7583,-32.5297 -89.7821,-49.4451 l -48.144,-31.2286 19.5178,-74.1679 c 10.4095,-40.3369 20.8191,-85.8786 24.7226,-100.1917 5.2048,-22.1202 -10.4095,-33.8309 -94.9868,-74.1678 -55.9512,-26.0238 -141.8298,-74.1678 -189.9739,-106.6976 -49.44522,-32.5297 -93.68565,-59.8548 -98.8904,-59.8548 -3.90358,0 -18.21667,10.4096 -29.92738,23.4214 -13.01191,11.7107 -40.33691,40.3369 -62.45714,61.156 -139.22736,134.0226 -284.96068,383.8512 -321.39401,547.8011 l -22.12023,100.1917 35.13214,27.325 c 48.14404,39.0357 186.07021,106.6976 262.84044,130.1191 178.26304,53.3487 417.68208,83.2761 511.36778,65.0595 z m 3704.4888,-24.7227 c 153.5405,-31.2285 238.1178,-57.2523 325.2976,-100.1917 141.8297,-70.2642 156.1428,-97.5892 115.806,-230.3106 -19.5179,-68.9631 -93.6857,-235.5154 -109.3001,-248.5274 -5.2047,-3.9035 -29.9273,-40.3369 -55.9511,-81.975 -27.325,-40.3369 -91.0834,-119.7095 -144.4322,-175.6607 -75.469,-76.7702 -101.4928,-97.5892 -115.8058,-87.1797 -100.1918,70.2643 -200.3834,130.119 -279.756,165.2512 -80.6738,36.4333 -93.6857,46.8428 -85.8786,68.963 3.9036,14.3131 16.9155,57.2524 27.325,96.2881 19.5179,70.2643 19.5179,71.5655 -11.7107,93.6857 -22.1202,18.2167 -124.9142,75.4691 -150.9381,84.5774 -1.3011,1.3012 14.3131,49.4453 36.4333,109.3 20.8191,59.8548 45.5417,153.5405 53.3489,206.8893 7.8071,54.6499 16.9154,105.3964 19.5178,114.5047 5.2048,22.1202 242.0215,13.0119 376.044,-15.6143 z M 2373.5927,5364.9698 c 126.2154,-31.2286 205.588,-96.2881 261.5392,-219.9012 19.5178,-44.2405 19.5178,-52.0476 2.6024,-79.3726 -31.2286,-46.8429 -61.156,-161.3476 -57.2524,-218.6 l 3.9035,-52.0476 -70.2643,-2.6024 c -41.638,-1.3012 -105.3963,-16.9155 -149.6369,-35.1321 -75.4689,-31.2286 -81.9749,-31.2286 -123.613,-11.7107 -88.481,39.0357 -153.5405,96.2881 -187.3713,162.6487 -32.5299,65.0595 -58.5536,213.3953 -52.0477,305.7797 1.3012,24.7227 3.9036,70.2643 3.9036,100.1917 1.3012,40.3369 7.8071,55.9513 24.7226,59.8548 49.4452,13.0119 274.5511,6.5059 343.5143,-9.1083 z m 1519.7902,5.2048 c 15.6143,-9.1085 19.5179,-45.5418 18.2166,-186.0703 0,-165.2512 -2.6023,-178.2631 -37.7344,-251.1297 -20.8191,-41.6382 -54.65,-92.3846 -76.7703,-113.2036 -50.7464,-48.144 -165.2512,-102.794 -183.4678,-88.4809 -31.2286,24.7225 -189.9738,68.963 -231.6119,63.7583 l -44.2404,-5.2048 -1.3012,66.3607 c 0,62.4572 -23.4214,144.4322 -61.156,215.9976 -16.9155,29.9274 -15.6143,39.0357 6.506,84.5774 28.6262,54.6499 102.794,137.9262 152.2393,170.4559 16.9155,11.7107 65.0595,28.6262 105.3964,36.4333 88.4809,19.5179 326.5987,24.7227 353.9237,6.5061 z M 1929.8867,5221.8388 c 14.3131,-6.5059 24.7227,-41.6381 35.1321,-122.3119 19.5179,-141.8297 46.8429,-217.2988 102.7941,-275.8524 23.4214,-26.0237 42.9393,-49.4451 42.9393,-52.0475 0,-3.9036 -36.4333,-7.8072 -79.3726,-9.1083 -85.8786,-2.6024 -170.456,-42.9393 -260.2381,-124.9143 -106.6976,-96.2881 -91.0833,-91.0834 -148.3357,-50.7464 -53.3488,36.4333 -183.4679,163.95 -210.7928,205.588 -39.0357,57.2524 -74.1678,134.0226 -102.7941,217.2988 l -29.9273,88.4809 61.1559,39.0357 c 33.8309,20.8191 102.7941,50.7464 152.2393,65.0595 50.7464,15.6144 97.5893,29.9275 104.0952,32.5298 20.819,7.8071 309.6833,-2.6023 333.1047,-13.0119 z m 2441.0331,-2.6024 c 84.5774,-19.5179 264.1416,-102.794 264.1416,-122.3119 0,-3.9035 -13.0119,-46.8429 -29.9273,-93.6856 -61.156,-175.6607 -186.0703,-342.2131 -314.8882,-418.9833 l -50.7464,-31.2286 -53.3488,50.7464 c -110.6012,107.9988 -268.0451,180.8655 -351.3214,163.95 -40.3368,-6.506 -41.638,10.4095 -2.6024,35.1321 57.2525,37.7345 107.9988,169.1548 121.0108,313.5869 l 9.1083,96.2881 53.3488,13.0118 c 85.8786,18.2168 258.9369,15.6144 355.225,-6.5059 z m -1606.97,-174.3594 c 100.1916,-37.7346 148.3356,-85.8787 158.7452,-161.3476 9.1083,-57.2525 6.5059,-67.6619 -27.3251,-110.6013 -20.819,-26.0238 -42.9392,-58.5535 -48.144,-71.5654 -6.5059,-19.5179 -11.7107,-22.1203 -23.4214,-10.4096 -9.1083,9.1084 -39.0357,15.6143 -67.6619,15.6143 -128.8179,1.3012 -180.8655,150.9381 -105.3964,299.2738 18.2166,36.4334 35.1321,65.0596 39.0356,65.0596 2.6024,0 36.4334,-11.7107 74.168,-26.0238 z m 507.4641,-50.7465 c 59.8548,-135.3238 18.2168,-278.4547 -81.975,-284.9607 -24.7226,-1.3012 -59.8547,-6.5059 -79.3726,-10.4095 -20.819,-3.9035 -36.4333,-2.6024 -36.4333,3.9036 0,6.5059 -20.819,36.4333 -46.8428,67.6618 -42.9394,49.4453 -46.8429,58.5536 -37.7346,111.9024 6.506,48.1441 18.2167,66.3608 65.0595,105.3964 55.9512,45.5417 157.4441,87.1798 179.5644,74.1679 6.5059,-3.9036 23.4213,-33.8309 37.7344,-67.6619 z M 1356.0618,4818.4699 c 52.0476,-92.3846 139.2273,-188.6727 219.9012,-243.3226 36.4333,-24.7227 66.3606,-50.7465 66.3606,-58.5536 0,-7.8072 -14.313,-27.3251 -32.5297,-44.2405 -42.9392,-40.3369 -41.6381,-61.1559 10.4095,-114.5047 39.0357,-41.6381 40.337,-45.5417 16.9155,-59.8548 -111.9023,-66.3607 -284.9606,-256.3345 -312.2857,-342.213 -5.2047,-16.9155 -14.3131,-29.9274 -18.2166,-29.9274 -14.3132,0 -196.4798,93.6856 -257.6357,134.0225 -121.0107,75.4691 -382.54995,313.5869 -382.54995,346.1167 0,26.0238 229.0095,242.0214 330.50235,312.2856 87.1797,59.8548 282.3583,166.5524 309.6833,169.1548 3.9035,1.3012 27.3249,-29.9274 49.4452,-68.963 z m 3354.4687,23.4214 c 160.0463,-76.7703 355.2249,-225.106 485.3439,-368.2369 l 66.3607,-72.8667 -131.4202,-126.2155 c -140.5285,-132.7214 -292.7678,-242.0213 -430.694,-308.3821 -75.4691,-36.4333 -85.8785,-37.7345 -97.5892,-19.5178 -97.5893,157.444 -209.4917,282.3583 -303.1775,337.0082 l -39.0356,23.4215 44.2404,58.5535 44.2405,58.5536 -41.6381,45.5417 -40.3369,46.8429 42.9393,33.8309 c 123.6131,93.6857 240.7202,227.7083 275.8524,314.8881 5.2047,13.0119 13.0118,23.4214 18.2166,23.4214 5.2048,0 53.3488,-20.8191 106.6977,-46.8428 z m -1675.9332,-163.95 c 0,-33.831 -52.0476,-114.5048 -74.1679,-114.5048 -27.325,0 -68.963,67.6619 -68.963,113.2035 0,29.9274 10.4094,54.6501 33.8309,78.0715 l 35.1321,35.1321 36.4334,-41.638 c 20.819,-23.4215 37.7345,-54.6501 37.7345,-70.2643 z m -411.1761,42.9392 c 20.819,-19.5178 32.5298,-48.144 37.7345,-89.7821 2.6023,-33.831 10.4095,-70.2643 14.313,-81.975 6.5061,-14.3131 -1.3011,-24.7226 -26.0237,-36.4334 -19.5179,-7.807 -45.5417,-29.9273 -59.8548,-46.8427 -27.325,-35.1322 -61.156,-37.7345 -131.4202,-9.1084 -84.5773,35.1321 -171.7571,208.1904 -122.3119,247.2262 70.2643,57.2523 234.2142,66.3606 287.5631,16.9154 z m 925.1463,0 c 32.5298,-14.3131 58.5536,-33.8309 58.5536,-44.2405 0,-32.5297 -79.3726,-176.9618 -111.9024,-202.9856 -18.2167,-14.3131 -55.9512,-28.6262 -84.5774,-33.8309 -49.4452,-9.1084 -57.2524,-5.2048 -101.4929,37.7344 -26.0238,26.0238 -54.6499,46.8429 -62.4571,46.8429 -10.4095,0 -11.7107,11.7107 -2.6024,41.6381 6.506,23.4215 11.7108,61.1559 11.7108,83.2762 0,100.1916 145.7333,136.625 292.7678,71.5654 z m -1328.5154,-14.3131 c 20.8191,-10.4095 42.9394,-28.6261 48.1441,-39.0357 20.8191,-42.9392 50.7464,-115.8059 50.7464,-126.2154 0,-5.2048 23.4215,-35.1322 52.0477,-66.3607 l 53.3488,-55.9512 -52.0477,-58.5535 c -28.6262,-32.5298 -61.1559,-87.1798 -74.1678,-123.6132 -28.6262,-78.0714 -42.9393,-91.0833 -121.0107,-111.9024 -115.806,-31.2285 -230.3107,-10.4094 -326.5988,59.8549 -71.5655,50.7463 -221.2023,213.3951 -221.2023,239.4189 0,39.0358 193.8773,218.6 287.563,266.744 75.4691,39.0357 92.3845,42.9394 174.3595,39.0357 50.7465,-2.6023 107.9988,-13.0118 128.8178,-23.4214 z m 1796.9439,-20.819 c 68.9631,-37.7345 279.756,-238.1179 279.756,-265.4428 0,-24.7226 -156.143,-180.8655 -234.2143,-234.2143 -122.312,-81.975 -195.1786,-94.9869 -333.1048,-58.5536 -40.3368,10.4096 -75.469,20.8191 -76.7702,22.1203 -1.3012,2.6024 -18.2167,42.9392 -37.7346,89.7821 -20.819,48.1441 -55.9511,106.6977 -80.6737,132.7215 l -44.2405,44.2404 46.8429,50.7464 c 45.5416,46.8429 96.2881,143.131 96.2881,180.8655 0,48.144 109.3,87.1797 227.7082,79.3726 68.9632,-3.9036 106.6976,-13.0119 156.1429,-41.6381 z m -800.232,-68.9631 c 0,-71.5654 -39.0358,-107.9988 -107.9988,-102.794 -52.0477,3.9035 -54.6501,5.2048 -50.7464,42.9393 7.807,74.1678 31.2285,104.0952 87.1796,110.6011 67.6619,10.4096 71.5656,7.8072 71.5656,-50.7464 z m -382.55,18.2167 c 11.7107,-16.9155 22.1202,-50.7464 23.4214,-74.1679 1.3012,-40.3369 -1.3012,-42.9393 -46.8429,-46.8428 -65.0595,-5.2048 -114.5047,40.3369 -114.5047,107.9988 0,45.5416 0,45.5416 58.5535,45.5416 46.8429,0 61.156,-6.5059 79.3727,-32.5297 z m 152.2392,-139.2274 c 65.0595,-33.831 78.0715,-88.4809 32.5298,-136.625 -35.1322,-37.7345 -84.5773,-37.7345 -123.6131,-1.3011 -41.6381,39.0356 -37.7345,79.3726 10.4096,119.7094 45.5416,39.0358 44.2404,39.0358 80.6737,18.2167 z m 300.5751,-42.9393 c 44.2404,-37.7345 37.7345,-63.7583 -23.4215,-92.3844 -49.4452,-24.7227 -92.3845,-18.2168 -135.3238,18.2166 -37.7345,32.5298 -36.4333,46.8429 7.8071,75.4691 70.2643,49.4451 92.3846,48.144 150.9382,-1.3013 z m -504.8619,2.6024 c 40.3368,-35.1321 36.4333,-61.1559 -13.0119,-94.9868 -66.3607,-42.9394 -196.4798,16.9154 -160.0464,74.1678 35.1321,55.9512 121.0107,65.0595 173.0583,20.819 z M 2567.47,4374.7639 c 24.7226,-18.2167 58.5536,-41.6381 76.7702,-53.3488 32.5298,-20.8191 32.5298,-26.0238 22.1202,-88.4809 -6.5059,-36.4333 -14.3131,-74.1679 -16.9154,-81.975 -7.8072,-29.9274 -88.481,-68.9631 -139.2274,-68.9631 -44.2405,0 -166.5524,41.6381 -195.1785,65.0595 -11.7107,10.4095 23.4214,100.1917 62.4571,165.2512 20.819,32.5297 104.0952,91.0833 137.9262,93.6857 3.9035,1.3012 27.3249,-13.0119 52.0476,-31.2286 z m 918.6403,-6.506 c 32.5298,-20.819 121.0108,-163.95 121.0108,-197.7809 0,-29.9273 -101.4929,-75.469 -189.9738,-84.5773 -59.8548,-6.506 -76.7703,-2.6024 -115.8059,23.4214 -40.337,27.3249 -45.5417,37.7345 -45.5417,87.1798 0,31.2285 -5.2048,67.6619 -13.0119,80.6737 -10.4096,19.5179 -7.8072,26.0238 11.7107,32.5298 14.313,3.9036 48.144,27.325 74.1678,50.7465 40.337,36.4332 54.65,41.638 88.481,33.8309 22.1202,-5.2048 53.3487,-16.9155 68.963,-26.0239 z m -633.6796,-107.9988 c 0,-59.8547 -20.819,-89.7821 -74.1679,-105.3963 -54.65,-16.9155 -81.975,1.3011 -81.975,55.9512 0,66.3606 40.3369,101.4928 121.0108,104.0952 32.5297,1.3012 35.1321,-2.6024 35.1321,-54.6501 z m 325.2975,36.4334 c 33.831,-18.2166 39.0358,-27.325 39.0358,-78.0715 0,-65.0595 -11.7107,-76.7702 -66.3608,-65.0595 -55.9511,13.012 -89.782,54.6501 -89.782,113.2036 0,46.8429 2.6022,49.4453 39.0356,49.4453 22.1202,0 57.2524,-9.1084 78.0714,-19.5179 z m -176.9619,-50.7464 c 18.2167,-24.7227 33.831,-58.5536 33.831,-74.1679 0,-39.0357 -49.4452,-115.8059 -75.469,-115.8059 -26.0239,0 -80.6738,75.4691 -80.6738,111.9024 0,27.3249 59.8547,122.3119 76.7702,122.3119 6.506,0 26.0238,-19.5179 45.5416,-44.2405 z m -1242.6367,-31.2286 c 92.3845,-85.8785 214.6964,-145.7333 292.7679,-145.7333 l 62.4571,0 -44.2405,-50.7464 c -58.5536,-68.9631 -89.7822,-157.4441 -97.5892,-283.6596 -5.2048,-63.7582 -14.3131,-113.2035 -24.7227,-121.0106 -24.7226,-20.8191 -273.25,-31.2285 -360.4298,-14.3131 -83.2761,15.6143 -251.1296,83.2762 -284.9606,117.1071 -20.8191,19.5179 -20.8191,26.0238 7.8071,106.6977 59.8548,173.0583 167.8536,320.0928 297.9727,408.5737 37.7344,24.7226 71.5654,45.5416 75.4689,45.5416 3.9037,0 37.7346,-28.6262 75.4691,-62.4571 z m 2538.6224,23.4214 c 72.8665,-46.8428 187.3713,-167.8535 238.1178,-251.1297 40.3368,-66.3607 104.0951,-242.0214 94.9868,-264.1417 -6.5059,-15.6142 -96.2881,-61.1558 -195.1785,-97.5892 -75.469,-28.6262 -282.3584,-42.9392 -391.6583,-28.6262 l -78.0714,10.4095 -10.4095,78.0715 c -22.1203,174.3595 -50.7464,265.4428 -102.7941,323.9963 l -48.144,55.9512 74.1678,7.8072 c 88.481,7.8071 222.5036,78.0714 297.9726,154.8416 26.0238,27.325 50.7465,49.4452 54.65,49.4452 2.6024,0 32.5298,-18.2166 66.3608,-39.0357 z M 2882.3581,4072.8878 c 89.782,-98.8905 62.4571,-196.4797 -70.2643,-262.8405 -44.2405,-22.1202 -91.0833,-40.3369 -102.7941,-40.3369 -33.831,0 -83.2761,122.3119 -84.5774,204.2869 0,91.0833 46.8429,143.131 135.3238,150.938 32.5298,2.6024 63.7584,3.9037 67.6619,3.9037 3.9037,-1.3013 28.6262,-26.0238 54.6501,-55.9512 z m 296.6713,48.144 c 40.337,0 52.0477,-7.8072 81.975,-49.4453 23.4215,-33.8308 33.8309,-66.3606 33.8309,-104.0951 0,-66.3608 -61.1558,-197.781 -91.0833,-197.781 -11.7107,0 -58.5536,18.2167 -102.794,40.3369 -87.1797,44.2405 -118.4083,85.8785 -118.4083,158.7452 0,59.8548 84.5774,169.1548 123.6131,158.7452 14.3131,-2.6024 46.8428,-6.5059 72.8666,-6.5059 z M 920.16306,4108.0199 c 11.71072,-19.5179 186.07024,-130.1191 283.65944,-178.2631 49.4453,-24.7226 84.5774,-50.7464 79.3726,-57.2524 -13.0118,-22.1202 -42.9392,-160.0463 -36.4333,-170.4559 3.9036,-5.2047 41.6381,-27.325 83.2762,-50.7464 42.9393,-22.1202 78.0714,-49.4453 78.0714,-59.8547 0,-10.4096 -14.3131,-61.156 -31.2286,-111.9024 -16.9155,-52.0476 -37.7345,-134.0226 -46.8428,-184.769 -24.7226,-147.0345 -16.9155,-136.625 -114.5048,-136.625 -270.64754,0 -598.54749,89.7821 -719.55818,197.7809 l -35.13215,29.9274 19.51786,91.0833 c 36.43333,176.9619 137.92618,348.719 334.40592,560.8131 78.07142,84.5772 91.08332,93.6857 105.39641,70.2642 z m 1432.61044,-22.1202 c 52.0477,-28.6263 79.3727,-35.1322 154.8417,-36.4333 l 91.0833,0 1.3013,-91.0834 c 0,-65.0596 9.1083,-110.6012 29.9273,-157.444 l 28.6262,-65.0595 -32.5297,-65.0595 c -42.9393,-85.8787 -102.794,-139.2274 -196.4798,-174.3596 -65.0596,-24.7226 -105.3964,-29.9273 -236.8166,-31.2285 -87.1798,-1.3012 -162.6488,3.9036 -169.1548,9.1083 -18.2166,18.2167 -11.7107,334.406 7.8072,402.0679 22.1203,78.0713 87.1798,153.5404 174.3594,204.2868 36.4334,22.1203 71.5656,40.3369 75.4691,40.3369 5.2048,0 36.4334,-15.6143 71.5654,-35.1321 z m 1353.238,-3.9036 c 153.5405,-87.1798 200.3834,-189.9738 200.3834,-442.4047 l 0,-165.2512 -48.1441,-9.1083 c -128.8179,-20.819 -308.3822,-1.3012 -409.8749,44.2405 -67.6619,29.9273 -113.2036,76.7702 -158.7452,162.6487 l -33.831,65.0595 35.1321,84.5774 c 23.4214,54.6501 35.1321,109.3 35.1321,156.1428 l 1.3012,71.5656 84.5774,1.3011 c 65.0595,1.3013 102.794,10.4096 150.9381,35.1322 35.1322,19.5178 66.3607,33.831 70.2643,33.831 3.9035,1.3011 36.4333,-15.6144 72.8666,-37.7346 z m 1355.8403,-1.3012 c 160.0465,-140.5286 331.8035,-416.3809 372.1405,-595.9452 20.819,-91.0833 20.819,-97.5892 -1.3013,-121.0107 -42.9392,-48.144 -221.2023,-126.2154 -364.3333,-161.3476 -96.288,-23.4214 -189.9737,-35.1321 -299.2738,-39.0357 l -158.7452,-5.2047 -7.807,61.1559 c -13.012,91.0833 -45.5417,222.5036 -72.8667,294.069 -14.3131,33.831 -24.7226,70.2643 -24.7226,79.3726 0,10.4096 33.8309,35.1322 74.1678,54.6501 101.4928,52.0475 107.9989,66.3606 74.1679,161.3476 l -27.325,78.0713 104.0952,52.0477 c 106.6976,54.65 248.5274,145.7333 262.8405,169.1547 11.7107,19.5178 18.2166,16.9154 68.963,-27.325 z m -2049.3747,-252.431 c 29.9273,-26.0238 87.1797,-58.5535 128.8178,-74.1678 84.5774,-29.9273 105.3964,-58.5535 126.2155,-170.4559 27.3249,-150.938 -48.144,-283.6595 -270.6476,-480.1393 l -42.9393,-37.7344 -39.0357,36.4333 c -256.3345,244.6237 -312.2856,370.8392 -247.2261,555.6082 22.1201,61.156 27.3249,66.3608 96.2881,88.481 42.9392,14.3131 97.5892,46.8428 130.119,75.469 31.2285,28.6262 58.5535,50.7464 59.8547,52.0477 2.6024,0 28.6262,-20.8191 58.5536,-45.5418 z M 1560.3487,3566.7247 c 87.1797,-20.819 308.3821,-19.5178 376.044,1.3012 24.7226,7.8071 28.6261,2.6024 35.1322,-52.0476 6.5059,-68.9631 22.1201,-84.5774 81.975,-84.5774 l 40.3368,0 -6.506,-169.1547 c -5.2047,-132.7215 -1.3011,-189.9738 16.9155,-261.5393 11.7108,-50.7464 19.5178,-93.6856 16.9155,-94.9869 -1.3012,-2.6024 -36.4333,-16.9155 -78.0714,-31.2286 -128.8179,-48.144 -353.9238,-84.5773 -530.8857,-85.8785 l -161.3476,-1.3011 -10.4095,58.5535 c -16.9154,93.6857 9.1084,392.9595 48.144,537.3916 29.9274,117.1072 63.7584,204.2868 78.0715,204.2868 2.6024,0 44.2405,-9.1083 93.6857,-20.819 z m 2918.5699,-20.819 c 63.7582,-167.8536 104.0952,-394.2607 104.0952,-592.0416 l 0,-158.7453 -61.156,-9.1083 c -157.444,-23.4214 -625.8725,52.0476 -709.1487,114.5048 -22.1202,15.6143 -22.1202,20.819 -2.6024,81.975 22.1202,70.2642 29.9274,283.6595 13.0119,387.7547 l -9.1083,61.1559 52.0476,0 c 61.156,0 79.3726,23.4214 79.3726,98.8905 0,45.5416 1.3012,46.8429 36.4333,39.0357 80.6739,-19.5179 295.3703,-22.1202 366.9357,-2.6024 105.3964,27.3251 113.2036,26.0238 130.1191,-20.819 z M 2639.0355,3376.751 c 32.5297,-62.4572 88.4809,-141.8298 132.7213,-187.3714 l 39.0357,-39.0358 -37.7344,-62.4571 c -88.481,-141.8297 -327.9,-309.6833 -469.7297,-327.9 l -55.9512,-7.8071 -36.4334,66.3607 c -72.8667,131.4202 -107.9988,329.2012 -87.1798,482.7416 7.8072,53.3488 18.2168,100.1917 23.4215,105.3964 5.2047,5.2048 68.9631,15.6143 143.1309,23.4215 140.5286,15.6142 231.6119,49.4452 282.3583,105.3964 l 26.0238,28.6261 9.1083,-72.8666 c 5.2048,-39.0357 19.5179,-91.0833 31.2287,-114.5047 z m 801.5332,92.3845 c 32.5297,-16.9155 101.4929,-31.2287 192.5762,-41.6381 l 140.5285,-14.3131 14.3131,-71.5655 c 31.2286,-156.1429 1.3012,-357.8273 -76.7702,-507.4642 l -42.9393,-81.975 -52.0476,6.5059 c -141.8298,19.5179 -394.2606,195.1786 -472.3321,330.5024 l -33.831,55.9512 52.0476,61.1559 c 92.3846,111.9024 131.4203,188.6726 140.5286,274.5512 l 9.1083,79.3726 39.0357,-32.5298 c 20.819,-18.2166 61.156,-44.2404 89.7822,-58.5535 z m -549.1023,-389.0559 c 55.9512,-49.4452 79.3726,-49.4452 135.3238,0 l 44.2404,40.3368 61.156,-79.3726 c 67.6619,-88.4809 189.9738,-195.1785 268.0452,-234.2143 41.638,-22.1201 48.1441,-29.9273 37.7345,-49.4451 -6.5059,-11.7107 -29.9274,-59.8548 -50.7464,-106.6977 -76.7702,-162.6487 -182.1666,-308.3821 -331.8035,-455.4166 l -98.8905,-96.2881 -40.337,37.7346 c -23.4214,22.1202 -59.8547,58.5535 -81.9749,83.2762 -22.1202,24.7226 -50.7464,54.6499 -63.7583,66.3606 -78.0715,74.1679 -295.3702,426.7905 -295.3702,480.1393 0,6.5059 27.3249,29.9274 62.4571,49.4453 101.4929,59.8547 209.4917,162.6487 265.4428,253.732 16.9155,27.325 32.5298,48.144 36.4333,48.144 3.9037,0 27.3251,-16.9154 52.0477,-37.7344 z m -710.4499,-278.4547 c 49.4452,-101.4929 54.65,-104.0953 150.938,-72.8667 44.2405,14.3131 88.481,26.0238 98.8905,26.0238 9.1083,0 23.4214,-22.1203 32.5297,-48.1441 19.5179,-61.156 93.6858,-197.7809 152.2393,-281.057 49.4453,-72.8667 53.3488,-65.0596 -67.6619,-183.4679 -160.0464,-156.1428 -478.838,-326.5988 -590.7403,-317.4904 -41.6381,3.9035 -54.6501,13.0118 -96.2882,75.469 -53.3487,80.6738 -106.6975,227.7083 -134.0226,369.5381 -18.2166,93.6856 -28.6261,366.9357 -15.6142,379.9475 3.9035,3.9036 26.0238,10.4095 50.7464,13.0119 63.7583,9.1083 283.6595,68.9631 329.2011,89.7822 22.1203,10.4094 42.9393,18.2166 46.8428,18.2166 5.2048,1.3012 24.7227,-29.9274 42.9394,-68.963 z m 1622.5843,55.9511 c 31.2285,-15.6143 110.6011,-37.7345 283.6594,-79.3726 70.2643,-16.9155 123.6131,-36.4334 128.8179,-46.8428 3.9035,-10.4096 0,-98.8905 -7.8072,-196.4798 -16.9154,-213.3952 -63.7582,-381.2487 -144.4321,-519.1749 -52.0475,-89.7822 -55.9512,-93.6857 -104.0952,-93.6857 -27.325,0 -85.8785,15.6142 -132.7214,33.831 -202.9857,80.6737 -347.4178,175.6606 -490.5487,320.0928 l -81.975,83.2761 59.8547,88.4809 c 32.5298,49.4453 83.2762,137.9262 111.9024,197.7809 28.6262,59.8549 57.2524,109.3001 62.4571,109.3001 5.2048,0 49.4452,-11.7107 97.5893,-27.3251 48.144,-15.6142 88.481,-26.0237 91.0834,-23.4214 37.7344,54.65 85.8785,137.9262 85.8785,150.9381 0,20.8191 6.5059,20.8191 40.3369,2.6024 z"
       id="path8"
       inkscape:connector-curvature="0" />
  </g>
</svg>
