<?xml version="1.0" encoding="UTF-8" standalone="no"?>
<!-- Created with Inkscape (http://www.inkscape.org/) -->

<svg
   xmlns:dc="http://purl.org/dc/elements/1.1/"
   xmlns:cc="http://creativecommons.org/ns#"
   xmlns:rdf="http://www.w3.org/1999/02/22-rdf-syntax-ns#"
   xmlns:svg="http://www.w3.org/2000/svg"
   xmlns="http://www.w3.org/2000/svg"
   xmlns:sodipodi="http://sodipodi.sourceforge.net/DTD/sodipodi-0.dtd"
   xmlns:inkscape="http://www.inkscape.org/namespaces/inkscape"
   width="744.09448"
   height="1052.3622"
   id="svg2"
   version="1.1"
   inkscape:version="0.48.2 r9819"
   sodipodi:docname="Dandelion-sprial.svg">
  <defs
     id="defs4" />
  <sodipodi:namedview
     id="base"
     pagecolor="#ffffff"
     bordercolor="#666666"
     borderopacity="1.0"
     inkscape:pageopacity="0.0"
     inkscape:pageshadow="2"
     inkscape:zoom="0.98994948"
     inkscape:cx="659.72361"
     inkscape:cy="553.19575"
     inkscape:document-units="px"
     inkscape:current-layer="g4058"
     showgrid="false"
     inkscape:window-width="1920"
     inkscape:window-height="1028"
     inkscape:window-x="-8"
     inkscape:window-y="-8"
     inkscape:window-maximized="1"
     units="in" />
  <metadata
     id="metadata7">
    <rdf:RDF>
      <cc:Work
         rdf:about="">
        <dc:format>image/svg+xml</dc:format>
        <dc:type
           rdf:resource="http://purl.org/dc/dcmitype/StillImage" />
        <dc:title />
      </cc:Work>
    </rdf:RDF>
  </metadata>
  <g
     inkscape:label="Layer 1"
     inkscape:groupmode="layer"
     id="layer1"
     transform="translate(0,0.00243262)">
    <g
       id="g2989"
       transform="matrix(0.125,0,0,-0.125,-2296.907,1782.3622)"
       style="fill:none;stroke:#000000">
      <g
         id="g4058"
         transform="translate(-2313.4359,265.97765)"
         style="fill:#000000;stroke:none">
        <path
           id="path4652"
           d="m 23321.216,8775.1247 c 19.901,-1.9856 81.287,29.0734 137.598,69.6838 49.644,34.2407 155.906,71.8773 195.707,67.906 42.789,-4.2688 82.09,6.8845 88.055,26.3885 4.376,13.6331 27.559,14.3349 159.205,4.2155 84.878,-5.4533 163.886,-9.3159 175.029,-8.4179 11.145,0.8981 45.474,2.4979 75.623,2.5048 287.066,6.5331 597.602,77.0524 757.88,172.6124 l 56.71,34.5408 38.518,-47.0565 c 20.504,-26.1648 51.357,-59.3922 66.884,-75.0106 42.298,-39.3939 44.595,-76.8067 8.482,-106.3676 -24.076,-19.7072 -32.234,-20.9031 -43.282,-10.7563 -9.952,11.0428 -10.352,17.1124 -0.404,26.1695 10.048,10.0521 9.35,13.1366 -3.586,14.4271 -23.88,2.3828 -25.562,-44.6829 -1.479,-55.1253 43.387,-18.3984 85.67,12.557 89.239,68.4789 2.182,31.9412 3.276,32.8369 39.103,9.1632 14.132,-9.4496 65.083,-32.6224 112.352,-52.4129 154.444,-63.6472 327.582,-70.8715 485.384,-20.2877 75.716,23.5996 53.128,28.8681 -33.435,7.3556 l -75.221,-18.6243 39.796,26.1785 c 23.677,15.727 45.264,40.7073 53.32,61.008 13.624,35.8245 12.324,63.0882 -3.597,64.6767 -5.97,0.5956 -6.665,-6.3699 -2.683,-16.8168 20.112,-50.2449 -72.51,-122.4061 -174.399,-136.3599 -55.023,-7.5747 -171.945,9.1152 -240.707,35.0701 -53.339,19.391 -121.307,53.3064 -116.831,57.8845 2.188,1.7915 22.588,-5.2686 44.582,-16.5074 49.955,-23.0736 252.151,-41.2368 284.785,-26.4032 18.008,9.2579 16.117,10.4515 -14.429,6.4644 -73.134,-7.7779 -211.549,15.0764 -281.806,46.2051 -63.589,27.4485 -180.223,97.3731 -172.563,103.6436 1.194,1.8908 33.733,-4.3705 70.95,-14.1134 122.595,-30.3207 295.032,-14.3608 432.036,39.3028 54.325,20.7092 130.432,78.4387 174.799,130.2903 47.848,56.5289 36.007,58.7154 -15.822,2.5834 -72.123,-78.2264 -215.79,-148.3096 -333.699,-161.6701 -108.655,-11.2685 -142.885,-11.8734 -205.077,-0.6436 -74.133,12.4211 -100.603,19.0819 -107.769,27.8366 -1.791,2.1886 31.145,-0.093 74.729,-6.4508 42.589,-6.2591 78.61,-7.8429 79.106,-2.8676 0.397,3.9803 -19.107,9.946 -44.083,11.433 -24.876,2.4819 -44.479,7.4525 -43.983,12.4278 0.396,3.9802 17.71,6.2728 37.611,4.2872 115.526,-10.5211 339.692,60.5756 414.105,131.5388 13.331,12.7395 1.888,8.8562 -32.237,-10.8532 -73.524,-41.908 -128.843,-62.5178 -235.705,-86.025 -107.956,-24.403 -141.09,-24.1119 -95.424,0.4758 33.828,16.7244 84.162,78.03 85.55,102.0108 1.29,12.9358 0.296,13.0351 -5.97,0.5958 -15.118,-30.6507 -54.016,-67.9735 -95.603,-91.9634 -53.327,-30.8583 -68.352,-30.3642 -38.11,0.7874 13.43,13.7345 23.974,28.762 24.57,34.7324 0.496,4.9753 -10.248,-1.9924 -23.678,-15.7269 -13.43,-13.7346 -39.198,-30.2581 -57.804,-35.4365 -36.317,-11.4513 -131.244,-6.0001 -136.918,7.6306 -5.973,10.6456 49.124,129.764 73.198,159.5211 14.921,18.6107 27.457,23.3896 56.314,20.5106 51.743,-5.1625 82.996,-44.4594 69.673,-87.3483 -4.872,-18.6085 -4.87,-28.6584 1.498,-25.2738 19.003,9.1587 16.205,61.6961 -4.001,90.846 -14.93,21.589 -29.162,30.0435 -57.023,32.8234 -46.768,4.6659 -36.522,16.7082 38.994,48.3675 34.723,15.6301 77.708,23.4012 125.071,24.7055 l 72.438,0.8125 -69.952,3.9642 c -85.972,4.5576 -145.172,-14.6601 -224.463,-74.0819 -31.537,-23.9875 -59.394,-41.3075 -61.186,-39.1188 -1.891,1.1936 8.254,22.2908 22.578,44.9809 72.71,114.3462 204.839,169.5014 398.474,166.2618 92.24,-2.1681 103.781,2.7102 25.172,10.5532 -160.304,14.9885 -302.487,-20.0691 -381.376,-95.6104 -20.095,-20.1044 -37.505,-33.4418 -37.108,-29.4616 1.985,19.9011 56.199,89.8646 91.019,116.5396 21.788,16.9206 28.751,26.2756 17.209,21.3972 -33.53,-13.7392 -80.583,-62.3076 -113.109,-116.3455 -26.359,-42.5937 -28.547,-44.3852 -19.4,-13.139 39.075,129.7616 105.724,213.5591 247.096,311.0053 l 48.551,33.345 -52.035,-27.9726 c -72.429,-41.0119 -158.681,-119.8386 -198.07,-182.2362 -40.782,-66.2789 -74.589,-173.4521 -84.618,-263.9033 -9.831,-88.4611 -31.726,-66.1771 -25.578,25.6662 0.792,18.0103 -1.895,21.2934 -8.858,11.9384 -14.922,-18.6106 -21.199,19.1994 -15.944,102.0872 3.867,58.9071 9.634,76.4211 44.844,137.2258 22.877,37.9161 41.973,78.2194 42.071,89.2645 1.19,11.9406 -4.282,7.4616 -13.431,-13.7347 -20.189,-41.199 -43.665,-75.0357 -43.17,-60.0104 2.779,27.8615 45.05,109.0663 53.41,102.2024 5.573,-4.576 7.96,-0.7943 5.869,8.4592 -4.68,13.5314 21.976,59.1101 79.871,135.7413 l 20.888,28.0647 -28.849,-27.2706 c -15.519,-14.531 -40.687,-45.184 -54.911,-66.8789 -15.319,-22.591 -34.121,-39.8093 -42.181,-40.0101 -9.951,0.9927 -11.144,-0.8982 -3.58,-5.6725 9.652,-3.978 8.957,-10.9435 -4.073,-30.7478 -55.902,-86.8794 -88.196,-279.6254 -65.086,-390.4673 7.57,-34.924 13.647,-64.6742 13.547,-65.6694 -0.1,-0.995 -20.995,1.0898 -45.772,4.5668 -38.609,5.8619 -48.957,2.8744 -66.962,-16.4333 -30.441,-33.1417 -22.871,-68.0659 14.941,-71.8384 22.886,-2.2834 29.254,1.1012 31.041,19.0123 2.085,20.8963 1.089,20.9955 -12.638,4.2758 -17.906,-18.3127 -38.107,-9.2624 -35.427,17.604 4.07,40.7975 60.089,48.2731 111.042,15.0504 22.691,-14.3233 43.495,-47.5529 33.844,-53.6247 -2.189,-1.7917 -37.11,-19.4117 -79.494,-41.3122 -113.322,-58.0365 -249.334,-101.7497 -407.936,-130.1442 -64.475,-11.6565 -79.699,-13.1526 -216.514,-24.6268 -204.775,-17.7583 -501.896,-4.1938 -525.187,24.2589 -6.269,7.6604 -34.63,15.5147 -64.482,18.493 -67.764,5.7558 -173.13,-32.9752 -253.415,-92.2977 -60.886,-46.1835 -76.702,-63.6997 -94.305,-109.1769 -9.348,-23.1866 -8.849,-28.2611 6.077,-29.7502 z m 1687.466,515.0173 16.412,23.4866 -9.447,-24.1815 c -5.37,-13.5337 -17.006,-39.5069 -25.858,-57.7181 l -17.405,-33.4372 9.444,34.2313 c 5.867,18.5092 17.504,44.4823 26.854,57.6189 z"
           inkscape:connector-curvature="0"
           style="color:#000000;fill:#000000;fill-opacity:1;fill-rule:nonzero;stroke:none;marker:none;visibility:visible;display:inline;overflow:visible;enable-background:accumulate" />
        <path
           id="path4706"
           d="m 8831.2536,15011.363 c 2,-2 31,-6 64,-9 39,-4 51,-3 35,2 -25,9 -107,15 -99,7 z"
           inkscape:connector-curvature="0" />
        <path
           id="path4712"
           d="m 8960.2536,14995.363 c 0,-8 50,-24 56,-18 2,2 -10,9 -26,15 -17,6 -30,8 -30,3 z"
           inkscape:connector-curvature="0" />
        <path
           id="path4714"
           d="m 9040.2536,14967.363 c 8,-5 26,-13 40,-16 17,-5 20,-4 10,2 -8,5 -26,13 -40,16 -17,5 -20,4 -10,-2 z"
           inkscape:connector-curvature="0" />
        <path
           id="path4716"
           d="m 9177.2536,14904.363 c 7,-7 15,-10 18,-7 3,3 -2,9 -12,12 -14,6 -15,5 -6,-5 z"
           inkscape:connector-curvature="0" />
        <path
           id="path4718"
           d="m 8697.2536,14838.363 c -4,-3 -7,-20 -6,-37 l 1,-31 9,33 c 10,34 35,42 57,20 8,-8 12,-8 12,-1 0,19 -58,32 -73,16 z"
           inkscape:connector-curvature="0" />
        <path
           id="path4720"
           d="m 8576.2536,14667.363 c -2,-4 -1,-14 5,-22 7,-12 9,-10 9,8 0,23 -5,28 -14,14 z"
           inkscape:connector-curvature="0" />
        <path
           id="path4722"
           d="m 8783.2536,14618.363 c 9,-2 23,-2 30,0 6,3 -1,5 -18,5 -16,0 -22,-2 -12,-5 z"
           inkscape:connector-curvature="0" />
        <path
           id="path4724"
           d="m 8620.2536,14557.363 c 6,-13 14,-21 18,-18 3,4 -2,14 -12,24 -18,16 -18,16 -6,-6 z"
           inkscape:connector-curvature="0" />
        <path
           style="color:#000000;fill:#000000;fill-opacity:1;fill-rule:nonzero;stroke:none;marker:none;visibility:visible;display:inline;overflow:visible;enable-background:accumulate"
           id="path4652-1"
           d="m 23411.54,9404.0642 c 11.211,-16.5623 74.363,-43.8523 141.605,-61.1281 58.083,-16.2317 155.01,-73.7918 177.432,-106.9163 24.104,-35.6095 57.828,-58.6695 76.632,-50.7707 13.275,5.3643 28.653,-12.0008 105.13,-119.6301 50.132,-68.7084 97.73,-131.8872 105.551,-139.8752 7.823,-7.9881 31.023,-33.3411 50.323,-56.5026 188.744,-216.3932 441.673,-409.8673 617.678,-471.862 l 62.834,-21.4677 -11.505,-59.7125 c -6.982,-32.5002 -12.766,-77.4732 -14.831,-99.3987 -3.198,-57.7126 -30.474,-83.4217 -76.3,-74.5928 -30.552,5.8858 -36.692,11.3897 -35.966,26.3721 2.115,14.7147 6.523,18.9068 19.85,17.059 14.154,-1.2871 16.077,1.2226 8.791,11.9884 -13.455,19.8746 -50.694,-8.956 -43.305,-34.1437 13.632,-45.1126 64.477,-57.7897 109.731,-24.7414 25.939,18.766 27.328,18.498 32.067,-24.1809 1.783,-16.9069 16.586,-70.8864 31.633,-119.873 49.94,-159.4049 155.198,-297.063 295.059,-385.9389 66.593,-43.0752 56.184,-22.3465 -15.746,30.3982 l -62.454,45.8775 45.586,-13.8236 c 27.238,-8.1289 60.248,-8.7273 81.001,-1.9238 36.246,12.4593 56.363,30.9069 47.394,44.1568 -3.363,4.9682 -9.161,1.0441 -14.64,-8.7014 -25.734,-47.61 -140.46,-22.6262 -216.39,46.7319 -41.035,37.4307 -103.042,137.9516 -127.106,207.3981 -19.238,53.3942 -36.678,127.3253 -30.296,126.8152 2.777,-0.5349 10.408,-20.7277 15.849,-44.8191 14.243,-53.1522 129.692,-220.1388 161.977,-235.7197 18.638,-7.9121 18.345,-5.6948 -4.268,15.2247 -52.783,51.2153 -123.808,172.1959 -144.855,246.1024 -19.606,66.4265 -40.524,200.7976 -30.804,198.9242 2.218,0.2938 18.231,-28.7157 34.564,-63.5472 55.165,-113.6046 177.787,-235.8859 306.704,-306.8108 50.681,-28.4879 143.746,-50.0196 211.983,-50.9241 74.058,-0.5863 68.159,9.9116 -8.141,13.8103 -106.265,5.3513 -252.064,70.8881 -337.791,152.9357 -78.198,76.2757 -100.57,102.1891 -131.744,157.1632 -37.902,64.9115 -49.725,89.5122 -47.584,100.6218 0.535,2.7774 19.861,-23.99 42.87,-61.5478 22.448,-36.7305 44.284,-65.4206 48.425,-62.6184 3.312,2.2418 -4.587,21.0469 -19.429,41.1897 -14.013,20.7018 -22.74,38.9465 -18.599,41.7488 3.311,2.2427 16.153,-9.5936 27.365,-26.1558 65.852,-95.5004 263.948,-222.2412 366.098,-234.0008 18.321,-2.0899 8.014,4.2168 -28.971,17.8239 -79.256,29.6725 -130.496,58.9879 -216.951,126.0529 -87.842,67.332 -108.826,92.9776 -60.706,73.6254 34.501,-15.2886 113.821,-14.7283 133.135,-0.447 10.766,7.287 10.205,8.1153 -3.364,4.9683 -33.225,-8.0003 -86.798,-1.9995 -131.847,14.602 -57.841,21.2256 -67.076,33.0866 -23.786,29.7864 19.149,-1.5286 37.444,-0.014 42.412,3.3502 4.141,2.8032 -8.09,6.5992 -27.238,8.1287 -19.148,1.5286 -48.337,10.7525 -64.223,21.7349 -32.042,20.5758 -88.608,97.0043 -81.765,110.0878 4.356,11.403 131.147,45.3032 169.419,45.8513 23.849,0.4453 35.544,-6.1282 51.8,-30.1437 29.15,-43.0619 18.957,-92.226 -22.525,-109.4378 -17.415,-8.1667 -25.136,-14.6005 -18.461,-17.327 19.2,-8.7394 57.777,27.0343 67.243,61.2159 7.033,25.2894 4.422,41.635 -11.274,64.8222 -26.347,38.922 -10.536,38.7557 62.121,0.9933 34.232,-16.6771 67.714,-44.7309 99.028,-80.2891 l 46.987,-55.1395 -41.725,56.2859 c -51.52,68.9755 -104.175,102.1646 -200.579,125.0594 -38.617,8.8802 -69.752,19.1994 -69.218,21.977 -0.298,2.2155 22.41,7.9243 49.011,11.44 134.396,17.3133 261.34,-48.9113 382.777,-199.7678 57.368,-72.2631 68.503,-78.0084 24.219,-12.5878 -91.079,132.7659 -209.014,219.5784 -317.547,231.847 -28.308,2.5747 -49.699,7.4157 -46.387,9.6574 16.562,11.2121 105.018,14.3323 147.799,4.6496 26.946,-5.9116 38.59,-5.2751 27.455,0.4711 -32.016,16.9698 -99.449,22.0408 -161.787,12.4485 -49.598,-7.0066 -52.374,-6.4719 -22.512,6.4976 124.714,53.0234 231.758,55.4435 397.11,9.1829 l 56.694,-15.9638 -54.795,22.0784 c -77.867,29.4047 -193.637,45.2293 -266.792,35.5571 -77.027,-11.0837 -181.012,-53.6987 -256.93,-103.881 -74.263,-49.0624 -71.154,-17.9764 3.35,36.0797 14.346,10.9187 15.148,15.0841 3.503,14.4476 -23.849,-0.4454 1.186,28.5761 68.238,77.5871 47.737,34.7287 64.885,41.5065 134.141,53.3673 43.775,6.6884 86.964,17.8102 95.513,24.8047 9.937,6.7264 2.994,8.0639 -19.149,1.5282 -44.577,-10.8537 -85.6,-14.472 -73.739,-5.2357 23.187,15.6958 112.635,35.1873 112.712,24.3714 0.05,-7.211 4.484,-6.6249 10.255,0.9042 7.403,12.2562 59.484,20.9442 155.417,25.5045 l 34.935,1.9112 -39.419,4.7138 c -21.097,2.6247 -60.757,2.3445 -86.531,-0.6106 -27.162,-2.6883 -52.425,0.7392 -57.738,6.8037 -5.606,8.2816 -7.822,7.988 -6.65,-0.8789 3.12,-9.9628 -2.676,-13.887 -26.232,-16.5496 -102.534,-12.6501 -271.303,-111.1936 -341.679,-199.8903 -21.991,-28.1685 -40.961,-51.877 -41.789,-52.4383 -0.828,-0.5606 -12.6,16.83 -25.786,38.0934 -20.205,33.4182 -29.123,39.457 -55.483,40.935 -44.947,2.1785 -66.937,-25.99 -45.636,-57.4578 12.894,-19.0463 19.569,-21.7737 34.476,-11.6834 17.39,11.7716 16.83,12.5999 -4.804,12.447 -25.531,2.0386 -31.506,23.3536 -9.146,38.4887 33.952,22.9829 75.548,-15.2762 82.631,-75.6904 3.517,-26.6012 -8.701,-63.8531 -19.543,-60.324 -2.778,0.5347 -38.666,16.0912 -82.62,34.6407 -117.12,49.9302 -237.756,126.4605 -361.08,230.1535 -50.221,42.0816 -61.113,52.8218 -157.492,150.6022 -144.702,145.9777 -324.439,382.9589 -317.482,419.0643 1.874,9.7206 -10.242,36.5394 -27.058,61.3823 -38.947,55.7511 -136.141,111.9234 -233.106,135.6464 -74.454,17.2246 -98.036,18.168 -144.245,2.5873 -23.797,-7.6565 -27.378,-11.2883 -18.969,-23.7097 z m 1475.709,-966.9884 28.551,2.4214 -24.627,-8.218 c -13.836,-4.535 -41.24,-12.2172 -60.898,-17.0712 l -36.832,-8.0259 32.347,14.6508 c 17.977,7.3383 45.381,15.0203 61.459,16.2429 z"
           inkscape:connector-curvature="0" />
        <path
           style="fill:#000000;stroke:none"
           id="path4652-8"
           d="m 23952.274,9594.7757 c -4.832,-19.4075 17.06,-84.6283 49.134,-146.201 26.732,-54.0595 48.668,-164.6349 39.005,-203.4501 -10.389,-41.7262 -5.013,-82.2245 13.428,-90.9377 12.86,-6.2934 10.215,-29.3369 -18.764,-158.1517 -17.624,-83.2069 -32.828,-160.8331 -33.545,-171.9905 -0.714,-11.1575 -4.079,-45.3581 -8.416,-75.1943 -34.89,-285.0135 -9.841,-602.4684 61.633,-774.8416 l 26.01,-61.0936 -52.115,-31.3379 c -28.845,-16.5206 -66.17,-42.2658 -83.862,-55.38 -45.077,-36.1818 -82.431,-33.0651 -106.481,6.9297 -16.032,26.6633 -16.041,34.9096 -4.408,44.3797 12.361,8.2584 18.425,7.7792 25.954,-3.3701 8.5,-11.3909 11.653,-11.1453 14.793,1.4697 5.799,23.2891 -40.534,31.7327 -54.337,9.4059 -24.457,-40.2848 0.09,-86.5852 54.909,-98.1734 31.294,-6.7605 32.022,-7.9725 3.435,-40.0151 -11.387,-12.6229 -41.658,-59.7044 -68.052,-103.6291 -85.232,-143.6643 -117.324,-313.9556 -90,-477.3981 12.445,-78.3269 20.913,-56.733 12.095,32.0265 l -7.593,77.119 20.172,-43.1517 c 12.152,-25.697 33.762,-50.6571 52.69,-61.5527 33.488,-18.6426 60.654,-21.284 64.52,-5.758 1.449,5.8223 -5.343,7.5134 -16.254,5.0774 -52.618,-12.6632 -110.684,89.3878 -109.814,192.2238 0.431,55.5411 33.79,168.8379 69.38,233.1444 26.873,49.9886 70.227,112.3626 74.111,107.2732 1.459,-2.424 -8.467,-21.5939 -22.757,-41.7384 -30.03,-46.111 -77.131,-243.581 -67.154,-278.0114 6.567,-19.154 8.021,-17.4548 8.476,13.3477 2.839,73.4911 45.395,207.1698 86.319,272.2093 36.324,58.9716 122.321,164.3159 127.423,155.8321 1.699,-1.4535 -9.185,-32.7512 -24.187,-68.1762 -47.666,-116.9486 -56.714,-289.8854 -23.346,-433.1915 12.667,-56.741 58.83,-140.3708 103.749,-191.7446 49.046,-55.4929 52.915,-44.0899 4.836,15.2845 -67.021,82.6393 -115.676,234.9043 -111.911,353.5079 4.502,109.1455 8.837,143.1046 28.906,203.0307 22.971,71.5704 33.375,96.8043 43.071,102.6345 2.424,1.4576 -4.578,-30.8065 -17.149,-73.0199 -12.329,-41.2431 -19.085,-76.6599 -14.233,-77.8679 3.881,-0.9663 12.595,17.4748 17.665,41.9759 6.039,24.2595 13.782,42.9423 18.633,41.7344 3.882,-0.9664 3.657,-18.4292 -1.175,-37.8368 -27.054,-112.8055 11.007,-344.8751 70.51,-428.7344 10.686,-15.0268 8.493,-3.1447 -6.096,33.464 -30.878,78.794 -43.304,136.5054 -51.171,245.6388 -8.596,110.3454 -3.535,143.0927 14.217,94.3602 11.677,-35.8838 65.092,-94.5254 88.623,-99.3532 12.614,-3.1406 12.856,-2.1703 1.449,5.8223 -28.153,19.3753 -59.483,63.2438 -77.231,107.8531 -22.855,57.2161 -20.201,72.0134 6.269,37.5991 11.656,-15.2684 25.008,-27.8671 30.83,-29.3167 4.852,-1.208 -0.494,10.4285 -12.151,25.6969 -11.657,15.2684 -24.296,43.1477 -26.74,62.3056 -6.1,37.5871 12.969,130.7394 27.276,134.3914 11.394,4.3768 121.333,-67.3066 147.312,-95.4155 16.266,-17.4467 19.19,-30.5408 12.184,-58.6818 -12.563,-50.4595 -55.952,-75.7256 -96.475,-56.3623 -17.712,7.5013 -27.657,8.9469 -25.225,2.1583 6.325,-20.1243 58.717,-24.924 90.474,-9.1282 23.515,11.6647 33.931,24.5292 40.696,51.6998 11.354,45.6078 21.795,33.7337 42.246,-45.5555 10.464,-36.6127 11.962,-80.2678 6.429,-127.325 l -9.631,-71.8 14.001,68.6512 c 16.894,84.419 6.405,145.7703 -40.973,232.7944 -19.194,34.6639 -32.321,64.7255 -29.897,66.1831 1.454,1.6991 20.869,-11.3788 41.259,-28.8215 102.679,-88.4255 138.225,-227.1212 107.124,-418.2697 -15.434,-90.966 -12.269,-103.0897 6.817,-26.4298 37.925,156.4725 23.715,302.2227 -39.672,391.1715 -17,22.7818 -27.69,41.9317 -23.809,40.9653 19.407,-4.8317 80.832,-68.5588 102.212,-106.8586 13.605,-23.9978 21.86,-32.236 18.695,-20.1123 -8.766,35.1592 -50.049,88.7193 -98.838,128.6903 -38.352,32.2197 -39.809,34.6437 -10.208,21.0906 122.78,-57.3613 196.101,-135.3864 272.166,-289.3224 l 26.002,-52.8474 -20.184,55.5209 c -30.15,77.5822 -95.729,174.29 -151.802,222.2573 -59.712,49.9042 -160.897,98.7978 -248.96,121.7529 -86.122,22.4718 -60.916,40.9291 29.083,21.614 17.709,-3.3783 21.344,-1.1919 13.09,7.0463 -16.267,17.4468 22.053,18.2116 103.32,1.0708 57.735,-12.313 74.235,-20.5431 129.333,-64.1458 34.225,-28.1009 71.358,-52.8033 82.273,-54.4904 11.644,-2.8991 8,3.1608 -11.656,15.2684 -37.861,25.9144 -67.963,54.0192 -53.166,51.3658 27.17,-6.7645 101.439,-60.2926 93.442,-67.5764 -5.33,-4.856 -1.932,-7.7631 7.526,-7.0263 14.064,2.6817 55.327,-30.2629 122.819,-98.5922 l 24.762,-24.7145 -22.829,32.4775 c -12.144,17.4507 -38.852,46.7716 -58.271,63.9726 -20.149,18.4131 -34.479,39.4998 -33.516,47.5044 2.415,9.7038 0.714,11.1574 -5.098,4.3606 -5.327,-8.979 -12.12,-7.2878 -29.84,8.4597 -77.921,67.8341 -264.003,127.559 -377.019,120.6578 -35.649,-2.4602 -65.965,-4.1875 -66.935,-3.9459 -0.971,0.2416 4.103,20.6195 11.113,44.6375 11.363,37.3615 9.897,48.0317 -6.615,68.6311 -28.411,34.8975 -64.062,32.4373 -73.242,-4.437 -5.556,-22.3188 -3.124,-29.1074 14.342,-33.456 20.378,-5.0733 20.62,-4.103 6.052,11.8902 -15.542,20.3578 -3.676,39.0446 22.524,32.5217 39.786,-9.9051 39.113,-66.4167 -1.103,-112.0526 -17.443,-20.39 -53.323,-36.1897 -57.941,-25.7653 -1.458,2.424 -13.864,39.5199 -29.43,84.6163 -41.106,120.5002 -64.769,261.3904 -70.02,422.4291 -2.246,65.4824 -1.533,80.7628 6.822,217.8037 11.926,205.1968 68.153,497.2647 99.664,516.2132 8.484,5.1016 20.342,32.0346 27.589,61.1459 15.458,66.2273 -7.689,176.0739 -54.827,264.0684 -36.931,66.9039 -51.986,85.0794 -94.453,109.049 -21.598,12.5909 -26.691,12.8285 -30.315,-1.7273 z m 266.549,-1744.0576 20.877,-19.625 -22.568,12.8324 c -12.619,7.2637 -36.645,22.52 -53.391,33.9029 l -30.581,22.0409 32.513,-14.2778 c 17.471,-8.4718 41.497,-23.7282 53.15,-34.8734 z"
           inkscape:connector-curvature="0" />
        <path
           style="fill:#000000;stroke:none"
           id="path4652-1-8"
           d="m 24651.555,9411.2679 c -18.971,-6.3319 -62.274,-59.7905 -97.035,-119.888 -31.287,-51.5571 -112.843,-129.3816 -150.785,-142.0455 -40.789,-13.613 -72.085,-39.8729 -69.548,-60.11 1.588,-14.2302 -19.28,-24.3579 -143.539,-68.9938 -79.679,-29.7562 -153.348,-58.5626 -163.149,-63.9416 -9.801,-5.3801 -40.469,-20.8869 -67.976,-33.2305 -259.259,-123.43 -513.748,-314.8469 -620.89,-467.6269 l -37.609,-54.7216 -54.401,27.1733 c -29.416,15.484 -71.166,33.1768 -91.723,41.0745 -54.715,18.6365 -72.119,51.8332 -51.265,93.5834 13.903,27.8337 20.858,32.2632 35.09,27.525 13.6,-6.0026 16.449,-11.3773 11.078,-23.7126 -5.056,-13.2831 -3.156,-15.8123 9.174,-11.6967 22.766,7.5987 5.04,51.2313 -21.206,50.9044 -47.118,-0.967 -73.031,-46.5136 -53.404,-98.9999 11.08,-30.0376 10.448,-31.3027 -31.929,-24.3626 -16.763,2.8406 -72.734,3.1346 -123.963,1.8497 -166.966,-5.1246 -327.901,-69.3821 -451.186,-180.1098 -59.431,-52.5171 -36.664,-48.0814 33.517,6.9694 l 61.013,47.7753 -25.599,-40.1714 c -15.169,-24.0394 -24.644,-55.6657 -23.686,-77.4848 2.228,-38.2628 14.57,-62.6077 29.747,-57.5417 5.692,1.8991 3.476,8.5396 -4.433,16.4421 -38.911,37.6155 16.072,141.3602 103.33,195.7851 47.106,29.4272 160.62,62.0434 233.982,66.4993 56.604,4.1328 132.5,1.0001 130.289,-5.0088 -1.265,-2.5306 -22.767,-4.4362 -47.433,-3.1813 -55.024,0.6109 -246.949,-65.5549 -270.656,-92.4439 -12.643,-15.8162 -10.428,-16.1314 15.812,0.01 63.547,37.024 199.194,72.8101 276.038,73.1565 69.254,0.9759 204.29,-15.0994 199.865,-23.9551 -0.315,-2.2144 -32.567,-9.8163 -70.512,-16.1553 -124.268,-22.5013 -275.076,-107.6249 -378.125,-212.653 -41.094,-41.1255 -86.915,-124.9437 -106.178,-190.4107 -20.528,-71.159 -8.828,-68.3079 15.493,4.1173 33.796,100.8897 136.207,223.6265 238.325,284.065 94.531,54.7447 125.515,69.3028 186.857,84.5061 72.726,19.0019 99.603,23.7562 109.724,18.7007 2.53,-1.2646 -28.456,-12.6607 -70.826,-24.6939 -41.421,-11.7165 -74.935,-25.0113 -73.353,-29.7542 1.267,-3.794 21.504,-1.2565 44.902,7.6075 23.713,7.9147 43.635,11.401 45.217,6.6582 1.267,-3.7946 -13.592,-12.971 -32.563,-19.3028 -109.716,-37.6735 -285.162,-194.2745 -324.021,-289.4747 -6.95,-17.0791 1.901,-8.8538 24.974,23.0946 49.937,68.3248 91.979,109.7669 179.865,174.9438 88.518,66.4424 118.87,79.7363 87.263,38.6145 -24.021,-29.1031 -44.862,-105.6383 -36.316,-128.087 4.116,-12.3314 5.064,-12.0149 5.691,1.9001 1.252,34.1528 21.47,84.1243 49.601,123.0318 36.031,49.9779 49.942,55.6752 35.096,14.8764 -6.635,-18.0281 -10.107,-36.0542 -8.207,-41.7452 1.583,-4.7432 8.536,6.0114 15.17,24.0383 6.633,18.0282 23.383,43.6496 38.242,55.9879 28.451,25.3093 117.297,59.1807 128.052,49.065 9.807,-7.2689 8.276,-138.5043 -1.512,-175.5068 -5.999,-23.0875 -15.482,-32.5775 -42.991,-41.7587 -49.325,-16.4637 -93.922,6.6041 -99.315,51.19 -3.17,18.9721 -7.284,28.1416 -11.709,22.4475 -13.592,-16.1329 10.46,-62.9249 40.825,-81.2543 22.458,-13.5889 38.902,-15.4801 65.462,-6.6152 44.582,14.8801 40.16,-0.3007 -15.789,-60.0899 -25.287,-28.4697 -61.327,-53.1502 -104.01,-73.7213 l -65.763,-30.3841 65.449,25.0082 c 80.31,31.0218 126.463,72.781 174.496,159.4462 18.961,34.7931 37.29,61.9955 39.821,60.7316 2.213,-0.3155 1.59,-23.7166 -2.194,-50.2807 -19.553,-134.0883 -117.544,-238.4823 -295.549,-314.7621 -85.053,-35.7669 -93.587,-44.9413 -18.651,-19.9301 152.402,51.9214 267.79,142.0913 308.859,243.2999 10.11,26.5672 20.537,45.8615 21.803,42.0675 6.334,-18.9717 -14.505,-104.9943 -35.36,-143.5815 -12.957,-24.3552 -15.482,-35.7401 -6.947,-26.5659 24.971,26.2567 48.03,89.8274 55.597,152.4435 6.621,49.6502 7.884,52.1801 12.325,19.927 17.445,-134.3903 -9.078,-238.1238 -98.196,-384.8874 l -30.656,-50.2918 36.031,46.8151 c 49.306,67.0594 95.75,174.2792 106.154,247.3331 10.089,77.1635 -2.92,188.7868 -30.781,275.4216 -27.23,84.7388 1.868,73.3664 33.841,-12.9515 6.648,-16.7574 10.443,-18.6531 12.968,-7.2682 6,23.0867 27.2,-8.8444 56.323,-86.625 20.576,-55.3316 22.481,-73.6721 15.235,-143.5613 -5.359,-43.9577 -6.29,-88.5461 -1.859,-98.6634 3.799,-11.3827 6.958,-5.0571 6.633,18.0273 1.564,45.8534 9.137,86.3335 14.835,72.4219 8.865,-26.5596 3.524,-117.951 -6.912,-115.1098 -6.958,1.8952 -7.588,-2.5321 -1.894,-10.1197 9.807,-10.4315 4.136,-62.9271 -17.331,-156.5392 l -7.577,-34.1562 15.165,36.6892 c 8.214,19.6088 18.634,57.8766 22.737,83.4927 4.732,26.8811 14.843,50.2856 22.114,53.7675 9.486,3.1657 9.801,5.3791 0.947,6.6402 -10.436,-0.3195 -12.653,6.3204 -8.867,29.7226 15.455,102.1477 -33.949,291.2326 -100.393,382.9122 -21.199,28.7691 -38.916,53.4278 -39.234,54.3769 -0.317,0.9479 19.603,7.5963 43.633,14.5628 37.629,10.4503 45.848,17.4104 54.376,42.3954 14.213,42.6968 -6.985,71.4657 -43.03,59.4349 -21.817,-7.2825 -26.242,-12.9755 -20.544,-30.05 6.649,-19.9199 7.597,-19.6034 13.281,1.2699 8.845,24.0373 30.982,24.0458 39.53,-1.5662 12.981,-38.8901 -35.075,-68.6346 -95.162,-59.1707 -26.564,3.7837 -59.144,25.5908 -52.824,35.08 1.265,2.5306 25.918,32.898 55.629,70.2249 79.651,99.3264 185.866,194.8685 318.962,285.6778 54.062,37.0194 67.34,44.6142 187.48,111.0697 179.578,99.9976 456.235,209.2044 489.129,192.7733 8.857,-4.4243 37.948,0.014 66.404,9.512 64.186,22.4773 144.477,100.933 193.459,187.9146 36.656,67.0554 43.921,89.5105 41.372,138.209 -0.959,24.9807 -3.49,29.4075 -17.719,24.658 z m -1328.969,-1160.4416 -5.365,-28.1464 -1.275,25.9298 c -0.638,14.5461 -0.649,43.0065 -0.03,63.2454 l 2.199,37.6323 5.389,-35.0993 c 2.222,-19.2894 2.233,-47.7497 -0.923,-63.5618 z"
           inkscape:connector-curvature="0" />
        <path
           style="color:#000000;fill:#000000;fill-opacity:1;fill-rule:nonzero;stroke:none;marker:none;visibility:visible;display:inline;overflow:visible;enable-background:accumulate"
           id="path4652-1-4"
           d="m 24729.112,8787.2489 c -16.729,10.9625 -85.52,11.8066 -154.226,1.8334 -59.851,-7.4071 -171.474,8.3516 -204.93,30.2769 -35.965,23.5691 -75.971,31.8513 -90.278,17.3152 -10.184,-10.0658 -31.065,0.031 -143.115,69.8733 -72.738,44.0804 -141.008,84.0354 -151.304,88.3918 -10.297,4.3564 -41.475,18.8093 -68.211,32.744 -257.56,126.9374 -565.514,207.9898 -751.815,197.3647 l -66.254,-4.4062 -12.397,59.5337 c -6.082,32.6803 -18.077,76.4086 -24.622,97.436 -19.291,54.4872 -4.03,88.7227 41.659,98.2364 30.46,6.3434 38.247,3.6312 43.351,-10.4745 3.719,-14.3928 1.267,-19.9597 -11.741,-23.391 -13.558,-4.2664 -14.365,-7.3237 -3.493,-14.4502 20.075,-13.1538 43.327,27.8017 26.801,48.196 -29.965,36.3737 -81.768,28.4766 -110.789,-19.4594 -16.703,-27.3133 -18.088,-27.6005 -38.909,9.9549 -8.161,14.9133 -42.624,59.0186 -75.388,98.4221 -107.515,127.8452 -257.695,214.3039 -421.003,242.4132 -78.05,14.0834 -60.457,-1.0325 26.245,-21.9814 l 75.309,-18.2648 -47.392,-4.8123 c -28.266,-2.9963 -58.957,-15.1662 -75.485,-29.4419 -28.644,-25.4657 -40.098,-50.2409 -26.715,-59.0115 5.018,-3.2879 8.855,2.5675 10.155,13.6711 5.398,53.8506 120.89,75.0112 217.685,40.2731 52.29,-18.7243 148.247,-87.5838 197.217,-142.3912 38.329,-41.8561 82.915,-103.3546 76.829,-105.3433 -2.769,-0.5774 -17.593,15.115 -31.898,35.2483 -33.626,43.5573 -204.513,153.1515 -240.308,155.0868 -20.248,0.1179 -19.123,-1.8147 9.806,-12.4036 68.443,-26.917 180.606,-111.1796 228.511,-171.2667 43.691,-53.7388 114.779,-169.6684 105.087,-171.6861 -1.931,-1.129 -27.889,19.4718 -56.384,45.3181 -94.686,83.5693 -254.962,149.1467 -401.254,164.9094 -57.745,6.7556 -151.92,-9.2427 -215.234,-34.7057 -68.564,-27.9998 -59.074,-35.4139 12.835,-9.6059 100.118,36.015 259.912,31.7304 370.637,-10.9405 101.554,-40.2466 132.184,-55.5365 182.137,-94.2499 59.99,-45.29 80.381,-63.4338 82.687,-74.5106 0.576,-2.7693 -27.573,14.4822 -63.279,40.2711 -34.869,25.2422 -66.076,43.3004 -68.817,39.1194 -2.192,-3.3453 12.344,-17.6535 33.802,-30.5206 20.91,-13.7014 35.994,-27.1744 33.253,-31.3554 -2.191,-3.3461 -18.603,2.6268 -35.332,13.5892 -97.57,62.7437 -329.208,103.3501 -428,74.8333 -17.711,-5.1315 -5.77,-6.9787 33.602,-5.2815 84.57,3.1642 143.15,-4.1391 248.772,-32.7047 107.006,-28.2767 136.252,-43.8547 84.392,-44.5425 -37.728,0.8111 -110.705,-30.275 -123.023,-50.8967 -7.126,-10.8735 -6.289,-11.4211 5.018,-3.2875 27.576,20.1868 79.323,35.296 127.29,37.3387 61.553,2.7047 74.646,-4.6805 33.428,-18.3187 -18.259,-5.9694 -34.556,-14.4187 -37.844,-19.4375 -2.741,-4.1819 10.008,-2.9709 28.266,2.9971 18.258,5.9694 48.747,8.7066 67.639,4.6948 37.496,-6.6376 119.147,-55.362 117.875,-70.0723 0.376,-12.2014 -103.557,-92.3463 -138.661,-107.602 -21.835,-9.6023 -35.16,-8.0436 -59.416,7.8522 -43.494,28.5007 -53.035,77.7954 -21.391,109.665 12.923,14.2473 17.568,23.16 10.357,23.103 -21.085,0.6647 -42.895,-47.213 -38.456,-82.4016 3.256,-26.0471 11.965,-40.1234 35.385,-55.4703 39.311,-25.7613 24.658,-31.7013 -56.94,-24.858 -38.015,2.1967 -79.722,15.1795 -122.321,35.9232 l -64.607,32.772 60.194,-35.8577 c 74.123,-43.7924 135.5,-54.1253 233.281,-38.0981 39.056,6.6881 71.764,9.1656 72.341,6.3969 1.129,-1.9298 -17.625,-15.9493 -40.817,-29.445 -117.341,-67.7711 -260.001,-55.5849 -430.196,36.8179 -80.787,44.5719 -93.276,45.5821 -27.2,2.2817 135.21,-87.4097 277.492,-122.0645 382.369,-91.5581 27.114,8.5338 48.718,12.3106 46.526,8.9662 -10.962,-16.7293 -91.382,-53.6984 -134.59,-61.2515 -27.143,-4.9298 -37.643,-10.0039 -25.153,-11.015 36.083,-3.3208 100.261,17.9888 154.087,50.8642 43.066,25.5802 45.835,26.1562 23.277,2.6798 -94.646,-96.9908 -192.487,-140.4779 -362.896,-161.5159 l -58.466,-7.1186 59.071,0.7449 c 83.185,2.8756 196.11,32.8905 259.886,70.0079 66.805,39.9137 146.335,119.3115 197.049,194.876 49.618,73.8927 58.73,44.0092 10.813,-34.5845 -9.029,-15.6038 -8.164,-19.7567 2.336,-14.6817 21.834,9.6027 9.919,-26.8254 -33.066,-97.8919 -30.665,-50.4434 -43.877,-63.3065 -103.212,-100.9412 -37.816,-23.0428 -73.382,-49.9497 -78.575,-59.6985 -6.577,-10.0368 0.345,-8.5948 18.258,5.9694 36.951,27.1949 73.411,46.3444 66.026,33.2498 -15.347,-23.4195 -90.374,-75.8775 -94.614,-65.9266 -2.826,6.6341 -6.69,4.3849 -9.114,-4.7864 -2.107,-14.1627 -46.817,-42.2511 -133.582,-83.431 l -31.5,-15.2268 38.191,10.8423 c 20.479,5.7085 56.967,21.2513 79.612,33.9114 24.027,12.9486 48.66,19.5217 55.9,15.9738 8.364,-5.4823 10.296,-4.3573 5.797,3.3738 -6.719,7.9902 -2.882,13.8452 17.828,25.3802 89.738,51.1887 207.493,207.1626 238.249,316.1299 9.437,34.4675 17.805,63.6556 18.352,64.4926 0.548,0.837 18.113,-10.6744 38.474,-25.2128 31.525,-23.0504 42.081,-25.1852 66.974,-16.3904 42.314,15.3117 51.75,49.7787 19.967,70.607 -19.238,12.6057 -26.449,12.5501 -36.315,-2.5061 -11.511,-17.5645 -10.674,-18.1126 9.229,-9.6344 24.345,7.9587 38.073,-9.4073 23.273,-31.9898 -22.472,-34.2924 -75.6,-15.0197 -105.419,37.9979 -13.496,23.1911 -16.579,62.2744 -5.215,63.196 2.77,0.5771 41.881,0.053 89.589,-0.1241 127.316,-0.9358 268.127,-25.0631 421.886,-73.2176 62.56,-19.4767 76.75,-25.1892 203.368,-78.273 189.782,-78.9351 446.966,-228.3414 454.46,-264.3382 2.018,-9.6918 23.533,-29.7695 48.625,-46.2125 57.424,-36.4357 168.758,-50.8107 267.377,-35.3319 75.34,12.7994 97.464,21.0176 134.098,53.2033 19.009,16.236 20.914,20.9673 8.367,29.1885 z m -1734.385,323.5677 -25.412,-13.2371 19.557,17.0735 c 11.02,9.5177 33.346,27.1677 49.615,39.2223 l 30.894,21.6008 -24.203,-25.9853 c -13.76,-13.6996 -36.086,-31.3496 -50.451,-38.6742 z"
           inkscape:connector-curvature="0" />
        <path
           style="fill:#000000;stroke:none"
           id="path4652-8-5"
           d="m 24378.568,8381.331 c -3.767,19.6424 -51.027,69.6348 -105.999,112.0405 -46.966,37.8317 -113.318,128.9657 -120.853,168.2499 -8.098,42.2305 -29.987,76.7248 -50.383,76.8862 -14.314,0.3094 -21.594,22.333 -49.399,151.4056 -18.958,82.9136 -37.765,159.7464 -41.801,170.1723 -4.039,10.4262 -15.349,42.8765 -23.947,71.775 -88.052,273.3072 -244.126,550.8788 -381.392,677.287 l -49.266,44.5179 34.131,50.329 c 19.239,27.1092 42.297,66.1512 52.845,85.483 25.709,51.7706 60.918,64.6306 99.542,38.4366 25.75,-17.463 29.221,-24.942 22.643,-38.4232 -7.75,-12.6859 -13.454,-14.7983 -24.97,-7.8434 -12.498,6.7681 -15.257,5.2201 -12.807,-7.5467 4.52,-23.5712 50.114,-11.772 53.263,14.2874 5.274,46.8309 -36.446,78.5419 -91.068,66.0299 -31.239,-7.01 -32.409,-6.216 -19.924,34.872 5.032,16.237 12.727,71.678 18.229,122.627 17.005,166.177 -25.4,334.197 -118.847,471.046 -44.195,65.855 -42.809,42.702 2.473,-34.144 l 39.284,-66.798 -36.433,30.688 c -21.821,18.216 -51.916,31.789 -73.671,33.728 -38.221,2.851 -63.984,-6.161 -60.97,-21.876 1.13,-5.892 8.005,-4.574 16.883,2.221 42.432,33.592 137.993,-34.63 180.398,-128.32 22.938,-50.585 40.253,-167.414 34.965,-240.723 -3.391,-56.653 -16.534,-131.468 -22.198,-128.48 -2.341,1.587 -1.385,23.153 3.121,47.438 7.883,54.457 -32.317,253.45 -55.831,280.504 -14.007,14.622 -14.613,12.471 -2.092,-15.673 28.293,-67.887 45.822,-207.076 36.002,-283.29 -8.193,-68.774 -41.988,-200.4964 -50.183,-194.9397 -2.152,0.6045 -5.421,33.5798 -6.686,72.0287 -5.865,126.154 -70.293,286.894 -160.768,402.931 -35.328,46.172 -112.35,102.677 -174.693,130.432 -67.819,29.76 -66.54,17.786 2.031,-15.901 95.534,-46.846 203.645,-164.591 250.046,-273.806 41.759,-100.941 52.09,-133.58 59.047,-196.393 9.216,-74.599 10.373,-101.8693 4.021,-111.2329 -1.585,-2.3417 -8.783,29.8799 -15.106,73.4689 -6.136,42.607 -14.88,77.586 -19.79,76.644 -3.928,-0.752 -4.09,-21.149 1.6,-45.513 4.709,-24.553 5.53,-44.759 0.62,-45.701 -3.93,-0.754 -11.059,15.189 -14.826,34.831 -22.83,113.735 -154.85,308.352 -244.073,359.463 -16.009,9.148 -9.027,-0.71 19.589,-27.809 61.118,-58.536 96.635,-105.69 149.615,-201.425 54.151,-96.528 63.312,-128.373 26.733,-91.604 -25.67,27.659 -98.776,58.442 -122.158,52.939 -12.767,-2.448 -12.578,-3.429 1.13,-5.893 33.688,-5.757 80.546,-32.409 115.39,-65.437 44.774,-42.324 48.58,-56.867 10.104,-36.755 -16.992,8.96 -34.402,14.786 -40.292,13.655 -4.912,-0.941 4.829,-9.256 21.82,-18.216 16.992,-8.961 40.172,-28.952 50.437,-45.3107 21.324,-31.5491 43.145,-124.0943 31.695,-133.4178 -8.5,-8.759 -138.38,10.1165 -173.763,24.7136 -22.091,9.0004 -30.245,19.6556 -35.705,48.1368 -9.795,51.0695 18.968,92.2231 63.877,91.6721 19.224,0.632 28.856,3.497 23.798,8.637 -14.192,15.605 -63.756,-2.044 -85.941,-29.719 -16.439,-20.4627 -20.489,-36.5123 -15.215,-64.0115 8.852,-46.1583 -5.611,-39.7676 -57.473,23.5975 -24.876,28.8311 -44.572,67.819 -59.317,112.849 l -21.417,69.204 16.13,-68.183 c 20.127,-83.707 55.415,-134.9781 134.965,-194.0523 31.978,-23.3955 56.518,-45.1635 54.931,-47.5042 -0.606,-2.1526 -23.72,1.5613 -49.55,8.8258 -130.324,37.1184 -220.838,148.0546 -272.904,334.5877 -24.202,89.035 -32.166,98.707 -17.287,21.122 31.307,-157.931 105.422,-284.2318 200.308,-338.3279 24.998,-13.5348 42.743,-26.4228 38.814,-27.1759 -19.641,-3.7677 -102.152,28.2658 -137.642,54.0424 -22.427,16.0634 -33.379,20.0722 -25.415,10.3994 22.724,-28.2254 82.686,-59.4913 143.751,-75.2717 48.338,-13.1311 50.678,-14.7185 18.123,-14.8532 -135.519,0.4845 -234.83,40.4953 -368.519,148.2438 l -45.794,37.0382 41.637,-41.9084 c 59.949,-57.7424 160.083,-117.9594 231.117,-137.9378 75.151,-20.207 187.515,-22.0775 277.075,-5.9199 87.595,15.7804 72.472,-11.5565 -17.314,-31.8311 -17.491,-4.3722 -19.873,-7.8836 -8.921,-11.8934 22.091,-8.9999 -12.364,-25.79 -93.313,-44.3689 -57.567,-13.077 -75.999,-12.5384 -144.315,3.8882 -42.862,11.1262 -86.937,17.947 -97.551,14.8937 -11.785,-2.2609 -5.933,-6.2294 16.991,-8.961 45.245,-7.6149 84.367,-20.476 69.824,-24.2831 -27.499,-5.2738 -117.381,12.1079 -113.184,22.0773 2.799,6.6455 -1.507,7.8567 -9.781,3.2149 -11.638,-8.3407 -62.921,4.2251 -152.871,37.8854 l -32.853,12.0272 34.361,-19.8844 c 18.348,-10.7353 54.903,-26.1261 79.75,-33.5792 26.02,-8.247 47.883,-21.3644 50.371,-29.0334 1.883,-9.8206 4.038,-10.4253 6.457,-1.8157 1.063,10.3857 7.937,11.7044 30.633,4.8568 99.206,-28.8309 293.165,-4.8702 392.828,48.8623 31.319,17.2068 58.105,31.5078 59.087,31.696 0.983,0.1892 4.938,-20.4358 8.665,-45.1764 5.381,-38.6789 11.193,-47.7463 34.83,-59.5045 40.441,-19.7363 71.762,-2.5291 64.604,34.7905 -4.331,22.588 -9.391,27.7273 -27.069,24.3369 -20.623,-3.9545 -20.435,-4.9374 -0.496,-13.3319 22.654,-11.9465 19.736,-33.8891 -6.781,-38.974 -40.266,-7.7237 -63.394,43.844 -46.066,102.1518 7.266,25.8301 33.19,55.2402 41.76,47.7186 2.342,-1.5872 29.182,-30.0414 62.25,-64.4285 87.917,-92.0883 168.572,-210.0085 240.978,-353.9468 29.544,-58.4821 35.315,-72.6483 85.295,-200.5244 75.366,-191.227 147.018,-479.8981 126.38,-510.3298 -5.556,-8.1925 -5.001,-37.6162 0.647,-67.0786 13.789,-66.5943 80.935,-156.5585 160.674,-216.6149 61.616,-45.2031 82.914,-55.3741 131.521,-59.2893 24.89,-2.3541 29.611,-0.431 26.786,14.3012 z m -974.459,1470.7875 -27.189,9.0408 25.871,-2.1663 c 14.503,-1.2919 42.715,-5.0456 62.692,-8.3415 l 37.01,-7.1567 -35.502,-0.6999 c -19.413,0.3502 -47.625,4.104 -62.882,9.3236 z"
           inkscape:connector-curvature="0" />
        <path
           style="fill:#000000;stroke:none"
           id="path4652-1-8-5"
           d="m 23775.961,8295.8481 c 13.193,15.0328 23.64,83.0304 23.365,152.4567 1.029,60.2992 32.231,168.6249 58.614,198.6886 28.364,32.3199 42.154,70.7754 29.76,86.9741 -8.544,11.4893 4.372,30.7557 89.185,131.9464 53.812,65.8658 102.913,127.8828 108.666,137.469 5.753,9.587 24.422,38.44 41.954,62.967 161.681,237.296 284.969,530.9034 300.479,716.862 l 4.895,66.2192 60.681,3.9567 c 33.21,1.4568 78.186,7.2237 99.922,10.7665 56.648,11.4873 88.414,-8.4076 91.452,-54.9779 2.024,-31.0466 -1.749,-38.3789 -16.43,-41.4616 -14.771,-1.672 -19.941,1.5336 -21.521,14.8949 -2.33,14.0205 -5.245,15.2471 -13.82,5.4765 -15.83,-18.0393 21.475,-46.7858 43.977,-33.2718 40.205,24.5884 39.623,76.9865 -3.786,112.4213 -24.712,20.3558 -24.804,21.7674 15.293,37.1363 15.908,5.9977 64.396,33.9608 107.991,60.895 141.613,88.596 248.208,225.222 298.862,383.002 24.85,75.315 7.424,60.008 -25.434,-22.916 l -28.608,-72.019 1.857,47.598 c 0.982,28.409 -6.78,60.498 -18.606,78.86 -21.214,31.922 -44.145,46.725 -54.699,34.698 -3.958,-4.508 1.303,-9.127 12.118,-11.965 52.567,-12.869 57.382,-130.185 9.461,-221.177 -25.848,-49.161 -107.44,-134.554 -168.552,-175.387 -46.801,-32.104 -113.926,-67.658 -115.046,-61.3554 -0.183,2.8239 17.426,15.3084 39.36,26.6604 47.829,27.212 180.226,181.107 187.145,216.281 2.945,20.032 0.874,19.188 -13.654,-7.977 -36.215,-64.01 -135.324,-163.301 -201.514,-202.337 -59.317,-35.7543 -184.044,-89.9463 -184.687,-80.068 -0.844,2.0718 23.178,24.8953 52.752,49.4996 95.98,82.0784 183.309,231.6194 219.359,374.2744 14.758,56.234 12.076,151.721 -4.292,217.972 -18.144,71.803 -26.811,63.443 -11.305,-11.367 21.674,-104.168 -4.897,-261.796 -62.622,-365.472 -54.041,-94.934 -73.462,-123.128 -118.774,-167.181 -53.228,-53.0728 -74.044,-70.729 -85.333,-71.465 -2.823,-0.1828 18.192,25.2794 48.719,57.031 29.865,31 52.106,59.377 48.349,62.676 -3.006,2.639 -19.204,-9.756 -34.943,-29.206 -16.49,-18.79 -31.937,-31.844 -35.694,-28.546 -3.007,2.64 5.199,18.055 18.391,33.087 75.762,87.847 148.338,311.538 133.905,413.346 -2.607,18.254 -6.105,6.688 -9.926,-32.535 -8.683,-84.182 -24.101,-141.167 -67.144,-241.761 -42.952,-102.006 -62.464,-128.788 -55.898,-77.34 6.075,37.244 -14.51,113.849 -33.206,128.926 -9.773,8.577 -10.431,7.825 -3.958,-4.509 16.136,-30.127 23.867,-83.476 19.186,-131.259 -5.922,-61.327 -15.063,-73.259 -22.811,-30.54 -3.358,18.915 -9.446,36.232 -13.957,40.19 -3.759,3.298 -4.341,-9.495 -0.983,-28.408 3.36,-18.914 1.812,-49.486 -4.802,-67.631 -11.811,-36.2018 -71.467,-110.243 -85.855,-106.9286 -12.133,1.334 -76.971,115.4456 -87.171,152.3356 -6.458,22.964 -3.052,35.94 16.077,57.737 34.3,39.084 84.444,41.645 111.578,5.857 12.301,-14.786 20.477,-20.632 21.429,-13.482 3.605,20.784 -40.756,49.07 -76.22,49.592 -26.246,0.414 -41.401,-6.243 -59.869,-27.288 -31.002,-35.327 -34.837,-19.985 -16.658,59.855 7.486,37.335 26.169,76.82 52.661,116.102 l 41.479,59.395 -43.917,-54.594 c -53.719,-67.277 -72.528,-126.609 -70.321,-225.669 1.165,-39.607 -0.95,-72.34 -3.773,-72.525 -2.072,-0.843 -13.33,19.68 -23.453,44.53 -50.71,125.66 -18.71,265.217 96.567,420.832 55.424,73.766 58.169,85.992 6.059,26.614 -105.443,-121.67 -159.64,-257.713 -144.086,-365.824 4.661,-28.042 5.382,-49.961 2.376,-47.323 -15.034,13.193 -40.403,97.989 -41.845,141.828 -1.088,27.566 -4.646,38.672 -7.391,26.446 -8.331,-35.265 3.803,-101.792 28.834,-159.683 19.312,-46.218 19.495,-49.04 -0.599,-23.424 -82.814,107.27 -112.204,210.229 -109.224,381.904 l 1.121,58.889 -7.517,-58.596 c -8.776,-82.77 5.166,-198.783 33.008,-267.119 30.187,-71.727 97.694,-161.57 165.431,-222.3457 66.234,-59.4559 35.371,-64.3027 -35.756,-5.8745 -14.19,11.1211 -18.422,10.8445 -14.865,-0.2604 6.458,-22.9632 -27.947,-6.0739 -92.311,46.4186 -45.664,37.413 -56.555,52.292 -85.53,116.304 -17.531,40.665 -39.206,79.642 -48.133,86.147 -9.018,7.914 -8.558,0.859 3.36,-18.914 21.765,-40.39 35.631,-79.168 23.698,-70.024 -21.045,18.468 -62.505,100.089 -52.061,102.898 6.964,1.868 5.278,6.011 -3.466,9.694 -13.727,4.064 -35.294,52.26 -63.947,143.928 l -10.674,33.318 5.398,-39.331 c 2.791,-21.076 13.085,-59.378 22.455,-83.569 9.464,-25.601 12.53,-50.912 8.006,-57.584 -6.596,-7.516 -5.752,-9.586 2.531,-6.212 8.85,5.538 14.112,0.921 22.64,-21.199 38.148,-96.009 176.137,-234.4032 279.737,-280.0848 32.812,-14.1589 60.544,-26.5235 61.296,-27.1829 0.753,-0.6593 -13.099,-16.4425 -30.341,-34.5735 -27.229,-27.9938 -30.818,-38.1487 -25.588,-64.026 9.25,-44.0398 42.06,-58.1986 67.125,-29.6374 15.17,17.2877 16.122,24.4352 2.593,36.3088 -15.784,13.8517 -16.443,13.1004 -10.83,-7.7926 4.48,-25.218 -14.634,-36.3846 -34.928,-18.5745 -30.817,27.0432 -4.309,76.957 52.355,99.0746 24.849,10.1238 63.979,7.7149 63.305,-3.6665 0.184,-2.8225 -5.799,-41.4778 -12.641,-88.6924 -18.716,-125.9355 -62.282,-261.994 -131.45,-407.5159 -28.027,-59.2254 -35.665,-72.4782 -105.921,-190.436 -104.679,-176.8905 -288.555,-410.6741 -325.247,-413.0659 -9.879,-0.6442 -32.765,-19.1428 -52.553,-41.6906 -44.102,-51.7695 -73.892,-160.0037 -72.344,-259.8166 2.145,-76.39 7.192,-99.4453 33.942,-140.2184 13.422,-21.0903 17.841,-23.638 27.734,-12.3625 z m 562.737,1672.1579 -9.556,27.012 14.174,-21.751 c 7.883,-12.241 22.24,-36.8141 31.904,-54.608 l 17.073,-33.6084 -22.35,27.5953 c -11.643,15.5389 -26,40.1131 -31.245,55.3601 z"
           inkscape:connector-curvature="0" />
      </g>
    </g>
  </g>
</svg>
