<?xml version="1.0" encoding="UTF-8" standalone="no"?>
<svg
   xmlns:dc="http://purl.org/dc/elements/1.1/"
   xmlns:cc="http://creativecommons.org/ns#"
   xmlns:rdf="http://www.w3.org/1999/02/22-rdf-syntax-ns#"
   xmlns:svg="http://www.w3.org/2000/svg"
   xmlns="http://www.w3.org/2000/svg"
   xmlns:sodipodi="http://sodipodi.sourceforge.net/DTD/sodipodi-0.dtd"
   xmlns:inkscape="http://www.inkscape.org/namespaces/inkscape"
   version="1.0"
   width="744.09448"
   height="1052.3622"
   viewBox="0 0 595.27559 841.88975"
   preserveAspectRatio="xMidYMid meet"
   id="svg2"
   inkscape:version="0.48.4 r9939"
   sodipodi:docname="geometric-patterns-coloring-pages-002.svg">
  <defs
     id="defs18" />
  <sodipodi:namedview
     pagecolor="#ffffff"
     bordercolor="#666666"
     borderopacity="1"
     objecttolerance="10"
     gridtolerance="10"
     guidetolerance="10"
     inkscape:pageopacity="0"
     inkscape:pageshadow="2"
     inkscape:window-width="640"
     inkscape:window-height="480"
     id="namedview16"
     showgrid="false"
     inkscape:zoom="1.2219841"
     inkscape:cx="374.17513"
     inkscape:cy="259.10602"
     inkscape:current-layer="g6" />
  <metadata
     id="metadata4">
Created by potrace 1.11, written by Peter Selinger 2001-2013
<rdf:RDF>
  <cc:Work
     rdf:about="">
    <dc:format>image/svg+xml</dc:format>
    <dc:type
       rdf:resource="http://purl.org/dc/dcmitype/StillImage" />
    <dc:title></dc:title>
  </cc:Work>
</rdf:RDF>
</metadata>
  <g
     transform="matrix(0.1,0,0,-0.1,0,841.88976)"
     id="g6"
     style="fill:#000000;stroke:none">
    <path
       d="m 2904.4781,7045.2185 c -23.7542,-6.1584 -59.8254,-19.3552 -79.1806,-29.0328 -48.3882,-25.5138 -126.6889,-104.6944 -146.0442,-147.8038 -8.7978,-19.3552 -16.7159,-30.7924 -16.7159,-24.6339 0,21.9946 -65.9838,72.1423 -108.2135,82.6997 -62.4646,14.9563 -144.2846,13.1967 -199.711,-3.5192 -68.6231,-20.235 -182.9951,-88.8582 -293.8479,-174.1972 -102.9347,-80.0604 -114.3719,-87.9784 -176.8366,-124.0496 -78.3008,-45.7488 -176.8366,-57.186 -217.3067,-24.634 -28.1531,21.9946 -42.2296,8.7979 -36.0711,-31.6722 9.6776,-60.7051 -31.6723,-212.9078 -75.6615,-278.0118 -38.7105,-57.186 -77.421,-74.7816 -187.394,-86.2188 -51.9073,-5.2787 -109.0933,-15.8362 -127.5687,-22.8744 -64.2243,-26.3936 -124.9294,-73.9019 -157.4814,-122.29 -35.1914,-53.6669 -65.9838,-158.3612 -55.4264,-188.2738 6.1585,-16.7159 4.3989,-17.5957 -21.1148,-11.4372 -15.83611,3.5191 -55.42641,6.1584 -89.73801,5.2787 -74.7817,-0.8798 -146.0442,-30.7925 -197.0717,-80.9402 -40.47,-39.5903 -94.1369,-131.0878 -107.3336,-180.3557 -25.5138,-95.0167 -7.9181,-195.3121 51.0274,-289.449 24.634,-39.5903 24.634,-42.2297 3.5192,-42.2297 -87.0987,0 -195.31211,-132.8474 -224.34498,-277.132 -18.47547,-92.3773 -7.91806,-187.394 39.59028,-360.7115 24.63396,-91.4976 26.39353,-240.1811 3.51914,-289.449 -22.87439,-48.3881 -62.46468,-84.4593 -93.25713,-84.4593 -34.31158,0 -33.43179,-22.8744 0.87979,-51.9073 29.03288,-24.6339 51.02748,-89.7379 60.70511,-176.8366 7.03827,-66.8636 -5.2787,-219.0662 -18.47547,-235.7821 -7.91806,-9.6777 -11.43719,-49.268 -11.43719,-137.2464 0,-115.2517 1.75957,-128.4485 24.63396,-185.6344 32.55201,-83.5795 109.09323,-173.3175 172.43769,-203.2302 l 47.5083,-22.8744 -21.9946,-14.0765 c -43.1094,-29.0329 -83.57945,-87.9784 -94.13686,-137.2463 -6.15849,-32.5521 -7.03827,-140.7655 -0.87979,-172.4378 12.31698,-59.8253 102.93475,-175.9568 137.24635,-175.9568 5.2787,0 14.9563,-6.1585 21.1148,-13.1967 29.9127,-36.0712 220.8258,-70.3828 252.4981,-45.7488 8.7978,6.1585 9.6776,1.7595 4.3989,-21.1148 -3.5192,-16.7159 -6.1585,-63.3445 -5.2787,-104.6944 0.8798,-91.4975 20.235,-142.525 90.61781,-237.5417 61.5848,-82.6997 58.9455,-80.0604 106.4538,-109.973 21.9946,-13.1968 41.3499,-27.2733 43.9892,-30.7925 8.7979,-12.3169 139.006,-70.3827 207.6291,-92.3773 82.6997,-27.2733 133.7272,-55.4264 186.5143,-103.8145 44.869,-42.2297 63.3444,-73.9019 63.3444,-111.7326 0,-31.6723 4.3989,-32.552 53.6669,-4.399 47.5083,26.3936 125.8091,44.869 201.4705,47.5084 30.7925,0.8798 58.9456,3.5191 61.5849,5.2787 6.1585,3.5191 142.5251,-18.4755 170.6782,-27.2733 9.6776,-3.5191 55.4264,-27.2733 101.1751,-54.5466 127.5688,-73.9019 175.9569,-95.8965 235.7822,-108.2135 52.7871,-10.5574 109.0932,-6.1585 153.0825,13.1968 8.7978,3.5191 14.0765,1.7595 14.0765,-5.2787 2.6394,-40.4701 21.1148,-100.2954 41.3499,-130.2081 23.7541,-36.0711 94.1369,-96.7762 139.0059,-119.6506 33.4318,-17.5957 124.0495,-27.2733 175.9568,-20.2351 87.9784,13.1968 208.5089,96.7763 240.1811,165.3995 8.7978,20.235 18.4755,36.0711 21.9946,36.0711 2.6393,0 14.0765,-12.317 25.5137,-26.3935 10.5574,-14.9563 41.3499,-36.951 69.503,-49.2679 43.1094,-19.3553 58.9455,-21.9946 111.7326,-17.5957 78.3008,5.2787 88.8582,7.918 131.0878,25.5137 18.4755,8.7979 35.1914,14.9564 36.9509,14.9564 7.9181,0 169.7984,102.9347 201.4706,127.5687 48.3882,38.7105 146.0442,92.3773 224.345,123.1697 55.4264,21.9947 77.421,26.3936 142.525,26.3936 72.1423,0 79.1806,-1.7596 117.0113,-29.0329 21.9946,-14.9563 41.3499,-28.1531 43.9892,-28.1531 1.7596,0 6.1585,18.4755 8.7979,42.2296 11.4372,80.0604 89.738,266.5747 135.4867,322.0011 14.9564,17.5956 123.1698,72.1423 159.241,80.0603 62.4647,13.1968 161.0005,74.7817 197.9514,122.29 12.317,15.8361 29.0329,57.186 37.8307,91.4976 9.6777,36.9509 19.3553,59.8253 24.634,56.3062 16.7159,-14.9564 82.6997,-28.1531 140.7655,-28.1531 51.0275,0 69.5029,4.3989 117.0113,28.1531 77.421,38.7105 155.7218,117.891 194.4323,196.1918 l 30.7924,61.5849 0,123.1698 c -0.8798,137.2463 -10.5574,169.7984 -66.8636,222.5854 l -27.2733,25.5138 39.5903,9.6776 c 25.5137,7.0383 57.186,25.5137 87.9784,51.9072 62.4647,53.6669 75.6615,72.1423 107.3337,147.8038 23.7542,56.3062 26.3935,70.3827 25.5137,158.3611 0,70.3828 -5.2787,115.2518 -18.4754,163.6399 -18.4755,65.9838 -34.3116,158.3612 -42.2297,240.1811 -2.6393,37.8307 20.2351,197.9514 35.1914,235.7821 6.1585,16.7159 51.9073,53.6669 77.421,62.4647 21.9946,7.9181 14.0765,27.2733 -13.1968,32.552 -63.3444,12.317 -187.394,150.4431 -217.3067,241.9407 -20.235,61.5849 -20.235,160.1207 0.8798,276.2522 26.3936,144.2846 7.0383,250.7385 -55.4264,303.5256 -28.1531,23.7541 -31.6722,31.6722 -14.0765,31.6722 19.3552,0 64.2242,53.6668 95.8965,113.4922 28.153,54.5466 29.0328,60.7051 29.0328,153.9622 0,89.738 -1.7595,101.1752 -23.7541,141.6452 -14.0766,23.7542 -24.634,48.3882 -24.634,54.5467 0,17.5956 -139.0059,152.2026 -171.5579,166.2792 -16.7159,7.0382 -65.9838,14.9563 -109.973,18.4754 -43.1095,2.6394 -79.1806,8.7979 -79.1806,12.317 0,4.3989 3.5191,7.9181 7.0383,7.9181 11.4372,0 13.1967,87.9784 1.7595,100.2954 -4.3989,6.1585 -16.7159,33.4318 -25.5137,60.7051 -9.6776,27.2733 -21.1148,54.5466 -26.3935,60.7051 -5.2787,6.1585 -28.1531,35.1914 -51.0275,64.2242 -21.9946,29.0329 -43.9892,54.5467 -48.3882,55.4264 -4.3989,1.7596 -13.1967,8.7979 -19.3552,15.8362 -7.0383,7.0382 -14.9563,12.3169 -17.5957,12.3169 -1.7596,0 -29.0329,16.7159 -58.9455,36.0712 -65.1041,43.9892 -156.6016,87.0986 -241.0609,114.3719 -33.4318,10.5574 -79.1806,29.9127 -101.1752,41.3499 -87.0986,49.2679 -178.5962,136.3665 -175.077,168.9186 2.6393,33.4317 -0.8798,42.2296 -18.4755,37.8307 -9.6776,-2.6394 -17.5957,-7.9181 -17.5957,-11.4372 0,-12.317 -80.0603,-52.7871 -115.2517,-58.0658 -45.7488,-7.918 -113.4922,9.6776 -196.1919,50.1477 -68.6232,33.4318 -86.2188,48.3881 -102.055,82.6997 -14.0765,31.6723 -85.339,115.2518 -126.6889,149.5633 -89.738,73.0221 -278.8916,75.6615 -366.87,4.399 -33.4318,-26.3936 -34.3116,-27.2733 -34.3116,-7.0383 0,37.8307 -52.787,133.7272 -97.656,175.9568 -66.8636,64.2243 -121.4102,88.8582 -205.8695,91.4976 -38.7105,1.7596 -89.738,-1.7596 -114.3719,-8.7979 z m 191.7929,-119.6506 c 76.5412,-28.1531 177.7164,-150.4431 185.6345,-222.5854 4.3989,-41.3499 13.1967,-41.3499 60.7051,-6.1585 54.5466,41.3499 110.8528,56.3062 196.1918,51.0275 94.137,-5.2787 157.4814,-39.5903 256.0172,-138.1261 57.186,-56.3062 95.0167,-87.0987 130.2081,-102.9348 93.2571,-43.1094 173.3175,-51.9072 258.6566,-29.9126 20.235,5.2787 27.2733,5.2787 21.1148,-0.8798 -14.0766,-14.0766 -117.8911,-27.2733 -165.3995,-20.2351 -63.3444,7.9181 -169.7983,51.9073 -201.4705,80.9402 -59.8254,56.3062 -151.3229,119.6506 -201.4706,139.8857 -43.1094,17.5957 -70.3827,21.9946 -138.1261,22.8744 -97.6561,1.7595 -133.7272,-12.317 -197.0717,-78.3008 l -38.7105,-39.5903 4.3989,34.3116 c 7.0383,53.6668 -27.2733,133.7272 -81.8199,190.0333 -76.5412,78.3008 -171.5579,95.0167 -297.367,51.9073 -109.0933,-37.8307 -181.2356,-113.4921 -181.2356,-190.9132 l 0,-27.2733 -20.235,32.552 c -23.7542,38.7106 -47.5084,57.186 -116.1315,92.3774 -105.5741,52.787 -219.9461,44.869 -358.952,-24.634 -49.2679,-24.6339 -101.1752,-53.6668 -116.1315,-65.104 -104.6943,-78.3008 -230.5035,-128.4485 -317.6021,-126.6889 -40.4701,0.8798 -39.5903,1.7595 18.4755,8.7978 69.5029,8.7979 142.525,41.3499 212.028,95.0167 25.5137,18.4755 53.6668,36.9509 64.2242,40.4701 9.6776,2.6393 23.7542,10.5574 29.0329,16.7159 16.7159,15.8361 102.9347,71.2625 143.4048,91.4975 62.4647,30.7925 148.6835,54.5467 200.5908,54.5467 90.6178,0 226.1045,-71.2626 226.1045,-119.6507 0,-28.1531 24.634,-10.5574 29.9127,21.9946 3.5191,25.5138 16.7159,44.869 53.6668,80.9402 95.8965,95.0166 229.6237,128.4484 341.3563,87.0986 z m -7.9181,-84.4593 c 78.3008,-26.3935 146.0442,-123.1698 145.1644,-205.8695 0,-44.869 -16.7159,-99.4156 -37.8307,-122.29 -7.918,-8.7978 -14.0765,-20.235 -14.0765,-25.5137 0,-19.3553 25.5137,-10.5574 40.47,14.0765 30.7925,49.2679 146.924,150.4431 188.2739,164.5197 48.3881,14.9563 167.159,7.918 227.8641,-14.9564 26.3935,-9.6776 203.2301,-139.8857 203.2301,-149.5633 0,-10.5574 67.7434,-40.4701 124.9294,-55.4264 29.0328,-7.0383 80.9401,-13.1968 114.3719,-13.1968 34.3116,0 60.7051,-2.6393 58.0658,-5.2787 -13.1968,-13.1967 -108.2135,-31.6722 -183.8749,-35.1913 -62.4647,-3.5192 -96.7763,-1.7596 -131.0879,8.7978 -26.3935,7.9181 -56.3062,14.0766 -66.8636,14.0766 -11.4372,0 -30.7924,4.3989 -44.869,10.5574 -13.1967,5.2787 -26.3935,10.5574 -29.0328,11.4372 -39.5903,9.6776 -96.7763,34.3116 -96.7763,41.3498 0,5.2787 -2.6394,7.9181 -5.2787,4.3989 -2.6394,-2.6393 -21.9946,1.7596 -41.3499,8.7979 -49.2679,18.4755 -211.1482,20.235 -248.0991,1.7596 -39.5903,-19.3553 -103.8145,-63.3445 -120.5304,-82.6998 -14.9564,-16.7159 -14.9564,-16.7159 -9.6777,14.0766 7.0383,51.0275 -11.4372,123.1698 -41.3498,154.842 -73.0221,77.421 -124.9294,95.0167 -188.2738,63.3445 -42.2297,-20.2351 -84.4593,-60.7051 -96.7763,-91.4976 -16.7159,-41.3498 -21.1148,-94.1369 -10.5574,-126.6889 l 7.0383,-21.9946 -25.5138,21.9946 c -14.9563,11.4372 -25.5137,23.7542 -22.8744,27.2733 1.7596,3.5191 -1.7595,4.3989 -8.7978,2.6394 -6.1585,-2.6394 -25.5138,4.3989 -42.2297,14.9563 -95.8964,63.3444 -157.4813,81.8199 -257.7767,75.6614 -60.7051,-4.3989 -87.0987,-11.4372 -164.5197,-44.869 -114.3719,-49.2679 -165.3994,-59.8253 -276.2522,-58.0657 -105.5741,1.7595 -190.9132,18.4754 -256.0172,49.2679 -51.9073,24.6339 -71.2625,42.2296 -36.0711,33.4318 24.6339,-6.1585 153.9622,9.6776 168.0387,21.1148 5.2787,3.5191 21.9946,9.6776 36.0712,13.1968 14.9563,3.5191 40.4701,14.9563 57.186,26.3935 129.3282,83.5795 179.4759,113.4922 233.1428,137.2463 34.3116,15.8361 71.2625,32.552 81.8199,37.8307 11.4372,5.2788 57.186,9.6777 101.1752,10.5575 67.7434,0 87.9784,-3.5192 124.9293,-21.1149 107.3337,-52.787 114.372,-60.7051 184.7547,-226.9843 10.5574,-25.5137 21.1148,-37.8307 32.552,-37.8307 20.2351,0 20.2351,4.3989 -1.7595,34.3116 -32.5521,45.7488 -37.8308,157.4814 -10.5575,208.5088 19.3553,36.951 80.0604,81.82 128.4485,95.8965 27.2734,7.9181 51.0275,18.4755 53.6669,22.8744 8.7978,13.1968 112.6124,8.7978 157.4813,-6.1585 z m -13.1967,-325.5201 c 14.9563,-15.8362 29.0329,-43.9892 32.552,-62.4647 8.7978,-44.869 -9.6776,-126.6889 -31.6722,-145.1644 -16.7159,-14.0766 -24.634,-42.2296 -10.5574,-42.2296 3.5191,0 33.4318,24.6339 67.7433,54.5466 88.8582,77.421 153.9623,104.6943 263.9353,109.973 98.5358,5.2787 148.6835,-2.6394 237.5417,-36.0712 178.5962,-67.7433 396.7827,-69.5029 512.0344,-4.3989 15.8361,8.7979 29.0329,13.1968 29.0329,8.7979 0,-11.4372 -128.4485,-122.29 -196.1919,-169.7984 -24.6339,-17.5957 -163.6398,-87.9784 -265.6948,-134.607 -75.6614,-35.1913 -200.5908,-108.2134 -205.8695,-121.4102 -1.7596,-5.2787 -5.2787,-5.2787 -8.7978,0 -12.317,17.5957 -70.3828,45.7488 -124.0496,59.8253 -72.1423,18.4755 -256.0172,98.5359 -283.2905,122.29 -21.9946,20.2351 -86.2189,110.8529 -86.2189,122.29 0,4.399 9.6777,20.2351 21.9946,36.951 40.4701,52.787 40.4701,124.9293 0,143.4048 -32.552,14.9563 -51.9072,13.1968 -79.1805,-8.7978 -22.8744,-17.5957 -23.7542,-21.9946 -19.3553,-73.0221 2.6394,-37.8307 9.6776,-63.3445 23.7542,-81.82 14.9563,-20.235 17.5957,-32.552 13.1967,-53.6668 -3.5191,-14.9563 -9.6776,-27.2733 -14.0765,-27.2733 -4.3989,0 -7.9181,-6.1585 -7.9181,-14.0765 0,-19.3553 -83.5795,-97.6561 -121.4102,-115.2518 -58.0657,-25.5137 -94.1369,-37.8307 -114.3719,-37.8307 -26.3935,0 -120.5305,-38.7105 -162.7601,-66.8636 -35.1914,-22.8744 -36.9509,-22.8744 -85.3391,14.0766 -16.7159,13.1967 -62.4646,41.3498 -101.1751,61.5848 -38.7105,21.1149 -76.5413,43.1095 -83.5795,49.268 -7.0383,6.1585 -56.3062,33.4318 -109.9731,60.7051 -52.787,27.2733 -112.6123,62.4646 -131.9676,78.3008 -19.3552,15.8361 -57.186,41.3498 -83.5795,57.1859 -44.869,27.2733 -176.8366,136.3666 -182.9951,151.3229 -1.7596,3.5192 14.0765,0.8798 35.1914,-6.1585 115.2517,-36.9509 141.6452,-41.3498 235.7821,-45.7488 85.3391,-2.6393 118.7709,0 214.6674,20.2351 63.3444,13.1967 138.1261,30.7924 167.159,40.4701 65.104,20.235 104.6943,21.1148 175.9568,2.6393 150.4431,-37.8307 226.9843,-83.5795 298.2468,-181.2355 14.0766,-18.4755 30.7925,-33.4318 37.8308,-33.4318 16.7159,0 15.8361,10.5574 -3.5192,36.0711 -75.6614,99.4156 -80.9401,181.2356 -16.7159,243.7002 48.3882,46.6286 117.0113,41.3499 163.6399,-12.3169 z M 1694.7748,6360.7464 c 0,-55.4264 -18.4755,-184.7546 -33.4318,-235.7821 -21.1148,-72.1423 -95.8965,-175.0771 -147.8037,-202.3504 -13.1968,-7.0383 -34.3116,-21.9946 -45.7488,-32.552 -12.317,-11.4372 -26.3935,-20.235 -31.6723,-20.235 -13.1967,0 -83.5795,-73.9019 -112.6123,-118.7709 -13.1968,-19.3552 -27.2733,-51.0275 -31.6723,-70.3827 -8.7978,-35.1914 -22.8744,-184.7547 -20.235,-223.4652 0.8798,-19.3553 0,-19.3553 -31.6722,7.918 -67.7434,59.8254 -143.4049,70.3828 -202.3504,27.2734 -50.14771,-36.0712 -71.26251,-66.8636 -78.30081,-111.7326 -10.5574,-73.9019 19.3553,-139.0059 82.69971,-181.2356 16.7159,-10.5574 19.3553,-15.8361 10.5574,-18.4754 -7.0382,-2.6394 -30.7924,-9.6777 -52.78701,-15.8362 -81.8199,-24.6339 -150.4431,-82.6997 -187.394,-160.1207 -26.3936,-56.3062 -56.3062,-182.1153 -64.2243,-267.4544 -5.2787,-67.7434 -66.8636,-234.9024 -98.5358,-270.0937 -9.6776,-10.5574 -35.1914,-46.6286 -57.186,-80.9402 -56.30618,-85.339 -81.81992,-108.2134 -49.2679,-42.2296 14.07654,27.2733 25.5137,58.9455 25.5137,68.6232 0,10.5574 4.399,23.7541 9.6777,29.0328 14.0765,14.0766 12.3169,222.5854 -1.7596,263.9353 -17.59569,50.1477 -16.7159,241.9406 1.7596,263.0555 7.0382,9.6776 26.3935,38.7105 42.2296,65.104 29.9127,48.3881 113.4922,124.9293 154.842,140.7655 29.9127,11.4372 131.0879,14.0765 183.8749,4.3989 58.06581,-9.6776 51.90731,8.7978 -8.7978,29.9126 -77.421,25.5138 -131.9677,85.3391 -156.6016,168.9186 -43.1094,145.1644 27.2733,270.9735 178.5962,318.4819 67.74341,21.1148 92.37731,18.4755 145.16441,-14.9563 51.9072,-33.4318 81.8199,-66.8636 90.6177,-101.1752 6.1585,-27.2733 28.1531,-55.4264 38.7105,-48.3882 14.9564,8.7979 7.9181,35.1914 -21.9946,80.0604 -42.2296,64.2242 -51.9072,101.1752 -52.787,191.793 0,71.2625 3.5191,85.339 28.1531,138.1261 16.7159,34.3116 39.5903,67.7434 56.3062,80.9401 44.869,34.3116 146.9239,76.5412 203.2301,84.4593 78.3008,11.4372 133.7272,51.0275 164.5197,117.8911 25.5137,56.3062 31.6722,73.0221 39.5902,115.2517 2.6394,14.9563 7.0383,32.552 8.7979,39.5903 1.7596,7.0383 3.5191,25.5137 3.5191,39.5903 1.7596,54.5466 18.4755,0.8798 18.4755,-58.9456 z m 1324.955,43.9893 c 6.1585,-21.1149 -1.7596,-54.5467 -20.2351,-83.5795 -12.3169,-18.4755 -15.8361,-19.3553 -26.3935,-8.7979 -7.0383,7.0383 -14.9563,28.1531 -17.5957,47.5084 -3.5191,29.0328 -0.8798,39.5902 14.0766,54.5466 20.235,20.235 41.3498,16.7159 50.1477,-9.6776 z m 1324.0752,-28.1531 c 29.0329,-31.6723 71.2625,-67.7434 94.1369,-80.9402 22.8744,-13.1967 58.9455,-38.7105 80.9401,-56.3062 21.9946,-17.5957 71.2625,-50.1477 109.9731,-71.2625 180.3557,-97.656 292.0883,-277.132 267.4543,-430.2145 -6.1584,-39.5902 -13.1967,-53.6668 -39.5902,-76.5412 -33.4318,-29.0329 -73.9019,-80.0603 -73.9019,-92.3773 0,-14.9564 34.3116,-6.1585 39.5903,10.5574 17.5957,55.4264 129.3282,85.3391 244.58,66.8636 l 69.5029,-11.4372 65.9838,-65.9838 c 58.9456,-58.9456 66.8636,-71.2625 78.3008,-117.8911 17.5957,-76.5412 4.399,-169.7983 -32.552,-215.5471 -38.7105,-49.2679 -94.1369,-71.2625 -170.6781,-67.7434 -33.4318,1.7596 -62.4647,0 -63.3445,-3.5191 -7.0382,-20.2351 1.7596,-24.634 42.2297,-24.634 82.6997,0 147.8037,-48.3881 192.6727,-144.2846 25.5137,-54.5466 26.3935,-58.0658 26.3935,-199.711 0,-177.7164 18.4755,-256.897 80.9402,-346.635 15.8361,-22.8744 35.1913,-50.1477 42.2296,-59.8253 7.0383,-10.5574 -9.6776,0.8798 -37.8307,24.6339 -57.186,49.268 -164.5196,184.7547 -164.5196,208.5089 0,8.7978 -3.5192,15.8361 -8.7979,15.8361 -12.317,0 -32.552,92.3774 -39.5903,180.3558 -0.8798,9.6776 -3.5191,23.7541 -6.1585,30.7924 -3.5191,7.0383 -7.918,36.0712 -9.6776,63.3445 -8.7978,92.3773 -74.7816,185.6344 -161.0005,227.8641 l -43.1094,21.1148 52.787,26.3935 c 74.7817,37.8307 109.9731,91.4976 109.9731,167.159 0,65.1041 -7.9181,89.738 -41.3499,131.9676 -31.6722,39.5903 -77.421,57.186 -146.0442,57.186 -56.3062,0 -128.4485,-19.3552 -140.7655,-37.8307 -3.5191,-6.1585 -3.5191,19.3553 -0.8797,55.4264 7.0382,78.3008 7.918,67.7434 -4.399,148.6835 -14.0765,95.0167 -44.8689,147.8038 -139.8856,243.7003 -44.869,44.8689 -88.8582,84.4592 -96.7763,87.0986 -18.4755,7.0383 -135.4868,138.1261 -161.8803,180.3557 -41.3498,67.7434 -91.4975,211.1482 -73.9019,211.1482 3.5192,0 29.9127,-25.5137 58.9456,-56.3061 z m -2582.1666,-66.8636 25.5137,-101.1752 0.8798,-336.0776 1.7596,-336.0775 -23.7542,-7.9181 c -31.6722,-11.4372 -79.1806,-50.1477 -168.0388,-137.2463 -41.3498,-39.5903 -87.9784,-81.82 -103.8145,-93.2572 -36.0712,-23.7541 -124.0496,-52.787 -163.6399,-52.787 -25.5137,0 -30.7924,4.3989 -44.869,34.3116 -32.552,72.1423 -93.2571,106.4539 -126.6889,70.3827 -27.2733,-29.0329 -29.9126,-48.3881 -13.1967,-78.3008 18.4754,-29.9126 66.8636,-51.9072 104.6943,-46.6285 24.6339,3.5191 28.1531,0 57.186,-53.6669 l 30.7924,-58.0657 0,-130.2081 c -0.8798,-102.9347 -3.5191,-135.4868 -14.9563,-158.3611 -14.0766,-26.3936 -36.951,-127.5687 -44.869,-190.9132 -1.7596,-17.5957 -8.7979,-27.2733 -20.2351,-29.9127 -8.7978,-1.7595 -60.7051,-32.552 -115.2517,-67.7434 -54.5466,-36.0711 -101.1752,-65.104 -103.8145,-65.104 -2.6394,0 -9.6777,-4.3989 -15.8361,-8.7978 -39.59031,-33.4318 -212.90781,-123.1698 -236.66201,-123.1698 -7.0383,0 -15.8361,-2.6394 -18.4755,-5.2787 -13.1967,-14.0766 -172.4377,-71.2625 -214.66729,-77.421 -6.15849,-0.8798 -14.07655,-4.3989 -16.7159,-7.9181 -3.51914,-3.5191 -14.95633,-6.1585 -24.63396,-6.1585 -15.83611,0 -14.95633,2.6394 7.91806,16.7159 39.59029,24.634 152.20269,139.0059 169.79839,172.4377 96.7762,188.2738 131.0878,270.9736 146.9239,356.3126 21.1148,114.372 37.8307,154.842 96.7763,233.1428 62.4646,82.6997 136.36651,123.1698 238.42151,131.0879 23.7542,1.7595 43.1094,4.3989 43.1094,5.2787 0,0.8798 7.0383,2.6393 15.8361,4.3989 46.6286,8.7978 25.5138,27.2733 -38.7105,33.4318 -45.7488,3.5191 -58.9455,8.7978 -84.4593,34.3116 -33.4318,31.6722 -55.4264,73.9019 -55.4264,106.4539 0,29.0328 43.1095,82.6997 74.7817,94.1369 56.3062,19.3552 145.1644,-34.3116 164.5196,-99.4156 10.5574,-39.5903 23.7542,-60.7051 32.5521,-55.4264 2.6393,1.7595 4.3989,50.1477 3.5191,106.4538 0,57.186 1.7596,113.4922 6.1585,126.689 3.5191,12.3169 11.4372,51.0275 17.5957,84.4593 6.1585,34.3115 22.8744,81.8199 36.9509,107.3336 31.6722,55.4264 109.973,134.607 172.4377,172.4377 25.5137,14.9564 48.3881,35.1914 51.0275,43.1094 2.6393,8.7979 7.918,15.8362 12.317,15.8362 12.3169,0 60.7051,91.4975 84.4592,159.2409 25.5138,73.9019 36.951,212.9078 22.8744,287.6894 -14.0765,79.1806 3.5192,38.7105 29.9127,-68.6231 z m 63.3445,53.6668 c 37.8307,-33.4318 80.0603,-65.9838 94.1369,-73.9019 14.9563,-7.0382 53.6668,-33.4318 86.2188,-58.0657 33.4318,-23.7542 86.2189,-57.186 118.7709,-72.1423 32.552,-15.8361 81.8199,-43.9892 109.973,-62.4647 28.1531,-18.4755 53.6668,-33.4318 56.3062,-33.4318 2.6393,0 14.9563,-7.0383 27.2733,-16.7159 13.1968,-8.7979 33.4318,-19.3553 45.7488,-22.8744 12.317,-3.5191 46.6285,-25.5137 76.5412,-47.5083 l 53.6668,-40.4701 -51.0274,-46.6286 c -29.0329,-25.5137 -54.5467,-54.5466 -57.186,-63.3444 -3.5192,-9.6777 -9.6776,-15.8362 -14.0766,-13.1968 -4.3989,2.6394 -5.2787,-0.8798 -2.6393,-7.9181 2.6393,-7.918 1.7595,-14.0765 -3.5192,-14.0765 -19.3552,0 -64.2242,-114.372 -72.1423,-185.6345 -4.3989,-38.7105 -10.5574,-73.9018 -13.1967,-78.3008 -4.3989,-7.0382 -33.4318,1.7596 -97.6561,30.7925 -22.8744,10.5574 -70.3827,20.235 -168.9185,33.4318 -19.3553,2.6393 -152.2027,-21.1148 -178.5962,-32.552 -12.317,-5.2787 -14.9564,9.6776 -19.3553,128.4485 -2.6393,73.9018 -3.5191,202.3503 -0.8798,284.1703 4.399,179.4759 -6.1584,283.2905 -39.5902,380.9465 -13.1968,39.5903 -22.8744,72.1423 -21.1149,72.1423 2.6394,0 34.3116,-27.2733 71.2626,-60.7051 z m 2397.4119,32.552 c -2.6394,-15.8361 -8.7979,-34.3116 -14.0766,-39.5903 -4.3989,-6.1585 -6.1585,-11.4372 -3.5191,-11.4372 2.6393,0 -0.8798,-21.1148 -7.9181,-45.7487 -7.0383,-25.5138 -14.9563,-89.738 -17.5957,-143.4049 -2.6393,-52.787 -7.918,-102.9347 -10.5574,-109.973 -3.5191,-7.0383 -9.6776,-109.973 -14.9563,-228.7439 l -8.7978,-215.5471 -35.1914,4.3989 c -19.3553,2.6394 -70.3828,4.3989 -114.372,3.5192 -86.2188,-0.8798 -177.7164,-25.5138 -263.9352,-72.1424 l -43.9892,-23.7541 0,65.9838 c -0.8798,36.0711 -3.5192,73.9019 -7.0383,83.5795 -2.6394,9.6776 -10.5574,37.8307 -17.5957,62.4647 -16.7159,58.9455 -72.1423,162.76 -108.2134,200.5908 l -29.9127,31.6722 24.634,14.9563 c 13.1967,7.9181 31.6722,21.1148 41.3498,29.9127 9.6776,7.918 32.552,20.235 51.0275,26.3935 17.5957,6.1585 32.552,14.9563 32.552,18.4755 0,3.5191 3.5191,7.0382 7.9181,7.0382 26.3935,0 251.6182,112.6124 328.1595,164.5197 68.6231,45.7488 182.9951,150.4431 200.5908,182.1153 15.8361,29.9127 18.4754,29.0329 11.4372,-5.2787 z m 71.2625,-139.0059 c 46.6285,-88.8582 107.3336,-171.5579 181.2355,-246.3396 84.4593,-84.4592 131.9676,-143.4048 158.3612,-194.4323 14.9563,-30.7924 31.6722,-60.7051 35.1913,-65.104 4.399,-5.2787 14.0766,-43.9892 21.9946,-87.0986 16.7159,-87.9784 14.0766,-149.5633 -8.7978,-229.6237 -0.8798,-4.3989 -2.6393,-12.317 -3.5191,-17.5957 -1.7596,-4.3989 -7.9181,-14.9563 -14.9564,-22.8744 -7.0382,-7.918 -15.8361,-29.0329 -18.4754,-46.6285 -3.5192,-25.5138 -1.7596,-31.6723 9.6776,-31.6723 7.9181,0 14.0765,4.399 14.0765,9.6777 0,19.3552 64.2243,96.7762 101.1752,122.29 32.552,21.9946 46.6286,26.3935 91.4976,26.3935 45.7488,0 57.1859,-3.5191 90.6177,-29.0329 23.7542,-18.4755 43.9893,-43.1094 54.5467,-69.5029 16.7159,-39.5903 16.7159,-40.4701 -2.6394,-78.3008 -42.2296,-83.5795 -148.6835,-119.6507 -228.7439,-79.1806 -47.5083,24.6339 -62.4646,15.8361 -30.7924,-17.5957 13.1967,-14.0765 29.0329,-25.5137 33.4318,-25.5137 12.317,0 95.8965,-35.1914 142.525,-58.9456 61.5849,-32.552 127.5687,-130.208 144.2846,-214.6673 44.869,-219.9461 73.9019,-300.8862 139.0059,-383.5859 62.4647,-78.3008 174.1973,-172.4377 233.1428,-196.1919 14.0766,-5.2787 15.8362,-7.9181 4.399,-7.9181 -7.9181,-0.8797 -25.5138,3.5192 -39.5903,9.6777 -29.0329,11.4372 -24.634,10.5574 -66.8636,19.3552 -32.552,6.1585 -182.1154,71.2625 -190.9132,82.6997 -2.6394,3.5192 -23.7542,15.8362 -48.3881,28.1531 -63.3445,30.7925 -197.9515,114.372 -222.5854,139.0059 -6.1585,5.2787 -15.8361,10.5574 -20.2351,10.5574 -8.7978,0 -80.9401,46.6286 -100.2954,65.1041 -5.2787,4.3989 -7.918,33.4318 -6.1585,65.9838 1.7596,31.6722 -0.8797,73.9019 -6.1584,93.2571 -22.8744,89.738 -46.6286,168.0388 -53.6669,175.9568 -4.3989,5.2788 -13.1967,38.7106 -18.4754,73.0221 -13.1968,77.421 -3.5192,115.2518 37.8307,162.7601 27.2733,31.6722 30.7924,32.552 59.8253,23.7542 34.3116,-10.5574 84.4593,-4.3989 106.4539,11.4372 43.9892,33.4318 40.4701,88.8582 -7.0383,109.0932 -43.1094,17.5957 -84.4593,2.6394 -117.8911,-43.9892 -30.7924,-43.1094 -42.2296,-48.3881 -97.656,-49.2679 -50.1477,-0.8798 -118.7709,29.0329 -160.1207,70.3827 -136.3666,136.3666 -211.1482,193.5525 -280.6512,214.6674 -33.4318,9.6776 -36.9509,13.1967 -35.1914,36.0711 7.0383,91.4976 11.4372,182.1153 20.2351,364.2307 10.5574,218.1865 21.9946,314.9627 37.8307,330.7988 3.5191,3.5192 6.1585,17.5957 6.1585,29.9127 0,13.1968 2.6393,37.8307 6.1585,53.6668 6.1585,28.1531 7.0383,26.3935 15.8361,-27.2733 5.2787,-31.6722 21.1148,-79.1806 34.3116,-105.5741 z m -2660.4674,59.8253 c -6.1585,-25.5137 -21.9946,-65.9838 -34.3116,-89.738 -28.1531,-52.787 -86.2188,-87.9784 -163.6398,-101.1751 -60.7051,-9.6777 -215.5472,-80.0604 -215.5472,-98.5359 0,-2.6393 -9.6776,-20.235 -21.9946,-37.8307 -49.2679,-73.0221 -74.7816,-219.0662 -47.5083,-270.9735 14.9563,-28.1531 2.6393,-29.0329 -41.3499,-2.6394 -36.0711,21.1149 -47.5083,23.7542 -91.4975,19.3553 -27.27331,-1.7596 -57.18601,-7.9181 -66.86361,-12.317 -8.7979,-5.2787 -30.7925,-15.8361 -47.5084,-23.7542 -40.47,-19.3552 -80.0603,-56.3061 -116.1315,-108.2134 -25.5137,-37.8307 -28.1531,-49.2679 -31.6722,-117.0113 -2.6394,-67.7434 -0.8798,-80.0604 22.8744,-131.9676 14.0765,-31.6723 40.47,-73.0221 58.0657,-91.4976 17.5957,-18.4755 31.6723,-35.1914 31.6723,-36.0711 0,-0.8798 -22.8744,-4.399 -51.0275,-7.9181 -63.3445,-7.0383 -92.3774,-22.8744 -154.842,-82.6997 -109.97306,-105.5741 -148.68357,-224.345 -120.53047,-368.6296 21.11482,-104.6943 25.51377,-261.2959 10.55741,-314.9627 -4.39892,-16.7159 -5.27871,2.6393 -2.63935,51.0275 2.63935,55.4264 0,91.4975 -9.67763,127.5687 -55.4264,200.5908 -52.78705,361.5913 7.03827,452.209 12.31698,18.4755 21.99457,36.0712 21.99457,39.5903 0,12.317 65.9838,69.503 108.2135,94.1369 29.0329,17.5957 52.787,23.7542 84.4593,24.634 30.7924,0 44.869,3.5191 44.869,11.4372 0,6.1585 -5.2787,13.1967 -12.317,15.8361 -21.1148,8.7978 -64.2243,79.1806 -79.1806,131.0878 -18.4755,65.1041 -17.5957,124.9294 3.5191,193.5526 14.0766,44.869 27.2734,66.8636 67.7434,109.0932 66.8636,68.6232 97.6561,82.6997 184.7547,82.6997 53.66681,0 73.90191,-3.5191 95.01671,-17.5957 14.9563,-9.6776 28.1531,-17.5957 30.7924,-17.5957 2.6394,0 4.399,42.2297 4.399,94.137 0,87.0986 2.6393,98.5358 25.5137,143.4048 29.9127,57.1859 90.6178,117.0113 141.6453,139.8857 38.7105,17.5956 98.5358,31.6722 167.159,40.47 23.7541,3.5192 55.4264,12.317 69.5029,19.3553 35.1914,18.4755 89.738,77.421 102.055,110.8528 5.2787,15.8361 14.0765,35.1914 18.4754,43.1094 4.399,8.7979 7.9181,21.9946 7.9181,30.7925 0,7.918 2.6394,12.3169 5.2787,8.7978 2.6394,-2.6393 0.8798,-26.3935 -5.2787,-51.9073 z m 2819.7083,10.5574 c 19.3553,-12.3169 57.186,-32.552 83.5795,-43.9892 26.3935,-11.4372 58.9456,-28.1531 72.1423,-36.9509 12.317,-8.7978 25.5138,-15.8361 29.0329,-15.8361 3.5191,0 38.7105,-19.3553 78.3008,-43.1094 161.0005,-97.6561 260.4161,-232.2631 260.4161,-353.6733 0,-47.5083 -3.5191,-62.4647 -21.9946,-87.0986 -27.2733,-36.951 -18.4755,-48.3881 27.2733,-36.0712 60.7051,16.7159 128.4485,12.317 184.7547,-14.0765 52.787,-23.7542 99.4156,-52.7871 110.8528,-68.6232 66.8636,-93.2571 85.3391,-135.4867 92.3773,-204.9897 7.9181,-86.2188 7.0383,-103.8145 -5.2787,-148.6835 -11.4372,-42.2297 -75.6614,-104.6943 -124.9293,-120.5305 -38.7105,-13.1967 -41.3499,-28.1531 -5.2787,-39.5902 33.4318,-11.4372 68.6231,-58.0658 93.2571,-124.9294 16.7159,-42.2296 21.9946,-129.3283 9.6776,-144.2846 -8.7978,-11.4372 -6.1585,-234.9024 2.6394,-270.0938 10.5574,-38.7105 41.3498,-107.3336 56.3062,-124.0495 7.918,-7.9181 12.3169,-17.5957 9.6776,-20.2351 -7.0383,-6.1584 -55.4264,74.7817 -68.6232,115.2518 -6.1585,19.3552 -16.7159,51.0275 -22.8744,70.3827 -7.0382,21.9946 -12.3169,96.7763 -14.9563,193.5525 -1.7596,114.372 -6.1585,164.5197 -14.9563,180.3558 -7.0383,12.317 -12.317,23.7542 -11.4372,26.3935 2.6393,11.4372 -50.1477,77.421 -82.6997,102.055 l -36.951,28.1531 23.7542,4.3989 c 44.869,8.7978 95.0167,54.5466 111.7326,100.2954 7.918,22.8744 18.4755,49.2679 22.8744,57.186 10.5574,20.235 10.5574,127.5687 0,133.7272 -4.3989,3.5191 -10.5574,20.235 -14.0766,38.7105 -4.3989,25.5137 -20.235,49.2679 -69.5029,100.2954 -61.5849,64.2242 -98.5358,86.2188 -147.8038,86.2188 -7.918,0 -17.5956,4.3989 -20.235,8.7978 -7.9181,13.1968 -84.4593,10.5575 -125.8091,-3.5191 l -35.1914,-13.1968 13.1968,32.5521 c 10.5574,24.6339 12.3169,52.787 9.6776,112.6123 -3.5192,68.6232 -8.7979,88.8582 -36.0712,145.1644 -36.9509,75.6615 -140.7654,187.3941 -204.9897,220.8259 -21.9946,10.5574 -50.1477,25.5137 -63.3444,32.552 -13.1968,7.0382 -45.7488,29.0329 -72.1423,48.3881 -26.3936,20.235 -66.8636,47.5084 -88.8582,59.8253 -21.9947,13.1968 -45.7488,30.7925 -52.7871,38.7105 -14.0765,17.5957 -12.317,16.7159 49.2679,-22.8744 z M 3020.6096,6197.9864 c 28.1531,-49.2679 61.5849,-77.421 130.208,-108.2135 34.3116,-14.9563 77.421,-35.1914 96.7763,-43.9892 19.3552,-8.7978 56.3062,-21.1148 82.6997,-27.2733 26.3935,-5.2787 58.0658,-15.8361 70.3827,-21.9946 12.317,-7.0383 26.3936,-12.317 29.9127,-12.317 3.5191,0 16.7159,-6.1585 28.1531,-14.0765 l 21.1148,-14.0766 -51.9073,-61.5849 c -53.6668,-63.3444 -108.2134,-162.76 -119.6506,-218.1865 -3.5191,-16.7159 -8.7979,-65.9838 -11.4372,-109.973 l -5.2787,-79.1806 -51.0275,92.3774 c -58.0657,104.6943 -52.787,95.8965 -105.5741,184.7547 -21.9946,36.0711 -56.3062,97.656 -76.5412,136.3665 -63.3445,120.5304 -79.1806,126.6889 -117.8911,50.1477 -13.1968,-27.2733 -51.9073,-95.8965 -85.3391,-151.3229 -33.4318,-56.3062 -60.7051,-103.8145 -60.7051,-106.4539 0,-8.7978 -79.1805,-144.2846 -79.1805,-135.4867 -0.8798,43.9892 -29.9127,174.1973 -48.3882,213.7875 -25.5137,54.5467 -95.8965,142.5251 -115.2517,142.5251 -21.9946,0 -13.1968,24.6339 16.7159,47.5083 16.7159,13.1968 32.552,22.8744 36.0711,22.8744 3.5192,0 22.8744,7.9181 43.1095,16.7159 20.235,9.6776 57.1859,19.3553 80.9401,22.8744 44.869,5.2787 126.6889,40.4701 157.4814,68.6232 9.6776,7.918 20.235,14.9563 24.6339,14.9563 7.0383,0 77.421,104.6943 77.421,116.1315 0,16.7159 15.8362,4.3989 32.5521,-25.5137 z m 578.898,-387.9849 c 9.6776,-25.5137 19.3552,-45.7487 22.8743,-45.7487 12.317,0 35.1914,-141.6453 33.4318,-205.8695 -1.7595,-65.9838 -1.7595,-66.8636 -33.4318,-90.6178 -95.8964,-71.2625 -144.2846,-153.9622 -145.1643,-245.4598 -0.8798,-43.9892 -2.6394,-51.0275 -11.4372,-39.5903 -6.1585,7.9181 -11.4372,17.5957 -11.4372,21.1148 0,3.5192 -19.3553,39.5903 -43.9892,80.0604 -23.7542,40.4701 -43.9893,77.421 -43.9893,83.5795 0,5.2787 -3.5191,9.6776 -7.918,9.6776 -4.3989,0 -14.9563,17.5957 -22.8744,39.5903 -12.317,31.6722 -14.9563,59.8253 -11.4372,146.924 3.5191,105.5741 4.3989,109.973 40.4701,184.7547 20.235,42.2296 59.8253,102.9347 87.0986,135.4867 l 50.1477,58.9456 39.5903,-43.9893 c 22.8744,-23.7541 48.3881,-64.2242 58.0658,-88.8582 z m -982.719,-6.1584 c 74.7817,-119.6507 86.2189,-270.0938 29.9127,-379.187 -9.6776,-19.3553 -24.634,-40.4701 -31.6722,-46.6286 -7.9181,-7.0383 -14.0766,-14.9563 -14.0766,-18.4755 0,-7.918 -58.0658,-105.5741 -70.3827,-117.891 -5.2787,-5.2787 -8.7979,-16.7159 -8.7979,-26.3936 0,-26.3935 -6.1585,-14.0765 -12.3169,23.7542 -8.7979,54.5466 -42.2297,122.29 -77.4211,158.3612 -18.4754,18.4754 -33.4318,36.9509 -33.4318,40.47 0,4.399 -16.7159,18.4755 -36.9509,32.5521 -58.0657,37.8307 -58.0657,36.9509 -45.7488,122.29 10.5574,72.1423 43.9892,160.1207 70.3828,187.394 7.0382,6.1585 12.3169,15.8361 12.3169,20.235 0,12.317 63.3445,79.1806 91.4976,96.7763 l 26.3935,15.8361 36.0712,-32.552 c 20.235,-17.5957 49.2679,-51.9073 64.2242,-76.5412 z m 424.056,-54.5467 c 31.6722,-47.5083 74.7817,-109.973 96.7763,-139.0059 21.9946,-29.0328 44.869,-64.2242 51.9072,-77.421 7.0383,-13.1967 15.8361,-23.7541 20.2351,-23.7541 3.5191,0 7.0382,-4.399 7.0382,-9.6777 0,-5.2787 10.5574,-24.6339 24.634,-42.2296 13.1968,-17.5957 28.1531,-37.8307 32.552,-45.7488 19.3553,-30.7924 83.5795,-127.5687 90.6178,-135.4868 3.5191,-4.3989 23.7542,-34.3115 44.869,-65.104 l 37.8307,-55.4264 -24.634,4.3989 c -14.0765,2.6394 -74.7816,13.1968 -135.4867,23.7542 -60.7051,9.6776 -145.1644,26.3935 -189.1536,35.1914 -43.1095,9.6776 -87.0987,18.4754 -95.8965,19.3552 -17.5957,2.6394 -30.7925,-14.9563 -71.2625,-94.1369 -35.1914,-66.8636 -50.1477,-93.2571 -88.8582,-150.4431 -20.2351,-29.0329 -39.5903,-62.4647 -43.1095,-73.9018 -3.5191,-12.317 -13.1967,-31.6723 -21.9946,-43.9893 -7.918,-12.3169 -28.1531,-46.6285 -43.9892,-76.5412 l -29.0328,-55.4264 -201.4706,0 -201.4706,0 14.9563,29.0329 c 7.9181,14.9563 21.9946,38.7105 30.7925,51.0275 8.7978,12.317 29.9126,49.2679 47.5083,83.5795 17.5957,33.4318 51.0275,92.3773 74.7817,131.0878 23.7542,38.7105 53.6668,91.4976 65.9838,117.0113 13.1968,25.5138 36.9509,64.2243 53.6668,86.2189 16.7159,21.1148 29.9127,41.3498 29.9127,43.1094 0,2.6393 7.0383,15.8361 16.7159,29.0329 44.869,65.104 141.6452,211.1482 172.4377,261.2959 19.3552,30.7924 53.6668,82.6997 75.6614,116.1315 21.9946,32.552 47.5084,73.0221 56.3062,88.8582 9.6776,14.9563 20.2351,28.1531 23.7542,28.1531 3.5191,0 7.0383,6.1585 7.0383,13.1967 0,26.3936 14.0765,11.4372 70.3827,-72.1423 z M 4111.542,5575.0992 c 32.552,-7.9181 32.552,-9.6777 -3.5192,-138.1261 -29.0329,-103.8146 -55.4264,-150.4431 -124.0496,-219.9461 l -58.0657,-59.8253 -201.4706,0 -201.4706,0 30.7925,42.2296 c 23.7542,32.552 75.6614,129.3283 80.9401,151.3229 0.8798,2.6394 5.2787,14.0765 10.5574,26.3935 5.2787,12.317 12.317,37.8307 14.9564,57.186 7.0382,39.5903 21.1148,50.1477 117.891,94.1369 114.372,52.7871 236.662,69.503 333.4383,46.6286 z M 2154.9019,5531.11 c 42.2297,-12.317 81.82,-21.9946 88.8582,-21.9946 14.9564,0 37.8307,-27.2734 36.0712,-43.9893 -2.6394,-38.7105 51.0275,-174.1972 89.738,-225.2247 11.4372,-14.9563 20.235,-31.6722 20.235,-36.0712 0,-5.2787 14.0765,-21.9946 30.7924,-36.9509 l 31.6723,-27.2733 -77.421,-0.8798 c -42.2297,-0.8798 -95.0167,-2.6393 -117.0113,-3.5191 -51.9073,-3.5192 -156.6016,23.7541 -199.711,51.0275 -48.3882,30.7924 -154.8421,136.3665 -174.1973,173.3174 -39.5903,75.6615 -55.4264,111.7326 -59.8253,136.3666 -4.399,24.6339 -2.6394,28.1531 27.2733,37.8307 95.0167,33.4318 182.9951,32.552 303.5255,-2.6393 z m 2117.6406,-17.5957 c 34.3115,-20.2351 80.9401,-56.3062 104.6943,-80.0604 135.4867,-136.3665 166.2792,-156.6016 246.3395,-166.2792 54.5467,-6.1585 63.3445,-12.317 41.3499,-29.9127 -36.0711,-29.9126 -38.7105,-151.3228 -4.3989,-247.2193 36.0711,-102.055 53.6668,-174.1973 58.0657,-234.9024 1.7596,-35.1914 2.6394,-64.2242 0.8798,-64.2242 -1.7595,0 -28.1531,7.918 -59.8253,17.5956 -84.4593,25.5138 -183.8749,23.7542 -270.0937,-5.2787 -88.8582,-29.9126 -143.4049,-54.5466 -167.159,-76.5412 -24.634,-21.9946 -26.3936,-9.6776 -2.6394,20.2351 9.6776,12.3169 17.5957,25.5137 17.5957,29.0328 0,4.399 29.9127,60.7051 65.9838,126.689 36.0712,65.104 67.7434,126.6889 71.2625,137.2463 3.5192,10.5574 13.1968,29.9126 21.9946,43.1094 9.6777,14.0766 24.634,36.0712 34.3116,51.0275 9.6776,14.0765 17.5957,29.0329 17.5957,32.552 0,4.3989 11.4372,21.1148 25.5137,38.7105 14.9564,17.5957 22.8744,35.1914 19.3553,41.3499 -4.3989,7.0382 -79.1806,10.5574 -263.9353,12.3169 l -258.6565,2.6394 48.3881,51.0275 c 68.6232,73.0221 123.1698,196.1919 136.3666,307.0447 5.2787,42.2296 5.2787,43.1094 30.7924,37.8307 14.0766,-3.5192 52.7871,-22.8744 86.2189,-43.9892 z M 1803.868,5470.4049 c 5.2787,-35.1914 53.6669,-127.5688 94.1369,-179.476 13.1968,-16.7159 91.4976,-87.9784 138.1262,-125.8092 5.2787,-4.3989 27.2733,-15.8361 48.3881,-25.5137 l 36.9509,-16.7159 -331.6786,0 c -182.9951,-0.8798 -332.5584,-3.5191 -332.5584,-6.1585 0,-7.9181 44.869,-92.3773 65.9838,-122.29 9.6776,-14.0765 21.9946,-34.3116 27.2733,-43.9892 94.1369,-173.3175 116.1315,-212.028 144.2846,-254.2576 14.9563,-21.1149 26.3935,-43.1095 26.3935,-48.3882 0,-5.2787 4.3989,-9.6776 8.7979,-9.6776 5.2787,0 8.7978,-6.1585 8.7978,-13.1968 0,-7.918 7.0383,-24.6339 14.9563,-37.8307 14.9564,-23.7541 14.9564,-23.7541 -2.6393,-7.918 -9.6776,7.918 -37.8307,21.1148 -61.5849,29.0328 -23.7542,7.9181 -47.5084,18.4755 -52.7871,22.8744 -32.552,24.634 -246.3395,29.0329 -292.9681,4.399 -16.7159,-7.9181 -31.6722,-13.1968 -34.3116,-11.4372 -7.918,8.7978 14.0766,123.1697 32.552,167.159 15.8362,39.5902 29.9127,204.1099 22.8744,275.3724 -3.5191,42.2296 -13.1967,78.3008 -27.2733,104.6943 -11.4372,21.9946 -21.1148,40.4701 -21.1148,42.2297 0,1.7595 21.9946,5.2787 49.2679,8.7978 87.0986,10.5574 158.3612,51.9073 244.58,145.1644 43.9892,47.5083 161.8803,141.6453 176.8366,141.6453 6.1585,0 14.0766,-16.7159 16.7159,-38.7105 z m 553.3843,-34.3116 c 33.4318,-34.3116 86.2188,-104.6944 86.2188,-116.1315 0,-1.7596 7.9181,-21.1149 16.7159,-41.3499 9.6777,-21.1148 17.5957,-47.5083 17.5957,-59.8253 0,-13.1968 4.3989,-27.2733 9.6776,-32.552 6.1585,-6.1585 7.0383,-14.9564 2.6394,-22.8744 -7.0383,-11.4372 -12.317,-9.6777 -35.1914,10.5574 -26.3935,23.7542 -91.4975,114.3719 -91.4975,128.4485 0,3.5191 -9.6776,26.3935 -21.9946,51.0275 -21.9946,42.2296 -39.5903,120.5304 -27.2733,120.5304 2.6393,0 21.9946,-16.7159 43.1094,-37.8307 z m 1259.8509,-55.4264 c -29.0328,-78.3008 -45.7487,-110.8528 -85.339,-169.7984 l -33.4318,-47.5083 0,39.5903 c 0,60.7051 37.8307,145.1643 90.6177,197.9514 24.634,25.5137 45.7488,44.869 47.5084,43.1094 1.7596,-0.8798 -7.0383,-29.9126 -19.3553,-63.3444 z m 1242.2553,-44.869 c 8.7979,-21.1149 -28.1531,-46.6286 -68.6232,-46.6286 -39.5902,0 -43.1094,11.4372 -14.9563,41.3499 22.8744,24.6339 74.7817,28.1531 83.5795,5.2787 z m -3603.596,-61.5849 c 11.4372,-30.7925 10.5574,-31.6723 -20.2351,-25.5138 -49.2679,9.6777 -74.7816,48.3882 -49.2679,73.9019 13.1968,13.1968 58.0658,-17.5957 69.503,-48.3881 z m 2664.8663,-182.9951 c 94.1369,-7.0383 211.1482,-17.5957 259.5363,-21.9946 48.3881,-4.399 98.5358,-7.9181 111.7326,-8.7979 l 23.7542,0 -26.3935,-58.9455 c -14.9564,-33.4318 -34.3116,-77.421 -43.1095,-99.4156 -48.3881,-119.6507 -63.3444,-155.7218 -74.7816,-175.9569 -6.1585,-12.3169 -36.0712,-81.8199 -65.9838,-154.842 -64.2243,-158.3611 -122.29,-278.8916 -123.1698,-254.2576 0,10.5574 -12.317,51.9073 -26.3935,92.3773 -37.8308,104.6943 -103.8146,307.0447 -109.9731,337.8371 l -5.2787,25.5138 -208.5088,-7.0383 c -114.372,-3.5191 -243.7002,-7.0383 -286.8097,-7.918 l -78.3008,-0.8798 -64.2242,114.3719 c -35.1914,63.3445 -68.6232,120.5305 -73.9019,127.5687 -38.7105,58.0658 -51.9072,80.0604 -56.3062,95.0167 -5.2787,16.7159 -0.8798,16.7159 335.1978,14.0766 208.5089,-1.7596 408.2199,-7.9181 512.9142,-16.7159 z m -1469.2396,7.918 c 0,-3.5191 -13.1968,-21.1148 -28.1531,-39.5903 -15.8361,-18.4754 -45.7488,-54.5466 -65.9838,-80.0603 -21.1148,-25.5138 -77.421,-94.1369 -125.8092,-152.2027 -47.5083,-58.0657 -87.9784,-109.973 -87.9784,-115.2517 0,-5.2787 6.1585,-14.9563 13.1968,-21.1148 7.0383,-6.1585 13.1968,-15.8362 13.1968,-21.9946 0,-5.2787 16.7159,-36.0712 36.0711,-66.8636 20.235,-30.7925 43.9892,-72.1423 52.7871,-91.4976 17.5956,-37.8307 28.1531,-55.4264 58.0657,-98.5358 11.4372,-14.9564 20.2351,-30.7925 20.2351,-35.1914 0,-4.3989 10.5574,-22.8744 23.7541,-42.2296 28.1531,-41.3499 55.4264,-92.3774 55.4264,-104.6944 0,-4.3989 -5.2787,-14.9563 -11.4372,-21.9946 -7.0382,-7.918 -17.5957,-28.153 -23.7541,-44.8689 -7.0383,-16.7159 -29.9127,-60.7052 -51.0275,-96.7763 -21.1148,-36.0712 -51.9073,-91.4976 -68.6232,-123.1698 -44.869,-87.9784 -41.3498,-86.2188 -74.7816,-33.4318 -16.7159,25.5137 -36.0712,58.9455 -43.9893,73.0221 -7.918,14.9563 -21.9946,40.4701 -31.6722,57.186 -87.0986,149.5633 -171.5579,304.4053 -214.6673,395.9028 -29.0329,60.7052 -57.186,117.8911 -62.4647,127.5688 -19.3553,32.552 -226.9843,453.9686 -226.9843,461.0069 0,8.7978 -12.317,7.0382 216.4269,26.3935 106.4539,9.6776 219.0662,19.3552 250.7385,22.8744 30.7924,3.5191 121.4102,11.4372 201.4706,17.5957 80.0603,6.1585 152.2026,11.4372 161.0005,12.3169 7.918,0 14.9563,-1.7595 14.9563,-4.3989 z m 599.133,-18.4754 c 5.2787,-14.0766 21.9946,-43.9893 37.8307,-68.6232 15.8362,-23.7542 42.2297,-67.7434 58.0658,-96.7763 15.8361,-29.0328 42.2296,-77.421 58.9455,-107.3336 29.0329,-51.9073 29.9127,-55.4264 12.317,-55.4264 -10.5574,0 -18.4754,5.2787 -18.4754,11.4371 0,8.7979 -38.7106,73.9019 -59.8254,98.5359 -4.3989,5.2787 -25.5137,43.1094 -46.6285,83.5795 -21.1149,41.3498 -41.3499,76.5412 -43.9892,79.1806 -8.7979,7.0382 -34.3116,59.8253 -34.3116,70.3827 0,19.3552 27.2733,7.918 36.0711,-14.9563 z m 13.1968,-143.4049 c 16.7159,-31.6722 40.4701,-71.2625 51.0275,-87.9784 27.2733,-41.3498 58.0657,-93.2571 58.0657,-98.5358 0,-1.7596 -83.5795,-4.3989 -184.7547,-5.2787 l -184.7546,-1.7596 17.5957,33.4318 c 9.6776,17.5957 26.3935,46.6286 37.8307,64.2243 10.5574,17.5956 44.869,75.6614 76.5412,130.208 l 56.3062,98.5358 20.235,-37.8307 c 11.4372,-21.1148 34.3116,-63.3444 51.9073,-95.0167 z m -385.3455,-230.5034 c -3.5191,-8.7979 -53.6668,-12.317 -203.2301,-14.0766 -174.1973,-1.7595 -199.711,0 -199.711,11.4372 0,11.4372 27.2733,13.1968 203.2301,13.1968 158.3612,0 202.3504,-2.6394 199.711,-10.5574 z m 1975.1155,-26.3935 c 54.5466,-13.1968 53.6668,-26.3936 -3.5191,-132.8475 -52.7871,-98.5358 -128.4485,-184.7546 -203.2302,-234.0226 -51.0275,-33.4318 -54.5466,-34.3115 -78.3008,-21.9946 -63.3444,32.5521 -250.7385,36.951 -307.0446,7.9181 -15.8362,-7.9181 -29.9127,-13.1968 -31.6723,-11.4372 -1.7595,1.7596 4.3989,17.5957 14.0766,34.3116 9.6776,16.7159 34.3116,63.3444 55.4264,104.6943 62.4647,121.4102 72.1423,135.4868 108.2134,160.1207 62.4647,43.9892 184.7547,94.1369 258.6566,106.4539 32.552,6.1585 139.0059,-1.7596 187.394,-13.1967 z m -951.9265,-28.1531 c -8.7978,-15.8362 -23.7542,-40.4701 -34.3116,-53.6669 -10.5574,-13.1967 -19.3552,-28.1531 -19.3552,-33.4318 0,-4.3989 -17.5957,-34.3116 -38.7105,-66.8636 -21.1148,-31.6722 -43.1094,-72.1423 -48.3881,-88.8582 -12.317,-36.9509 -45.7488,-79.1806 -51.0275,-64.2242 -1.7596,6.1585 -14.9564,27.2733 -29.0329,48.3881 -14.9563,21.1148 -26.3935,41.3499 -26.3935,44.869 0,4.3989 -9.6777,20.235 -21.1149,35.1914 -11.4371,15.8361 -29.9126,45.7487 -41.3498,67.7434 -11.4372,21.9946 -29.0329,51.9072 -39.5903,65.9838 -10.5574,14.9563 -21.9946,35.1913 -24.634,45.7487 -6.1584,18.4755 -3.5191,19.3553 53.6669,22.8744 32.552,1.7596 121.4102,3.5192 197.0716,4.399 l 138.1262,1.7595 -14.9564,-29.9126 z m -450.4495,-29.9127 c 62.4647,-105.5741 73.0221,-125.8091 67.7434,-131.0878 -2.6394,-3.5192 -45.7488,-7.0383 -95.8965,-8.7979 l -89.738,-4.3989 -20.235,38.7105 c -10.5574,21.1148 -33.4318,61.5849 -50.1477,90.6178 -16.7159,29.0328 -30.7924,55.4264 -30.7924,59.8253 0,3.5191 42.2296,6.1585 95.0166,6.1585 l 94.137,-0.8798 29.9126,-50.1477 z m -601.7724,27.2733 c -2.6393,-7.9181 -27.2733,-52.787 -55.4264,-101.1752 -27.2733,-47.5083 -57.1859,-102.0549 -66.8636,-119.6506 -8.7978,-17.5957 -26.3935,-50.1477 -37.8307,-71.2625 -26.3935,-45.7488 -29.9126,-43.9893 -79.1806,51.9072 -19.3552,36.0712 -57.1859,102.9348 -84.4592,148.6836 -28.1531,44.8689 -50.1477,87.9784 -50.1477,94.1369 0,8.7978 37.8307,11.4372 190.0333,11.4372 167.159,-0.8798 189.1536,-2.6394 183.8749,-14.0766 z m 301.766,8.7978 c -22.8744,-47.5083 -38.7105,-78.3007 -43.1094,-81.8199 -3.5191,-2.6393 -14.0766,-20.235 -23.7542,-40.4701 -28.1531,-55.4264 -33.4318,-57.1859 -136.3665,-54.5466 l -93.2572,2.6394 27.2734,52.787 c 14.0765,29.0329 29.0328,54.5466 32.552,57.186 2.6393,2.6394 12.3169,19.3553 20.235,37.8307 l 15.8361,32.552 102.055,0 c 55.4264,0 100.2954,-2.6393 98.5358,-6.1585 z m 776.8494,-54.5466 c -14.9563,-25.5137 -27.2733,-48.3881 -27.2733,-51.9072 0,-3.5192 -25.5137,-50.1477 -57.1859,-102.9348 -31.6723,-53.6668 -63.3445,-113.4921 -71.2626,-133.7272 -15.8361,-40.4701 -24.6339,-46.6285 -33.4318,-22.8744 -3.5191,7.9181 3.5192,27.2733 15.8362,45.7488 12.3169,17.5957 26.3935,43.1094 31.6722,58.0658 5.2787,14.0765 24.634,49.2679 42.2296,79.1805 17.5957,29.0329 38.7105,63.3445 45.7488,75.6615 7.0383,12.317 24.634,43.1094 39.5903,67.7434 14.0765,24.6339 29.0329,42.2296 33.4318,37.8307 3.5191,-3.5192 -5.2787,-27.2733 -19.3553,-52.7871 z m -713.5049,10.5574 c 9.6776,-18.4754 29.9126,-52.787 43.9892,-77.421 14.0765,-23.7541 25.5137,-46.6285 26.3935,-50.1477 0,-4.3989 -41.3498,-7.0382 -92.3773,-7.0382 -51.0275,0 -92.3774,1.7595 -92.3774,3.5191 0,13.1968 85.3391,163.6399 93.2572,163.6399 1.7595,0 11.4371,-14.9564 21.1148,-32.5521 z m 1748.1311,12.317 c 13.1968,-11.4372 44.869,-31.6722 68.6232,-44.869 24.634,-14.0765 51.9073,-31.6722 61.5849,-40.47 15.8361,-14.0766 253.3779,-149.5634 303.5256,-173.3175 68.6231,-33.4318 213.7875,-79.1806 268.3341,-85.3391 14.9564,-1.7596 30.7925,-3.5191 35.1914,-4.3989 5.2787,-0.8798 -8.7978,-7.9181 -30.7925,-14.9564 -21.9946,-7.918 -116.1315,-51.0274 -210.2684,-97.656 -94.1369,-45.7488 -180.3557,-87.0986 -191.7929,-91.4976 -12.317,-4.3989 -38.7105,-20.235 -59.8253,-34.3115 -21.1149,-14.9564 -40.4701,-26.3936 -43.9893,-26.3936 -2.6393,0 -29.9126,-16.7159 -59.8253,-36.9509 -56.3062,-38.7105 -161.8803,-92.3773 -167.159,-85.3391 -1.7595,1.7596 -25.5137,49.268 -52.787,104.6944 -59.8254,120.5304 -118.7709,187.394 -224.345,251.6182 l -30.7924,18.4755 41.3498,28.1531 c 21.9946,15.8361 62.4647,49.2679 87.9784,75.6614 48.3882,47.5084 140.7655,192.6728 157.4814,247.2194 10.5574,35.1914 14.9563,36.0711 47.5083,9.6776 z m -3213.8516,-3.5191 c 2.6394,-3.5192 16.7159,-7.0383 29.9127,-7.9181 68.6231,-4.3989 214.6673,-81.8199 226.1045,-118.7708 3.5192,-8.7979 10.5574,-21.9946 17.5957,-28.1531 6.1585,-6.1585 26.3935,-41.3499 45.7488,-77.421 18.4754,-36.0712 41.3498,-75.6615 50.1477,-88.8582 14.0765,-21.1149 14.0765,-24.634 2.6393,-24.634 -7.918,0 -15.8361,3.5191 -18.4754,7.0383 -2.6394,4.3989 -18.4755,7.918 -36.0712,8.7978 -17.5957,0.8798 -35.1914,3.5191 -39.5903,6.1585 -14.9563,8.7978 -186.5142,-31.6722 -230.5034,-54.5466 -23.7542,-12.317 -48.3882,-19.3553 -58.0658,-16.7159 -16.7159,5.2787 -131.9676,117.0113 -155.7218,151.3229 -13.1968,19.3552 -60.7051,147.8037 -69.5029,190.0333 -5.2787,21.9946 -1.7596,24.634 40.47,41.3499 46.6286,17.5957 181.2356,26.3935 195.3121,12.317 z m 2248.7284,-64.2243 c 15.8361,-26.3935 50.1477,-89.738 77.421,-140.7654 26.3935,-51.0275 50.1477,-94.1369 53.6668,-96.7763 2.6394,-2.6393 16.7159,-26.3935 30.7925,-52.787 14.0765,-26.3936 32.552,-58.0658 40.4701,-70.3828 21.9946,-33.4318 103.8145,-204.1099 109.973,-231.3832 3.5191,-12.317 11.4372,-27.2733 18.4755,-33.4318 7.0382,-5.2787 12.3169,-14.0766 12.3169,-18.4755 0,-7.918 25.5138,-62.4647 146.924,-314.0829 30.7924,-64.2243 55.4264,-117.8911 53.6668,-119.6507 -11.4372,-9.6776 -418.7772,-51.9073 -662.4775,-69.5029 -23.7541,-1.7596 -65.104,-6.1585 -90.6177,-9.6777 l -46.6286,-7.0382 24.634,27.2733 c 13.1967,14.9563 35.1913,40.47 48.3881,56.3062 12.317,15.8361 39.5903,48.3881 58.9455,71.2625 20.2351,23.7541 36.0712,44.869 36.0712,48.3881 0,3.5191 16.7159,23.7542 37.8307,45.7488 20.235,21.9946 51.9073,58.9455 70.3827,82.6997 29.9127,40.4701 31.6723,44.869 19.3553,61.5849 -22.8744,31.6722 -127.5687,208.5088 -127.5687,215.5471 0,4.3989 -11.4372,22.8744 -24.634,41.3499 -13.1967,18.4754 -45.7488,70.3827 -71.2625,115.2517 l -45.7488,80.9401 34.3116,68.6232 c 19.3553,37.8307 44.869,86.2189 58.0658,108.2135 12.3169,21.9946 37.8307,69.5029 55.4264,105.5741 31.6722,65.104 46.6285,90.6177 51.0275,86.2188 1.7595,-1.7596 14.9563,-24.6339 30.7924,-51.0275 z m -2502.986,-35.1913 c 7.918,-33.4318 18.4755,-61.5849 22.8744,-61.5849 4.3989,0 7.918,-6.1585 7.918,-14.0766 0,-36.9509 47.5084,-109.973 114.372,-175.077 l 71.2625,-68.6232 -43.1094,-40.4701 c -71.2625,-66.8636 -117.0113,-163.6398 -132.8474,-277.132 -5.2787,-38.7105 -11.4372,-72.1423 -14.0766,-73.9019 -1.7596,-1.7595 -9.6776,2.6394 -17.5957,10.5575 -7.918,7.918 -17.5957,12.3169 -21.1148,9.6776 -4.3989,-1.7596 -29.9127,15.8361 -57.186,39.5903 -27.2733,23.7541 -58.9455,48.3881 -69.5029,54.5466 -10.5574,5.2787 -44.869,28.1531 -76.5412,50.1477 -76.5413,54.5466 -77.421,54.5466 -197.95151,114.3719 -164.5196,80.9402 -264.815,118.7709 -329.91905,124.0496 -7.03827,0 24.63395,14.0765 70.38275,29.9127 201.4706,72.1423 317.6021,124.9293 402.06141,182.1153 20.235,14.0765 37.8307,25.5137 39.5902,25.5137 1.7596,0 49.268,29.9127 104.6944,65.9838 54.5466,36.0712 102.9347,65.9839 105.5741,65.9839 3.5191,0 13.1967,-27.2733 21.1148,-61.5849 z m 1535.2234,-76.5413 c 0,-1.7595 -9.6776,-18.4754 -21.9946,-37.8307 -12.317,-19.3552 -21.9946,-38.7105 -21.9946,-43.1094 0,-5.2787 -9.6776,-22.8744 -21.1148,-39.5903 l -20.2351,-30.7924 -26.3935,41.3498 c -40.4701,65.104 -63.3445,105.5741 -59.8253,109.0933 4.3989,4.3989 171.5579,5.2787 171.5579,0.8797 z m 501.477,0.8798 c 0,-1.7595 -80.9402,-147.8037 -83.5795,-151.3229 -4.3989,-4.3989 -57.186,86.2189 -57.186,98.5359 0,6.1585 -6.1585,16.7159 -13.1968,22.8744 -29.9126,24.6339 -14.0765,31.6722 70.3828,31.6722 45.7488,0 83.5795,-0.8798 83.5795,-1.7596 z m -669.5158,-95.8964 c 20.2351,-40.4701 40.4701,-76.5413 44.869,-79.1806 12.317,-7.9181 10.5574,-44.869 -2.6393,-55.4264 -6.1585,-5.2787 -26.3936,-41.3499 -45.7488,-80.0604 -18.4755,-39.5903 -37.8307,-70.3827 -42.2297,-68.6232 -5.2787,1.7596 -22.8744,29.9127 -40.47,63.3445 -17.5957,33.4318 -36.951,65.9838 -42.2297,73.0221 -14.0765,14.9563 -14.0765,29.0329 -0.8798,60.7051 12.317,29.0329 86.2189,161.0005 90.6178,161.0005 1.7596,0 18.4755,-33.4318 38.7105,-74.7816 z m 358.0722,33.4317 c 13.1967,-23.7541 25.5137,-43.9892 27.2733,-46.6285 1.7596,-1.7596 25.5137,-2.6394 51.9073,-1.7596 l 48.3881,1.7596 -25.5138,-46.6286 c -28.1531,-49.2679 -27.2733,-58.9455 3.5192,-96.7762 11.4372,-14.0766 21.1148,-28.1531 21.1148,-32.552 0,-4.399 -22.8744,-8.7979 -50.1477,-10.5575 l -50.1477,-2.6393 -22.8744,-47.5084 -23.7542,-47.5083 -24.6339,44.869 -24.634,45.7488 -56.3062,0 -57.1859,0 19.3552,24.6339 c 47.5084,61.5849 46.6286,56.3062 17.5957,108.2135 -14.0765,26.3935 -26.3935,51.0275 -26.3935,54.5466 0,3.5191 19.3552,4.3989 43.1094,0.8798 l 42.2296,-5.2787 28.1531,39.5903 c 14.9564,21.9946 27.2733,43.9892 27.2733,49.2679 0,17.5957 7.9181,9.6776 31.6723,-31.6723 z m 371.2689,-4.3989 c 10.5574,-21.1148 33.4318,-63.3444 50.1477,-94.1369 26.3935,-48.3881 29.0329,-58.9455 18.4755,-70.3827 -6.1585,-7.9181 -27.2733,-43.1094 -45.7488,-77.421 -18.4755,-35.1914 -36.9509,-64.2243 -40.4701,-64.2243 -10.5574,0 -51.9072,79.1806 -53.6668,104.6944 -0.8798,14.0765 -4.3989,23.7541 -7.9181,21.9946 -2.6393,-1.7596 -14.0765,7.918 -24.6339,22.8743 l -18.4755,26.3936 37.8307,67.7434 c 21.1148,37.8307 40.4701,75.6614 43.9892,83.5794 9.6777,24.634 19.3553,19.3553 40.4701,-21.1148 z m 2061.3344,-8.7978 c 27.2733,-38.7105 13.1967,-29.0329 -19.3553,13.1967 -16.7159,20.2351 -22.8744,31.6723 -14.0765,24.634 8.7978,-7.0383 23.7541,-23.7542 33.4318,-37.8307 z m -1159.5556,-87.0986 c 7.9181,0 14.9563,-3.5192 14.9563,-7.9181 0,-4.3989 13.1968,-8.7978 29.0329,-10.5574 l 28.1531,-3.5192 -30.7924,-14.0765 c -51.9073,-23.7542 -176.8367,-52.7871 -201.4706,-46.6286 -12.317,3.5192 -29.0329,7.0383 -36.0712,8.7979 -27.2733,6.1585 -79.1806,31.6722 -79.1806,38.7105 0,4.3989 8.7979,9.6776 20.2351,12.317 10.5574,2.6393 35.1913,11.4372 54.5466,18.4754 27.2733,11.4372 51.9073,13.1968 109.973,8.7979 41.3499,-2.6394 81.82,-5.2787 90.6178,-4.3989 z M 1934.9559,4251.024 c 13.1967,-6.1585 23.7542,-14.9564 23.7542,-18.4755 0,-20.235 -141.6453,-69.5029 -197.9515,-69.5029 -40.4701,0 -146.9239,21.1148 -168.9186,33.4317 -12.3169,7.9181 -9.6776,11.4372 19.3553,24.634 19.3553,7.9181 36.9509,15.8361 39.5903,16.7159 2.6393,0.8798 10.5574,4.3989 17.5957,7.0383 52.787,24.6339 219.0662,27.2733 266.5746,6.1585 z m 2488.0297,-16.7159 c 11.4371,-8.7979 33.4318,-21.9946 47.5083,-29.9127 14.9563,-7.0383 51.9073,-38.7105 83.5795,-69.5029 82.6997,-80.0604 168.0388,-255.1375 130.2081,-265.6949 -109.9731,-31.6722 -254.2577,-41.3498 -322.8808,-22.8744 -50.1477,13.1968 -123.1698,54.5467 -152.2027,85.3391 -21.9946,23.7542 -95.0167,139.8857 -95.0167,151.3229 0,2.6393 -14.0765,28.1531 -30.7924,56.3062 l -30.7925,51.0275 29.0329,-5.2787 c 14.9563,-2.6394 39.5903,-6.1585 53.6668,-8.7979 43.9892,-6.1585 192.6728,32.552 238.4215,63.3445 21.9946,14.9563 24.634,14.9563 49.268,-5.2787 z m 995.9157,-43.1095 c -42.2297,-36.0711 -124.9294,-158.3611 -135.4868,-198.8312 -5.2787,-20.235 -14.0766,-43.9892 -20.235,-53.6668 -6.1585,-9.6776 -18.4755,-39.5903 -26.3936,-65.9838 -8.7978,-26.3936 -18.4754,-56.3062 -22.8744,-65.9838 -4.3989,-9.6777 -14.9563,-43.1095 -22.8744,-74.7817 -7.0382,-31.6722 -16.7159,-60.7051 -21.1148,-65.9838 -3.5191,-4.3989 -11.4372,-29.9127 -17.5957,-55.4264 -5.2787,-25.5138 -20.235,-59.8253 -31.6722,-77.421 -11.4372,-16.7159 -21.1148,-33.4318 -21.1148,-36.951 -0.8798,-25.5137 -148.6835,-151.3228 -177.7164,-151.3228 -6.1585,0 -19.3553,-5.2787 -29.0329,-12.317 -9.6776,-6.1585 -45.7488,-16.7159 -80.9401,-22.8744 -60.7051,-9.6776 -87.0987,-28.1531 -58.9456,-38.7105 7.9181,-2.6394 38.7105,-5.2787 69.503,-5.2787 154.842,0 253.3778,-108.2135 210.2684,-233.1428 -22.8744,-67.7434 -67.7434,-102.055 -135.4868,-102.9348 -35.1913,0 -52.787,5.2787 -80.9401,24.634 -38.7105,27.2733 -77.421,78.3008 -77.421,102.0549 0,7.9181 -3.5192,16.7159 -7.9181,20.2351 -4.3989,2.6393 -13.1967,26.3935 -19.3552,52.787 -6.1585,29.0329 -15.8361,48.3882 -22.8744,48.3882 -18.4755,0 -17.5957,-45.7488 2.6393,-125.8092 17.5957,-67.7434 17.5957,-153.0824 0,-195.3121 -21.9946,-51.0274 -80.9401,-135.4867 -137.2463,-193.5525 -55.4264,-57.186 -142.525,-185.6344 -173.3175,-255.1374 -36.0711,-82.6997 -64.2242,-187.394 -69.5029,-264.815 -7.0383,-83.5795 -12.317,-80.9402 -30.7925,15.8361 -5.2787,30.7924 -11.4372,63.3444 -14.0765,73.0221 -25.5138,128.4485 -29.0329,204.1099 -23.7542,477.7228 l 5.2787,284.1703 23.7542,8.7978 c 44.869,16.7159 79.1806,37.8307 121.4102,76.5412 117.0113,107.3337 197.0716,138.1262 310.5638,119.6507 27.2733,-4.3989 35.1914,-11.4372 56.3062,-51.9073 13.1968,-25.5137 32.552,-54.5466 43.1094,-64.2242 18.4755,-17.5957 98.5359,-42.2297 89.738,-28.1531 -2.6393,3.5191 1.7596,11.4372 8.7979,17.5957 7.918,6.1585 13.1967,25.5137 13.1967,43.9892 0,26.3935 -5.2787,38.7105 -27.2733,56.3062 -14.9563,12.3169 -33.4318,22.8743 -42.2296,22.8743 -7.9181,0 -18.4755,3.5192 -23.7542,7.9181 -4.3989,4.3989 -19.3553,9.6776 -34.3116,11.4372 -20.235,1.7596 -32.552,12.317 -54.5466,46.6286 -15.8361,23.7541 -31.6722,58.0657 -34.3116,74.7816 -3.5191,16.7159 -9.6776,36.0712 -14.9563,42.2297 -8.7979,10.5574 -10.5574,144.2846 -3.5192,177.7164 7.9181,33.4318 18.4755,71.2625 38.7105,139.0059 11.4372,39.5903 21.1149,94.1369 21.1149,119.6506 l 0,47.5084 41.3498,15.8361 c 42.2297,15.8361 88.8582,42.2296 199.711,113.4921 34.3116,21.9946 75.6615,46.6286 92.3774,53.6669 80.0603,36.0711 216.4269,105.5741 226.9843,115.2517 6.1585,6.1585 28.1531,15.8361 48.3881,21.9946 20.2351,6.1585 48.3881,17.5957 63.3445,26.3935 36.0711,21.1148 39.5903,11.4372 7.0383,-17.5957 z m -2111.4821,-84.4592 c 5.2787,-14.9564 16.7159,-36.951 26.3935,-49.268 l 16.7159,-21.9946 -53.6668,-2.6393 c -29.9127,-1.7596 -74.7817,-1.7596 -100.2954,0 l -45.7488,2.6393 47.5084,91.4976 47.5083,90.6178 25.5138,-42.2297 c 14.9563,-22.8744 30.7924,-53.6668 36.0711,-68.6231 z m 2191.5424,85.339 c -6.1585,-14.0765 -12.317,-29.9126 -12.317,-36.0711 0,-6.1585 -7.0382,-32.552 -16.7159,-58.0658 -29.0328,-82.6997 -40.47,-240.1811 -29.0328,-389.7444 15.8361,-189.1536 14.0765,-210.2684 -13.1968,-266.5746 -29.0329,-57.186 -112.6124,-145.1644 -155.7218,-162.7601 -39.5903,-16.7159 -82.6997,-16.7159 -110.8528,0 -37.8307,21.1149 -55.4264,28.1531 -94.1369,34.3116 -29.9127,4.3989 -37.8307,2.6394 -37.8307,-7.0382 0,-8.7979 12.3169,-15.8362 33.4318,-19.3553 67.7433,-12.317 106.4538,-45.7488 149.5633,-131.0878 83.5795,-164.5197 19.3552,-384.4657 -134.607,-461.007 -35.1914,-17.5956 -49.2679,-19.3552 -95.0167,-14.0765 -87.9784,9.6776 -169.7984,82.6997 -185.6345,164.5196 -6.1585,31.6723 -26.3935,50.1477 -35.1913,30.7925 -1.7596,-6.1585 -4.399,2.6393 -4.399,18.4755 l -0.8797,29.0328 20.235,-22.8744 c 26.3935,-30.7924 120.5304,-50.1477 188.2738,-39.5902 67.7434,11.4372 99.4156,32.552 130.2081,87.9784 22.8744,42.2296 26.3935,57.1859 26.3935,114.3719 -0.8798,51.9073 -5.2787,73.9019 -21.1148,103.8146 -24.634,45.7487 -94.1369,102.9347 -134.607,112.6123 l -29.0329,6.1585 32.552,11.4372 c 39.5903,13.1968 125.8092,72.1423 157.4814,105.5741 52.7871,57.186 107.3337,192.6728 127.5687,320.2415 13.1968,80.0603 13.1968,80.0603 28.1531,117.0113 6.1585,14.0765 10.5574,32.552 10.5574,42.2296 0,29.9127 52.7871,146.0442 96.7763,212.9078 52.787,81.8199 142.525,160.1207 109.0932,96.7762 z m -4947.90626,2.6394 c 7.03828,-1.7596 19.35525,-5.2787 26.39355,-7.9181 7.0382,-2.6393 27.2733,-8.7978 43.9892,-14.0765 56.3062,-15.8361 148.6835,-52.7871 212.9078,-85.3391 35.1913,-17.5957 73.9018,-36.0711 86.2188,-42.2296 22.8744,-9.6777 30.7925,-14.9564 117.89111,-72.1423 28.1531,-19.3553 58.0657,-37.8308 65.9838,-43.1095 7.9181,-4.3989 47.5083,-34.3115 88.8582,-65.9838 40.4701,-31.6722 86.2189,-61.5849 101.1752,-66.8636 29.9127,-10.5574 27.2733,18.4755 32.552,-302.6457 2.6394,-144.2846 1.7596,-156.6016 -17.5957,-197.9515 -32.552,-72.1423 -30.7924,-70.3827 -87.0986,-74.7816 -67.7434,-5.2787 -92.3774,-25.5138 -88.8582,-69.503 1.7595,-24.6339 7.918,-34.3116 27.2733,-43.1094 36.9509,-17.5957 64.2242,-6.1585 99.4156,42.2296 36.0712,51.0275 64.2243,61.5849 156.6016,61.5849 50.1477,0 69.5029,-4.3989 113.4922,-27.2733 56.3061,-28.1531 140.7654,-88.8582 190.9131,-138.1261 16.7159,-15.8361 47.5084,-39.5903 68.6232,-51.9073 28.1531,-16.7159 36.0711,-26.3935 31.6722,-36.9509 -13.1967,-31.6722 -29.0329,-144.2846 -38.7105,-264.815 -14.0765,-190.9132 -15.8361,-214.6674 -21.9946,-334.318 -5.2787,-102.055 -12.317,-146.924 -43.1094,-299.1267 -10.5574,-51.9072 -12.317,-53.6668 -13.1968,-21.9946 -0.8798,19.3553 -7.0383,55.4264 -14.0765,79.1806 -18.4755,58.9456 -96.7763,214.6674 -124.0496,246.3396 -28.1531,32.552 -161.8803,235.7822 -182.9951,277.132 -14.0766,28.1531 -43.9892,116.1315 -55.4264,161.8803 -23.7542,99.4156 -23.7542,249.8587 1.7596,309.684 16.7159,40.4701 16.7159,56.3062 -0.8798,56.3062 -7.0383,0 -19.3553,-14.0765 -26.3936,-32.552 -39.5902,-93.2571 -171.5579,-124.9293 -220.8258,-52.787 -26.3935,37.8307 -26.3935,92.3773 -1.7596,124.0495 35.1914,44.869 87.9785,59.8254 161.0006,44.869 26.3935,-5.2787 33.4318,-4.3989 29.9126,4.3989 -1.7596,7.0383 -11.4372,15.8362 -21.1148,21.1149 -8.7978,5.2787 -18.4755,12.3169 -21.1148,14.9563 -5.2787,7.0383 -54.5466,36.0711 -93.2572,56.3062 -15.8361,7.918 -55.4264,41.3498 -89.7379,74.7816 -72.14231,69.503 -121.41031,157.4814 -168.91861,303.5256 -32.552,97.656 -73.9019,192.6727 -95.8965,215.5471 -7.918,7.9181 -31.6722,37.8307 -53.6668,65.104 -21.1148,28.1531 -58.0658,66.8636 -80.9402,85.3391 -22.8743,19.3553 -53.6668,47.5083 -69.5029,61.5849 -15.83612,14.9563 -40.47008,32.552 -55.42641,39.5903 -21.9946,9.6776 -22.87439,11.4372 -5.2787,7.0383 12.31698,-2.6394 28.15309,-6.1585 35.19136,-7.0383 z m 1883.61796,-56.3062 c -13.1968,-22.8744 -41.3499,-74.7817 -61.5849,-116.1315 -21.1148,-41.3499 -43.1094,-80.9402 -49.2679,-87.9784 -6.1585,-7.0383 -22.8744,-37.8308 -36.0712,-67.7434 -25.5137,-56.3062 -35.1913,-65.9838 -43.9892,-43.1094 -4.3989,10.5574 29.0329,88.8582 58.0658,137.2463 52.787,88.8582 87.0986,152.2027 100.2954,184.7547 21.9946,56.3062 32.552,66.8636 45.7488,48.3881 8.7978,-12.317 7.0382,-21.9946 -13.1968,-55.4264 z m 358.9519,-21.9946 c 14.0766,-31.6722 29.9127,-59.8253 35.1914,-62.4647 26.3935,-16.7159 1.7596,-22.8744 -82.6997,-22.8744 -51.0275,0 -92.3773,1.7596 -92.3773,4.3989 0,7.9181 51.9072,113.4922 70.3827,144.2847 18.4755,29.0328 19.3552,29.0328 31.6722,11.4371 7.0383,-9.6776 23.7542,-43.9892 37.8307,-74.7816 z m -1192.9873,50.1477 c 69.5029,-34.3116 187.394,-39.5903 263.0555,-12.317 30.7924,11.4372 58.9455,23.7542 63.3444,28.1531 21.1148,17.5957 21.1148,4.3989 0.8798,-28.1531 -12.317,-18.4755 -33.4318,-57.186 -46.6286,-85.3391 -80.0603,-162.76 -138.1261,-234.9023 -212.0279,-263.0554 -21.9947,-7.9181 -48.3882,-20.2351 -58.0658,-26.3936 -31.6722,-20.235 -135.4868,-25.5137 -183.8749,-8.7978 -75.6614,25.5137 -76.5412,26.3935 -71.2625,78.3008 7.918,65.104 48.3881,189.1536 76.5412,231.3832 26.3935,39.5903 98.5358,109.0933 112.6124,109.0933 4.3989,0 29.9126,-10.5574 55.4264,-22.8744 z M 558.9734,4113.7776 c 14.07659,-14.0765 34.31159,-34.3115 46.62859,-43.9892 36.0711,-28.1531 133.7272,-162.76 160.1207,-219.0662 13.1968,-29.0329 29.0329,-76.5413 36.0711,-105.5741 30.7925,-138.1262 73.9019,-248.979 119.6507,-307.0447 21.1148,-27.2733 88.85821,-78.3008 152.20271,-114.372 l 43.1094,-25.5137 -38.7105,-12.317 c -51.9073,-17.5957 -55.4264,-21.9946 -87.97841,-87.9784 -22.8744,-46.6286 -26.3936,-62.4647 -21.9946,-93.2571 7.918,-47.5084 38.71051,-86.2189 90.61771,-116.1315 36.0712,-20.2351 49.2679,-22.8744 92.3774,-19.3553 31.6722,2.6394 59.8253,11.4372 77.421,23.7542 l 27.2733,19.3552 -4.3989,-21.1148 c -34.3116,-164.5196 -8.7979,-305.2851 79.1805,-430.2145 16.7159,-24.6339 68.6232,-87.0986 113.4922,-139.0059 102.055,-116.1315 160.1207,-204.1099 195.3121,-295.6074 30.7924,-80.9402 45.7488,-149.5633 27.2733,-126.689 -51.9073,65.1041 -145.1644,139.8857 -173.3175,139.8857 -5.2787,0 -9.6776,3.5192 -9.6776,7.9181 0,4.3989 -13.1968,13.1967 -28.1531,19.3552 -88.8582,36.0712 -197.0717,113.4922 -231.3832,165.3995 -11.4372,17.5956 -32.5521,47.5083 -46.6286,66.8636 -22.8744,33.4318 -53.6668,93.2571 -66.8636,131.9676 -3.5191,9.6776 -6.1585,57.186 -6.1585,105.5741 0.8798,76.5412 3.5191,95.8965 26.3935,147.8037 13.1968,33.4318 39.5903,76.5413 57.186,95.0167 27.2733,29.9127 42.2296,69.503 27.2733,69.503 -2.6393,0 -26.3935,-21.1148 -51.9073,-47.5084 -52.787,-52.787 -80.9401,-65.104 -169.79831,-73.9018 -75.6614,-8.7979 -117.8911,5.2787 -180.3558,59.8253 -81.8199,71.2625 -104.6943,174.1973 -56.3062,256.0172 25.5138,45.7488 94.137,113.4921 114.372,113.4921 26.3935,0 102.055,29.9127 102.055,39.5903 0,7.0383 -21.9946,13.1968 -58.9456,17.5957 -33.4318,3.5191 -63.3444,8.7979 -68.6231,12.317 -4.399,3.5191 -28.1531,14.0765 -52.7871,22.8744 -23.7542,8.7978 -50.1477,21.1148 -58.0658,27.2733 -7.0382,7.0383 -17.5956,12.317 -22.8743,12.317 -4.399,0 -32.5521,22.8744 -61.5849,51.0275 -36.0712,34.3115 -62.4647,69.5029 -82.6998,111.7325 -32.55196,67.7434 -29.91261,39.5903 -23.75412,329.9191 1.75957,109.973 0,124.0496 -21.11482,186.5143 -13.19676,37.8307 -28.15309,76.5412 -33.4318,87.0986 l -10.55741,18.4755 28.1531,-15.8362 c 14.95633,-9.6776 38.7105,-29.0328 51.90726,-43.9892 z m 1442.8461,5.2787 c 0.8798,-12.3169 7.918,-34.3115 17.5957,-49.2679 8.7978,-14.9563 19.3552,-36.0711 22.8743,-48.3881 3.5192,-11.4372 15.8362,-40.4701 26.3936,-65.104 22.8744,-49.2679 55.4264,-129.3283 77.421,-189.1536 l 14.9563,-39.5903 111.7326,3.5191 c 62.4647,1.7596 183.8749,4.3989 270.9735,7.0383 l 159.241,3.5191 40.47,-64.2242 c 21.9946,-35.1914 48.3882,-80.0604 58.9456,-99.4156 10.5574,-19.3553 30.7924,-52.7871 44.869,-74.7817 14.9563,-21.9946 32.552,-51.9073 39.5903,-67.7434 7.0382,-14.9563 16.7159,-29.9126 21.9946,-33.4318 24.6339,-14.9563 -2.6394,-21.1148 -129.3283,-27.2733 -174.1973,-7.918 -172.4377,-7.918 -288.5692,-0.8798 -52.7871,3.5192 -199.711,12.317 -325.5202,20.2351 -125.8091,7.0382 -237.5417,14.9563 -248.9789,16.7159 -11.4372,1.7595 -80.0604,6.1585 -153.9622,9.6776 -73.9019,2.6394 -134.607,6.1585 -136.3666,7.9181 -0.8798,0.8797 27.2733,60.7051 63.3445,132.8474 35.1914,72.1423 93.2571,190.9131 128.4485,263.0554 161.0005,334.318 169.7983,351.9137 176.8366,333.4382 3.5191,-8.7978 7.0383,-26.3935 7.0383,-38.7105 z m 533.1492,-75.6614 c 18.4755,-33.4318 43.9892,-78.3008 58.0657,-99.4156 14.9564,-20.235 36.0712,-56.3062 47.5084,-80.0604 l 21.1148,-41.3498 -93.2571,-6.1585 c -51.0275,-2.6394 -134.607,-5.2787 -183.8749,-5.2787 l -90.6178,0 15.8361,37.8307 c 8.7979,20.235 29.9127,58.9455 46.6286,85.3391 16.7159,26.3935 36.9509,66.8636 45.7488,89.7379 8.7978,22.8744 18.4754,43.9893 22.8744,46.6286 4.3989,2.6394 15.8361,22.8744 26.3935,44.869 l 19.3552,39.5903 15.8362,-25.5137 c 8.7978,-14.0766 30.7924,-52.7871 48.3881,-86.2189 z m 1053.9814,-7.9181 c 35.1914,-63.3444 77.4211,-134.6069 92.3774,-160.1207 l 26.3935,-44.869 -119.6506,1.7596 c -65.9839,0.8798 -147.8038,-1.7596 -182.1154,-5.2787 -33.4318,-3.5191 -62.4646,-5.2787 -63.3444,-3.5191 -5.2787,4.3989 26.3935,68.6231 61.5849,124.9293 17.5957,29.9127 38.7105,67.7434 46.6285,83.5795 29.0329,63.3445 65.1041,124.9294 69.503,120.5304 1.7595,-1.7595 32.552,-54.5466 68.6231,-117.0113 z m 1897.6945,-13.1967 c -16.7159,-83.5795 -10.5574,-173.3175 27.2733,-400.3018 13.1968,-76.5412 3.5192,-153.9623 -26.3935,-211.1482 -59.8253,-114.372 -123.1698,-168.9186 -207.6291,-177.7164 -47.5083,-5.2787 -65.104,-21.1149 -35.1913,-32.552 21.9946,-7.9181 59.8253,-100.2954 70.3827,-172.4377 10.5574,-72.1424 3.5192,-163.6399 -16.7159,-206.7493 -28.1531,-63.3445 -35.1913,-73.9019 -66.8636,-107.3337 -53.6668,-54.5466 -99.4156,-81.8199 -161.0005,-95.8965 -51.9073,-12.317 -61.5849,-12.317 -106.4539,0.8798 -34.3116,10.5574 -55.4264,21.9946 -68.6231,40.4701 -27.2733,36.9509 -44.869,33.4318 -39.5903,-7.0383 5.2787,-43.9892 -10.5574,-122.29 -32.552,-161.8803 -25.5138,-43.9892 -75.6615,-98.5358 -102.055,-109.973 -178.5962,-81.8199 -182.9951,-84.4593 -236.662,-157.4814 -36.0711,-48.3881 -83.5795,-145.1644 -93.2571,-189.1536 -3.5191,-14.9563 -7.918,-25.5137 -10.5574,-22.8744 -7.918,7.9181 41.3499,146.0442 66.8636,186.5143 73.0221,117.0113 90.6178,133.7272 190.9132,182.9951 80.0603,38.7105 124.9293,82.6997 150.4431,145.1644 6.1585,17.5957 15.8361,39.5903 20.235,49.2679 13.1968,29.9127 26.3935,86.2188 26.3935,117.0113 l 0,29.0329 39.5903,-29.9127 c 58.0658,-43.9892 157.4814,-52.787 225.2248,-18.4755 43.9892,21.9946 128.4485,124.0496 153.9622,186.5143 21.1148,50.1477 24.634,71.2625 24.634,138.1261 0,69.503 -2.6394,86.2189 -24.634,131.9676 -14.0765,29.0329 -24.6339,55.4264 -24.6339,59.8254 0.8797,3.5191 -1.7596,6.1584 -5.2788,6.1584 -4.3989,0 -12.3169,9.6777 -17.5956,21.9947 -9.6777,21.1148 -8.7979,21.9946 16.7159,21.9946 58.9455,0 153.9622,73.022 212.028,162.76 33.4317,51.9073 53.6668,121.4102 47.5083,165.3995 -18.4755,142.525 -21.9946,178.5961 -21.9946,256.8969 -0.8798,80.9402 9.6776,188.2739 21.9946,226.9844 8.7978,29.0328 10.5574,11.4372 3.5191,-29.0329 z m -4982.21782,-1.7596 c -2.63935,-7.0383 -5.2787,-4.3989 -5.2787,5.2787 -0.87979,9.6776 1.75957,14.9563 4.39892,11.4372 2.63935,-2.6393 3.51914,-10.5574 0.87978,-16.7159 z m 14.95633,-139.0059 c -2.63935,-12.317 -7.03827,-75.6614 -9.67762,-140.7655 l -5.27871,-119.6506 33.4318,-69.503 c 41.34981,-87.0986 115.25171,-163.6398 197.95141,-203.2301 95.8965,-46.6286 120.5305,-56.3062 146.924,-57.186 21.9946,0 20.235,-1.7595 -12.317,-11.4372 -90.6178,-29.0328 -163.6398,-126.6889 -163.6398,-220.8258 -0.8798,-84.4593 14.0765,-119.6507 72.1423,-175.0771 79.1805,-77.421 105.5741,-88.8582 194.4323,-87.0986 53.66681,1.7596 85.33901,7.0383 109.97301,19.3553 19.3552,9.6776 36.0711,15.8361 37.8307,14.0765 1.7596,-1.7596 -6.1585,-20.235 -17.5957,-41.3498 -18.4754,-34.3116 -20.235,-49.268 -20.235,-156.6016 0,-117.8911 0,-119.6507 29.9126,-175.9569 51.9073,-99.4156 126.689,-191.7929 191.793,-237.5417 33.4318,-21.9946 78.3008,-48.3881 101.1752,-58.0658 23.7542,-8.7978 42.2296,-19.3552 42.2296,-22.8743 0,-4.399 3.5192,-7.0383 7.9181,-7.0383 12.317,0 73.0221,-36.951 68.6231,-41.3499 -4.3989,-3.5191 -202.3503,93.2572 -208.5088,102.9348 -2.6394,3.5191 -20.235,14.0765 -39.5903,24.6339 -32.552,15.8361 -87.9784,71.2626 -146.924,144.2846 -30.7924,38.7105 -68.6231,122.29 -81.8199,182.1154 -13.1967,56.3062 -9.6776,123.1698 8.7979,175.9568 7.0382,21.1148 13.1967,41.3499 13.1967,44.869 0,3.5191 -18.4754,2.6393 -41.3498,-1.7596 -69.50301,-13.1967 -156.60161,-0.8798 -222.58541,32.552 -70.3828,35.1914 -106.4539,73.9019 -131.9677,142.5251 -21.9946,58.0657 -20.235,124.9293 4.399,200.5908 14.9563,43.1094 76.5412,118.7708 97.656,118.7708 6.1585,0 12.317,5.2787 14.9563,12.317 3.5192,9.6776 -7.0382,16.7159 -41.3498,26.3935 -104.6943,30.7925 -234.9024,175.0771 -257.77679,286.8097 -12.31697,59.8253 -12.31697,140.7655 0.87979,190.9132 7.91806,29.9126 14.95633,94.1369 14.95633,144.2846 1.75957,86.2188 1.75957,88.8582 8.79784,38.7105 3.51914,-29.0329 5.27871,-62.4647 2.63935,-74.7817 z m 2358.70139,81.8199 c 7.9181,-18.4754 19.3553,-36.9509 25.5138,-42.2296 8.7978,-7.9181 49.2679,-87.0986 49.2679,-96.7763 0,-2.6393 -44.869,-4.3989 -99.4156,-4.3989 l -99.4156,0 -50.1477,83.5795 c -27.2734,45.7488 -50.1477,85.3391 -50.1477,87.9784 0,2.6394 46.6285,4.399 104.6943,4.399 l 104.6943,0 14.9563,-32.5521 z m 180.3558,-8.7978 c -14.0766,-23.7542 -33.4318,-59.8253 -43.9892,-80.9401 -9.6777,-21.1149 -19.3553,-36.951 -21.1148,-35.1914 -5.2788,5.2787 -84.4593,150.4431 -84.4593,153.9622 0,1.7596 39.5903,3.5192 87.9784,3.5192 l 87.0986,0 -25.5137,-41.3499 z m 263.9352,36.0712 c 0,-4.399 -16.7159,-39.5903 -58.9455,-118.7709 -19.3553,-37.8307 -28.1531,-41.3499 -130.2081,-44.869 l -96.7762,-2.6394 20.235,43.9892 c 11.4372,23.7542 23.7542,50.1477 28.1531,57.186 5.2787,7.0383 15.8361,26.3935 23.7542,42.2297 l 14.9563,28.1531 99.4156,0 c 54.5466,0 99.4156,-2.6394 99.4156,-5.2787 z m 950.167,-136.3666 c 0,-3.5191 15.8361,-12.317 35.1913,-17.5957 19.3553,-6.1585 35.1914,-13.1967 35.1914,-15.8361 0,-7.9181 15.8361,-9.6776 106.4539,-14.9563 57.186,-3.5192 91.4975,-0.8798 145.1644,12.317 121.4102,29.9126 114.3719,29.9126 116.1315,7.918 1.7596,-29.9127 -23.7542,-145.1644 -41.3499,-185.6345 -21.9946,-48.3881 -31.6722,-169.7983 -18.4754,-247.2193 5.2787,-36.0712 21.1148,-82.6997 37.8307,-114.372 l 28.1531,-52.787 -52.7871,3.5191 c -105.5741,6.1585 -153.9622,-15.8361 -276.2522,-123.1698 -41.3499,-36.9509 -139.0059,-95.0166 -144.2846,-86.2188 -0.8798,1.7596 -8.7979,25.5137 -17.5957,51.9073 -21.1148,63.3444 -76.5412,155.7218 -113.4922,190.0333 -36.9509,35.1914 -122.29,91.4976 -137.2463,91.4976 -6.1585,0 -8.7978,4.3989 -6.1585,8.7978 3.5192,5.2787 105.5741,8.7979 278.0118,8.7979 149.5633,0 271.8533,1.7596 271.8533,4.3989 0,9.6776 -53.6668,108.2135 -91.4975,167.159 -21.9946,34.3116 -52.7871,87.9784 -70.3828,120.5304 -16.7159,32.552 -51.0274,90.6178 -74.7816,128.4485 -24.634,38.7105 -44.869,72.1423 -44.869,74.7817 0,2.6393 7.918,2.6393 17.5957,0 9.6776,-2.6394 17.5957,-7.9181 17.5957,-12.317 z M 1693.895,3738.9896 c -25.5137,-40.4701 -57.186,-95.0167 -72.1423,-121.4102 -34.3116,-63.3445 -113.4922,-197.0717 -119.6506,-202.3504 -9.6777,-7.9181 -36.0712,-59.8253 -36.0712,-69.503 0,-7.0382 95.8965,-9.6776 328.1595,-9.6776 l 327.2797,0 -48.3881,-30.7924 c -60.7051,-36.951 -64.2243,-40.4701 -126.6889,-109.9731 -28.1531,-31.6722 -58.9456,-74.7816 -68.6232,-96.7762 -45.7488,-102.055 -41.3499,-96.7763 -65.9838,-85.3391 -12.317,5.2787 -34.3116,21.1148 -49.2679,34.3116 -44.869,42.2296 -109.973,96.7763 -127.5687,107.3337 -8.7979,5.2787 -32.552,20.235 -51.0275,32.552 -38.7105,25.5137 -133.7272,60.7051 -164.5197,60.7051 -10.5574,0 -40.47,-5.2787 -65.9838,-12.317 -25.5137,-6.1585 -45.7487,-10.5574 -45.7487,-9.6776 0,1.7596 10.5574,25.5137 24.6339,53.6668 23.7542,51.9073 23.7542,52.7871 21.1148,219.0663 -1.7595,92.3773 -3.5191,190.0334 -4.3989,218.1865 -1.7596,38.7105 0.8798,49.2679 9.6776,45.7487 6.1585,-2.6393 41.3499,-13.1967 77.421,-23.7541 53.6669,-14.9564 71.2626,-16.7159 98.5359,-8.7979 17.5957,5.2787 48.3881,13.1968 67.7434,18.4755 19.3552,5.2787 57.1859,21.1148 83.5795,35.1914 26.3935,14.9563 49.2679,26.3935 51.0274,27.2733 0.8798,0 -18.4754,-32.552 -43.1094,-72.1423 z m 2024.3834,54.5466 c 0,-14.0766 -29.0329,-16.7159 -226.1045,-21.1148 -182.1153,-3.5192 -186.5143,-3.5192 -178.5962,13.1967 8.7978,15.8362 21.1148,16.7159 206.7493,16.7159 124.0495,0 197.9514,-3.5191 197.9514,-8.7978 z m -532.2694,-63.3445 c -3.5191,-11.4372 -14.9563,-34.3116 -26.3935,-51.0275 -25.5138,-38.7105 -87.0987,-146.0441 -124.0496,-215.5471 -14.9563,-28.1531 -31.6722,-53.6668 -36.0712,-54.5466 -4.3989,-1.7596 -21.9946,23.7542 -38.7105,56.3062 -27.2733,51.9073 -60.7051,109.973 -137.2463,238.4215 l -19.3552,32.552 67.7433,5.2787 c 36.951,2.6394 124.0496,5.2787 193.5526,6.1585 l 125.8091,1.7596 -5.2787,-19.3553 z m 483.8813,-29.9126 c -16.7159,-28.1531 -33.4318,-58.9456 -36.0712,-68.6232 -3.5191,-10.5574 -8.7978,-20.235 -12.3169,-22.8744 -3.5192,-2.6393 -23.7542,-36.0711 -44.869,-74.7816 -20.2351,-38.7105 -54.5467,-94.1369 -73.9019,-123.1698 -20.235,-29.0329 -49.2679,-74.7817 -65.104,-101.1752 -50.1477,-85.3391 -86.2189,-141.6453 -105.5741,-163.6399 -9.6777,-11.4372 -18.4755,-25.5137 -18.4755,-29.9126 0,-8.7979 -40.4701,-72.1423 -95.8965,-149.5633 -19.3552,-26.3936 -35.1913,-51.0275 -36.0711,-53.6669 0,-2.6393 -24.634,-42.2296 -54.5467,-87.0986 -30.7924,-44.869 -68.6231,-102.9348 -85.339,-128.4485 l -29.0329,-47.5083 -76.5412,107.3336 c -42.2297,59.8253 -93.2571,130.2081 -113.4922,156.6016 -20.235,26.3935 -36.9509,51.9073 -36.9509,56.3062 0,5.2787 -9.6776,18.4755 -21.1148,30.7924 -11.4372,13.1968 -43.9892,56.3062 -71.2626,97.6561 -28.153,41.3498 -58.0657,84.4593 -67.7433,96.7762 -95.0167,124.9294 -96.7763,127.5688 -79.1806,130.2081 9.6776,1.7596 44.869,-1.7596 77.421,-7.0383 33.4318,-5.2787 96.7763,-13.1967 139.8857,-18.4754 43.9892,-5.2787 116.1315,-16.7159 161.8803,-26.3936 95.8964,-19.3552 95.8964,-19.3552 129.3282,52.7871 12.317,27.2733 36.951,71.2625 54.5467,97.656 35.1913,52.7871 56.3062,90.6178 99.4156,175.9569 15.8361,31.6722 36.9509,69.5029 47.5083,83.5795 10.5574,14.9563 21.1148,33.4318 24.634,41.3498 6.1585,17.5957 25.5137,19.3553 254.2576,22.8744 l 164.5197,2.6394 -29.9127,-50.1477 z m -874.5055,-1.7596 c 65.9838,-118.7709 83.5795,-149.5633 106.4539,-181.2355 13.1968,-18.4755 24.634,-38.7105 24.634,-43.9893 0,-5.2787 9.6776,-24.6339 21.9946,-42.2296 24.6339,-36.9509 26.3935,-42.2296 11.4372,-42.2296 -10.5575,0 -37.8308,36.9509 -52.7871,72.1423 -3.5191,7.918 -21.1148,37.8307 -40.4701,65.9838 -18.4754,28.1531 -41.3498,65.104 -50.1477,81.8199 -24.6339,47.5084 -24.6339,48.3881 -55.4264,91.4976 -28.1531,39.5903 -29.0329,40.47 -8.7978,40.47 14.9563,0 26.3935,-10.5574 43.1094,-42.2296 z m 1125.244,-351.0339 c 84.4593,-31.6722 228.7439,-146.0442 228.7439,-182.1153 0,-7.0383 5.2787,-16.7159 12.317,-21.9946 9.6776,-7.9181 26.3935,-53.6669 46.6285,-125.8092 2.6394,-11.4372 -0.8798,-15.8361 -14.0765,-15.8361 -10.5574,0 -18.4755,-3.5191 -18.4755,-7.918 0,-4.399 -26.3935,-12.317 -58.9455,-18.4755 -81.82,-15.8361 -248.979,-6.1585 -292.0884,15.8361 -17.5957,8.7979 -46.6286,19.3553 -64.2242,22.8744 -29.9127,5.2787 -33.4318,8.7978 -33.4318,31.6722 0,31.6723 -24.634,138.1262 -36.951,161.8803 -21.1148,38.7105 -93.2571,118.7709 -125.8091,138.1261 -26.3935,16.7159 -25.5138,16.7159 145.1644,16.7159 139.0059,0 178.5962,-2.6393 211.1482,-14.9563 z m -1503.5512,-51.0275 c -19.3552,-21.1148 -36.0711,-46.6285 -36.0711,-55.4264 0,-7.918 -5.2787,-22.8744 -12.317,-32.552 -10.5574,-16.7159 -41.3499,-99.4156 -46.6286,-127.5687 -1.7595,-7.0383 -5.2787,-30.7924 -8.7978,-52.787 -7.9181,-42.2297 -7.0383,-42.2297 -117.0113,-74.7817 -47.5084,-14.0766 -175.0771,-14.9563 -237.5417,-2.6394 -51.0275,10.5575 -96.7763,28.1531 -96.7763,37.8308 0,10.5574 26.3935,72.1423 51.0275,116.1315 43.1094,80.0603 178.5962,199.711 252.498,223.4652 9.6777,3.5191 78.3008,6.1584 153.0825,7.0382 l 135.4867,0.8798 -36.9509,-39.5903 z m 1172.7523,-7.0382 c 56.3062,-58.0658 90.6178,-122.29 101.1752,-188.2739 l 7.9181,-51.0274 -56.3062,60.7051 c -30.7925,32.552 -56.3062,64.2242 -56.3062,70.3827 0,5.2787 -14.0766,37.8307 -30.7925,71.2625 -49.2679,98.5358 -36.9509,111.7326 34.3116,36.951 z m -1090.0526,7.918 c 3.5192,-16.7159 2.6394,-39.5903 -0.8798,-51.0275 -4.3989,-10.5574 -7.918,-23.7541 -7.918,-29.0328 -4.3989,-48.3882 -71.2625,-144.2847 -137.2463,-196.1919 -13.1968,-9.6776 -14.0766,-7.0383 -3.5192,40.4701 20.235,100.2953 58.0658,188.2738 95.8965,228.7438 19.3552,20.2351 38.7105,36.951 42.2296,36.951 3.5192,0 8.7979,-13.1968 11.4372,-29.9127 z m 1016.1508,-34.3116 c 6.1584,-22.8744 14.0765,-43.9892 18.4754,-46.6285 4.3989,-2.6394 14.9564,-21.9946 24.634,-43.1095 9.6776,-21.9946 44.869,-66.8636 80.9401,-102.0549 l 62.4647,-63.3445 -5.2787,-54.5466 c -7.0383,-68.6232 -17.5957,-100.2954 -56.3062,-166.2792 -36.9509,-62.4647 -122.29,-150.4431 -155.7218,-158.3612 -28.1531,-7.0382 -50.1477,8.7979 -75.6614,56.3062 -9.6777,16.7159 -20.2351,36.951 -25.5138,43.9892 -30.7924,49.2679 -54.5466,119.6507 -63.3444,185.6345 -9.6777,70.3827 -8.7979,78.3008 7.918,109.973 25.5138,49.2679 55.4264,101.1752 72.1423,126.6889 21.9946,33.4318 32.552,51.9073 63.3445,112.6124 15.8361,29.9127 30.7924,51.9073 34.3116,48.3881 3.5191,-3.5191 11.4372,-25.5137 17.5957,-49.2679 z m -972.1616,-24.6339 c 3.5192,-9.6777 22.8744,-43.1095 43.9892,-73.0221 21.1149,-30.7925 51.0275,-81.8199 65.9839,-114.372 27.2733,-56.3061 28.1531,-60.7051 24.6339,-154.842 -1.7596,-56.3062 -7.0383,-100.2954 -13.1967,-106.4539 -5.2788,-5.2787 -7.9181,-14.9563 -6.1585,-20.235 2.6393,-6.1585 -1.7596,-22.8744 -9.6777,-36.9509 -7.0382,-14.0766 -13.1967,-29.0329 -13.1967,-34.3116 0,-14.9563 -97.6561,-118.7709 -110.8528,-118.7709 -7.9181,0 -35.1914,20.2351 -60.7051,44.869 -34.3116,32.552 -52.7871,58.9456 -65.9839,95.0167 -10.5574,26.3935 -21.9946,52.7871 -26.3935,58.0658 -8.7978,10.5574 -24.6339,89.7379 -31.6722,155.7218 -4.3989,48.3881 -3.5191,50.1477 20.235,63.3444 30.7925,15.8361 95.0167,86.2189 128.4485,139.8857 13.1968,21.1148 26.3935,57.186 29.0329,80.0604 6.1585,43.1094 15.8361,51.9072 25.5137,21.9946 z m -1288.8838,-49.2679 c 0,-13.1968 -48.3881,-55.4264 -63.3445,-55.4264 -8.7978,0 -15.8361,1.7595 -15.8361,3.5191 0,1.7596 -2.6393,9.6776 -5.2787,16.7159 -7.0383,19.3552 21.1148,41.3498 54.5466,41.3498 16.7159,0 29.9127,-2.6393 29.9127,-6.1584 z m 3613.2737,-39.5903 c 17.5956,-14.0766 10.5574,-46.6286 -10.5575,-48.3882 -9.6776,-1.7595 -25.5137,4.399 -35.1913,13.1968 -19.3553,16.7159 -48.3882,54.5466 -48.3882,64.2242 0,7.9181 78.3008,-15.8361 94.137,-29.0328 z M 3771.0655,2981.4954 c 104.6943,-47.5084 330.7988,-52.7871 416.1379,-10.5574 21.1148,10.5574 25.5137,10.5574 29.0329,0 2.6393,-7.0383 2.6393,-74.7817 0,-151.3229 -12.317,-315.8425 -12.317,-366.87 3.5191,-489.16 8.7978,-67.7434 19.3553,-128.4485 21.9946,-136.3666 3.5191,-8.7978 7.9181,-24.6339 9.6776,-36.9509 7.0383,-37.8307 32.5521,-126.6889 38.7105,-136.3665 22.8744,-33.4318 11.4372,-36.951 -14.9563,-4.399 -42.2296,51.0275 -66.8636,74.7817 -124.9293,123.1698 -25.5138,21.9946 -58.9456,50.1477 -74.7817,63.3445 -14.9563,13.1967 -30.7924,24.6339 -35.1914,24.6339 -3.5191,0 -22.8744,12.317 -43.1094,28.1531 -36.0711,29.0329 -105.5741,73.0221 -168.9186,108.2135 -175.9568,96.7763 -338.7169,209.3886 -338.7169,234.0226 0,2.6393 12.317,10.5574 26.3936,16.7159 34.3115,14.0765 123.1697,111.7326 157.4813,170.6781 33.4318,58.9456 51.9073,124.9294 52.7871,188.2738 0.8798,15.8361 3.5191,27.2733 7.918,25.5138 3.5192,-1.7596 20.2351,-9.6777 36.951,-17.5957 z m -1715.5792,-65.104 c 102.055,-4.399 115.2517,-2.6394 177.7164,18.4754 36.951,12.317 69.503,22.8744 71.2625,22.8744 2.6394,0 7.0383,-22.8744 9.6777,-50.1477 2.6393,-28.1531 5.2787,-57.186 6.1585,-64.2242 0.8797,-7.0383 16.7159,-51.0275 35.1913,-96.7763 29.9127,-73.9019 41.3499,-90.6178 92.3774,-139.0059 31.6722,-30.7924 56.3061,-56.3062 54.5466,-58.0657 -0.8798,-0.8798 -18.4755,-12.317 -38.7105,-25.5138 -19.3553,-13.1967 -39.5903,-23.7542 -43.9892,-23.7542 -5.2787,0 -16.7159,-7.918 -25.5138,-17.5956 -8.7978,-9.6777 -20.235,-17.5957 -25.5137,-17.5957 -5.2787,-0.8798 -31.6722,-14.0766 -58.0658,-30.7925 -26.3935,-16.7159 -73.9018,-43.9892 -105.5741,-59.8253 -50.1477,-25.5137 -149.5633,-91.4976 -257.7767,-170.6781 -37.8308,-27.2733 -189.1536,-181.2356 -210.2685,-213.7876 -13.1967,-20.235 -13.1967,-18.4755 -1.7595,26.3935 39.5903,151.3229 57.1859,295.6075 69.5029,563.0619 7.9181,173.3175 19.3553,286.8097 36.0712,336.0776 l 13.1967,41.3498 45.7488,-17.5957 c 34.3116,-14.0765 73.0221,-19.3552 155.7218,-22.8743 z m 739.8985,-100.2954 c 9.6776,-19.3553 30.7925,-54.5467 46.6286,-76.5413 16.7159,-22.8743 36.0711,-55.4264 44.869,-72.1423 8.7978,-16.7159 18.4754,-32.552 21.1148,-35.1913 3.5191,-2.6394 14.9563,-21.1149 25.5137,-41.3499 37.8307,-73.9019 64.2243,-109.0932 79.1806,-106.4539 7.9181,1.7596 23.7542,20.2351 36.0712,42.2297 45.7487,87.0986 118.7708,216.4269 128.4484,228.7439 6.1585,7.0382 14.9564,26.3935 20.2351,41.3498 5.2787,15.8361 19.3552,42.2297 31.6722,58.0658 13.1968,16.7159 22.8744,32.552 22.8744,35.1913 0,3.5192 7.9181,18.4755 17.5957,34.3116 12.317,21.1148 16.7159,23.7542 16.7159,10.5574 0,-40.47 31.6722,-153.0824 56.3062,-198.8312 14.9563,-28.1531 43.9892,-70.3827 65.104,-94.1369 44.869,-51.0275 54.5466,-40.4701 -96.7763,-104.6943 -159.2409,-67.7434 -239.3013,-131.0879 -283.2905,-225.2248 -28.1531,-58.9455 -29.0328,-60.7051 -39.5903,-39.5903 -21.1148,38.7105 -72.1423,94.1369 -102.0549,109.9731 -16.7159,8.7978 -29.9127,18.4754 -29.9127,21.9946 0,2.6393 -16.7159,12.3169 -36.9509,21.9946 -21.1148,8.7978 -56.3062,26.3935 -78.3008,39.5903 -21.9946,13.1967 -50.1477,26.3935 -61.5849,29.9126 -33.4318,9.6776 -122.29,51.9073 -122.29,57.186 0,2.6393 21.9946,28.1531 47.5083,56.3062 64.2243,71.2625 102.055,178.5962 103.8146,293.8479 l 0.8798,52.787 33.4318,-51.9072 c 19.3552,-29.0329 42.2296,-68.6232 52.787,-87.9784 z m 1998.8697,-49.268 c 7.918,-15.8361 14.9563,-43.9892 14.9563,-62.4646 0,-38.7105 -29.9127,-144.2846 -49.2679,-173.3175 -7.0383,-10.5574 -10.5574,-21.1148 -7.9181,-22.8744 9.6777,-10.5574 -75.6614,-78.3008 -136.3665,-109.973 -80.0604,-41.3499 -105.5741,-62.4647 -154.842,-132.8474 -56.3062,-78.3008 -93.2572,-163.6399 -105.5741,-244.58 l -10.5574,-70.3828 1.7595,109.973 c 1.7596,77.4211 7.0383,129.3283 20.2351,175.9569 18.4754,69.5029 52.787,149.5633 67.7433,160.1207 6.1585,4.3989 6.1585,7.0383 0.8798,7.0383 -6.1585,0 -6.1585,2.6393 0,7.0383 5.2787,3.5191 19.3553,22.8743 32.552,42.2296 12.317,20.235 66.8636,80.0604 120.5305,133.7272 79.1806,79.1806 103.8145,109.0932 128.4485,161.8803 16.7159,35.1913 30.7924,72.1423 30.7924,82.6997 0,32.552 12.317,31.6722 21.9946,-2.6394 6.1585,-18.4754 16.7159,-45.7487 24.634,-61.5849 z M 3492.1739,2553.0405 c 57.186,-54.5466 239.3013,-176.8366 307.0447,-207.6291 21.1148,-8.7978 44.869,-22.8744 52.787,-29.9126 7.9181,-7.0383 29.9127,-21.1149 48.3881,-29.9127 18.4755,-9.6776 42.2297,-25.5137 52.7871,-34.3116 10.5574,-9.6776 37.8307,-28.1531 58.9455,-40.4701 51.0275,-29.0328 179.476,-141.6452 226.1046,-197.0716 l 36.9509,-43.1094 -34.3116,17.5956 c -108.2134,55.4264 -303.5255,53.6669 -654.5594,-3.5191 -63.3445,-10.5574 -212.9078,6.1585 -272.7331,30.7925 -41.3499,15.8361 -109.973,75.6614 -142.525,124.0495 -40.4701,58.9456 -77.4211,97.6561 -87.0987,92.3774 -3.5191,-2.6394 -8.7978,-0.8798 -12.317,4.3989 -8.7978,14.0765 -21.9946,9.6776 -21.9946,-7.0383 0,-8.7978 8.7979,-21.1148 20.2351,-27.2733 53.6668,-28.1531 78.3008,-110.8528 51.0275,-171.5579 -21.9946,-51.0275 -50.1477,-68.6232 -109.9731,-70.3827 -54.5466,-0.8798 -88.8582,18.4754 -109.973,60.7051 -26.3935,53.6668 -5.2787,148.6835 39.5903,185.6344 24.634,20.2351 21.9946,43.9892 -3.5191,30.7925 -7.9181,-3.5192 -29.0329,-9.6777 -45.7488,-13.1968 -17.5957,-2.6393 -58.9456,-21.9946 -92.3774,-41.3498 -120.5304,-71.2626 -241.0608,-95.8965 -387.105,-78.3008 -48.3881,6.1584 -103.8145,12.3169 -123.1698,14.0765 -19.3552,1.7596 -44.869,5.2787 -57.186,7.0383 -21.1148,3.5191 -104.6943,-4.3989 -180.3557,-16.7159 -36.0712,-6.1585 -107.3337,-29.0329 -123.1698,-39.5903 -4.3989,-3.5191 -18.4755,-9.6776 -29.9127,-13.1968 -12.3169,-3.5191 -25.5137,-10.5574 -30.7924,-14.9563 -24.634,-20.235 -104.6943,-68.6232 -109.0932,-65.104 -7.0383,7.918 183.8749,193.5525 226.9843,221.7056 21.9946,14.0765 41.3498,27.2733 43.9892,29.9126 14.9563,15.8362 153.9622,106.4539 202.3503,131.0879 31.6723,16.7159 67.7434,36.9509 80.9402,45.7488 12.317,9.6776 25.5137,16.7159 28.1531,16.7159 3.5191,0 46.6285,25.5137 97.656,58.0657 l 91.4976,57.186 33.4318,-18.4755 c 18.4755,-9.6776 65.104,-31.6722 103.8145,-49.2679 150.4431,-65.9838 222.5854,-113.4921 272.7331,-177.7164 21.9946,-27.2733 39.5903,-58.0658 39.5903,-67.7434 0,-9.6776 -9.6776,-33.4318 -21.9946,-52.787 -30.7924,-51.0275 -29.0329,-93.2572 5.2787,-122.29 34.3116,-29.0329 56.3062,-29.0329 83.5795,1.7595 19.3553,20.2351 21.9946,29.0329 17.5957,60.7051 -2.6394,20.2351 -13.1968,50.1477 -22.8744,65.9839 -22.8744,37.8307 -21.9946,49.2679 4.3989,107.3336 12.317,26.3936 21.9946,51.9073 21.9946,55.4264 0,14.9564 100.2954,98.5359 153.9623,128.4485 14.9563,7.9181 65.9838,30.7925 113.4921,50.1477 47.5084,19.3553 95.0167,40.4701 105.5741,47.5084 23.7542,16.7159 19.3553,17.5957 51.9073,-12.317 z m -454.8484,-446.0506 c 0.8797,-6.1585 -5.2787,-20.235 -14.0766,-30.7924 -14.9563,-18.4755 -17.5957,-19.3553 -30.7924,-6.1585 -20.2351,20.235 -22.8744,66.8636 -5.2787,97.656 l 14.0765,24.634 16.7159,-36.951 c 9.6776,-21.1148 18.4755,-43.1094 19.3553,-48.3881 z m -193.5526,35.1914 c -10.5574,-36.951 -12.3169,-95.8965 -4.3989,-136.3666 16.7159,-74.7816 95.0167,-139.0059 170.6782,-139.0059 76.5412,0 169.7983,80.0604 174.1972,148.6836 1.7596,31.6722 3.5192,34.3115 13.1968,21.1148 31.6722,-43.9892 70.3827,-76.5412 123.1698,-102.055 57.1859,-27.2733 61.5849,-28.1531 173.3175,-28.1531 112.6123,0.8798 200.5907,14.9563 383.5859,62.4647 53.6668,13.1968 234.9023,15.8361 293.8479,4.3989 l 35.1913,-7.918 -48.3881,-0.8798 c -69.5029,-1.7596 -159.2409,-17.5957 -182.1153,-32.552 -10.5574,-7.0383 -23.7542,-12.317 -29.0329,-12.317 -13.1968,0 -85.3391,-34.3116 -132.8474,-63.3445 -21.9946,-13.1967 -45.7488,-24.6339 -51.0275,-24.6339 -6.1585,0 -23.7542,-9.6777 -38.7105,-21.1149 -94.1369,-70.3827 -223.4652,-94.1369 -329.0393,-61.5849 -64.2242,20.2351 -138.1261,89.738 -157.4813,148.6836 -16.7159,51.9072 -26.3936,64.2242 -39.5903,51.0275 -7.0383,-7.0383 -5.2787,-16.7159 4.3989,-36.0712 19.3552,-37.8307 17.5957,-65.9838 -7.0383,-114.3719 -27.2733,-53.6669 -51.9073,-75.6615 -123.1698,-111.7326 -74.7816,-37.8308 -133.7272,-46.6286 -173.3175,-25.5138 -73.022,36.951 -112.6123,83.5795 -134.6069,154.842 -10.5574,35.1914 -9.6777,43.9893 7.0382,93.2572 10.5574,29.9126 25.5138,62.4646 34.3116,73.0221 17.5957,20.235 14.0766,45.7487 -5.2787,37.8307 -7.0383,-2.6394 -17.5957,-14.0766 -23.7542,-26.3935 -6.1584,-11.4372 -14.0765,-21.1149 -17.5956,-21.1149 -2.6394,0 -13.1968,-7.0382 -22.8744,-15.8361 -8.7979,-8.7978 -40.4701,-27.2733 -69.503,-41.3498 -45.7488,-22.8744 -62.4647,-26.3936 -127.5687,-26.3936 -51.0275,0 -84.4593,4.399 -105.5741,14.0766 -173.3175,81.8199 -231.3832,102.0549 -303.5255,107.3337 -77.421,6.1584 -227.8641,-7.9181 -260.4162,-25.5138 -13.1967,-6.1585 -29.9126,-12.317 -36.0711,-11.4372 -6.1585,0 -0.8798,5.2787 11.4372,10.5574 12.317,6.1585 28.1531,14.9564 35.1914,20.2351 22.8743,16.7159 153.0824,55.4264 222.5854,65.9838 52.787,7.918 88.8582,7.918 153.0824,0 45.7488,-5.2787 87.9784,-13.1968 93.2571,-15.8361 5.2787,-3.5192 14.0766,-7.0383 18.4755,-7.0383 5.2787,0 31.6722,-6.1585 60.7051,-12.317 29.9127,-6.1585 84.4593,-9.6776 131.9676,-7.9181 72.1423,2.6394 87.0987,7.0383 154.8421,39.5903 41.3498,19.3553 87.0986,47.5084 101.1751,63.3445 30.7925,31.6722 33.4318,32.552 27.2733,12.317 z m -1258.9711,-88.8582 c -2.6394,-2.6394 -9.6777,0 -15.8361,6.1585 -7.9181,8.7978 -7.0383,9.6776 5.2787,4.3989 8.7978,-2.6394 13.1967,-7.9181 10.5574,-10.5574 z m 580.6575,-72.1423 c 54.5467,-11.4372 130.2081,-42.2297 250.7385,-99.4156 59.8254,-29.0329 190.0334,-28.1531 250.7385,2.6393 24.634,11.4372 53.6669,29.0329 65.104,39.5903 21.1149,17.5957 21.1149,17.5957 14.0766,0 -12.317,-31.6722 -21.1148,-92.3773 -16.7159,-107.3337 35.1914,-104.6943 136.3665,-196.1918 218.1865,-196.1918 82.6997,0 203.2301,65.9838 256.897,140.7654 15.8361,21.9946 29.0328,44.869 29.0328,51.0275 0.8798,14.0766 14.0766,13.1968 27.2733,-2.6393 8.7979,-10.5575 8.7979,-13.1968 -2.6393,-13.1968 -9.6776,0 -17.5957,-13.1968 -24.634,-36.9509 -13.1967,-51.9073 -82.6997,-129.3283 -141.6452,-159.241 -39.5903,-20.235 -58.0658,-23.7542 -126.6889,-24.6339 -80.9402,-0.8798 -151.3229,17.5956 -139.8857,36.0711 2.6393,4.3989 0,6.1585 -7.0383,3.5192 -19.3553,-7.0383 -79.1806,66.8635 -97.656,121.4102 -15.8362,46.6285 -15.8362,89.738 -0.8798,124.0495 8.7978,21.1149 -8.7979,19.3553 -42.2297,-6.1585 -25.5137,-18.4754 -65.104,-31.6722 -116.1315,-36.9509 -29.9126,-3.5191 -138.1261,21.9946 -166.2792,39.5903 -40.4701,23.7542 -149.5633,83.5795 -154.842,85.3391 -2.6394,0 -15.8361,6.1585 -30.7925,12.3169 -28.1531,12.317 -271.8533,16.7159 -312.3233,5.2788 -19.3553,-5.2788 -20.2351,-5.2788 -5.2787,4.3989 30.7924,19.3552 211.1482,30.7924 273.6128,16.7159 z m 1939.9242,-53.6669 c -57.186,-9.6776 -77.421,-16.7159 -175.9569,-64.2242 -71.2625,-34.3116 -153.0824,-80.9402 -219.946,-124.9294 -16.7159,-10.5574 -62.4647,-29.9126 -101.1752,-43.1094 -61.5849,-21.1148 -80.9401,-22.8744 -153.9622,-19.3552 -87.9785,3.5191 -122.29,15.8361 -155.7218,51.9072 -18.4755,21.1148 -32.552,59.8254 -20.2351,59.8254 3.5192,0 12.317,-7.0383 18.4755,-14.9564 7.0383,-7.918 37.8307,-25.5137 68.6232,-39.5903 102.9347,-47.5083 236.6619,-30.7924 356.3126,43.9892 45.7487,29.0329 89.7379,51.0275 212.9077,109.0933 51.9073,23.7542 144.2846,49.2679 179.476,49.2679 l 39.5903,0 -48.3881,-7.9181 z"
       id="path8"
       inkscape:connector-curvature="0" />
    <path
       d="m 265,30 c -3,-5 -1,-10 4,-10 6,0 11,5 11,10 0,6 -2,10 -4,10 -3,0 -8,-4 -11,-10 z"
       id="path12"
       inkscape:connector-curvature="0" />
    <path
       d="m 1080,29 c 0,-5 5,-7 10,-4 6,3 10,8 10,11 0,2 -4,4 -10,4 -5,0 -10,-5 -10,-11 z"
       id="path14"
       inkscape:connector-curvature="0" />
  </g>
</svg>
