<?xml version="1.0" standalone="no"?>
<!DOCTYPE svg PUBLIC "-//W3C//DTD SVG 20010904//EN"
 "http://www.w3.org/TR/2001/REC-SVG-20010904/DTD/svg10.dtd">
<svg version="1.0" xmlns="http://www.w3.org/2000/svg"
 width="902.000000pt" height="903.000000pt" viewBox="0 0 902.000000 903.000000"
 preserveAspectRatio="xMidYMid meet">
<metadata>
Created by potrace 1.11, written by Peter Selinger 2001-2013
</metadata>
<g transform="translate(0.000000,903.000000) scale(0.100000,-0.100000)"
fill="#000000" stroke="none">
<path d="M4492 8329 c-145 -121 -269 -218 -276 -216 -7 3 -84 65 -172 139 -88
74 -165 138 -171 141 -6 4 -103 -103 -229 -253 -119 -143 -220 -260 -223 -260
-3 0 -91 50 -196 111 -155 90 -191 107 -200 96 -5 -8 -80 -136 -165 -285 -85
-149 -159 -271 -165 -272 -5 0 -96 32 -203 71 -107 39 -198 67 -203 62 -4 -4
-55 -138 -113 -297 -58 -159 -107 -291 -110 -293 -2 -2 -95 12 -206 32 -112
19 -205 34 -207 31 -3 -2 -27 -129 -54 -283 -27 -153 -51 -290 -55 -305 l-6
-28 -204 0 -204 0 -2 -302 -3 -302 -190 -34 c-104 -18 -191 -35 -194 -37 -2
-2 19 -132 46 -287 28 -156 49 -286 47 -289 -2 -3 -82 -34 -179 -69 -96 -34
-175 -67 -175 -71 0 -5 43 -126 95 -270 52 -144 94 -263 93 -264 -2 -1 -72
-41 -156 -89 -83 -49 -154 -92 -157 -97 -3 -5 56 -115 131 -245 75 -130 132
-239 127 -243 -4 -4 -65 -56 -135 -115 -71 -59 -128 -110 -128 -114 0 -4 76
-98 169 -209 l169 -201 -109 -131 c-60 -72 -109 -134 -109 -140 0 -7 226 -201
373 -321 17 -14 14 -22 -67 -162 l-85 -147 27 -19 c15 -10 111 -67 215 -126
103 -59 187 -114 187 -121 0 -7 -23 -75 -50 -151 -28 -76 -49 -142 -47 -148 3
-6 104 -47 226 -91 188 -68 221 -83 221 -100 0 -11 -11 -81 -25 -155 -13 -74
-21 -138 -17 -141 4 -4 99 -24 212 -43 113 -20 215 -38 227 -41 23 -5 23 -8
23 -160 l0 -155 229 0 c210 0 230 -1 234 -17 3 -10 15 -76 27 -148 13 -71 24
-131 25 -133 2 -2 92 13 202 32 110 20 209 36 220 36 17 0 27 -17 58 -103 21
-56 43 -117 51 -134 l13 -33 108 39 c59 22 151 55 204 74 l96 35 63 -111 c35
-62 67 -117 72 -124 7 -8 60 18 190 93 99 57 181 104 183 104 1 0 42 -47 90
-105 76 -92 89 -104 103 -93 14 11 224 185 284 236 15 12 28 4 119 -73 82 -70
104 -84 114 -73 6 7 60 71 120 143 60 72 112 134 116 139 4 5 56 -19 115 -53
59 -34 112 -60 118 -58 6 3 51 75 101 161 49 86 95 156 101 156 6 0 60 -18
119 -40 60 -22 110 -39 111 -37 2 1 31 79 65 172 34 94 63 171 64 173 1 1 55
-7 120 -18 64 -12 118 -20 120 -18 2 2 15 71 29 153 15 83 29 162 32 177 l6
28 119 0 119 0 0 174 0 174 63 11 c34 6 82 13 105 17 24 4 46 13 49 21 3 7 -7
83 -22 169 -15 85 -26 157 -24 158 2 2 46 18 97 36 52 19 96 39 99 47 3 7 -18
76 -46 153 -28 77 -51 144 -51 148 0 4 38 29 85 56 47 27 88 52 90 56 3 5 -29
67 -70 139 -41 71 -75 134 -75 139 0 5 29 32 64 60 100 81 99 69 11 174 l-78
93 1017 3 1016 2 0 2090 0 2090 -397 2 -398 3 -43 250 c-24 138 -47 253 -50
257 -4 4 -171 -22 -372 -58 -201 -35 -371 -63 -379 -62 -7 2 -49 101 -96 231
-45 125 -85 231 -88 234 -3 3 -163 -52 -354 -121 -326 -119 -348 -126 -361
-109 -7 10 -63 105 -124 211 -86 151 -114 192 -127 187 -14 -5 -501 -284 -587
-336 l-31 -19 -149 179 c-82 99 -154 180 -159 180 -6 1 -129 -98 -273 -220z
m417 24 c77 -92 138 -170 135 -174 -5 -8 -500 -294 -526 -304 -12 -5 -54 24
-147 102 -72 59 -130 110 -130 113 0 8 510 430 519 430 5 0 72 -75 149 -167z
m907 -34 c62 -107 110 -197 106 -200 -4 -3 -142 -54 -306 -114 -253 -91 -301
-106 -310 -93 -6 8 -58 69 -115 137 -56 67 -101 125 -98 128 17 16 593 343
601 340 5 -2 60 -91 122 -198z m-1783 -85 c89 -75 162 -140 162 -145 0 -4
-103 -95 -228 -200 -205 -171 -231 -190 -250 -181 -78 38 -262 151 -262 162 0
10 404 500 413 500 2 0 76 -61 165 -136z m2617 113 c0 -2 36 -102 80 -222 44
-120 79 -220 77 -221 -5 -5 -657 -117 -660 -113 -3 2 -45 75 -95 161 l-90 156
111 41 c62 23 209 77 327 120 190 70 250 89 250 78z m-1467 -319 c59 -72 104
-135 100 -139 -8 -7 -518 -195 -547 -201 -14 -3 -206 148 -206 161 1 8 522
310 535 310 6 0 59 -59 118 -131z m851 -84 c48 -85 86 -157 84 -160 -4 -4
-518 -96 -587 -106 -20 -2 -39 14 -109 97 -67 78 -82 101 -70 108 16 11 568
214 583 216 6 0 50 -70 99 -155z m-2745 -14 c62 -37 112 -71 111 -76 -5 -17
-365 -443 -376 -444 -14 0 -299 106 -299 112 0 6 294 518 308 536 10 13 33 2
256 -128z m1066 34 c104 -87 124 -109 113 -119 -13 -12 -484 -285 -492 -285
-2 0 -52 28 -111 61 -103 60 -106 62 -88 80 37 36 438 369 445 369 3 0 64 -48
133 -106z m3225 43 c0 -1 18 -104 40 -227 22 -124 40 -233 40 -242 0 -17 -23
-18 -345 -18 -190 0 -345 1 -345 3 0 2 -29 83 -65 181 -36 99 -64 180 -63 181
2 1 154 30 338 63 299 53 400 68 400 59z m-755 -144 c34 -87 115 -318 115
-329 0 -12 -54 -14 -319 -14 l-319 0 -71 123 c-59 102 -68 123 -53 126 55 12
601 109 618 110 12 0 25 -7 29 -16z m-1426 -93 c65 -78 76 -96 63 -102 -10 -4
-147 -30 -305 -58 l-289 -50 -47 40 c-83 68 -85 63 41 109 62 22 185 68 273
100 88 33 166 59 172 58 7 -1 48 -45 92 -97z m-1830 -1 c78 -45 141 -85 141
-88 0 -9 -406 -350 -425 -357 -21 -8 -226 67 -223 81 2 9 357 442 365 444 1 1
65 -36 142 -80z m1083 -54 c32 -26 44 -41 35 -46 -49 -27 -550 -199 -564 -195
-10 4 -42 21 -72 40 l-53 33 213 123 c118 67 232 133 254 146 l39 23 51 -43
c27 -23 71 -60 97 -81z m1554 -70 c35 -60 64 -113 64 -117 0 -5 -143 -8 -318
-8 l-319 0 -53 65 c-29 36 -51 67 -49 69 8 7 565 104 588 102 19 -1 36 -22 87
-111z m-2360 -36 c57 -34 103 -64 100 -66 -2 -3 -116 -69 -252 -148 l-248
-143 -65 25 c-36 14 -68 27 -70 29 -2 2 7 12 20 23 13 11 110 91 214 180 105
88 191 160 193 161 1 0 50 -28 108 -61z m942 -8 l53 -46 -93 -17 c-93 -17
-389 -26 -374 -11 13 14 341 130 351 124 6 -2 34 -25 63 -50z m-2245 -41 l147
-53 -19 -33 c-11 -18 -74 -128 -142 -246 -67 -117 -123 -214 -124 -216 -3 -3
-307 49 -313 53 -1 1 41 121 94 266 53 145 101 276 106 291 l10 27 46 -18 c26
-10 113 -42 195 -71z m3006 31 c28 -33 51 -62 51 -65 0 -11 -693 -2 -697 9 -2
7 501 106 583 114 6 1 34 -26 63 -58z m-679 -61 c0 -5 -15 -10 -32 -9 -31 1
-32 1 -8 9 35 11 40 11 40 0z m-834 -31 c29 -16 56 -34 58 -38 9 -14 -176 -70
-298 -91 -66 -11 -121 -18 -123 -16 -5 4 288 175 301 175 5 1 33 -13 62 -30z
m-1083 -88 c27 -9 49 -21 49 -26 0 -6 -77 -102 -171 -215 l-172 -206 -112 19
c-62 11 -114 21 -116 23 -4 3 250 453 271 481 7 9 34 3 106 -24 53 -19 119
-43 145 -52z m1347 70 c0 -16 -11 -22 -56 -31 -84 -18 -102 -3 -29 25 76 29
85 29 85 6z m190 13 c-8 -2 -50 -10 -92 -18 -75 -13 -78 -13 -78 5 0 17 8 19
93 18 50 -1 85 -3 77 -5z m612 -157 c106 -89 484 -407 841 -706 l647 -543 -17
-23 c-10 -13 -261 -314 -558 -669 -308 -368 -547 -645 -557 -645 -13 -1 -19
15 -29 74 -7 41 -16 80 -19 86 -5 7 -36 5 -100 -6 -51 -9 -93 -15 -95 -13 -1
2 186 329 416 728 231 399 418 729 416 734 -2 6 -390 233 -863 506 l-859 496
-3 42 c-4 48 -19 41 173 76 94 17 170 24 272 25 l142 1 193 -163z m1263 -719
c407 -485 741 -887 743 -894 2 -6 -158 -147 -355 -312 -197 -165 -506 -425
-687 -576 -181 -152 -334 -275 -340 -273 -7 2 -12 41 -14 95 l-3 91 -103 3
-104 3 558 665 c307 366 556 668 553 673 -2 4 -325 276 -716 604 -918 771
-947 795 -947 799 0 2 152 4 338 4 l337 0 740 -882z m572 -241 c545 -943 644
-1121 632 -1132 -30 -27 -1580 -915 -1599 -915 -24 0 -24 -6 -4 98 8 46 13 86
11 88 -3 3 -48 12 -101 21 -53 9 -96 20 -96 24 0 4 163 144 362 311 803 673
992 833 995 843 2 6 -330 408 -737 893 -407 485 -740 884 -740 887 0 3 142 4
316 3 l316 -3 645 -1118z m503 -204 c265 -731 495 -1362 510 -1404 l28 -75
-898 -327 c-541 -197 -904 -325 -914 -321 -10 4 -15 13 -12 20 47 122 58 166
46 174 -8 5 -54 23 -103 41 -49 17 -85 35 -80 39 4 4 361 211 793 460 432 248
789 456 794 460 5 5 -276 501 -638 1128 -355 616 -646 1123 -646 1126 0 3 143
6 319 6 l318 0 483 -1327z m230 1323 c0 -2 135 -769 300 -1705 165 -936 300
-1709 300 -1719 0 -15 -122 -38 -968 -188 -791 -139 -970 -168 -981 -158 -12
11 -7 25 33 94 26 44 44 84 42 89 -3 4 -47 32 -97 61 -62 36 -87 55 -78 60 8
4 408 151 889 325 481 175 879 321 884 326 6 5 -917 2569 -1009 2802 -7 16 13
17 339 17 190 0 346 -2 346 -4z m790 -2066 l0 -2070 -1020 0 c-883 0 -1021 2
-1026 15 -4 8 19 43 55 86 34 40 61 76 61 80 0 4 -39 40 -87 80 -47 40 -81 75
-75 77 6 2 441 79 967 172 526 93 958 170 960 172 3 3 -581 3337 -601 3431
l-6 27 386 0 386 0 0 -2070z m-4323 2004 c-3 -3 -12 -4 -19 -1 -8 3 -5 6 6 6
11 1 17 -2 13 -5z m163 -24 c0 -35 -7 -36 -49 -12 -39 22 -39 30 2 35 17 2 35
5 40 5 4 1 7 -11 7 -28z m-2 -260 c1 -128 -1 -200 -8 -200 -5 0 -153 52 -329
116 l-319 116 -7 35 c-3 20 -3 39 2 43 25 23 313 116 418 135 l120 22 60 -33
60 -33 3 -201z m-1163 195 c54 -20 104 -39 111 -43 8 -5 -63 -70 -203 -188
l-216 -180 -64 12 c-35 6 -66 14 -69 17 -4 4 334 417 342 417 1 0 46 -16 99
-35z m655 -2 c-8 -3 -48 -18 -88 -34 -61 -23 -74 -25 -79 -13 -8 21 -3 23 78
38 82 15 115 18 89 9z m1388 -504 l850 -490 -116 -202 c-616 -1067 -731 -1262
-744 -1265 -10 -2 -22 19 -39 69 -13 39 -30 74 -37 76 -7 3 -51 -9 -98 -26
-74 -26 -85 -28 -79 -14 12 32 555 1525 555 1528 0 1 -259 96 -575 211 l-575
209 0 198 c0 108 2 197 4 197 2 0 387 -221 854 -491z m-1578 452 c0 -13 -14
-24 -45 -35 -73 -28 -88 -15 -25 21 64 38 70 39 70 14z m-263 -19 c26 -11 57
-22 68 -26 15 -6 5 -15 -57 -50 -41 -24 -88 -48 -104 -53 -16 -6 -74 -27 -129
-47 -81 -30 -96 -33 -80 -17 20 20 248 210 252 211 1 0 24 -8 50 -18z m277
-44 c11 -42 13 -41 -49 -17 l-30 11 30 14 c40 18 42 17 49 -8z m-164 -8 c-8
-5 -19 -10 -25 -10 -5 0 -3 5 5 10 8 5 20 10 25 10 6 0 3 -5 -5 -10z m130 -38
l45 -19 33 -188 c18 -104 31 -189 30 -190 -4 -3 -660 113 -663 117 -1 2 -7 17
-13 35 -13 38 -23 29 143 124 140 80 315 151 355 145 14 -3 45 -13 70 -24z
m718 -381 c2 -110 1 -121 -15 -121 -24 0 -562 96 -567 101 -5 4 -66 347 -66
366 0 6 145 -42 323 -107 l322 -117 3 -122z m-2335 264 c84 -14 97 -20 92 -34
-6 -14 -147 -400 -177 -483 l-10 -28 -148 0 c-82 0 -151 3 -153 8 -3 5 97 582
102 588 1 1 45 -7 99 -16 53 -10 141 -25 195 -35z m1107 -30 c-63 -37 -76 -42
-83 -29 -11 19 -16 16 68 47 98 36 101 33 15 -18z m-821 -20 c73 -13 135 -25
136 -27 2 -2 -57 -106 -130 -233 l-133 -230 -111 -3 c-87 -2 -111 0 -111 11 0
7 38 118 85 247 47 129 87 241 90 248 6 16 20 16 174 -13z m721 -23 c0 -17
-71 -62 -99 -62 -17 0 69 79 87 80 6 0 12 -8 12 -18z m-416 -30 l89 -17 -179
-212 -178 -213 -68 0 c-38 0 -68 3 -68 6 0 5 213 379 246 432 17 26 36 27 158
4z m441 -39 c4 -17 3 -22 -7 -19 -7 2 -26 7 -42 11 l-29 6 29 18 c31 20 38 18
49 -16z m-216 -2 c22 -6 21 -9 -35 -57 -50 -43 -175 -123 -273 -174 l-24 -13
24 30 c13 17 62 76 109 132 l85 102 45 -7 c24 -4 55 -10 69 -13z m61 -16 c0
-2 -10 -9 -22 -15 -22 -11 -22 -10 -4 4 21 17 26 19 26 11z m2053 -200 c301
-109 547 -202 547 -207 0 -20 -552 -1525 -564 -1537 -12 -11 -20 -2 -55 58
-23 39 -45 71 -49 71 -4 0 -41 -20 -82 -44 -41 -24 -76 -43 -77 -42 -1 1 59
351 134 779 76 427 134 780 130 784 -4 3 -116 26 -250 49 -133 24 -257 46
-274 49 l-33 6 0 121 c0 92 3 119 13 116 6 -3 258 -94 560 -203z m-1894 175
c18 -9 141 -342 132 -353 -4 -4 -151 -6 -326 -5 l-319 3 -18 32 -19 31 121
102 c67 56 162 126 213 156 89 53 94 55 147 48 30 -3 61 -10 69 -14z m385 -65
c170 -30 310 -56 311 -57 4 -7 35 -196 35 -216 l0 -22 -280 0 c-262 0 -280 1
-289 19 -10 17 -121 319 -121 327 0 9 48 2 344 -51z m646 -113 l265 -48 0 -64
0 -65 -267 -3 -268 -2 -5 22 c-8 39 -35 190 -35 199 0 14 30 10 310 -39z
m-1465 10 c-102 -88 -127 -105 -135 -92 -11 17 -18 11 65 59 67 40 89 50 70
33z m2040 -112 c138 -24 251 -45 253 -46 7 -5 -270 -1559 -280 -1569 -6 -7
-28 10 -63 49 -59 66 -53 66 -137 -7 l-58 -49 0 837 c0 794 1 837 18 833 9 -3
130 -24 267 -48z m-2192 5 c6 -14 -78 -93 -88 -83 -6 6 67 98 76 98 4 0 9 -7
12 -15z m34 -54 c15 -24 8 -31 -34 -31 -39 0 -41 5 -10 31 28 23 30 23 44 0z
m-922 -118 c-7 -38 -27 -153 -45 -258 -18 -104 -36 -193 -39 -197 -3 -4 -58
-16 -121 -27 -63 -12 -127 -24 -142 -27 l-28 -6 0 291 0 291 194 0 194 0 -13
-67z m335 65 c0 -2 -40 -111 -88 -243 l-87 -240 -103 -18 c-57 -11 -106 -17
-109 -14 -5 5 70 455 83 500 5 15 21 17 155 17 82 0 149 -1 149 -2z m128 -205
c-65 -115 -126 -218 -133 -229 -10 -16 -31 -25 -76 -33 -35 -6 -64 -9 -65 -8
-2 1 36 109 83 240 l86 237 113 0 112 0 -120 -207z m272 201 c0 -23 -144 -162
-273 -263 -9 -8 19 50 64 128 l81 141 64 0 c35 0 64 -3 64 -6z m300 -141 c47
-81 86 -152 88 -158 2 -6 -112 -30 -307 -65 l-310 -54 -20 25 c-11 13 -20 26
-20 29 -1 18 208 250 274 304 l79 66 66 0 66 0 84 -147z m608 95 c42 -113 56
-157 52 -161 -9 -6 -534 -96 -541 -92 -3 3 -39 62 -79 132 -41 71 -80 138 -88
151 l-14 22 325 0 326 0 19 -52z m576 35 c2 -10 7 -37 11 -60 6 -39 5 -41 -22
-47 -15 -3 -120 -21 -233 -41 -113 -19 -215 -38 -228 -40 -24 -6 -21 -12 -72
128 l-29 77 284 0 c262 0 284 -1 289 -17z m554 -755 c-2 -548 -6 -772 -14
-775 -6 -2 -36 17 -66 42 -30 25 -57 45 -60 45 -2 0 -28 -29 -58 -65 -29 -36
-55 -64 -56 -62 -1 1 -64 351 -139 777 -75 426 -138 783 -141 793 -5 16 12 17
265 17 l271 0 -2 -772z m-405 -90 c70 -398 127 -733 127 -745 0 -30 -5 -29
-73 12 -32 19 -61 35 -65 35 -4 0 -25 -32 -46 -70 -22 -39 -43 -67 -46 -63
-13 16 -531 1455 -526 1460 5 6 449 89 486 92 13 1 38 -128 143 -721z m-1834
615 c-66 -84 -84 -102 -94 -92 -7 7 7 25 45 59 59 53 71 61 49 33z m1196 -44
c9 -28 15 -52 12 -55 -4 -4 -87 -35 -374 -139 l-93 -34 -54 92 c-30 51 -53 94
-51 96 7 6 529 98 537 94 3 -2 14 -26 23 -54z m-507 -180 l32 -56 -243 -88
c-133 -48 -247 -90 -253 -92 -6 -2 -62 56 -123 129 -62 73 -108 134 -102 136
5 2 143 27 308 56 l298 53 26 -41 c14 -23 40 -66 57 -97z m-798 104 c-1 -20
-58 -88 -67 -79 -7 7 45 96 57 96 6 0 10 -8 10 -17z m1582 -685 c136 -374 245
-685 242 -689 -3 -5 -35 2 -71 16 -37 13 -70 22 -73 20 -4 -2 -17 -36 -31 -75
-13 -38 -26 -70 -29 -70 -5 1 -748 1288 -753 1304 -2 8 432 174 458 175 6 0
121 -306 257 -681z m-1542 647 c16 -19 12 -23 -30 -31 l-33 -7 19 26 c22 31
27 32 44 12z m144 -174 c59 -71 108 -133 107 -137 0 -4 -127 -54 -282 -110
l-283 -103 -28 20 c-32 23 -38 7 58 171 74 127 185 266 217 273 105 22 94 28
211 -114z m-315 77 c-31 -59 -87 -139 -151 -215 -39 -46 -72 -83 -74 -83 -2 0
7 28 20 63 13 34 36 96 50 137 15 42 30 80 34 87 6 9 54 21 125 32 4 0 2 -9
-4 -21z m-149 -15 c0 -14 -163 -458 -172 -470 -11 -14 -107 -47 -115 -40 -5 6
62 409 76 457 7 22 17 27 97 41 108 20 114 21 114 12z m-230 -35 c-2 -26 -88
-490 -92 -493 -2 -2 -48 -20 -101 -40 l-97 -35 0 260 0 259 33 6 c17 3 77 14
132 24 103 20 125 23 125 19z m1381 -46 l27 -48 -167 -96 c-91 -53 -187 -108
-213 -123 l-46 -26 -64 77 c-34 42 -63 80 -62 83 0 7 462 178 484 180 8 0 27
-21 41 -47z m-1691 -271 l0 -258 -130 -48 c-72 -26 -134 -44 -138 -40 -8 7
-103 538 -97 543 5 5 307 60 338 61 l27 1 0 -259z m2080 -402 c190 -329 347
-607 349 -616 3 -17 7 -17 -110 3 l-36 6 -12 -76 c-7 -42 -16 -76 -19 -75 -9
1 -945 1119 -940 1124 12 11 405 234 413 234 6 0 165 -270 355 -600z m-1556
484 c-43 -75 -51 -86 -59 -74 -3 6 -3 17 1 24 11 18 78 97 82 97 2 0 -8 -21
-24 -47z m680 -30 c36 -43 66 -80 66 -83 0 -4 -420 -250 -442 -258 -5 -2 -64
42 -131 99 -67 56 -124 104 -126 106 -2 2 -2 5 1 8 7 7 540 203 555 204 7 1
41 -34 77 -76z m-748 -67 c5 -14 -43 -102 -51 -94 -7 7 28 108 37 108 5 0 11
-6 14 -14z m47 -40 c16 -13 15 -15 -14 -25 -42 -14 -40 -15 -27 14 13 29 16
29 41 11z m850 -87 c-4 -4 -86 -72 -182 -152 l-175 -146 -35 29 c-20 16 -55
46 -79 67 l-42 38 222 128 223 128 38 -42 c21 -23 34 -46 30 -50z m-670 -63
c105 -88 116 -100 100 -111 -42 -28 -493 -285 -500 -285 -4 0 -18 8 -30 18
l-23 17 49 132 c27 73 71 172 98 220 48 83 53 89 104 109 63 24 44 34 202
-100z m-349 -16 c-23 -65 -144 -287 -144 -265 0 14 49 288 52 291 5 4 102 43
110 43 4 1 -4 -30 -18 -69z m1485 -459 c237 -283 431 -518 431 -522 0 -5 -30
-9 -67 -11 l-68 -3 -5 -77 -5 -78 -540 453 c-297 249 -540 458 -540 464 0 15
348 304 356 296 4 -5 201 -239 438 -522z m-1604 457 c-3 -13 -23 -123 -44
-246 -22 -123 -41 -225 -43 -226 -14 -10 -98 -56 -102 -56 -3 0 -6 108 -6 239
l0 239 93 35 c112 43 109 42 102 15z m-215 -302 l0 -244 -87 -51 c-48 -27 -89
-48 -92 -46 -4 4 -76 407 -83 460 -3 29 -2 30 122 76 69 26 128 47 133 48 4 1
7 -109 7 -243z m901 137 c44 -37 76 -70 72 -73 -5 -4 -92 -77 -194 -163 l-186
-156 -142 81 c-77 45 -139 83 -136 86 5 5 498 291 503 292 2 0 39 -30 83 -67z
m-1144 -253 c24 -135 40 -246 36 -248 -4 -1 -57 -31 -118 -67 -60 -35 -113
-61 -117 -57 -6 7 -173 461 -180 491 -2 9 45 32 152 72 85 32 162 57 170 56
10 -2 25 -63 57 -247z m484 163 c-10 -27 -21 -57 -25 -67 -5 -14 -10 -16 -18
-8 -7 7 -1 26 22 66 17 31 33 56 36 56 2 0 -5 -21 -15 -47z m801 -26 l37 -33
-148 -176 -148 -176 -82 46 c-44 26 -81 50 -81 53 0 8 370 319 379 319 3 -1
23 -15 43 -33z m576 -485 c271 -227 492 -417 492 -421 0 -5 -30 -14 -66 -21
l-66 -13 6 -41 c4 -22 9 -56 13 -75 3 -19 2 -32 -3 -29 -7 4 -1155 667 -1186
685 -4 2 59 82 139 178 127 151 148 173 163 162 9 -7 238 -198 508 -425z
m2060 358 l31 -56 -96 -34 -96 -33 -24 27 c-39 46 -31 60 60 114 45 27 85 47
88 43 3 -3 20 -31 37 -61z m-3482 35 c-11 -43 -26 -78 -32 -72 -3 3 -2 26 1
51 5 31 12 46 22 46 11 0 13 -7 9 -25z m3178 -21 l39 -47 -24 -17 c-13 -10
-51 -33 -85 -52 l-63 -33 -25 24 c-39 37 -32 60 37 118 34 29 67 52 72 52 6 1
28 -20 49 -45z m-3114 1 c0 -3 -13 -11 -29 -20 l-30 -15 10 30 c9 25 14 28 30
20 10 -6 19 -13 19 -15z m2822 -41 c23 -20 44 -39 45 -43 2 -6 -105 -97 -134
-114 -17 -10 -73 28 -73 49 0 16 99 144 112 144 3 0 26 -16 50 -36z m897 -30
c13 -36 22 -67 20 -68 -5 -4 -179 -36 -194 -36 -18 0 -47 60 -41 83 4 17 25
29 93 54 48 17 90 32 93 32 3 1 16 -29 29 -65z m-3564 -15 c68 -38 130 -76
139 -82 15 -11 -10 -35 -194 -190 -117 -98 -218 -181 -224 -183 -7 -3 -24 -1
-38 5 l-25 9 24 134 c13 73 38 175 56 227 30 87 35 96 77 122 25 16 49 29 54
29 5 0 64 -32 131 -71z m3025 -16 c0 -57 -10 -70 -66 -91 l-55 -20 -27 23
c-15 13 -25 25 -22 28 18 15 147 87 158 87 7 0 12 -12 12 -27z m290 -8 c0 -9
-6 -31 -14 -49 -11 -25 -22 -36 -45 -40 -17 -3 -44 -8 -59 -11 -21 -4 -34 1
-55 23 l-28 29 83 31 c95 35 118 38 118 17z m-3616 -67 c-11 -61 -77 -263 -90
-277 -2 -2 -4 62 -4 142 l0 147 53 30 c28 16 53 30 53 30 1 0 -5 -33 -12 -72z
m2700 46 c25 -14 46 -29 46 -33 0 -4 -25 -37 -55 -73 -54 -65 -56 -66 -85 -56
-52 17 -53 36 -8 116 22 40 43 72 48 72 4 0 28 -12 54 -26z m354 -20 c3 -41 2
-42 -50 -72 -51 -30 -53 -30 -80 -14 -15 9 -28 19 -27 22 1 13 126 109 139
107 10 -1 16 -16 18 -43z m322 5 c0 -5 -7 -9 -15 -9 -9 0 -15 9 -15 21 0 18 2
19 15 9 8 -7 15 -16 15 -21z m781 -10 c4 -19 10 -51 13 -71 l7 -38 -109 0
-109 0 -15 39 c-23 59 -9 72 99 92 48 9 92 15 98 14 5 -1 12 -17 16 -36z
m-1057 -10 c-10 -16 -24 -9 -24 12 0 18 2 19 15 9 8 -7 12 -16 9 -21z m550 5
c9 -23 8 -24 -14 -24 -11 0 -20 2 -20 4 0 12 13 36 20 36 4 0 11 -7 14 -16z
m-231 -30 c11 -14 17 -27 15 -29 -2 -2 -28 -7 -57 -11 -49 -6 -54 -5 -48 10 4
10 7 21 7 26 0 7 42 27 60 29 3 0 13 -11 23 -25z m482 16 c3 -6 -4 -28 -16
-50 l-23 -40 -65 0 c-63 0 -67 1 -84 31 -10 18 -16 33 -15 35 5 4 150 32 175
33 12 1 25 -4 28 -9z m-4057 -522 c-24 -20 -46 -37 -49 -38 -3 0 -24 102 -45
228 l-40 227 85 51 86 50 3 -240 2 -240 -42 -38z m2945 515 c2 -5 7 -24 11
-45 6 -34 4 -38 -38 -73 -42 -34 -46 -35 -75 -23 l-30 13 56 68 c54 65 67 75
76 60z m350 -55 c-52 -23 -63 -22 -63 7 0 16 9 29 28 39 25 13 29 13 50 -7
l23 -22 -38 -17z m-2566 -6 l82 -47 -155 -185 c-86 -102 -161 -184 -168 -184
-21 2 -286 98 -285 104 0 9 424 359 434 360 6 0 47 -21 92 -48z m2733 24 c0
-29 -43 -44 -67 -24 -13 11 -10 15 23 29 22 10 40 18 42 18 1 1 2 -10 2 -23z
m-466 8 c13 -5 14 -9 5 -20 -13 -16 -29 -9 -29 12 0 16 2 16 24 8z m851 -24
l16 -30 -61 0 c-33 0 -60 3 -60 8 0 4 7 18 16 30 23 34 69 30 89 -8z m-120 -9
c-8 -25 -56 -29 -75 -6 -12 15 -8 17 55 28 26 4 28 2 20 -22z m-515 -1 c0 -25
-44 -45 -68 -31 -13 7 -10 12 19 30 42 26 49 26 49 1z m873 0 c4 -16 0 -20
-19 -20 -22 0 -23 3 -14 20 6 11 15 20 19 20 5 0 11 -9 14 -20z m-1028 -2 c14
-6 25 -14 25 -17 0 -6 -74 -51 -83 -51 -3 0 -7 10 -10 21 -4 15 1 28 16 40 27
22 21 21 52 7z m313 -6 c2 -8 -11 -12 -40 -12 l-43 1 30 14 c34 15 47 14 53
-3z m252 3 c11 -13 7 -15 -29 -15 -46 0 -56 16 -13 23 15 2 28 5 28 6 1 0 7
-6 14 -14z m-1007 -12 c26 -9 47 -21 47 -26 0 -19 -83 -147 -95 -147 -30 0
-65 20 -65 37 0 10 9 43 20 73 12 30 23 61 25 68 6 16 11 15 68 -5z m510 -34
c-5 -5 -24 -11 -43 -15 l-35 -6 30 20 c28 18 66 19 48 1z m307 -4 c8 -10 10
-33 5 -75 -4 -33 -9 -60 -12 -60 -12 0 -193 112 -193 120 0 5 17 12 38 15 20
4 42 8 47 10 29 10 104 4 115 -10z m243 -14 c20 -19 20 -20 -3 -80 l-22 -61
-62 51 c-33 29 -73 62 -88 75 -49 40 -38 48 64 41 73 -5 95 -10 111 -26z m211
14 c7 -19 -27 -19 -69 0 l-30 13 46 1 c33 1 49 -3 53 -14z m116 8 c0 -5 -7
-16 -14 -26 -17 -22 -62 -14 -77 14 -9 17 -6 19 41 19 27 0 50 -3 50 -7z m109
-25 c6 -17 9 -33 7 -36 -7 -6 -105 9 -111 17 -11 19 27 51 60 51 28 0 35 -5
44 -32z m228 15 c5 -14 -55 -83 -73 -83 -7 0 -36 5 -64 11 -44 9 -52 15 -65
46 -8 20 -15 37 -15 40 0 10 214 -3 217 -14z m263 -64 c0 -79 -1 -81 -22 -76
-13 3 -54 11 -93 17 -100 16 -111 22 -118 66 -11 64 7 74 130 74 l103 0 0 -81z
m-4714 -160 l40 -230 -75 -64 c-48 -40 -78 -59 -82 -52 -25 46 -160 440 -153
447 11 10 217 130 224 130 3 0 24 -104 46 -231z m2834 196 c13 -39 6 -57 -37
-96 -21 -19 -35 -24 -55 -20 l-27 6 40 73 c22 39 47 72 54 72 7 0 19 -16 25
-35z m250 15 c0 -23 -35 -44 -58 -35 -14 6 -12 10 13 31 36 29 45 30 45 4z
m-2100 -10 c22 -11 40 -25 40 -31 0 -19 -212 -379 -224 -378 -28 1 -161 58
-158 68 2 11 293 361 299 361 2 0 22 -9 43 -20z m1898 -1 c-2 -6 -8 -10 -13
-10 -5 0 -11 4 -13 10 -2 6 4 11 13 11 9 0 15 -5 13 -11z m423 1 c16 -9 19
-22 19 -71 0 -45 -3 -60 -12 -57 -7 3 -55 20 -105 38 -51 18 -93 37 -93 42 0
10 34 24 105 43 63 17 62 17 86 5z m676 -17 c71 -22 79 -43 41 -111 -17 -28
-33 -52 -38 -52 -10 0 -150 170 -150 182 0 13 75 3 147 -19z m-1033 -2 c16 -6
14 -11 -20 -40 -37 -33 -38 -33 -48 -12 -7 16 -5 26 9 41 19 21 29 23 59 11z
m722 -62 c46 -39 84 -73 84 -75 0 -3 -22 -55 -26 -62 -1 -2 -30 14 -65 34
-117 67 -107 55 -96 118 6 31 12 56 15 56 2 0 42 -32 88 -71z m794 36 c0 -18
-5 -25 -20 -25 -24 0 -25 8 -3 32 21 23 23 23 23 -7z m-1019 -37 c87 -51 89
-53 83 -83 -3 -16 -8 -32 -10 -34 -1 -2 -40 10 -86 27 l-83 30 -3 56 c-2 31 0
56 3 56 4 0 47 -24 96 -52z m459 -42 l72 -85 -18 -31 c-10 -16 -21 -30 -24
-30 -9 0 -150 120 -150 127 0 20 35 111 40 108 4 -3 40 -43 80 -89z m-2290
-239 c299 -174 546 -320 548 -325 1 -5 -24 -19 -58 -32 -33 -12 -60 -24 -60
-26 0 -2 11 -33 25 -70 14 -36 20 -64 15 -62 -381 133 -1249 456 -1248 464 7
30 214 374 223 370 5 -2 255 -146 555 -319z m1396 314 c-3 -5 -20 -14 -38 -20
-31 -11 -31 -11 -13 9 18 19 62 29 51 11z m1227 -13 c9 -5 17 -13 17 -19 0
-13 -36 -3 -75 22 l-30 19 35 -6 c19 -4 43 -11 53 -16z m-1151 -10 c9 -7 19
-36 23 -64 l7 -52 -69 13 c-37 7 -85 15 -105 19 -21 4 -38 11 -38 15 0 9 136
81 154 81 7 0 19 -6 28 -12z m1118 -31 c39 -19 70 -42 77 -56 10 -22 7 -29
-29 -73 -23 -26 -45 -48 -49 -48 -11 0 -128 208 -121 215 10 9 51 -3 122 -38z
m164 23 c5 0 1 -9 -10 -21 -27 -30 -83 -12 -84 27 0 8 13 9 43 3 23 -4 46 -8
51 -9z m-1515 -42 c-11 -9 -27 -14 -35 -11 -12 4 -10 11 13 35 25 26 28 27 34
11 5 -12 0 -24 -12 -35z m-2635 -17 c-4 -33 -11 -51 -20 -51 -8 0 -14 3 -14 6
0 12 34 103 38 100 1 -2 0 -27 -4 -55z m3072 -6 c29 -12 34 -19 34 -46 l0 -31
-47 7 c-107 15 -143 26 -143 43 0 9 -3 34 -6 55 l-7 37 68 -25 c37 -14 83 -32
101 -40z m-759 40 l41 -6 -28 -77 c-27 -74 -29 -77 -62 -80 -51 -4 -57 10 -40
101 11 64 17 77 30 73 10 -2 36 -7 59 -11z m1930 7 c6 -4 14 -24 18 -44 l7
-36 -59 21 c-72 26 -70 23 -48 47 18 20 60 26 82 12z m-334 -101 c31 -55 57
-104 57 -109 0 -4 -11 -19 -25 -32 -29 -27 -19 -34 -105 68 l-54 63 30 54 c16
30 31 55 34 55 3 0 31 -45 63 -99z m467 79 c110 -18 120 -21 120 -35 0 -7 -16
-27 -36 -45 -40 -35 -48 -35 -128 0 -30 12 -46 26 -46 37 0 10 -3 29 -7 42 -5
19 -3 22 13 18 10 -3 48 -11 84 -17z m-4813 -210 c40 -113 76 -214 79 -226 4
-17 -13 -36 -91 -102 -53 -45 -100 -82 -104 -82 -8 0 -261 433 -261 448 0 10
282 173 294 169 4 -1 42 -95 83 -207z m2851 178 c15 -26 15 -30 -6 -73 -19
-40 -25 -45 -56 -45 l-34 0 25 67 c13 36 26 70 29 75 9 14 24 5 42 -24z m42
13 c0 -17 -18 -21 -24 -6 -3 9 0 15 9 15 8 0 15 -4 15 -9z m80 -8 c0 -3 -12
-22 -27 -41 -24 -32 -27 -33 -39 -17 -20 27 2 65 38 65 15 0 28 -3 28 -7z m35
-28 c-39 -32 -55 -32 -25 0 13 14 31 25 39 25 11 -1 6 -9 -14 -25z m857 -23
c54 -30 75 -47 71 -57 -3 -8 -7 -15 -10 -15 -15 0 -154 54 -159 62 -8 12 5 60
14 56 4 -2 42 -22 84 -46z m1209 33 c143 -26 128 -13 113 -101 -7 -42 -15 -78
-16 -79 -2 -1 -51 16 -110 37 l-108 40 0 41 c0 24 7 48 17 59 9 10 17 18 18
18 2 0 40 -7 86 -15z m-1969 -7 c14 -12 38 -68 38 -89 0 -5 -45 -9 -100 -9
-55 0 -100 3 -100 6 0 13 122 104 141 104 3 0 12 -6 21 -12z m628 -70 c0 -9
-6 -16 -12 -13 -7 2 -46 9 -85 15 l-73 12 0 33 0 32 85 -30 c63 -23 85 -36 85
-49z m335 11 c47 -39 72 -66 68 -75 -3 -8 -7 -14 -10 -14 -17 0 -153 83 -153
93 0 18 12 57 17 57 3 0 38 -27 78 -61z m623 -30 c54 -46 52 -68 -12 -123 -38
-32 -58 -43 -61 -34 -2 7 -22 62 -44 122 -22 60 -38 113 -35 118 6 10 107 -46
152 -83z m22 40 c0 -18 -2 -18 -28 -5 -15 8 -36 23 -46 35 l-19 21 47 -16 c33
-12 46 -21 46 -35z m-1454 26 c42 -8 78 -16 79 -17 1 -2 5 -15 9 -30 l6 -28
-90 0 -90 0 -15 36 c-26 62 -24 63 101 39z m1671 -62 c-3 -2 -15 1 -27 7 l-21
11 23 19 c23 18 23 18 26 -7 2 -14 1 -27 -1 -30z m-4513 5 c-10 -64 -24 -70
-24 -10 0 40 4 52 15 52 12 0 14 -8 9 -42z m2476 -2 c-7 -9 -21 -16 -32 -16
-19 0 -19 1 -1 30 15 26 19 28 32 15 12 -11 12 -17 1 -29z m638 9 c6 -2 12 -9
12 -15 0 -6 -33 -10 -84 -10 -67 0 -85 3 -90 16 -15 40 -10 42 72 27 42 -7 83
-16 90 -18z m1033 -85 l42 -114 -27 -23 c-15 -13 -31 -23 -35 -23 -5 0 -32 41
-60 91 l-52 90 42 50 c23 27 43 48 45 47 2 -2 22 -55 45 -118z m261 84 c13 -8
-17 -34 -39 -34 -18 0 -53 36 -53 55 0 12 5 12 41 0 22 -8 45 -18 51 -21z
m-4348 7 c3 -5 -5 -16 -19 -25 -25 -16 -30 -11 -19 18 7 17 29 21 38 7z m3804
-74 c52 -63 59 -77 47 -87 -12 -10 -27 -2 -82 46 -38 32 -69 59 -71 60 -2 1 4
16 13 33 9 18 19 29 24 27 4 -3 35 -39 69 -79z m-434 47 l73 -25 -91 -250
c-83 -228 -92 -249 -105 -230 -11 17 -17 19 -33 10 -11 -6 -21 -9 -23 -7 -7 7
90 528 98 528 5 0 41 -12 81 -26z m-3188 -36 c79 -29 144 -56 144 -60 0 -4
-79 -101 -175 -216 -165 -197 -177 -208 -205 -204 l-30 4 0 137 c0 75 7 176
15 226 15 85 18 92 57 128 22 20 43 37 46 37 2 0 69 -23 148 -52z m3012 35
c23 -3 45 -9 48 -14 4 -7 -76 -489 -83 -498 -2 -3 -11 3 -20 12 -16 15 -18 15
-35 0 -17 -15 -18 -6 -18 252 l0 268 33 -7 c17 -4 51 -9 75 -13z m371 -34 l72
-41 -19 -32 c-10 -17 -72 -124 -137 -238 -114 -198 -120 -207 -132 -184 -9 17
-19 23 -33 19 -11 -3 -20 -2 -20 2 0 17 185 515 191 515 4 0 39 -18 78 -41z
m860 30 c28 -10 31 -15 31 -50 0 -21 -3 -39 -7 -39 -5 0 -32 14 -62 31 l-54
31 24 19 c29 22 28 22 68 8z m253 -95 c19 -12 5 -35 -37 -59 l-45 -27 -60 37
c-59 36 -60 37 -60 80 l0 44 97 -35 c53 -19 100 -37 105 -40z m-2542 56 c0 -5
-5 -41 -12 -79 -11 -65 -14 -71 -40 -77 -47 -10 -58 9 -58 92 l0 74 55 0 c30
0 55 -4 55 -10z m70 -15 l23 -24 -20 -48 c-14 -35 -26 -49 -46 -54 -31 -8 -31
-11 -16 82 7 40 17 69 24 69 6 0 22 -11 35 -25z m40 21 c0 -11 -19 -15 -25 -6
-3 5 1 10 9 10 9 0 16 -2 16 -4z m57 -36 c-19 -33 -24 -37 -36 -25 -9 8 -11
23 -7 39 5 21 13 26 35 26 l29 0 -21 -40z m63 32 c0 -11 -22 -32 -32 -32 -5 0
-4 9 2 20 11 20 30 28 30 12z m119 -33 c16 -30 20 -44 11 -49 -14 -9 -180 -34
-185 -28 -3 2 18 30 46 61 65 73 93 76 128 16z m205 25 c13 -35 6 -42 -57 -53
-99 -17 -104 -16 -127 29 l-20 40 99 0 c81 0 100 -3 105 -16z m188 1 c1 -5
-31 -16 -72 -23 -68 -13 -75 -12 -87 4 -7 10 -13 22 -13 26 0 12 170 5 172 -7z
m181 -2 c7 -26 7 -413 0 -446 -4 -22 -8 -25 -19 -16 -11 9 -18 8 -32 -4 -17
-16 -20 -5 -60 226 -24 133 -42 245 -42 250 0 4 33 7 74 7 63 0 75 -3 79 -17z
m695 -50 c37 -32 69 -58 70 -59 2 -2 -78 -100 -179 -220 -177 -211 -183 -216
-192 -190 -8 23 -13 27 -34 21 -15 -3 -24 -2 -21 4 5 16 283 500 286 501 2 0
34 -26 70 -57z m241 -53 c49 -84 57 -115 27 -108 -14 3 -126 132 -126 144 0 7
40 54 46 54 1 0 25 -40 53 -90z m437 -37 c40 -52 33 -73 -41 -115 -36 -20 -65
-36 -65 -35 0 1 -11 61 -24 132 -16 88 -20 132 -13 137 12 7 106 -71 143 -119z
m24 45 c0 -19 -2 -19 -22 -6 -12 8 -33 29 -46 46 l-25 32 47 -26 c31 -17 46
-32 46 -46z m-1566 35 c10 -48 76 -427 76 -435 0 -5 -9 -4 -19 2 -16 8 -22 6
-30 -7 -5 -10 -12 -16 -14 -13 -8 8 -169 452 -165 455 6 5 93 23 120 24 21 1
28 -4 32 -26z m-3010 -210 c-10 -62 -21 -113 -24 -113 -6 0 -53 261 -48 264 2
1 21 17 43 36 l40 34 3 -55 c2 -29 -4 -105 -14 -166z m570 188 c43 -17 80 -32
83 -34 4 -5 -210 -383 -227 -401 -9 -9 -261 29 -288 43 -8 5 44 74 160 214 95
114 178 207 183 207 6 0 45 -13 89 -29z m1807 -20 c-7 -11 -18 -21 -25 -21
-11 0 -12 7 -3 35 9 31 13 34 25 22 11 -12 11 -19 3 -36z m2023 -53 c10 -57
20 -113 23 -124 3 -16 -4 -27 -30 -43 -19 -11 -37 -21 -39 -21 -3 0 -22 47
-43 105 l-37 105 33 27 c46 40 63 52 70 53 3 0 13 -46 23 -102z m-1566 80 c-3
-7 -35 -24 -72 -37 -65 -23 -67 -23 -81 -5 -8 11 -15 22 -15 25 0 6 98 25 143
28 19 1 27 -3 25 -11z m2136 -35 c56 -20 102 -37 104 -38 2 -2 -49 -146 -55
-154 -2 -4 -175 92 -199 111 -24 18 14 118 45 118 2 0 50 -16 105 -37z m-2312
-8 c6 -14 9 -27 7 -28 -2 -2 -36 -16 -76 -30 l-72 -26 -32 36 c-17 21 -28 38
-23 40 16 5 149 31 167 32 10 0 22 -10 29 -24z m1403 -41 c31 -36 55 -70 53
-75 -2 -5 -102 -93 -223 -194 -213 -179 -220 -183 -223 -155 -3 23 -9 29 -32
32 -27 3 -21 12 163 231 105 125 194 227 198 227 4 0 33 -30 64 -66z m592 39
l45 -26 -27 -14 c-23 -13 -29 -12 -51 2 -15 9 -24 25 -24 40 0 31 1 31 57 -2z
m-1734 -188 c36 -99 70 -193 76 -209 11 -26 10 -28 -9 -23 -12 3 -24 -1 -29
-11 -5 -9 -12 -15 -14 -12 -3 3 -53 88 -112 190 -59 102 -112 191 -117 198
-14 16 -14 16 62 45 45 17 67 21 71 13 4 -6 36 -92 72 -191z m1874 138 c-3 -2
-16 1 -28 8 l-23 12 25 20 24 19 3 -27 c2 -15 1 -29 -1 -32z m-4046 23 l27
-11 -73 -200 -73 -200 -38 3 c-22 2 -63 8 -91 15 l-53 12 117 203 c126 218
115 207 184 178z m1717 -25 l31 -39 -90 -32 c-49 -18 -92 -30 -95 -27 -6 6 39
82 69 115 29 31 49 28 85 -17z m-2513 -214 c19 -114 32 -214 28 -221 -16 -27
-64 -78 -69 -74 -2 3 -36 90 -74 194 -37 104 -71 196 -75 205 -5 12 13 33 67
78 63 53 74 59 80 44 4 -10 23 -112 43 -226z m2395 236 c0 -5 -9 -19 -20 -33
l-20 -25 11 33 c10 28 29 45 29 25z m-57 -43 c-18 -45 -36 -48 -41 -5 -4 29
10 45 40 45 15 0 15 -3 1 -40z m2007 -63 c31 -85 33 -123 8 -115 -7 3 -35 42
-61 89 l-49 84 28 22 c16 12 32 19 35 15 4 -4 21 -47 39 -95z m-2851 -145
c283 -103 516 -192 518 -198 2 -6 -19 -23 -47 -38 -27 -15 -50 -30 -50 -33 0
-4 14 -31 31 -61 17 -30 29 -55 27 -57 -2 -2 -288 47 -635 108 -431 75 -633
115 -633 123 0 10 64 191 135 381 3 9 23 5 72 -13 37 -14 299 -109 582 -212z
m778 211 c-3 -3 -11 -2 -17 2 -9 6 -9 10 1 16 14 8 27 -7 16 -18z m472 4 c-2
-2 -32 -20 -66 -40 -60 -35 -62 -35 -79 -16 -9 10 -15 21 -13 23 15 14 146 53
153 45 5 -5 8 -10 5 -12z m2062 6 c26 -16 28 -21 22 -58 -3 -22 -7 -41 -7 -42
-3 -4 -101 78 -104 86 -2 7 34 29 51 30 5 1 22 -7 38 -16z m-2547 -83 c-6 -44
-25 -70 -51 -70 -10 0 -13 20 -13 73 0 41 3 76 6 80 4 3 19 -4 35 -16 27 -20
29 -25 23 -67z m-84 0 c0 -79 -1 -81 -27 -91 -42 -16 -57 0 -69 77 -7 38 -10
71 -8 73 4 4 66 18 92 20 9 1 12 -21 12 -79z m694 -140 c92 -161 104 -185 87
-188 -11 -2 -21 -12 -23 -24 -2 -15 -38 22 -151 157 -82 97 -146 179 -143 182
18 18 112 69 117 64 4 -3 54 -89 113 -191z m1444 9 c-35 -24 -498 -289 -502
-289 -4 0 -6 14 -6 30 0 26 -4 30 -26 30 -14 0 -24 4 -22 9 2 5 108 97 237
205 l234 196 50 -86 c38 -68 46 -89 35 -95z m644 127 c51 -30 94 -61 96 -70 3
-15 -24 -32 -84 -50 -28 -9 -130 78 -126 108 5 36 12 66 16 66 3 0 46 -24 98
-54z m-246 -3 c55 -66 84 -119 84 -152 0 -26 -6 -31 -62 -51 -35 -13 -69 -25
-75 -27 -10 -4 -13 27 -13 136 0 162 4 168 66 94z m-2132 18 c17 -18 15 -21
-50 -59 -47 -29 -72 -38 -83 -32 -21 11 -55 49 -50 55 8 7 133 53 150 54 9 0
24 -8 33 -18z m-264 -10 c0 -14 -29 -46 -35 -39 -14 13 4 58 20 52 8 -4 15 -9
15 -13z m2310 -115 l0 -134 -41 -16 c-23 -9 -43 -16 -44 -14 -1 2 -11 54 -22
116 l-20 112 61 35 c34 19 62 35 64 35 1 0 2 -60 2 -134z m190 53 c0 -38 -33
-13 -65 50 l-17 35 41 -33 c22 -18 41 -41 41 -52z m-4948 -171 l77 -212 -56
-68 c-31 -38 -59 -71 -63 -73 -10 -6 -243 395 -235 403 18 18 191 161 195 162
3 0 40 -96 82 -212z m2752 193 c6 -10 -91 -91 -109 -91 -7 0 -18 6 -24 14 -9
11 0 21 51 50 68 38 74 40 82 27z m-217 -33 l33 -31 -76 -44 c-42 -24 -80 -43
-85 -43 -10 0 22 90 46 126 21 32 43 30 82 -8z m502 -326 c-8 -2 -19 -11 -26
-19 -10 -13 -37 6 -175 122 -90 75 -164 140 -165 143 -1 4 21 26 49 49 l50 42
140 -167 c90 -106 135 -168 127 -170z m-2843 210 c-14 -13 -18 12 -10 65 l9
58 3 -59 c2 -32 1 -61 -2 -64z m2224 111 c0 -5 -5 -15 -10 -23 -8 -12 -10 -11
-10 8 0 12 5 22 10 22 6 0 10 -3 10 -7z m2215 -99 c14 -89 15 -108 3 -115 -7
-5 -16 -9 -19 -9 -4 0 -22 44 -41 98 l-35 97 26 17 c14 10 31 18 37 18 6 0 19
-46 29 -106z m389 71 l39 -34 -28 -11 c-24 -9 -32 -7 -52 11 -22 22 -30 49
-16 62 10 11 16 8 57 -28z m-2650 -12 c-8 -46 -9 -47 -29 -40 -9 4 -15 19 -15
36 0 27 8 35 43 40 4 0 5 -16 1 -36z m2975 -35 c50 -29 91 -57 91 -61 0 -5
-18 -40 -41 -78 l-41 -69 -92 77 c-50 42 -93 78 -94 79 -8 6 21 80 36 92 26
20 47 14 141 -40z m-3039 32 c0 -5 -4 -10 -9 -10 -6 0 -13 5 -16 10 -3 6 1 10
9 10 9 0 16 -4 16 -10z m303 -18 c16 -17 14 -20 -26 -53 -79 -65 -72 -62 -105
-42 -16 10 -30 22 -31 27 -3 9 116 84 135 85 6 1 18 -7 27 -17z m1946 -73 c18
-50 29 -95 24 -99 -9 -8 -563 -210 -576 -210 -4 0 -3 9 3 19 16 30 12 41 -16
52 -15 5 -24 12 -21 15 11 12 532 312 542 313 6 1 26 -40 44 -90z m601 52 c-9
-18 -14 -19 -30 -8 -27 16 -25 24 8 35 31 10 38 2 22 -27z m-2872 13 c17 -12
22 -25 22 -63 0 -41 -4 -49 -24 -59 -27 -12 -30 -8 -42 86 -7 58 2 66 44 36z
m-60 -64 c7 -39 12 -74 12 -79 0 -12 -48 -31 -63 -25 -14 5 -63 131 -55 139 4
5 78 33 88 34 3 1 11 -31 18 -69z m2888 27 c25 -22 26 -25 15 -60 -7 -20 -16
-37 -21 -37 -4 0 -27 22 -49 49 -38 45 -40 51 -24 60 28 16 50 13 79 -12z
m-2756 -22 c0 -7 -7 -18 -15 -25 -13 -11 -15 -7 -15 25 0 32 2 36 15 25 8 -7
15 -18 15 -25z m300 26 c0 -4 -19 -31 -41 -59 -36 -44 -44 -49 -60 -39 -24 15
-23 17 36 66 50 41 65 49 65 32z m-2792 -519 c-40 -47 -78 -92 -84 -100 -9
-12 -42 22 -172 177 -89 106 -162 196 -162 200 0 5 57 57 126 115 l126 107
119 -207 119 -206 -72 -86z m2982 362 c119 -100 148 -129 136 -136 -9 -5 -16
-16 -16 -23 0 -8 -2 -15 -4 -15 -5 0 -350 201 -359 209 -10 10 65 102 79 97 7
-3 80 -62 164 -132z m574 102 c-12 -9 -23 -11 -28 -5 -6 5 -3 14 10 23 12 9
23 11 28 5 6 -5 3 -14 -10 -23z m106 4 c-19 -12 -40 -13 -40 0 0 5 8 13 18 19
22 13 44 -5 22 -19z m1472 -27 c51 -88 70 -145 59 -176 -8 -22 -19 -27 -81
-37 -39 -7 -74 -9 -77 -6 -6 6 34 253 43 268 11 17 24 6 56 -49z m-4802 -5
c-1 -58 -13 -50 -24 15 -6 30 -4 37 9 37 12 0 15 -12 15 -52z m4697 -90 c-13
-71 -26 -131 -29 -134 -4 -3 -25 -8 -47 -11 l-41 -6 0 119 0 120 68 25 c37 14
68 22 69 19 2 -3 -8 -62 -20 -132z m-4637 124 c0 -5 -9 -17 -20 -27 -20 -18
-20 -17 -20 8 0 20 5 27 20 27 11 0 20 -4 20 -8z m2191 -14 c22 -12 39 -24 38
-27 -1 -12 -130 -113 -136 -107 -9 9 26 139 40 148 16 10 14 11 58 -14z m891
7 c0 -14 -29 -31 -38 -22 -9 8 16 39 28 35 5 -2 10 -8 10 -13z m298 0 c0 -8
-9 -15 -20 -15 -11 0 -23 0 -27 -1 -17 -1 -13 20 4 24 34 9 43 7 43 -8z m1698
-153 c-3 -15 -20 -22 -83 -35 -28 -5 -35 -1 -79 54 -47 58 -47 59 -36 96 7 21
15 41 17 46 7 12 184 -145 181 -161z m-4899 132 c80 -14 148 -27 150 -29 2 -2
-57 -108 -130 -234 -128 -222 -134 -231 -164 -231 l-30 0 -23 133 c-12 72 -22
172 -22 220 0 85 1 90 33 127 17 22 34 40 36 40 2 0 70 -12 150 -26z m4656
-81 c-7 -28 -7 -28 -30 17 -41 82 -41 97 0 51 31 -34 36 -46 30 -68z m-1645
82 c-7 -8 -18 -15 -24 -15 -6 0 -2 7 8 15 25 19 32 19 16 0z m-203 -25 c-6
-11 -15 -20 -19 -20 -12 0 -9 25 4 38 17 17 29 4 15 -18z m298 20 c-3 -5 -14
-10 -23 -10 -15 0 -15 2 -2 10 20 13 33 13 25 0z m195 -16 c0 -9 -11 -14 -30
-14 -36 0 -42 27 -7 32 28 5 37 1 37 -18z m-1391 9 c0 -5 -4 -17 -9 -28 -8
-18 -9 -17 -9 8 -1 15 4 27 9 27 6 0 10 -3 9 -7z m1296 -13 c-3 -5 -15 -10
-26 -10 -11 0 -17 5 -14 10 3 6 15 10 26 10 11 0 17 -4 14 -10z m1113 -225
c-2 -2 -12 -5 -23 -7 -17 -3 -21 6 -31 62 -29 154 -29 146 13 163 l38 15 3
-115 c1 -64 1 -117 0 -118z m-2451 149 c-2 -3 -12 -2 -21 2 -21 8 -21 50 2 63
15 8 17 5 20 -26 2 -19 1 -37 -1 -39z m246 42 c-4 -6 -24 -32 -46 -58 -37 -44
-40 -46 -70 -36 -18 6 -36 14 -40 18 -5 4 19 30 53 58 55 46 63 50 85 40 14
-6 21 -16 18 -22z m719 12 c-7 -7 -12 -8 -12 -2 0 6 3 14 7 17 3 4 9 5 12 2 2
-3 -1 -11 -7 -17z m-2556 -3 c42 -8 79 -16 81 -18 2 -3 -31 -99 -73 -216 l-77
-211 -149 0 -149 0 25 43 c14 23 74 126 133 229 60 103 113 188 120 188 6 0
46 -7 89 -15z m2464 -2 c0 -5 -4 -15 -10 -23 -11 -18 -25 -7 -17 15 6 15 27
21 27 8z m260 -18 c0 -13 -4 -14 -20 -5 -11 6 -20 13 -20 15 0 3 9 5 20 5 11
0 20 -7 20 -15z m80 0 c0 -8 -4 -15 -9 -15 -5 0 -14 7 -21 15 -10 13 -9 15 9
15 12 0 21 -6 21 -15z m213 4 c-8 -8 -16 -8 -30 0 -16 9 -14 10 12 11 21 0 26
-3 18 -11z m97 -4 c0 -10 -10 -15 -30 -15 -20 0 -30 5 -30 15 0 10 10 15 30
15 20 0 30 -5 30 -15z m844 -74 c21 -114 20 -120 -6 -126 -73 -17 -601 -105
-605 -102 -2 3 1 15 8 28 10 20 9 25 -12 42 -13 11 -19 22 -14 24 41 16 601
222 606 222 4 1 14 -39 23 -88z m-2424 69 c0 -5 -4 -10 -10 -10 -5 0 -10 5
-10 10 0 6 5 10 10 10 6 0 10 -4 10 -10z m340 -1 c0 -18 -54 -109 -65 -109
-34 1 -32 18 8 68 41 51 57 62 57 41z m770 1 c0 -5 -7 -10 -15 -10 -8 0 -15 5
-15 10 0 6 7 10 15 10 8 0 15 -4 15 -10z m237 2 c7 -4 8 -13 4 -20 -6 -9 -12
-7 -26 8 -14 15 -15 20 -4 20 8 0 19 -4 26 -8z m-2682 -14 c3 -2 -11 -92 -30
-199 -19 -107 -35 -197 -35 -201 0 -5 -41 -8 -91 -8 -83 0 -91 2 -84 18 6 14
105 286 137 376 10 26 14 28 55 23 24 -2 46 -7 48 -9z m1881 -99 c151 -88 172
-103 158 -114 -9 -6 -14 -17 -10 -23 4 -7 4 -12 0 -12 -13 0 -369 132 -378
140 -7 7 42 110 52 110 1 0 81 -46 178 -101z m494 86 c0 -9 -6 -12 -16 -8 -13
5 -13 7 -2 14 17 11 18 11 18 -6z m130 0 c14 -16 10 -18 -14 -9 -9 3 -16 10
-16 15 0 14 16 11 30 -6z m76 0 c16 -12 16 -14 3 -15 -9 0 -22 7 -29 15 -16
19 0 19 26 0z m81 -31 c-10 -10 -37 16 -37 34 0 13 4 12 22 -5 12 -13 19 -25
15 -29z m1586 2 c29 -36 33 -45 21 -50 -32 -12 -54 -5 -68 22 -14 27 -12 72 3
72 4 0 23 -20 44 -44z m-3620 -66 c315 -55 578 -103 586 -106 10 -3 0 -18 -35
-48 l-49 -44 43 -51 43 -51 -631 0 -632 0 6 28 c3 15 15 81 26 147 36 207 40
225 57 225 8 0 272 -45 586 -100z m690 91 c33 -13 46 -84 21 -113 -21 -22 -27
-17 -47 42 -8 25 -18 53 -22 63 -8 20 9 23 48 8z m871 -24 c-9 -24 -23 -11
-17 14 3 12 9 17 15 11 5 -5 6 -16 2 -25z m575 19 c9 -10 9 -16 1 -21 -6 -4
-12 -5 -13 -4 -2 2 -9 12 -16 22 -11 14 -11 17 2 17 8 0 20 -6 26 -14z m-324
-6 c3 -5 -1 -10 -9 -10 -8 0 -18 5 -21 10 -3 6 1 10 9 10 8 0 18 -4 21 -10z
m465 0 c0 -5 -6 -10 -14 -10 -8 0 -18 5 -21 10 -3 6 3 10 14 10 12 0 21 -4 21
-10z m-3623 -195 c3 -77 3 -138 0 -135 -3 3 -25 60 -50 127 l-44 123 35 41 36
42 9 -29 c5 -16 11 -92 14 -169z m1991 129 c23 -67 23 -67 4 -87 -12 -11 -27
-17 -36 -14 -14 6 -76 102 -76 120 0 9 61 47 75 47 6 0 21 -30 33 -66z m943
43 c-10 -9 -11 -8 -5 6 3 10 9 15 12 12 3 -3 0 -11 -7 -18z m519 -20 c0 -6 -9
-2 -20 8 -11 10 -17 22 -13 28 6 10 33 -19 33 -36z m269 27 c2 -2 1 -10 -2
-18 -5 -12 -12 -13 -37 -5 -30 11 -36 20 -24 32 6 6 53 -1 63 -9z m-1609 -18
c0 -30 -15 -42 -24 -20 -10 27 -7 44 9 44 9 0 15 -9 15 -24z m920 14 c0 -5
-10 -10 -22 -10 -19 0 -20 2 -8 10 19 13 30 13 30 0z m55 0 c19 -8 19 -9 -2
-9 -12 -1 -25 4 -28 9 -7 12 2 12 30 0z m465 -15 c10 -12 10 -19 2 -27 -14
-14 -17 -11 -26 20 -8 25 5 29 24 7z m-263 -19 c-37 -105 -60 -166 -62 -164
-2 2 4 44 12 94 14 82 18 91 35 86 10 -2 17 -10 15 -16z m224 -2 c5 -15 7 -29
4 -32 -9 -9 -33 31 -28 45 7 19 12 16 24 -13z m-1310 4 c22 -6 39 -16 39 -22
0 -6 -25 -38 -55 -71 l-54 -60 -1 57 c0 55 13 108 26 108 4 0 24 -5 45 -12z
m1012 -70 c-19 -115 -21 -116 -22 -10 -1 83 1 92 18 92 17 0 17 -4 4 -82z
m137 60 c0 -10 -90 -168 -96 -168 -3 0 24 81 57 167 8 22 39 23 39 1z m-497
-8 c-3 -11 -9 -20 -14 -20 -5 0 -9 9 -9 20 0 11 6 20 14 20 9 0 12 -7 9 -20z
m117 11 c0 -5 -7 -12 -16 -15 -14 -5 -15 -4 -4 9 14 17 20 19 20 6z m63 2 c-7
-2 -19 -2 -25 0 -7 3 -2 5 12 5 14 0 19 -2 13 -5z m126 -65 c-1 -60 -2 -67 -9
-38 -20 92 -21 110 -5 110 12 0 15 -13 14 -72z m540 42 c-7 -5 -20 -3 -31 3
-28 18 -21 27 13 15 21 -7 27 -13 18 -18z m1585 -42 c47 -40 86 -76 86 -81 0
-12 -100 -127 -109 -127 -6 0 -92 99 -149 172 -11 14 -10 23 7 56 37 72 59 69
165 -20z m-1887 10 c-26 -38 -120 -135 -105 -108 85 151 92 160 107 146 12
-13 12 -18 -2 -38z m1702 18 c-14 -31 -25 -33 -39 -7 -14 28 -13 29 18 33 35
4 35 5 21 -26z m-1980 -42 c7 -37 10 -68 8 -71 -5 -4 -47 113 -47 129 0 4 6 8
14 8 9 0 18 -22 25 -66z m503 14 c-15 -15 -19 -11 -27 27 l-7 30 23 -22 c18
-18 21 -25 11 -35z m-1320 34 c15 -6 14 -14 -17 -68 -34 -60 -35 -61 -71 -55
-20 3 -37 10 -37 15 1 13 87 115 98 115 6 0 18 -3 27 -7z m1277 -44 c1 -27
-16 -21 -23 7 -8 33 4 57 15 29 4 -10 8 -27 8 -36z m211 11 c0 -22 -1 -23 -35
-7 -14 6 -25 19 -25 29 0 16 4 17 30 8 19 -7 30 -18 30 -30z m1254 9 l25 -32
-21 -38 c-12 -20 -25 -35 -29 -33 -7 5 -69 111 -69 119 0 4 28 11 57 15 6 0
23 -13 37 -31z m-2934 2 c0 -11 -2 -20 -4 -20 -2 0 -6 9 -9 20 -3 11 -1 20 4
20 5 0 9 -9 9 -20z m870 10 c-20 -13 -33 -13 -25 0 3 6 14 10 23 10 15 0 15
-2 2 -10z m489 -24 c0 -10 -103 -101 -136 -120 -23 -12 -8 10 57 86 40 48 58
63 68 55 6 -5 12 -15 11 -21z m-3499 -201 l72 -199 -23 -44 c-13 -24 -27 -46
-31 -48 -6 -4 -218 357 -218 371 0 17 115 143 121 132 4 -7 39 -102 79 -212z
m2368 155 c-20 -60 -24 -65 -51 -54 -12 4 -9 17 20 65 19 32 39 57 43 54 5 -3
-1 -32 -12 -65z m581 49 c-16 -10 -23 -4 -14 10 3 6 11 8 17 5 6 -4 5 -9 -3
-15z m159 -36 c12 -31 20 -59 18 -61 -4 -3 -66 101 -66 112 0 3 6 6 14 6 7 0
23 -26 34 -57z m1840 -14 c34 -93 44 -154 30 -184 -11 -24 -15 -25 -95 -25
-45 0 -83 2 -83 4 0 4 57 163 91 254 14 37 32 21 57 -49z m-80 49 c-3 -7 -24
-68 -48 -135 l-44 -123 -48 0 c-26 0 -48 4 -48 8 0 23 40 225 45 231 5 5 86
22 139 30 4 0 6 -5 4 -11z m-2758 -17 c0 -11 3 -26 6 -35 11 -28 -25 -18 -38
10 -10 21 -9 27 3 35 21 13 29 11 29 -10z m476 -41 c171 -62 211 -79 185 -80
-8 0 -11 -7 -8 -20 7 -26 10 -26 -208 14 -162 29 -180 34 -178 52 2 22 31 94
38 94 2 0 79 -27 171 -60z m254 38 c0 -18 -2 -20 -9 -8 -6 8 -7 18 -5 22 9 14
14 9 14 -14z m248 -70 c13 -21 21 -38 19 -38 -13 0 -87 102 -81 112 8 12 17 1
62 -74z m707 52 c3 -6 0 -10 -7 -10 -15 0 -38 19 -38 32 0 10 36 -8 45 -22z
m-825 16 c0 -2 -7 -7 -16 -10 -8 -3 -12 -2 -9 4 6 10 25 14 25 6z m579 -14 c9
-16 0 -24 -65 -61 -84 -48 -108 -47 -49 2 22 17 51 42 65 54 31 27 37 28 49 5z
m171 -33 c0 -5 -9 -9 -20 -9 -16 0 -20 7 -20 33 l1 32 19 -24 c11 -13 20 -27
20 -32z m976 34 c-2 -10 -12 -64 -22 -120 -16 -97 -19 -103 -41 -103 -24 0
-24 0 -21 113 l3 112 35 6 c19 4 39 7 43 8 5 0 6 -7 3 -16z m-1036 -28 c0 -19
-4 -35 -10 -35 -5 0 -10 16 -10 35 0 19 5 35 10 35 6 0 10 -16 10 -35z m1368
-84 c-14 -19 -15 -19 -26 12 -6 18 -14 50 -17 72 l-6 40 31 -52 c28 -47 30
-55 18 -72z m-2973 99 c3 -5 -1 -10 -10 -10 -9 0 -13 5 -10 10 3 6 8 10 10 10
2 0 7 -4 10 -10z m865 0 c0 -5 -4 -10 -10 -10 -5 0 -10 5 -10 10 0 6 5 10 10
10 6 0 10 -4 10 -10z m1670 -100 l0 -110 -337 0 -336 0 24 26 24 26 -29 23
-29 23 34 7 c130 24 626 113 637 114 9 1 12 -27 12 -109z m638 -26 c60 -72 56
-84 -29 -84 l-57 0 -36 61 c-20 33 -36 65 -36 71 0 6 10 28 22 49 l21 39 32
-38 c18 -20 55 -65 83 -98z m-2157 41 c7 -12 -4 -6 -27 15 -22 19 -43 38 -48
42 -4 3 -5 12 -1 18 7 12 53 -33 76 -75z m546 63 c-3 -8 -6 -5 -6 6 -1 11 2
17 5 13 3 -3 4 -12 1 -19z m243 -3 c26 -14 28 -18 18 -35 -12 -19 -13 -19 -35
2 -21 19 -31 48 -18 48 4 0 19 -7 35 -15z m-1810 -5 c13 0 23 -14 33 -44 14
-41 14 -46 -3 -61 -17 -15 -20 -13 -49 38 -35 61 -39 82 -15 73 9 -3 24 -6 34
-6z m885 0 c-3 -5 -12 -10 -18 -10 -7 0 -6 4 3 10 19 12 23 12 15 0z m664 -35
c-12 -12 -169 -63 -173 -56 -3 4 32 29 77 54 78 44 82 46 91 27 5 -11 7 -22 5
-25z m-779 20 c0 -8 -4 -15 -10 -15 -5 0 -10 7 -10 15 0 8 5 15 10 15 6 0 10
-7 10 -15z m-693 -11 c10 -28 -13 -37 -25 -9 -10 21 -9 25 4 25 8 0 17 -7 21
-16z m-112 -55 c36 -58 36 -61 20 -80 -10 -10 -25 -19 -34 -19 -15 0 -91 84
-91 101 0 6 59 58 67 59 1 0 18 -27 38 -61z m866 38 c-10 -9 -11 -8 -5 6 3 10
9 15 12 12 3 -3 0 -11 -7 -18z m149 -18 l45 -40 -57 32 c-31 18 -55 36 -52 41
8 13 17 9 64 -33z m728 -9 c-2 -8 -10 -16 -19 -18 -12 -2 -14 5 -11 34 4 35 6
36 19 19 7 -11 12 -26 11 -35z m-1510 31 c11 -7 6 -22 -24 -75 -21 -36 -41
-66 -45 -66 -14 0 -26 130 -12 143 9 10 65 8 81 -2z m1462 -9 c0 -10 -7 -27
-15 -38 -13 -18 -14 -17 -15 19 0 26 4 37 15 37 8 0 15 -8 15 -18z m125 -2
c14 -16 15 -20 4 -20 -16 0 -39 19 -39 32 0 14 16 9 35 -12z m-921 -5 c-4 -8
-11 -15 -16 -15 -6 0 -5 6 2 15 7 8 14 15 16 15 2 0 1 -7 -2 -15z m743 -7 c-3
-8 -6 -5 -6 6 -1 11 2 17 5 13 3 -3 4 -12 1 -19z m-1341 -50 c-23 -63 -23 -63
-66 -66 l-42 -3 19 33 c11 18 29 48 39 66 14 24 25 32 46 32 l28 0 -24 -62z
m1317 11 c-4 -4 -39 -12 -78 -18 -38 -7 -78 -14 -89 -17 -12 -4 -17 -2 -14 7
2 7 42 27 89 44 82 30 84 30 92 11 4 -11 4 -23 0 -27z m-1257 24 c-2 -10 -8
-37 -11 -60 -5 -34 -11 -43 -27 -43 -17 0 -19 4 -13 27 12 48 34 93 45 93 6 0
9 -8 6 -17z m389 -53 c0 0 0 -11 0 -25 l0 -25 -192 0 c-116 0 -193 4 -193 10
0 5 5 31 10 58 l11 48 182 -33 c100 -17 182 -32 182 -33z m240 35 l20 -17 -20
7 c-11 4 -28 10 -37 12 -10 3 -18 12 -18 20 0 15 19 8 55 -22z m-3112 -160
c59 -101 107 -187 107 -190 0 -11 -85 -155 -92 -155 -9 0 -283 329 -283 341 0
12 144 189 154 189 4 0 55 -83 114 -185z m176 93 c1 -10 -3 -18 -9 -18 -6 0
-9 25 -9 58 1 56 1 57 10 17 4 -22 8 -48 8 -57z m2741 58 c0 -5 -7 -3 -15 4
-8 7 -12 17 -9 22 7 10 24 -9 24 -26z m2300 -69 c0 -5 -15 -7 -32 -5 -41 4
-58 42 -39 85 l12 27 30 -50 c16 -27 29 -53 29 -57z m-2970 71 c0 -18 -2 -20
-9 -8 -6 8 -7 18 -5 22 9 14 14 9 14 -14z m1769 -8 c19 -17 21 -23 11 -35 -12
-14 -16 -13 -37 6 -44 42 -21 67 26 29z m-79 0 c0 -5 -2 -10 -4 -10 -3 0 -8 5
-11 10 -3 6 -1 10 4 10 6 0 11 -4 11 -10z m-1706 -47 c6 -19 3 -23 -13 -23
-24 0 -37 35 -20 56 14 17 20 10 33 -33z m904 12 c-8 -8 -82 12 -85 22 -3 9 9
8 42 -3 25 -9 45 -18 43 -19z m722 31 c0 -1 -5 -17 -11 -35 -11 -31 -29 -43
-29 -18 0 29 13 57 26 57 8 0 14 -2 14 -4z m40 -43 c0 -17 -6 -23 -21 -23 -16
0 -19 4 -14 18 4 9 10 25 13 35 6 24 22 3 22 -30z m-98 12 c-2 -14 -6 -25 -8
-25 -2 0 -4 11 -4 25 0 14 4 25 9 25 4 0 6 -11 3 -25z m-32 -10 l0 -25 -100 0
c-55 0 -100 4 -100 9 0 9 130 38 178 40 17 1 22 -4 22 -24z m215 -23 c-19 -4
-35 13 -35 37 0 10 8 7 26 -10 22 -20 23 -25 9 -27z m-1070 17 c11 -17 -1 -21
-15 -4 -8 9 -8 15 -2 15 6 0 14 -5 17 -11z m224 -15 c2 -2 -17 -4 -42 -4 -26
0 -47 5 -47 10 0 9 78 4 89 -6z m-2945 -55 c12 -61 5 -75 -13 -29 -10 25 -16
48 -14 53 9 16 21 5 27 -24z m56 24 c0 -5 -7 -16 -14 -26 -12 -16 -14 -16 -20
-1 -10 26 -7 34 14 34 11 0 20 -3 20 -7z m320 -7 c0 -13 -165 -475 -172 -481
-2 -2 -14 -5 -28 -7 -23 -3 -27 4 -68 112 -46 121 -78 265 -68 302 3 13 15 38
26 56 l20 32 145 0 c118 0 145 -3 145 -14z m210 -1 c0 -30 -72 -420 -78 -426
-10 -9 -264 -51 -270 -45 -4 4 99 299 165 474 4 8 32 12 94 12 72 0 89 -3 89
-15z m120 -190 l0 -204 -32 -6 c-18 -3 -55 -9 -83 -14 -27 -5 -51 -8 -53 -7
-3 3 66 403 73 424 3 7 22 12 50 12 l45 0 0 -205z m1193 198 c4 -3 -9 -26 -29
-50 -20 -24 -34 -47 -32 -52 2 -5 23 -25 46 -45 28 -23 39 -38 30 -41 -19 -6
-1153 -205 -1172 -205 -14 0 -16 23 -16 200 l0 200 583 0 c321 0 587 -3 590
-7z m121 -29 c20 -30 23 -40 14 -60 -7 -14 -15 -21 -19 -17 -39 41 -78 97 -73
104 13 22 54 8 78 -27z m40 20 c15 -40 -4 -48 -22 -9 -9 20 -9 25 2 25 8 0 17
-7 20 -16z m1803 -48 c-7 -22 -33 -16 -49 12 -14 23 -15 31 -5 41 9 9 17 6 35
-15 13 -14 21 -31 19 -38z m703 52 c-1 -25 -36 -208 -41 -213 -4 -4 -550 89
-653 111 l-29 6 29 23 c27 21 28 24 13 42 -39 44 -50 43 325 43 278 0 356 -3
356 -12z m110 0 c0 -26 -78 -222 -89 -226 -6 -2 -18 -2 -25 1 -11 5 -10 24 5
109 11 57 21 109 24 116 2 7 22 12 45 12 25 0 40 -5 40 -12z m180 2 c0 -6 -30
-64 -67 -131 l-68 -120 -50 6 c-27 4 -51 7 -52 9 -1 1 16 51 38 111 22 61 42
116 44 123 5 15 155 17 155 2z m64 -12 c34 -159 35 -222 6 -253 -18 -20 -26
-21 -68 -14 -26 5 -62 11 -79 14 -18 3 -33 10 -33 14 0 9 125 228 142 249 16
18 27 15 32 -10z m148 -19 l21 -37 -28 -36 c-16 -20 -31 -33 -35 -29 -8 10
-50 122 -50 134 0 6 16 9 36 7 29 -2 39 -10 56 -39z m78 33 c0 -5 -10 -18 -23
-30 l-24 -22 -11 25 c-16 35 -16 35 23 35 19 0 35 -4 35 -8z m150 -69 c104
-124 100 -110 49 -155 -24 -21 -56 -47 -71 -58 l-26 -20 -67 115 -66 115 33
40 c50 60 70 55 148 -37z m-3124 1 c-24 -66 -32 -81 -41 -73 -9 9 -34 122 -29
130 3 5 25 9 49 9 l45 0 -24 -66z m90 29 c-16 -92 -15 -90 -54 -96 -20 -4 -37
-5 -38 -4 -1 1 10 32 24 70 21 58 28 67 49 67 24 0 25 -3 19 -37z m44 -23 c0
-54 -2 -60 -21 -60 -14 0 -19 5 -16 14 3 7 9 34 12 60 10 65 25 57 25 -14z
m384 46 c-3 -8 0 -18 7 -22 10 -6 -316 -72 -363 -74 -5 0 -8 25 -8 55 l0 55
185 0 c154 0 183 -2 179 -14z m224 7 c-10 -2 -26 -2 -35 0 -10 3 -2 5 17 5 19
0 27 -2 18 -5z m682 -5 c-1 -37 -14 -40 -113 -22 -54 9 -97 21 -97 26 0 4 47
8 105 8 77 0 105 -3 105 -12z m27 -10 c-3 -8 -6 -5 -6 6 -1 11 2 17 5 13 3 -3
4 -12 1 -19z m63 15 c-1 -14 -39 -58 -45 -52 -10 11 14 59 30 59 8 0 15 -3 15
-7z m-950 -24 c0 -6 -4 -7 -10 -4 -5 3 -10 11 -10 16 0 6 5 7 10 4 6 -3 10
-11 10 -16z m990 -15 c0 -19 -5 -24 -25 -24 -25 0 -25 0 -10 30 18 34 35 31
35 -6z m-1732 -66 c13 -15 13 -21 -2 -43 -9 -14 -20 -25 -24 -25 -5 0 -31 19
-59 43 l-50 43 29 37 29 36 32 -37 c17 -20 37 -45 45 -54z m937 72 c-11 -5
-29 -9 -40 -9 l-20 0 20 9 c11 5 29 9 40 9 l20 0 -20 -9z m870 -21 c16 -29 15
-31 -2 -27 -11 2 -19 14 -21 31 -4 35 4 34 23 -4z m-291 -3 c49 -9 90 -17 91
-18 1 -2 -3 -15 -9 -29 l-11 -26 -97 36 c-58 21 -98 41 -98 49 0 8 7 11 18 8
9 -3 57 -12 106 -20z m1486 -121 c-13 -16 -15 -16 -21 2 -4 10 -7 45 -7 78 l0
60 21 -62 c17 -53 18 -64 7 -78z m-2910 110 c0 -8 -2 -15 -4 -15 -2 0 -6 7
-10 15 -3 8 -1 15 4 15 6 0 10 -7 10 -15z m-2418 -168 l146 -174 -61 -107
c-37 -64 -66 -105 -74 -102 -7 3 -93 73 -192 157 l-181 151 51 62 c29 33 75
89 103 123 28 35 54 63 57 63 3 0 71 -78 151 -173z m3051 151 c4 -12 5 -23 4
-23 -1 -1 -76 -29 -167 -62 -182 -67 -171 -67 -183 10 -3 20 -3 37 1 38 4 0
75 13 157 29 186 35 181 35 188 8z m207 12 c0 -5 -4 -10 -10 -10 -5 0 -10 5
-10 10 0 6 5 10 10 10 6 0 10 -4 10 -10z m-165 -10 c3 -5 2 -10 -4 -10 -5 0
-13 5 -16 10 -3 6 -2 10 4 10 5 0 13 -4 16 -10z m195 -15 c-7 -8 -18 -15 -24
-15 -6 0 -2 7 8 15 25 19 32 19 16 0z m538 -26 c50 -18 92 -38 92 -44 0 -6 -6
-19 -13 -29 -12 -16 -19 -13 -105 35 -51 29 -92 59 -92 67 0 8 6 12 13 9 6 -2
54 -19 105 -38z m130 16 c-6 -14 -13 -24 -14 -22 -6 6 9 47 17 47 5 0 3 -11
-3 -25z m65 17 c7 -11 -41 -64 -52 -57 -12 7 20 65 36 65 6 0 14 -3 16 -8z
m1476 -100 c34 -60 61 -113 61 -118 -1 -9 -81 -76 -99 -82 -4 -1 -27 50 -50
114 l-41 116 31 39 c17 21 32 39 34 39 2 0 31 -49 64 -108z m-3089 79 c14 -27
13 -41 -5 -41 -17 0 -34 29 -28 48 7 18 21 15 33 -7z m930 16 c0 -2 -10 -12
-22 -23 l-23 -19 19 23 c18 21 26 27 26 19z m720 -29 c0 -36 -15 -51 -40 -43
l-22 7 28 29 c33 35 34 35 34 7z m50 12 c0 -5 -2 -10 -4 -10 -3 0 -8 5 -11 10
-3 6 -1 10 4 10 6 0 11 -4 11 -10z m76 -32 c15 -30 15 -32 -2 -45 -17 -13 -20
-11 -32 18 -24 58 6 82 34 27z m-1492 -54 c6 -36 5 -42 -13 -47 -19 -5 -21 -1
-21 52 0 92 19 89 34 -5z m391 66 c-4 -6 -2 -17 4 -24 8 -9 -23 -32 -136 -97
-80 -46 -149 -85 -153 -87 -8 -3 -36 89 -31 98 3 4 305 117 319 119 2 1 0 -4
-3 -9z m1487 -51 c189 -33 344 -62 345 -63 7 -7 -73 -216 -82 -216 -12 0 -647
230 -655 237 -5 5 25 30 43 36 5 1 3 16 -7 35 -14 28 -15 32 -1 32 8 0 169
-27 357 -61z m-1932 -13 c0 -63 -1 -64 -32 -75 -17 -6 -32 -10 -34 -9 -4 5 21
123 29 136 5 6 15 12 23 12 11 0 14 -15 14 -64z m490 54 c0 -5 -2 -10 -4 -10
-3 0 -8 5 -11 10 -3 6 -1 10 4 10 6 0 11 -4 11 -10z m213 -5 c-3 -9 -8 -14
-10 -11 -3 3 -2 9 2 15 9 16 15 13 8 -4z m464 -44 c92 -53 92 -53 76 -77 -8
-13 -18 -24 -22 -24 -5 0 -141 109 -170 135 -5 6 10 26 17 22 4 -2 48 -28 99
-56z m-3449 -13 c19 -55 56 -238 49 -244 -1 -1 -31 48 -66 109 l-63 111 23 43
c13 24 26 43 29 43 4 0 16 -28 28 -62z m2012 52 c0 -5 -4 -10 -10 -10 -5 0
-10 5 -10 10 0 6 5 10 10 10 6 0 10 -4 10 -10z m196 -42 c-9 -70 -17 -98 -25
-98 -13 0 -53 96 -49 116 2 13 15 21 38 25 19 4 37 7 39 8 2 0 0 -23 -3 -51z
m805 29 c-10 -9 -11 -8 -5 6 3 10 9 15 12 12 3 -3 0 -11 -7 -18z m769 -34 c0
-23 -20 -14 -30 13 -14 35 -1 53 16 23 7 -13 13 -30 14 -36z m-1687 -6 c-3 -6
-11 -3 -19 8 -7 10 -11 22 -7 28 3 6 11 3 19 -8 7 -10 11 -22 7 -28z m-38 -1
c18 -24 23 -39 18 -54 -8 -20 -10 -20 -56 19 -53 46 -57 56 -24 62 12 2 25 5
29 6 4 0 19 -14 33 -33z m1426 -106 c20 -15 19 -16 -6 -40 -13 -13 -27 -22
-29 -19 -2 2 -36 42 -74 87 -93 110 -86 133 15 49 41 -34 83 -69 94 -77z m102
116 c-10 -13 -19 -23 -21 -21 -5 5 22 45 31 45 4 0 0 -11 -10 -24z m-802 -17
c8 -4 -228 -210 -249 -216 -8 -3 -56 77 -49 83 2 2 66 40 143 84 91 53 140 76
143 68 2 -7 8 -16 12 -19z m867 22 c10 -6 4 -15 -22 -34 -40 -31 -55 -21 -25
17 22 28 27 30 47 17z m1399 -251 c-50 -46 -46 -51 -73 112 -17 104 -17 108 1
128 19 21 19 20 61 -95 l43 -116 -32 -29z m-3117 238 c0 -6 -11 -31 -25 -54
l-26 -44 56 -31 c31 -17 55 -33 53 -34 -5 -4 -1081 -394 -1097 -397 -11 -2
-22 40 -47 181 -19 102 -31 187 -28 190 5 5 1063 197 1102 200 6 1 12 -4 12
-11z m1746 -53 c-7 -28 -27 -32 -45 -11 -9 11 -6 18 16 34 30 22 39 15 29 -23z
m51 23 c-3 -8 -6 -5 -6 6 -1 11 2 17 5 13 3 -3 4 -12 1 -19z m-1716 -29 c44
-37 47 -42 37 -65 -6 -13 -18 -24 -26 -24 -15 0 -112 52 -112 60 0 10 40 70
46 70 3 0 28 -18 55 -41z m113 25 c3 -8 2 -12 -4 -9 -6 3 -10 10 -10 16 0 14
7 11 14 -7z m1240 -73 c42 -49 76 -92 76 -95 0 -3 -13 -12 -29 -21 l-29 -15
-60 103 c-56 95 -64 117 -43 117 5 0 43 -40 85 -89z m-538 64 c13 -13 3 -29
-90 -140 l-105 -125 -30 37 c-21 26 -28 40 -20 48 16 16 224 194 227 194 2 1
10 -6 18 -14z m980 -22 c12 -42 11 -45 -13 -54 -17 -6 -23 -5 -23 5 0 7 -3 28
-6 45 -6 26 -4 31 14 31 13 0 23 -9 28 -27z m-3786 -177 l103 -179 -17 -55
c-10 -29 -20 -52 -22 -49 -3 2 -64 76 -137 163 l-133 158 44 79 c25 43 48 75
52 70 4 -4 53 -89 110 -187z m2383 137 c16 -40 16 -43 -2 -52 -16 -9 -19 -5
-25 36 -12 89 -3 95 27 16z m514 51 c-3 -3 -12 -4 -19 -1 -8 3 -5 6 6 6 11 1
17 -2 13 -5z m450 -210 c2 -6 -4 -14 -14 -17 -10 -2 -25 -8 -34 -11 -13 -6
-24 15 -58 110 -33 90 -40 118 -30 125 9 5 30 -22 72 -94 33 -56 61 -107 64
-113z m820 85 c189 -68 343 -128 343 -132 0 -7 -106 -196 -115 -205 -2 -2
-624 354 -634 364 -2 2 10 9 27 15 34 12 38 22 22 64 -8 21 -7 26 2 23 7 -3
167 -61 355 -129z m464 122 l27 -6 -63 -110 c-35 -60 -68 -111 -72 -112 -5 -2
-16 2 -25 9 -14 12 -12 24 24 121 43 115 43 114 109 98z m-2528 -26 c20 -27 7
-42 -21 -24 -12 7 -17 19 -14 31 6 24 13 22 35 -7z m233 -35 c10 -57 9 -61
-13 -75 -37 -25 -43 -19 -43 50 0 50 4 66 18 74 27 16 28 15 38 -49z m1214 57
c0 -2 -12 -14 -26 -28 l-27 -24 18 28 c14 22 35 36 35 24z m177 -63 c-11 -11
-27 7 -27 30 0 36 14 40 24 7 5 -17 6 -34 3 -37z m-867 45 c0 -5 5 -7 10 -4 6
3 10 3 10 0 0 -10 -154 -275 -160 -275 -3 1 -20 13 -38 29 l-33 28 97 117 c91
109 114 130 114 105z m1909 0 c36 -6 68 -13 70 -15 5 -5 -188 -234 -198 -234
-8 0 -83 29 -89 35 -2 2 74 137 115 203 16 26 16 26 102 11z m-1546 -126 c47
-129 46 -133 -8 -133 -26 0 -25 -2 -50 144 -15 82 -16 99 -4 107 7 4 14 7 15
6 2 -1 22 -57 47 -124z m375 118 c10 -6 4 -14 -23 -30 -45 -26 -65 -18 -34 15
24 26 36 29 57 15z m-1338 -73 c0 -71 0 -71 -20 -53 -31 28 -62 83 -55 96 8
11 42 27 63 28 8 1 12 -20 12 -71z m667 54 c10 -6 1 -41 -36 -142 -27 -74 -53
-136 -57 -137 -5 -2 -24 6 -42 17 l-34 21 25 42 c13 23 46 79 72 125 49 85 52
87 72 74z m215 -98 c9 -54 20 -114 23 -131 6 -33 6 -33 -35 -33 l-40 0 0 134
c0 121 2 134 17 132 13 -2 21 -24 35 -102z m1756 36 c5 -100 -15 -195 -43
-214 -23 -15 -30 -14 -100 12 -42 15 -77 30 -78 33 -4 14 189 238 203 236 11
-2 16 -19 18 -67z m-1898 37 c0 -13 -40 -247 -45 -264 -3 -9 -14 -8 -44 4
l-40 15 39 107 c59 164 58 161 75 155 8 -3 15 -11 15 -17z m60 -3 c1 -8 1 -57
1 -109 0 -174 4 -157 -38 -149 -21 4 -39 7 -40 8 -1 0 7 48 18 106 10 58 21
119 24 137 4 23 10 30 20 26 8 -3 15 -11 15 -19z m555 -23 c-14 -27 -18 -29
-35 -19 -27 17 -25 23 13 45 38 23 44 16 22 -26z m-1467 17 c19 -19 14 -29 -8
-16 -20 13 -27 28 -12 28 4 0 13 -5 20 -12z m1532 -3 c0 -8 -4 -15 -10 -15 -5
0 -10 7 -10 15 0 8 5 15 10 15 6 0 10 -7 10 -15z m1593 -109 c37 -65 67 -121
67 -124 0 -8 -145 -92 -157 -92 -8 0 -93 225 -93 245 0 14 93 95 105 91 6 -1
40 -56 78 -120z m-1774 92 c-8 -5 -23 -14 -34 -20 -17 -9 -16 -7 4 15 13 15
28 24 34 20 5 -3 3 -9 -4 -15z m-1378 -9 c29 -20 40 -59 17 -59 -7 0 -35 13
-62 29 -43 26 -46 30 -30 40 28 15 42 13 75 -10z m349 -39 c16 -32 17 -40 6
-49 -11 -9 -17 -2 -30 35 -9 26 -16 52 -16 56 0 18 21 -4 40 -42z m1270 24
c17 -44 13 -64 -15 -64 -22 0 -25 4 -25 38 0 57 23 72 40 26z m-191 2 c9 -11
3 -17 -30 -30 -56 -23 -75 -6 -28 23 40 25 43 25 58 7z m1406 -67 c6 -37 3
-47 -14 -63 -21 -19 -21 -19 -21 25 0 24 3 62 7 83 5 33 8 36 14 19 4 -11 10
-40 14 -64z m-2955 57 c0 -7 -7 -30 -16 -51 -18 -43 -16 -45 49 -69 27 -10 46
-20 43 -23 -9 -9 -981 -570 -984 -568 -8 6 -129 350 -123 353 55 21 1018 371
1024 371 4 1 7 -5 7 -13z m190 4 c0 -5 -2 -10 -4 -10 -3 0 -8 5 -11 10 -3 6
-1 10 4 10 6 0 11 -4 11 -10z m239 -42 l20 -53 -27 -22 -27 -23 -12 67 c-10
53 -10 68 0 75 21 13 25 9 46 -44z m1251 11 c0 -36 -2 -40 -15 -29 -15 13 -20
51 -8 63 15 16 23 4 23 -34z m445 -169 c165 -95 304 -176 309 -180 10 -10
-143 -192 -159 -188 -21 5 -573 473 -566 480 3 3 17 8 31 10 22 3 25 7 24 45
l-1 43 31 -19 c17 -10 166 -96 331 -191z m-4051 123 c5 -14 3 -23 -3 -23 -10
0 -15 16 -26 78 l-4 27 13 -30 c8 -16 17 -40 20 -52z m710 -10 c8 -49 24 -136
34 -195 l19 -106 -72 -26 c-40 -14 -76 -26 -79 -26 -4 0 -5 96 -4 213 l3 212
35 6 c19 4 38 7 41 8 4 0 14 -38 23 -86z m1303 46 c45 -26 53 -34 47 -52 -3
-12 -9 -25 -13 -30 -7 -7 -99 19 -115 33 -8 8 11 80 21 80 3 0 30 -14 60 -31z
m-1429 -196 l-3 -216 -123 -45 c-67 -25 -125 -43 -127 -40 -3 3 14 113 37 246
l42 241 76 14 c41 8 81 15 88 16 10 1 12 -45 10 -216z m1707 132 l8 -60 -29
25 c-36 32 -63 63 -64 73 0 4 15 16 32 27 39 24 43 19 53 -65z m-161 56 c21
-23 6 -37 -24 -21 -21 11 -25 22 -13 33 10 11 19 8 37 -12z m1225 -7 c-37 -21
-57 -16 -25 5 17 11 34 17 39 14 5 -3 -1 -12 -14 -19z m145 14 c-4 -7 -16 -23
-28 -36 l-20 -23 -18 23 c-17 23 -16 23 15 35 43 16 60 16 51 1z m-3641 -172
l125 -150 -29 -79 c-16 -44 -31 -82 -33 -85 -4 -3 -197 155 -330 269 -7 6 75
166 107 207 13 16 1 27 160 -162z m3683 137 c-10 -10 -19 5 -10 18 6 11 8 11
12 0 2 -7 1 -15 -2 -18z m1459 10 c4 -10 24 -66 46 -125 l38 -107 -62 -35
c-73 -41 -66 -50 -92 110 l-19 111 35 31 c40 37 45 38 54 15z m-4615 1 c0 -3
-19 -113 -41 -243 -41 -232 -50 -261 -85 -261 -19 0 -129 196 -163 289 -30 82
-30 82 -13 129 l17 47 120 21 c129 24 165 27 165 18z m2108 -33 c25 -31 29
-41 18 -50 -10 -8 -19 0 -40 39 -33 60 -22 65 22 11z m912 14 c12 -15 -2 -22
-59 -28 -34 -3 -37 19 -4 31 39 15 49 14 63 -3z m-1225 -6 c10 -14 1 -21 -19
-13 -9 3 -13 10 -10 15 7 12 21 11 29 -2z m290 -109 c-10 -11 -21 -20 -25 -20
-4 0 -15 24 -25 54 -16 46 -17 57 -5 71 12 14 17 10 43 -35 28 -49 29 -52 12
-70z m1133 62 c3 -40 2 -42 -26 -42 -26 0 -28 2 -24 33 10 68 45 75 50 9z
m-68 14 c0 -40 -10 -58 -25 -46 -10 9 -11 18 -3 41 12 35 28 38 28 5z m-3460
7 c0 -5 -5 -15 -10 -23 -9 -13 -11 -13 -19 0 -5 8 -7 18 -5 22 6 10 34 11 34
1z m2080 -8 c18 -9 30 -24 30 -35 0 -24 -3 -24 -60 -3 -58 21 -59 22 -36 39
25 18 30 18 66 -1z m1136 6 c-5 -8 -76 -21 -76 -14 0 6 44 22 63 22 10 1 16
-3 13 -8z m-3259 -46 c18 -52 9 -56 -16 -6 -24 46 -26 54 -9 49 6 -2 17 -21
25 -43z m2372 -17 c11 -34 19 -64 16 -66 -7 -7 -85 47 -91 63 -4 11 37 62 53
65 0 0 11 -28 22 -62z m1015 37 c-20 -30 -53 -42 -65 -24 -16 26 -9 38 24 42
17 2 38 5 45 5 9 2 8 -5 -4 -23z m814 -488 c8 -9 -16 -34 -89 -94 l-98 -83
-250 298 -250 297 37 5 c35 5 37 7 40 47 l3 43 299 -251 c164 -137 303 -255
308 -262z m-1621 461 c13 -14 19 -28 14 -36 -5 -9 -17 -1 -39 27 -18 22 -32
42 -32 46 0 10 34 -12 57 -37z m1919 22 l26 -10 -44 -53 c-24 -28 -63 -75 -87
-104 -37 -44 -47 -51 -62 -42 -11 5 -19 14 -19 20 0 5 26 55 57 110 62 108 59
105 129 79z m399 -195 c5 -39 4 -42 -34 -63 -21 -12 -41 -22 -45 -22 -3 0 -6
60 -6 134 0 127 1 134 23 149 22 15 22 15 39 -72 9 -47 19 -104 23 -126z
m-1607 184 c12 -19 11 -20 -38 -17 -57 3 -67 20 -18 29 18 4 35 7 38 8 3 0 11
-8 18 -20z m-1283 -48 l-7 -58 59 -9 58 -9 -422 -354 c-231 -194 -424 -354
-428 -355 -4 0 -48 68 -97 153 -67 116 -86 156 -76 162 206 120 914 529 916
529 2 0 1 -26 -3 -59z m1430 38 c-10 -15 -25 -10 -19 6 4 8 10 12 15 9 5 -3 7
-10 4 -15z m-1225 -4 c22 -12 23 -14 8 -20 -24 -9 -48 1 -48 20 0 18 8 18 40
0z m360 -69 c0 -6 -7 -19 -15 -29 -13 -18 -16 -15 -44 34 -24 42 -28 56 -18
67 10 12 17 8 44 -23 18 -21 33 -43 33 -49z m600 74 c0 -5 -19 -9 -42 -9 -40
1 -41 2 -13 9 44 11 55 11 55 0z m-1073 -17 c47 -15 53 -20 53 -44 0 -15 -3
-30 -8 -32 -7 -5 -114 11 -120 18 -5 5 10 75 16 75 3 0 29 -8 59 -17z m2536
-13 c37 -13 67 -26 66 -29 0 -3 -38 -37 -85 -76 -47 -38 -100 -83 -119 -98
l-34 -28 -40 20 c-22 12 -42 25 -45 29 -8 13 164 214 177 209 7 -2 42 -14 80
-27z m-1953 -2 c40 -23 47 -32 31 -42 -4 -3 -26 10 -47 29 -45 40 -39 44 16
13z m-410 -13 c14 -16 10 -18 -14 -9 -9 3 -16 10 -16 15 0 14 16 11 30 -6z
m255 -103 c-6 -6 -92 35 -99 47 -4 6 3 25 15 42 l22 31 33 -58 c18 -32 31 -60
29 -62z m175 37 c0 -6 -5 -19 -11 -30 -9 -18 -12 -17 -45 22 -33 40 -41 59
-28 72 8 8 84 -51 84 -64z m118 50 c23 -9 31 -29 11 -29 -13 0 -79 39 -79 46
0 5 25 -1 68 -17z m252 11 c0 -6 -16 -8 -42 -4 -59 9 -60 14 -5 14 26 0 47 -5
47 -10z m121 -11 c11 -21 10 -21 -37 -14 -54 8 -64 12 -64 26 0 5 20 9 45 9
35 0 47 -4 56 -21z m89 -4 c-41 -30 -46 -31 -60 -6 -15 30 -14 31 42 31 l52 0
-34 -25z m127 -10 c-11 -37 -24 -45 -33 -21 -7 19 13 56 30 56 11 0 12 -7 3
-35z m73 3 c0 -46 -13 -62 -43 -54 -25 6 -25 6 -10 46 21 52 53 56 53 8z
m-527 3 c18 -18 -9 -18 -48 0 l-40 19 39 -4 c22 -3 43 -9 49 -15z m-705 -2
c28 -10 49 -35 38 -46 -9 -9 -106 9 -106 19 0 8 25 34 36 38 1 0 15 -5 32 -11z
m566 -41 c13 -10 16 -21 12 -36 -10 -29 -14 -28 -58 13 -23 21 -35 41 -32 50
5 13 9 13 32 1 15 -8 35 -21 46 -28z m258 26 c10 -6 11 -44 1 -44 -24 0 -93
35 -93 48 0 12 8 13 42 8 22 -4 45 -9 50 -12z m264 -9 c-3 -9 -11 -13 -16 -10
-8 5 -7 11 1 21 14 18 24 11 15 -11z m448 -307 c136 -163 249 -300 250 -304 1
-10 -214 -136 -225 -132 -10 3 -399 675 -399 688 0 4 18 6 39 3 l39 -5 7 43
c7 42 8 42 24 23 9 -11 128 -153 265 -316z m962 271 c-15 -128 -61 -229 -105
-229 -9 0 -49 20 -89 43 l-72 44 121 101 c67 56 128 102 137 102 12 0 13 -11
8 -61z m-1818 30 c15 -6 22 -17 22 -35 0 -14 -3 -24 -7 -22 -65 31 -83 44 -83
61 0 19 7 19 68 -4z m-266 -87 c-19 -6 -93 19 -98 33 -3 7 2 25 11 39 l17 25
40 -46 c22 -26 36 -49 30 -51z m519 88 c31 0 22 -16 -21 -35 -46 -21 -46 -20
-56 19 -7 28 -6 29 26 23 18 -4 41 -7 51 -7z m-3466 -149 c88 -74 160 -137
160 -140 0 -17 -78 -221 -85 -221 -14 0 -405 230 -405 239 0 20 151 269 160
263 5 -3 82 -67 170 -141z m327 101 c28 -51 91 -212 85 -218 -2 -2 -38 37 -80
86 l-76 91 17 44 c9 25 19 45 22 45 3 0 17 -22 32 -48z m2302 42 c25 -9 19
-24 -9 -24 -16 0 -25 6 -25 15 0 16 9 19 34 9z m-136 -122 c28 -2 52 -5 52 -8
0 -6 -669 -802 -679 -809 -5 -3 -59 54 -120 127 -88 105 -109 135 -99 144 7 7
186 157 398 335 l385 322 5 -54 5 -54 53 -3z m867 68 c5 -8 -55 -30 -82 -30
-8 0 -13 14 -13 34 l0 35 45 -16 c25 -8 47 -19 50 -23z m185 36 c0 -3 -4 -8
-10 -11 -5 -3 -10 -1 -10 4 0 6 5 11 10 11 6 0 10 -2 10 -4z m50 -7 c0 -15
-33 -69 -41 -69 -17 0 -14 37 4 58 22 24 37 29 37 11z m-1027 -15 c13 -4 17
-14 15 -32 -3 -26 -5 -27 -63 -27 l-60 0 -3 39 -3 38 48 -6 c26 -4 56 -10 66
-12z m127 6 c0 -5 -7 -7 -15 -4 -8 4 -15 8 -15 10 0 2 7 4 15 4 8 0 15 -4 15
-10z m360 -22 c22 -18 40 -37 40 -42 0 -11 -89 -1 -101 11 -10 10 4 63 16 63
4 0 24 -15 45 -32z m604 23 c9 -13 -19 -86 -33 -85 -6 1 -18 2 -26 3 -20 2
-19 20 5 59 19 31 43 41 54 23z m-474 -21 c56 -28 56 -38 4 -46 -53 -8 -65 0
-57 39 6 32 4 32 53 7z m1874 -127 c-41 -30 -43 -11 -11 84 l22 68 3 -70 c2
-57 0 -72 -14 -82z m-1550 122 c-4 -8 -13 -15 -21 -15 -13 0 -13 3 -3 15 7 8
16 15 21 15 5 0 6 -7 3 -15z m1886 -129 c27 -76 50 -139 50 -141 0 -5 -181
-68 -185 -64 -4 5 -45 239 -45 262 0 13 119 91 127 84 1 -2 25 -65 53 -141z
m-2678 111 c15 -23 7 -27 -47 -27 -56 0 -69 12 -42 39 14 14 78 6 89 -12z m72
-12 c-4 -8 -14 -15 -24 -15 -10 0 -20 7 -24 15 -4 11 2 15 24 15 22 0 28 -4
24 -15z m636 11 c0 -3 -4 -8 -10 -11 -5 -3 -10 -1 -10 4 0 6 5 11 10 11 6 0
10 -2 10 -4z m474 -369 c113 -196 206 -361 206 -366 0 -5 -8 -11 -17 -14 -10
-3 -68 -23 -129 -45 l-111 -40 -138 381 c-76 210 -140 388 -143 394 -3 10 6 9
37 -2 l41 -14 17 40 c8 22 19 37 23 32 4 -4 100 -169 214 -366z m-1054 353 c0
-5 -9 -10 -21 -10 -11 0 -17 5 -14 10 3 6 13 10 21 10 8 0 14 -4 14 -10z m624
2 c2 -4 -7 -23 -21 -41 -23 -29 -27 -31 -35 -16 -15 25 41 81 56 57z m-2285
-185 c33 -93 61 -170 61 -172 0 -5 -133 -85 -136 -82 -1 1 -17 83 -34 182 -17
99 -34 189 -36 201 -4 17 2 24 33 36 21 8 41 12 44 9 4 -3 34 -82 68 -174z
m2191 158 c-7 -8 -17 -12 -23 -8 -6 4 -3 11 8 19 23 17 32 10 15 -11z m156 0
c6 -16 -24 -76 -41 -81 -6 -2 -19 3 -29 11 -18 14 -18 15 8 50 28 37 53 45 62
20z m-3138 -160 l130 -154 -9 -47 c-5 -26 -10 -49 -12 -51 -2 -1 -74 56 -159
128 l-156 131 12 31 c7 18 21 53 30 80 10 26 22 45 26 42 5 -3 67 -75 138
-160z m2902 161 c0 -2 -7 -6 -15 -10 -8 -3 -15 -1 -15 4 0 6 7 10 15 10 8 0
15 -2 15 -4z m-694 -51 c3 -25 9 -47 13 -49 3 -2 26 0 51 4 25 5 47 7 49 5 4
-5 -509 -895 -516 -895 -14 0 -252 206 -250 217 3 14 629 763 639 763 4 0 10
-20 14 -45z m139 24 c9 -29 -2 -37 -62 -45 -42 -5 -53 -4 -53 7 0 8 -3 24 -6
37 -6 21 -4 22 54 22 53 0 62 -3 67 -21z m130 10 c10 -15 1 -21 -47 -29 -50
-10 -52 -8 -43 19 5 17 15 21 45 21 21 0 42 -5 45 -11z m61 -4 c-19 -14 -36
-12 -36 6 0 5 12 9 28 9 26 -1 26 -1 8 -15z m61 9 c-3 -3 -12 -4 -19 -1 -8 3
-5 6 6 6 11 1 17 -2 13 -5z m1696 -18 l38 -24 -101 -86 c-56 -47 -108 -86
-115 -86 -7 0 -18 7 -25 15 -10 12 1 31 66 109 44 52 84 95 89 95 6 0 27 -10
48 -23z m-3670 -3 c11 -39 70 -393 66 -396 -14 -11 -219 -127 -224 -127 -3 0
-4 109 -3 242 l3 243 70 26 c86 33 83 33 88 12z m2070 -4 c-7 -7 -19 -8 -30
-4 -16 7 -15 9 7 15 30 8 38 4 23 -11z m57 17 c0 -2 -7 -6 -15 -10 -8 -3 -15
-1 -15 4 0 6 7 10 15 10 8 0 15 -2 15 -4z m88 -12 c-9 -9 -21 -13 -28 -9 -14
9 5 25 30 25 12 0 12 -3 -2 -16z m105 10 c5 -6 -55 -64 -67 -64 -3 0 -6 11 -6
23 0 30 54 60 73 41z m1877 -129 c13 -74 21 -137 19 -138 -6 -5 -125 -47 -133
-47 -3 0 -6 60 -6 134 l0 135 43 25 c23 14 45 26 48 26 3 0 16 -61 29 -135z
m-2183 99 c3 -10 -85 -49 -93 -41 -9 8 10 47 25 51 27 7 64 2 68 -10z m151 4
c9 -9 2 -17 -29 -35 -50 -28 -51 -28 -47 -1 2 12 14 28 28 35 31 16 33 16 48
1z m522 -414 c81 -225 147 -410 145 -412 -3 -4 -278 -52 -280 -49 -4 4 -145
815 -145 832 0 15 4 15 36 -4 19 -12 37 -21 39 -21 2 0 14 18 27 41 12 22 24
36 26 31 1 -5 70 -194 152 -418z m-313 396 c1 -8 -11 -31 -27 -50 l-30 -34
-22 22 -22 22 29 30 c31 32 68 37 72 10z m-488 -8 c12 -23 3 -36 -34 -49 -16
-6 -37 -14 -46 -17 -12 -5 -20 2 -29 24 -15 36 -12 41 37 50 58 12 62 11 72
-8z m1918 -34 c40 -23 73 -44 73 -47 0 -3 -46 -32 -103 -63 -56 -32 -119 -68
-139 -79 l-36 -22 -42 33 c-22 18 -40 36 -38 40 3 8 200 179 207 179 3 1 38
-18 78 -41z m-1750 -12 c-3 -8 -24 -24 -46 -36 l-40 -20 -16 30 c-15 30 -15
30 12 41 15 6 37 15 48 19 24 10 50 -11 42 -34z m164 28 c12 -14 8 -21 -26
-50 l-40 -33 -24 24 c-14 13 -23 26 -20 28 21 16 76 47 85 47 6 0 18 -7 25
-16z m-2401 -239 c0 -231 -1 -245 -19 -255 -11 -5 -22 -10 -25 -10 -13 0 -157
183 -195 247 -40 67 -42 76 -36 122 l7 49 121 45 c67 25 128 46 135 46 9 1 12
-54 12 -244z m1941 205 c14 -45 19 -46 79 -25 31 11 41 12 37 2 -2 -6 -80
-219 -172 -472 -91 -253 -168 -461 -169 -463 -2 -1 -67 34 -144 79 -133 76
-141 83 -130 103 6 11 112 197 236 411 123 215 226 393 229 398 10 17 23 4 34
-33z m2299 -90 l0 -130 -33 -14 c-80 -33 -76 -35 -62 41 7 37 18 100 25 139 9
57 16 74 33 82 12 6 25 11 30 11 4 1 7 -57 7 -129z m-4620 71 c11 -22 16 -42
11 -45 -5 -4 -16 14 -24 39 -19 56 -14 58 13 6z m3025 -397 c41 -236 77 -437
79 -446 4 -17 -8 -18 -145 -18 l-149 0 0 446 0 446 37 -32 37 -33 29 37 c16
20 31 35 33 33 2 -2 37 -196 79 -433z m-524 376 l23 -40 44 25 c24 14 45 25
46 25 4 0 -166 -955 -170 -959 -6 -6 -294 101 -294 109 0 9 309 860 316 872 8
13 12 10 35 -32z m245 -9 l39 31 3 -464 c1 -254 0 -468 -2 -474 -3 -7 -52 -2
-153 16 -145 26 -148 27 -145 51 4 29 140 811 149 854 l6 30 32 -38 32 -37 39
31z m1740 -4 c6 -17 -38 -140 -72 -201 -14 -26 -39 -53 -56 -62 -28 -14 -31
-14 -61 9 -18 14 -51 42 -75 63 l-43 39 143 82 c79 45 147 82 151 82 4 1 10
-5 13 -12z m-4601 -131 c71 -59 136 -114 144 -121 11 -11 11 -27 1 -99 -8 -48
-16 -85 -20 -84 -4 2 -88 50 -187 107 l-181 104 30 81 c17 45 35 96 41 113 9
28 13 31 26 20 8 -6 74 -61 146 -121z m200 93 c-7 -20 -8 -21 -17 -4 -8 12 -7
20 3 26 18 11 22 5 14 -22z m-34 -16 c23 -47 23 -49 -5 -24 -14 14 -26 30 -26
38 0 22 16 15 31 -14z m4052 -66 l38 -32 -123 -72 c-113 -65 -124 -70 -140
-56 -10 9 -18 20 -18 24 0 9 188 169 198 169 4 0 24 -15 45 -33z m397 -42 c-9
-42 -17 -58 -33 -64 -33 -13 -32 4 4 77 36 74 46 70 29 -13z m-3516 -122 l90
-157 -55 -48 c-30 -26 -57 -48 -60 -48 -7 0 -142 370 -137 375 7 5 63 34 68
34 3 0 45 -70 94 -156z m3806 140 c0 -5 11 -69 25 -143 14 -74 25 -140 25
-146 0 -6 -30 -16 -67 -22 -38 -6 -83 -14 -101 -18 l-33 -7 3 149 3 149 60 22
c65 24 85 27 85 16z m-4656 -71 c49 -63 127 -203 100 -181 -10 8 -50 42 -89
74 -38 33 -71 60 -73 61 -6 4 10 94 17 94 3 0 24 -22 45 -48z m4097 -11 l68
-59 -122 -45 c-67 -24 -139 -50 -160 -58 l-38 -13 -34 39 c-19 22 -34 43 -35
47 0 5 238 147 249 148 1 0 34 -27 72 -59z m-3381 -86 c23 -66 53 -148 66
-182 l23 -62 -96 -81 c-53 -44 -99 -77 -103 -73 -6 7 -81 425 -80 445 0 12
134 88 141 80 3 -4 25 -61 49 -127z m3768 -27 l-3 -143 -74 -13 c-40 -7 -75
-12 -76 -10 -4 4 42 269 47 272 9 7 85 35 96 35 10 1 12 -31 10 -141z m-4800
-9 c97 -56 180 -105 185 -108 7 -7 -27 -218 -37 -228 -7 -8 -437 148 -434 157
2 4 25 68 52 143 28 76 52 137 54 137 2 0 83 -46 180 -101z m4662 84 c0 -10
-9 -67 -20 -127 -11 -60 -20 -113 -20 -117 0 -8 -99 -24 -106 -16 -9 8 86 252
103 265 24 17 43 15 43 -5z m-3840 -18 c0 -3 18 -108 40 -233 39 -213 40 -227
24 -239 -10 -7 -20 -13 -23 -13 -16 1 -186 153 -230 207 -49 58 -52 66 -49
109 l3 47 110 63 c105 61 125 71 125 59z m-419 -131 c83 -69 153 -132 155
-139 3 -7 4 -31 2 -54 l-3 -40 -169 97 c-93 54 -169 101 -169 105 0 21 25 157
29 157 3 0 73 -57 155 -126z m4114 96 c8 -13 -72 -150 -118 -203 -22 -26 -43
-39 -67 -43 -33 -5 -38 -2 -90 63 -30 37 -55 72 -55 76 0 10 279 115 307 116
9 1 20 -4 23 -9z m-416 -47 c17 -21 31 -40 31 -44 0 -6 -250 -99 -267 -99 -12
0 -36 41 -28 48 9 10 219 131 227 131 3 1 20 -16 37 -36z m-3609 -65 c1 -21
-19 -3 -39 35 l-24 42 31 -35 c17 -19 31 -38 32 -42z m979 -116 l103 -122 -43
-55 c-24 -29 -48 -53 -52 -52 -4 1 -50 75 -102 164 l-94 162 31 26 c25 21 33
24 43 13 6 -7 58 -68 114 -136z m3040 82 c-24 -63 -42 -84 -72 -84 -18 0 -18
1 2 36 23 39 84 114 89 110 1 -2 -7 -30 -19 -62z m-3949 20 c0 -22 -2 -25 -15
-14 -12 10 -13 16 -4 26 16 20 19 18 19 -12z m3655 -57 c31 -37 56 -70 53 -72
-3 -4 -273 -52 -317 -57 -19 -2 -30 7 -53 46 -16 27 -27 50 -26 52 7 6 273
103 279 101 3 -1 32 -33 64 -70z m-3663 -1 c7 -13 0 -11 -25 10 -20 15 -33 32
-30 37 6 10 40 -19 55 -47z m814 -135 c81 -139 92 -165 82 -180 -47 -63 -144
-169 -149 -163 -10 9 -149 393 -149 408 0 15 101 105 113 101 5 -1 51 -76 103
-166z m-972 59 l166 -95 0 -82 c0 -46 -4 -83 -9 -83 -9 0 -372 130 -379 136
-3 2 20 144 34 202 2 13 9 22 14 20 5 -2 83 -46 174 -98z m4406 -90 l0 -160
-105 0 c-124 0 -115 -18 -81 170 l22 125 60 11 c115 22 104 37 104 -146z
m-928 88 c13 -24 23 -47 23 -53 0 -5 -66 -21 -147 -35 l-147 -26 -10 28 c-9
24 -7 30 7 36 22 8 246 91 249 92 2 0 13 -19 25 -42z m738 25 c-1 -10 -11 -74
-23 -143 l-23 -125 -83 -3 c-65 -2 -82 0 -79 10 3 7 25 67 48 133 24 66 44
121 45 123 2 3 81 19 103 21 6 1 12 -7 12 -16z m-187 -142 l-47 -131 -59 0
-59 0 38 68 c87 156 109 187 140 193 16 3 30 4 32 4 1 -1 -19 -61 -45 -134z
m-3716 11 c27 -31 55 -65 62 -75 8 -9 -32 9 -88 40 l-101 58 0 48 0 49 39 -31
c22 -17 61 -57 88 -89z m504 -127 c38 -104 69 -195 69 -201 0 -6 -6 -17 -14
-23 -12 -10 -34 -1 -113 44 -54 31 -123 78 -153 103 -30 25 -56 47 -57 47 -2
1 -7 22 -12 48 l-8 46 101 85 c95 80 102 83 109 63 5 -12 40 -107 78 -212z
m3094 205 c9 -14 -34 -71 -117 -153 -65 -64 -71 -68 -110 -65 -40 3 -43 6 -85
77 -25 41 -45 79 -46 85 -1 5 66 22 148 37 170 31 201 33 210 19z m46 -13
c-10 -9 -11 -8 -5 6 3 10 9 15 12 12 3 -3 0 -11 -7 -18z m-2567 -102 c69 -58
126 -108 126 -111 0 -11 -63 -114 -69 -114 -4 0 -39 37 -77 82 -38 46 -90 108
-116 139 l-48 57 21 26 c11 14 24 26 29 26 5 0 65 -47 134 -105z m2177 -12
c24 -42 46 -80 47 -85 2 -5 -78 -7 -179 -6 l-182 3 -19 54 c-10 30 -17 55 -15
56 1 1 67 13 147 27 80 14 148 26 151 27 3 1 25 -34 50 -76z m-3151 -84 c112
-65 115 -68 123 -109 5 -23 6 -44 4 -47 -3 -2 -84 24 -181 59 l-176 63 0 83 0
83 58 -32 c31 -18 109 -63 172 -100z m899 -14 l122 -144 -58 -101 c-32 -55
-61 -100 -64 -100 -14 0 -220 371 -213 383 9 14 86 107 89 107 2 0 58 -65 124
-145z m2559 66 c-30 -56 -36 -61 -67 -61 l-34 0 18 23 c26 30 109 106 113 102
2 -2 -11 -31 -30 -64z m-661 -6 l21 -55 -159 0 -159 0 -6 25 c-4 14 -4 28 -1
31 4 4 242 50 273 53 6 1 20 -24 31 -54z m-3237 -24 l185 -67 3 -116 3 -116
-133 24 c-73 13 -174 31 -224 40 l-91 16 23 126 c13 70 23 135 24 145 0 9 6
17 13 17 6 -1 95 -31 197 -69z m460 24 c25 -30 3 -25 -26 6 -22 24 -24 29 -8
21 11 -6 27 -18 34 -27z m80 -16 c0 -18 -2 -19 -15 -9 -15 12 -12 30 6 30 5 0
9 -10 9 -21z m1218 -60 l141 -81 -21 -57 c-11 -31 -23 -59 -27 -63 -3 -4 -68
44 -143 108 l-137 115 17 29 c9 17 20 30 23 30 4 0 70 -37 147 -81z m-1227 15
c20 -22 21 -25 4 -16 -11 6 -29 17 -40 26 -16 12 -17 15 -4 16 8 0 26 -12 40
-26z m683 -179 c58 -101 106 -190 106 -197 -1 -39 -16 -39 -114 -4 -54 20
-129 53 -167 73 -59 33 -71 44 -85 80 l-16 42 78 95 c44 53 82 96 85 96 3 0
54 -83 113 -185z m539 6 c48 -40 87 -75 87 -78 0 -16 -76 -213 -81 -210 -4 1
-66 73 -139 161 l-134 159 29 51 c45 82 42 81 99 33 28 -24 90 -76 139 -116z
m1171 142 c3 -10 8 -40 12 -67 6 -44 5 -48 -12 -43 -11 3 -73 15 -139 26 -177
31 -165 26 -165 66 l0 35 149 0 c134 0 150 -2 155 -17z m374 -77 c18 -48 32
-91 30 -95 -3 -7 -355 52 -361 60 -7 9 -23 119 -18 124 2 3 75 4 160 3 l156
-3 33 -89z m367 73 c4 -11 5 -21 3 -23 -1 -1 -30 -25 -63 -53 -115 -97 -197
-132 -237 -100 -8 6 -28 48 -43 92 -16 44 -30 86 -33 93 -3 9 37 12 181 12
179 0 186 -1 192 -21z m45 17 c0 -3 -4 -8 -10 -11 -5 -3 -10 -1 -10 4 0 6 5
11 10 11 6 0 10 -2 10 -4z m129 -8 c0 -7 -31 -65 -68 -128 l-68 -115 -39 2
c-21 2 -50 5 -62 8 -23 6 -22 7 24 63 142 169 155 182 185 182 17 0 29 -5 28
-12z m151 1 c0 -26 -95 -271 -107 -276 -17 -7 -153 17 -153 27 0 11 119 221
138 243 17 20 122 25 122 6z m193 4 c4 -7 -49 -323 -55 -328 -3 -3 -210 34
-213 37 -2 3 28 87 91 256 l16 42 78 0 c43 0 81 -3 83 -7z m-2077 -55 l145
-53 -7 -50 c-12 -91 -4 -91 -162 1 -79 45 -146 85 -149 87 -8 9 8 67 19 67 5
0 75 -24 154 -52z m-1706 -32 l175 -64 12 -53 c6 -30 12 -67 12 -83 1 -24 -2
-27 -21 -23 -13 3 -90 17 -173 31 -82 15 -160 29 -172 31 -22 5 -23 9 -23 115
0 61 3 110 8 110 4 0 86 -29 182 -64z m2058 30 c73 -13 135 -26 138 -29 3 -2
4 -32 2 -65 l-3 -60 -157 57 c-148 53 -158 58 -158 82 0 47 -1 47 178 15z
m-1713 -102 l60 -54 -80 29 c-137 50 -135 49 -135 73 0 13 -3 33 -6 46 -6 22
-5 21 47 -9 30 -17 81 -55 114 -85z m2945 102 c0 -2 -7 -7 -16 -10 -8 -3 -12
-2 -9 4 6 10 25 14 25 6z m-744 -89 c5 -5 36 -198 33 -201 -2 -2 -84 26 -181
62 l-178 65 0 67 0 67 161 -28 c89 -16 163 -30 165 -32z m-875 -29 c77 -44
143 -87 146 -95 5 -12 -25 -203 -33 -212 -3 -3 -300 245 -309 259 -7 11 35
130 46 130 5 0 72 -37 150 -82z m1539 12 c-45 -52 -56 -60 -88 -60 l-35 0 24
26 c23 25 125 92 142 93 5 1 -14 -26 -43 -59z m-1165 -16 l155 -57 0 -109 0
-109 -22 12 c-62 32 -305 174 -316 184 -11 10 -11 24 -1 74 6 33 15 61 20 61
4 0 78 -25 164 -56z m-816 -143 c67 -80 121 -150 121 -155 -1 -33 -15 -36
-105 -20 -50 8 -125 26 -168 40 -66 22 -82 32 -103 63 l-25 38 62 107 c59 104
62 107 79 89 10 -10 73 -83 139 -162z m1541 139 c91 -16 168 -30 171 -30 4 0
9 -8 11 -18 4 -14 -13 -29 -76 -65 -45 -26 -109 -57 -143 -69 -58 -21 -63 -22
-95 -6 -33 15 -35 20 -46 94 -7 44 -15 89 -18 102 -8 29 -6 29 196 -8z m-2381
-46 c168 -61 183 -70 197 -128 6 -24 4 -27 -12 -23 -11 3 -91 18 -179 33 -88
15 -162 29 -164 30 -2 2 -31 141 -31 153 0 2 6 1 13 -1 6 -3 86 -31 176 -64z
m71 15 c0 -5 -13 0 -30 13 -16 12 -30 23 -30 25 0 2 14 -3 30 -12 17 -9 30
-20 30 -26z m74 5 c4 -10 1 -14 -6 -12 -15 5 -23 28 -10 28 5 0 13 -7 16 -16z
m-9 -34 c34 -23 31 -25 -14 -9 -17 6 -31 15 -31 20 0 14 12 11 45 -11z m2505
5 c0 -2 -10 -9 -22 -15 -22 -11 -22 -10 -4 4 21 17 26 19 26 11z m81 -5 c10 0
19 -3 19 -7 0 -7 -41 -58 -166 -206 l-23 -27 -60 22 -60 23 122 102 c67 57
128 101 135 98 8 -3 22 -5 33 -5z m-1331 -287 c0 -23 -2 -23 -113 -23 -175 0
-250 20 -278 73 -10 17 -2 41 62 215 8 22 17 16 168 -110 118 -98 160 -139
161 -155z m738 179 c58 -21 72 -30 72 -47 0 -17 -16 -26 -92 -53 -51 -18 -120
-37 -152 -43 -51 -9 -63 -8 -92 7 l-34 19 0 112 0 112 113 -40 c61 -23 145
-53 185 -67z m723 85 l46 -12 -79 -137 -79 -136 -74 27 c-41 15 -77 30 -81 34
-11 10 185 237 204 236 9 0 38 -6 63 -12z m-3216 -37 c99 -18 181 -33 183 -35
1 -1 11 -50 21 -109 l18 -106 -219 0 -218 0 0 146 c0 134 1 145 18 140 9 -3
98 -19 197 -36z m2935 20 c-8 -5 -19 -10 -25 -10 -5 0 -3 5 5 10 8 5 20 10 25
10 6 0 3 -5 -5 -10z m-930 -98 c208 -123 212 -131 73 -155 -138 -24 -233 -23
-267 4 -14 11 -26 30 -26 42 0 48 34 207 44 206 6 0 85 -44 176 -97z m1379 86
c36 -6 68 -13 70 -14 3 -3 -108 -315 -115 -323 -5 -6 -215 71 -212 78 2 3 37
66 78 138 83 146 73 140 179 121z m-2764 -27 c28 -11 82 -38 120 -60 68 -41
69 -42 30 -35 -162 25 -169 27 -187 64 -16 33 -21 50 -15 50 1 0 25 -9 52 -19z
m2270 -10 c-6 -5 -34 -29 -64 -54 -49 -40 -58 -44 -83 -35 -15 6 -28 13 -28
17 0 9 74 48 125 66 48 17 63 18 50 6z m-2490 -42 c94 -16 173 -33 177 -37 4
-4 18 -37 31 -74 l25 -68 -194 0 c-221 0 -193 -14 -214 105 -6 33 -13 70 -16
83 -3 14 0 22 8 22 7 0 90 -14 183 -31z m529 -25 c4 -10 1 -14 -6 -12 -15 5
-23 28 -10 28 5 0 13 -7 16 -16z m1686 0 c0 -2 -7 -4 -15 -4 -8 0 -15 4 -15
10 0 5 7 7 15 4 8 -4 15 -8 15 -10z m-1755 -15 c15 -14 -7 -10 -35 7 l-25 15
25 -7 c14 -3 29 -10 35 -15z m-65 -29 c91 -17 168 -30 171 -30 3 0 15 -18 28
-40 l23 -40 -182 2 -182 3 -24 65 c-13 36 -24 66 -24 68 0 5 32 0 190 -28z
m1840 25 c0 -2 -9 -9 -20 -15 -12 -6 -20 -7 -20 -1 0 5 8 12 18 14 9 3 18 5
20 6 1 0 2 -1 2 -4z m-1710 -15 c12 -8 9 -10 -12 -10 -16 0 -28 5 -28 10 0 13
20 13 40 0z m1813 -9 c8 -8 -33 -46 -173 -163 l-55 -46 -53 31 c-28 18 -52 34
-52 37 0 3 60 40 133 83 107 63 138 76 162 72 16 -3 33 -9 38 -14z m-163 -1
c0 -5 -8 -10 -17 -10 -15 0 -16 2 -3 10 19 12 20 12 20 0z m318 -62 c-2 -4
-48 -61 -102 -127 l-100 -121 -65 36 c-105 58 -107 48 30 161 l121 101 59 -21
c33 -12 58 -24 57 -29z m-1730 -15 c39 -14 72 -27 72 -29 0 -2 -44 -4 -98 -4
-107 0 -99 -4 -130 64 -7 13 76 -3 156 -31z m1349 31 c-3 -3 -35 -23 -72 -45
l-66 -38 -31 18 c-30 19 -30 19 -8 31 37 20 193 50 177 34z m-1158 -33 c-15
-5 -22 6 -14 19 6 9 10 9 16 -1 5 -8 4 -15 -2 -18z m856 19 c3 -5 1 -10 -4
-10 -6 0 -11 5 -11 10 0 6 2 10 4 10 3 0 8 -4 11 -10z m801 -36 c41 -15 74
-31 74 -36 0 -5 -39 -76 -86 -159 -83 -143 -88 -149 -108 -136 -11 7 -56 33
-98 57 -43 24 -78 47 -78 51 0 12 202 249 212 249 6 0 43 -12 84 -26z m-1721
6 c13 -5 14 -9 5 -9 -8 0 -24 4 -35 9 -13 5 -14 9 -5 9 8 0 24 -4 35 -9z m500
-10 c3 -5 1 -10 -4 -10 -6 0 -11 5 -11 10 0 6 2 10 4 10 3 0 8 -4 11 -10z
m445 6 c0 -2 -9 -6 -20 -9 -11 -3 -20 -1 -20 4 0 5 9 9 20 9 11 0 20 -2 20 -4z
m-862 -13 c-10 -2 -26 -2 -35 0 -10 3 -2 5 17 5 19 0 27 -2 18 -5z m795 0 c-7
-2 -19 -2 -25 0 -7 3 -2 5 12 5 14 0 19 -2 13 -5z m146 -10 c17 -10 31 -20 31
-23 0 -7 -265 -160 -276 -160 -5 1 -31 20 -57 43 l-48 42 153 57 c84 31 156
57 160 57 3 1 20 -7 37 -16z m-1641 -105 c18 -51 33 -97 33 -103 0 -8 -399
-86 -408 -81 -1 1 -12 56 -23 121 -12 66 -23 128 -26 138 -5 16 9 17 193 17
l199 0 32 -92z m395 25 c20 -36 36 -67 35 -68 -5 -3 -332 -58 -351 -59 -17 -1
-46 61 -82 175 -6 18 0 19 177 19 l183 -1 38 -66z m372 35 c25 -30 26 -33 9
-40 -38 -14 -317 -59 -324 -51 -5 4 -22 34 -40 66 l-32 57 180 0 180 0 27 -32z
m158 20 c42 -6 77 -14 77 -18 0 -6 -137 -30 -171 -30 -8 0 -25 14 -37 30 l-23
30 38 0 c21 0 73 -5 116 -12z m140 5 c-7 -2 -21 -2 -30 0 -10 3 -4 5 12 5 17
0 24 -2 18 -5z m86 3 c-12 -10 -59 -15 -59 -6 0 5 14 10 32 10 17 0 29 -2 27
-4z m291 0 c0 -2 -39 -18 -86 -35 l-87 -32 -24 23 c-26 25 -21 35 22 41 41 6
175 8 175 3z m-216 -55 c22 -24 43 -13 -162 -87 l-134 -48 -34 40 c-65 74 -72
67 114 101 92 16 174 26 182 22 8 -4 24 -16 34 -28z m586 -33 c0 -4 -57 -55
-126 -113 l-126 -105 -36 29 c-94 75 -108 90 -92 101 8 5 71 43 140 83 l125
74 58 -31 c31 -17 57 -34 57 -38z m-952 -49 c23 -29 42 -54 42 -58 0 -6 -310
-121 -328 -121 -12 0 -106 159 -98 167 5 6 293 60 327 62 8 1 34 -22 57 -50z
m467 -2 l49 -43 -142 -82 c-77 -45 -147 -84 -154 -86 -17 -6 -133 133 -122
144 12 10 284 109 304 109 9 1 38 -18 65 -42z m603 -11 l73 -43 -117 -139
c-64 -76 -118 -141 -120 -143 -4 -5 -184 149 -183 157 1 13 244 211 259 211 8
0 48 -19 88 -43z m-1426 -104 c22 -40 38 -75 37 -76 -15 -14 -374 -135 -379
-129 -12 13 -91 235 -86 241 3 3 85 19 183 37 204 36 180 43 245 -73z m964 -4
c60 -49 72 -64 62 -73 -7 -7 -73 -63 -147 -124 -110 -93 -136 -110 -147 -99
-27 28 -144 173 -144 178 0 4 286 176 298 179 2 1 37 -27 78 -61z m-477 -36
c35 -40 61 -75 60 -76 -14 -11 -342 -197 -344 -194 -12 15 -126 221 -123 223
6 7 333 124 339 122 3 -1 34 -35 68 -75z"/>
</g>
</svg>
