  0
SECTION
  2
HEADER
  9
$ACADVER
  1
AC1014
  9
$HANDSEED
  5
FFFF
  9
$MEASUREMENT
 70
     1
  0
ENDSEC
  0
SECTION
  2
TABLES
  0
TABLE
  2
VPORT
  5
8
330
0
100
AcDbSymbolTable
 70
     4
  0
VPORT
  5
2E
330
8
100
AcDbSymbolTableRecord
100
AcDbViewportTableRecord
  2
*ACTIVE
 70
     0
 10
0.0
 20
0.0
 11
1.0
 21
1.0
 12
210.0
 22
148.5
 13
0.0
 23
0.0
 14
10.0
 24
10.0
 15
10.0
 25
10.0
 16
0.0
 26
0.0
 36
1.0
 17
0.0
 27
0.0
 37
0.0
 40
341.0
 41
1.24
 42
50.0
 43
0.0
 44
0.0
 50
0.0
 51
0.0
 71
     0
 72
   100
 73
     1
 74
     3
 75
     0
 76
     0
 77
     0
 78
     0
  0
ENDTAB
  0
TABLE
  2
LTYPE
  5
5
330
0
100
AcDbSymbolTable
 70
     1
  0
LTYPE
  5
14
330
5
100
AcDbSymbolTableRecord
100
AcDbLinetypeTableRecord
  2
BYBLOCK
 70
     0
  3

 72
    65
 73
     0
 40
0.0
  0
LTYPE
  5
15
330
5
100
AcDbSymbolTableRecord
100
AcDbLinetypeTableRecord
  2
BYLAYER
 70
     0
  3

 72
    65
 73
     0
 40
0.0
  0
LTYPE
  5
16
330
5
100
AcDbSymbolTableRecord
100
AcDbLinetypeTableRecord
  2
CONTINUOUS
 70
     0
  3
Solid line
 72
    65
 73
     0
 40
0.0
  0
ENDTAB
  0
TABLE
  2
LAYER
  5
2
100
AcDbSymbolTable
 70
2
  0
LAYER
  5
50
100
AcDbSymbolTableRecord
100
AcDbLayerTableRecord
  2
0
 70
0
  6
CONTINUOUS
  0
LAYER
  5
51
100
AcDbSymbolTableRecord
100
AcDbLayerTableRecord
  2
Layer_1
 70
0
  6
CONTINUOUS
  0
ENDTAB
  0
TABLE
  2
STYLE
  5
3
330
0
100
AcDbSymbolTable
 70
     1
  0
STYLE
  5
11
330
3
100
AcDbSymbolTableRecord
100
AcDbTextStyleTableRecord
  2
STANDARD
 70
     0
 40
0.0
 41
1.0
 50
0.0
 71
     0
 42
2.5
  3
txt
  4

  0
ENDTAB
  0
TABLE
  2
VIEW
  5
6
330
0
100
AcDbSymbolTable
 70
     0
  0
ENDTAB
  0
TABLE
  2
UCS
  5
7
330
0
100
AcDbSymbolTable
 70
     0
  0
ENDTAB
  0
TABLE
  2
APPID
  5
9
330
0
100
AcDbSymbolTable
 70
     2
  0
APPID
  5
12
330
9
100
AcDbSymbolTableRecord
100
AcDbRegAppTableRecord
  2
ACAD
 70
     0
  0
ENDTAB
  0
TABLE
  2
DIMSTYLE
  5
A
330
0
100
AcDbSymbolTable
 70
     1
  0
DIMSTYLE
105
27
330
A
100
AcDbSymbolTableRecord
100
AcDbDimStyleTableRecord
  2
ISO-25
 70
     0
  3

  4

  5

  6

  7

 40
1.0
 41
2.5
 42
0.625
 43
3.75
 44
1.25
 45
0.0
 46
0.0
 47
0.0
 48
0.0
140
2.5
141
2.5
142
0.0
143
0.03937007874016
144
1.0
145
0.0
146
1.0
147
0.625
 71
     0
 72
     0
 73
     0
 74
     0
 75
     0
 76
     0
 77
     1
 78
     8
170
     0
171
     3
172
     1
173
     0
174
     0
175
     0
176
     0
177
     0
178
     0
270
     2
271
     2
272
     2
273
     2
274
     3
340
11
275
     0
280
     0
281
     0
282
     0
283
     0
284
     8
285
     0
286
     0
287
     3
288
     0
  0
ENDTAB
  0
TABLE
  2
BLOCK_RECORD
  5
1
330
0
100
AcDbSymbolTable
 70
     1
  0
BLOCK_RECORD
  5
1F
330
1
100
AcDbSymbolTableRecord
100
AcDbBlockTableRecord
  2
*MODEL_SPACE
  0
BLOCK_RECORD
  5
1B
330
1
100
AcDbSymbolTableRecord
100
AcDbBlockTableRecord
  2
*PAPER_SPACE
  0
ENDTAB
  0
ENDSEC
  0
SECTION
  2
BLOCKS
  0
BLOCK
  5
20
330
1F
100
AcDbEntity
  8
0
100
AcDbBlockBegin
  2
*MODEL_SPACE
 70
     0
 10
0.0
 20
0.0
 30
0.0
  3
*MODEL_SPACE
  1

  0
ENDBLK
  5
21
330
1F
100
AcDbEntity
  8
0
100
AcDbBlockEnd
  0
BLOCK
  5
1C
330
1B
100
AcDbEntity
 67
     1
  8
0
100
AcDbBlockBegin
  2
*PAPER_SPACE
  1

  0
ENDBLK
  5
1D
330
1B
100
AcDbEntity
 67
     1
  8
0
100
AcDbBlockEnd
  0
ENDSEC
  0
SECTION
  2
ENTITIES
  0
SPLINE
  5
100
100
AcDbEntity
  8
Layer_1
 62
7
100
AcDbSpline
 70
8
 71
3
 72
8
 73
4
 74
0
 40
0
 40
0
 40
0
 40
0
 40
1
 40
1
 40
1
 40
1
 10
338.146448
 20
799.598924
 30
0.0
 10
284.146448
 20
793.998924
 30
0.0
 10
228.046448
 20
772.498924
 30
0.0
 10
183.646448
 20
740.498924
 30
0.0
  0
SPLINE
  5
101
100
AcDbEntity
  8
Layer_1
 62
7
100
AcDbSpline
 70
8
 71
3
 72
8
 73
4
 74
0
 40
0
 40
0
 40
0
 40
0
 40
1
 40
1
 40
1
 40
1
 10
183.646448
 20
740.498924
 30
0.0
 10
144.746448
 20
712.498924
 30
0.0
 10
111.046448
 20
677.898924
 30
0.0
 10
85.746448
 20
639.798924
 30
0.0
  0
SPLINE
  5
102
100
AcDbEntity
  8
Layer_1
 62
7
100
AcDbSpline
 70
8
 71
3
 72
8
 73
4
 74
0
 40
0
 40
0
 40
0
 40
0
 40
1
 40
1
 40
1
 40
1
 10
85.746448
 20
639.798924
 30
0.0
 10
68.146448
 20
613.498924
 30
0.0
 10
57.946448
 20
593.098924
 30
0.0
 10
49.946448
 20
568.798924
 30
0.0
  0
SPLINE
  5
103
100
AcDbEntity
  8
Layer_1
 62
7
100
AcDbSpline
 70
8
 71
3
 72
8
 73
4
 74
0
 40
0
 40
0
 40
0
 40
0
 40
1
 40
1
 40
1
 40
1
 10
49.946448
 20
568.798924
 30
0.0
 10
36.546448
 20
527.998924
 30
0.0
 10
30.746448
 20
494.698924
 30
0.0
 10
30.746448
 20
458.298924
 30
0.0
  0
SPLINE
  5
104
100
AcDbEntity
  8
Layer_1
 62
7
100
AcDbSpline
 70
8
 71
3
 72
8
 73
4
 74
0
 40
0
 40
0
 40
0
 40
0
 40
1
 40
1
 40
1
 40
1
 10
30.746448
 20
458.298924
 30
0.0
 10
30.646448
 20
435.098924
 30
0.0
 10
31.546448
 20
426.398924
 30
0.0
 10
36.246448
 20
403.298924
 30
0.0
  0
SPLINE
  5
105
100
AcDbEntity
  8
Layer_1
 62
7
100
AcDbSpline
 70
8
 71
3
 72
8
 73
4
 74
0
 40
0
 40
0
 40
0
 40
0
 40
1
 40
1
 40
1
 40
1
 10
36.246448
 20
403.298924
 30
0.0
 10
45.346448
 20
359.098924
 30
0.0
 10
57.746448
 20
333.598924
 30
0.0
 10
78.446448
 20
316.998924
 30
0.0
  0
SPLINE
  5
106
100
AcDbEntity
  8
Layer_1
 62
7
100
AcDbSpline
 70
8
 71
3
 72
8
 73
4
 74
0
 40
0
 40
0
 40
0
 40
0
 40
1
 40
1
 40
1
 40
1
 10
78.446448
 20
316.998924
 30
0.0
 10
98.046448
 20
301.198924
 30
0.0
 10
133.046448
 20
292.998924
 30
0.0
 10
160.446448
 20
297.798924
 30
0.0
  0
SPLINE
  5
107
100
AcDbEntity
  8
Layer_1
 62
7
100
AcDbSpline
 70
8
 71
3
 72
8
 73
4
 74
0
 40
0
 40
0
 40
0
 40
0
 40
1
 40
1
 40
1
 40
1
 10
160.446448
 20
297.798924
 30
0.0
 10
186.646448
 20
302.398924
 30
0.0
 10
208.546448
 20
317.098924
 30
0.0
 10
220.446448
 20
338.298924
 30
0.0
  0
SPLINE
  5
108
100
AcDbEntity
  8
Layer_1
 62
7
100
AcDbSpline
 70
8
 71
3
 72
8
 73
4
 74
0
 40
0
 40
0
 40
0
 40
0
 40
1
 40
1
 40
1
 40
1
 10
220.446448
 20
338.298924
 30
0.0
 10
227.146448
 20
350.198924
 30
0.0
 10
228.546448
 20
355.498924
 30
0.0
 10
227.946448
 20
367.198924
 30
0.0
  0
SPLINE
  5
109
100
AcDbEntity
  8
Layer_1
 62
7
100
AcDbSpline
 70
8
 71
3
 72
8
 73
4
 74
0
 40
0
 40
0
 40
0
 40
0
 40
1
 40
1
 40
1
 40
1
 10
227.946448
 20
367.198924
 30
0.0
 10
227.446448
 20
375.998924
 30
0.0
 10
226.946448
 20
378.098924
 30
0.0
 10
221.246448
 20
392.698924
 30
0.0
  0
SPLINE
  5
10a
100
AcDbEntity
  8
Layer_1
 62
7
100
AcDbSpline
 70
8
 71
3
 72
8
 73
4
 74
0
 40
0
 40
0
 40
0
 40
0
 40
1
 40
1
 40
1
 40
1
 10
221.246448
 20
392.698924
 30
0.0
 10
212.346448
 20
415.298924
 30
0.0
 10
210.946448
 20
421.298924
 30
0.0
 10
210.846448
 20
436.298924
 30
0.0
  0
SPLINE
  5
10b
100
AcDbEntity
  8
Layer_1
 62
7
100
AcDbSpline
 70
8
 71
3
 72
8
 73
4
 74
0
 40
0
 40
0
 40
0
 40
0
 40
1
 40
1
 40
1
 40
1
 10
210.846448
 20
436.298924
 30
0.0
 10
210.746448
 20
449.598924
 30
0.0
 10
211.746448
 20
455.998924
 30
0.0
 10
215.846448
 20
468.798924
 30
0.0
  0
SPLINE
  5
10c
100
AcDbEntity
  8
Layer_1
 62
7
100
AcDbSpline
 70
8
 71
3
 72
8
 73
4
 74
0
 40
0
 40
0
 40
0
 40
0
 40
1
 40
1
 40
1
 40
1
 10
215.846448
 20
468.798924
 30
0.0
 10
224.946448
 20
496.698924
 30
0.0
 10
239.946448
 20
514.298924
 30
0.0
 10
269.646448
 20
532.298924
 30
0.0
  0
SPLINE
  5
10d
100
AcDbEntity
  8
Layer_1
 62
7
100
AcDbSpline
 70
8
 71
3
 72
8
 73
4
 74
0
 40
0
 40
0
 40
0
 40
0
 40
1
 40
1
 40
1
 40
1
 10
269.646448
 20
532.298924
 30
0.0
 10
279.246448
 20
538.098924
 30
0.0
 10
290.646448
 20
542.598924
 30
0.0
 10
303.146448
 20
545.398924
 30
0.0
  0
SPLINE
  5
10e
100
AcDbEntity
  8
Layer_1
 62
7
100
AcDbSpline
 70
8
 71
3
 72
8
 73
4
 74
0
 40
0
 40
0
 40
0
 40
0
 40
1
 40
1
 40
1
 40
1
 10
303.146448
 20
545.398924
 30
0.0
 10
313.246448
 20
547.798924
 30
0.0
 10
338.246448
 20
548.998924
 30
0.0
 10
345.946448
 20
547.498924
 30
0.0
  0
SPLINE
  5
10f
100
AcDbEntity
  8
Layer_1
 62
7
100
AcDbSpline
 70
8
 71
3
 72
8
 73
4
 74
0
 40
0
 40
0
 40
0
 40
0
 40
1
 40
1
 40
1
 40
1
 10
353.546448
 20
551.198924
 30
0.0
 10
354.846448
 20
553.698924
 30
0.0
 10
359.146448
 20
562.998924
 30
0.0
 10
363.146448
 20
571.798924
 30
0.0
  0
SPLINE
  5
110
100
AcDbEntity
  8
Layer_1
 62
7
100
AcDbSpline
 70
8
 71
3
 72
8
 73
4
 74
0
 40
0
 40
0
 40
0
 40
0
 40
1
 40
1
 40
1
 40
1
 10
363.146448
 20
571.798924
 30
0.0
 10
367.146448
 20
580.598924
 30
0.0
 10
376.646448
 20
600.598924
 30
0.0
 10
384.246448
 20
616.298924
 30
0.0
  0
SPLINE
  5
111
100
AcDbEntity
  8
Layer_1
 62
7
100
AcDbSpline
 70
8
 71
3
 72
8
 73
4
 74
0
 40
0
 40
0
 40
0
 40
0
 40
1
 40
1
 40
1
 40
1
 10
384.246448
 20
616.298924
 30
0.0
 10
391.846448
 20
631.998924
 30
0.0
 10
399.046448
 20
647.998924
 30
0.0
 10
400.146448
 20
651.798924
 30
0.0
  0
SPLINE
  5
112
100
AcDbEntity
  8
Layer_1
 62
7
100
AcDbSpline
 70
8
 71
3
 72
8
 73
4
 74
0
 40
0
 40
0
 40
0
 40
0
 40
1
 40
1
 40
1
 40
1
 10
400.146448
 20
651.798924
 30
0.0
 10
401.246448
 20
655.698924
 30
0.0
 10
402.646448
 20
663.998924
 30
0.0
 10
403.346448
 20
670.398924
 30
0.0
  0
SPLINE
  5
113
100
AcDbEntity
  8
Layer_1
 62
7
100
AcDbSpline
 70
8
 71
3
 72
8
 73
4
 74
0
 40
0
 40
0
 40
0
 40
0
 40
1
 40
1
 40
1
 40
1
 10
403.346448
 20
670.398924
 30
0.0
 10
405.446448
 20
690.798924
 30
0.0
 10
401.146448
 20
711.798924
 30
0.0
 10
389.446448
 20
737.698924
 30
0.0
  0
SPLINE
  5
114
100
AcDbEntity
  8
Layer_1
 62
7
100
AcDbSpline
 70
8
 71
3
 72
8
 73
4
 74
0
 40
0
 40
0
 40
0
 40
0
 40
1
 40
1
 40
1
 40
1
 10
389.446448
 20
737.698924
 30
0.0
 10
380.146448
 20
758.498924
 30
0.0
 10
365.946448
 20
781.398924
 30
0.0
 10
354.646448
 20
794.098924
 30
0.0
  0
SPLINE
  5
115
100
AcDbEntity
  8
Layer_1
 62
7
100
AcDbSpline
 70
8
 71
3
 72
8
 73
4
 74
0
 40
0
 40
0
 40
0
 40
0
 40
1
 40
1
 40
1
 40
1
 10
354.646448
 20
794.098924
 30
0.0
 10
348.546448
 20
800.798924
 30
0.0
 10
348.646448
 20
800.698924
 30
0.0
 10
338.146448
 20
799.598924
 30
0.0
  0
LWPOLYLINE
  5
116
100
AcDbEntity
  8
Layer_1
 62
7
100
AcDbPolyline
 90
3
 70
0
 10
345.946448
 20
547.498924
 30
0.0
 10
351.246448
 20
546.598924
 30
0.0
 10
353.546448
 20
551.198924
 30
0.0
  0
SPLINE
  5
117
100
AcDbEntity
  8
Layer_1
 62
7
100
AcDbSpline
 70
8
 71
3
 72
8
 73
4
 74
0
 40
0
 40
0
 40
0
 40
0
 40
1
 40
1
 40
1
 40
1
 10
354.046448
 20
791.698924
 30
0.0
 10
369.346448
 20
774.998924
 30
0.0
 10
387.346448
 20
742.298924
 30
0.0
 10
396.146448
 20
715.198924
 30
0.0
  0
SPLINE
  5
118
100
AcDbEntity
  8
Layer_1
 62
7
100
AcDbSpline
 70
8
 71
3
 72
8
 73
4
 74
0
 40
0
 40
0
 40
0
 40
0
 40
1
 40
1
 40
1
 40
1
 10
396.146448
 20
715.198924
 30
0.0
 10
400.946448
 20
700.598924
 30
0.0
 10
402.646448
 20
688.398924
 30
0.0
 10
401.846448
 20
674.498924
 30
0.0
  0
SPLINE
  5
119
100
AcDbEntity
  8
Layer_1
 62
7
100
AcDbSpline
 70
8
 71
3
 72
8
 73
4
 74
0
 40
0
 40
0
 40
0
 40
0
 40
1
 40
1
 40
1
 40
1
 10
401.846448
 20
674.498924
 30
0.0
 10
400.846448
 20
657.198924
 30
0.0
 10
398.446448
 20
649.898924
 30
0.0
 10
384.646448
 20
621.298924
 30
0.0
  0
SPLINE
  5
11a
100
AcDbEntity
  8
Layer_1
 62
7
100
AcDbSpline
 70
8
 71
3
 72
8
 73
4
 74
0
 40
0
 40
0
 40
0
 40
0
 40
1
 40
1
 40
1
 40
1
 10
384.646448
 20
621.298924
 30
0.0
 10
377.746448
 20
607.298924
 30
0.0
 10
367.346448
 20
585.198924
 30
0.0
 10
361.346448
 20
572.298924
 30
0.0
  0
LWPOLYLINE
  5
11b
100
AcDbEntity
  8
Layer_1
 62
7
100
AcDbPolyline
 90
2
 70
0
 10
338.146448
 20
799.598924
 30
0.0
 10
338.146448
 20
799.598924
 30
0.0
  0
SPLINE
  5
11c
100
AcDbEntity
  8
Layer_1
 62
7
100
AcDbSpline
 70
8
 71
3
 72
8
 73
4
 74
0
 40
0
 40
0
 40
0
 40
0
 40
1
 40
1
 40
1
 40
1
 10
346.646448
 20
549.298924
 30
0.0
 10
344.446448
 20
549.598924
 30
0.0
 10
336.346448
 20
549.798924
 30
0.0
 10
328.646448
 20
549.698924
 30
0.0
  0
SPLINE
  5
11d
100
AcDbEntity
  8
Layer_1
 62
7
100
AcDbSpline
 70
8
 71
3
 72
8
 73
4
 74
0
 40
0
 40
0
 40
0
 40
0
 40
1
 40
1
 40
1
 40
1
 10
328.646448
 20
549.698924
 30
0.0
 10
312.946448
 20
549.698924
 30
0.0
 10
300.146448
 20
547.398924
 30
0.0
 10
285.546448
 20
542.098924
 30
0.0
  0
SPLINE
  5
11e
100
AcDbEntity
  8
Layer_1
 62
7
100
AcDbSpline
 70
8
 71
3
 72
8
 73
4
 74
0
 40
0
 40
0
 40
0
 40
0
 40
1
 40
1
 40
1
 40
1
 10
285.546448
 20
542.098924
 30
0.0
 10
271.346448
 20
536.998924
 30
0.0
 10
247.046448
 20
520.498924
 30
0.0
 10
236.246448
 20
508.698924
 30
0.0
  0
SPLINE
  5
11f
100
AcDbEntity
  8
Layer_1
 62
7
100
AcDbSpline
 70
8
 71
3
 72
8
 73
4
 74
0
 40
0
 40
0
 40
0
 40
0
 40
1
 40
1
 40
1
 40
1
 10
236.246448
 20
508.698924
 30
0.0
 10
221.846448
 20
492.998924
 30
0.0
 10
211.946448
 20
470.398924
 30
0.0
 10
209.146448
 20
446.998924
 30
0.0
  0
SPLINE
  5
120
100
AcDbEntity
  8
Layer_1
 62
7
100
AcDbSpline
 70
8
 71
3
 72
8
 73
4
 74
0
 40
0
 40
0
 40
0
 40
0
 40
1
 40
1
 40
1
 40
1
 10
209.146448
 20
446.998924
 30
0.0
 10
207.146448
 20
430.098924
 30
0.0
 10
209.746448
 20
416.198924
 30
0.0
 10
219.546448
 20
391.898924
 30
0.0
  0
SPLINE
  5
121
100
AcDbEntity
  8
Layer_1
 62
7
100
AcDbSpline
 70
8
 71
3
 72
8
 73
4
 74
0
 40
0
 40
0
 40
0
 40
0
 40
1
 40
1
 40
1
 40
1
 10
219.546448
 20
391.898924
 30
0.0
 10
228.646448
 20
369.598924
 30
0.0
 10
228.946448
 20
359.298924
 30
0.0
 10
221.146448
 20
343.798924
 30
0.0
  0
SPLINE
  5
122
100
AcDbEntity
  8
Layer_1
 62
7
100
AcDbSpline
 70
8
 71
3
 72
8
 73
4
 74
0
 40
0
 40
0
 40
0
 40
0
 40
1
 40
1
 40
1
 40
1
 10
221.146448
 20
343.798924
 30
0.0
 10
212.446448
 20
326.498924
 30
0.0
 10
201.446448
 20
315.598924
 30
0.0
 10
184.046448
 20
306.998924
 30
0.0
  0
SPLINE
  5
123
100
AcDbEntity
  8
Layer_1
 62
7
100
AcDbSpline
 70
8
 71
3
 72
8
 73
4
 74
0
 40
0
 40
0
 40
0
 40
0
 40
1
 40
1
 40
1
 40
1
 10
184.046448
 20
306.998924
 30
0.0
 10
158.346448
 20
294.298924
 30
0.0
 10
120.446448
 20
295.698924
 30
0.0
 10
91.946448
 20
310.498924
 30
0.0
  0
SPLINE
  5
124
100
AcDbEntity
  8
Layer_1
 62
7
100
AcDbSpline
 70
8
 71
3
 72
8
 73
4
 74
0
 40
0
 40
0
 40
0
 40
0
 40
1
 40
1
 40
1
 40
1
 10
91.946448
 20
310.498924
 30
0.0
 10
65.146448
 20
324.298924
 30
0.0
 10
49.246448
 20
351.298924
 30
0.0
 10
38.846448
 20
400.298924
 30
0.0
  0
SPLINE
  5
125
100
AcDbEntity
  8
Layer_1
 62
7
100
AcDbSpline
 70
8
 71
3
 72
8
 73
4
 74
0
 40
0
 40
0
 40
0
 40
0
 40
1
 40
1
 40
1
 40
1
 10
38.846448
 20
400.298924
 30
0.0
 10
33.246448
 20
426.598924
 30
0.0
 10
32.646448
 20
432.498924
 30
0.0
 10
32.646448
 20
458.798924
 30
0.0
  0
SPLINE
  5
126
100
AcDbEntity
  8
Layer_1
 62
7
100
AcDbSpline
 70
8
 71
3
 72
8
 73
4
 74
0
 40
0
 40
0
 40
0
 40
0
 40
1
 40
1
 40
1
 40
1
 10
32.646448
 20
458.798924
 30
0.0
 10
32.746448
 20
478.298924
 30
0.0
 10
33.146448
 20
485.698924
 30
0.0
 10
35.046448
 20
498.198924
 30
0.0
  0
SPLINE
  5
127
100
AcDbEntity
  8
Layer_1
 62
7
100
AcDbSpline
 70
8
 71
3
 72
8
 73
4
 74
0
 40
0
 40
0
 40
0
 40
0
 40
1
 40
1
 40
1
 40
1
 10
35.046448
 20
498.198924
 30
0.0
 10
43.646448
 20
557.098924
 30
0.0
 10
61.446448
 20
603.098924
 30
0.0
 10
92.546448
 20
646.798924
 30
0.0
  0
SPLINE
  5
128
100
AcDbEntity
  8
Layer_1
 62
7
100
AcDbSpline
 70
8
 71
3
 72
8
 73
4
 74
0
 40
0
 40
0
 40
0
 40
0
 40
1
 40
1
 40
1
 40
1
 10
92.546448
 20
646.798924
 30
0.0
 10
114.946448
 20
678.198924
 30
0.0
 10
145.946448
 20
709.898924
 30
0.0
 10
177.646448
 20
733.798924
 30
0.0
  0
SPLINE
  5
129
100
AcDbEntity
  8
Layer_1
 62
7
100
AcDbSpline
 70
8
 71
3
 72
8
 73
4
 74
0
 40
0
 40
0
 40
0
 40
0
 40
1
 40
1
 40
1
 40
1
 10
177.646448
 20
733.798924
 30
0.0
 10
221.946448
 20
767.198924
 30
0.0
 10
275.546448
 20
789.398924
 30
0.0
 10
329.246448
 20
796.698924
 30
0.0
  0
SPLINE
  5
12a
100
AcDbEntity
  8
Layer_1
 62
7
100
AcDbSpline
 70
8
 71
3
 72
8
 73
4
 74
0
 40
0
 40
0
 40
0
 40
0
 40
1
 40
1
 40
1
 40
1
 10
329.246448
 20
796.698924
 30
0.0
 10
347.646448
 20
799.198924
 30
0.0
 10
347.046448
 20
799.298924
 30
0.0
 10
354.046448
 20
791.698924
 30
0.0
  0
LWPOLYLINE
  5
12b
100
AcDbEntity
  8
Layer_1
 62
7
100
AcDbPolyline
 90
3
 70
0
 10
361.346448
 20
572.298924
 30
0.0
 10
350.546448
 20
548.798924
 30
0.0
 10
346.646448
 20
549.298924
 30
0.0
  0
SPLINE
  5
12c
100
AcDbEntity
  8
Layer_1
 62
7
100
AcDbSpline
 70
8
 71
3
 72
8
 73
4
 74
0
 40
0
 40
0
 40
0
 40
0
 40
1
 40
1
 40
1
 40
1
 10
327.146448
 20
540.698924
 30
0.0
 10
316.146448
 20
537.698924
 30
0.0
 10
305.946448
 20
529.498924
 30
0.0
 10
298.546448
 20
517.698924
 30
0.0
  0
SPLINE
  5
12d
100
AcDbEntity
  8
Layer_1
 62
7
100
AcDbSpline
 70
8
 71
3
 72
8
 73
4
 74
0
 40
0
 40
0
 40
0
 40
0
 40
1
 40
1
 40
1
 40
1
 10
298.546448
 20
517.698924
 30
0.0
 10
292.946448
 20
508.698924
 30
0.0
 10
290.146448
 20
500.198924
 30
0.0
 10
290.146448
 20
491.998924
 30
0.0
  0
SPLINE
  5
12e
100
AcDbEntity
  8
Layer_1
 62
7
100
AcDbSpline
 70
8
 71
3
 72
8
 73
4
 74
0
 40
0
 40
0
 40
0
 40
0
 40
1
 40
1
 40
1
 40
1
 10
290.146448
 20
491.998924
 30
0.0
 10
290.146448
 20
483.698924
 30
0.0
 10
291.446448
 20
479.698924
 30
0.0
 10
295.946448
 20
473.798924
 30
0.0
  0
SPLINE
  5
12f
100
AcDbEntity
  8
Layer_1
 62
7
100
AcDbSpline
 70
8
 71
3
 72
8
 73
4
 74
0
 40
0
 40
0
 40
0
 40
0
 40
1
 40
1
 40
1
 40
1
 10
295.946448
 20
473.798924
 30
0.0
 10
301.746448
 20
466.198924
 30
0.0
 10
306.246448
 20
463.498924
 30
0.0
 10
316.546448
 20
461.698924
 30
0.0
  0
SPLINE
  5
130
100
AcDbEntity
  8
Layer_1
 62
7
100
AcDbSpline
 70
8
 71
3
 72
8
 73
4
 74
0
 40
0
 40
0
 40
0
 40
0
 40
1
 40
1
 40
1
 40
1
 10
316.546448
 20
461.698924
 30
0.0
 10
321.346448
 20
460.898924
 30
0.0
 10
325.546448
 20
460.398924
 30
0.0
 10
325.746448
 20
460.498924
 30
0.0
  0
SPLINE
  5
131
100
AcDbEntity
  8
Layer_1
 62
7
100
AcDbSpline
 70
8
 71
3
 72
8
 73
4
 74
0
 40
0
 40
0
 40
0
 40
0
 40
1
 40
1
 40
1
 40
1
 10
325.746448
 20
460.498924
 30
0.0
 10
325.946448
 20
460.698924
 30
0.0
 10
324.946448
 20
464.298924
 30
0.0
 10
323.446448
 20
468.398924
 30
0.0
  0
SPLINE
  5
132
100
AcDbEntity
  8
Layer_1
 62
7
100
AcDbSpline
 70
8
 71
3
 72
8
 73
4
 74
0
 40
0
 40
0
 40
0
 40
0
 40
1
 40
1
 40
1
 40
1
 10
323.446448
 20
468.398924
 30
0.0
 10
321.246448
 20
474.698924
 30
0.0
 10
320.946448
 20
476.798924
 30
0.0
 10
321.546448
 20
482.998924
 30
0.0
  0
SPLINE
  5
133
100
AcDbEntity
  8
Layer_1
 62
7
100
AcDbSpline
 70
8
 71
3
 72
8
 73
4
 74
0
 40
0
 40
0
 40
0
 40
0
 40
1
 40
1
 40
1
 40
1
 10
321.546448
 20
482.998924
 30
0.0
 10
322.246448
 20
491.498924
 30
0.0
 10
324.746448
 20
498.598924
 30
0.0
 10
329.646448
 20
505.898924
 30
0.0
  0
SPLINE
  5
134
100
AcDbEntity
  8
Layer_1
 62
7
100
AcDbSpline
 70
8
 71
3
 72
8
 73
4
 74
0
 40
0
 40
0
 40
0
 40
0
 40
1
 40
1
 40
1
 40
1
 10
329.646448
 20
505.898924
 30
0.0
 10
331.546448
 20
508.898924
 30
0.0
 10
333.146448
 20
511.698924
 30
0.0
 10
333.146448
 20
512.198924
 30
0.0
  0
SPLINE
  5
135
100
AcDbEntity
  8
Layer_1
 62
7
100
AcDbSpline
 70
8
 71
3
 72
8
 73
4
 74
0
 40
0
 40
0
 40
0
 40
0
 40
1
 40
1
 40
1
 40
1
 10
333.146448
 20
512.198924
 30
0.0
 10
333.146448
 20
512.998924
 30
0.0
 10
337.046448
 20
515.198924
 30
0.0
 10
349.546448
 20
521.498924
 30
0.0
  0
SPLINE
  5
136
100
AcDbEntity
  8
Layer_1
 62
7
100
AcDbSpline
 70
8
 71
3
 72
8
 73
4
 74
0
 40
0
 40
0
 40
0
 40
0
 40
1
 40
1
 40
1
 40
1
 10
349.546448
 20
521.498924
 30
0.0
 10
355.546448
 20
524.498924
 30
0.0
 10
366.546448
 20
527.598924
 30
0.0
 10
375.446448
 20
528.798924
 30
0.0
  0
SPLINE
  5
137
100
AcDbEntity
  8
Layer_1
 62
7
100
AcDbSpline
 70
8
 71
3
 72
8
 73
4
 74
0
 40
0
 40
0
 40
0
 40
0
 40
1
 40
1
 40
1
 40
1
 10
375.446448
 20
528.798924
 30
0.0
 10
378.046448
 20
529.098924
 30
0.0
 10
380.146448
 20
529.798924
 30
0.0
 10
380.146448
 20
530.198924
 30
0.0
  0
SPLINE
  5
138
100
AcDbEntity
  8
Layer_1
 62
7
100
AcDbSpline
 70
8
 71
3
 72
8
 73
4
 74
0
 40
0
 40
0
 40
0
 40
0
 40
1
 40
1
 40
1
 40
1
 10
380.146448
 20
530.198924
 30
0.0
 10
380.146448
 20
531.198924
 30
0.0
 10
368.346448
 20
536.598924
 30
0.0
 10
361.646448
 20
538.598924
 30
0.0
  0
SPLINE
  5
139
100
AcDbEntity
  8
Layer_1
 62
7
100
AcDbSpline
 70
8
 71
3
 72
8
 73
4
 74
0
 40
0
 40
0
 40
0
 40
0
 40
1
 40
1
 40
1
 40
1
 10
361.646448
 20
538.598924
 30
0.0
 10
349.246448
 20
542.498924
 30
0.0
 10
336.646448
 20
543.198924
 30
0.0
 10
327.146448
 20
540.698924
 30
0.0
  0
LWPOLYLINE
  5
13a
100
AcDbEntity
  8
Layer_1
 62
7
100
AcDbPolyline
 90
2
 70
0
 10
354.046448
 20
791.698924
 30
0.0
 10
354.046448
 20
791.698924
 30
0.0
  0
SPLINE
  5
13b
100
AcDbEntity
  8
Layer_1
 62
7
100
AcDbSpline
 70
8
 71
3
 72
8
 73
4
 74
0
 40
0
 40
0
 40
0
 40
0
 40
1
 40
1
 40
1
 40
1
 10
353.946448
 20
538.698924
 30
0.0
 10
358.146448
 20
537.798924
 30
0.0
 10
365.046448
 20
535.698924
 30
0.0
 10
369.146448
 20
533.998924
 30
0.0
  0
LWPOLYLINE
  5
13c
100
AcDbEntity
  8
Layer_1
 62
7
100
AcDbPolyline
 90
2
 70
0
 10
327.146448
 20
540.698924
 30
0.0
 10
327.146448
 20
540.698924
 30
0.0
  0
SPLINE
  5
13d
100
AcDbEntity
  8
Layer_1
 62
7
100
AcDbSpline
 70
8
 71
3
 72
8
 73
4
 74
0
 40
0
 40
0
 40
0
 40
0
 40
1
 40
1
 40
1
 40
1
 10
367.246448
 20
529.098924
 30
0.0
 10
356.946448
 20
526.998924
 30
0.0
 10
347.446448
 20
523.398924
 30
0.0
 10
339.746448
 20
518.398924
 30
0.0
  0
SPLINE
  5
13e
100
AcDbEntity
  8
Layer_1
 62
7
100
AcDbSpline
 70
8
 71
3
 72
8
 73
4
 74
0
 40
0
 40
0
 40
0
 40
0
 40
1
 40
1
 40
1
 40
1
 10
339.746448
 20
518.398924
 30
0.0
 10
336.946448
 20
516.698924
 30
0.0
 10
334.246448
 20
515.298924
 30
0.0
 10
333.546448
 20
515.298924
 30
0.0
  0
SPLINE
  5
13f
100
AcDbEntity
  8
Layer_1
 62
7
100
AcDbSpline
 70
8
 71
3
 72
8
 73
4
 74
0
 40
0
 40
0
 40
0
 40
0
 40
1
 40
1
 40
1
 40
1
 10
333.546448
 20
515.298924
 30
0.0
 10
332.846448
 20
515.298924
 30
0.0
 10
331.946448
 20
514.298924
 30
0.0
 10
331.546448
 20
513.098924
 30
0.0
  0
SPLINE
  5
140
100
AcDbEntity
  8
Layer_1
 62
7
100
AcDbSpline
 70
8
 71
3
 72
8
 73
4
 74
0
 40
0
 40
0
 40
0
 40
0
 40
1
 40
1
 40
1
 40
1
 10
331.546448
 20
513.098924
 30
0.0
 10
331.146448
 20
511.798924
 30
0.0
 10
329.846448
 20
509.398924
 30
0.0
 10
328.546448
 20
507.798924
 30
0.0
  0
SPLINE
  5
141
100
AcDbEntity
  8
Layer_1
 62
7
100
AcDbSpline
 70
8
 71
3
 72
8
 73
4
 74
0
 40
0
 40
0
 40
0
 40
0
 40
1
 40
1
 40
1
 40
1
 10
328.546448
 20
507.798924
 30
0.0
 10
324.446448
 20
502.398924
 30
0.0
 10
321.146448
 20
493.898924
 30
0.0
 10
320.046448
 20
485.698924
 30
0.0
  0
SPLINE
  5
142
100
AcDbEntity
  8
Layer_1
 62
7
100
AcDbSpline
 70
8
 71
3
 72
8
 73
4
 74
0
 40
0
 40
0
 40
0
 40
0
 40
1
 40
1
 40
1
 40
1
 10
320.046448
 20
485.698924
 30
0.0
 10
318.946448
 20
477.798924
 30
0.0
 10
319.146448
 20
475.698924
 30
0.0
 10
322.746448
 20
464.398924
 30
0.0
  0
SPLINE
  5
143
100
AcDbEntity
  8
Layer_1
 62
7
100
AcDbSpline
 70
8
 71
3
 72
8
 73
4
 74
0
 40
0
 40
0
 40
0
 40
0
 40
1
 40
1
 40
1
 40
1
 10
322.746448
 20
464.398924
 30
0.0
 10
323.346448
 20
462.198924
 30
0.0
 10
323.246448
 20
462.098924
 30
0.0
 10
321.046448
 20
462.598924
 30
0.0
  0
SPLINE
  5
144
100
AcDbEntity
  8
Layer_1
 62
7
100
AcDbSpline
 70
8
 71
3
 72
8
 73
4
 74
0
 40
0
 40
0
 40
0
 40
0
 40
1
 40
1
 40
1
 40
1
 10
321.046448
 20
462.598924
 30
0.0
 10
319.746448
 20
462.898924
 30
0.0
 10
315.946448
 20
463.698924
 30
0.0
 10
312.746448
 20
464.298924
 30
0.0
  0
SPLINE
  5
145
100
AcDbEntity
  8
Layer_1
 62
7
100
AcDbSpline
 70
8
 71
3
 72
8
 73
4
 74
0
 40
0
 40
0
 40
0
 40
0
 40
1
 40
1
 40
1
 40
1
 10
312.746448
 20
464.298924
 30
0.0
 10
307.946448
 20
465.298924
 30
0.0
 10
305.946448
 20
466.398924
 30
0.0
 10
301.846448
 20
470.098924
 30
0.0
  0
SPLINE
  5
146
100
AcDbEntity
  8
Layer_1
 62
7
100
AcDbSpline
 70
8
 71
3
 72
8
 73
4
 74
0
 40
0
 40
0
 40
0
 40
0
 40
1
 40
1
 40
1
 40
1
 10
301.846448
 20
470.098924
 30
0.0
 10
294.846448
 20
476.698924
 30
0.0
 10
292.146448
 20
482.498924
 30
0.0
 10
292.146448
 20
491.098924
 30
0.0
  0
SPLINE
  5
147
100
AcDbEntity
  8
Layer_1
 62
7
100
AcDbSpline
 70
8
 71
3
 72
8
 73
4
 74
0
 40
0
 40
0
 40
0
 40
0
 40
1
 40
1
 40
1
 40
1
 10
292.146448
 20
491.098924
 30
0.0
 10
292.146448
 20
499.798924
 30
0.0
 10
294.246448
 20
507.098924
 30
0.0
 10
299.246448
 20
515.298924
 30
0.0
  0
SPLINE
  5
148
100
AcDbEntity
  8
Layer_1
 62
7
100
AcDbSpline
 70
8
 71
3
 72
8
 73
4
 74
0
 40
0
 40
0
 40
0
 40
0
 40
1
 40
1
 40
1
 40
1
 10
299.246448
 20
515.298924
 30
0.0
 10
311.746448
 20
536.298924
 30
0.0
 10
329.246448
 20
543.798924
 30
0.0
 10
353.946448
 20
538.698924
 30
0.0
  0
LWPOLYLINE
  5
149
100
AcDbEntity
  8
Layer_1
 62
7
100
AcDbPolyline
 90
3
 70
0
 10
369.146448
 20
533.998924
 30
0.0
 10
376.646448
 20
530.898924
 30
0.0
 10
367.246448
 20
529.098924
 30
0.0
  0
SPLINE
  5
14a
100
AcDbEntity
  8
Layer_1
 62
7
100
AcDbSpline
 70
8
 71
3
 72
8
 73
4
 74
0
 40
0
 40
0
 40
0
 40
0
 40
1
 40
1
 40
1
 40
1
 10
299.146448
 20
537.798924
 30
0.0
 10
284.546448
 20
534.898924
 30
0.0
 10
275.646448
 20
530.498924
 30
0.0
 10
267.346448
 20
522.098924
 30
0.0
  0
SPLINE
  5
14b
100
AcDbEntity
  8
Layer_1
 62
7
100
AcDbSpline
 70
8
 71
3
 72
8
 73
4
 74
0
 40
0
 40
0
 40
0
 40
0
 40
1
 40
1
 40
1
 40
1
 10
267.346448
 20
522.098924
 30
0.0
 10
260.746448
 20
515.498924
 30
0.0
 10
257.546448
 20
508.998924
 30
0.0
 10
256.046448
 20
499.398924
 30
0.0
  0
SPLINE
  5
14c
100
AcDbEntity
  8
Layer_1
 62
7
100
AcDbSpline
 70
8
 71
3
 72
8
 73
4
 74
0
 40
0
 40
0
 40
0
 40
0
 40
1
 40
1
 40
1
 40
1
 10
256.046448
 20
499.398924
 30
0.0
 10
253.346448
 20
481.698924
 30
0.0
 10
258.846448
 20
466.798924
 30
0.0
 10
270.546448
 20
459.898924
 30
0.0
  0
SPLINE
  5
14d
100
AcDbEntity
  8
Layer_1
 62
7
100
AcDbSpline
 70
8
 71
3
 72
8
 73
4
 74
0
 40
0
 40
0
 40
0
 40
0
 40
1
 40
1
 40
1
 40
1
 10
270.546448
 20
459.898924
 30
0.0
 10
279.046448
 20
454.898924
 30
0.0
 10
286.246448
 20
454.498924
 30
0.0
 10
298.646448
 20
458.398924
 30
0.0
  0
LWPOLYLINE
  5
14e
100
AcDbEntity
  8
Layer_1
 62
7
100
AcDbPolyline
 90
2
 70
0
 10
353.946448
 20
538.698924
 30
0.0
 10
353.946448
 20
538.698924
 30
0.0
  0
SPLINE
  5
14f
100
AcDbEntity
  8
Layer_1
 62
7
100
AcDbSpline
 70
8
 71
3
 72
8
 73
4
 74
0
 40
0
 40
0
 40
0
 40
0
 40
1
 40
1
 40
1
 40
1
 10
295.946448
 20
465.298924
 30
0.0
 10
287.746448
 20
473.998924
 30
0.0
 10
285.746448
 20
479.698924
 30
0.0
 10
285.746448
 20
494.298924
 30
0.0
  0
SPLINE
  5
150
100
AcDbEntity
  8
Layer_1
 62
7
100
AcDbSpline
 70
8
 71
3
 72
8
 73
4
 74
0
 40
0
 40
0
 40
0
 40
0
 40
1
 40
1
 40
1
 40
1
 10
285.746448
 20
494.298924
 30
0.0
 10
285.746448
 20
504.298924
 30
0.0
 10
285.946448
 20
506.198924
 30
0.0
 10
287.746448
 20
508.798924
 30
0.0
  0
SPLINE
  5
151
100
AcDbEntity
  8
Layer_1
 62
7
100
AcDbSpline
 70
8
 71
3
 72
8
 73
4
 74
0
 40
0
 40
0
 40
0
 40
0
 40
1
 40
1
 40
1
 40
1
 10
287.746448
 20
508.798924
 30
0.0
 10
288.946448
 20
510.498924
 30
0.0
 10
292.446448
 20
515.698924
 30
0.0
 10
295.446448
 20
520.398924
 30
0.0
  0
SPLINE
  5
152
100
AcDbEntity
  8
Layer_1
 62
7
100
AcDbSpline
 70
8
 71
3
 72
8
 73
4
 74
0
 40
0
 40
0
 40
0
 40
0
 40
1
 40
1
 40
1
 40
1
 10
295.446448
 20
520.398924
 30
0.0
 10
298.546448
 20
525.098924
 30
0.0
 10
303.146448
 20
531.298924
 30
0.0
 10
305.746448
 20
534.198924
 30
0.0
  0
SPLINE
  5
153
100
AcDbEntity
  8
Layer_1
 62
7
100
AcDbSpline
 70
8
 71
3
 72
8
 73
4
 74
0
 40
0
 40
0
 40
0
 40
0
 40
1
 40
1
 40
1
 40
1
 10
305.746448
 20
534.198924
 30
0.0
 10
311.046448
 20
539.998924
 30
0.0
 10
310.846448
 20
540.098924
 30
0.0
 10
299.146448
 20
537.798924
 30
0.0
  0
LWPOLYLINE
  5
154
100
AcDbEntity
  8
Layer_1
 62
7
100
AcDbPolyline
 90
3
 70
0
 10
298.646448
 20
458.398924
 30
0.0
 10
301.646448
 20
459.298924
 30
0.0
 10
295.946448
 20
465.298924
 30
0.0
  0
SPLINE
  5
155
100
AcDbEntity
  8
Layer_1
 62
7
100
AcDbSpline
 70
8
 71
3
 72
8
 73
4
 74
0
 40
0
 40
0
 40
0
 40
0
 40
1
 40
1
 40
1
 40
1
 10
300.146448
 20
530.098924
 30
0.0
 10
297.346448
 20
526.698924
 30
0.0
 10
292.546448
 20
519.798924
 30
0.0
 10
289.546448
 20
514.898924
 30
0.0
  0
SPLINE
  5
156
100
AcDbEntity
  8
Layer_1
 62
7
100
AcDbSpline
 70
8
 71
3
 72
8
 73
4
 74
0
 40
0
 40
0
 40
0
 40
0
 40
1
 40
1
 40
1
 40
1
 10
289.546448
 20
514.898924
 30
0.0
 10
284.446448
 20
506.598924
 30
0.0
 10
284.146448
 20
505.598924
 30
0.0
 10
283.546448
 20
497.898924
 30
0.0
  0
SPLINE
  5
157
100
AcDbEntity
  8
Layer_1
 62
7
100
AcDbSpline
 70
8
 71
3
 72
8
 73
4
 74
0
 40
0
 40
0
 40
0
 40
0
 40
1
 40
1
 40
1
 40
1
 10
283.546448
 20
497.898924
 30
0.0
 10
282.446448
 20
484.598924
 30
0.0
 10
286.146448
 20
472.998924
 30
0.0
 10
294.046448
 20
464.498924
 30
0.0
  0
SPLINE
  5
158
100
AcDbEntity
  8
Layer_1
 62
7
100
AcDbSpline
 70
8
 71
3
 72
8
 73
4
 74
0
 40
0
 40
0
 40
0
 40
0
 40
1
 40
1
 40
1
 40
1
 10
294.046448
 20
464.498924
 30
0.0
 10
296.146448
 20
462.098924
 30
0.0
 10
297.546448
 20
460.098924
 30
0.0
 10
297.246448
 20
459.798924
 30
0.0
  0
SPLINE
  5
159
100
AcDbEntity
  8
Layer_1
 62
7
100
AcDbSpline
 70
8
 71
3
 72
8
 73
4
 74
0
 40
0
 40
0
 40
0
 40
0
 40
1
 40
1
 40
1
 40
1
 10
297.246448
 20
459.798924
 30
0.0
 10
296.846448
 20
459.598924
 30
0.0
 10
293.546448
 20
458.898924
 30
0.0
 10
289.846448
 20
458.198924
 30
0.0
  0
SPLINE
  5
15a
100
AcDbEntity
  8
Layer_1
 62
7
100
AcDbSpline
 70
8
 71
3
 72
8
 73
4
 74
0
 40
0
 40
0
 40
0
 40
0
 40
1
 40
1
 40
1
 40
1
 10
289.846448
 20
458.198924
 30
0.0
 10
281.846448
 20
456.698924
 30
0.0
 10
277.546448
 20
457.698924
 30
0.0
 10
269.446448
 20
462.898924
 30
0.0
  0
SPLINE
  5
15b
100
AcDbEntity
  8
Layer_1
 62
7
100
AcDbSpline
 70
8
 71
3
 72
8
 73
4
 74
0
 40
0
 40
0
 40
0
 40
0
 40
1
 40
1
 40
1
 40
1
 10
269.446448
 20
462.898924
 30
0.0
 10
259.346448
 20
469.298924
 30
0.0
 10
255.046448
 20
484.398924
 30
0.0
 10
258.246448
 20
501.798924
 30
0.0
  0
SPLINE
  5
15c
100
AcDbEntity
  8
Layer_1
 62
7
100
AcDbSpline
 70
8
 71
3
 72
8
 73
4
 74
0
 40
0
 40
0
 40
0
 40
0
 40
1
 40
1
 40
1
 40
1
 10
258.246448
 20
501.798924
 30
0.0
 10
261.346448
 20
518.798924
 30
0.0
 10
275.646448
 20
531.098924
 30
0.0
 10
297.846448
 20
535.598924
 30
0.0
  0
SPLINE
  5
15d
100
AcDbEntity
  8
Layer_1
 62
7
100
AcDbSpline
 70
8
 71
3
 72
8
 73
4
 74
0
 40
0
 40
0
 40
0
 40
0
 40
1
 40
1
 40
1
 40
1
 10
297.846448
 20
535.598924
 30
0.0
 10
301.546448
 20
536.398924
 30
0.0
 10
304.746448
 20
536.898924
 30
0.0
 10
304.946448
 20
536.798924
 30
0.0
  0
SPLINE
  5
15e
100
AcDbEntity
  8
Layer_1
 62
7
100
AcDbSpline
 70
8
 71
3
 72
8
 73
4
 74
0
 40
0
 40
0
 40
0
 40
0
 40
1
 40
1
 40
1
 40
1
 10
304.946448
 20
536.798924
 30
0.0
 10
305.146448
 20
536.598924
 30
0.0
 10
302.946448
 20
533.598924
 30
0.0
 10
300.146448
 20
530.098924
 30
0.0
  0
LWPOLYLINE
  5
15f
100
AcDbEntity
  8
Layer_1
 62
7
100
AcDbPolyline
 90
2
 70
0
 10
299.146448
 20
537.798924
 30
0.0
 10
299.146448
 20
537.798924
 30
0.0
  0
SPLINE
  5
160
100
AcDbEntity
  8
Layer_1
 62
7
100
AcDbSpline
 70
8
 71
3
 72
8
 73
4
 74
0
 40
0
 40
0
 40
0
 40
0
 40
1
 40
1
 40
1
 40
1
 10
367.146448
 20
523.698924
 30
0.0
 10
347.846448
 20
518.698924
 30
0.0
 10
330.846448
 20
504.298924
 30
0.0
 10
326.446448
 20
489.398924
 30
0.0
  0
SPLINE
  5
161
100
AcDbEntity
  8
Layer_1
 62
7
100
AcDbSpline
 70
8
 71
3
 72
8
 73
4
 74
0
 40
0
 40
0
 40
0
 40
0
 40
1
 40
1
 40
1
 40
1
 10
326.446448
 20
489.398924
 30
0.0
 10
323.546448
 20
479.398924
 30
0.0
 10
327.346448
 20
465.598924
 30
0.0
 10
335.046448
 20
458.498924
 30
0.0
  0
SPLINE
  5
162
100
AcDbEntity
  8
Layer_1
 62
7
100
AcDbSpline
 70
8
 71
3
 72
8
 73
4
 74
0
 40
0
 40
0
 40
0
 40
0
 40
1
 40
1
 40
1
 40
1
 10
335.046448
 20
458.498924
 30
0.0
 10
339.146448
 20
454.698924
 30
0.0
 10
347.146448
 20
448.898924
 30
0.0
 10
347.546448
 20
449.498924
 30
0.0
  0
SPLINE
  5
163
100
AcDbEntity
  8
Layer_1
 62
7
100
AcDbSpline
 70
8
 71
3
 72
8
 73
4
 74
0
 40
0
 40
0
 40
0
 40
0
 40
1
 40
1
 40
1
 40
1
 10
347.546448
 20
449.498924
 30
0.0
 10
347.746448
 20
449.598924
 30
0.0
 10
348.346448
 20
452.698924
 30
0.0
 10
349.046448
 20
456.298924
 30
0.0
  0
SPLINE
  5
164
100
AcDbEntity
  8
Layer_1
 62
7
100
AcDbSpline
 70
8
 71
3
 72
8
 73
4
 74
0
 40
0
 40
0
 40
0
 40
0
 40
1
 40
1
 40
1
 40
1
 10
349.046448
 20
456.298924
 30
0.0
 10
351.446448
 20
470.198924
 30
0.0
 10
361.346448
 20
483.098924
 30
0.0
 10
374.646448
 20
489.798924
 30
0.0
  0
SPLINE
  5
165
100
AcDbEntity
  8
Layer_1
 62
7
100
AcDbSpline
 70
8
 71
3
 72
8
 73
4
 74
0
 40
0
 40
0
 40
0
 40
0
 40
1
 40
1
 40
1
 40
1
 10
374.646448
 20
489.798924
 30
0.0
 10
377.946448
 20
491.398924
 30
0.0
 10
380.946448
 20
493.098924
 30
0.0
 10
381.346448
 20
493.698924
 30
0.0
  0
SPLINE
  5
166
100
AcDbEntity
  8
Layer_1
 62
7
100
AcDbSpline
 70
8
 71
3
 72
8
 73
4
 74
0
 40
0
 40
0
 40
0
 40
0
 40
1
 40
1
 40
1
 40
1
 10
381.346448
 20
493.698924
 30
0.0
 10
382.246448
 20
494.998924
 30
0.0
 10
404.646448
 20
494.698924
 30
0.0
 10
412.446448
 20
493.298924
 30
0.0
  0
SPLINE
  5
167
100
AcDbEntity
  8
Layer_1
 62
7
100
AcDbSpline
 70
8
 71
3
 72
8
 73
4
 74
0
 40
0
 40
0
 40
0
 40
0
 40
1
 40
1
 40
1
 40
1
 10
412.446448
 20
493.298924
 30
0.0
 10
417.446448
 20
492.298924
 30
0.0
 10
427.146448
 20
489.198924
 30
0.0
 10
435.446448
 20
485.798924
 30
0.0
  0
SPLINE
  5
168
100
AcDbEntity
  8
Layer_1
 62
7
100
AcDbSpline
 70
8
 71
3
 72
8
 73
4
 74
0
 40
0
 40
0
 40
0
 40
0
 40
1
 40
1
 40
1
 40
1
 10
435.446448
 20
485.798924
 30
0.0
 10
438.746448
 20
484.398924
 30
0.0
 10
437.246448
 20
487.798924
 30
0.0
 10
430.746448
 20
495.898924
 30
0.0
  0
SPLINE
  5
169
100
AcDbEntity
  8
Layer_1
 62
7
100
AcDbSpline
 70
8
 71
3
 72
8
 73
4
 74
0
 40
0
 40
0
 40
0
 40
0
 40
1
 40
1
 40
1
 40
1
 10
430.746448
 20
495.898924
 30
0.0
 10
411.946448
 20
519.698924
 30
0.0
 10
389.446448
 20
529.598924
 30
0.0
 10
367.146448
 20
523.698924
 30
0.0
  0
LWPOLYLINE
  5
16a
100
AcDbEntity
  8
Layer_1
 62
7
100
AcDbPolyline
 90
2
 70
0
 10
300.146448
 20
530.098924
 30
0.0
 10
300.146448
 20
530.098924
 30
0.0
  0
SPLINE
  5
16b
100
AcDbEntity
  8
Layer_1
 62
7
100
AcDbSpline
 70
8
 71
3
 72
8
 73
4
 74
0
 40
0
 40
0
 40
0
 40
0
 40
1
 40
1
 40
1
 40
1
 10
394.446448
 20
521.398924
 30
0.0
 10
403.546448
 20
518.398924
 30
0.0
 10
411.046448
 20
513.398924
 30
0.0
 10
421.246448
 20
503.298924
 30
0.0
  0
SPLINE
  5
16c
100
AcDbEntity
  8
Layer_1
 62
7
100
AcDbSpline
 70
8
 71
3
 72
8
 73
4
 74
0
 40
0
 40
0
 40
0
 40
0
 40
1
 40
1
 40
1
 40
1
 10
421.246448
 20
503.298924
 30
0.0
 10
431.346448
 20
493.298924
 30
0.0
 10
435.046448
 20
488.498924
 30
0.0
 10
431.546448
 20
489.598924
 30
0.0
  0
SPLINE
  5
16d
100
AcDbEntity
  8
Layer_1
 62
7
100
AcDbSpline
 70
8
 71
3
 72
8
 73
4
 74
0
 40
0
 40
0
 40
0
 40
0
 40
1
 40
1
 40
1
 40
1
 10
431.546448
 20
489.598924
 30
0.0
 10
414.646448
 20
495.098924
 30
0.0
 10
412.346448
 20
495.498924
 30
0.0
 10
397.746448
 20
496.198924
 30
0.0
  0
SPLINE
  5
16e
100
AcDbEntity
  8
Layer_1
 62
7
100
AcDbSpline
 70
8
 71
3
 72
8
 73
4
 74
0
 40
0
 40
0
 40
0
 40
0
 40
1
 40
1
 40
1
 40
1
 10
397.746448
 20
496.198924
 30
0.0
 10
384.346448
 20
496.698924
 30
0.0
 10
382.546448
 20
496.598924
 30
0.0
 10
380.546448
 20
495.098924
 30
0.0
  0
SPLINE
  5
16f
100
AcDbEntity
  8
Layer_1
 62
7
100
AcDbSpline
 70
8
 71
3
 72
8
 73
4
 74
0
 40
0
 40
0
 40
0
 40
0
 40
1
 40
1
 40
1
 40
1
 10
380.546448
 20
495.098924
 30
0.0
 10
379.346448
 20
494.098924
 30
0.0
 10
377.946448
 20
493.298924
 30
0.0
 10
377.346448
 20
493.298924
 30
0.0
  0
SPLINE
  5
170
100
AcDbEntity
  8
Layer_1
 62
7
100
AcDbSpline
 70
8
 71
3
 72
8
 73
4
 74
0
 40
0
 40
0
 40
0
 40
0
 40
1
 40
1
 40
1
 40
1
 10
377.346448
 20
493.298924
 30
0.0
 10
375.246448
 20
493.298924
 30
0.0
 10
361.346448
 20
483.298924
 30
0.0
 10
357.746448
 20
479.198924
 30
0.0
  0
SPLINE
  5
171
100
AcDbEntity
  8
Layer_1
 62
7
100
AcDbSpline
 70
8
 71
3
 72
8
 73
4
 74
0
 40
0
 40
0
 40
0
 40
0
 40
1
 40
1
 40
1
 40
1
 10
357.746448
 20
479.198924
 30
0.0
 10
352.746448
 20
473.498924
 30
0.0
 10
348.246448
 20
463.898924
 30
0.0
 10
347.446448
 20
457.398924
 30
0.0
  0
SPLINE
  5
172
100
AcDbEntity
  8
Layer_1
 62
7
100
AcDbSpline
 70
8
 71
3
 72
8
 73
4
 74
0
 40
0
 40
0
 40
0
 40
0
 40
1
 40
1
 40
1
 40
1
 10
347.446448
 20
457.398924
 30
0.0
 10
347.146448
 20
454.598924
 30
0.0
 10
346.546448
 20
452.298924
 30
0.0
 10
346.246448
 20
452.298924
 30
0.0
  0
SPLINE
  5
173
100
AcDbEntity
  8
Layer_1
 62
7
100
AcDbSpline
 70
8
 71
3
 72
8
 73
4
 74
0
 40
0
 40
0
 40
0
 40
0
 40
1
 40
1
 40
1
 40
1
 10
346.246448
 20
452.298924
 30
0.0
 10
345.846448
 20
452.298924
 30
0.0
 10
342.846448
 20
454.398924
 30
0.0
 10
339.646448
 20
457.098924
 30
0.0
  0
SPLINE
  5
174
100
AcDbEntity
  8
Layer_1
 62
7
100
AcDbSpline
 70
8
 71
3
 72
8
 73
4
 74
0
 40
0
 40
0
 40
0
 40
0
 40
1
 40
1
 40
1
 40
1
 10
339.646448
 20
457.098924
 30
0.0
 10
331.146448
 20
463.798924
 30
0.0
 10
327.846448
 20
470.698924
 30
0.0
 10
327.746448
 20
481.698924
 30
0.0
  0
SPLINE
  5
175
100
AcDbEntity
  8
Layer_1
 62
7
100
AcDbSpline
 70
8
 71
3
 72
8
 73
4
 74
0
 40
0
 40
0
 40
0
 40
0
 40
1
 40
1
 40
1
 40
1
 10
327.746448
 20
481.698924
 30
0.0
 10
327.646448
 20
490.598924
 30
0.0
 10
328.946448
 20
493.998924
 30
0.0
 10
335.346448
 20
501.998924
 30
0.0
  0
SPLINE
  5
176
100
AcDbEntity
  8
Layer_1
 62
7
100
AcDbSpline
 70
8
 71
3
 72
8
 73
4
 74
0
 40
0
 40
0
 40
0
 40
0
 40
1
 40
1
 40
1
 40
1
 10
335.346448
 20
501.998924
 30
0.0
 10
341.746448
 20
510.098924
 30
0.0
 10
357.146448
 20
519.698924
 30
0.0
 10
367.846448
 20
522.198924
 30
0.0
  0
SPLINE
  5
177
100
AcDbEntity
  8
Layer_1
 62
7
100
AcDbSpline
 70
8
 71
3
 72
8
 73
4
 74
0
 40
0
 40
0
 40
0
 40
0
 40
1
 40
1
 40
1
 40
1
 10
367.846448
 20
522.198924
 30
0.0
 10
374.746448
 20
523.798924
 30
0.0
 10
388.346448
 20
523.498924
 30
0.0
 10
394.446448
 20
521.398924
 30
0.0
  0
LWPOLYLINE
  5
178
100
AcDbEntity
  8
Layer_1
 62
7
100
AcDbPolyline
 90
2
 70
0
 10
367.146448
 20
523.698924
 30
0.0
 10
367.146448
 20
523.698924
 30
0.0
  0
SPLINE
  5
179
100
AcDbEntity
  8
Layer_1
 62
7
100
AcDbSpline
 70
8
 71
3
 72
8
 73
4
 74
0
 40
0
 40
0
 40
0
 40
0
 40
1
 40
1
 40
1
 40
1
 10
249.646448
 20
508.898924
 30
0.0
 10
236.246448
 20
498.698924
 30
0.0
 10
230.246448
 20
490.198924
 30
0.0
 10
228.046448
 20
477.998924
 30
0.0
  0
SPLINE
  5
17a
100
AcDbEntity
  8
Layer_1
 62
7
100
AcDbSpline
 70
8
 71
3
 72
8
 73
4
 74
0
 40
0
 40
0
 40
0
 40
0
 40
1
 40
1
 40
1
 40
1
 10
228.046448
 20
477.998924
 30
0.0
 10
226.946448
 20
472.098924
 30
0.0
 10
227.046448
 20
470.598924
 30
0.0
 10
228.746448
 20
465.098924
 30
0.0
  0
SPLINE
  5
17b
100
AcDbEntity
  8
Layer_1
 62
7
100
AcDbSpline
 70
8
 71
3
 72
8
 73
4
 74
0
 40
0
 40
0
 40
0
 40
0
 40
1
 40
1
 40
1
 40
1
 10
228.746448
 20
465.098924
 30
0.0
 10
231.546448
 20
455.798924
 30
0.0
 10
238.846448
 20
445.198924
 30
0.0
 10
245.646448
 20
440.698924
 30
0.0
  0
SPLINE
  5
17c
100
AcDbEntity
  8
Layer_1
 62
7
100
AcDbSpline
 70
8
 71
3
 72
8
 73
4
 74
0
 40
0
 40
0
 40
0
 40
0
 40
1
 40
1
 40
1
 40
1
 10
245.646448
 20
440.698924
 30
0.0
 10
250.646448
 20
437.398924
 30
0.0
 10
252.046448
 20
436.898924
 30
0.0
 10
259.046448
 20
436.498924
 30
0.0
  0
SPLINE
  5
17d
100
AcDbEntity
  8
Layer_1
 62
7
100
AcDbSpline
 70
8
 71
3
 72
8
 73
4
 74
0
 40
0
 40
0
 40
0
 40
0
 40
1
 40
1
 40
1
 40
1
 10
259.046448
 20
436.498924
 30
0.0
 10
263.746448
 20
436.198924
 30
0.0
 10
268.346448
 20
436.498924
 30
0.0
 10
270.546448
 20
437.298924
 30
0.0
  0
SPLINE
  5
17e
100
AcDbEntity
  8
Layer_1
 62
7
100
AcDbSpline
 70
8
 71
3
 72
8
 73
4
 74
0
 40
0
 40
0
 40
0
 40
0
 40
1
 40
1
 40
1
 40
1
 10
270.546448
 20
437.298924
 30
0.0
 10
274.146448
 20
438.498924
 30
0.0
 10
285.146448
 20
446.698924
 30
0.0
 10
285.146448
 20
448.198924
 30
0.0
  0
SPLINE
  5
17f
100
AcDbEntity
  8
Layer_1
 62
7
100
AcDbSpline
 70
8
 71
3
 72
8
 73
4
 74
0
 40
0
 40
0
 40
0
 40
0
 40
1
 40
1
 40
1
 40
1
 10
285.146448
 20
448.198924
 30
0.0
 10
285.146448
 20
448.698924
 30
0.0
 10
283.446448
 20
449.398924
 30
0.0
 10
281.446448
 20
449.798924
 30
0.0
  0
SPLINE
  5
180
100
AcDbEntity
  8
Layer_1
 62
7
100
AcDbSpline
 70
8
 71
3
 72
8
 73
4
 74
0
 40
0
 40
0
 40
0
 40
0
 40
1
 40
1
 40
1
 40
1
 10
281.446448
 20
449.798924
 30
0.0
 10
271.346448
 20
451.698924
 30
0.0
 10
260.146448
 20
460.698924
 30
0.0
 10
255.046448
 20
470.998924
 30
0.0
  0
SPLINE
  5
181
100
AcDbEntity
  8
Layer_1
 62
7
100
AcDbSpline
 70
8
 71
3
 72
8
 73
4
 74
0
 40
0
 40
0
 40
0
 40
0
 40
1
 40
1
 40
1
 40
1
 10
255.046448
 20
470.998924
 30
0.0
 10
252.846448
 20
475.298924
 30
0.0
 10
252.646448
 20
476.998924
 30
0.0
 10
252.746448
 20
487.798924
 30
0.0
  0
SPLINE
  5
182
100
AcDbEntity
  8
Layer_1
 62
7
100
AcDbSpline
 70
8
 71
3
 72
8
 73
4
 74
0
 40
0
 40
0
 40
0
 40
0
 40
1
 40
1
 40
1
 40
1
 10
252.746448
 20
487.798924
 30
0.0
 10
252.846448
 20
496.098924
 30
0.0
 10
253.546448
 20
501.998924
 30
0.0
 10
254.846448
 20
507.098924
 30
0.0
  0
SPLINE
  5
183
100
AcDbEntity
  8
Layer_1
 62
7
100
AcDbSpline
 70
8
 71
3
 72
8
 73
4
 74
0
 40
0
 40
0
 40
0
 40
0
 40
1
 40
1
 40
1
 40
1
 10
254.846448
 20
507.098924
 30
0.0
 10
255.946448
 20
510.998924
 30
0.0
 10
256.746448
 20
514.298924
 30
0.0
 10
256.746448
 20
514.298924
 30
0.0
  0
SPLINE
  5
184
100
AcDbEntity
  8
Layer_1
 62
7
100
AcDbSpline
 70
8
 71
3
 72
8
 73
4
 74
0
 40
0
 40
0
 40
0
 40
0
 40
1
 40
1
 40
1
 40
1
 10
256.746448
 20
514.298924
 30
0.0
 10
256.646448
 20
514.298924
 30
0.0
 10
253.546448
 20
511.898924
 30
0.0
 10
249.646448
 20
508.898924
 30
0.0
  0
LWPOLYLINE
  5
185
100
AcDbEntity
  8
Layer_1
 62
7
100
AcDbPolyline
 90
2
 70
0
 10
394.446448
 20
521.398924
 30
0.0
 10
394.446448
 20
521.398924
 30
0.0
  0
SPLINE
  5
186
100
AcDbEntity
  8
Layer_1
 62
7
100
AcDbSpline
 70
8
 71
3
 72
8
 73
4
 74
0
 40
0
 40
0
 40
0
 40
0
 40
1
 40
1
 40
1
 40
1
 10
252.246448
 20
503.698924
 30
0.0
 10
251.746448
 20
500.998924
 30
0.0
 10
251.046448
 20
494.098924
 30
0.0
 10
250.646448
 20
488.298924
 30
0.0
  0
SPLINE
  5
187
100
AcDbEntity
  8
Layer_1
 62
7
100
AcDbSpline
 70
8
 71
3
 72
8
 73
4
 74
0
 40
0
 40
0
 40
0
 40
0
 40
1
 40
1
 40
1
 40
1
 10
250.646448
 20
488.298924
 30
0.0
 10
249.946448
 20
477.898924
 30
0.0
 10
249.946448
 20
477.698924
 30
0.0
 10
253.146448
 20
470.998924
 30
0.0
  0
SPLINE
  5
188
100
AcDbEntity
  8
Layer_1
 62
7
100
AcDbSpline
 70
8
 71
3
 72
8
 73
4
 74
0
 40
0
 40
0
 40
0
 40
0
 40
1
 40
1
 40
1
 40
1
 10
253.146448
 20
470.998924
 30
0.0
 10
254.846448
 20
467.298924
 30
0.0
 10
258.446448
 20
461.998924
 30
0.0
 10
261.146448
 20
459.298924
 30
0.0
  0
SPLINE
  5
189
100
AcDbEntity
  8
Layer_1
 62
7
100
AcDbSpline
 70
8
 71
3
 72
8
 73
4
 74
0
 40
0
 40
0
 40
0
 40
0
 40
1
 40
1
 40
1
 40
1
 10
261.146448
 20
459.298924
 30
0.0
 10
265.946448
 20
454.298924
 30
0.0
 10
276.646448
 20
448.298924
 30
0.0
 10
280.546448
 20
448.298924
 30
0.0
  0
SPLINE
  5
18a
100
AcDbEntity
  8
Layer_1
 62
7
100
AcDbSpline
 70
8
 71
3
 72
8
 73
4
 74
0
 40
0
 40
0
 40
0
 40
0
 40
1
 40
1
 40
1
 40
1
 10
280.546448
 20
448.298924
 30
0.0
 10
282.246448
 20
448.298924
 30
0.0
 10
282.146448
 20
447.898924
 30
0.0
 10
279.646448
 20
445.298924
 30
0.0
  0
SPLINE
  5
18b
100
AcDbEntity
  8
Layer_1
 62
7
100
AcDbSpline
 70
8
 71
3
 72
8
 73
4
 74
0
 40
0
 40
0
 40
0
 40
0
 40
1
 40
1
 40
1
 40
1
 10
279.646448
 20
445.298924
 30
0.0
 10
274.846448
 20
440.298924
 30
0.0
 10
269.546448
 20
438.298924
 30
0.0
 10
261.146448
 20
438.298924
 30
0.0
  0
SPLINE
  5
18c
100
AcDbEntity
  8
Layer_1
 62
7
100
AcDbSpline
 70
8
 71
3
 72
8
 73
4
 74
0
 40
0
 40
0
 40
0
 40
0
 40
1
 40
1
 40
1
 40
1
 10
261.146448
 20
438.298924
 30
0.0
 10
255.746448
 20
438.298924
 30
0.0
 10
252.646448
 20
438.898924
 30
0.0
 10
249.446448
 20
440.398924
 30
0.0
  0
SPLINE
  5
18d
100
AcDbEntity
  8
Layer_1
 62
7
100
AcDbSpline
 70
8
 71
3
 72
8
 73
4
 74
0
 40
0
 40
0
 40
0
 40
0
 40
1
 40
1
 40
1
 40
1
 10
249.446448
 20
440.398924
 30
0.0
 10
243.846448
 20
443.098924
 30
0.0
 10
236.946448
 20
450.898924
 30
0.0
 10
232.946448
 20
459.198924
 30
0.0
  0
SPLINE
  5
18e
100
AcDbEntity
  8
Layer_1
 62
7
100
AcDbSpline
 70
8
 71
3
 72
8
 73
4
 74
0
 40
0
 40
0
 40
0
 40
0
 40
1
 40
1
 40
1
 40
1
 10
232.946448
 20
459.198924
 30
0.0
 10
225.346448
 20
474.698924
 30
0.0
 10
230.746448
 20
492.098924
 30
0.0
 10
247.146448
 20
504.798924
 30
0.0
  0
SPLINE
  5
18f
100
AcDbEntity
  8
Layer_1
 62
7
100
AcDbSpline
 70
8
 71
3
 72
8
 73
4
 74
0
 40
0
 40
0
 40
0
 40
0
 40
1
 40
1
 40
1
 40
1
 10
247.146448
 20
504.798924
 30
0.0
 10
250.146448
 20
507.198924
 30
0.0
 10
252.746448
 20
508.998924
 30
0.0
 10
252.946448
 20
508.898924
 30
0.0
  0
SPLINE
  5
190
100
AcDbEntity
  8
Layer_1
 62
7
100
AcDbSpline
 70
8
 71
3
 72
8
 73
4
 74
0
 40
0
 40
0
 40
0
 40
0
 40
1
 40
1
 40
1
 40
1
 10
252.946448
 20
508.898924
 30
0.0
 10
253.046448
 20
508.698924
 30
0.0
 10
252.746448
 20
506.398924
 30
0.0
 10
252.246448
 20
503.698924
 30
0.0
  0
LWPOLYLINE
  5
191
100
AcDbEntity
  8
Layer_1
 62
7
100
AcDbPolyline
 90
2
 70
0
 10
249.646448
 20
508.898924
 30
0.0
 10
249.646448
 20
508.898924
 30
0.0
  0
SPLINE
  5
192
100
AcDbEntity
  8
Layer_1
 62
7
100
AcDbSpline
 70
8
 71
3
 72
8
 73
4
 74
0
 40
0
 40
0
 40
0
 40
0
 40
1
 40
1
 40
1
 40
1
 10
390.646448
 20
488.598924
 30
0.0
 10
377.646448
 20
485.698924
 30
0.0
 10
365.746448
 20
478.798924
 30
0.0
 10
361.046448
 20
471.598924
 30
0.0
  0
SPLINE
  5
193
100
AcDbEntity
  8
Layer_1
 62
7
100
AcDbSpline
 70
8
 71
3
 72
8
 73
4
 74
0
 40
0
 40
0
 40
0
 40
0
 40
1
 40
1
 40
1
 40
1
 10
361.046448
 20
471.598924
 30
0.0
 10
356.646448
 20
464.498924
 30
0.0
 10
353.746448
 20
454.298924
 30
0.0
 10
354.446448
 20
447.398924
 30
0.0
  0
SPLINE
  5
194
100
AcDbEntity
  8
Layer_1
 62
7
100
AcDbSpline
 70
8
 71
3
 72
8
 73
4
 74
0
 40
0
 40
0
 40
0
 40
0
 40
1
 40
1
 40
1
 40
1
 10
354.446448
 20
447.398924
 30
0.0
 10
354.846448
 20
442.398924
 30
0.0
 10
360.846448
 20
425.298924
 30
0.0
 10
362.146448
 20
425.298924
 30
0.0
  0
SPLINE
  5
195
100
AcDbEntity
  8
Layer_1
 62
7
100
AcDbSpline
 70
8
 71
3
 72
8
 73
4
 74
0
 40
0
 40
0
 40
0
 40
0
 40
1
 40
1
 40
1
 40
1
 10
362.146448
 20
425.298924
 30
0.0
 10
362.446448
 20
425.298924
 30
0.0
 10
364.246448
 20
427.598924
 30
0.0
 10
366.146448
 20
430.498924
 30
0.0
  0
SPLINE
  5
196
100
AcDbEntity
  8
Layer_1
 62
7
100
AcDbSpline
 70
8
 71
3
 72
8
 73
4
 74
0
 40
0
 40
0
 40
0
 40
0
 40
1
 40
1
 40
1
 40
1
 10
366.146448
 20
430.498924
 30
0.0
 10
371.946448
 20
438.998924
 30
0.0
 10
382.846448
 20
446.098924
 30
0.0
 10
394.346448
 20
448.798924
 30
0.0
  0
SPLINE
  5
197
100
AcDbEntity
  8
Layer_1
 62
7
100
AcDbSpline
 70
8
 71
3
 72
8
 73
4
 74
0
 40
0
 40
0
 40
0
 40
0
 40
1
 40
1
 40
1
 40
1
 10
394.346448
 20
448.798924
 30
0.0
 10
401.346448
 20
450.398924
 30
0.0
 10
421.746448
 20
450.798924
 30
0.0
 10
422.646448
 20
449.298924
 30
0.0
  0
SPLINE
  5
198
100
AcDbEntity
  8
Layer_1
 62
7
100
AcDbSpline
 70
8
 71
3
 72
8
 73
4
 74
0
 40
0
 40
0
 40
0
 40
0
 40
1
 40
1
 40
1
 40
1
 10
422.646448
 20
449.298924
 30
0.0
 10
422.946448
 20
448.798924
 30
0.0
 10
426.746448
 20
446.498924
 30
0.0
 10
431.146448
 20
444.198924
 30
0.0
  0
SPLINE
  5
199
100
AcDbEntity
  8
Layer_1
 62
7
100
AcDbSpline
 70
8
 71
3
 72
8
 73
4
 74
0
 40
0
 40
0
 40
0
 40
0
 40
1
 40
1
 40
1
 40
1
 10
431.146448
 20
444.198924
 30
0.0
 10
441.246448
 20
438.998924
 30
0.0
 10
452.046448
 20
429.698924
 30
0.0
 10
459.546448
 20
419.998924
 30
0.0
  0
SPLINE
  5
19a
100
AcDbEntity
  8
Layer_1
 62
7
100
AcDbSpline
 70
8
 71
3
 72
8
 73
4
 74
0
 40
0
 40
0
 40
0
 40
0
 40
1
 40
1
 40
1
 40
1
 10
459.546448
 20
419.998924
 30
0.0
 10
462.746448
 20
415.798924
 30
0.0
 10
465.846448
 20
412.298924
 30
0.0
 10
466.346448
 20
412.298924
 30
0.0
  0
SPLINE
  5
19b
100
AcDbEntity
  8
Layer_1
 62
7
100
AcDbSpline
 70
8
 71
3
 72
8
 73
4
 74
0
 40
0
 40
0
 40
0
 40
0
 40
1
 40
1
 40
1
 40
1
 10
466.346448
 20
412.298924
 30
0.0
 10
466.846448
 20
412.298924
 30
0.0
 10
466.946448
 20
414.998924
 30
0.0
 10
466.646448
 20
418.598924
 30
0.0
  0
SPLINE
  5
19c
100
AcDbEntity
  8
Layer_1
 62
7
100
AcDbSpline
 70
8
 71
3
 72
8
 73
4
 74
0
 40
0
 40
0
 40
0
 40
0
 40
1
 40
1
 40
1
 40
1
 10
466.646448
 20
418.598924
 30
0.0
 10
461.846448
 20
466.298924
 30
0.0
 10
440.746448
 20
489.598924
 30
0.0
 10
402.746448
 20
489.198924
 30
0.0
  0
SPLINE
  5
19d
100
AcDbEntity
  8
Layer_1
 62
7
100
AcDbSpline
 70
8
 71
3
 72
8
 73
4
 74
0
 40
0
 40
0
 40
0
 40
0
 40
1
 40
1
 40
1
 40
1
 10
402.746448
 20
489.198924
 30
0.0
 10
397.146448
 20
489.098924
 30
0.0
 10
391.746448
 20
488.898924
 30
0.0
 10
390.646448
 20
488.598924
 30
0.0
  0
LWPOLYLINE
  5
19e
100
AcDbEntity
  8
Layer_1
 62
7
100
AcDbPolyline
 90
2
 70
0
 10
252.246448
 20
503.698924
 30
0.0
 10
252.246448
 20
503.698924
 30
0.0
  0
SPLINE
  5
19f
100
AcDbEntity
  8
Layer_1
 62
7
100
AcDbSpline
 70
8
 71
3
 72
8
 73
4
 74
0
 40
0
 40
0
 40
0
 40
0
 40
1
 40
1
 40
1
 40
1
 10
418.346448
 20
486.198924
 30
0.0
 10
439.146448
 20
481.798924
 30
0.0
 10
453.546448
 20
466.698924
 30
0.0
 10
460.646448
 20
441.698924
 30
0.0
  0
SPLINE
  5
1a0
100
AcDbEntity
  8
Layer_1
 62
7
100
AcDbSpline
 70
8
 71
3
 72
8
 73
4
 74
0
 40
0
 40
0
 40
0
 40
0
 40
1
 40
1
 40
1
 40
1
 10
460.646448
 20
441.698924
 30
0.0
 10
462.946448
 20
433.498924
 30
0.0
 10
465.346448
 20
418.298924
 30
0.0
 10
464.546448
 20
417.398924
 30
0.0
  0
SPLINE
  5
1a1
100
AcDbEntity
  8
Layer_1
 62
7
100
AcDbSpline
 70
8
 71
3
 72
8
 73
4
 74
0
 40
0
 40
0
 40
0
 40
0
 40
1
 40
1
 40
1
 40
1
 10
464.546448
 20
417.398924
 30
0.0
 10
464.346448
 20
417.198924
 30
0.0
 10
463.146448
 20
418.298924
 30
0.0
 10
461.946448
 20
419.898924
 30
0.0
  0
SPLINE
  5
1a2
100
AcDbEntity
  8
Layer_1
 62
7
100
AcDbSpline
 70
8
 71
3
 72
8
 73
4
 74
0
 40
0
 40
0
 40
0
 40
0
 40
1
 40
1
 40
1
 40
1
 10
461.946448
 20
419.898924
 30
0.0
 10
453.646448
 20
430.698924
 30
0.0
 10
441.546448
 20
441.098924
 30
0.0
 10
431.146448
 20
446.298924
 30
0.0
  0
SPLINE
  5
1a3
100
AcDbEntity
  8
Layer_1
 62
7
100
AcDbSpline
 70
8
 71
3
 72
8
 73
4
 74
0
 40
0
 40
0
 40
0
 40
0
 40
1
 40
1
 40
1
 40
1
 10
431.146448
 20
446.298924
 30
0.0
 10
428.646448
 20
447.498924
 30
0.0
 10
425.746448
 20
449.398924
 30
0.0
 10
424.546448
 20
450.398924
 30
0.0
  0
SPLINE
  5
1a4
100
AcDbEntity
  8
Layer_1
 62
7
100
AcDbSpline
 70
8
 71
3
 72
8
 73
4
 74
0
 40
0
 40
0
 40
0
 40
0
 40
1
 40
1
 40
1
 40
1
 10
424.546448
 20
450.398924
 30
0.0
 10
422.646448
 20
452.198924
 30
0.0
 10
421.246448
 20
452.298924
 30
0.0
 10
409.046448
 20
451.898924
 30
0.0
  0
SPLINE
  5
1a5
100
AcDbEntity
  8
Layer_1
 62
7
100
AcDbSpline
 70
8
 71
3
 72
8
 73
4
 74
0
 40
0
 40
0
 40
0
 40
0
 40
1
 40
1
 40
1
 40
1
 10
409.046448
 20
451.898924
 30
0.0
 10
388.946448
 20
451.298924
 30
0.0
 10
378.446448
 20
446.998924
 30
0.0
 10
367.446448
 20
434.898924
 30
0.0
  0
LWPOLYLINE
  5
1a6
100
AcDbEntity
  8
Layer_1
 62
7
100
AcDbPolyline
 90
2
 70
0
 10
390.646448
 20
488.598924
 30
0.0
 10
390.646448
 20
488.598924
 30
0.0
  0
SPLINE
  5
1a7
100
AcDbEntity
  8
Layer_1
 62
7
100
AcDbSpline
 70
8
 71
3
 72
8
 73
4
 74
0
 40
0
 40
0
 40
0
 40
0
 40
1
 40
1
 40
1
 40
1
 10
360.846448
 20
431.998924
 30
0.0
 10
357.446448
 20
438.698924
 30
0.0
 10
355.846448
 20
445.598924
 30
0.0
 10
356.446448
 20
451.698924
 30
0.0
  0
SPLINE
  5
1a8
100
AcDbEntity
  8
Layer_1
 62
7
100
AcDbSpline
 70
8
 71
3
 72
8
 73
4
 74
0
 40
0
 40
0
 40
0
 40
0
 40
1
 40
1
 40
1
 40
1
 10
356.446448
 20
451.698924
 30
0.0
 10
357.846448
 20
468.798924
 30
0.0
 10
367.746448
 20
480.298924
 30
0.0
 10
385.646448
 20
485.398924
 30
0.0
  0
SPLINE
  5
1a9
100
AcDbEntity
  8
Layer_1
 62
7
100
AcDbSpline
 70
8
 71
3
 72
8
 73
4
 74
0
 40
0
 40
0
 40
0
 40
0
 40
1
 40
1
 40
1
 40
1
 10
385.646448
 20
485.398924
 30
0.0
 10
392.746448
 20
487.498924
 30
0.0
 10
410.346448
 20
487.898924
 30
0.0
 10
418.346448
 20
486.198924
 30
0.0
  0
LWPOLYLINE
  5
1aa
100
AcDbEntity
  8
Layer_1
 62
7
100
AcDbPolyline
 90
3
 70
0
 10
367.446448
 20
434.898924
 30
0.0
 10
362.246448
 20
429.198924
 30
0.0
 10
360.846448
 20
431.998924
 30
0.0
  0
SPLINE
  5
1ab
100
AcDbEntity
  8
Layer_1
 62
7
100
AcDbSpline
 70
8
 71
3
 72
8
 73
4
 74
0
 40
0
 40
0
 40
0
 40
0
 40
1
 40
1
 40
1
 40
1
 10
221.346448
 20
462.098924
 30
0.0
 10
217.746448
 20
453.498924
 30
0.0
 10
216.246448
 20
447.398924
 30
0.0
 10
216.146448
 20
441.998924
 30
0.0
  0
SPLINE
  5
1ac
100
AcDbEntity
  8
Layer_1
 62
7
100
AcDbSpline
 70
8
 71
3
 72
8
 73
4
 74
0
 40
0
 40
0
 40
0
 40
0
 40
1
 40
1
 40
1
 40
1
 10
216.146448
 20
441.998924
 30
0.0
 10
216.146448
 20
436.898924
 30
0.0
 10
218.646448
 20
428.298924
 30
0.0
 10
221.446448
 20
424.098924
 30
0.0
  0
SPLINE
  5
1ad
100
AcDbEntity
  8
Layer_1
 62
7
100
AcDbSpline
 70
8
 71
3
 72
8
 73
4
 74
0
 40
0
 40
0
 40
0
 40
0
 40
1
 40
1
 40
1
 40
1
 10
221.446448
 20
424.098924
 30
0.0
 10
224.646448
 20
419.298924
 30
0.0
 10
234.846448
 20
412.898924
 30
0.0
 10
242.446448
 20
410.798924
 30
0.0
  0
SPLINE
  5
1ae
100
AcDbEntity
  8
Layer_1
 62
7
100
AcDbSpline
 70
8
 71
3
 72
8
 73
4
 74
0
 40
0
 40
0
 40
0
 40
0
 40
1
 40
1
 40
1
 40
1
 10
242.446448
 20
410.798924
 30
0.0
 10
250.546448
 20
408.598924
 30
0.0
 10
255.446448
 20
409.198924
 30
0.0
 10
264.046448
 20
413.598924
 30
0.0
  0
SPLINE
  5
1af
100
AcDbEntity
  8
Layer_1
 62
7
100
AcDbSpline
 70
8
 71
3
 72
8
 73
4
 74
0
 40
0
 40
0
 40
0
 40
0
 40
1
 40
1
 40
1
 40
1
 10
264.046448
 20
413.598924
 30
0.0
 10
271.246448
 20
417.198924
 30
0.0
 10
274.046448
 20
421.098924
 30
0.0
 10
274.946448
 20
428.898924
 30
0.0
  0
SPLINE
  5
1b0
100
AcDbEntity
  8
Layer_1
 62
7
100
AcDbSpline
 70
8
 71
3
 72
8
 73
4
 74
0
 40
0
 40
0
 40
0
 40
0
 40
1
 40
1
 40
1
 40
1
 10
274.946448
 20
428.898924
 30
0.0
 10
275.446448
 20
433.698924
 30
0.0
 10
275.346448
 20
433.798924
 30
0.0
 10
270.146448
 20
432.298924
 30
0.0
  0
SPLINE
  5
1b1
100
AcDbEntity
  8
Layer_1
 62
7
100
AcDbSpline
 70
8
 71
3
 72
8
 73
4
 74
0
 40
0
 40
0
 40
0
 40
0
 40
1
 40
1
 40
1
 40
1
 10
270.146448
 20
432.298924
 30
0.0
 10
264.846448
 20
430.698924
 30
0.0
 10
255.246448
 20
430.998924
 30
0.0
 10
250.146448
 20
432.798924
 30
0.0
  0
SPLINE
  5
1b2
100
AcDbEntity
  8
Layer_1
 62
7
100
AcDbSpline
 70
8
 71
3
 72
8
 73
4
 74
0
 40
0
 40
0
 40
0
 40
0
 40
1
 40
1
 40
1
 40
1
 10
250.146448
 20
432.798924
 30
0.0
 10
241.546448
 20
435.798924
 30
0.0
 10
236.946448
 20
439.798924
 30
0.0
 10
232.746448
 20
448.098924
 30
0.0
  0
SPLINE
  5
1b3
100
AcDbEntity
  8
Layer_1
 62
7
100
AcDbSpline
 70
8
 71
3
 72
8
 73
4
 74
0
 40
0
 40
0
 40
0
 40
0
 40
1
 40
1
 40
1
 40
1
 10
232.746448
 20
448.098924
 30
0.0
 10
230.546448
 20
452.398924
 30
0.0
 10
227.846448
 20
458.898924
 30
0.0
 10
226.646448
 20
462.698924
 30
0.0
  0
LWPOLYLINE
  5
1b4
100
AcDbEntity
  8
Layer_1
 62
7
100
AcDbPolyline
 90
2
 70
0
 10
418.346448
 20
486.198924
 30
0.0
 10
418.346448
 20
486.198924
 30
0.0
  0
SPLINE
  5
1b5
100
AcDbEntity
  8
Layer_1
 62
7
100
AcDbSpline
 70
8
 71
3
 72
8
 73
4
 74
0
 40
0
 40
0
 40
0
 40
0
 40
1
 40
1
 40
1
 40
1
 10
225.146448
 20
460.898924
 30
0.0
 10
225.146448
 20
460.098924
 30
0.0
 10
227.346448
 20
454.998924
 30
0.0
 10
230.146448
 20
449.498924
 30
0.0
  0
SPLINE
  5
1b6
100
AcDbEntity
  8
Layer_1
 62
7
100
AcDbSpline
 70
8
 71
3
 72
8
 73
4
 74
0
 40
0
 40
0
 40
0
 40
0
 40
1
 40
1
 40
1
 40
1
 10
230.146448
 20
449.498924
 30
0.0
 10
234.746448
 20
440.398924
 30
0.0
 10
235.646448
 20
439.098924
 30
0.0
 10
241.046448
 20
435.598924
 30
0.0
  0
SPLINE
  5
1b7
100
AcDbEntity
  8
Layer_1
 62
7
100
AcDbSpline
 70
8
 71
3
 72
8
 73
4
 74
0
 40
0
 40
0
 40
0
 40
0
 40
1
 40
1
 40
1
 40
1
 10
241.046448
 20
435.598924
 30
0.0
 10
244.246448
 20
433.398924
 30
0.0
 10
248.946448
 20
431.098924
 30
0.0
 10
251.446448
 20
430.398924
 30
0.0
  0
SPLINE
  5
1b8
100
AcDbEntity
  8
Layer_1
 62
7
100
AcDbSpline
 70
8
 71
3
 72
8
 73
4
 74
0
 40
0
 40
0
 40
0
 40
0
 40
1
 40
1
 40
1
 40
1
 10
251.446448
 20
430.398924
 30
0.0
 10
256.146448
 20
428.998924
 30
0.0
 10
268.046448
 20
429.298924
 30
0.0
 10
271.546448
 20
430.798924
 30
0.0
  0
SPLINE
  5
1b9
100
AcDbEntity
  8
Layer_1
 62
7
100
AcDbSpline
 70
8
 71
3
 72
8
 73
4
 74
0
 40
0
 40
0
 40
0
 40
0
 40
1
 40
1
 40
1
 40
1
 10
271.546448
 20
430.798924
 30
0.0
 10
273.346448
 20
431.598924
 30
0.0
 10
273.446448
 20
431.298924
 30
0.0
 10
272.846448
 20
427.298924
 30
0.0
  0
SPLINE
  5
1ba
100
AcDbEntity
  8
Layer_1
 62
7
100
AcDbSpline
 70
8
 71
3
 72
8
 73
4
 74
0
 40
0
 40
0
 40
0
 40
0
 40
1
 40
1
 40
1
 40
1
 10
272.846448
 20
427.298924
 30
0.0
 10
272.046448
 20
421.298924
 30
0.0
 10
269.546448
 20
418.298924
 30
0.0
 10
262.646448
 20
414.798924
 30
0.0
  0
SPLINE
  5
1bb
100
AcDbEntity
  8
Layer_1
 62
7
100
AcDbSpline
 70
8
 71
3
 72
8
 73
4
 74
0
 40
0
 40
0
 40
0
 40
0
 40
1
 40
1
 40
1
 40
1
 10
262.646448
 20
414.798924
 30
0.0
 10
254.046448
 20
410.598924
 30
0.0
 10
245.246448
 20
410.598924
 30
0.0
 10
236.046448
 20
415.098924
 30
0.0
  0
SPLINE
  5
1bc
100
AcDbEntity
  8
Layer_1
 62
7
100
AcDbSpline
 70
8
 71
3
 72
8
 73
4
 74
0
 40
0
 40
0
 40
0
 40
0
 40
1
 40
1
 40
1
 40
1
 10
236.046448
 20
415.098924
 30
0.0
 10
224.246448
 20
420.798924
 30
0.0
 10
218.146448
 20
430.098924
 30
0.0
 10
218.146448
 20
442.498924
 30
0.0
  0
SPLINE
  5
1bd
100
AcDbEntity
  8
Layer_1
 62
7
100
AcDbSpline
 70
8
 71
3
 72
8
 73
4
 74
0
 40
0
 40
0
 40
0
 40
0
 40
1
 40
1
 40
1
 40
1
 10
218.146448
 20
442.498924
 30
0.0
 10
218.146448
 20
447.898924
 30
0.0
 10
222.946448
 20
463.598924
 30
0.0
 10
224.246448
 20
462.698924
 30
0.0
  0
SPLINE
  5
1be
100
AcDbEntity
  8
Layer_1
 62
7
100
AcDbSpline
 70
8
 71
3
 72
8
 73
4
 74
0
 40
0
 40
0
 40
0
 40
0
 40
1
 40
1
 40
1
 40
1
 10
224.246448
 20
462.698924
 30
0.0
 10
224.746448
 20
462.398924
 30
0.0
 10
225.146448
 20
461.598924
 30
0.0
 10
225.146448
 20
460.898924
 30
0.0
  0
LWPOLYLINE
  5
1bf
100
AcDbEntity
  8
Layer_1
 62
7
100
AcDbPolyline
 90
4
 70
0
 10
226.646448
 20
462.698924
 30
0.0
 10
224.446448
 20
469.498924
 30
0.0
 10
221.346448
 20
462.098924
 30
0.0
 10
221.346448
 20
462.098924
 30
0.0
  0
SPLINE
  5
1c0
100
AcDbEntity
  8
Layer_1
 62
7
100
AcDbSpline
 70
8
 71
3
 72
8
 73
4
 74
0
 40
0
 40
0
 40
0
 40
0
 40
1
 40
1
 40
1
 40
1
 10
308.446448
 20
457.298924
 30
0.0
 10
303.046448
 20
453.998924
 30
0.0
 10
300.446448
 20
446.298924
 30
0.0
 10
303.146448
 20
441.198924
 30
0.0
  0
SPLINE
  5
1c1
100
AcDbEntity
  8
Layer_1
 62
7
100
AcDbSpline
 70
8
 71
3
 72
8
 73
4
 74
0
 40
0
 40
0
 40
0
 40
0
 40
1
 40
1
 40
1
 40
1
 10
303.146448
 20
441.198924
 30
0.0
 10
303.946448
 20
439.698924
 30
0.0
 10
308.946448
 20
436.298924
 30
0.0
 10
310.346448
 20
436.298924
 30
0.0
  0
SPLINE
  5
1c2
100
AcDbEntity
  8
Layer_1
 62
7
100
AcDbSpline
 70
8
 71
3
 72
8
 73
4
 74
0
 40
0
 40
0
 40
0
 40
0
 40
1
 40
1
 40
1
 40
1
 10
310.346448
 20
436.298924
 30
0.0
 10
310.546448
 20
436.298924
 30
0.0
 10
310.646448
 20
438.798924
 30
0.0
 10
310.646448
 20
441.898924
 30
0.0
  0
SPLINE
  5
1c3
100
AcDbEntity
  8
Layer_1
 62
7
100
AcDbSpline
 70
8
 71
3
 72
8
 73
4
 74
0
 40
0
 40
0
 40
0
 40
0
 40
1
 40
1
 40
1
 40
1
 10
310.646448
 20
441.898924
 30
0.0
 10
310.646448
 20
447.198924
 30
0.0
 10
310.946448
 20
447.698924
 30
0.0
 10
314.346448
 20
450.698924
 30
0.0
  0
SPLINE
  5
1c4
100
AcDbEntity
  8
Layer_1
 62
7
100
AcDbSpline
 70
8
 71
3
 72
8
 73
4
 74
0
 40
0
 40
0
 40
0
 40
0
 40
1
 40
1
 40
1
 40
1
 10
314.346448
 20
450.698924
 30
0.0
 10
316.446448
 20
452.498924
 30
0.0
 10
319.946448
 20
454.598924
 30
0.0
 10
322.246448
 20
455.298924
 30
0.0
  0
LWPOLYLINE
  5
1c5
100
AcDbEntity
  8
Layer_1
 62
7
100
AcDbPolyline
 90
2
 70
0
 10
225.146448
 20
460.898924
 30
0.0
 10
225.146448
 20
460.898924
 30
0.0
  0
SPLINE
  5
1c6
100
AcDbEntity
  8
Layer_1
 62
7
100
AcDbSpline
 70
8
 71
3
 72
8
 73
4
 74
0
 40
0
 40
0
 40
0
 40
0
 40
1
 40
1
 40
1
 40
1
 10
323.546448
 20
457.998924
 30
0.0
 10
319.146448
 20
459.898924
 30
0.0
 10
312.146448
 20
459.598924
 30
0.0
 10
308.446448
 20
457.298924
 30
0.0
  0
LWPOLYLINE
  5
1c7
100
AcDbEntity
  8
Layer_1
 62
7
100
AcDbPolyline
 90
3
 70
0
 10
322.246448
 20
455.298924
 30
0.0
 10
326.446448
 20
456.698924
 30
0.0
 10
323.546448
 20
457.998924
 30
0.0
  0
SPLINE
  5
1c8
100
AcDbEntity
  8
Layer_1
 62
7
100
AcDbSpline
 70
8
 71
3
 72
8
 73
4
 74
0
 40
0
 40
0
 40
0
 40
0
 40
1
 40
1
 40
1
 40
1
 10
319.646448
 20
456.298924
 30
0.0
 10
319.346448
 20
455.798924
 30
0.0
 10
318.446448
 20
455.298924
 30
0.0
 10
317.746448
 20
455.298924
 30
0.0
  0
SPLINE
  5
1c9
100
AcDbEntity
  8
Layer_1
 62
7
100
AcDbSpline
 70
8
 71
3
 72
8
 73
4
 74
0
 40
0
 40
0
 40
0
 40
0
 40
1
 40
1
 40
1
 40
1
 10
317.746448
 20
455.298924
 30
0.0
 10
316.046448
 20
455.298924
 30
0.0
 10
310.146448
 20
449.298924
 30
0.0
 10
309.046448
 20
446.498924
 30
0.0
  0
SPLINE
  5
1ca
100
AcDbEntity
  8
Layer_1
 62
7
100
AcDbSpline
 70
8
 71
3
 72
8
 73
4
 74
0
 40
0
 40
0
 40
0
 40
0
 40
1
 40
1
 40
1
 40
1
 10
309.046448
 20
446.498924
 30
0.0
 10
308.546448
 20
445.198924
 30
0.0
 10
308.146448
 20
442.998924
 30
0.0
 10
308.146448
 20
441.598924
 30
0.0
  0
SPLINE
  5
1cb
100
AcDbEntity
  8
Layer_1
 62
7
100
AcDbSpline
 70
8
 71
3
 72
8
 73
4
 74
0
 40
0
 40
0
 40
0
 40
0
 40
1
 40
1
 40
1
 40
1
 10
308.146448
 20
441.598924
 30
0.0
 10
308.146448
 20
439.398924
 30
0.0
 10
307.946448
 20
439.198924
 30
0.0
 10
306.546448
 20
440.298924
 30
0.0
  0
SPLINE
  5
1cc
100
AcDbEntity
  8
Layer_1
 62
7
100
AcDbSpline
 70
8
 71
3
 72
8
 73
4
 74
0
 40
0
 40
0
 40
0
 40
0
 40
1
 40
1
 40
1
 40
1
 10
306.546448
 20
440.298924
 30
0.0
 10
303.646448
 20
442.798924
 30
0.0
 10
302.946448
 20
445.198924
 30
0.0
 10
304.146448
 20
448.798924
 30
0.0
  0
SPLINE
  5
1cd
100
AcDbEntity
  8
Layer_1
 62
7
100
AcDbSpline
 70
8
 71
3
 72
8
 73
4
 74
0
 40
0
 40
0
 40
0
 40
0
 40
1
 40
1
 40
1
 40
1
 10
304.146448
 20
448.798924
 30
0.0
 10
305.846448
 20
453.998924
 30
0.0
 10
310.346448
 20
457.298924
 30
0.0
 10
315.746448
 20
457.298924
 30
0.0
  0
SPLINE
  5
1ce
100
AcDbEntity
  8
Layer_1
 62
7
100
AcDbSpline
 70
8
 71
3
 72
8
 73
4
 74
0
 40
0
 40
0
 40
0
 40
0
 40
1
 40
1
 40
1
 40
1
 10
315.746448
 20
457.298924
 30
0.0
 10
318.546448
 20
457.298924
 30
0.0
 10
320.046448
 20
456.898924
 30
0.0
 10
319.646448
 20
456.298924
 30
0.0
  0
LWPOLYLINE
  5
1cf
100
AcDbEntity
  8
Layer_1
 62
7
100
AcDbPolyline
 90
2
 70
0
 10
308.446448
 20
457.298924
 30
0.0
 10
308.446448
 20
457.298924
 30
0.0
  0
SPLINE
  5
1d0
100
AcDbEntity
  8
Layer_1
 62
7
100
AcDbSpline
 70
8
 71
3
 72
8
 73
4
 74
0
 40
0
 40
0
 40
0
 40
0
 40
1
 40
1
 40
1
 40
1
 10
297.546448
 20
454.398924
 30
0.0
 10
291.946448
 20
450.998924
 30
0.0
 10
289.846448
 20
447.398924
 30
0.0
 10
290.446448
 20
441.998924
 30
0.0
  0
SPLINE
  5
1d1
100
AcDbEntity
  8
Layer_1
 62
7
100
AcDbSpline
 70
8
 71
3
 72
8
 73
4
 74
0
 40
0
 40
0
 40
0
 40
0
 40
1
 40
1
 40
1
 40
1
 10
290.446448
 20
441.998924
 30
0.0
 10
290.946448
 20
435.998924
 30
0.0
 10
294.146448
 20
432.298924
 30
0.0
 10
298.646448
 20
432.298924
 30
0.0
  0
SPLINE
  5
1d2
100
AcDbEntity
  8
Layer_1
 62
7
100
AcDbSpline
 70
8
 71
3
 72
8
 73
4
 74
0
 40
0
 40
0
 40
0
 40
0
 40
1
 40
1
 40
1
 40
1
 10
298.646448
 20
432.298924
 30
0.0
 10
301.546448
 20
432.298924
 30
0.0
 10
307.146448
 20
435.198924
 30
0.0
 10
304.346448
 20
435.298924
 30
0.0
  0
SPLINE
  5
1d3
100
AcDbEntity
  8
Layer_1
 62
7
100
AcDbSpline
 70
8
 71
3
 72
8
 73
4
 74
0
 40
0
 40
0
 40
0
 40
0
 40
1
 40
1
 40
1
 40
1
 10
304.346448
 20
435.298924
 30
0.0
 10
303.646448
 20
435.298924
 30
0.0
 10
301.946448
 20
436.398924
 30
0.0
 10
300.646448
 20
437.798924
 30
0.0
  0
SPLINE
  5
1d4
100
AcDbEntity
  8
Layer_1
 62
7
100
AcDbSpline
 70
8
 71
3
 72
8
 73
4
 74
0
 40
0
 40
0
 40
0
 40
0
 40
1
 40
1
 40
1
 40
1
 10
300.646448
 20
437.798924
 30
0.0
 10
297.746448
 20
440.598924
 30
0.0
 10
297.346448
 20
445.798924
 30
0.0
 10
299.646448
 20
452.198924
 30
0.0
  0
SPLINE
  5
1d5
100
AcDbEntity
  8
Layer_1
 62
7
100
AcDbSpline
 70
8
 71
3
 72
8
 73
4
 74
0
 40
0
 40
0
 40
0
 40
0
 40
1
 40
1
 40
1
 40
1
 10
299.646448
 20
452.198924
 30
0.0
 10
300.446448
 20
454.398924
 30
0.0
 10
300.946448
 20
456.298924
 30
0.0
 10
300.846448
 20
456.298924
 30
0.0
  0
SPLINE
  5
1d6
100
AcDbEntity
  8
Layer_1
 62
7
100
AcDbSpline
 70
8
 71
3
 72
8
 73
4
 74
0
 40
0
 40
0
 40
0
 40
0
 40
1
 40
1
 40
1
 40
1
 10
300.846448
 20
456.298924
 30
0.0
 10
300.746448
 20
456.298924
 30
0.0
 10
299.246448
 20
455.398924
 30
0.0
 10
297.546448
 20
454.398924
 30
0.0
  0
LWPOLYLINE
  5
1d7
100
AcDbEntity
  8
Layer_1
 62
7
100
AcDbPolyline
 90
2
 70
0
 10
319.646448
 20
456.298924
 30
0.0
 10
319.646448
 20
456.298924
 30
0.0
  0
SPLINE
  5
1d8
100
AcDbEntity
  8
Layer_1
 62
7
100
AcDbSpline
 70
8
 71
3
 72
8
 73
4
 74
0
 40
0
 40
0
 40
0
 40
0
 40
1
 40
1
 40
1
 40
1
 10
296.646448
 20
445.398924
 30
0.0
 10
296.646448
 20
440.498924
 30
0.0
 10
297.046448
 20
438.998924
 30
0.0
 10
299.046448
 20
436.898924
 30
0.0
  0
LWPOLYLINE
  5
1d9
100
AcDbEntity
  8
Layer_1
 62
7
100
AcDbPolyline
 90
2
 70
0
 10
297.546448
 20
454.398924
 30
0.0
 10
297.546448
 20
454.398924
 30
0.0
  0
SPLINE
  5
1da
100
AcDbEntity
  8
Layer_1
 62
7
100
AcDbSpline
 70
8
 71
3
 72
8
 73
4
 74
0
 40
0
 40
0
 40
0
 40
0
 40
1
 40
1
 40
1
 40
1
 10
299.046448
 20
434.298924
 30
0.0
 10
294.746448
 20
434.298924
 30
0.0
 10
292.146448
 20
437.698924
 30
0.0
 10
292.146448
 20
443.298924
 30
0.0
  0
SPLINE
  5
1db
100
AcDbEntity
  8
Layer_1
 62
7
100
AcDbSpline
 70
8
 71
3
 72
8
 73
4
 74
0
 40
0
 40
0
 40
0
 40
0
 40
1
 40
1
 40
1
 40
1
 10
292.146448
 20
443.298924
 30
0.0
 10
292.146448
 20
446.198924
 30
0.0
 10
294.646448
 20
451.298924
 30
0.0
 10
296.046448
 20
451.298924
 30
0.0
  0
SPLINE
  5
1dc
100
AcDbEntity
  8
Layer_1
 62
7
100
AcDbSpline
 70
8
 71
3
 72
8
 73
4
 74
0
 40
0
 40
0
 40
0
 40
0
 40
1
 40
1
 40
1
 40
1
 10
296.046448
 20
451.298924
 30
0.0
 10
296.346448
 20
451.298924
 30
0.0
 10
296.646448
 20
448.598924
 30
0.0
 10
296.646448
 20
445.398924
 30
0.0
  0
LWPOLYLINE
  5
1dd
100
AcDbEntity
  8
Layer_1
 62
7
100
AcDbPolyline
 90
3
 70
0
 10
299.046448
 20
436.898924
 30
0.0
 10
301.446448
 20
434.298924
 30
0.0
 10
299.046448
 20
434.298924
 30
0.0
  0
SPLINE
  5
1de
100
AcDbEntity
  8
Layer_1
 62
7
100
AcDbSpline
 70
8
 71
3
 72
8
 73
4
 74
0
 40
0
 40
0
 40
0
 40
0
 40
1
 40
1
 40
1
 40
1
 10
322.846448
 20
452.198924
 30
0.0
 10
318.846448
 20
450.098924
 30
0.0
 10
315.146448
 20
445.098924
 30
0.0
 10
315.146448
 20
441.798924
 30
0.0
  0
SPLINE
  5
1df
100
AcDbEntity
  8
Layer_1
 62
7
100
AcDbSpline
 70
8
 71
3
 72
8
 73
4
 74
0
 40
0
 40
0
 40
0
 40
0
 40
1
 40
1
 40
1
 40
1
 10
315.146448
 20
441.798924
 30
0.0
 10
315.146448
 20
439.298924
 30
0.0
 10
318.446448
 20
432.998924
 30
0.0
 10
319.946448
 20
432.498924
 30
0.0
  0
SPLINE
  5
1e0
100
AcDbEntity
  8
Layer_1
 62
7
100
AcDbSpline
 70
8
 71
3
 72
8
 73
4
 74
0
 40
0
 40
0
 40
0
 40
0
 40
1
 40
1
 40
1
 40
1
 10
319.946448
 20
432.498924
 30
0.0
 10
320.646448
 20
432.298924
 30
0.0
 10
321.146448
 20
432.898924
 30
0.0
 10
321.146448
 20
433.798924
 30
0.0
  0
SPLINE
  5
1e1
100
AcDbEntity
  8
Layer_1
 62
7
100
AcDbSpline
 70
8
 71
3
 72
8
 73
4
 74
0
 40
0
 40
0
 40
0
 40
0
 40
1
 40
1
 40
1
 40
1
 10
321.146448
 20
433.798924
 30
0.0
 10
321.146448
 20
436.998924
 30
0.0
 10
324.646448
 20
441.398924
 30
0.0
 10
328.946448
 20
443.398924
 30
0.0
  0
SPLINE
  5
1e2
100
AcDbEntity
  8
Layer_1
 62
7
100
AcDbSpline
 70
8
 71
3
 72
8
 73
4
 74
0
 40
0
 40
0
 40
0
 40
0
 40
1
 40
1
 40
1
 40
1
 10
328.946448
 20
443.398924
 30
0.0
 10
332.546448
 20
445.198924
 30
0.0
 10
334.546448
 20
445.498924
 30
0.0
 10
340.246448
 20
445.098924
 30
0.0
  0
LWPOLYLINE
  5
1e3
100
AcDbEntity
  8
Layer_1
 62
7
100
AcDbPolyline
 90
2
 70
0
 10
296.646448
 20
445.398924
 30
0.0
 10
296.646448
 20
445.398924
 30
0.0
  0
SPLINE
  5
1e4
100
AcDbEntity
  8
Layer_1
 62
7
100
AcDbSpline
 70
8
 71
3
 72
8
 73
4
 74
0
 40
0
 40
0
 40
0
 40
0
 40
1
 40
1
 40
1
 40
1
 10
344.546448
 20
447.398924
 30
0.0
 10
340.846448
 20
451.198924
 30
0.0
 10
334.346448
 20
454.298924
 30
0.0
 10
330.046448
 20
454.298924
 30
0.0
  0
SPLINE
  5
1e5
100
AcDbEntity
  8
Layer_1
 62
7
100
AcDbSpline
 70
8
 71
3
 72
8
 73
4
 74
0
 40
0
 40
0
 40
0
 40
0
 40
1
 40
1
 40
1
 40
1
 10
330.046448
 20
454.298924
 30
0.0
 10
328.146448
 20
454.198924
 30
0.0
 10
324.946448
 20
453.298924
 30
0.0
 10
322.846448
 20
452.198924
 30
0.0
  0
LWPOLYLINE
  5
1e6
100
AcDbEntity
  8
Layer_1
 62
7
100
AcDbPolyline
 90
3
 70
0
 10
340.246448
 20
445.098924
 30
0.0
 10
347.246448
 20
444.598924
 30
0.0
 10
344.546448
 20
447.398924
 30
0.0
  0
LWPOLYLINE
  5
1e7
100
AcDbEntity
  8
Layer_1
 62
7
100
AcDbPolyline
 90
2
 70
0
 10
322.846448
 20
452.198924
 30
0.0
 10
322.846448
 20
452.198924
 30
0.0
  0
SPLINE
  5
1e8
100
AcDbEntity
  8
Layer_1
 62
7
100
AcDbSpline
 70
8
 71
3
 72
8
 73
4
 74
0
 40
0
 40
0
 40
0
 40
0
 40
1
 40
1
 40
1
 40
1
 10
335.746448
 20
447.098924
 30
0.0
 10
328.746448
 20
446.198924
 30
0.0
 10
324.346448
 20
443.798924
 30
0.0
 10
321.646448
 20
439.498924
 30
0.0
  0
SPLINE
  5
1e9
100
AcDbEntity
  8
Layer_1
 62
7
100
AcDbSpline
 70
8
 71
3
 72
8
 73
4
 74
0
 40
0
 40
0
 40
0
 40
0
 40
1
 40
1
 40
1
 40
1
 10
321.646448
 20
439.498924
 30
0.0
 10
319.046448
 20
435.498924
 30
0.0
 10
318.346448
 20
435.498924
 30
0.0
 10
317.546448
 20
439.798924
 30
0.0
  0
SPLINE
  5
1ea
100
AcDbEntity
  8
Layer_1
 62
7
100
AcDbSpline
 70
8
 71
3
 72
8
 73
4
 74
0
 40
0
 40
0
 40
0
 40
0
 40
1
 40
1
 40
1
 40
1
 10
317.546448
 20
439.798924
 30
0.0
 10
315.846448
 20
449.098924
 30
0.0
 10
329.146448
 20
455.798924
 30
0.0
 10
338.146448
 20
450.098924
 30
0.0
  0
LWPOLYLINE
  5
1eb
100
AcDbEntity
  8
Layer_1
 62
7
100
AcDbPolyline
 90
3
 70
0
 10
338.146448
 20
450.098924
 30
0.0
 10
341.646448
 20
447.898924
 30
0.0
 10
335.746448
 20
447.098924
 30
0.0
  0
SPLINE
  5
1ec
100
AcDbEntity
  8
Layer_1
 62
7
100
AcDbSpline
 70
8
 71
3
 72
8
 73
4
 74
0
 40
0
 40
0
 40
0
 40
0
 40
1
 40
1
 40
1
 40
1
 10
393.146448
 20
442.898924
 30
0.0
 10
385.546448
 20
440.798924
 30
0.0
 10
381.046448
 20
438.198924
 30
0.0
 10
374.446448
 20
431.898924
 30
0.0
  0
SPLINE
  5
1ed
100
AcDbEntity
  8
Layer_1
 62
7
100
AcDbSpline
 70
8
 71
3
 72
8
 73
4
 74
0
 40
0
 40
0
 40
0
 40
0
 40
1
 40
1
 40
1
 40
1
 10
374.446448
 20
431.898924
 30
0.0
 10
365.746448
 20
423.798924
 30
0.0
 10
364.246448
 20
420.598924
 30
0.0
 10
362.946448
 20
406.698924
 30
0.0
  0
SPLINE
  5
1ee
100
AcDbEntity
  8
Layer_1
 62
7
100
AcDbSpline
 70
8
 71
3
 72
8
 73
4
 74
0
 40
0
 40
0
 40
0
 40
0
 40
1
 40
1
 40
1
 40
1
 10
362.946448
 20
406.698924
 30
0.0
 10
362.346448
 20
400.398924
 30
0.0
 10
362.046448
 20
394.998924
 30
0.0
 10
362.346448
 20
394.798924
 30
0.0
  0
SPLINE
  5
1ef
100
AcDbEntity
  8
Layer_1
 62
7
100
AcDbSpline
 70
8
 71
3
 72
8
 73
4
 74
0
 40
0
 40
0
 40
0
 40
0
 40
1
 40
1
 40
1
 40
1
 10
362.346448
 20
394.798924
 30
0.0
 10
362.646448
 20
394.498924
 30
0.0
 10
365.746448
 20
395.598924
 30
0.0
 10
369.246448
 20
397.198924
 30
0.0
  0
SPLINE
  5
1f0
100
AcDbEntity
  8
Layer_1
 62
7
100
AcDbSpline
 70
8
 71
3
 72
8
 73
4
 74
0
 40
0
 40
0
 40
0
 40
0
 40
1
 40
1
 40
1
 40
1
 10
369.246448
 20
397.198924
 30
0.0
 10
384.946448
 20
404.598924
 30
0.0
 10
402.746448
 20
402.598924
 30
0.0
 10
419.746448
 20
391.798924
 30
0.0
  0
SPLINE
  5
1f1
100
AcDbEntity
  8
Layer_1
 62
7
100
AcDbSpline
 70
8
 71
3
 72
8
 73
4
 74
0
 40
0
 40
0
 40
0
 40
0
 40
1
 40
1
 40
1
 40
1
 10
419.746448
 20
391.798924
 30
0.0
 10
422.546448
 20
389.998924
 30
0.0
 10
425.746448
 20
388.298924
 30
0.0
 10
426.746448
 20
388.098924
 30
0.0
  0
SPLINE
  5
1f2
100
AcDbEntity
  8
Layer_1
 62
7
100
AcDbSpline
 70
8
 71
3
 72
8
 73
4
 74
0
 40
0
 40
0
 40
0
 40
0
 40
1
 40
1
 40
1
 40
1
 10
426.746448
 20
388.098924
 30
0.0
 10
427.746448
 20
387.898924
 30
0.0
 10
429.246448
 20
386.398924
 30
0.0
 10
430.046448
 20
384.798924
 30
0.0
  0
SPLINE
  5
1f3
100
AcDbEntity
  8
Layer_1
 62
7
100
AcDbSpline
 70
8
 71
3
 72
8
 73
4
 74
0
 40
0
 40
0
 40
0
 40
0
 40
1
 40
1
 40
1
 40
1
 10
430.046448
 20
384.798924
 30
0.0
 10
430.846448
 20
383.098924
 30
0.0
 10
433.446448
 20
378.998924
 30
0.0
 10
435.846448
 20
375.598924
 30
0.0
  0
SPLINE
  5
1f4
100
AcDbEntity
  8
Layer_1
 62
7
100
AcDbSpline
 70
8
 71
3
 72
8
 73
4
 74
0
 40
0
 40
0
 40
0
 40
0
 40
1
 40
1
 40
1
 40
1
 10
435.846448
 20
375.598924
 30
0.0
 10
444.146448
 20
363.798924
 30
0.0
 10
448.746448
 20
351.898924
 30
0.0
 10
454.046448
 20
327.898924
 30
0.0
  0
SPLINE
  5
1f5
100
AcDbEntity
  8
Layer_1
 62
7
100
AcDbSpline
 70
8
 71
3
 72
8
 73
4
 74
0
 40
0
 40
0
 40
0
 40
0
 40
1
 40
1
 40
1
 40
1
 10
454.046448
 20
327.898924
 30
0.0
 10
454.546448
 20
325.398924
 30
0.0
 10
455.146448
 20
326.298924
 30
0.0
 10
458.546448
 20
335.398924
 30
0.0
  0
SPLINE
  5
1f6
100
AcDbEntity
  8
Layer_1
 62
7
100
AcDbSpline
 70
8
 71
3
 72
8
 73
4
 74
0
 40
0
 40
0
 40
0
 40
0
 40
1
 40
1
 40
1
 40
1
 10
458.546448
 20
335.398924
 30
0.0
 10
464.946448
 20
352.798924
 30
0.0
 10
467.546448
 20
365.698924
 30
0.0
 10
467.546448
 20
380.798924
 30
0.0
  0
SPLINE
  5
1f7
100
AcDbEntity
  8
Layer_1
 62
7
100
AcDbSpline
 70
8
 71
3
 72
8
 73
4
 74
0
 40
0
 40
0
 40
0
 40
0
 40
1
 40
1
 40
1
 40
1
 10
467.546448
 20
380.798924
 30
0.0
 10
467.546448
 20
395.898924
 30
0.0
 10
465.746448
 20
402.598924
 30
0.0
 10
459.146448
 20
412.298924
 30
0.0
  0
SPLINE
  5
1f8
100
AcDbEntity
  8
Layer_1
 62
7
100
AcDbSpline
 70
8
 71
3
 72
8
 73
4
 74
0
 40
0
 40
0
 40
0
 40
0
 40
1
 40
1
 40
1
 40
1
 10
459.146448
 20
412.298924
 30
0.0
 10
450.846448
 20
424.498924
 30
0.0
 10
433.746448
 20
437.698924
 30
0.0
 10
420.346448
 20
442.198924
 30
0.0
  0
SPLINE
  5
1f9
100
AcDbEntity
  8
Layer_1
 62
7
100
AcDbSpline
 70
8
 71
3
 72
8
 73
4
 74
0
 40
0
 40
0
 40
0
 40
0
 40
1
 40
1
 40
1
 40
1
 10
420.346448
 20
442.198924
 30
0.0
 10
413.246448
 20
444.598924
 30
0.0
 10
400.546448
 20
444.898924
 30
0.0
 10
393.146448
 20
442.898924
 30
0.0
  0
LWPOLYLINE
  5
1fa
100
AcDbEntity
  8
Layer_1
 62
7
100
AcDbPolyline
 90
2
 70
0
 10
338.146448
 20
450.098924
 30
0.0
 10
338.146448
 20
450.098924
 30
0.0
  0
SPLINE
  5
1fb
100
AcDbEntity
  8
Layer_1
 62
7
100
AcDbSpline
 70
8
 71
3
 72
8
 73
4
 74
0
 40
0
 40
0
 40
0
 40
0
 40
1
 40
1
 40
1
 40
1
 10
414.646448
 20
441.798924
 30
0.0
 10
419.546448
 20
441.098924
 30
0.0
 10
430.546448
 20
436.298924
 30
0.0
 10
436.546448
 20
431.998924
 30
0.0
  0
SPLINE
  5
1fc
100
AcDbEntity
  8
Layer_1
 62
7
100
AcDbSpline
 70
8
 71
3
 72
8
 73
4
 74
0
 40
0
 40
0
 40
0
 40
0
 40
1
 40
1
 40
1
 40
1
 10
436.546448
 20
431.998924
 30
0.0
 10
446.946448
 20
424.798924
 30
0.0
 10
457.346448
 20
413.398924
 30
0.0
 10
461.646448
 20
404.498924
 30
0.0
  0
SPLINE
  5
1fd
100
AcDbEntity
  8
Layer_1
 62
7
100
AcDbSpline
 70
8
 71
3
 72
8
 73
4
 74
0
 40
0
 40
0
 40
0
 40
0
 40
1
 40
1
 40
1
 40
1
 10
461.646448
 20
404.498924
 30
0.0
 10
468.446448
 20
390.498924
 30
0.0
 10
467.446448
 20
368.598924
 30
0.0
 10
458.946448
 20
342.498924
 30
0.0
  0
SPLINE
  5
1fe
100
AcDbEntity
  8
Layer_1
 62
7
100
AcDbSpline
 70
8
 71
3
 72
8
 73
4
 74
0
 40
0
 40
0
 40
0
 40
0
 40
1
 40
1
 40
1
 40
1
 10
458.946448
 20
342.498924
 30
0.0
 10
456.246448
 20
334.098924
 30
0.0
 10
454.146448
 20
331.398924
 30
0.0
 10
454.146448
 20
336.298924
 30
0.0
  0
SPLINE
  5
1ff
100
AcDbEntity
  8
Layer_1
 62
7
100
AcDbSpline
 70
8
 71
3
 72
8
 73
4
 74
0
 40
0
 40
0
 40
0
 40
0
 40
1
 40
1
 40
1
 40
1
 10
454.146448
 20
336.298924
 30
0.0
 10
454.146448
 20
339.498924
 30
0.0
 10
448.146448
 20
357.298924
 30
0.0
 10
444.946448
 20
363.798924
 30
0.0
  0
SPLINE
  5
200
100
AcDbEntity
  8
Layer_1
 62
7
100
AcDbSpline
 70
8
 71
3
 72
8
 73
4
 74
0
 40
0
 40
0
 40
0
 40
0
 40
1
 40
1
 40
1
 40
1
 10
444.946448
 20
363.798924
 30
0.0
 10
443.246448
 20
367.098924
 30
0.0
 10
439.546448
 20
373.398924
 30
0.0
 10
436.546448
 20
377.898924
 30
0.0
  0
SPLINE
  5
201
100
AcDbEntity
  8
Layer_1
 62
7
100
AcDbSpline
 70
8
 71
3
 72
8
 73
4
 74
0
 40
0
 40
0
 40
0
 40
0
 40
1
 40
1
 40
1
 40
1
 10
436.546448
 20
377.898924
 30
0.0
 10
433.546448
 20
382.298924
 30
0.0
 10
431.146448
 20
386.498924
 30
0.0
 10
431.146448
 20
387.098924
 30
0.0
  0
SPLINE
  5
202
100
AcDbEntity
  8
Layer_1
 62
7
100
AcDbSpline
 70
8
 71
3
 72
8
 73
4
 74
0
 40
0
 40
0
 40
0
 40
0
 40
1
 40
1
 40
1
 40
1
 10
431.146448
 20
387.098924
 30
0.0
 10
431.146448
 20
387.698924
 30
0.0
 10
429.046448
 20
389.298924
 30
0.0
 10
426.446448
 20
390.598924
 30
0.0
  0
SPLINE
  5
203
100
AcDbEntity
  8
Layer_1
 62
7
100
AcDbSpline
 70
8
 71
3
 72
8
 73
4
 74
0
 40
0
 40
0
 40
0
 40
0
 40
1
 40
1
 40
1
 40
1
 10
426.446448
 20
390.598924
 30
0.0
 10
423.746448
 20
391.898924
 30
0.0
 10
418.546448
 20
394.598924
 30
0.0
 10
414.846448
 20
396.598924
 30
0.0
  0
SPLINE
  5
204
100
AcDbEntity
  8
Layer_1
 62
7
100
AcDbSpline
 70
8
 71
3
 72
8
 73
4
 74
0
 40
0
 40
0
 40
0
 40
0
 40
1
 40
1
 40
1
 40
1
 10
414.846448
 20
396.598924
 30
0.0
 10
400.346448
 20
404.098924
 30
0.0
 10
382.646448
 20
405.498924
 30
0.0
 10
370.746448
 20
399.998924
 30
0.0
  0
SPLINE
  5
205
100
AcDbEntity
  8
Layer_1
 62
7
100
AcDbSpline
 70
8
 71
3
 72
8
 73
4
 74
0
 40
0
 40
0
 40
0
 40
0
 40
1
 40
1
 40
1
 40
1
 10
370.746448
 20
399.998924
 30
0.0
 10
367.546448
 20
398.498924
 30
0.0
 10
364.646448
 20
397.498924
 30
0.0
 10
364.346448
 20
397.798924
 30
0.0
  0
SPLINE
  5
206
100
AcDbEntity
  8
Layer_1
 62
7
100
AcDbSpline
 70
8
 71
3
 72
8
 73
4
 74
0
 40
0
 40
0
 40
0
 40
0
 40
1
 40
1
 40
1
 40
1
 10
364.346448
 20
397.798924
 30
0.0
 10
364.046448
 20
397.998924
 30
0.0
 10
364.346448
 20
402.998924
 30
0.0
 10
364.946448
 20
408.798924
 30
0.0
  0
SPLINE
  5
207
100
AcDbEntity
  8
Layer_1
 62
7
100
AcDbSpline
 70
8
 71
3
 72
8
 73
4
 74
0
 40
0
 40
0
 40
0
 40
0
 40
1
 40
1
 40
1
 40
1
 10
364.946448
 20
408.798924
 30
0.0
 10
365.946448
 20
418.498924
 30
0.0
 10
366.246448
 20
419.698924
 30
0.0
 10
369.646448
 20
424.298924
 30
0.0
  0
SPLINE
  5
208
100
AcDbEntity
  8
Layer_1
 62
7
100
AcDbSpline
 70
8
 71
3
 72
8
 73
4
 74
0
 40
0
 40
0
 40
0
 40
0
 40
1
 40
1
 40
1
 40
1
 10
369.646448
 20
424.298924
 30
0.0
 10
374.346448
 20
430.698924
 30
0.0
 10
380.346448
 20
435.598924
 30
0.0
 10
387.446448
 20
438.798924
 30
0.0
  0
SPLINE
  5
209
100
AcDbEntity
  8
Layer_1
 62
7
100
AcDbSpline
 70
8
 71
3
 72
8
 73
4
 74
0
 40
0
 40
0
 40
0
 40
0
 40
1
 40
1
 40
1
 40
1
 10
387.446448
 20
438.798924
 30
0.0
 10
392.846448
 20
441.298924
 30
0.0
 10
403.446448
 20
443.298924
 30
0.0
 10
407.646448
 20
442.698924
 30
0.0
  0
SPLINE
  5
20a
100
AcDbEntity
  8
Layer_1
 62
7
100
AcDbSpline
 70
8
 71
3
 72
8
 73
4
 74
0
 40
0
 40
0
 40
0
 40
0
 40
1
 40
1
 40
1
 40
1
 10
407.646448
 20
442.698924
 30
0.0
 10
408.746448
 20
442.498924
 30
0.0
 10
411.946448
 20
442.098924
 30
0.0
 10
414.646448
 20
441.798924
 30
0.0
  0
LWPOLYLINE
  5
20b
100
AcDbEntity
  8
Layer_1
 62
7
100
AcDbPolyline
 90
2
 70
0
 10
393.146448
 20
442.898924
 30
0.0
 10
393.146448
 20
442.898924
 30
0.0
  0
SPLINE
  5
20c
100
AcDbEntity
  8
Layer_1
 62
7
100
AcDbSpline
 70
8
 71
3
 72
8
 73
4
 74
0
 40
0
 40
0
 40
0
 40
0
 40
1
 40
1
 40
1
 40
1
 10
283.246448
 20
440.198924
 30
0.0
 10
280.946448
 20
433.398924
 30
0.0
 10
282.546448
 20
428.098924
 30
0.0
 10
287.846448
 20
425.398924
 30
0.0
  0
SPLINE
  5
20d
100
AcDbEntity
  8
Layer_1
 62
7
100
AcDbSpline
 70
8
 71
3
 72
8
 73
4
 74
0
 40
0
 40
0
 40
0
 40
0
 40
1
 40
1
 40
1
 40
1
 10
287.846448
 20
425.398924
 30
0.0
 10
291.346448
 20
423.598924
 30
0.0
 10
293.546448
 20
424.098924
 30
0.0
 10
296.646448
 20
427.298924
 30
0.0
  0
LWPOLYLINE
  5
20e
100
AcDbEntity
  8
Layer_1
 62
7
100
AcDbPolyline
 90
2
 70
0
 10
414.646448
 20
441.798924
 30
0.0
 10
414.646448
 20
441.798924
 30
0.0
  0
SPLINE
  5
20f
100
AcDbEntity
  8
Layer_1
 62
7
100
AcDbSpline
 70
8
 71
3
 72
8
 73
4
 74
0
 40
0
 40
0
 40
0
 40
0
 40
1
 40
1
 40
1
 40
1
 10
295.946448
 20
430.298924
 30
0.0
 10
291.646448
 20
430.298924
 30
0.0
 10
287.546448
 20
434.398924
 30
0.0
 10
286.546448
 20
439.798924
 30
0.0
  0
SPLINE
  5
210
100
AcDbEntity
  8
Layer_1
 62
7
100
AcDbSpline
 70
8
 71
3
 72
8
 73
4
 74
0
 40
0
 40
0
 40
0
 40
0
 40
1
 40
1
 40
1
 40
1
 10
286.546448
 20
439.798924
 30
0.0
 10
285.746448
 20
444.098924
 30
0.0
 10
284.646448
 20
444.198924
 30
0.0
 10
283.246448
 20
440.198924
 30
0.0
  0
LWPOLYLINE
  5
211
100
AcDbEntity
  8
Layer_1
 62
7
100
AcDbPolyline
 90
3
 70
0
 10
296.646448
 20
427.298924
 30
0.0
 10
299.546448
 20
430.298924
 30
0.0
 10
295.946448
 20
430.298924
 30
0.0
  0
SPLINE
  5
212
100
AcDbEntity
  8
Layer_1
 62
7
100
AcDbSpline
 70
8
 71
3
 72
8
 73
4
 74
0
 40
0
 40
0
 40
0
 40
0
 40
1
 40
1
 40
1
 40
1
 10
292.046448
 20
429.198924
 30
0.0
 10
294.746448
 20
427.898924
 30
0.0
 10
295.046448
 20
427.498924
 30
0.0
 10
293.746448
 20
426.998924
 30
0.0
  0
SPLINE
  5
213
100
AcDbEntity
  8
Layer_1
 62
7
100
AcDbSpline
 70
8
 71
3
 72
8
 73
4
 74
0
 40
0
 40
0
 40
0
 40
0
 40
1
 40
1
 40
1
 40
1
 10
293.746448
 20
426.998924
 30
0.0
 10
287.946448
 20
424.698924
 30
0.0
 10
283.546448
 20
429.198924
 30
0.0
 10
284.046448
 20
436.798924
 30
0.0
  0
SPLINE
  5
214
100
AcDbEntity
  8
Layer_1
 62
7
100
AcDbSpline
 70
8
 71
3
 72
8
 73
4
 74
0
 40
0
 40
0
 40
0
 40
0
 40
1
 40
1
 40
1
 40
1
 10
284.046448
 20
436.798924
 30
0.0
 10
284.146448
 20
438.298924
 30
0.0
 10
284.746448
 20
437.798924
 30
0.0
 10
286.446448
 20
434.798924
 30
0.0
  0
SPLINE
  5
215
100
AcDbEntity
  8
Layer_1
 62
7
100
AcDbSpline
 70
8
 71
3
 72
8
 73
4
 74
0
 40
0
 40
0
 40
0
 40
0
 40
1
 40
1
 40
1
 40
1
 10
286.446448
 20
434.798924
 30
0.0
 10
287.746448
 20
432.498924
 30
0.0
 10
290.146448
 20
430.098924
 30
0.0
 10
292.046448
 20
429.198924
 30
0.0
  0
LWPOLYLINE
  5
216
100
AcDbEntity
  8
Layer_1
 62
7
100
AcDbPolyline
 90
2
 70
0
 10
283.246448
 20
440.198924
 30
0.0
 10
283.246448
 20
440.198924
 30
0.0
  0
SPLINE
  5
217
100
AcDbEntity
  8
Layer_1
 62
7
100
AcDbSpline
 70
8
 71
3
 72
8
 73
4
 74
0
 40
0
 40
0
 40
0
 40
0
 40
1
 40
1
 40
1
 40
1
 10
332.846448
 20
440.898924
 30
0.0
 10
330.846448
 20
440.198924
 30
0.0
 10
328.446448
 20
438.998924
 30
0.0
 10
327.646448
 20
438.298924
 30
0.0
  0
SPLINE
  5
218
100
AcDbEntity
  8
Layer_1
 62
7
100
AcDbSpline
 70
8
 71
3
 72
8
 73
4
 74
0
 40
0
 40
0
 40
0
 40
0
 40
1
 40
1
 40
1
 40
1
 10
327.646448
 20
438.298924
 30
0.0
 10
325.446448
 20
436.498924
 30
0.0
 10
323.846448
 20
430.498924
 30
0.0
 10
324.646448
 20
426.598924
 30
0.0
  0
LWPOLYLINE
  5
219
100
AcDbEntity
  8
Layer_1
 62
7
100
AcDbPolyline
 90
2
 70
0
 10
292.046448
 20
429.198924
 30
0.0
 10
292.046448
 20
429.198924
 30
0.0
  0
SPLINE
  5
21a
100
AcDbEntity
  8
Layer_1
 62
7
100
AcDbSpline
 70
8
 71
3
 72
8
 73
4
 74
0
 40
0
 40
0
 40
0
 40
0
 40
1
 40
1
 40
1
 40
1
 10
327.946448
 20
425.598924
 30
0.0
 10
334.746448
 20
431.998924
 30
0.0
 10
342.446448
 20
431.898924
 30
0.0
 10
352.646448
 20
425.298924
 30
0.0
  0
SPLINE
  5
21b
100
AcDbEntity
  8
Layer_1
 62
7
100
AcDbSpline
 70
8
 71
3
 72
8
 73
4
 74
0
 40
0
 40
0
 40
0
 40
0
 40
1
 40
1
 40
1
 40
1
 10
352.646448
 20
425.298924
 30
0.0
 10
359.346448
 20
420.898924
 30
0.0
 10
359.046448
 20
420.898924
 30
0.0
 10
357.946448
 20
424.998924
 30
0.0
  0
SPLINE
  5
21c
100
AcDbEntity
  8
Layer_1
 62
7
100
AcDbSpline
 70
8
 71
3
 72
8
 73
4
 74
0
 40
0
 40
0
 40
0
 40
0
 40
1
 40
1
 40
1
 40
1
 10
357.946448
 20
424.998924
 30
0.0
 10
356.446448
 20
430.798924
 30
0.0
 10
352.546448
 20
436.898924
 30
0.0
 10
348.946448
 20
439.098924
 30
0.0
  0
SPLINE
  5
21d
100
AcDbEntity
  8
Layer_1
 62
7
100
AcDbSpline
 70
8
 71
3
 72
8
 73
4
 74
0
 40
0
 40
0
 40
0
 40
0
 40
1
 40
1
 40
1
 40
1
 10
348.946448
 20
439.098924
 30
0.0
 10
344.446448
 20
441.898924
 30
0.0
 10
337.546448
 20
442.598924
 30
0.0
 10
332.846448
 20
440.898924
 30
0.0
  0
LWPOLYLINE
  5
21e
100
AcDbEntity
  8
Layer_1
 62
7
100
AcDbPolyline
 90
3
 70
0
 10
324.646448
 20
426.598924
 30
0.0
 10
325.246448
 20
423.098924
 30
0.0
 10
327.946448
 20
425.598924
 30
0.0
  0
SPLINE
  5
21f
100
AcDbEntity
  8
Layer_1
 62
7
100
AcDbSpline
 70
8
 71
3
 72
8
 73
4
 74
0
 40
0
 40
0
 40
0
 40
0
 40
1
 40
1
 40
1
 40
1
 10
344.246448
 20
439.298924
 30
0.0
 10
348.446448
 20
438.098924
 30
0.0
 10
352.446448
 20
434.198924
 30
0.0
 10
354.646448
 20
428.898924
 30
0.0
  0
LWPOLYLINE
  5
220
100
AcDbEntity
  8
Layer_1
 62
7
100
AcDbPolyline
 90
2
 70
0
 10
332.846448
 20
440.898924
 30
0.0
 10
332.846448
 20
440.898924
 30
0.0
  0
SPLINE
  5
221
100
AcDbEntity
  8
Layer_1
 62
7
100
AcDbSpline
 70
8
 71
3
 72
8
 73
4
 74
0
 40
0
 40
0
 40
0
 40
0
 40
1
 40
1
 40
1
 40
1
 10
353.446448
 20
427.098924
 30
0.0
 10
349.946448
 20
429.598924
 30
0.0
 10
341.946448
 20
432.298924
 30
0.0
 10
338.246448
 20
432.298924
 30
0.0
  0
SPLINE
  5
222
100
AcDbEntity
  8
Layer_1
 62
7
100
AcDbSpline
 70
8
 71
3
 72
8
 73
4
 74
0
 40
0
 40
0
 40
0
 40
0
 40
1
 40
1
 40
1
 40
1
 10
338.246448
 20
432.298924
 30
0.0
 10
336.746448
 20
432.298924
 30
0.0
 10
333.346448
 20
431.198924
 30
0.0
 10
330.846448
 20
429.898924
 30
0.0
  0
LWPOLYLINE
  5
223
100
AcDbEntity
  8
Layer_1
 62
7
100
AcDbPolyline
 90
3
 70
0
 10
354.646448
 20
428.898924
 30
0.0
 10
356.246448
 20
425.098924
 30
0.0
 10
353.446448
 20
427.098924
 30
0.0
  0
SPLINE
  5
224
100
AcDbEntity
  8
Layer_1
 62
7
100
AcDbSpline
 70
8
 71
3
 72
8
 73
4
 74
0
 40
0
 40
0
 40
0
 40
0
 40
1
 40
1
 40
1
 40
1
 10
326.146448
 20
430.198924
 30
0.0
 10
326.146448
 20
437.498924
 30
0.0
 10
334.846448
 20
441.898924
 30
0.0
 10
344.246448
 20
439.298924
 30
0.0
  0
LWPOLYLINE
  5
225
100
AcDbEntity
  8
Layer_1
 62
7
100
AcDbPolyline
 90
3
 70
0
 10
330.846448
 20
429.898924
 30
0.0
 10
326.146448
 20
427.598924
 30
0.0
 10
326.146448
 20
430.198924
 30
0.0
  0
SPLINE
  5
226
100
AcDbEntity
  8
Layer_1
 62
7
100
AcDbSpline
 70
8
 71
3
 72
8
 73
4
 74
0
 40
0
 40
0
 40
0
 40
0
 40
1
 40
1
 40
1
 40
1
 10
279.446448
 20
424.398924
 30
0.0
 10
279.846448
 20
422.598924
 30
0.0
 10
280.146448
 20
420.698924
 30
0.0
 10
280.146448
 20
420.298924
 30
0.0
  0
SPLINE
  5
227
100
AcDbEntity
  8
Layer_1
 62
7
100
AcDbSpline
 70
8
 71
3
 72
8
 73
4
 74
0
 40
0
 40
0
 40
0
 40
0
 40
1
 40
1
 40
1
 40
1
 10
280.146448
 20
420.298924
 30
0.0
 10
280.146448
 20
419.898924
 30
0.0
 10
281.346448
 20
418.398924
 30
0.0
 10
282.746448
 20
416.898924
 30
0.0
  0
SPLINE
  5
228
100
AcDbEntity
  8
Layer_1
 62
7
100
AcDbSpline
 70
8
 71
3
 72
8
 73
4
 74
0
 40
0
 40
0
 40
0
 40
0
 40
1
 40
1
 40
1
 40
1
 10
282.746448
 20
416.898924
 30
0.0
 10
287.946448
 20
411.798924
 30
0.0
 10
296.146448
 20
414.298924
 30
0.0
 10
296.146448
 20
420.898924
 30
0.0
  0
SPLINE
  5
229
100
AcDbEntity
  8
Layer_1
 62
7
100
AcDbSpline
 70
8
 71
3
 72
8
 73
4
 74
0
 40
0
 40
0
 40
0
 40
0
 40
1
 40
1
 40
1
 40
1
 10
296.146448
 20
420.898924
 30
0.0
 10
296.146448
 20
423.098924
 30
0.0
 10
296.046448
 20
423.098924
 30
0.0
 10
293.146448
 20
421.698924
 30
0.0
  0
SPLINE
  5
22a
100
AcDbEntity
  8
Layer_1
 62
7
100
AcDbSpline
 70
8
 71
3
 72
8
 73
4
 74
0
 40
0
 40
0
 40
0
 40
0
 40
1
 40
1
 40
1
 40
1
 10
293.146448
 20
421.698924
 30
0.0
 10
289.546448
 20
419.798924
 30
0.0
 10
287.146448
 20
420.498924
 30
0.0
 10
282.446448
 20
424.598924
 30
0.0
  0
LWPOLYLINE
  5
22b
100
AcDbEntity
  8
Layer_1
 62
7
100
AcDbPolyline
 90
2
 70
0
 10
344.246448
 20
439.298924
 30
0.0
 10
344.246448
 20
439.298924
 30
0.0
  0
SPLINE
  5
22c
100
AcDbEntity
  8
Layer_1
 62
7
100
AcDbSpline
 70
8
 71
3
 72
8
 73
4
 74
0
 40
0
 40
0
 40
0
 40
0
 40
1
 40
1
 40
1
 40
1
 10
285.746448
 20
419.798924
 30
0.0
 10
287.546448
 20
418.898924
 30
0.0
 10
289.746448
 20
418.498924
 30
0.0
 10
291.646448
 20
418.898924
 30
0.0
  0
SPLINE
  5
22d
100
AcDbEntity
  8
Layer_1
 62
7
100
AcDbSpline
 70
8
 71
3
 72
8
 73
4
 74
0
 40
0
 40
0
 40
0
 40
0
 40
1
 40
1
 40
1
 40
1
 10
291.646448
 20
418.898924
 30
0.0
 10
294.346448
 20
419.498924
 30
0.0
 10
294.446448
 20
419.398924
 30
0.0
 10
293.246448
 20
417.898924
 30
0.0
  0
SPLINE
  5
22e
100
AcDbEntity
  8
Layer_1
 62
7
100
AcDbSpline
 70
8
 71
3
 72
8
 73
4
 74
0
 40
0
 40
0
 40
0
 40
0
 40
1
 40
1
 40
1
 40
1
 10
293.246448
 20
417.898924
 30
0.0
 10
291.246448
 20
415.498924
 30
0.0
 10
285.346448
 20
416.198924
 30
0.0
 10
283.346448
 20
419.098924
 30
0.0
  0
SPLINE
  5
22f
100
AcDbEntity
  8
Layer_1
 62
7
100
AcDbSpline
 70
8
 71
3
 72
8
 73
4
 74
0
 40
0
 40
0
 40
0
 40
0
 40
1
 40
1
 40
1
 40
1
 10
283.346448
 20
419.098924
 30
0.0
 10
281.646448
 20
421.698924
 30
0.0
 10
281.946448
 20
421.798924
 30
0.0
 10
285.746448
 20
419.798924
 30
0.0
  0
LWPOLYLINE
  5
230
100
AcDbEntity
  8
Layer_1
 62
7
100
AcDbPolyline
 90
4
 70
0
 10
282.446448
 20
424.598924
 30
0.0
 10
278.846448
 20
427.798924
 30
0.0
 10
279.446448
 20
424.398924
 30
0.0
 10
279.446448
 20
424.398924
 30
0.0
  0
SPLINE
  5
231
100
AcDbEntity
  8
Layer_1
 62
7
100
AcDbSpline
 70
8
 71
3
 72
8
 73
4
 74
0
 40
0
 40
0
 40
0
 40
0
 40
1
 40
1
 40
1
 40
1
 10
331.246448
 20
423.698924
 30
0.0
 10
328.246448
 20
421.198924
 30
0.0
 10
324.446448
 20
414.698924
 30
0.0
 10
325.346448
 20
413.698924
 30
0.0
  0
SPLINE
  5
232
100
AcDbEntity
  8
Layer_1
 62
7
100
AcDbSpline
 70
8
 71
3
 72
8
 73
4
 74
0
 40
0
 40
0
 40
0
 40
0
 40
1
 40
1
 40
1
 40
1
 10
325.346448
 20
413.698924
 30
0.0
 10
325.546448
 20
413.598924
 30
0.0
 10
327.646448
 20
413.898924
 30
0.0
 10
329.946448
 20
414.498924
 30
0.0
  0
SPLINE
  5
233
100
AcDbEntity
  8
Layer_1
 62
7
100
AcDbSpline
 70
8
 71
3
 72
8
 73
4
 74
0
 40
0
 40
0
 40
0
 40
0
 40
1
 40
1
 40
1
 40
1
 10
329.946448
 20
414.498924
 30
0.0
 10
338.646448
 20
416.698924
 30
0.0
 10
347.146448
 20
411.198924
 30
0.0
 10
352.946448
 20
399.698924
 30
0.0
  0
LWPOLYLINE
  5
234
100
AcDbEntity
  8
Layer_1
 62
7
100
AcDbPolyline
 90
2
 70
0
 10
285.746448
 20
419.798924
 30
0.0
 10
285.746448
 20
419.798924
 30
0.0
  0
SPLINE
  5
235
100
AcDbEntity
  8
Layer_1
 62
7
100
AcDbSpline
 70
8
 71
3
 72
8
 73
4
 74
0
 40
0
 40
0
 40
0
 40
0
 40
1
 40
1
 40
1
 40
1
 10
356.946448
 20
397.298924
 30
0.0
 10
361.646448
 20
410.798924
 30
0.0
 10
353.246448
 20
424.998924
 30
0.0
 10
339.846448
 20
426.098924
 30
0.0
  0
SPLINE
  5
236
100
AcDbEntity
  8
Layer_1
 62
7
100
AcDbSpline
 70
8
 71
3
 72
8
 73
4
 74
0
 40
0
 40
0
 40
0
 40
0
 40
1
 40
1
 40
1
 40
1
 10
339.846448
 20
426.098924
 30
0.0
 10
335.146448
 20
426.498924
 30
0.0
 10
334.146448
 20
426.198924
 30
0.0
 10
331.246448
 20
423.698924
 30
0.0
  0
LWPOLYLINE
  5
237
100
AcDbEntity
  8
Layer_1
 62
7
100
AcDbPolyline
 90
3
 70
0
 10
352.946448
 20
399.698924
 30
0.0
 10
355.846448
 20
393.998924
 30
0.0
 10
356.946448
 20
397.298924
 30
0.0
  0
SPLINE
  5
238
100
AcDbEntity
  8
Layer_1
 62
7
100
AcDbSpline
 70
8
 71
3
 72
8
 73
4
 74
0
 40
0
 40
0
 40
0
 40
0
 40
1
 40
1
 40
1
 40
1
 10
344.846448
 20
423.198924
 30
0.0
 10
348.646448
 20
421.798924
 30
0.0
 10
353.146448
 20
417.498924
 30
0.0
 10
354.746448
 20
413.598924
 30
0.0
  0
SPLINE
  5
239
100
AcDbEntity
  8
Layer_1
 62
7
100
AcDbSpline
 70
8
 71
3
 72
8
 73
4
 74
0
 40
0
 40
0
 40
0
 40
0
 40
1
 40
1
 40
1
 40
1
 10
354.746448
 20
413.598924
 30
0.0
 10
355.546448
 20
411.798924
 30
0.0
 10
356.146448
 20
407.798924
 30
0.0
 10
356.146448
 20
404.598924
 30
0.0
  0
LWPOLYLINE
  5
23a
100
AcDbEntity
  8
Layer_1
 62
7
100
AcDbPolyline
 90
2
 70
0
 10
331.246448
 20
423.698924
 30
0.0
 10
331.246448
 20
423.698924
 30
0.0
  0
SPLINE
  5
23b
100
AcDbEntity
  8
Layer_1
 62
7
100
AcDbSpline
 70
8
 71
3
 72
8
 73
4
 74
0
 40
0
 40
0
 40
0
 40
0
 40
1
 40
1
 40
1
 40
1
 10
353.246448
 20
403.298924
 30
0.0
 10
347.246448
 20
412.798924
 30
0.0
 10
338.346448
 20
417.998924
 30
0.0
 10
330.846448
 20
416.598924
 30
0.0
  0
SPLINE
  5
23c
100
AcDbEntity
  8
Layer_1
 62
7
100
AcDbSpline
 70
8
 71
3
 72
8
 73
4
 74
0
 40
0
 40
0
 40
0
 40
0
 40
1
 40
1
 40
1
 40
1
 10
330.846448
 20
416.598924
 30
0.0
 10
327.346448
 20
415.898924
 30
0.0
 10
327.446448
 20
417.298924
 30
0.0
 10
331.046448
 20
421.198924
 30
0.0
  0
SPLINE
  5
23d
100
AcDbEntity
  8
Layer_1
 62
7
100
AcDbSpline
 70
8
 71
3
 72
8
 73
4
 74
0
 40
0
 40
0
 40
0
 40
0
 40
1
 40
1
 40
1
 40
1
 10
331.046448
 20
421.198924
 30
0.0
 10
333.346448
 20
423.698924
 30
0.0
 10
334.746448
 20
424.298924
 30
0.0
 10
337.946448
 20
424.298924
 30
0.0
  0
SPLINE
  5
23e
100
AcDbEntity
  8
Layer_1
 62
7
100
AcDbSpline
 70
8
 71
3
 72
8
 73
4
 74
0
 40
0
 40
0
 40
0
 40
0
 40
1
 40
1
 40
1
 40
1
 10
337.946448
 20
424.298924
 30
0.0
 10
340.246448
 20
424.298924
 30
0.0
 10
343.246448
 20
423.798924
 30
0.0
 10
344.846448
 20
423.198924
 30
0.0
  0
LWPOLYLINE
  5
23f
100
AcDbEntity
  8
Layer_1
 62
7
100
AcDbPolyline
 90
3
 70
0
 10
356.146448
 20
404.598924
 30
0.0
 10
356.146448
 20
398.798924
 30
0.0
 10
353.246448
 20
403.298924
 30
0.0
  0
SPLINE
  5
240
100
AcDbEntity
  8
Layer_1
 62
7
100
AcDbSpline
 70
8
 71
3
 72
8
 73
4
 74
0
 40
0
 40
0
 40
0
 40
0
 40
1
 40
1
 40
1
 40
1
 10
220.146448
 20
416.698924
 30
0.0
 10
220.146448
 20
411.198924
 30
0.0
 10
222.246448
 20
400.898924
 30
0.0
 10
224.346448
 20
396.198924
 30
0.0
  0
SPLINE
  5
241
100
AcDbEntity
  8
Layer_1
 62
7
100
AcDbSpline
 70
8
 71
3
 72
8
 73
4
 74
0
 40
0
 40
0
 40
0
 40
0
 40
1
 40
1
 40
1
 40
1
 10
224.346448
 20
396.198924
 30
0.0
 10
226.946448
 20
389.898924
 30
0.0
 10
234.646448
 20
382.798924
 30
0.0
 10
240.246448
 20
381.298924
 30
0.0
  0
SPLINE
  5
242
100
AcDbEntity
  8
Layer_1
 62
7
100
AcDbSpline
 70
8
 71
3
 72
8
 73
4
 74
0
 40
0
 40
0
 40
0
 40
0
 40
1
 40
1
 40
1
 40
1
 10
240.246448
 20
381.298924
 30
0.0
 10
242.846448
 20
380.598924
 30
0.0
 10
247.646448
 20
380.298924
 30
0.0
 10
251.746448
 20
380.598924
 30
0.0
  0
SPLINE
  5
243
100
AcDbEntity
  8
Layer_1
 62
7
100
AcDbSpline
 70
8
 71
3
 72
8
 73
4
 74
0
 40
0
 40
0
 40
0
 40
0
 40
1
 40
1
 40
1
 40
1
 10
251.746448
 20
380.598924
 30
0.0
 10
263.446448
 20
381.498924
 30
0.0
 10
270.046448
 20
385.198924
 30
0.0
 10
276.546448
 20
394.598924
 30
0.0
  0
SPLINE
  5
244
100
AcDbEntity
  8
Layer_1
 62
7
100
AcDbSpline
 70
8
 71
3
 72
8
 73
4
 74
0
 40
0
 40
0
 40
0
 40
0
 40
1
 40
1
 40
1
 40
1
 10
276.546448
 20
394.598924
 30
0.0
 10
280.846448
 20
400.798924
 30
0.0
 10
281.446448
 20
406.198924
 30
0.0
 10
278.746448
 20
412.698924
 30
0.0
  0
LWPOLYLINE
  5
245
100
AcDbEntity
  8
Layer_1
 62
7
100
AcDbPolyline
 90
2
 70
0
 10
344.846448
 20
423.198924
 30
0.0
 10
344.846448
 20
423.198924
 30
0.0
  0
SPLINE
  5
246
100
AcDbEntity
  8
Layer_1
 62
7
100
AcDbSpline
 70
8
 71
3
 72
8
 73
4
 74
0
 40
0
 40
0
 40
0
 40
0
 40
1
 40
1
 40
1
 40
1
 10
271.646448
 20
411.498924
 30
0.0
 10
264.946448
 20
405.398924
 30
0.0
 10
258.246448
 20
402.798924
 30
0.0
 10
249.146448
 20
402.898924
 30
0.0
  0
SPLINE
  5
247
100
AcDbEntity
  8
Layer_1
 62
7
100
AcDbSpline
 70
8
 71
3
 72
8
 73
4
 74
0
 40
0
 40
0
 40
0
 40
0
 40
1
 40
1
 40
1
 40
1
 10
249.146448
 20
402.898924
 30
0.0
 10
243.146448
 20
402.998924
 30
0.0
 10
241.946448
 20
403.398924
 30
0.0
 10
235.446448
 20
407.598924
 30
0.0
  0
SPLINE
  5
248
100
AcDbEntity
  8
Layer_1
 62
7
100
AcDbSpline
 70
8
 71
3
 72
8
 73
4
 74
0
 40
0
 40
0
 40
0
 40
0
 40
1
 40
1
 40
1
 40
1
 10
235.446448
 20
407.598924
 30
0.0
 10
231.446448
 20
410.198924
 30
0.0
 10
226.446448
 20
413.898924
 30
0.0
 10
224.146448
 20
415.898924
 30
0.0
  0
LWPOLYLINE
  5
249
100
AcDbEntity
  8
Layer_1
 62
7
100
AcDbPolyline
 90
3
 70
0
 10
278.746448
 20
412.698924
 30
0.0
 10
277.146448
 20
416.498924
 30
0.0
 10
271.646448
 20
411.498924
 30
0.0
  0
SPLINE
  5
24a
100
AcDbEntity
  8
Layer_1
 62
7
100
AcDbSpline
 70
8
 71
3
 72
8
 73
4
 74
0
 40
0
 40
0
 40
0
 40
0
 40
1
 40
1
 40
1
 40
1
 10
237.046448
 20
404.398924
 30
0.0
 10
242.246448
 20
401.298924
 30
0.0
 10
242.846448
 20
401.098924
 30
0.0
 10
251.046448
 20
401.498924
 30
0.0
  0
SPLINE
  5
24b
100
AcDbEntity
  8
Layer_1
 62
7
100
AcDbSpline
 70
8
 71
3
 72
8
 73
4
 74
0
 40
0
 40
0
 40
0
 40
0
 40
1
 40
1
 40
1
 40
1
 10
251.046448
 20
401.498924
 30
0.0
 10
260.646448
 20
401.898924
 30
0.0
 10
265.946448
 20
403.898924
 30
0.0
 10
272.846448
 20
409.798924
 30
0.0
  0
LWPOLYLINE
  5
24c
100
AcDbEntity
  8
Layer_1
 62
7
100
AcDbPolyline
 90
4
 70
0
 10
224.146448
 20
415.898924
 30
0.0
 10
220.146448
 20
419.498924
 30
0.0
 10
220.146448
 20
416.698924
 30
0.0
 10
220.146448
 20
416.698924
 30
0.0
  0
SPLINE
  5
24d
100
AcDbEntity
  8
Layer_1
 62
7
100
AcDbSpline
 70
8
 71
3
 72
8
 73
4
 74
0
 40
0
 40
0
 40
0
 40
0
 40
1
 40
1
 40
1
 40
1
 10
278.046448
 20
408.998924
 30
0.0
 10
279.646448
 20
402.498924
 30
0.0
 10
278.046448
 20
398.198924
 30
0.0
 10
271.246448
 20
391.298924
 30
0.0
  0
SPLINE
  5
24e
100
AcDbEntity
  8
Layer_1
 62
7
100
AcDbSpline
 70
8
 71
3
 72
8
 73
4
 74
0
 40
0
 40
0
 40
0
 40
0
 40
1
 40
1
 40
1
 40
1
 10
271.246448
 20
391.298924
 30
0.0
 10
266.546448
 20
386.598924
 30
0.0
 10
264.446448
 20
385.098924
 30
0.0
 10
259.646448
 20
383.798924
 30
0.0
  0
SPLINE
  5
24f
100
AcDbEntity
  8
Layer_1
 62
7
100
AcDbSpline
 70
8
 71
3
 72
8
 73
4
 74
0
 40
0
 40
0
 40
0
 40
0
 40
1
 40
1
 40
1
 40
1
 10
259.646448
 20
383.798924
 30
0.0
 10
252.246448
 20
381.598924
 30
0.0
 10
240.946448
 20
382.098924
 30
0.0
 10
236.246448
 20
384.898924
 30
0.0
  0
SPLINE
  5
250
100
AcDbEntity
  8
Layer_1
 62
7
100
AcDbSpline
 70
8
 71
3
 72
8
 73
4
 74
0
 40
0
 40
0
 40
0
 40
0
 40
1
 40
1
 40
1
 40
1
 10
236.246448
 20
384.898924
 30
0.0
 10
229.146448
 20
389.098924
 30
0.0
 10
224.146448
 20
398.498924
 30
0.0
 10
222.546448
 20
410.598924
 30
0.0
  0
LWPOLYLINE
  5
251
100
AcDbEntity
  8
Layer_1
 62
7
100
AcDbPolyline
 90
3
 70
0
 10
272.846448
 20
409.798924
 30
0.0
 10
276.946448
 20
413.298924
 30
0.0
 10
278.046448
 20
408.998924
 30
0.0
  0
SPLINE
  5
252
100
AcDbEntity
  8
Layer_1
 62
7
100
AcDbSpline
 70
8
 71
3
 72
8
 73
4
 74
0
 40
0
 40
0
 40
0
 40
0
 40
1
 40
1
 40
1
 40
1
 10
226.746448
 20
411.598924
 30
0.0
 10
229.446448
 20
409.398924
 30
0.0
 10
234.046448
 20
406.198924
 30
0.0
 10
237.046448
 20
404.398924
 30
0.0
  0
LWPOLYLINE
  5
253
100
AcDbEntity
  8
Layer_1
 62
7
100
AcDbPolyline
 90
3
 70
0
 10
222.546448
 20
410.598924
 30
0.0
 10
221.846448
 20
415.698924
 30
0.0
 10
226.746448
 20
411.598924
 30
0.0
  0
SPLINE
  5
254
100
AcDbEntity
  8
Layer_1
 62
7
100
AcDbSpline
 70
8
 71
3
 72
8
 73
4
 74
0
 40
0
 40
0
 40
0
 40
0
 40
1
 40
1
 40
1
 40
1
 10
296.746448
 20
414.498924
 30
0.0
 10
295.746448
 20
411.398924
 30
0.0
 10
292.546448
 20
409.998924
 30
0.0
 10
287.946448
 20
410.698924
 30
0.0
  0
SPLINE
  5
255
100
AcDbEntity
  8
Layer_1
 62
7
100
AcDbSpline
 70
8
 71
3
 72
8
 73
4
 74
0
 40
0
 40
0
 40
0
 40
0
 40
1
 40
1
 40
1
 40
1
 10
287.946448
 20
410.698924
 30
0.0
 10
284.246448
 20
411.298924
 30
0.0
 10
284.146448
 20
411.198924
 30
0.0
 10
285.146448
 20
409.298924
 30
0.0
  0
SPLINE
  5
256
100
AcDbEntity
  8
Layer_1
 62
7
100
AcDbSpline
 70
8
 71
3
 72
8
 73
4
 74
0
 40
0
 40
0
 40
0
 40
0
 40
1
 40
1
 40
1
 40
1
 10
285.146448
 20
409.298924
 30
0.0
 10
287.446448
 20
404.998924
 30
0.0
 10
294.746448
 20
403.898924
 30
0.0
 10
298.146448
 20
407.298924
 30
0.0
  0
SPLINE
  5
257
100
AcDbEntity
  8
Layer_1
 62
7
100
AcDbSpline
 70
8
 71
3
 72
8
 73
4
 74
0
 40
0
 40
0
 40
0
 40
0
 40
1
 40
1
 40
1
 40
1
 10
298.146448
 20
407.298924
 30
0.0
 10
300.446448
 20
409.598924
 30
0.0
 10
300.646448
 20
412.198924
 30
0.0
 10
298.746448
 20
414.798924
 30
0.0
  0
SPLINE
  5
258
100
AcDbEntity
  8
Layer_1
 62
7
100
AcDbSpline
 70
8
 71
3
 72
8
 73
4
 74
0
 40
0
 40
0
 40
0
 40
0
 40
1
 40
1
 40
1
 40
1
 10
298.746448
 20
414.798924
 30
0.0
 10
297.446448
 20
416.598924
 30
0.0
 10
297.346448
 20
416.598924
 30
0.0
 10
296.746448
 20
414.498924
 30
0.0
  0
LWPOLYLINE
  5
259
100
AcDbEntity
  8
Layer_1
 62
7
100
AcDbPolyline
 90
2
 70
0
 10
237.046448
 20
404.398924
 30
0.0
 10
237.046448
 20
404.398924
 30
0.0
  0
SPLINE
  5
25a
100
AcDbEntity
  8
Layer_1
 62
7
100
AcDbSpline
 70
8
 71
3
 72
8
 73
4
 74
0
 40
0
 40
0
 40
0
 40
0
 40
1
 40
1
 40
1
 40
1
 10
297.246448
 20
408.898924
 30
0.0
 10
295.646448
 20
406.998924
 30
0.0
 10
293.046448
 20
406.398924
 30
0.0
 10
290.646448
 20
407.398924
 30
0.0
  0
SPLINE
  5
25b
100
AcDbEntity
  8
Layer_1
 62
7
100
AcDbSpline
 70
8
 71
3
 72
8
 73
4
 74
0
 40
0
 40
0
 40
0
 40
0
 40
1
 40
1
 40
1
 40
1
 10
290.646448
 20
407.398924
 30
0.0
 10
288.746448
 20
408.098924
 30
0.0
 10
288.746448
 20
408.198924
 30
0.0
 10
290.746448
 20
408.198924
 30
0.0
  0
SPLINE
  5
25c
100
AcDbEntity
  8
Layer_1
 62
7
100
AcDbSpline
 70
8
 71
3
 72
8
 73
4
 74
0
 40
0
 40
0
 40
0
 40
0
 40
1
 40
1
 40
1
 40
1
 10
290.746448
 20
408.198924
 30
0.0
 10
291.946448
 20
408.298924
 30
0.0
 10
293.946448
 20
409.198924
 30
0.0
 10
295.246448
 20
410.198924
 30
0.0
  0
SPLINE
  5
25d
100
AcDbEntity
  8
Layer_1
 62
7
100
AcDbSpline
 70
8
 71
3
 72
8
 73
4
 74
0
 40
0
 40
0
 40
0
 40
0
 40
1
 40
1
 40
1
 40
1
 10
295.246448
 20
410.198924
 30
0.0
 10
297.746448
 20
412.198924
 30
0.0
 10
299.146448
 20
411.198924
 30
0.0
 10
297.246448
 20
408.898924
 30
0.0
  0
LWPOLYLINE
  5
25e
100
AcDbEntity
  8
Layer_1
 62
7
100
AcDbPolyline
 90
2
 70
0
 10
296.746448
 20
414.498924
 30
0.0
 10
296.746448
 20
414.498924
 30
0.0
  0
SPLINE
  5
25f
100
AcDbEntity
  8
Layer_1
 62
7
100
AcDbSpline
 70
8
 71
3
 72
8
 73
4
 74
0
 40
0
 40
0
 40
0
 40
0
 40
1
 40
1
 40
1
 40
1
 10
301.846448
 20
409.398924
 30
0.0
 10
302.446448
 20
406.898924
 30
0.0
 10
300.646448
 20
403.598924
 30
0.0
 10
298.146448
 20
402.798924
 30
0.0
  0
SPLINE
  5
260
100
AcDbEntity
  8
Layer_1
 62
7
100
AcDbSpline
 70
8
 71
3
 72
8
 73
4
 74
0
 40
0
 40
0
 40
0
 40
0
 40
1
 40
1
 40
1
 40
1
 10
298.146448
 20
402.798924
 30
0.0
 10
295.246448
 20
401.898924
 30
0.0
 10
295.746448
 20
400.298924
 30
0.0
 10
298.946448
 20
400.298924
 30
0.0
  0
SPLINE
  5
261
100
AcDbEntity
  8
Layer_1
 62
7
100
AcDbSpline
 70
8
 71
3
 72
8
 73
4
 74
0
 40
0
 40
0
 40
0
 40
0
 40
1
 40
1
 40
1
 40
1
 10
298.946448
 20
400.298924
 30
0.0
 10
304.646448
 20
400.298924
 30
0.0
 10
308.246448
 20
405.298924
 30
0.0
 10
305.446448
 20
409.198924
 30
0.0
  0
SPLINE
  5
262
100
AcDbEntity
  8
Layer_1
 62
7
100
AcDbSpline
 70
8
 71
3
 72
8
 73
4
 74
0
 40
0
 40
0
 40
0
 40
0
 40
1
 40
1
 40
1
 40
1
 10
305.446448
 20
409.198924
 30
0.0
 10
303.646448
 20
411.898924
 30
0.0
 10
301.146448
 20
411.998924
 30
0.0
 10
301.846448
 20
409.398924
 30
0.0
  0
LWPOLYLINE
  5
263
100
AcDbEntity
  8
Layer_1
 62
7
100
AcDbPolyline
 90
2
 70
0
 10
297.246448
 20
408.898924
 30
0.0
 10
297.246448
 20
408.898924
 30
0.0
  0
SPLINE
  5
264
100
AcDbEntity
  8
Layer_1
 62
7
100
AcDbSpline
 70
8
 71
3
 72
8
 73
4
 74
0
 40
0
 40
0
 40
0
 40
0
 40
1
 40
1
 40
1
 40
1
 10
304.146448
 20
404.298924
 30
0.0
 10
303.546448
 20
403.098924
 30
0.0
 10
302.746448
 20
402.398924
 30
0.0
 10
302.446448
 20
402.598924
 30
0.0
  0
SPLINE
  5
265
100
AcDbEntity
  8
Layer_1
 62
7
100
AcDbSpline
 70
8
 71
3
 72
8
 73
4
 74
0
 40
0
 40
0
 40
0
 40
0
 40
1
 40
1
 40
1
 40
1
 10
302.446448
 20
402.598924
 30
0.0
 10
302.246448
 20
402.898924
 30
0.0
 10
302.546448
 20
404.098924
 30
0.0
 10
303.146448
 20
405.298924
 30
0.0
  0
SPLINE
  5
266
100
AcDbEntity
  8
Layer_1
 62
7
100
AcDbSpline
 70
8
 71
3
 72
8
 73
4
 74
0
 40
0
 40
0
 40
0
 40
0
 40
1
 40
1
 40
1
 40
1
 10
303.146448
 20
405.298924
 30
0.0
 10
303.746448
 20
406.498924
 30
0.0
 10
304.546448
 20
407.198924
 30
0.0
 10
304.846448
 20
406.998924
 30
0.0
  0
SPLINE
  5
267
100
AcDbEntity
  8
Layer_1
 62
7
100
AcDbSpline
 70
8
 71
3
 72
8
 73
4
 74
0
 40
0
 40
0
 40
0
 40
0
 40
1
 40
1
 40
1
 40
1
 10
304.846448
 20
406.998924
 30
0.0
 10
305.046448
 20
406.698924
 30
0.0
 10
304.746448
 20
405.498924
 30
0.0
 10
304.146448
 20
404.298924
 30
0.0
  0
LWPOLYLINE
  5
268
100
AcDbEntity
  8
Layer_1
 62
7
100
AcDbPolyline
 90
2
 70
0
 10
301.846448
 20
409.398924
 30
0.0
 10
301.846448
 20
409.398924
 30
0.0
  0
SPLINE
  5
269
100
AcDbEntity
  8
Layer_1
 62
7
100
AcDbSpline
 70
8
 71
3
 72
8
 73
4
 74
0
 40
0
 40
0
 40
0
 40
0
 40
1
 40
1
 40
1
 40
1
 10
330.946448
 20
410.298924
 30
0.0
 10
327.646448
 20
409.298924
 30
0.0
 10
322.146448
 20
405.498924
 30
0.0
 10
322.146448
 20
404.198924
 30
0.0
  0
SPLINE
  5
26a
100
AcDbEntity
  8
Layer_1
 62
7
100
AcDbSpline
 70
8
 71
3
 72
8
 73
4
 74
0
 40
0
 40
0
 40
0
 40
0
 40
1
 40
1
 40
1
 40
1
 10
322.146448
 20
404.198924
 30
0.0
 10
322.146448
 20
403.698924
 30
0.0
 10
322.946448
 20
403.298924
 30
0.0
 10
323.946448
 20
403.298924
 30
0.0
  0
SPLINE
  5
26b
100
AcDbEntity
  8
Layer_1
 62
7
100
AcDbSpline
 70
8
 71
3
 72
8
 73
4
 74
0
 40
0
 40
0
 40
0
 40
0
 40
1
 40
1
 40
1
 40
1
 10
323.946448
 20
403.298924
 30
0.0
 10
324.846448
 20
403.298924
 30
0.0
 10
327.346448
 20
402.298924
 30
0.0
 10
329.346448
 20
400.998924
 30
0.0
  0
SPLINE
  5
26c
100
AcDbEntity
  8
Layer_1
 62
7
100
AcDbSpline
 70
8
 71
3
 72
8
 73
4
 74
0
 40
0
 40
0
 40
0
 40
0
 40
1
 40
1
 40
1
 40
1
 10
329.346448
 20
400.998924
 30
0.0
 10
337.746448
 20
395.998924
 30
0.0
 10
341.146448
 20
386.498924
 30
0.0
 10
339.246448
 20
373.898924
 30
0.0
  0
SPLINE
  5
26d
100
AcDbEntity
  8
Layer_1
 62
7
100
AcDbSpline
 70
8
 71
3
 72
8
 73
4
 74
0
 40
0
 40
0
 40
0
 40
0
 40
1
 40
1
 40
1
 40
1
 10
339.246448
 20
373.898924
 30
0.0
 10
338.746448
 20
370.098924
 30
0.0
 10
338.446448
 20
366.698924
 30
0.0
 10
338.646448
 20
366.498924
 30
0.0
  0
SPLINE
  5
26e
100
AcDbEntity
  8
Layer_1
 62
7
100
AcDbSpline
 70
8
 71
3
 72
8
 73
4
 74
0
 40
0
 40
0
 40
0
 40
0
 40
1
 40
1
 40
1
 40
1
 10
338.646448
 20
366.498924
 30
0.0
 10
339.446448
 20
365.698924
 30
0.0
 10
347.146448
 20
374.398924
 30
0.0
 10
349.346448
 20
378.498924
 30
0.0
  0
SPLINE
  5
26f
100
AcDbEntity
  8
Layer_1
 62
7
100
AcDbSpline
 70
8
 71
3
 72
8
 73
4
 74
0
 40
0
 40
0
 40
0
 40
0
 40
1
 40
1
 40
1
 40
1
 10
349.346448
 20
378.498924
 30
0.0
 10
351.046448
 20
381.798924
 30
0.0
 10
351.546448
 20
384.498924
 30
0.0
 10
351.646448
 20
389.898924
 30
0.0
  0
SPLINE
  5
270
100
AcDbEntity
  8
Layer_1
 62
7
100
AcDbSpline
 70
8
 71
3
 72
8
 73
4
 74
0
 40
0
 40
0
 40
0
 40
0
 40
1
 40
1
 40
1
 40
1
 10
351.646448
 20
389.898924
 30
0.0
 10
351.646448
 20
395.998924
 30
0.0
 10
351.246448
 20
397.598924
 30
0.0
 10
348.646448
 20
401.898924
 30
0.0
  0
SPLINE
  5
271
100
AcDbEntity
  8
Layer_1
 62
7
100
AcDbSpline
 70
8
 71
3
 72
8
 73
4
 74
0
 40
0
 40
0
 40
0
 40
0
 40
1
 40
1
 40
1
 40
1
 10
348.646448
 20
401.898924
 30
0.0
 10
345.546448
 20
406.898924
 30
0.0
 10
339.346448
 20
411.298924
 30
0.0
 10
335.646448
 20
411.198924
 30
0.0
  0
SPLINE
  5
272
100
AcDbEntity
  8
Layer_1
 62
7
100
AcDbSpline
 70
8
 71
3
 72
8
 73
4
 74
0
 40
0
 40
0
 40
0
 40
0
 40
1
 40
1
 40
1
 40
1
 10
335.646448
 20
411.198924
 30
0.0
 10
334.546448
 20
411.198924
 30
0.0
 10
332.446448
 20
410.798924
 30
0.0
 10
330.946448
 20
410.298924
 30
0.0
  0
LWPOLYLINE
  5
273
100
AcDbEntity
  8
Layer_1
 62
7
100
AcDbPolyline
 90
2
 70
0
 10
304.146448
 20
404.298924
 30
0.0
 10
304.146448
 20
404.298924
 30
0.0
  0
SPLINE
  5
274
100
AcDbEntity
  8
Layer_1
 62
7
100
AcDbSpline
 70
8
 71
3
 72
8
 73
4
 74
0
 40
0
 40
0
 40
0
 40
0
 40
1
 40
1
 40
1
 40
1
 10
340.846448
 20
407.298924
 30
0.0
 10
349.446448
 20
402.098924
 30
0.0
 10
352.546448
 20
389.798924
 30
0.0
 10
347.746448
 20
379.998924
 30
0.0
  0
SPLINE
  5
275
100
AcDbEntity
  8
Layer_1
 62
7
100
AcDbSpline
 70
8
 71
3
 72
8
 73
4
 74
0
 40
0
 40
0
 40
0
 40
0
 40
1
 40
1
 40
1
 40
1
 10
347.746448
 20
379.998924
 30
0.0
 10
346.346448
 20
376.998924
 30
0.0
 10
344.246448
 20
373.798924
 30
0.0
 10
343.246448
 20
372.798924
 30
0.0
  0
SPLINE
  5
276
100
AcDbEntity
  8
Layer_1
 62
7
100
AcDbSpline
 70
8
 71
3
 72
8
 73
4
 74
0
 40
0
 40
0
 40
0
 40
0
 40
1
 40
1
 40
1
 40
1
 10
343.246448
 20
372.798924
 30
0.0
 10
341.246448
 20
371.098924
 30
0.0
 10
341.246448
 20
371.198924
 30
0.0
 10
341.246448
 20
379.598924
 30
0.0
  0
SPLINE
  5
277
100
AcDbEntity
  8
Layer_1
 62
7
100
AcDbSpline
 70
8
 71
3
 72
8
 73
4
 74
0
 40
0
 40
0
 40
0
 40
0
 40
1
 40
1
 40
1
 40
1
 10
341.246448
 20
379.598924
 30
0.0
 10
341.246448
 20
385.198924
 30
0.0
 10
340.646448
 20
389.498924
 30
0.0
 10
339.646448
 20
391.998924
 30
0.0
  0
SPLINE
  5
278
100
AcDbEntity
  8
Layer_1
 62
7
100
AcDbSpline
 70
8
 71
3
 72
8
 73
4
 74
0
 40
0
 40
0
 40
0
 40
0
 40
1
 40
1
 40
1
 40
1
 10
339.646448
 20
391.998924
 30
0.0
 10
337.746448
 20
396.598924
 30
0.0
 10
332.946448
 20
401.698924
 30
0.0
 10
329.046448
 20
403.398924
 30
0.0
  0
SPLINE
  5
279
100
AcDbEntity
  8
Layer_1
 62
7
100
AcDbSpline
 70
8
 71
3
 72
8
 73
4
 74
0
 40
0
 40
0
 40
0
 40
0
 40
1
 40
1
 40
1
 40
1
 10
329.046448
 20
403.398924
 30
0.0
 10
325.246448
 20
404.898924
 30
0.0
 10
325.346448
 20
406.098924
 30
0.0
 10
329.446448
 20
407.798924
 30
0.0
  0
SPLINE
  5
27a
100
AcDbEntity
  8
Layer_1
 62
7
100
AcDbSpline
 70
8
 71
3
 72
8
 73
4
 74
0
 40
0
 40
0
 40
0
 40
0
 40
1
 40
1
 40
1
 40
1
 10
329.446448
 20
407.798924
 30
0.0
 10
333.846448
 20
409.798924
 30
0.0
 10
337.046448
 20
409.598924
 30
0.0
 10
340.846448
 20
407.298924
 30
0.0
  0
LWPOLYLINE
  5
27b
100
AcDbEntity
  8
Layer_1
 62
7
100
AcDbPolyline
 90
2
 70
0
 10
330.946448
 20
410.298924
 30
0.0
 10
330.946448
 20
410.298924
 30
0.0
  0
SPLINE
  5
27c
100
AcDbEntity
  8
Layer_1
 62
7
100
AcDbSpline
 70
8
 71
3
 72
8
 73
4
 74
0
 40
0
 40
0
 40
0
 40
0
 40
1
 40
1
 40
1
 40
1
 10
284.146448
 20
399.098924
 30
0.0
 10
282.546448
 20
393.098924
 30
0.0
 10
277.746448
 20
385.998924
 30
0.0
 10
273.246448
 20
382.798924
 30
0.0
  0
SPLINE
  5
27d
100
AcDbEntity
  8
Layer_1
 62
7
100
AcDbSpline
 70
8
 71
3
 72
8
 73
4
 74
0
 40
0
 40
0
 40
0
 40
0
 40
1
 40
1
 40
1
 40
1
 10
273.246448
 20
382.798924
 30
0.0
 10
267.446448
 20
378.798924
 30
0.0
 10
261.046448
 20
377.298924
 30
0.0
 10
249.746448
 20
377.298924
 30
0.0
  0
LWPOLYLINE
  5
27e
100
AcDbEntity
  8
Layer_1
 62
7
100
AcDbPolyline
 90
2
 70
0
 10
340.846448
 20
407.298924
 30
0.0
 10
340.846448
 20
407.298924
 30
0.0
  0
SPLINE
  5
27f
100
AcDbEntity
  8
Layer_1
 62
7
100
AcDbSpline
 70
8
 71
3
 72
8
 73
4
 74
0
 40
0
 40
0
 40
0
 40
0
 40
1
 40
1
 40
1
 40
1
 10
244.746448
 20
372.398924
 30
0.0
 10
253.746448
 20
364.098924
 30
0.0
 10
263.946448
 20
360.598924
 30
0.0
 10
274.246448
 20
362.198924
 30
0.0
  0
SPLINE
  5
280
100
AcDbEntity
  8
Layer_1
 62
7
100
AcDbSpline
 70
8
 71
3
 72
8
 73
4
 74
0
 40
0
 40
0
 40
0
 40
0
 40
1
 40
1
 40
1
 40
1
 10
274.246448
 20
362.198924
 30
0.0
 10
277.546448
 20
362.798924
 30
0.0
 10
281.746448
 20
364.198924
 30
0.0
 10
283.646448
 20
365.298924
 30
0.0
  0
SPLINE
  5
281
100
AcDbEntity
  8
Layer_1
 62
7
100
AcDbSpline
 70
8
 71
3
 72
8
 73
4
 74
0
 40
0
 40
0
 40
0
 40
0
 40
1
 40
1
 40
1
 40
1
 10
283.646448
 20
365.298924
 30
0.0
 10
291.146448
 20
369.898924
 30
0.0
 10
296.746448
 20
380.498924
 30
0.0
 10
295.646448
 20
387.698924
 30
0.0
  0
SPLINE
  5
282
100
AcDbEntity
  8
Layer_1
 62
7
100
AcDbSpline
 70
8
 71
3
 72
8
 73
4
 74
0
 40
0
 40
0
 40
0
 40
0
 40
1
 40
1
 40
1
 40
1
 10
295.646448
 20
387.698924
 30
0.0
 10
295.046448
 20
391.598924
 30
0.0
 10
291.046448
 20
398.298924
 30
0.0
 10
287.346448
 20
401.598924
 30
0.0
  0
SPLINE
  5
283
100
AcDbEntity
  8
Layer_1
 62
7
100
AcDbSpline
 70
8
 71
3
 72
8
 73
4
 74
0
 40
0
 40
0
 40
0
 40
0
 40
1
 40
1
 40
1
 40
1
 10
287.346448
 20
401.598924
 30
0.0
 10
285.346448
 20
403.498924
 30
0.0
 10
285.246448
 20
403.398924
 30
0.0
 10
284.146448
 20
399.098924
 30
0.0
  0
LWPOLYLINE
  5
284
100
AcDbEntity
  8
Layer_1
 62
7
100
AcDbPolyline
 90
3
 70
0
 10
249.746448
 20
377.298924
 30
0.0
 10
239.646448
 20
377.198924
 30
0.0
 10
244.746448
 20
372.398924
 30
0.0
  0
SPLINE
  5
285
100
AcDbEntity
  8
Layer_1
 62
7
100
AcDbSpline
 70
8
 71
3
 72
8
 73
4
 74
0
 40
0
 40
0
 40
0
 40
0
 40
1
 40
1
 40
1
 40
1
 10
292.246448
 20
392.098924
 30
0.0
 10
295.746448
 20
385.198924
 30
0.0
 10
294.046448
 20
378.398924
 30
0.0
 10
286.946448
 20
370.698924
 30
0.0
  0
SPLINE
  5
286
100
AcDbEntity
  8
Layer_1
 62
7
100
AcDbSpline
 70
8
 71
3
 72
8
 73
4
 74
0
 40
0
 40
0
 40
0
 40
0
 40
1
 40
1
 40
1
 40
1
 10
286.946448
 20
370.698924
 30
0.0
 10
282.646448
 20
366.098924
 30
0.0
 10
276.146448
 20
363.298924
 30
0.0
 10
269.446448
 20
363.298924
 30
0.0
  0
SPLINE
  5
287
100
AcDbEntity
  8
Layer_1
 62
7
100
AcDbSpline
 70
8
 71
3
 72
8
 73
4
 74
0
 40
0
 40
0
 40
0
 40
0
 40
1
 40
1
 40
1
 40
1
 10
269.446448
 20
363.298924
 30
0.0
 10
263.946448
 20
363.298924
 30
0.0
 10
253.446448
 20
367.298924
 30
0.0
 10
248.946448
 20
371.198924
 30
0.0
  0
LWPOLYLINE
  5
288
100
AcDbEntity
  8
Layer_1
 62
7
100
AcDbPolyline
 90
2
 70
0
 10
284.146448
 20
399.098924
 30
0.0
 10
284.146448
 20
399.098924
 30
0.0
  0
SPLINE
  5
289
100
AcDbEntity
  8
Layer_1
 62
7
100
AcDbSpline
 70
8
 71
3
 72
8
 73
4
 74
0
 40
0
 40
0
 40
0
 40
0
 40
1
 40
1
 40
1
 40
1
 10
254.346448
 20
375.398924
 30
0.0
 10
261.946448
 20
375.798924
 30
0.0
 10
265.046448
 20
376.498924
 30
0.0
 10
269.446448
 20
378.598924
 30
0.0
  0
SPLINE
  5
28a
100
AcDbEntity
  8
Layer_1
 62
7
100
AcDbSpline
 70
8
 71
3
 72
8
 73
4
 74
0
 40
0
 40
0
 40
0
 40
0
 40
1
 40
1
 40
1
 40
1
 10
269.446448
 20
378.598924
 30
0.0
 10
276.046448
 20
381.898924
 30
0.0
 10
281.646448
 20
387.798924
 30
0.0
 10
284.346448
 20
394.398924
 30
0.0
  0
SPLINE
  5
28b
100
AcDbEntity
  8
Layer_1
 62
7
100
AcDbSpline
 70
8
 71
3
 72
8
 73
4
 74
0
 40
0
 40
0
 40
0
 40
0
 40
1
 40
1
 40
1
 40
1
 10
284.346448
 20
394.398924
 30
0.0
 10
286.346448
 20
399.198924
 30
0.0
 10
286.446448
 20
399.298924
 30
0.0
 10
288.446448
 20
397.598924
 30
0.0
  0
SPLINE
  5
28c
100
AcDbEntity
  8
Layer_1
 62
7
100
AcDbSpline
 70
8
 71
3
 72
8
 73
4
 74
0
 40
0
 40
0
 40
0
 40
0
 40
1
 40
1
 40
1
 40
1
 10
288.446448
 20
397.598924
 30
0.0
 10
289.446448
 20
396.598924
 30
0.0
 10
291.246448
 20
394.098924
 30
0.0
 10
292.246448
 20
392.098924
 30
0.0
  0
LWPOLYLINE
  5
28d
100
AcDbEntity
  8
Layer_1
 62
7
100
AcDbPolyline
 90
3
 70
0
 10
248.946448
 20
371.198924
 30
0.0
 10
244.746448
 20
374.798924
 30
0.0
 10
254.346448
 20
375.398924
 30
0.0
  0
LWPOLYLINE
  5
28e
100
AcDbEntity
  8
Layer_1
 62
7
100
AcDbPolyline
 90
2
 70
0
 10
292.246448
 20
392.098924
 30
0.0
 10
292.246448
 20
392.098924
 30
0.0
  0
SPLINE
  5
28f
100
AcDbEntity
  8
Layer_1
 62
7
100
AcDbSpline
 70
8
 71
3
 72
8
 73
4
 74
0
 40
0
 40
0
 40
0
 40
0
 40
1
 40
1
 40
1
 40
1
 10
314.646448
 20
394.098924
 30
0.0
 10
323.546448
 20
387.098924
 30
0.0
 10
323.146448
 20
372.198924
 30
0.0
 10
313.646448
 20
359.298924
 30
0.0
  0
LWPOLYLINE
  5
290
100
AcDbEntity
  8
Layer_1
 62
7
100
AcDbPolyline
 90
3
 70
0
 10
316.346448
 20
397.598924
 30
0.0
 10
312.146448
 20
396.098924
 30
0.0
 10
314.646448
 20
394.098924
 30
0.0
  0
SPLINE
  5
291
100
AcDbEntity
  8
Layer_1
 62
7
100
AcDbSpline
 70
8
 71
3
 72
8
 73
4
 74
0
 40
0
 40
0
 40
0
 40
0
 40
1
 40
1
 40
1
 40
1
 10
312.746448
 20
354.798924
 30
0.0
 10
327.746448
 20
358.098924
 30
0.0
 10
336.546448
 20
367.898924
 30
0.0
 10
336.646448
 20
381.298924
 30
0.0
  0
SPLINE
  5
292
100
AcDbEntity
  8
Layer_1
 62
7
100
AcDbSpline
 70
8
 71
3
 72
8
 73
4
 74
0
 40
0
 40
0
 40
0
 40
0
 40
1
 40
1
 40
1
 40
1
 10
336.646448
 20
381.298924
 30
0.0
 10
336.646448
 20
389.098924
 30
0.0
 10
334.246448
 20
394.598924
 30
0.0
 10
329.746448
 20
397.398924
 30
0.0
  0
SPLINE
  5
293
100
AcDbEntity
  8
Layer_1
 62
7
100
AcDbSpline
 70
8
 71
3
 72
8
 73
4
 74
0
 40
0
 40
0
 40
0
 40
0
 40
1
 40
1
 40
1
 40
1
 10
329.746448
 20
397.398924
 30
0.0
 10
326.046448
 20
399.598924
 30
0.0
 10
322.246448
 20
399.698924
 30
0.0
 10
316.346448
 20
397.598924
 30
0.0
  0
LWPOLYLINE
  5
294
100
AcDbEntity
  8
Layer_1
 62
7
100
AcDbPolyline
 90
3
 70
0
 10
313.646448
 20
359.298924
 30
0.0
 10
309.946448
 20
354.198924
 30
0.0
 10
312.746448
 20
354.798924
 30
0.0
  0
SPLINE
  5
295
100
AcDbEntity
  8
Layer_1
 62
7
100
AcDbSpline
 70
8
 71
3
 72
8
 73
4
 74
0
 40
0
 40
0
 40
0
 40
0
 40
1
 40
1
 40
1
 40
1
 10
330.046448
 20
394.698924
 30
0.0
 10
337.946448
 20
388.098924
 30
0.0
 10
336.246448
 20
371.898924
 30
0.0
 10
326.746448
 20
363.498924
 30
0.0
  0
SPLINE
  5
296
100
AcDbEntity
  8
Layer_1
 62
7
100
AcDbSpline
 70
8
 71
3
 72
8
 73
4
 74
0
 40
0
 40
0
 40
0
 40
0
 40
1
 40
1
 40
1
 40
1
 10
326.746448
 20
363.498924
 30
0.0
 10
323.146448
 20
360.398924
 30
0.0
 10
316.246448
 20
356.798924
 30
0.0
 10
315.446448
 20
357.698924
 30
0.0
  0
SPLINE
  5
297
100
AcDbEntity
  8
Layer_1
 62
7
100
AcDbSpline
 70
8
 71
3
 72
8
 73
4
 74
0
 40
0
 40
0
 40
0
 40
0
 40
1
 40
1
 40
1
 40
1
 10
315.446448
 20
357.698924
 30
0.0
 10
315.146448
 20
357.898924
 30
0.0
 10
316.146448
 20
359.798924
 30
0.0
 10
317.546448
 20
361.998924
 30
0.0
  0
SPLINE
  5
298
100
AcDbEntity
  8
Layer_1
 62
7
100
AcDbSpline
 70
8
 71
3
 72
8
 73
4
 74
0
 40
0
 40
0
 40
0
 40
0
 40
1
 40
1
 40
1
 40
1
 10
317.546448
 20
361.998924
 30
0.0
 10
324.746448
 20
372.898924
 30
0.0
 10
324.946448
 20
385.598924
 30
0.0
 10
317.946448
 20
392.998924
 30
0.0
  0
LWPOLYLINE
  5
299
100
AcDbEntity
  8
Layer_1
 62
7
100
AcDbPolyline
 90
2
 70
0
 10
316.346448
 20
397.598924
 30
0.0
 10
316.346448
 20
397.598924
 30
0.0
  0
SPLINE
  5
29a
100
AcDbEntity
  8
Layer_1
 62
7
100
AcDbSpline
 70
8
 71
3
 72
8
 73
4
 74
0
 40
0
 40
0
 40
0
 40
0
 40
1
 40
1
 40
1
 40
1
 10
318.246448
 20
396.198924
 30
0.0
 10
322.646448
 20
397.998924
 30
0.0
 10
326.846448
 20
397.398924
 30
0.0
 10
330.046448
 20
394.698924
 30
0.0
  0
LWPOLYLINE
  5
29b
100
AcDbEntity
  8
Layer_1
 62
7
100
AcDbPolyline
 90
3
 70
0
 10
317.946448
 20
392.998924
 30
0.0
 10
315.846448
 20
395.298924
 30
0.0
 10
318.246448
 20
396.198924
 30
0.0
  0
SPLINE
  5
29c
100
AcDbEntity
  8
Layer_1
 62
7
100
AcDbSpline
 70
8
 71
3
 72
8
 73
4
 74
0
 40
0
 40
0
 40
0
 40
0
 40
1
 40
1
 40
1
 40
1
 10
298.646448
 20
392.998924
 30
0.0
 10
300.546448
 20
388.398924
 30
0.0
 10
300.546448
 20
379.298924
 30
0.0
 10
298.746448
 20
374.798924
 30
0.0
  0
SPLINE
  5
29d
100
AcDbEntity
  8
Layer_1
 62
7
100
AcDbSpline
 70
8
 71
3
 72
8
 73
4
 74
0
 40
0
 40
0
 40
0
 40
0
 40
1
 40
1
 40
1
 40
1
 10
298.746448
 20
374.798924
 30
0.0
 10
296.646448
 20
369.798924
 30
0.0
 10
289.746448
 20
362.798924
 30
0.0
 10
282.846448
 20
358.598924
 30
0.0
  0
LWPOLYLINE
  5
29e
100
AcDbEntity
  8
Layer_1
 62
7
100
AcDbPolyline
 90
2
 70
0
 10
330.046448
 20
394.698924
 30
0.0
 10
330.046448
 20
394.698924
 30
0.0
  0
SPLINE
  5
29f
100
AcDbEntity
  8
Layer_1
 62
7
100
AcDbSpline
 70
8
 71
3
 72
8
 73
4
 74
0
 40
0
 40
0
 40
0
 40
0
 40
1
 40
1
 40
1
 40
1
 10
280.146448
 20
353.998924
 30
0.0
 10
285.146448
 20
352.698924
 30
0.0
 10
295.846448
 20
353.798924
 30
0.0
 10
301.446448
 20
356.198924
 30
0.0
  0
SPLINE
  5
2a0
100
AcDbEntity
  8
Layer_1
 62
7
100
AcDbSpline
 70
8
 71
3
 72
8
 73
4
 74
0
 40
0
 40
0
 40
0
 40
0
 40
1
 40
1
 40
1
 40
1
 10
301.446448
 20
356.198924
 30
0.0
 10
304.046448
 20
357.298924
 30
0.0
 10
308.346448
 20
360.398924
 30
0.0
 10
311.046448
 20
363.098924
 30
0.0
  0
SPLINE
  5
2a1
100
AcDbEntity
  8
Layer_1
 62
7
100
AcDbSpline
 70
8
 71
3
 72
8
 73
4
 74
0
 40
0
 40
0
 40
0
 40
0
 40
1
 40
1
 40
1
 40
1
 10
311.046448
 20
363.098924
 30
0.0
 10
315.046448
 20
367.098924
 30
0.0
 10
316.146448
 20
368.998924
 30
0.0
 10
317.146448
 20
373.598924
 30
0.0
  0
SPLINE
  5
2a2
100
AcDbEntity
  8
Layer_1
 62
7
100
AcDbSpline
 70
8
 71
3
 72
8
 73
4
 74
0
 40
0
 40
0
 40
0
 40
0
 40
1
 40
1
 40
1
 40
1
 10
317.146448
 20
373.598924
 30
0.0
 10
319.746448
 20
386.498924
 30
0.0
 10
314.046448
 20
394.698924
 30
0.0
 10
301.446448
 20
396.098924
 30
0.0
  0
LWPOLYLINE
  5
2a3
100
AcDbEntity
  8
Layer_1
 62
7
100
AcDbPolyline
 90
3
 70
0
 10
282.846448
 20
358.598924
 30
0.0
 10
276.746448
 20
354.898924
 30
0.0
 10
280.146448
 20
353.998924
 30
0.0
  0
SPLINE
  5
2a4
100
AcDbEntity
  8
Layer_1
 62
7
100
AcDbSpline
 70
8
 71
3
 72
8
 73
4
 74
0
 40
0
 40
0
 40
0
 40
0
 40
1
 40
1
 40
1
 40
1
 10
306.346448
 20
393.098924
 30
0.0
 10
314.046448
 20
390.798924
 30
0.0
 10
317.446448
 20
383.498924
 30
0.0
 10
315.246448
 20
373.698924
 30
0.0
  0
SPLINE
  5
2a5
100
AcDbEntity
  8
Layer_1
 62
7
100
AcDbSpline
 70
8
 71
3
 72
8
 73
4
 74
0
 40
0
 40
0
 40
0
 40
0
 40
1
 40
1
 40
1
 40
1
 10
315.246448
 20
373.698924
 30
0.0
 10
314.246448
 20
369.198924
 30
0.0
 10
313.146448
 20
367.598924
 30
0.0
 10
308.746448
 20
363.498924
 30
0.0
  0
SPLINE
  5
2a6
100
AcDbEntity
  8
Layer_1
 62
7
100
AcDbSpline
 70
8
 71
3
 72
8
 73
4
 74
0
 40
0
 40
0
 40
0
 40
0
 40
1
 40
1
 40
1
 40
1
 10
308.746448
 20
363.498924
 30
0.0
 10
302.546448
 20
357.898924
 30
0.0
 10
295.646448
 20
355.298924
 30
0.0
 10
287.246448
 20
355.398924
 30
0.0
  0
SPLINE
  5
2a7
100
AcDbEntity
  8
Layer_1
 62
7
100
AcDbSpline
 70
8
 71
3
 72
8
 73
4
 74
0
 40
0
 40
0
 40
0
 40
0
 40
1
 40
1
 40
1
 40
1
 10
287.246448
 20
355.398924
 30
0.0
 10
282.546448
 20
355.398924
 30
0.0
 10
281.946448
 20
355.598924
 30
0.0
 10
283.546448
 20
356.598924
 30
0.0
  0
SPLINE
  5
2a8
100
AcDbEntity
  8
Layer_1
 62
7
100
AcDbSpline
 70
8
 71
3
 72
8
 73
4
 74
0
 40
0
 40
0
 40
0
 40
0
 40
1
 40
1
 40
1
 40
1
 10
283.546448
 20
356.598924
 30
0.0
 10
289.146448
 20
360.098924
 30
0.0
 10
295.946448
 20
366.398924
 30
0.0
 10
298.446448
 20
370.498924
 30
0.0
  0
SPLINE
  5
2a9
100
AcDbEntity
  8
Layer_1
 62
7
100
AcDbSpline
 70
8
 71
3
 72
8
 73
4
 74
0
 40
0
 40
0
 40
0
 40
0
 40
1
 40
1
 40
1
 40
1
 10
298.446448
 20
370.498924
 30
0.0
 10
301.746448
 20
375.798924
 30
0.0
 10
303.046448
 20
384.598924
 30
0.0
 10
301.346448
 20
390.598924
 30
0.0
  0
SPLINE
  5
2aa
100
AcDbEntity
  8
Layer_1
 62
7
100
AcDbSpline
 70
8
 71
3
 72
8
 73
4
 74
0
 40
0
 40
0
 40
0
 40
0
 40
1
 40
1
 40
1
 40
1
 10
301.346448
 20
390.598924
 30
0.0
 10
300.146448
 20
394.798924
 30
0.0
 10
300.346448
 20
394.898924
 30
0.0
 10
306.346448
 20
393.098924
 30
0.0
  0
LWPOLYLINE
  5
2ab
100
AcDbEntity
  8
Layer_1
 62
7
100
AcDbPolyline
 90
4
 70
0
 10
301.446448
 20
396.098924
 30
0.0
 10
297.146448
 20
396.598924
 30
0.0
 10
298.646448
 20
392.998924
 30
0.0
 10
298.646448
 20
392.998924
 30
0.0
  0
SPLINE
  5
2ac
100
AcDbEntity
  8
Layer_1
 62
7
100
AcDbSpline
 70
8
 71
3
 72
8
 73
4
 74
0
 40
0
 40
0
 40
0
 40
0
 40
1
 40
1
 40
1
 40
1
 10
379.546448
 20
394.798924
 30
0.0
 10
369.946448
 20
392.698924
 30
0.0
 10
363.846448
 20
389.698924
 30
0.0
 10
360.046448
 20
384.998924
 30
0.0
  0
SPLINE
  5
2ad
100
AcDbEntity
  8
Layer_1
 62
7
100
AcDbSpline
 70
8
 71
3
 72
8
 73
4
 74
0
 40
0
 40
0
 40
0
 40
0
 40
1
 40
1
 40
1
 40
1
 10
360.046448
 20
384.998924
 30
0.0
 10
354.946448
 20
378.898924
 30
0.0
 10
347.146448
 20
367.698924
 30
0.0
 10
347.146448
 20
366.598924
 30
0.0
  0
SPLINE
  5
2ae
100
AcDbEntity
  8
Layer_1
 62
7
100
AcDbSpline
 70
8
 71
3
 72
8
 73
4
 74
0
 40
0
 40
0
 40
0
 40
0
 40
1
 40
1
 40
1
 40
1
 10
347.146448
 20
366.598924
 30
0.0
 10
347.146448
 20
365.998924
 30
0.0
 10
350.546448
 20
365.298924
 30
0.0
 10
354.646448
 20
364.998924
 30
0.0
  0
SPLINE
  5
2af
100
AcDbEntity
  8
Layer_1
 62
7
100
AcDbSpline
 70
8
 71
3
 72
8
 73
4
 74
0
 40
0
 40
0
 40
0
 40
0
 40
1
 40
1
 40
1
 40
1
 10
354.646448
 20
364.998924
 30
0.0
 10
365.346448
 20
364.198924
 30
0.0
 10
376.846448
 20
358.598924
 30
0.0
 10
385.246448
 20
349.998924
 30
0.0
  0
SPLINE
  5
2b0
100
AcDbEntity
  8
Layer_1
 62
7
100
AcDbSpline
 70
8
 71
3
 72
8
 73
4
 74
0
 40
0
 40
0
 40
0
 40
0
 40
1
 40
1
 40
1
 40
1
 10
385.246448
 20
349.998924
 30
0.0
 10
392.046448
 20
342.998924
 30
0.0
 10
398.346448
 20
333.898924
 30
0.0
 10
400.746448
 20
327.598924
 30
0.0
  0
SPLINE
  5
2b1
100
AcDbEntity
  8
Layer_1
 62
7
100
AcDbSpline
 70
8
 71
3
 72
8
 73
4
 74
0
 40
0
 40
0
 40
0
 40
0
 40
1
 40
1
 40
1
 40
1
 10
400.746448
 20
327.598924
 30
0.0
 10
401.846448
 20
324.898924
 30
0.0
 10
403.046448
 20
323.298924
 30
0.0
 10
404.046448
 20
323.298924
 30
0.0
  0
SPLINE
  5
2b2
100
AcDbEntity
  8
Layer_1
 62
7
100
AcDbSpline
 70
8
 71
3
 72
8
 73
4
 74
0
 40
0
 40
0
 40
0
 40
0
 40
1
 40
1
 40
1
 40
1
 10
404.046448
 20
323.298924
 30
0.0
 10
405.046448
 20
323.298924
 30
0.0
 10
406.546448
 20
322.698924
 30
0.0
 10
407.546448
 20
321.998924
 30
0.0
  0
SPLINE
  5
2b3
100
AcDbEntity
  8
Layer_1
 62
7
100
AcDbSpline
 70
8
 71
3
 72
8
 73
4
 74
0
 40
0
 40
0
 40
0
 40
0
 40
1
 40
1
 40
1
 40
1
 10
407.546448
 20
321.998924
 30
0.0
 10
409.146448
 20
320.798924
 30
0.0
 10
409.146448
 20
320.598924
 30
0.0
 10
407.246448
 20
318.198924
 30
0.0
  0
SPLINE
  5
2b4
100
AcDbEntity
  8
Layer_1
 62
7
100
AcDbSpline
 70
8
 71
3
 72
8
 73
4
 74
0
 40
0
 40
0
 40
0
 40
0
 40
1
 40
1
 40
1
 40
1
 10
407.246448
 20
318.198924
 30
0.0
 10
405.546448
 20
315.898924
 30
0.0
 10
405.246448
 20
314.198924
 30
0.0
 10
405.346448
 20
302.698924
 30
0.0
  0
SPLINE
  5
2b5
100
AcDbEntity
  8
Layer_1
 62
7
100
AcDbSpline
 70
8
 71
3
 72
8
 73
4
 74
0
 40
0
 40
0
 40
0
 40
0
 40
1
 40
1
 40
1
 40
1
 10
405.346448
 20
302.698924
 30
0.0
 10
405.346448
 20
295.598924
 30
0.0
 10
405.046448
 20
287.598924
 30
0.0
 10
404.646448
 20
284.798924
 30
0.0
  0
SPLINE
  5
2b6
100
AcDbEntity
  8
Layer_1
 62
7
100
AcDbSpline
 70
8
 71
3
 72
8
 73
4
 74
0
 40
0
 40
0
 40
0
 40
0
 40
1
 40
1
 40
1
 40
1
 10
404.646448
 20
284.798924
 30
0.0
 10
403.646448
 20
277.398924
 30
0.0
 10
399.346448
 20
261.898924
 30
0.0
 10
396.646448
 20
255.698924
 30
0.0
  0
SPLINE
  5
2b7
100
AcDbEntity
  8
Layer_1
 62
7
100
AcDbSpline
 70
8
 71
3
 72
8
 73
4
 74
0
 40
0
 40
0
 40
0
 40
0
 40
1
 40
1
 40
1
 40
1
 10
396.646448
 20
255.698924
 30
0.0
 10
395.346448
 20
252.798924
 30
0.0
 10
394.646448
 20
250.098924
 30
0.0
 10
395.146448
 20
249.798924
 30
0.0
  0
SPLINE
  5
2b8
100
AcDbEntity
  8
Layer_1
 62
7
100
AcDbSpline
 70
8
 71
3
 72
8
 73
4
 74
0
 40
0
 40
0
 40
0
 40
0
 40
1
 40
1
 40
1
 40
1
 10
395.146448
 20
249.798924
 30
0.0
 10
396.146448
 20
249.198924
 30
0.0
 10
411.446448
 20
260.898924
 30
0.0
 10
420.046448
 20
268.898924
 30
0.0
  0
SPLINE
  5
2b9
100
AcDbEntity
  8
Layer_1
 62
7
100
AcDbSpline
 70
8
 71
3
 72
8
 73
4
 74
0
 40
0
 40
0
 40
0
 40
0
 40
1
 40
1
 40
1
 40
1
 10
420.046448
 20
268.898924
 30
0.0
 10
428.246448
 20
276.498924
 30
0.0
 10
438.246448
 20
289.098924
 30
0.0
 10
442.546448
 20
297.198924
 30
0.0
  0
SPLINE
  5
2ba
100
AcDbEntity
  8
Layer_1
 62
7
100
AcDbSpline
 70
8
 71
3
 72
8
 73
4
 74
0
 40
0
 40
0
 40
0
 40
0
 40
1
 40
1
 40
1
 40
1
 10
442.546448
 20
297.198924
 30
0.0
 10
448.146448
 20
307.998924
 30
0.0
 10
449.446448
 20
314.098924
 30
0.0
 10
448.846448
 20
326.298924
 30
0.0
  0
SPLINE
  5
2bb
100
AcDbEntity
  8
Layer_1
 62
7
100
AcDbSpline
 70
8
 71
3
 72
8
 73
4
 74
0
 40
0
 40
0
 40
0
 40
0
 40
1
 40
1
 40
1
 40
1
 10
448.846448
 20
326.298924
 30
0.0
 10
448.146448
 20
339.798924
 30
0.0
 10
445.346448
 20
350.198924
 30
0.0
 10
438.946448
 20
363.298924
 30
0.0
  0
SPLINE
  5
2bc
100
AcDbEntity
  8
Layer_1
 62
7
100
AcDbSpline
 70
8
 71
3
 72
8
 73
4
 74
0
 40
0
 40
0
 40
0
 40
0
 40
1
 40
1
 40
1
 40
1
 10
438.946448
 20
363.298924
 30
0.0
 10
430.546448
 20
380.298924
 30
0.0
 10
418.446448
 20
390.498924
 30
0.0
 10
401.646448
 20
394.798924
 30
0.0
  0
SPLINE
  5
2bd
100
AcDbEntity
  8
Layer_1
 62
7
100
AcDbSpline
 70
8
 71
3
 72
8
 73
4
 74
0
 40
0
 40
0
 40
0
 40
0
 40
1
 40
1
 40
1
 40
1
 10
401.646448
 20
394.798924
 30
0.0
 10
394.546448
 20
396.598924
 30
0.0
 10
387.746448
 20
396.598924
 30
0.0
 10
379.546448
 20
394.798924
 30
0.0
  0
LWPOLYLINE
  5
2be
100
AcDbEntity
  8
Layer_1
 62
7
100
AcDbPolyline
 90
2
 70
0
 10
306.346448
 20
393.098924
 30
0.0
 10
306.346448
 20
393.098924
 30
0.0
  0
SPLINE
  5
2bf
100
AcDbEntity
  8
Layer_1
 62
7
100
AcDbSpline
 70
8
 71
3
 72
8
 73
4
 74
0
 40
0
 40
0
 40
0
 40
0
 40
1
 40
1
 40
1
 40
1
 10
402.046448
 20
392.798924
 30
0.0
 10
411.146448
 20
390.398924
 30
0.0
 10
418.246448
 20
386.198924
 30
0.0
 10
425.746448
 20
378.798924
 30
0.0
  0
SPLINE
  5
2c0
100
AcDbEntity
  8
Layer_1
 62
7
100
AcDbSpline
 70
8
 71
3
 72
8
 73
4
 74
0
 40
0
 40
0
 40
0
 40
0
 40
1
 40
1
 40
1
 40
1
 10
425.746448
 20
378.798924
 30
0.0
 10
431.446448
 20
373.198924
 30
0.0
 10
433.746448
 20
369.898924
 30
0.0
 10
437.446448
 20
362.298924
 30
0.0
  0
SPLINE
  5
2c1
100
AcDbEntity
  8
Layer_1
 62
7
100
AcDbSpline
 70
8
 71
3
 72
8
 73
4
 74
0
 40
0
 40
0
 40
0
 40
0
 40
1
 40
1
 40
1
 40
1
 10
437.446448
 20
362.298924
 30
0.0
 10
445.146448
 20
346.498924
 30
0.0
 10
448.846448
 20
327.698924
 30
0.0
 10
446.946448
 20
314.498924
 30
0.0
  0
SPLINE
  5
2c2
100
AcDbEntity
  8
Layer_1
 62
7
100
AcDbSpline
 70
8
 71
3
 72
8
 73
4
 74
0
 40
0
 40
0
 40
0
 40
0
 40
1
 40
1
 40
1
 40
1
 10
446.946448
 20
314.498924
 30
0.0
 10
445.146448
 20
302.198924
 30
0.0
 10
434.946448
 20
286.098924
 30
0.0
 10
419.446448
 20
271.198924
 30
0.0
  0
SPLINE
  5
2c3
100
AcDbEntity
  8
Layer_1
 62
7
100
AcDbSpline
 70
8
 71
3
 72
8
 73
4
 74
0
 40
0
 40
0
 40
0
 40
0
 40
1
 40
1
 40
1
 40
1
 10
419.446448
 20
271.198924
 30
0.0
 10
411.646448
 20
263.698924
 30
0.0
 10
398.146448
 20
252.498924
 30
0.0
 10
398.146448
 20
253.598924
 30
0.0
  0
SPLINE
  5
2c4
100
AcDbEntity
  8
Layer_1
 62
7
100
AcDbSpline
 70
8
 71
3
 72
8
 73
4
 74
0
 40
0
 40
0
 40
0
 40
0
 40
1
 40
1
 40
1
 40
1
 10
398.146448
 20
253.598924
 30
0.0
 10
398.146448
 20
253.798924
 30
0.0
 10
399.246448
 20
257.298924
 30
0.0
 10
400.646448
 20
261.398924
 30
0.0
  0
SPLINE
  5
2c5
100
AcDbEntity
  8
Layer_1
 62
7
100
AcDbSpline
 70
8
 71
3
 72
8
 73
4
 74
0
 40
0
 40
0
 40
0
 40
0
 40
1
 40
1
 40
1
 40
1
 10
400.646448
 20
261.398924
 30
0.0
 10
405.246448
 20
274.798924
 30
0.0
 10
407.246448
 20
287.298924
 30
0.0
 10
407.046448
 20
301.198924
 30
0.0
  0
SPLINE
  5
2c6
100
AcDbEntity
  8
Layer_1
 62
7
100
AcDbSpline
 70
8
 71
3
 72
8
 73
4
 74
0
 40
0
 40
0
 40
0
 40
0
 40
1
 40
1
 40
1
 40
1
 10
407.046448
 20
301.198924
 30
0.0
 10
406.946448
 20
312.498924
 30
0.0
 10
407.146448
 20
314.298924
 30
0.0
 10
409.046448
 20
317.398924
 30
0.0
  0
SPLINE
  5
2c7
100
AcDbEntity
  8
Layer_1
 62
7
100
AcDbSpline
 70
8
 71
3
 72
8
 73
4
 74
0
 40
0
 40
0
 40
0
 40
0
 40
1
 40
1
 40
1
 40
1
 10
409.046448
 20
317.398924
 30
0.0
 10
410.146448
 20
319.198924
 30
0.0
 10
411.146448
 20
321.198924
 30
0.0
 10
411.146448
 20
321.598924
 30
0.0
  0
SPLINE
  5
2c8
100
AcDbEntity
  8
Layer_1
 62
7
100
AcDbSpline
 70
8
 71
3
 72
8
 73
4
 74
0
 40
0
 40
0
 40
0
 40
0
 40
1
 40
1
 40
1
 40
1
 10
411.146448
 20
321.598924
 30
0.0
 10
411.146448
 20
322.098924
 30
0.0
 10
409.446448
 20
323.098924
 30
0.0
 10
407.346448
 20
323.998924
 30
0.0
  0
SPLINE
  5
2c9
100
AcDbEntity
  8
Layer_1
 62
7
100
AcDbSpline
 70
8
 71
3
 72
8
 73
4
 74
0
 40
0
 40
0
 40
0
 40
0
 40
1
 40
1
 40
1
 40
1
 10
407.346448
 20
323.998924
 30
0.0
 10
404.546448
 20
325.098924
 30
0.0
 10
403.146448
 20
326.398924
 30
0.0
 10
402.246448
 20
328.798924
 30
0.0
  0
SPLINE
  5
2ca
100
AcDbEntity
  8
Layer_1
 62
7
100
AcDbSpline
 70
8
 71
3
 72
8
 73
4
 74
0
 40
0
 40
0
 40
0
 40
0
 40
1
 40
1
 40
1
 40
1
 10
402.246448
 20
328.798924
 30
0.0
 10
400.046448
 20
334.898924
 30
0.0
 10
391.546448
 20
346.698924
 30
0.0
 10
385.046448
 20
352.698924
 30
0.0
  0
SPLINE
  5
2cb
100
AcDbEntity
  8
Layer_1
 62
7
100
AcDbSpline
 70
8
 71
3
 72
8
 73
4
 74
0
 40
0
 40
0
 40
0
 40
0
 40
1
 40
1
 40
1
 40
1
 10
385.046448
 20
352.698924
 30
0.0
 10
377.346448
 20
359.898924
 30
0.0
 10
366.746448
 20
365.098924
 30
0.0
 10
357.146448
 20
366.598924
 30
0.0
  0
SPLINE
  5
2cc
100
AcDbEntity
  8
Layer_1
 62
7
100
AcDbSpline
 70
8
 71
3
 72
8
 73
4
 74
0
 40
0
 40
0
 40
0
 40
0
 40
1
 40
1
 40
1
 40
1
 10
357.146448
 20
366.598924
 30
0.0
 10
353.246448
 20
367.198924
 30
0.0
 10
350.146448
 20
367.998924
 30
0.0
 10
350.146448
 20
368.298924
 30
0.0
  0
SPLINE
  5
2cd
100
AcDbEntity
  8
Layer_1
 62
7
100
AcDbSpline
 70
8
 71
3
 72
8
 73
4
 74
0
 40
0
 40
0
 40
0
 40
0
 40
1
 40
1
 40
1
 40
1
 10
350.146448
 20
368.298924
 30
0.0
 10
350.146448
 20
368.598924
 30
0.0
 10
353.146448
 20
372.898924
 30
0.0
 10
356.946448
 20
377.798924
 30
0.0
  0
SPLINE
  5
2ce
100
AcDbEntity
  8
Layer_1
 62
7
100
AcDbSpline
 70
8
 71
3
 72
8
 73
4
 74
0
 40
0
 40
0
 40
0
 40
0
 40
1
 40
1
 40
1
 40
1
 10
356.946448
 20
377.798924
 30
0.0
 10
362.146448
 20
384.798924
 30
0.0
 10
364.746448
 20
387.298924
 30
0.0
 10
368.546448
 20
389.198924
 30
0.0
  0
SPLINE
  5
2cf
100
AcDbEntity
  8
Layer_1
 62
7
100
AcDbSpline
 70
8
 71
3
 72
8
 73
4
 74
0
 40
0
 40
0
 40
0
 40
0
 40
1
 40
1
 40
1
 40
1
 10
368.546448
 20
389.198924
 30
0.0
 10
378.446448
 20
394.098924
 30
0.0
 10
391.746448
 20
395.598924
 30
0.0
 10
402.046448
 20
392.798924
 30
0.0
  0
LWPOLYLINE
  5
2d0
100
AcDbEntity
  8
Layer_1
 62
7
100
AcDbPolyline
 90
2
 70
0
 10
379.546448
 20
394.798924
 30
0.0
 10
379.546448
 20
394.798924
 30
0.0
  0
SPLINE
  5
2d1
100
AcDbEntity
  8
Layer_1
 62
7
100
AcDbSpline
 70
8
 71
3
 72
8
 73
4
 74
0
 40
0
 40
0
 40
0
 40
0
 40
1
 40
1
 40
1
 40
1
 10
234.746448
 20
364.598924
 30
0.0
 10
232.146448
 20
335.098924
 30
0.0
 10
215.846448
 20
312.898924
 30
0.0
 10
186.746448
 20
299.198924
 30
0.0
  0
SPLINE
  5
2d2
100
AcDbEntity
  8
Layer_1
 62
7
100
AcDbSpline
 70
8
 71
3
 72
8
 73
4
 74
0
 40
0
 40
0
 40
0
 40
0
 40
1
 40
1
 40
1
 40
1
 10
186.746448
 20
299.198924
 30
0.0
 10
178.946448
 20
295.598924
 30
0.0
 10
178.346448
 20
295.098924
 30
0.0
 10
177.846448
 20
291.698924
 30
0.0
  0
SPLINE
  5
2d3
100
AcDbEntity
  8
Layer_1
 62
7
100
AcDbSpline
 70
8
 71
3
 72
8
 73
4
 74
0
 40
0
 40
0
 40
0
 40
0
 40
1
 40
1
 40
1
 40
1
 10
177.846448
 20
291.698924
 30
0.0
 10
177.246448
 20
288.098924
 30
0.0
 10
175.646448
 20
285.298924
 30
0.0
 10
174.046448
 20
285.298924
 30
0.0
  0
SPLINE
  5
2d4
100
AcDbEntity
  8
Layer_1
 62
7
100
AcDbSpline
 70
8
 71
3
 72
8
 73
4
 74
0
 40
0
 40
0
 40
0
 40
0
 40
1
 40
1
 40
1
 40
1
 10
174.046448
 20
285.298924
 30
0.0
 10
173.546448
 20
285.298924
 30
0.0
 10
171.646448
 20
286.698924
 30
0.0
 10
169.746448
 20
288.298924
 30
0.0
  0
LWPOLYLINE
  5
2d5
100
AcDbEntity
  8
Layer_1
 62
7
100
AcDbPolyline
 90
2
 70
0
 10
402.046448
 20
392.798924
 30
0.0
 10
402.046448
 20
392.798924
 30
0.0
  0
SPLINE
  5
2d6
100
AcDbEntity
  8
Layer_1
 62
7
100
AcDbSpline
 70
8
 71
3
 72
8
 73
4
 74
0
 40
0
 40
0
 40
0
 40
0
 40
1
 40
1
 40
1
 40
1
 10
147.046448
 20
291.698924
 30
0.0
 10
131.646448
 20
291.998924
 30
0.0
 10
125.746448
 20
292.498924
 30
0.0
 10
118.646448
 20
294.198924
 30
0.0
  0
SPLINE
  5
2d7
100
AcDbEntity
  8
Layer_1
 62
7
100
AcDbSpline
 70
8
 71
3
 72
8
 73
4
 74
0
 40
0
 40
0
 40
0
 40
0
 40
1
 40
1
 40
1
 40
1
 10
118.646448
 20
294.198924
 30
0.0
 10
106.646448
 20
296.998924
 30
0.0
 10
93.146448
 20
301.598924
 30
0.0
 10
84.846448
 20
305.598924
 30
0.0
  0
SPLINE
  5
2d8
100
AcDbEntity
  8
Layer_1
 62
7
100
AcDbSpline
 70
8
 71
3
 72
8
 73
4
 74
0
 40
0
 40
0
 40
0
 40
0
 40
1
 40
1
 40
1
 40
1
 10
84.846448
 20
305.598924
 30
0.0
 10
81.146448
 20
307.498924
 30
0.0
 10
77.846448
 20
308.598924
 30
0.0
 10
77.646448
 20
308.198924
 30
0.0
  0
SPLINE
  5
2d9
100
AcDbEntity
  8
Layer_1
 62
7
100
AcDbSpline
 70
8
 71
3
 72
8
 73
4
 74
0
 40
0
 40
0
 40
0
 40
0
 40
1
 40
1
 40
1
 40
1
 10
77.646448
 20
308.198924
 30
0.0
 10
76.546448
 20
306.598924
 30
0.0
 10
94.646448
 20
284.698924
 30
0.0
 10
108.646448
 20
270.798924
 30
0.0
  0
SPLINE
  5
2da
100
AcDbEntity
  8
Layer_1
 62
7
100
AcDbSpline
 70
8
 71
3
 72
8
 73
4
 74
0
 40
0
 40
0
 40
0
 40
0
 40
1
 40
1
 40
1
 40
1
 10
108.646448
 20
270.798924
 30
0.0
 10
131.346448
 20
248.098924
 30
0.0
 10
150.246448
 20
236.498924
 30
0.0
 10
167.846448
 20
234.498924
 30
0.0
  0
SPLINE
  5
2db
100
AcDbEntity
  8
Layer_1
 62
7
100
AcDbSpline
 70
8
 71
3
 72
8
 73
4
 74
0
 40
0
 40
0
 40
0
 40
0
 40
1
 40
1
 40
1
 40
1
 10
167.846448
 20
234.498924
 30
0.0
 10
198.646448
 20
231.198924
 30
0.0
 10
240.646448
 20
246.298924
 30
0.0
 10
258.546448
 20
267.298924
 30
0.0
  0
SPLINE
  5
2dc
100
AcDbEntity
  8
Layer_1
 62
7
100
AcDbSpline
 70
8
 71
3
 72
8
 73
4
 74
0
 40
0
 40
0
 40
0
 40
0
 40
1
 40
1
 40
1
 40
1
 10
258.546448
 20
267.298924
 30
0.0
 10
268.746448
 20
279.198924
 30
0.0
 10
275.046448
 20
298.898924
 30
0.0
 10
275.146448
 20
318.998924
 30
0.0
  0
SPLINE
  5
2dd
100
AcDbEntity
  8
Layer_1
 62
7
100
AcDbSpline
 70
8
 71
3
 72
8
 73
4
 74
0
 40
0
 40
0
 40
0
 40
0
 40
1
 40
1
 40
1
 40
1
 10
275.146448
 20
318.998924
 30
0.0
 10
275.146448
 20
334.398924
 30
0.0
 10
270.946448
 20
342.398924
 30
0.0
 10
257.146448
 20
353.098924
 30
0.0
  0
SPLINE
  5
2de
100
AcDbEntity
  8
Layer_1
 62
7
100
AcDbSpline
 70
8
 71
3
 72
8
 73
4
 74
0
 40
0
 40
0
 40
0
 40
0
 40
1
 40
1
 40
1
 40
1
 10
257.146448
 20
353.098924
 30
0.0
 10
251.946448
 20
357.098924
 30
0.0
 10
244.946448
 20
363.098924
 30
0.0
 10
241.546448
 20
366.398924
 30
0.0
  0
LWPOLYLINE
  5
2df
100
AcDbEntity
  8
Layer_1
 62
7
100
AcDbPolyline
 90
3
 70
0
 10
169.746448
 20
288.298924
 30
0.0
 10
166.346448
 20
291.298924
 30
0.0
 10
147.046448
 20
291.698924
 30
0.0
  0
SPLINE
  5
2e0
100
AcDbEntity
  8
Layer_1
 62
7
100
AcDbSpline
 70
8
 71
3
 72
8
 73
4
 74
0
 40
0
 40
0
 40
0
 40
0
 40
1
 40
1
 40
1
 40
1
 10
244.046448
 20
361.498924
 30
0.0
 10
247.646448
 20
358.298924
 30
0.0
 10
253.346448
 20
353.598924
 30
0.0
 10
256.646448
 20
351.098924
 30
0.0
  0
SPLINE
  5
2e1
100
AcDbEntity
  8
Layer_1
 62
7
100
AcDbSpline
 70
8
 71
3
 72
8
 73
4
 74
0
 40
0
 40
0
 40
0
 40
0
 40
1
 40
1
 40
1
 40
1
 10
256.646448
 20
351.098924
 30
0.0
 10
268.846448
 20
341.798924
 30
0.0
 10
272.246448
 20
335.798924
 30
0.0
 10
272.946448
 20
322.698924
 30
0.0
  0
SPLINE
  5
2e2
100
AcDbEntity
  8
Layer_1
 62
7
100
AcDbSpline
 70
8
 71
3
 72
8
 73
4
 74
0
 40
0
 40
0
 40
0
 40
0
 40
1
 40
1
 40
1
 40
1
 10
272.946448
 20
322.698924
 30
0.0
 10
274.246448
 20
298.698924
 30
0.0
 10
265.546448
 20
274.698924
 30
0.0
 10
251.046448
 20
261.998924
 30
0.0
  0
SPLINE
  5
2e3
100
AcDbEntity
  8
Layer_1
 62
7
100
AcDbSpline
 70
8
 71
3
 72
8
 73
4
 74
0
 40
0
 40
0
 40
0
 40
0
 40
1
 40
1
 40
1
 40
1
 10
251.046448
 20
261.998924
 30
0.0
 10
241.046448
 20
253.198924
 30
0.0
 10
222.046448
 20
243.898924
 30
0.0
 10
205.646448
 20
239.798924
 30
0.0
  0
SPLINE
  5
2e4
100
AcDbEntity
  8
Layer_1
 62
7
100
AcDbSpline
 70
8
 71
3
 72
8
 73
4
 74
0
 40
0
 40
0
 40
0
 40
0
 40
1
 40
1
 40
1
 40
1
 10
205.646448
 20
239.798924
 30
0.0
 10
192.446448
 20
236.398924
 30
0.0
 10
176.046448
 20
234.998924
 30
0.0
 10
167.446448
 20
236.298924
 30
0.0
  0
SPLINE
  5
2e5
100
AcDbEntity
  8
Layer_1
 62
7
100
AcDbSpline
 70
8
 71
3
 72
8
 73
4
 74
0
 40
0
 40
0
 40
0
 40
0
 40
1
 40
1
 40
1
 40
1
 10
167.446448
 20
236.298924
 30
0.0
 10
143.546448
 20
240.198924
 30
0.0
 10
112.046448
 20
264.298924
 30
0.0
 10
86.446448
 20
298.198924
 30
0.0
  0
SPLINE
  5
2e6
100
AcDbEntity
  8
Layer_1
 62
7
100
AcDbSpline
 70
8
 71
3
 72
8
 73
4
 74
0
 40
0
 40
0
 40
0
 40
0
 40
1
 40
1
 40
1
 40
1
 10
86.446448
 20
298.198924
 30
0.0
 10
84.146448
 20
301.298924
 30
0.0
 10
82.446448
 20
303.898924
 30
0.0
 10
82.546448
 20
303.998924
 30
0.0
  0
SPLINE
  5
2e7
100
AcDbEntity
  8
Layer_1
 62
7
100
AcDbSpline
 70
8
 71
3
 72
8
 73
4
 74
0
 40
0
 40
0
 40
0
 40
0
 40
1
 40
1
 40
1
 40
1
 10
82.546448
 20
303.998924
 30
0.0
 10
82.746448
 20
304.198924
 30
0.0
 10
86.146448
 20
302.898924
 30
0.0
 10
90.246448
 20
301.298924
 30
0.0
  0
SPLINE
  5
2e8
100
AcDbEntity
  8
Layer_1
 62
7
100
AcDbSpline
 70
8
 71
3
 72
8
 73
4
 74
0
 40
0
 40
0
 40
0
 40
0
 40
1
 40
1
 40
1
 40
1
 10
90.246448
 20
301.298924
 30
0.0
 10
110.546448
 20
292.898924
 30
0.0
 10
124.746448
 20
290.098924
 30
0.0
 10
147.946448
 20
289.698924
 30
0.0
  0
SPLINE
  5
2e9
100
AcDbEntity
  8
Layer_1
 62
7
100
AcDbSpline
 70
8
 71
3
 72
8
 73
4
 74
0
 40
0
 40
0
 40
0
 40
0
 40
1
 40
1
 40
1
 40
1
 10
147.946448
 20
289.698924
 30
0.0
 10
166.046448
 20
289.498924
 30
0.0
 10
166.246448
 20
289.498924
 30
0.0
 10
168.746448
 20
286.898924
 30
0.0
  0
SPLINE
  5
2ea
100
AcDbEntity
  8
Layer_1
 62
7
100
AcDbSpline
 70
8
 71
3
 72
8
 73
4
 74
0
 40
0
 40
0
 40
0
 40
0
 40
1
 40
1
 40
1
 40
1
 10
168.746448
 20
286.898924
 30
0.0
 10
174.046448
 20
281.698924
 30
0.0
 10
177.246448
 20
282.598924
 30
0.0
 10
179.446448
 20
289.898924
 30
0.0
  0
SPLINE
  5
2eb
100
AcDbEntity
  8
Layer_1
 62
7
100
AcDbSpline
 70
8
 71
3
 72
8
 73
4
 74
0
 40
0
 40
0
 40
0
 40
0
 40
1
 40
1
 40
1
 40
1
 10
179.446448
 20
289.898924
 30
0.0
 10
180.646448
 20
293.998924
 30
0.0
 10
181.146448
 20
294.498924
 30
0.0
 10
188.946448
 20
298.298924
 30
0.0
  0
SPLINE
  5
2ec
100
AcDbEntity
  8
Layer_1
 62
7
100
AcDbSpline
 70
8
 71
3
 72
8
 73
4
 74
0
 40
0
 40
0
 40
0
 40
0
 40
1
 40
1
 40
1
 40
1
 10
188.946448
 20
298.298924
 30
0.0
 10
217.046448
 20
311.798924
 30
0.0
 10
236.146448
 20
337.998924
 30
0.0
 10
236.146448
 20
362.898924
 30
0.0
  0
SPLINE
  5
2ed
100
AcDbEntity
  8
Layer_1
 62
7
100
AcDbSpline
 70
8
 71
3
 72
8
 73
4
 74
0
 40
0
 40
0
 40
0
 40
0
 40
1
 40
1
 40
1
 40
1
 10
236.146448
 20
362.898924
 30
0.0
 10
236.146448
 20
365.298924
 30
0.0
 10
236.446448
 20
367.298924
 30
0.0
 10
236.746448
 20
367.298924
 30
0.0
  0
SPLINE
  5
2ee
100
AcDbEntity
  8
Layer_1
 62
7
100
AcDbSpline
 70
8
 71
3
 72
8
 73
4
 74
0
 40
0
 40
0
 40
0
 40
0
 40
1
 40
1
 40
1
 40
1
 10
236.746448
 20
367.298924
 30
0.0
 10
237.146448
 20
367.298924
 30
0.0
 10
240.346448
 20
364.698924
 30
0.0
 10
244.046448
 20
361.498924
 30
0.0
  0
LWPOLYLINE
  5
2ef
100
AcDbEntity
  8
Layer_1
 62
7
100
AcDbPolyline
 90
4
 70
0
 10
241.546448
 20
366.398924
 30
0.0
 10
235.446448
 20
372.498924
 30
0.0
 10
234.746448
 20
364.598924
 30
0.0
 10
234.746448
 20
364.598924
 30
0.0
  0
SPLINE
  5
2f0
100
AcDbEntity
  8
Layer_1
 62
7
100
AcDbSpline
 70
8
 71
3
 72
8
 73
4
 74
0
 40
0
 40
0
 40
0
 40
0
 40
1
 40
1
 40
1
 40
1
 10
328.646448
 20
353.598924
 30
0.0
 10
322.646448
 20
350.898924
 30
0.0
 10
316.346448
 20
347.998924
 30
0.0
 10
314.746448
 20
347.198924
 30
0.0
  0
LWPOLYLINE
  5
2f1
100
AcDbEntity
  8
Layer_1
 62
7
100
AcDbPolyline
 90
2
 70
0
 10
244.046448
 20
361.498924
 30
0.0
 10
244.046448
 20
361.498924
 30
0.0
  0
SPLINE
  5
2f2
100
AcDbEntity
  8
Layer_1
 62
7
100
AcDbSpline
 70
8
 71
3
 72
8
 73
4
 74
0
 40
0
 40
0
 40
0
 40
0
 40
1
 40
1
 40
1
 40
1
 10
317.746448
 20
342.298924
 30
0.0
 10
326.146448
 20
337.598924
 30
0.0
 10
334.046448
 20
329.098924
 30
0.0
 10
338.346448
 20
320.198924
 30
0.0
  0
SPLINE
  5
2f3
100
AcDbEntity
  8
Layer_1
 62
7
100
AcDbSpline
 70
8
 71
3
 72
8
 73
4
 74
0
 40
0
 40
0
 40
0
 40
0
 40
1
 40
1
 40
1
 40
1
 10
338.346448
 20
320.198924
 30
0.0
 10
343.446448
 20
309.598924
 30
0.0
 10
344.646448
 20
303.798924
 30
0.0
 10
344.546448
 20
288.898924
 30
0.0
  0
SPLINE
  5
2f4
100
AcDbEntity
  8
Layer_1
 62
7
100
AcDbSpline
 70
8
 71
3
 72
8
 73
4
 74
0
 40
0
 40
0
 40
0
 40
0
 40
1
 40
1
 40
1
 40
1
 10
344.546448
 20
288.898924
 30
0.0
 10
344.446448
 20
276.098924
 30
0.0
 10
344.546448
 20
275.898924
 30
0.0
 10
347.046448
 20
273.698924
 30
0.0
  0
SPLINE
  5
2f5
100
AcDbEntity
  8
Layer_1
 62
7
100
AcDbSpline
 70
8
 71
3
 72
8
 73
4
 74
0
 40
0
 40
0
 40
0
 40
0
 40
1
 40
1
 40
1
 40
1
 10
347.046448
 20
273.698924
 30
0.0
 10
349.146448
 20
271.798924
 30
0.0
 10
349.446448
 20
271.098924
 30
0.0
 10
348.546448
 20
269.598924
 30
0.0
  0
SPLINE
  5
2f6
100
AcDbEntity
  8
Layer_1
 62
7
100
AcDbSpline
 70
8
 71
3
 72
8
 73
4
 74
0
 40
0
 40
0
 40
0
 40
0
 40
1
 40
1
 40
1
 40
1
 10
348.546448
 20
269.598924
 30
0.0
 10
347.946448
 20
268.598924
 30
0.0
 10
346.046448
 20
267.398924
 30
0.0
 10
344.346448
 20
266.898924
 30
0.0
  0
SPLINE
  5
2f7
100
AcDbEntity
  8
Layer_1
 62
7
100
AcDbSpline
 70
8
 71
3
 72
8
 73
4
 74
0
 40
0
 40
0
 40
0
 40
0
 40
1
 40
1
 40
1
 40
1
 10
344.346448
 20
266.898924
 30
0.0
 10
341.846448
 20
266.198924
 30
0.0
 10
340.846448
 20
264.998924
 30
0.0
 10
339.046448
 20
260.498924
 30
0.0
  0
SPLINE
  5
2f8
100
AcDbEntity
  8
Layer_1
 62
7
100
AcDbSpline
 70
8
 71
3
 72
8
 73
4
 74
0
 40
0
 40
0
 40
0
 40
0
 40
1
 40
1
 40
1
 40
1
 10
339.046448
 20
260.498924
 30
0.0
 10
335.946448
 20
252.898924
 30
0.0
 10
326.746448
 20
239.198924
 30
0.0
 10
319.246448
 20
231.098924
 30
0.0
  0
SPLINE
  5
2f9
100
AcDbEntity
  8
Layer_1
 62
7
100
AcDbSpline
 70
8
 71
3
 72
8
 73
4
 74
0
 40
0
 40
0
 40
0
 40
0
 40
1
 40
1
 40
1
 40
1
 10
319.246448
 20
231.098924
 30
0.0
 10
312.946448
 20
224.298924
 30
0.0
 10
301.346448
 20
214.998924
 30
0.0
 10
295.246448
 20
211.898924
 30
0.0
  0
SPLINE
  5
2fa
100
AcDbEntity
  8
Layer_1
 62
7
100
AcDbSpline
 70
8
 71
3
 72
8
 73
4
 74
0
 40
0
 40
0
 40
0
 40
0
 40
1
 40
1
 40
1
 40
1
 10
295.246448
 20
211.898924
 30
0.0
 10
287.346448
 20
207.798924
 30
0.0
 10
296.746448
 20
208.298924
 30
0.0
 10
319.646448
 20
213.298924
 30
0.0
  0
SPLINE
  5
2fb
100
AcDbEntity
  8
Layer_1
 62
7
100
AcDbSpline
 70
8
 71
3
 72
8
 73
4
 74
0
 40
0
 40
0
 40
0
 40
0
 40
1
 40
1
 40
1
 40
1
 10
319.646448
 20
213.298924
 30
0.0
 10
349.546448
 20
219.798924
 30
0.0
 10
375.046448
 20
232.198924
 30
0.0
 10
383.946448
 20
244.598924
 30
0.0
  0
SPLINE
  5
2fc
100
AcDbEntity
  8
Layer_1
 62
7
100
AcDbSpline
 70
8
 71
3
 72
8
 73
4
 74
0
 40
0
 40
0
 40
0
 40
0
 40
1
 40
1
 40
1
 40
1
 10
383.946448
 20
244.598924
 30
0.0
 10
391.346448
 20
254.998924
 30
0.0
 10
397.646448
 20
274.098924
 30
0.0
 10
399.046448
 20
290.798924
 30
0.0
  0
SPLINE
  5
2fd
100
AcDbEntity
  8
Layer_1
 62
7
100
AcDbSpline
 70
8
 71
3
 72
8
 73
4
 74
0
 40
0
 40
0
 40
0
 40
0
 40
1
 40
1
 40
1
 40
1
 10
399.046448
 20
290.798924
 30
0.0
 10
401.246448
 20
317.198924
 30
0.0
 10
394.546448
 20
336.098924
 30
0.0
 10
378.446448
 20
348.798924
 30
0.0
  0
SPLINE
  5
2fe
100
AcDbEntity
  8
Layer_1
 62
7
100
AcDbSpline
 70
8
 71
3
 72
8
 73
4
 74
0
 40
0
 40
0
 40
0
 40
0
 40
1
 40
1
 40
1
 40
1
 10
378.446448
 20
348.798924
 30
0.0
 10
369.946448
 20
355.498924
 30
0.0
 10
363.846448
 20
357.498924
 30
0.0
 10
350.646448
 20
357.998924
 30
0.0
  0
LWPOLYLINE
  5
2ff
100
AcDbEntity
  8
Layer_1
 62
7
100
AcDbPolyline
 90
3
 70
0
 10
314.746448
 20
347.198924
 30
0.0
 10
311.946448
 20
345.598924
 30
0.0
 10
317.746448
 20
342.298924
 30
0.0
  0
SPLINE
  5
300
100
AcDbEntity
  8
Layer_1
 62
7
100
AcDbSpline
 70
8
 71
3
 72
8
 73
4
 74
0
 40
0
 40
0
 40
0
 40
0
 40
1
 40
1
 40
1
 40
1
 10
363.246448
 20
354.698924
 30
0.0
 10
370.646448
 20
352.598924
 30
0.0
 10
377.046448
 20
348.298924
 30
0.0
 10
383.646448
 20
341.098924
 30
0.0
  0
SPLINE
  5
301
100
AcDbEntity
  8
Layer_1
 62
7
100
AcDbSpline
 70
8
 71
3
 72
8
 73
4
 74
0
 40
0
 40
0
 40
0
 40
0
 40
1
 40
1
 40
1
 40
1
 10
383.646448
 20
341.098924
 30
0.0
 10
392.646448
 20
331.398924
 30
0.0
 10
396.246448
 20
322.498924
 30
0.0
 10
397.546448
 20
306.798924
 30
0.0
  0
SPLINE
  5
302
100
AcDbEntity
  8
Layer_1
 62
7
100
AcDbSpline
 70
8
 71
3
 72
8
 73
4
 74
0
 40
0
 40
0
 40
0
 40
0
 40
1
 40
1
 40
1
 40
1
 10
397.546448
 20
306.798924
 30
0.0
 10
399.246448
 20
286.998924
 30
0.0
 10
392.146448
 20
258.798924
 30
0.0
 10
382.146448
 20
245.498924
 30
0.0
  0
SPLINE
  5
303
100
AcDbEntity
  8
Layer_1
 62
7
100
AcDbSpline
 70
8
 71
3
 72
8
 73
4
 74
0
 40
0
 40
0
 40
0
 40
0
 40
1
 40
1
 40
1
 40
1
 10
382.146448
 20
245.498924
 30
0.0
 10
373.746448
 20
234.398924
 30
0.0
 10
356.346448
 20
225.098924
 30
0.0
 10
330.346448
 20
217.898924
 30
0.0
  0
SPLINE
  5
304
100
AcDbEntity
  8
Layer_1
 62
7
100
AcDbSpline
 70
8
 71
3
 72
8
 73
4
 74
0
 40
0
 40
0
 40
0
 40
0
 40
1
 40
1
 40
1
 40
1
 10
330.346448
 20
217.898924
 30
0.0
 10
321.346448
 20
215.398924
 30
0.0
 10
300.046448
 20
210.998924
 30
0.0
 10
299.546448
 20
211.598924
 30
0.0
  0
SPLINE
  5
305
100
AcDbEntity
  8
Layer_1
 62
7
100
AcDbSpline
 70
8
 71
3
 72
8
 73
4
 74
0
 40
0
 40
0
 40
0
 40
0
 40
1
 40
1
 40
1
 40
1
 10
299.546448
 20
211.598924
 30
0.0
 10
299.346448
 20
211.798924
 30
0.0
 10
301.846448
 20
213.798924
 30
0.0
 10
305.046448
 20
216.098924
 30
0.0
  0
SPLINE
  5
306
100
AcDbEntity
  8
Layer_1
 62
7
100
AcDbSpline
 70
8
 71
3
 72
8
 73
4
 74
0
 40
0
 40
0
 40
0
 40
0
 40
1
 40
1
 40
1
 40
1
 10
305.046448
 20
216.098924
 30
0.0
 10
319.146448
 20
226.398924
 30
0.0
 10
333.246448
 20
243.498924
 30
0.0
 10
340.146448
 20
258.698924
 30
0.0
  0
SPLINE
  5
307
100
AcDbEntity
  8
Layer_1
 62
7
100
AcDbSpline
 70
8
 71
3
 72
8
 73
4
 74
0
 40
0
 40
0
 40
0
 40
0
 40
1
 40
1
 40
1
 40
1
 10
340.146448
 20
258.698924
 30
0.0
 10
342.246448
 20
263.398924
 30
0.0
 10
343.746448
 20
265.298924
 30
0.0
 10
345.046448
 20
265.298924
 30
0.0
  0
SPLINE
  5
308
100
AcDbEntity
  8
Layer_1
 62
7
100
AcDbSpline
 70
8
 71
3
 72
8
 73
4
 74
0
 40
0
 40
0
 40
0
 40
0
 40
1
 40
1
 40
1
 40
1
 10
345.046448
 20
265.298924
 30
0.0
 10
346.046448
 20
265.298924
 30
0.0
 10
348.046448
 20
266.198924
 30
0.0
 10
349.546448
 20
267.398924
 30
0.0
  0
SPLINE
  5
309
100
AcDbEntity
  8
Layer_1
 62
7
100
AcDbSpline
 70
8
 71
3
 72
8
 73
4
 74
0
 40
0
 40
0
 40
0
 40
0
 40
1
 40
1
 40
1
 40
1
 10
349.546448
 20
267.398924
 30
0.0
 10
352.146448
 20
269.498924
 30
0.0
 10
352.146448
 20
269.598924
 30
0.0
 10
350.546448
 20
272.198924
 30
0.0
  0
SPLINE
  5
30a
100
AcDbEntity
  8
Layer_1
 62
7
100
AcDbSpline
 70
8
 71
3
 72
8
 73
4
 74
0
 40
0
 40
0
 40
0
 40
0
 40
1
 40
1
 40
1
 40
1
 10
350.546448
 20
272.198924
 30
0.0
 10
349.546448
 20
273.598924
 30
0.0
 10
348.046448
 20
275.298924
 30
0.0
 10
347.146448
 20
275.998924
 30
0.0
  0
SPLINE
  5
30b
100
AcDbEntity
  8
Layer_1
 62
7
100
AcDbSpline
 70
8
 71
3
 72
8
 73
4
 74
0
 40
0
 40
0
 40
0
 40
0
 40
1
 40
1
 40
1
 40
1
 10
347.146448
 20
275.998924
 30
0.0
 10
345.746448
 20
276.998924
 30
0.0
 10
345.646448
 20
278.198924
 30
0.0
 10
346.346448
 20
283.898924
 30
0.0
  0
SPLINE
  5
30c
100
AcDbEntity
  8
Layer_1
 62
7
100
AcDbSpline
 70
8
 71
3
 72
8
 73
4
 74
0
 40
0
 40
0
 40
0
 40
0
 40
1
 40
1
 40
1
 40
1
 10
346.346448
 20
283.898924
 30
0.0
 10
347.846448
 20
296.898924
 30
0.0
 10
344.646448
 20
313.698924
 30
0.0
 10
338.446448
 20
324.198924
 30
0.0
  0
SPLINE
  5
30d
100
AcDbEntity
  8
Layer_1
 62
7
100
AcDbSpline
 70
8
 71
3
 72
8
 73
4
 74
0
 40
0
 40
0
 40
0
 40
0
 40
1
 40
1
 40
1
 40
1
 10
338.446448
 20
324.198924
 30
0.0
 10
334.946448
 20
330.298924
 30
0.0
 10
326.846448
 20
338.698924
 30
0.0
 10
320.946448
 20
342.498924
 30
0.0
  0
SPLINE
  5
30e
100
AcDbEntity
  8
Layer_1
 62
7
100
AcDbSpline
 70
8
 71
3
 72
8
 73
4
 74
0
 40
0
 40
0
 40
0
 40
0
 40
1
 40
1
 40
1
 40
1
 10
320.946448
 20
342.498924
 30
0.0
 10
318.346448
 20
344.198924
 30
0.0
 10
316.346448
 20
345.798924
 30
0.0
 10
316.546448
 20
346.098924
 30
0.0
  0
SPLINE
  5
30f
100
AcDbEntity
  8
Layer_1
 62
7
100
AcDbSpline
 70
8
 71
3
 72
8
 73
4
 74
0
 40
0
 40
0
 40
0
 40
0
 40
1
 40
1
 40
1
 40
1
 10
316.546448
 20
346.098924
 30
0.0
 10
316.846448
 20
346.298924
 30
0.0
 10
322.146448
 20
348.698924
 30
0.0
 10
328.346448
 20
351.398924
 30
0.0
  0
SPLINE
  5
310
100
AcDbEntity
  8
Layer_1
 62
7
100
AcDbSpline
 70
8
 71
3
 72
8
 73
4
 74
0
 40
0
 40
0
 40
0
 40
0
 40
1
 40
1
 40
1
 40
1
 10
328.346448
 20
351.398924
 30
0.0
 10
339.146448
 20
356.098924
 30
0.0
 10
340.046448
 20
356.298924
 30
0.0
 10
348.746448
 20
356.298924
 30
0.0
  0
SPLINE
  5
311
100
AcDbEntity
  8
Layer_1
 62
7
100
AcDbSpline
 70
8
 71
3
 72
8
 73
4
 74
0
 40
0
 40
0
 40
0
 40
0
 40
1
 40
1
 40
1
 40
1
 10
348.746448
 20
356.298924
 30
0.0
 10
354.046448
 20
356.298924
 30
0.0
 10
360.046448
 20
355.698924
 30
0.0
 10
363.246448
 20
354.698924
 30
0.0
  0
LWPOLYLINE
  5
312
100
AcDbEntity
  8
Layer_1
 62
7
100
AcDbPolyline
 90
4
 70
0
 10
350.646448
 20
357.998924
 30
0.0
 10
339.646448
 20
358.398924
 30
0.0
 10
328.646448
 20
353.598924
 30
0.0
 10
328.646448
 20
353.598924
 30
0.0
  0
SPLINE
  5
313
100
AcDbEntity
  8
Layer_1
 62
7
100
AcDbSpline
 70
8
 71
3
 72
8
 73
4
 74
0
 40
0
 40
0
 40
0
 40
0
 40
1
 40
1
 40
1
 40
1
 10
272.146448
 20
348.798924
 30
0.0
 10
272.146448
 20
348.498924
 30
0.0
 10
273.446448
 20
345.598924
 30
0.0
 10
275.146448
 20
342.398924
 30
0.0
  0
SPLINE
  5
314
100
AcDbEntity
  8
Layer_1
 62
7
100
AcDbSpline
 70
8
 71
3
 72
8
 73
4
 74
0
 40
0
 40
0
 40
0
 40
0
 40
1
 40
1
 40
1
 40
1
 10
275.146448
 20
342.398924
 30
0.0
 10
286.646448
 20
319.398924
 30
0.0
 10
283.446448
 20
293.198924
 30
0.0
 10
266.246448
 20
270.298924
 30
0.0
  0
SPLINE
  5
315
100
AcDbEntity
  8
Layer_1
 62
7
100
AcDbSpline
 70
8
 71
3
 72
8
 73
4
 74
0
 40
0
 40
0
 40
0
 40
0
 40
1
 40
1
 40
1
 40
1
 10
266.246448
 20
270.298924
 30
0.0
 10
261.446448
 20
263.898924
 30
0.0
 10
261.446448
 20
263.798924
 30
0.0
 10
262.946448
 20
260.698924
 30
0.0
  0
SPLINE
  5
316
100
AcDbEntity
  8
Layer_1
 62
7
100
AcDbSpline
 70
8
 71
3
 72
8
 73
4
 74
0
 40
0
 40
0
 40
0
 40
0
 40
1
 40
1
 40
1
 40
1
 10
262.946448
 20
260.698924
 30
0.0
 10
265.146448
 20
256.098924
 30
0.0
 10
264.046448
 20
254.098924
 30
0.0
 10
259.346448
 20
254.398924
 30
0.0
  0
SPLINE
  5
317
100
AcDbEntity
  8
Layer_1
 62
7
100
AcDbSpline
 70
8
 71
3
 72
8
 73
4
 74
0
 40
0
 40
0
 40
0
 40
0
 40
1
 40
1
 40
1
 40
1
 10
259.346448
 20
254.398924
 30
0.0
 10
256.346448
 20
254.598924
 30
0.0
 10
254.446448
 20
253.898924
 30
0.0
 10
249.646448
 20
250.598924
 30
0.0
  0
SPLINE
  5
318
100
AcDbEntity
  8
Layer_1
 62
7
100
AcDbSpline
 70
8
 71
3
 72
8
 73
4
 74
0
 40
0
 40
0
 40
0
 40
0
 40
1
 40
1
 40
1
 40
1
 10
249.646448
 20
250.598924
 30
0.0
 10
231.146448
 20
238.098924
 30
0.0
 10
210.146448
 20
230.598924
 30
0.0
 10
186.446448
 20
228.098924
 30
0.0
  0
SPLINE
  5
319
100
AcDbEntity
  8
Layer_1
 62
7
100
AcDbSpline
 70
8
 71
3
 72
8
 73
4
 74
0
 40
0
 40
0
 40
0
 40
0
 40
1
 40
1
 40
1
 40
1
 10
186.446448
 20
228.098924
 30
0.0
 10
180.246448
 20
227.398924
 30
0.0
 10
175.146448
 20
226.498924
 30
0.0
 10
175.146448
 20
225.998924
 30
0.0
  0
SPLINE
  5
31a
100
AcDbEntity
  8
Layer_1
 62
7
100
AcDbSpline
 70
8
 71
3
 72
8
 73
4
 74
0
 40
0
 40
0
 40
0
 40
0
 40
1
 40
1
 40
1
 40
1
 10
175.146448
 20
225.998924
 30
0.0
 10
175.146448
 20
224.998924
 30
0.0
 10
182.146448
 20
221.998924
 30
0.0
 10
196.046448
 20
217.198924
 30
0.0
  0
SPLINE
  5
31b
100
AcDbEntity
  8
Layer_1
 62
7
100
AcDbSpline
 70
8
 71
3
 72
8
 73
4
 74
0
 40
0
 40
0
 40
0
 40
0
 40
1
 40
1
 40
1
 40
1
 10
196.046448
 20
217.198924
 30
0.0
 10
231.146448
 20
205.098924
 30
0.0
 10
260.846448
 20
202.298924
 30
0.0
 10
279.846448
 20
209.398924
 30
0.0
  0
SPLINE
  5
31c
100
AcDbEntity
  8
Layer_1
 62
7
100
AcDbSpline
 70
8
 71
3
 72
8
 73
4
 74
0
 40
0
 40
0
 40
0
 40
0
 40
1
 40
1
 40
1
 40
1
 10
279.846448
 20
209.398924
 30
0.0
 10
293.046448
 20
214.398924
 30
0.0
 10
314.646448
 20
232.798924
 30
0.0
 10
324.846448
 20
247.798924
 30
0.0
  0
SPLINE
  5
31d
100
AcDbEntity
  8
Layer_1
 62
7
100
AcDbSpline
 70
8
 71
3
 72
8
 73
4
 74
0
 40
0
 40
0
 40
0
 40
0
 40
1
 40
1
 40
1
 40
1
 10
324.846448
 20
247.798924
 30
0.0
 10
335.046448
 20
262.898924
 30
0.0
 10
339.246448
 20
274.098924
 30
0.0
 10
339.946448
 20
288.298924
 30
0.0
  0
SPLINE
  5
31e
100
AcDbEntity
  8
Layer_1
 62
7
100
AcDbSpline
 70
8
 71
3
 72
8
 73
4
 74
0
 40
0
 40
0
 40
0
 40
0
 40
1
 40
1
 40
1
 40
1
 10
339.946448
 20
288.298924
 30
0.0
 10
341.046448
 20
313.098924
 30
0.0
 10
330.246448
 20
331.798924
 30
0.0
 10
308.546448
 20
342.698924
 30
0.0
  0
SPLINE
  5
31f
100
AcDbEntity
  8
Layer_1
 62
7
100
AcDbSpline
 70
8
 71
3
 72
8
 73
4
 74
0
 40
0
 40
0
 40
0
 40
0
 40
1
 40
1
 40
1
 40
1
 10
308.546448
 20
342.698924
 30
0.0
 10
302.546448
 20
345.698924
 30
0.0
 10
272.146448
 20
350.798924
 30
0.0
 10
272.146448
 20
348.798924
 30
0.0
  0
LWPOLYLINE
  5
320
100
AcDbEntity
  8
Layer_1
 62
7
100
AcDbPolyline
 90
2
 70
0
 10
363.246448
 20
354.698924
 30
0.0
 10
363.246448
 20
354.698924
 30
0.0
  0
SPLINE
  5
321
100
AcDbEntity
  8
Layer_1
 62
7
100
AcDbSpline
 70
8
 71
3
 72
8
 73
4
 74
0
 40
0
 40
0
 40
0
 40
0
 40
1
 40
1
 40
1
 40
1
 10
290.346448
 20
345.298924
 30
0.0
 10
303.246448
 20
343.298924
 30
0.0
 10
307.746448
 20
341.698924
 30
0.0
 10
315.646448
 20
336.298924
 30
0.0
  0
SPLINE
  5
322
100
AcDbEntity
  8
Layer_1
 62
7
100
AcDbSpline
 70
8
 71
3
 72
8
 73
4
 74
0
 40
0
 40
0
 40
0
 40
0
 40
1
 40
1
 40
1
 40
1
 10
315.646448
 20
336.298924
 30
0.0
 10
326.246448
 20
328.998924
 30
0.0
 10
334.146448
 20
317.198924
 30
0.0
 10
337.246448
 20
304.298924
 30
0.0
  0
SPLINE
  5
323
100
AcDbEntity
  8
Layer_1
 62
7
100
AcDbSpline
 70
8
 71
3
 72
8
 73
4
 74
0
 40
0
 40
0
 40
0
 40
0
 40
1
 40
1
 40
1
 40
1
 10
337.246448
 20
304.298924
 30
0.0
 10
338.746448
 20
297.598924
 30
0.0
 10
338.746448
 20
284.598924
 30
0.0
 10
337.246448
 20
277.798924
 30
0.0
  0
SPLINE
  5
324
100
AcDbEntity
  8
Layer_1
 62
7
100
AcDbSpline
 70
8
 71
3
 72
8
 73
4
 74
0
 40
0
 40
0
 40
0
 40
0
 40
1
 40
1
 40
1
 40
1
 10
337.246448
 20
277.798924
 30
0.0
 10
331.746448
 20
254.598924
 30
0.0
 10
305.346448
 20
223.098924
 30
0.0
 10
282.746448
 20
212.698924
 30
0.0
  0
SPLINE
  5
325
100
AcDbEntity
  8
Layer_1
 62
7
100
AcDbSpline
 70
8
 71
3
 72
8
 73
4
 74
0
 40
0
 40
0
 40
0
 40
0
 40
1
 40
1
 40
1
 40
1
 10
282.746448
 20
212.698924
 30
0.0
 10
262.646448
 20
203.498924
 30
0.0
 10
227.946448
 20
206.698924
 30
0.0
 10
190.346448
 20
220.998924
 30
0.0
  0
SPLINE
  5
326
100
AcDbEntity
  8
Layer_1
 62
7
100
AcDbSpline
 70
8
 71
3
 72
8
 73
4
 74
0
 40
0
 40
0
 40
0
 40
0
 40
1
 40
1
 40
1
 40
1
 10
190.346448
 20
220.998924
 30
0.0
 10
180.946448
 20
224.698924
 30
0.0
 10
179.846448
 20
226.298924
 30
0.0
 10
186.946448
 20
226.298924
 30
0.0
  0
SPLINE
  5
327
100
AcDbEntity
  8
Layer_1
 62
7
100
AcDbSpline
 70
8
 71
3
 72
8
 73
4
 74
0
 40
0
 40
0
 40
0
 40
0
 40
1
 40
1
 40
1
 40
1
 10
186.946448
 20
226.298924
 30
0.0
 10
192.346448
 20
226.298924
 30
0.0
 10
209.646448
 20
230.098924
 30
0.0
 10
218.846448
 20
233.298924
 30
0.0
  0
SPLINE
  5
328
100
AcDbEntity
  8
Layer_1
 62
7
100
AcDbSpline
 70
8
 71
3
 72
8
 73
4
 74
0
 40
0
 40
0
 40
0
 40
0
 40
1
 40
1
 40
1
 40
1
 10
218.846448
 20
233.298924
 30
0.0
 10
230.146448
 20
237.198924
 30
0.0
 10
240.446448
 20
242.298924
 30
0.0
 10
248.846448
 20
247.898924
 30
0.0
  0
SPLINE
  5
329
100
AcDbEntity
  8
Layer_1
 62
7
100
AcDbSpline
 70
8
 71
3
 72
8
 73
4
 74
0
 40
0
 40
0
 40
0
 40
0
 40
1
 40
1
 40
1
 40
1
 10
248.846448
 20
247.898924
 30
0.0
 10
254.546448
 20
251.798924
 30
0.0
 10
256.346448
 20
252.498924
 30
0.0
 10
259.846448
 20
252.398924
 30
0.0
  0
SPLINE
  5
32a
100
AcDbEntity
  8
Layer_1
 62
7
100
AcDbSpline
 70
8
 71
3
 72
8
 73
4
 74
0
 40
0
 40
0
 40
0
 40
0
 40
1
 40
1
 40
1
 40
1
 10
259.846448
 20
252.398924
 30
0.0
 10
265.246448
 20
252.198924
 30
0.0
 10
266.746448
 20
254.398924
 30
0.0
 10
265.046448
 20
260.198924
 30
0.0
  0
SPLINE
  5
32b
100
AcDbEntity
  8
Layer_1
 62
7
100
AcDbSpline
 70
8
 71
3
 72
8
 73
4
 74
0
 40
0
 40
0
 40
0
 40
0
 40
1
 40
1
 40
1
 40
1
 10
265.046448
 20
260.198924
 30
0.0
 10
263.946448
 20
263.898924
 30
0.0
 10
264.046448
 20
264.298924
 30
0.0
 10
267.946448
 20
269.398924
 30
0.0
  0
SPLINE
  5
32c
100
AcDbEntity
  8
Layer_1
 62
7
100
AcDbSpline
 70
8
 71
3
 72
8
 73
4
 74
0
 40
0
 40
0
 40
0
 40
0
 40
1
 40
1
 40
1
 40
1
 10
267.946448
 20
269.398924
 30
0.0
 10
272.746448
 20
275.798924
 30
0.0
 10
279.246448
 20
288.698924
 30
0.0
 10
281.546448
 20
296.298924
 30
0.0
  0
SPLINE
  5
32d
100
AcDbEntity
  8
Layer_1
 62
7
100
AcDbSpline
 70
8
 71
3
 72
8
 73
4
 74
0
 40
0
 40
0
 40
0
 40
0
 40
1
 40
1
 40
1
 40
1
 10
281.546448
 20
296.298924
 30
0.0
 10
285.646448
 20
309.998924
 30
0.0
 10
284.346448
 20
326.898924
 30
0.0
 10
278.146448
 20
340.098924
 30
0.0
  0
SPLINE
  5
32e
100
AcDbEntity
  8
Layer_1
 62
7
100
AcDbSpline
 70
8
 71
3
 72
8
 73
4
 74
0
 40
0
 40
0
 40
0
 40
0
 40
1
 40
1
 40
1
 40
1
 10
278.146448
 20
340.098924
 30
0.0
 10
276.546448
 20
343.598924
 30
0.0
 10
275.146448
 20
346.698924
 30
0.0
 10
275.146448
 20
346.898924
 30
0.0
  0
SPLINE
  5
32f
100
AcDbEntity
  8
Layer_1
 62
7
100
AcDbSpline
 70
8
 71
3
 72
8
 73
4
 74
0
 40
0
 40
0
 40
0
 40
0
 40
1
 40
1
 40
1
 40
1
 10
275.146448
 20
346.898924
 30
0.0
 10
275.146448
 20
347.598924
 30
0.0
 10
277.146448
 20
347.398924
 30
0.0
 10
290.346448
 20
345.298924
 30
0.0
  0
LWPOLYLINE
  5
330
100
AcDbEntity
  8
Layer_1
 62
7
100
AcDbPolyline
 90
2
 70
0
 10
272.146448
 20
348.798924
 30
0.0
 10
272.146448
 20
348.798924
 30
0.0
  0
LWPOLYLINE
  5
331
100
AcDbEntity
  8
Layer_1
 62
7
100
AcDbPolyline
 90
2
 70
0
 10
290.346448
 20
345.298924
 30
0.0
 10
290.346448
 20
345.298924
 30
0.0
  0
ENDSEC
  0
SECTION
  2
OBJECTS
  0
DICTIONARY
  5
C
330
0
100
AcDbDictionary
  3
ACAD_GROUP
350
D
  3
ACAD_MLINESTYLE
350
17
  0
DICTIONARY
  5
D
330
C
100
AcDbDictionary
  0
DICTIONARY
  5
1A
330
C
100
AcDbDictionary
  0
DICTIONARY
  5
17
330
C
100
AcDbDictionary
  3
STANDARD
350
18
  0
DICTIONARY
  5
19
330
C
100
AcDbDictionary
  0
ENDSEC
  0
EOF
