<?xml version="1.0" standalone="no"?>
<!DOCTYPE svg PUBLIC "-//W3C//DTD SVG 20010904//EN"
 "http://www.w3.org/TR/2001/REC-SVG-20010904/DTD/svg10.dtd">
<svg version="1.0" xmlns="http://www.w3.org/2000/svg"
 width="438.000000pt" height="595.000000pt" viewBox="0 0 438.000000 595.000000"
 preserveAspectRatio="xMidYMid meet">
<metadata>
Created by potrace 1.11, written by Peter Selinger 2001-2013
</metadata>
<g transform="translate(0.000000,595.000000) scale(0.100000,-0.100000)"
fill="#000000" stroke="none">
<path d="M3080 5943 c-540 -56 -1101 -271 -1545 -591 -389 -280 -726 -626
-979 -1007 -176 -263 -278 -467 -358 -710 -134 -408 -192 -741 -192 -1105 -1
-232 8 -319 55 -550 91 -442 215 -697 422 -863 196 -158 546 -240 820 -192
262 46 481 193 600 405 67 119 81 172 75 289 -5 88 -10 109 -67 255 -89 226
-103 286 -104 436 -1 133 9 197 50 325 91 279 241 455 538 635 96 58 210 103
335 131 101 24 351 36 428 21 l53 -9 23 46 c13 25 56 118 96 206 40 88 135
288 211 445 76 157 148 317 159 355 11 39 25 122 32 186 21 204 -22 414 -139
673 -93 208 -235 437 -348 564 -61 67 -60 66 -165 55z m159 -79 c153 -167 333
-494 421 -765 48 -146 65 -268 57 -407 -10 -173 -34 -246 -172 -532 -69 -140
-173 -361 -233 -490 l-108 -235 -39 5 c-22 3 -103 5 -180 4 -157 0 -285 -23
-431 -76 -142 -51 -385 -216 -493 -334 -144 -157 -243 -383 -271 -617 -20
-169 6 -308 104 -551 91 -223 94 -326 16 -481 -87 -173 -197 -282 -371 -368
-257 -127 -636 -113 -921 35 -268 138 -427 408 -531 898 -56 263 -62 322 -62
585 1 195 5 269 24 394 86 589 264 1049 575 1486 224 314 534 631 851 870 443
334 979 556 1516 629 184 25 178 26 248 -50z"/>
<path d="M2970 3354 c-110 -30 -212 -112 -286 -230 -56 -90 -84 -175 -84 -257
0 -83 13 -123 58 -182 58 -76 103 -103 206 -121 48 -8 90 -13 92 -12 2 2 -8
38 -23 79 -22 63 -25 84 -19 146 7 85 32 156 81 229 19 30 35 58 35 63 0 8 39
30 164 93 60 30 170 61 259 73 26 3 47 10 47 14 0 10 -118 64 -185 84 -124 39
-250 46 -345 21z m268 -20 c42 -9 111 -30 152 -47 l75 -31 -94 -18 c-103 -21
-198 -57 -275 -107 -28 -17 -55 -31 -62 -31 -7 0 -16 -10 -20 -22 -4 -13 -17
-37 -30 -53 -41 -54 -74 -139 -85 -221 -11 -79 -9 -100 27 -213 6 -22 5 -23
-17 -18 -13 3 -51 11 -83 17 -48 10 -68 21 -109 58 -70 66 -97 124 -97 210 0
87 21 160 71 242 125 210 300 285 547 234z"/>
<path d="M2690 3325 c-146 -29 -235 -73 -318 -157 -66 -66 -98 -131 -113 -227
-27 -177 28 -326 145 -395 85 -50 157 -54 281 -15 l30 9 -57 60 c-82 87 -102
144 -102 290 0 100 2 119 20 145 12 17 47 69 77 116 31 47 77 109 103 138 53
58 51 59 -66 36z m10 -77 c-28 -34 -76 -103 -106 -152 -51 -83 -54 -93 -60
-170 -11 -133 26 -249 105 -334 21 -24 35 -44 32 -47 -4 -2 -37 -9 -74 -16
-80 -15 -123 -5 -204 47 -101 64 -144 215 -112 389 31 170 174 293 396 338 37
8 69 13 71 12 2 -2 -20 -32 -48 -67z"/>
<path d="M3370 3184 c-193 -50 -363 -194 -407 -343 -29 -100 9 -238 86 -309
41 -38 121 -96 125 -90 2 1 8 32 15 68 24 139 123 268 256 335 33 16 63 33 67
39 9 13 233 10 311 -4 50 -10 147 -41 230 -75 33 -14 18 20 -47 101 -188 238
-413 337 -636 278z m273 -23 c91 -30 166 -80 268 -181 101 -100 138 -148 103
-137 -169 55 -192 59 -338 66 -134 5 -152 4 -172 -11 -12 -10 -26 -18 -32 -18
-21 0 -160 -100 -196 -141 -50 -57 -95 -153 -103 -218 -3 -28 -9 -51 -12 -51
-4 0 -34 21 -66 48 -85 67 -118 136 -119 246 -1 89 12 123 76 203 64 81 218
177 325 202 69 16 205 13 266 -8z"/>
<path d="M2195 3036 c-134 -102 -194 -187 -216 -309 -11 -59 -10 -74 7 -129
28 -93 101 -199 169 -244 50 -33 64 -38 134 -42 47 -3 93 0 115 8 36 12 146
94 146 109 0 5 -17 12 -37 16 -101 19 -213 109 -264 212 -22 43 -24 60 -23
168 1 83 8 142 21 193 11 39 19 72 19 72 -1 0 -32 -24 -71 -54z m26 -52 c-5
-27 -12 -96 -16 -154 -7 -104 -7 -106 25 -173 17 -37 53 -90 80 -117 48 -50
155 -110 194 -110 17 0 16 -4 -9 -30 -48 -50 -101 -70 -185 -70 -54 0 -85 6
-117 21 -56 27 -125 105 -165 188 -76 155 -22 329 142 456 30 24 56 42 58 41
1 -2 -2 -25 -7 -52z"/>
<path d="M3605 2833 c-130 -29 -249 -98 -296 -170 -44 -71 -73 -173 -66 -242
4 -50 64 -221 77 -221 3 0 21 23 40 52 58 85 167 156 282 183 70 16 274 20
283 5 3 -5 41 -28 85 -51 101 -52 209 -145 284 -242 32 -42 63 -77 68 -77 5 0
6 27 3 63 -48 477 -259 710 -639 706 -56 -1 -110 -3 -121 -6z m277 -24 c208
-44 352 -195 423 -445 23 -82 47 -234 39 -243 -2 -2 -14 9 -26 25 -83 108
-204 212 -308 264 -25 12 -54 31 -66 41 -19 18 -33 19 -155 15 -201 -6 -306
-49 -416 -170 l-52 -57 -14 28 c-34 67 -50 136 -44 197 14 171 113 286 292
337 71 21 247 25 327 8z"/>
<path d="M1912 2568 c-36 -86 -51 -147 -52 -201 0 -51 25 -137 53 -179 32 -48
134 -112 210 -133 81 -22 130 -16 216 28 72 36 100 75 109 153 5 48 4 49 -48
34 -53 -16 -149 -13 -200 5 -86 30 -132 70 -174 153 -22 43 -49 108 -61 146
l-22 68 -31 -74z m38 -12 c0 -8 22 -59 50 -114 46 -91 55 -104 109 -139 32
-22 79 -45 104 -52 47 -14 166 -11 201 4 18 8 19 5 13 -35 -8 -60 -33 -90
-102 -125 -86 -42 -174 -42 -266 3 -118 57 -179 150 -179 274 0 54 48 211 61
202 5 -3 9 -11 9 -18z"/>
<path d="M2783 2520 c-54 -33 -80 -110 -53 -161 8 -15 58 -49 72 -49 2 0 3 25
3 56 0 53 3 58 37 88 21 18 56 39 79 46 l42 14 -29 13 c-44 19 -114 16 -151
-7z m112 -10 c-3 -5 -12 -10 -19 -10 -17 0 -76 -60 -87 -88 -5 -13 -9 -35 -9
-49 0 -22 -2 -24 -16 -13 -29 25 -36 49 -24 85 17 52 62 85 116 85 28 0 43 -4
39 -10z"/>
<path d="M2674 2491 c-56 -34 -77 -70 -71 -124 5 -60 37 -97 82 -97 29 0 85
29 57 30 -7 0 -24 11 -37 25 -29 28 -33 80 -10 144 8 22 13 41 12 41 -1 0 -16
-9 -33 -19z m-9 -90 c0 -49 4 -64 24 -85 l24 -26 -24 0 c-43 0 -69 34 -69 90
0 29 25 80 39 80 3 0 6 -27 6 -59z"/>
<path d="M2927 2469 c-40 -21 -77 -71 -77 -104 0 -25 33 -88 48 -93 7 -2 12 4
12 13 0 32 35 76 78 96 36 18 56 21 113 17 l70 -5 -27 28 c-37 38 -102 69
-145 69 -19 -1 -51 -10 -72 -21z m153 -21 l35 -22 -59 -8 c-70 -9 -114 -33
-141 -76 -26 -40 -33 -40 -41 3 -17 93 116 160 206 103z"/>
<path d="M3630 2376 c-76 -21 -121 -47 -187 -110 -87 -81 -102 -113 -115 -252
-6 -63 -9 -117 -6 -119 3 -3 34 8 69 24 157 74 335 54 505 -54 28 -18 60 -35
70 -37 10 -2 25 -17 33 -33 8 -17 34 -58 58 -92 83 -118 129 -237 182 -477 5
-25 11 -16 45 75 64 174 90 303 90 454 0 151 -18 218 -84 315 -83 122 -254
254 -388 299 -71 24 -198 27 -272 7z m215 -11 c49 -7 159 -55 219 -98 104 -72
208 -186 251 -275 68 -140 58 -359 -27 -620 -27 -84 -48 -111 -48 -62 0 32
-60 210 -92 275 -17 33 -54 96 -84 141 -30 44 -54 86 -54 92 0 6 -21 22 -47
35 -27 13 -79 40 -116 60 -145 75 -322 89 -441 34 -32 -15 -61 -25 -64 -22 -3
2 0 52 6 110 10 97 13 109 47 155 47 64 107 113 178 145 54 25 160 45 202 39
11 -2 43 -6 70 -9z"/>
<path d="M2531 2349 c-23 -68 -7 -121 46 -148 35 -18 57 -13 88 19 l29 30 -36
0 c-43 0 -84 41 -94 95 -8 43 -19 44 -33 4z m88 -110 c27 -13 30 -17 17 -22
-58 -23 -102 22 -97 98 1 15 7 10 24 -20 13 -23 37 -47 56 -56z"/>
<path d="M3027 2356 c-20 -7 -44 -19 -52 -26 -22 -18 -38 -78 -30 -117 l6 -35
27 25 c68 64 145 63 247 -3 67 -44 64 -44 53 -3 -15 58 -54 119 -90 141 -45
28 -114 35 -161 18z m114 -16 c42 -12 82 -51 104 -104 l16 -38 -28 20 c-35 25
-115 52 -152 52 -15 0 -49 -11 -74 -24 l-47 -23 0 26 c0 73 87 117 181 91z"/>
<path d="M2493 2191 c4 -18 7 -37 7 -41 0 -4 12 -19 26 -34 52 -51 134 -26
134 40 0 22 -1 22 -30 8 -36 -19 -60 -12 -107 29 l-36 32 6 -34z m63 -46 c18
-9 40 -13 59 -9 27 6 28 5 16 -10 -20 -24 -79 -17 -99 12 -17 26 -14 27 24 7z"/>
<path d="M3011 2184 c-30 -25 -68 -90 -59 -100 2 -1 23 2 46 8 87 22 172 -33
230 -148 l29 -57 11 33 c47 135 -37 277 -171 288 -47 4 -57 1 -86 -24z m136
-5 c38 -14 83 -57 99 -96 8 -18 14 -58 14 -90 l0 -58 -29 45 c-60 95 -149 147
-224 133 -35 -7 -34 7 2 46 23 25 37 31 69 31 23 0 53 -5 69 -11z"/>
<path d="M1900 2114 c0 -55 21 -158 42 -205 26 -63 103 -134 159 -149 26 -7
74 -10 115 -7 117 9 183 46 248 140 43 62 49 116 22 181 l-16 38 -55 -50 c-67
-61 -134 -87 -225 -86 -60 1 -72 5 -137 47 -40 26 -90 63 -113 83 l-40 36 0
-28z m169 -123 c52 -31 58 -33 140 -29 96 4 149 24 218 83 l41 35 11 -43 c16
-65 0 -108 -68 -177 -47 -47 -68 -62 -116 -75 -74 -22 -187 -17 -234 11 -71
42 -121 136 -137 257 l-7 51 49 -41 c27 -22 73 -54 103 -72z"/>
<path d="M2666 2092 c-10 -31 -42 -45 -88 -38 -37 6 -38 5 -28 -14 23 -43 96
-54 130 -20 23 23 25 49 6 75 -13 18 -14 18 -20 -3z m5 -56 c-16 -19 -42 -25
-66 -15 -19 7 -19 8 1 8 12 1 32 10 45 20 25 20 39 10 20 -13z"/>
<path d="M2717 2041 c6 -25 -12 -58 -37 -66 -29 -9 -24 -25 8 -25 57 0 93 50
65 89 -18 27 -43 28 -36 2z m23 -51 c-6 -12 -14 -19 -17 -17 -2 3 1 15 7 27 6
12 14 19 17 17 2 -3 -1 -15 -7 -27z"/>
<path d="M3008 2050 c-33 -10 -88 -48 -88 -61 0 -5 8 -9 18 -9 9 0 34 -10 54
-23 84 -50 118 -145 99 -271 -5 -38 -8 -72 -6 -74 8 -8 85 79 107 120 17 33
22 60 23 114 0 61 -4 77 -30 120 -31 50 -93 94 -130 93 -11 0 -32 -4 -47 -9z
m99 -30 c86 -52 117 -175 69 -273 -14 -30 -35 -62 -45 -72 -20 -17 -20 -16
-20 68 0 56 -6 99 -16 124 -19 46 -67 97 -106 114 -38 15 -37 27 4 44 44 20
76 18 114 -5z"/>
<path d="M2540 1938 c-16 -60 -64 -131 -109 -163 -58 -40 -122 -55 -235 -55
l-101 -1 51 -48 c90 -83 192 -118 295 -102 33 6 75 20 94 31 75 46 131 152
120 224 -6 39 -46 106 -83 139 -20 19 -21 18 -32 -25z m81 -70 c35 -69 18
-137 -53 -214 -43 -46 -108 -74 -175 -74 -55 0 -160 40 -205 79 l-42 36 96 6
c76 4 107 11 151 32 66 33 122 92 149 158 20 48 21 49 41 32 10 -10 28 -35 38
-55z"/>
<path d="M2862 1923 l-42 -15 25 -20 c89 -70 85 -219 -10 -348 l-37 -51 28 6
c150 33 238 131 239 265 0 78 -24 133 -69 161 -37 22 -75 23 -134 2z m137 -29
c79 -66 62 -228 -33 -312 -36 -31 -105 -67 -113 -58 -3 2 7 21 21 43 72 109
74 236 4 310 l-21 23 24 9 c44 18 86 12 118 -15z"/>
<path d="M2685 1877 c19 -46 19 -137 1 -182 -21 -50 -90 -120 -159 -162 l-61
-37 34 -9 c50 -13 157 -2 213 22 26 11 69 42 96 69 40 40 51 59 61 105 26 129
-31 211 -157 225 l-43 5 15 -36z m77 1 c77 -23 111 -96 89 -194 -10 -45 -21
-61 -65 -102 -62 -56 -131 -82 -215 -81 -47 0 -53 2 -37 12 56 35 124 98 149
139 33 53 46 141 29 201 -12 42 -10 43 50 25z"/>
<path d="M3494 1895 c-96 -21 -157 -51 -195 -98 -51 -61 -129 -173 -129 -184
0 -6 34 -13 75 -16 107 -8 222 -64 306 -150 68 -70 131 -161 155 -224 11 -27
23 -43 33 -43 10 0 25 -6 35 -13 16 -12 16 -14 -3 -38 -17 -23 -20 -40 -19
-155 0 -71 -3 -151 -7 -179 -10 -74 -53 -229 -80 -291 -13 -29 -20 -56 -15
-59 10 -6 163 111 249 191 82 76 182 202 225 283 56 108 69 169 63 291 -7 135
-35 239 -99 370 -84 170 -205 272 -373 315 -71 18 -139 18 -221 0z m225 -20
c91 -24 162 -66 237 -140 57 -56 80 -89 117 -165 77 -158 114 -346 95 -478
-18 -123 -120 -284 -275 -433 -78 -75 -213 -187 -213 -176 0 2 11 37 25 78 46
134 66 259 64 398 -1 113 1 131 20 162 11 18 21 38 21 42 0 5 -17 15 -38 24
-28 11 -42 24 -51 48 -22 61 -107 179 -172 239 -77 72 -183 124 -279 139 -39
6 -70 14 -70 17 0 3 30 46 68 95 52 70 78 95 116 114 99 49 232 64 335 36z"/>
<path d="M2046 1593 c-26 -295 -189 -517 -480 -654 -78 -36 -84 -41 -89 -75
-6 -36 -22 -64 -38 -64 -5 0 -24 14 -43 30 l-34 30 -193 4 c-154 3 -213 8
-284 25 -120 28 -255 74 -338 114 -37 19 -70 30 -72 26 -11 -16 170 -235 310
-374 227 -227 416 -343 592 -363 308 -33 728 118 907 328 102 119 165 316 166
517 0 154 -42 234 -180 341 -52 40 -122 100 -156 133 l-61 61 -7 -79z m93 -31
c36 -32 93 -79 126 -104 122 -93 156 -153 163 -284 13 -240 -74 -480 -219
-607 -100 -88 -290 -181 -454 -222 -132 -34 -296 -48 -382 -35 -239 39 -554
280 -810 619 -23 31 -40 57 -39 58 2 2 36 -11 77 -27 203 -84 345 -112 577
-116 181 -2 183 -2 208 -28 53 -52 85 -43 107 30 12 41 17 46 95 84 281 135
472 397 472 646 0 24 3 44 6 44 4 0 36 -26 73 -58z"/>
<path d="M2985 1483 c-60 -27 -123 -56 -139 -64 l-28 -16 58 -33 c84 -47 163
-132 206 -221 51 -106 63 -164 62 -313 -1 -128 0 -130 25 -152 21 -19 24 -26
15 -41 -6 -10 -25 -22 -42 -27 -25 -7 -35 -19 -53 -64 -31 -76 -123 -213 -198
-294 -63 -68 -179 -161 -240 -192 -79 -41 15 -36 244 14 299 65 554 189 643
313 74 104 137 295 151 462 22 264 -45 453 -206 580 -85 67 -146 87 -278 92
l-110 4 -110 -48z m346 11 c74 -21 138 -64 204 -136 90 -97 126 -186 139 -343
17 -198 -54 -480 -154 -613 -84 -111 -258 -204 -518 -276 -90 -25 -303 -69
-308 -63 -2 2 23 22 55 45 141 103 282 274 351 426 21 47 36 66 49 66 10 0 30
9 45 21 26 21 26 22 10 48 -10 14 -25 31 -34 38 -14 10 -15 22 -8 79 15 130
-17 298 -79 403 -35 61 -116 145 -175 183 -26 17 -46 33 -44 36 3 2 56 26 118
53 108 47 117 49 204 49 53 0 113 -6 145 -16z"/>
<path d="M2420 1435 c0 -3 13 -32 30 -64 115 -230 83 -492 -89 -721 -48 -64
-48 -65 -33 -96 22 -46 11 -66 -36 -63 -30 2 -49 -5 -97 -38 -185 -125 -395
-200 -632 -225 -62 -7 -113 -16 -113 -21 0 -10 70 -40 209 -88 351 -121 648
-149 838 -78 132 50 348 234 450 384 102 151 144 263 151 405 11 248 -97 435
-314 544 -60 30 -364 81 -364 61z m182 -35 c129 -20 174 -36 253 -90 106 -73
185 -191 216 -320 15 -67 15 -197 0 -265 -55 -232 -319 -547 -545 -651 -201
-92 -548 -60 -924 83 -94 37 -105 53 -34 53 54 0 227 38 319 70 113 39 216 90
300 146 57 39 75 46 110 45 54 -2 69 20 52 78 -11 37 -10 41 29 92 48 64 113
193 136 269 41 137 28 306 -34 438 -16 35 -30 66 -30 68 0 7 20 5 152 -16z"/>
</g>
</svg>
