<?xml version="1.0" encoding="UTF-8" standalone="no"?>
<!-- Created with Inkscape (http://www.inkscape.org/) -->

<svg
   xmlns:dc="http://purl.org/dc/elements/1.1/"
   xmlns:cc="http://creativecommons.org/ns#"
   xmlns:rdf="http://www.w3.org/1999/02/22-rdf-syntax-ns#"
   xmlns:svg="http://www.w3.org/2000/svg"
   xmlns="http://www.w3.org/2000/svg"
   xmlns:sodipodi="http://sodipodi.sourceforge.net/DTD/sodipodi-0.dtd"
   xmlns:inkscape="http://www.inkscape.org/namespaces/inkscape"
   width="210mm"
   height="297mm"
   viewBox="0 0 744.09448819 1052.3622047"
   id="svg2"
   version="1.1"
   inkscape:version="0.91pre4 r13712"
   sodipodi:docname="octopus.svg">
  <defs
     id="defs4" />
  <sodipodi:namedview
     id="base"
     pagecolor="#ffffff"
     bordercolor="#666666"
     borderopacity="1.0"
     inkscape:pageopacity="0.0"
     inkscape:pageshadow="2"
     inkscape:zoom="0.49497475"
     inkscape:cx="412.47971"
     inkscape:cy="791.722"
     inkscape:document-units="px"
     inkscape:current-layer="layer1"
     showgrid="false"
     inkscape:window-width="958"
     inkscape:window-height="1008"
     inkscape:window-x="953"
     inkscape:window-y="0"
     inkscape:window-maximized="0" />
  <metadata
     id="metadata7">
    <rdf:RDF>
      <cc:Work
         rdf:about="">
        <dc:format>image/svg+xml</dc:format>
        <dc:type
           rdf:resource="http://purl.org/dc/dcmitype/StillImage" />
        <dc:title></dc:title>
      </cc:Work>
    </rdf:RDF>
  </metadata>
  <g
     inkscape:label="Layer 1"
     inkscape:groupmode="layer"
     id="layer1">
    <circle
       style="color:#000000;clip-rule:nonzero;display:inline;overflow:visible;visibility:visible;opacity:1;isolation:auto;mix-blend-mode:normal;color-interpolation:sRGB;color-interpolation-filters:linearRGB;solid-color:#000000;solid-opacity:1;fill:#000080;fill-opacity:1;fill-rule:nonzero;stroke:#000000;stroke-width:4.11794424;stroke-linecap:butt;stroke-linejoin:miter;stroke-miterlimit:4;stroke-dasharray:none;stroke-dashoffset:0;stroke-opacity:1;color-rendering:auto;image-rendering:auto;shape-rendering:auto;text-rendering:auto;enable-background:accumulate"
       id="path3349"
       cx="378.57144"
       cy="799.50507"
       r="197.56982" />
    <path
       style="fill:#000000"
       d="m 404.7934,961.94924 c -2.06019,-63.29602 -90.98895,-71.76381 -108.70186,-109.16195 -3.71587,-7.54778 -5.32161,-15.07703 -8.15896,-22.64237 -1.30272,-3.47416 -1.9359,-2.23475 -3.91452,7.66239 -4.77679,30.70753 0.26765,54.16322 21.96409,84.6497 21.69644,30.48648 73.39865,11.40797 97.0184,42.9871 1.3219,2.13888 2.05434,0.71113 1.79285,-3.49483 z"
       id="path3359"
       inkscape:connector-curvature="0"
       sodipodi:nodetypes="cccczccc" />
    <path
       style="fill:#000000"
       d="m 349.08926,875.23049 c 18.8379,-55.6618 63.14293,-53.63852 90.34678,-88.0981 10.99324,-14.66272 18.06916,-47.70212 21.30706,-64.76054 1.07763,-5.61144 1.07688,-6.28198 -0.007,-6.28198 -1.07853,0 -5.91555,7.07947 -8.1251,11.89191 -14.03922,20.0783 -26.87991,35.63006 -45.94237,48.10809 -19.06246,12.47803 -42.58517,28.15172 -50.94629,42.30114 -8.36112,14.14942 -15.20256,28.99388 -15.15731,38.27812 0.0453,9.28424 2.76827,21.27968 8.35595,23.47732 0.1554,0.003 0.19973,-3.56243 0.16831,-4.91595 -0.0314,-1.35351 -3e-5,-10e-6 -3e-5,-10e-6 z"
       id="path3357"
       inkscape:connector-curvature="0"
       sodipodi:nodetypes="cccsczzzczc" />
    <path
       style="fill:#000000"
       d="m 319.50999,849.95065 c -0.20422,-8.24856 -1.51229,-1.94137 2.92739,-23.44986 4.43968,-21.50849 37.58673,-61.76326 28.07445,-104.78592 -1.0545,-2.99199 -2.50613,-5.32707 -3.27968,-8.55199 0,-0.45266 -0.37805,-0.82301 -0.8401,-0.82301 -0.46206,0 -1.51915,3.69141 -2.34908,8.20312 -2.60708,12.30535 -18.61291,36.98099 -24.97772,48.04688 -6.36481,11.06589 -9.43586,19.08453 -10.83462,32.78374 -1.39876,13.69921 -0.67151,37.89014 8.13141,52.45164 2.54464,4.136 3.95652,2.3982 3.14795,-3.8746 z"
       id="path3355"
       inkscape:connector-curvature="0"
       sodipodi:nodetypes="czccsczzcc" />
    <path
       style="fill:#000000"
       d="m 388.44861,756.89185 c 3.96936,-5.97797 12.68741,-16.14303 15.73025,-26.73948 3.04284,-10.59645 0.50101,-15.91013 -0.10434,-20.8174 -6.32941,-25.69328 -8.67834,-46.20963 3.26923,-70.46788 2.04825,-4.05847 3.58406,-7.51906 3.41292,-7.69019 -2.70958,1.34146 -4.27825,3.40129 -6.9893,5.2262 -23.21185,15.94577 -38.34713,43.70169 -35.5714,71.24927 2.62177,22.17196 4.68008,26.46055 3.71136,37.77276 -0.96872,11.31221 -4.42734,20.30716 -7.48833,28.78974 -5.00647,13.71006 -4.95954,12.68358 -0.47512,10.3958 11.14136,-6.40624 20.53537,-21.74085 24.50473,-27.71882 z"
       id="path3347"
       inkscape:connector-curvature="0"
       sodipodi:nodetypes="zzccccczccz" />
    <circle
       style="color:#000000;clip-rule:nonzero;display:inline;overflow:visible;visibility:visible;opacity:1;isolation:auto;mix-blend-mode:normal;color-interpolation:sRGB;color-interpolation-filters:linearRGB;solid-color:#000000;solid-opacity:1;fill:#ff0000;fill-opacity:1;fill-rule:nonzero;stroke:#000000;stroke-width:3.54330707;stroke-linecap:butt;stroke-linejoin:miter;stroke-miterlimit:4;stroke-dasharray:none;stroke-dashoffset:0;stroke-opacity:1;color-rendering:auto;image-rendering:auto;shape-rendering:auto;text-rendering:auto;enable-background:accumulate"
       id="path3363"
       cx="541.69641"
       cy="801.55859"
       r="9.375" />
    <path
       style="fill:#000000"
       d="m 297.66163,541.08495 c -7.98569,-4.15185 -17.52771,-21.35021 -24.84632,-21.69614 -7.31861,-0.34593 -9.70588,1.15338 -11.50626,5.91155 l 3.65454,4.61296 c 6.24119,7.87794 6.08244,10.66144 -0.6098,10.69235 -10.08177,-0.92759 -16.39282,-13.31124 -16.51867,-21.07845 -0.13156,-14.56072 10.05224,-24.91465 25.72093,-26.15062 10.60321,-1.85502 19.3214,-2.6321 27.42187,3.46769 8.10047,6.09979 16.00955,14.85863 25.57383,12.40863 8.89715,-2.27911 17.79409,-5.78192 20.57785,-11.83342 0.5719,-1.19041 0.54948,-1.35641 -0.5493,-1.76596 -60.97214,-10.02435 -139.02612,-12.06028 -192.5555,-2.32159 -18.10399,2.07831 -55.090183,13.65324 -69.843748,6.106 -9.616478,-5.00514 -26.301291,-14.04127 -32.48373,-24.71358 -2.505682,-4.76866 1.796686,-11.68511 6.49101,-11.91681 7.497206,-0.98472 15.662943,12.96563 26.59571,18.91095 16.323428,5.98625 45.191638,-0.65805 59.616668,-7.77851 32.9947,-6.27621 63.26823,-20.12417 95.53181,-28.94494 l 6.64627,-1.90852 -2.21449,-1.69866 c -18.47187,-4.7817 -45.80994,-14.67391 -69.09357,-14.29938 -2.88921,12.84515 -4.77718,22.87515 -15.92656,31.9567 -2.22455,1.79789 -4.21217,3.43642 -4.41693,3.64117 -13.90344,5.62468 -33.63013,-0.29313 -37.08466,-14.43918 -2.84727,-17.20827 13.1632,-28.79383 26.64773,-34.77752 2.94438,-1.27158 3.48862,-1.90651 3.02431,-3.52824 -1.59303,-5.56405 -1.6185,-7.2189 -0.1457,-9.46667 2.01405,-3.07383 5.55381,-3.0603 9.61426,0.0367 3.40962,4.09154 8.2076,5.01015 12.10327,4.57154 50.89069,-9.42575 100.4622,-3.17337 142.73976,-4.05387 3.92638,-0.20729 11.17966,-2.64232 13.83348,-4.64409 1.66762,-1.25789 1.85518,-1.90274 1.06063,-3.64658 -0.53088,-1.16514 -1.74699,-1.62738 -2.70247,-2.11845 -24.45412,-8.0452 -52.87839,-14.68988 -69.88676,-25.88207 -23.85212,-19.37768 -48.11016,-58.77906 -43.98881,-84.07996 15.05873,-21.15924 60.0967,-23.40057 83.57002,-19.09604 39.20932,7.07 84.255,28.96202 107.34375,54.04473 12.31923,7.67051 23.02181,-2.63356 31.76741,7.83512 3.49649,4.47028 6.28053,14.57354 7.27355,20.9173 0.53781,3.43567 -6.24563,12.2599 -9.30015,14.39937 -2.23626,8.0952 3.08622,27.32135 3.59269,36.54905 0.85115,15.63475 32.30186,35.88646 47.05613,42.73294 6.23923,2.8433 12.47204,4.54069 23.19096,6.3156 11.81017,0.72793 24.75924,-4.41774 29.87862,-15.5899 1.34835,-3.22705 1.2448,-4.60278 -0.89539,-11.89614 -1.07523,-3.66416 -4.40052,-8.51093 -9.39304,-13.69077 -4.6179,-4.79118 -10.04644,-7.40913 -17.03656,-8.216 -3.80388,-0.43909 -3.60461,-0.2247 -4.97642,-5.35378 -0.9898,-3.70071 -0.92311,-4.56167 0.52443,-6.77089 1.9127,-2.91915 3.10258,-3.04661 10.53765,-1.12879 23.21955,6.92712 42.69819,25.93117 40.61328,49.69148 -3.39782,23.08186 -8.96772,35.7657 -28.52137,42.0903 -4.88667,2.36101 -10.69087,4.40884 -13.58801,4.79412 l -5.05747,0.67257 5.05747,1.7771 c 17.55604,5.9198 20.93171,20.52417 19.54367,37.46723 -0.49273,5.54086 -1.00657,6.77066 -4.99439,11.95312 -5.31806,5.6726 -11.40059,12.75547 -18.80143,14.78957 -3.83199,0.98948 -14.19418,1.04362 -19.28413,0.10076 -11.43731,-2.11863 -11.58719,-2.18421 -22.97354,-10.05102 -16.49611,-12.56527 -27.85713,-25.62839 -40.53408,-42.0084 -1.89224,-3.43709 -4.13689,-1.238 -7.28015,-0.0613 -29.5023,14.42555 -55.36547,41.07268 -79.45617,51.21995 -14.8337,4.08685 -29.14514,2.17989 -40.33798,-3.06035 z m 205.37284,-30.68613 c 2.72373,-1.35278 3.4217,-4.18624 2.17329,-8.8225 -1.43812,-5.34077 -3.01251,-7.04088 -6.67904,-7.21238 -3.03339,-0.14188 -3.24331,0.0492 -3.80367,3.46311 -0.98478,5.99961 -4.84643,7.03806 -8.78152,2.36148 -2.17505,-2.58491 -2.3901,-3.44217 -1.81894,-7.2509 0.69594,-4.64092 3.50048,-10.43588 5.64885,-11.6721 2.0592,-1.18492 0.55352,-2.52051 -2.8415,-2.52051 -1.69178,0 -6.41298,-0.88292 -10.49155,-1.96204 -13.89897,-3.67742 -13.50993,-3.622 -13.50356,-1.92361 6.63964,16.81487 15.74222,46.08913 40.09764,35.53945 z m -355.4183,-63.05006 c 6.73598,-0.40896 15.3104,-13.84084 10.1095,-15.83661 -6.54353,0.54866 -15.51635,4.73631 -17.53484,11.14956 -0.33597,6.12726 3.41779,4.94976 7.42534,4.68705 z m 253.72399,-81.12135 c 0.40159,-11.43756 -6.45475,-27.01946 -16.64389,-8.74003 -1.09898,4.37871 3.05481,8.48715 9.79728,9.69033 4.98495,0.88956 7.05307,0.6025 6.84661,-0.9503 z m -108.5161,-82.97962 c -1.93964,-4.08749 -4.6705,-5.31079 -8.45799,-3.78878 -3.35431,1.34793 -4.44558,4.69399 -2.68607,8.23604 1.10319,2.22083 1.79355,2.53315 5.43766,2.46 5.79048,-0.14994 7.48101,-3.14572 5.7064,-6.90726 z M 35.899802,411.24502 c 0.31867,-0.51562 0.76545,-0.9375 0.99283,-0.9375 0.22738,0 0.41342,0.42188 0.41342,0.9375 0,0.51563 -0.44677,0.9375 -0.99283,0.9375 -0.54605,0 -0.73209,-0.42187 -0.41342,-0.9375 z"
       id="path3386"
       inkscape:connector-curvature="0"
       sodipodi:nodetypes="czcsccczsccccccccccccccccsscccssccccccscccccssssscccscccccscccccccssssssssccsccsccsccssccsssss" />
  </g>
</svg>
