<?xml version="1.0" standalone="no"?>
<!DOCTYPE svg PUBLIC "-//W3C//DTD SVG 20010904//EN"
 "http://www.w3.org/TR/2001/REC-SVG-20010904/DTD/svg10.dtd">
<svg version="1.0" xmlns="http://www.w3.org/2000/svg"
 width="508.000000pt" height="600.000000pt" viewBox="0 0 508.000000 600.000000"
 preserveAspectRatio="xMidYMid meet">
<metadata>
Created by potrace 1.11, written by Peter Selinger 2001-2013
</metadata>
<g transform="translate(0.000000,600.000000) scale(0.100000,-0.100000)"
fill="#000000" stroke="none">
<path d="M998 5652 c-2 -17 -1 -29 2 -27 4 2 7 -2 7 -9 0 -8 -6 -12 -13 -9
-16 6 -12 -20 6 -43 14 -16 13 -17 -5 -10 -17 6 -16 3 5 -20 l25 -27 -25 13
-25 13 25 -28 c24 -27 24 -27 3 -16 -27 14 -29 5 -5 -23 16 -20 16 -20 0 -7
-22 17 -24 -2 -2 -19 8 -8 20 -23 26 -34 11 -21 11 -21 -11 -2 -36 33 -33 12
7 -35 l37 -44 -32 23 c-41 29 -42 13 -3 -31 36 -42 40 -60 5 -27 -34 32 -42
19 -10 -18 14 -16 25 -32 25 -35 0 -2 -25 3 -56 11 -48 14 -55 18 -49 36 3 12
8 37 11 56 4 28 3 31 -5 14 -16 -37 -31 -37 -16 0 21 49 20 80 -1 46 -16 -26
-16 -22 2 40 6 24 6 25 -10 5 -16 -19 -16 -18 -2 18 8 20 11 37 6 37 -4 0 -11
-6 -13 -12 -4 -10 -6 -10 -6 -1 -1 6 4 15 9 18 6 3 10 11 10 17 0 6 -7 5 -17
-3 -15 -13 -15 -12 -3 11 12 23 12 24 -3 11 -10 -8 -17 -9 -17 -3 0 6 4 13 9
17 13 8 6 61 -8 58 -6 -2 -12 2 -12 7 -1 6 -3 15 -4 20 -1 6 -3 15 -4 21 0 5
-6 7 -11 4 -6 -3 -8 -17 -6 -31 3 -14 0 -24 -7 -24 -7 0 -6 -4 3 -10 12 -8 12
-10 1 -10 -11 0 -11 -3 0 -17 10 -11 10 -14 2 -9 -19 11 -16 -5 5 -21 16 -14
16 -14 -2 -8 -20 6 -20 6 0 -16 19 -22 19 -22 0 -15 -20 7 -20 6 -1 -14 19
-20 19 -21 0 -14 -17 7 -16 4 5 -27 13 -19 17 -28 10 -21 -29 25 -31 11 -5
-24 l28 -36 -28 18 c-28 18 -28 18 -16 -3 6 -12 16 -25 21 -28 5 -3 15 -16 21
-28 11 -21 10 -21 -15 2 -31 29 -35 15 -5 -23 21 -27 15 -31 -28 -20 -20 6
-22 11 -18 53 l5 46 -15 -30 c-14 -30 -14 -30 -9 20 3 38 2 45 -6 30 -8 -17
-10 -14 -7 14 4 32 3 33 -10 15 -14 -18 -14 -17 -8 12 7 34 -21 107 -37 98 -5
-3 -8 2 -6 12 2 12 -2 18 -10 16 -8 -1 -11 2 -8 7 3 5 0 14 -8 20 -11 9 -15 5
-18 -24 -3 -26 0 -39 11 -45 13 -8 13 -9 2 -10 -11 0 -9 -4 5 -15 19 -15 19
-15 -1 -9 -20 6 -20 5 -1 -10 11 -9 15 -16 9 -16 -19 0 -8 -31 18 -52 22 -18
23 -19 2 -8 -36 17 -28 -7 8 -25 17 -9 29 -19 26 -22 -3 -2 -15 0 -26 7 -32
16 -25 -2 8 -25 34 -22 34 -33 1 -15 -20 11 -21 10 -10 -9 9 -17 8 -21 -5 -21
-10 0 -17 14 -22 43 -6 37 -8 39 -13 17 -6 -23 -8 -21 -15 15 -7 33 -9 36 -16
20 -6 -17 -8 -15 -8 10 -1 23 -4 27 -11 15 -8 -12 -10 -11 -10 5 0 21 -34 58
-44 48 -3 -3 -8 2 -12 11 -3 9 -12 16 -20 16 -8 0 -14 5 -14 10 0 6 -5 10 -10
10 -12 0 -1 -53 12 -58 4 -2 6 -8 2 -13 -3 -5 3 -9 13 -9 15 0 16 -2 3 -10
-12 -8 -12 -10 5 -11 11 0 14 -3 7 -6 -19 -7 5 -33 32 -34 20 0 21 -1 1 -9
-17 -7 -16 -9 10 -10 18 -2 23 -4 13 -7 -27 -7 -22 -23 7 -23 40 0 29 -15 -14
-18 -35 -2 -39 0 -48 30 -8 24 -12 27 -13 13 -2 -17 -3 -16 -9 5 -4 14 -13 24
-19 22 -7 -1 -12 8 -12 20 0 12 -3 19 -6 16 -3 -4 -18 7 -33 23 -16 16 -35 29
-43 29 -8 0 -20 6 -27 13 -10 10 -11 6 -5 -17 4 -16 15 -37 25 -47 11 -11 19
-26 19 -34 0 -9 9 -15 23 -15 18 0 19 -2 7 -10 -12 -8 -8 -10 15 -11 21 -1 24
-3 10 -6 -17 -5 -15 -7 10 -19 l30 -14 -35 4 c-19 1 -44 7 -55 11 -18 8 -19 7
-6 -8 13 -16 12 -17 -15 -7 -16 6 -25 8 -21 4 8 -8 -39 -26 -116 -45 -34 -8
-46 -14 -38 -22 14 -14 69 -18 77 -6 3 6 11 6 19 -1 15 -12 59 -4 51 9 -3 4 1
8 9 8 8 0 15 -5 15 -10 0 -5 9 1 21 14 11 13 17 18 13 10 -4 -9 0 -19 11 -28
18 -12 18 -13 -4 -13 -12 0 -19 -4 -16 -10 3 -6 -1 -13 -9 -16 -9 -3 -13 -10
-10 -15 3 -5 1 -9 -5 -9 -7 0 -41 -53 -41 -66 0 -8 48 13 64 28 11 10 26 18
33 18 7 0 13 7 13 16 0 8 5 12 10 9 6 -3 10 4 11 17 0 22 1 22 8 3 7 -17 9
-15 16 15 7 29 9 32 15 15 6 -16 8 -12 14 19 5 28 11 36 22 32 9 -3 20 -6 25
-6 6 0 8 -4 4 -9 -3 -5 5 -12 17 -14 17 -3 14 -5 -9 -6 -35 -1 -45 -17 -15
-24 9 -3 4 -5 -13 -6 -23 -1 -27 -3 -15 -11 13 -8 12 -10 -3 -10 -25 0 -52
-26 -34 -33 6 -3 3 -6 -8 -6 -15 -1 -17 -3 -6 -10 11 -7 9 -10 -7 -15 -11 -4
-22 -14 -25 -24 -3 -9 -8 -25 -12 -35 -7 -17 -6 -17 29 -1 20 10 36 22 36 26
0 5 5 6 10 3 6 -3 10 -1 10 4 0 6 7 11 15 11 9 0 15 9 15 23 0 16 3 18 9 8 6
-10 11 -5 17 20 7 33 8 33 15 9 7 -24 7 -23 8 7 1 17 5 34 10 37 5 4 7 -4 3
-16 -3 -11 -1 -19 4 -16 5 3 18 2 29 -3 19 -7 19 -8 -2 -8 -28 -1 -39 -18 -16
-24 14 -4 13 -5 -4 -6 -26 -1 -50 -36 -30 -44 6 -3 3 -6 -8 -7 l-20 -1 20 -9
c18 -8 18 -9 -5 -10 -23 -1 -23 -2 -5 -10 19 -8 19 -9 -3 -9 -15 -1 -22 -6
-19 -13 2 -7 -2 -26 -10 -42 l-15 -29 27 21 c15 12 31 19 36 16 5 -2 11 7 15
22 4 17 9 22 14 14 6 -9 10 -6 15 9 3 12 11 19 16 16 5 -4 9 6 9 22 0 22 2 25
10 13 7 -11 10 -5 11 25 1 38 2 38 8 10 5 -25 8 -27 14 -12 4 10 7 31 8 45 l1
27 7 -25 c7 -22 9 -19 16 22 7 45 9 47 34 42 37 -9 37 -10 5 -39 l-29 -25 30
6 30 6 -32 -21 c-37 -23 -43 -36 -13 -28 28 7 14 -12 -18 -25 l-27 -12 25 -4
c23 -4 23 -5 -10 -19 -20 -9 -29 -17 -22 -20 10 -4 9 -9 -5 -20 -17 -13 -17
-14 0 -9 25 8 21 -3 -5 -14 -23 -9 -23 -9 2 -10 25 -1 24 -1 -5 -15 -24 -11
-26 -14 -10 -15 l20 -1 -20 -9 c-13 -6 -15 -9 -5 -9 9 -1 11 -4 5 -9 -5 -4
-11 -12 -12 -17 -1 -6 -4 -24 -8 -40 l-7 -30 21 25 c11 14 26 25 33 25 8 0 12
10 10 25 -2 20 -1 22 7 10 9 -13 11 -12 11 3 0 10 4 16 9 13 5 -4 7 4 4 16 -4
19 -3 20 6 8 9 -13 11 -12 11 3 0 10 5 15 10 12 7 -4 9 7 7 32 -3 21 -2 30 0
21 9 -35 21 -17 17 25 l-5 42 16 -30 c15 -30 15 -30 10 23 -6 59 0 68 14 20 8
-30 9 -28 10 25 1 65 -2 64 79 30 l35 -14 -32 -20 c-34 -21 -45 -47 -12 -29
41 22 44 9 4 -16 -49 -29 -58 -49 -15 -34 l27 10 -24 -20 c-13 -11 -29 -20
-37 -20 -8 0 -14 -5 -14 -10 0 -6 12 -8 28 -5 23 5 22 3 -10 -15 -43 -23 -49
-34 -15 -25 20 5 20 5 -3 -9 -22 -14 -23 -15 -5 -16 18 -1 17 -2 -5 -15 l-25
-14 25 -1 c24 -1 24 -1 -5 -15 -24 -11 -26 -14 -10 -15 20 -1 20 -2 0 -9 -11
-4 -20 -18 -21 -32 -1 -13 -5 -37 -8 -54 l-7 -30 21 25 c12 14 27 25 34 25 6
0 10 15 9 35 l-1 35 14 -25 14 -25 -6 30 c-4 23 -3 26 5 15 9 -12 11 -10 11
10 0 20 2 22 10 10 8 -13 10 -12 10 3 0 10 4 15 10 12 6 -4 8 12 5 42 -2 26
-2 39 1 28 14 -48 26 -39 20 15 l-5 55 14 -40 13 -40 3 60 c1 33 4 49 6 35 3
-14 9 -29 15 -35 7 -7 9 8 6 48 -5 63 -3 65 66 30 l29 -15 -42 -18 c-51 -24
-53 -37 -3 -33 l37 3 -44 -17 c-51 -21 -70 -48 -25 -37 18 5 25 3 20 -4 -3 -6
-20 -13 -36 -17 -42 -9 -52 -29 -11 -23 17 2 31 1 31 -4 0 -4 -6 -8 -14 -8 -8
0 -27 -5 -43 -11 l-28 -12 25 -7 25 -8 -27 -1 c-37 -1 -46 -21 -11 -22 27 -2
27 -2 3 -6 -39 -7 -48 -23 -15 -24 28 0 28 -1 -10 -14 -39 -13 -39 -13 -10
-15 l30 -2 -35 -10 c-34 -11 -34 -11 -10 -18 l25 -8 -25 -2 c-23 -1 -23 -2 -5
-10 l20 -9 -20 0 c-15 -1 -17 -3 -7 -10 11 -7 11 -9 -1 -14 -8 -3 -17 -15 -20
-26 -4 -18 -2 -19 14 -10 10 5 19 14 19 20 0 6 5 7 10 4 6 -3 13 1 16 10 6 13
8 14 15 3 6 -9 9 -3 10 17 0 26 2 27 9 10 7 -17 9 -16 9 10 1 23 4 27 11 15 7
-12 10 -8 11 15 0 26 2 27 9 10 7 -17 9 -14 10 15 2 32 3 33 10 10 6 -19 8
-11 10 35 l2 60 13 -40 13 -40 2 65 2 65 13 -45 13 -45 2 40 c1 22 6 51 10 65
7 21 8 18 10 -20 1 -25 2 -51 1 -58 -2 -11 6 -12 31 -7 43 9 26 -8 -24 -25
-49 -15 -49 -30 0 -24 l37 4 -40 -15 c-72 -27 -72 -28 -40 -35 l30 -8 -27 -1
c-34 -1 -45 -18 -16 -24 20 -3 18 -5 -11 -12 l-33 -8 28 -13 29 -12 -32 -1
c-40 -1 -44 -18 -5 -24 26 -4 25 -4 -5 -6 -38 -1 -56 -21 -19 -21 14 0 27 -4
30 -8 3 -5 -9 -7 -27 -5 -26 3 -28 1 -12 -6 19 -9 18 -10 -5 -11 -23 -1 -23
-2 -5 -10 19 -8 19 -9 1 -9 -11 -1 -17 -4 -13 -7 3 -3 2 -17 -4 -31 -7 -18 -6
-22 3 -17 28 18 48 39 49 54 0 10 3 9 9 -5 l9 -20 0 20 c1 17 3 18 12 5 8 -11
9 -5 5 25 l-5 40 14 -30 14 -30 1 35 c1 29 3 31 10 15 7 -16 9 -12 10 20 2 38
3 38 9 10 3 -16 10 -29 14 -27 4 1 22 2 40 1 l32 -1 -37 -10 c-44 -12 -50 -28
-10 -29 26 -1 25 -1 -6 -9 -46 -11 -48 -16 -10 -25 l33 -9 -35 -3 c-44 -5 -65
-23 -26 -23 15 0 25 -4 21 -10 -3 -5 -17 -10 -31 -10 -33 0 -31 -18 4 -23 24
-4 23 -4 -8 -6 -33 -3 -33 -4 -10 -11 25 -8 25 -8 -5 -9 l-30 -2 24 -13 c14
-8 29 -22 33 -32 6 -15 7 -12 5 9 -5 33 0 35 13 5 9 -23 9 -23 10 2 1 23 2 23
10 5 7 -16 9 -12 11 20 1 24 3 31 6 18 8 -42 21 -23 17 25 l-4 47 11 -35 c13
-40 23 -25 17 25 -2 18 0 31 4 29 4 -3 8 -16 8 -29 0 -41 20 -39 21 2 1 30 3
33 7 13 4 -18 9 -6 18 45 10 61 12 65 13 28 2 -76 21 -46 22 35 1 54 3 69 9
52 4 -14 8 -39 9 -57 1 -31 1 -32 50 -29 60 2 57 -9 -6 -27 -64 -19 -72 -43
-12 -33 56 9 40 -7 -24 -24 -60 -16 -69 -30 -20 -30 28 0 34 -3 23 -10 -8 -5
-27 -10 -42 -10 -15 0 -30 -4 -33 -10 -4 -6 7 -10 24 -10 17 0 31 -4 31 -10 0
-5 -13 -10 -29 -10 -42 0 -47 -16 -8 -25 l32 -8 -38 -7 c-51 -10 -55 -17 -16
-29 32 -9 32 -9 7 -10 -14 -1 -35 -4 -45 -8 -15 -6 -13 -9 12 -14 l30 -7 -27
-1 c-34 -1 -37 -18 -5 -24 17 -3 16 -5 -8 -6 l-30 -2 28 -15 c15 -8 27 -22 28
-32 1 -11 4 -8 9 8 5 16 8 19 9 8 1 -9 5 -19 9 -22 5 -3 7 9 5 27 -2 29 -2 30
6 7 8 -21 9 -17 11 25 l2 50 13 -40 13 -40 2 50 c1 28 4 41 7 30 3 -11 10 -24
15 -30 7 -7 8 9 4 50 -4 40 -3 53 3 40 5 -11 10 -30 10 -42 2 -41 21 -24 22
20 2 30 3 34 6 14 8 -50 23 -17 24 51 1 71 3 72 14 7 6 -33 9 -37 15 -20 5 11
9 49 10 85 l2 65 12 -60 c14 -73 26 -54 26 40 0 35 5 67 10 70 6 4 10 -13 10
-44 0 -28 4 -51 9 -51 11 0 21 51 21 111 0 27 4 49 9 49 5 0 37 -30 70 -67
l61 -68 -52 -11 c-59 -12 -88 -25 -108 -49 -12 -14 -7 -15 44 -9 69 8 76 -9 9
-25 -25 -7 -60 -19 -77 -28 -28 -15 -29 -17 -11 -24 11 -4 35 -5 54 -2 58 10
26 -14 -37 -28 -31 -7 -64 -18 -72 -26 -12 -11 -5 -13 45 -13 69 0 59 -15 -16
-25 -26 -4 -56 -13 -66 -21 -16 -12 -14 -13 25 -14 26 0 41 -4 37 -10 -3 -5
-24 -10 -45 -10 -66 0 -58 -28 8 -31 15 -1 4 -6 -25 -11 -29 -5 -53 -13 -53
-17 0 -5 19 -12 43 -17 l42 -8 -45 -3 c-25 -2 -52 -6 -60 -9 -13 -4 -13 -6 0
-14 8 -6 29 -10 45 -11 22 -1 16 -4 -25 -14 -52 -11 -53 -18 -5 -28 11 -3 2
-6 -20 -7 l-40 -2 33 -14 c18 -8 35 -22 38 -32 16 -51 24 -54 18 -7 -7 58 1
57 15 -1 9 -38 9 -37 11 26 1 46 4 59 10 45 5 -11 9 -33 9 -48 2 -50 21 -18
22 36 1 47 2 49 9 19 13 -55 20 -49 21 19 l1 64 12 -48 c14 -59 25 -51 28 17
1 50 2 51 5 9 2 -24 8 -43 12 -43 9 0 20 75 22 145 1 33 3 29 14 -30 7 -38 13
-68 15 -65 1 3 7 50 14 105 l13 100 8 -73 c4 -43 11 -70 17 -64 4 4 13 48 19
97 5 49 12 91 14 94 6 5 9 -33 6 -65 -1 -12 3 -32 8 -45 8 -23 9 -22 20 16 6
22 11 54 11 70 0 17 3 46 6 67 l6 36 28 -31 c15 -18 55 -70 90 -117 l63 -85
-64 -6 c-114 -10 -177 -59 -75 -59 76 0 79 -17 3 -25 -116 -14 -152 -54 -47
-55 67 0 36 -19 -43 -27 -90 -8 -108 -29 -33 -38 76 -10 71 -25 -7 -25 -38 0
-71 -6 -82 -14 -18 -13 -16 -15 25 -24 l45 -10 -52 -1 c-66 -1 -75 -15 -21
-34 l43 -15 -57 -1 c-32 -1 -58 -5 -58 -9 0 -5 21 -16 48 -24 l47 -16 -63 -1
c-65 -1 -76 -14 -22 -26 51 -11 42 -22 -15 -17 -59 5 -77 -12 -25 -23 16 -4
32 -11 35 -16 4 -5 0 -7 -7 -5 -64 20 -99 9 -38 -13 41 -14 38 -21 -7 -15 -38
5 -38 5 -13 -10 l25 -15 -30 -1 c-29 0 -29 0 -8 -15 12 -8 24 -25 26 -38 3
-15 5 -11 6 13 l3 35 13 -35 13 -35 2 45 c2 44 2 44 10 12 12 -50 20 -50 21
-1 l2 44 7 -40 c8 -50 18 -30 23 45 l3 55 8 -52 c11 -69 26 -58 27 20 0 44 3
56 9 42 5 -11 9 -33 9 -48 2 -56 21 -15 21 44 0 38 4 58 10 54 6 -3 10 -26 10
-51 0 -69 16 -52 27 29 l10 72 2 -59 c2 -81 17 -62 36 44 8 45 17 85 20 88 3
3 5 -28 5 -69 1 -94 15 -74 35 47 8 47 16 89 19 92 3 3 6 -33 7 -79 0 -79 1
-82 14 -54 8 17 23 68 33 115 l20 85 2 -80 2 -80 18 41 c11 22 25 76 32 120
l14 79 36 -60 c37 -62 108 -197 108 -206 0 -3 -26 -2 -57 2 -65 9 -114 4 -157
-18 -22 -12 -26 -17 -15 -24 8 -5 28 -9 44 -9 17 -1 44 -7 60 -15 30 -13 30
-13 5 -15 -126 -8 -155 -12 -178 -24 l-26 -14 39 -11 c22 -6 56 -15 75 -20 35
-8 35 -8 -23 -16 -32 -4 -73 -5 -91 -2 -36 6 -62 -5 -52 -21 3 -6 31 -16 61
-22 81 -17 76 -29 -9 -23 -75 6 -126 -1 -126 -16 0 -5 27 -16 61 -25 33 -10
59 -19 57 -21 -1 -1 -34 2 -71 7 -92 14 -107 -1 -32 -32 31 -12 54 -24 52 -26
-2 -2 -30 1 -61 7 -88 16 -100 4 -30 -31 60 -31 59 -31 -38 -14 -59 10 -65 -6
-11 -32 l48 -24 -62 6 c-35 3 -63 2 -63 -3 0 -4 19 -16 42 -25 54 -23 44 -33
-12 -13 -24 8 -45 13 -48 10 -6 -6 -8 -4 38 -34 37 -24 38 -24 -40 -5 -22 5
-21 3 8 -16 17 -12 32 -24 32 -27 0 -4 -8 -2 -60 15 -8 2 -3 -6 12 -19 15 -13
29 -37 31 -54 3 -25 4 -24 6 9 1 43 16 40 24 -4 2 -14 5 -4 6 23 1 58 21 54
21 -4 0 -63 20 -36 22 29 l1 57 6 -60 c7 -69 17 -63 27 16 10 82 23 94 24 21
0 -81 16 -72 25 13 9 80 25 85 25 8 1 -69 14 -54 25 27 13 93 24 102 24 21 1
-92 14 -84 35 19 l15 75 -2 -63 c-2 -58 4 -75 18 -52 3 6 16 51 29 100 25 100
36 123 30 61 -2 -23 -6 -59 -8 -81 -4 -42 7 -53 22 -22 5 9 19 61 31 114 12
54 26 100 31 103 4 3 7 -3 5 -12 -2 -10 -6 -54 -9 -97 -4 -69 -3 -77 10 -64 8
8 28 64 45 124 17 60 33 111 36 114 7 6 -6 -145 -14 -165 -3 -8 -1 -15 5 -15
16 0 49 78 73 173 12 48 25 87 29 87 15 0 141 -333 130 -343 -3 -2 -34 -1 -70
3 -77 9 -159 -2 -195 -26 -14 -9 -24 -18 -23 -20 2 -2 34 -8 72 -14 38 -6 78
-16 90 -23 18 -10 4 -13 -89 -18 -107 -5 -167 -21 -148 -40 5 -5 42 -17 83
-27 l75 -19 -47 -7 c-26 -4 -77 -6 -113 -5 -39 1 -71 -3 -77 -9 -16 -16 -11
-19 63 -38 104 -26 98 -37 -16 -30 -80 5 -104 4 -120 -8 -23 -17 -26 -15 72
-46 l58 -19 -60 6 c-138 16 -160 2 -63 -40 51 -23 56 -27 28 -23 -165 24 -178
18 -75 -34 60 -30 60 -30 20 -25 -120 16 -135 17 -135 8 0 -6 25 -21 55 -34
55 -24 74 -44 33 -34 -70 16 -119 22 -124 13 -3 -5 -4 -10 -3 -11 2 -1 26 -13
53 -25 60 -28 56 -38 -7 -16 -62 21 -79 13 -33 -15 45 -28 41 -37 -9 -21 -47
16 -57 6 -16 -17 18 -10 34 -29 37 -43 3 -14 9 -38 13 -55 8 -26 9 -22 10 27
1 67 21 91 21 26 0 -62 19 -87 21 -28 1 25 5 59 9 75 6 23 8 14 9 -39 1 -92
16 -76 34 34 l14 85 7 -78 c4 -43 11 -76 14 -72 3 3 14 47 23 98 l17 92 1 -73
c1 -107 22 -90 42 34 l16 99 2 -88 c1 -115 20 -113 42 4 22 120 27 126 21 27
-8 -134 11 -115 58 64 l31 113 -6 -97 c-8 -151 18 -126 60 55 28 123 47 168
40 97 -2 -25 -7 -79 -10 -120 -6 -74 -5 -75 14 -55 11 11 33 69 50 130 43 158
53 177 46 90 -2 -38 -8 -90 -12 -115 -5 -40 -4 -44 9 -32 24 19 54 97 78 200
12 50 25 92 30 92 16 0 107 -436 94 -449 -2 -2 -43 8 -91 23 -49 14 -106 26
-129 26 -45 0 -104 -17 -104 -30 0 -5 24 -16 53 -26 28 -9 70 -26 92 -38 35
-18 37 -21 18 -24 -13 -2 -59 4 -104 13 -81 17 -169 14 -169 -5 0 -8 51 -34
150 -78 24 -10 23 -11 -15 -11 -22 -1 -76 8 -120 18 -54 13 -85 16 -97 10 -10
-5 -18 -12 -18 -15 0 -3 34 -21 75 -41 41 -19 78 -39 81 -44 7 -12 9 -12 -108
16 -154 37 -185 19 -67 -41 39 -19 69 -37 67 -40 -3 -2 -42 10 -88 27 -77 28
-110 31 -110 12 0 -5 30 -27 67 -51 37 -23 63 -42 57 -42 -5 0 -45 14 -88 30
-106 41 -119 26 -32 -36 36 -26 64 -49 63 -50 -2 -2 -37 10 -78 26 -121 48
-145 37 -53 -24 31 -21 54 -40 51 -42 -2 -3 -35 7 -73 21 -92 35 -112 25 -46
-22 68 -47 66 -59 -4 -21 -30 17 -58 27 -61 24 -4 -3 13 -22 36 -42 23 -20 40
-38 37 -41 -2 -3 -25 7 -51 22 -55 33 -70 26 -26 -11 39 -33 35 -40 -13 -20
-42 18 -46 12 -11 -16 20 -15 25 -29 26 -66 l1 -47 13 48 c19 68 25 69 26 6
l1 -54 17 65 16 65 5 -65 c6 -71 11 -67 34 30 l15 65 -5 -80 c-7 -100 6 -92
41 25 14 46 27 86 30 88 5 5 -3 -105 -10 -141 -2 -11 1 -17 8 -14 7 2 26 48
44 103 l31 99 -5 -75 c-2 -41 -6 -81 -9 -87 -2 -7 1 -13 7 -13 11 0 21 25 55
135 l24 80 -5 -80 c-4 -44 -9 -88 -12 -99 -3 -12 -1 -17 8 -14 8 2 29 50 48
106 19 56 36 100 38 99 2 -2 -3 -36 -12 -76 -21 -100 -20 -111 4 -86 17 18 87
173 106 233 4 13 9 22 11 19 2 -2 -5 -44 -16 -93 -11 -49 -20 -98 -20 -108 0
-18 1 -18 19 -2 20 18 34 49 81 172 49 130 60 133 34 8 -12 -60 -25 -117 -29
-126 -4 -10 -3 -18 2 -18 20 0 45 40 98 161 82 184 96 187 45 10 -17 -57 -28
-106 -26 -108 10 -10 76 84 101 145 15 37 39 92 53 122 l25 55 8 -78 c5 -42
13 -189 19 -325 6 -136 14 -263 17 -282 l6 -34 -63 57 c-67 60 -167 117 -207
117 -12 0 -23 -3 -23 -6 0 -4 34 -43 76 -86 42 -44 73 -82 70 -86 -4 -3 -28
10 -54 28 -125 89 -160 110 -191 116 -33 7 -33 6 -20 -17 7 -13 36 -49 66 -80
29 -31 53 -59 53 -63 0 -12 -68 32 -142 91 -59 47 -108 67 -108 45 0 -4 29
-41 65 -81 36 -41 65 -78 65 -83 0 -10 -6 -6 -125 89 -69 56 -115 78 -115 56
0 -5 25 -39 56 -78 79 -99 78 -100 -18 -7 -122 117 -142 112 -57 -16 l52 -77
-81 79 c-44 43 -85 75 -91 72 -6 -4 5 -32 32 -74 65 -102 65 -102 -14 -25 -64
62 -99 87 -99 68 0 -2 18 -32 40 -67 21 -34 37 -65 34 -68 -3 -3 -30 23 -61
58 -30 34 -61 62 -69 62 -20 0 -18 -4 22 -67 19 -30 33 -57 30 -60 -2 -2 -23
21 -46 51 -23 31 -46 56 -51 56 -13 0 -12 -6 17 -61 14 -28 24 -53 21 -55 -2
-2 -19 16 -37 41 -42 56 -57 58 -30 5 28 -55 25 -59 -15 -20 -35 34 -47 32
-20 -4 28 -36 14 -41 -15 -6 -31 36 -38 34 -18 -3 10 -20 10 -21 -6 -8 -14 12
-16 12 -11 0 4 -10 -3 -15 -21 -17 -14 -1 -33 -6 -42 -12 -15 -8 -15 -10 3
-11 11 -1 24 -1 30 1 5 1 16 -7 23 -17 14 -17 14 -17 8 0 -3 10 -2 16 3 12 5
-3 12 1 14 7 4 10 6 10 6 0 1 -7 -4 -23 -10 -35 -6 -14 2 -9 21 13 21 23 29
28 25 15 -19 -52 -14 -56 14 -15 34 50 39 44 16 -20 -8 -24 -13 -45 -11 -47 2
-2 20 22 40 54 40 66 45 61 17 -20 -11 -32 -17 -57 -13 -57 5 0 25 29 46 65
21 36 40 64 42 62 3 -2 -9 -34 -26 -71 -17 -39 -25 -66 -17 -64 6 3 37 36 67
76 30 39 56 70 57 68 2 -2 -11 -33 -27 -70 -49 -109 -34 -111 45 -6 76 102 77
102 21 -22 -39 -87 -10 -74 63 27 34 47 64 85 66 85 2 0 -14 -38 -36 -84 -21
-46 -39 -89 -39 -96 0 -23 37 12 100 94 33 43 60 76 60 73 0 -3 -20 -40 -45
-81 -25 -42 -45 -81 -45 -86 0 -26 34 -1 124 92 55 57 97 99 94 93 -3 -5 -29
-49 -58 -98 -29 -48 -51 -90 -48 -92 14 -14 63 25 124 96 36 44 79 88 95 99
25 18 20 7 -36 -86 -36 -59 -63 -109 -61 -111 12 -12 50 14 112 78 77 78 144
135 144 122 0 -10 -37 -67 -95 -147 -20 -27 -34 -51 -31 -53 14 -14 103 51
182 134 l91 95 27 -142 c24 -122 79 -333 103 -395 3 -10 -35 18 -85 62 -102
90 -161 123 -230 131 l-47 5 88 -90 c78 -82 101 -113 80 -113 -5 0 -50 31
-101 69 -109 81 -202 124 -202 93 0 -10 57 -80 114 -139 22 -24 38 -43 34 -43
-15 0 -101 56 -168 109 -41 34 -85 61 -97 61 -13 0 -23 -3 -23 -6 0 -9 57 -82
107 -136 53 -58 56 -81 6 -39 -175 145 -223 176 -237 153 -3 -5 27 -49 67 -98
l71 -89 -69 61 c-39 34 -81 74 -94 88 -21 23 -61 36 -61 21 0 -3 28 -47 61
-98 l62 -92 -91 88 c-51 49 -96 86 -102 82 -12 -7 -4 -22 64 -127 20 -32 33
-58 29 -58 -4 0 -42 36 -83 81 -50 54 -81 80 -92 78 -15 -3 -12 -13 21 -65 68
-107 66 -111 -17 -31 -45 43 -86 76 -91 72 -6 -3 9 -36 35 -76 25 -39 43 -73
41 -76 -3 -2 -28 26 -57 62 -46 58 -70 78 -70 59 0 -4 14 -31 31 -61 32 -55
33 -87 2 -43 -30 43 -72 85 -73 73 0 -7 11 -33 25 -58 32 -56 17 -59 -25 -5
-40 50 -49 46 -21 -9 20 -38 20 -42 5 -81 -23 -57 -12 -60 22 -5 16 25 32 45
36 45 3 0 -3 -23 -13 -51 -29 -76 -18 -81 25 -10 21 34 40 60 42 58 2 -2 -6
-32 -17 -66 -12 -34 -18 -65 -15 -68 8 -8 6 -11 55 75 24 41 45 72 47 69 2 -2
-12 -39 -31 -82 -54 -119 -28 -112 61 15 27 38 52 70 56 70 4 0 -11 -39 -33
-86 -22 -48 -38 -89 -36 -91 11 -11 38 16 97 97 35 49 66 88 67 86 2 -2 -15
-42 -37 -91 -22 -48 -40 -89 -40 -91 0 -2 6 -4 14 -4 8 0 48 45 88 99 40 55
74 98 76 97 2 -2 -17 -45 -42 -95 -79 -156 -52 -159 64 -6 75 98 96 119 62 63
-55 -92 -92 -160 -92 -169 0 -17 31 -9 53 14 12 12 59 62 105 111 46 49 85 87
87 85 2 -2 -23 -46 -56 -98 -55 -88 -70 -121 -51 -121 23 1 63 37 140 125 127
144 145 149 66 19 -36 -60 -70 -113 -75 -119 -5 -5 -9 -15 -9 -22 0 -29 59 13
173 123 65 64 121 114 124 111 7 -8 -21 -57 -72 -122 -26 -33 -53 -73 -62 -88
-14 -28 -14 -29 9 -22 55 17 89 44 200 159 64 66 119 118 121 116 2 -3 17 -39
32 -80 42 -112 134 -302 198 -410 l57 -95 -47 54 c-62 71 -150 135 -214 156
-28 9 -52 15 -55 12 -3 -2 29 -50 70 -105 74 -99 97 -136 117 -188 9 -25 8
-26 -8 -13 -10 7 -72 68 -138 135 -84 85 -136 129 -174 147 -30 15 -56 25 -58
23 -8 -7 56 -123 112 -205 31 -46 54 -85 51 -89 -3 -3 -74 63 -156 146 -139
140 -190 178 -190 140 0 -7 26 -54 58 -106 95 -155 104 -173 97 -180 -3 -4
-23 14 -43 38 -20 25 -81 93 -135 153 -83 90 -103 107 -128 107 -25 0 -28 -3
-20 -17 5 -10 41 -74 80 -141 39 -68 71 -126 71 -129 0 -3 -48 58 -106 135
-95 128 -134 165 -151 148 -4 -3 21 -65 55 -138 34 -72 61 -132 60 -134 -2 -1
-41 52 -88 119 -95 135 -105 147 -126 147 -22 0 -18 -12 40 -141 30 -65 50
-119 46 -119 -5 0 -46 54 -92 120 -76 109 -109 142 -126 126 -3 -4 3 -23 12
-44 42 -86 85 -192 78 -192 -5 0 -43 50 -86 111 -72 102 -99 130 -112 117 -2
-3 14 -48 36 -99 23 -52 44 -100 47 -106 3 -7 1 -13 -4 -13 -5 0 -33 43 -62
95 -78 141 -97 145 -51 10 34 -100 33 -95 23 -95 -5 0 -28 36 -53 80 -41 72
-60 95 -60 72 0 -5 9 -35 20 -67 29 -83 20 -90 -25 -20 -45 72 -44 70 -50 63
-3 -2 5 -31 16 -64 l22 -59 -32 -54 c-18 -29 -30 -56 -27 -59 3 -3 29 21 57
52 29 31 54 54 56 52 2 -2 -12 -36 -31 -75 -43 -84 -29 -96 26 -23 45 58 79
95 84 90 2 -2 -17 -42 -41 -88 -24 -47 -45 -88 -45 -92 -1 -23 26 1 91 78 39
47 73 83 76 80 3 -3 -20 -45 -51 -94 -31 -49 -56 -92 -56 -96 0 -24 47 8 131
91 55 53 99 93 99 90 0 -4 -27 -50 -60 -102 -33 -51 -61 -99 -62 -107 -7 -34
45 2 140 95 56 56 102 98 102 95 0 -4 -29 -53 -65 -110 -36 -56 -65 -105 -65
-110 0 -19 39 -6 66 23 16 17 69 68 118 112 l89 82 -81 -122 c-45 -67 -82
-127 -82 -133 0 -33 53 1 168 107 70 65 122 111 116 103 -6 -8 -50 -64 -97
-124 -48 -59 -87 -112 -87 -117 0 -13 37 -11 63 3 12 6 84 58 160 116 76 57
140 102 142 100 3 -3 -19 -31 -48 -64 -75 -84 -147 -174 -147 -185 0 -5 13 -9
29 -9 32 0 80 30 160 99 85 74 133 110 173 131 53 29 57 25 17 -17 -19 -21
-52 -60 -74 -88 -21 -27 -61 -74 -89 -102 -32 -34 -47 -56 -41 -62 21 -21 88
9 203 92 129 93 211 147 225 147 19 0 -33 -66 -125 -155 -54 -52 -98 -100 -98
-107 0 -17 83 -2 137 26 41 20 252 173 305 220 38 33 61 24 125 -49 259 -302
617 -521 963 -590 83 -17 349 -32 338 -20 -4 4 -56 14 -115 22 -386 50 -761
240 -1043 528 l-65 66 85 -40 c123 -59 206 -77 282 -63 33 6 63 13 65 16 11
11 -14 29 -125 95 -106 62 -192 131 -192 153 0 7 43 -7 249 -87 100 -39 213
-55 241 -35 13 9 8 17 -30 51 -25 22 -92 71 -150 110 -63 41 -97 69 -85 69 43
0 175 -43 274 -91 57 -27 113 -49 125 -49 29 0 64 26 51 38 -34 30 -148 115
-195 144 -59 38 -97 74 -87 84 3 4 64 -21 134 -54 252 -117 249 -116 283 -102
16 7 30 16 30 20 0 5 -59 55 -132 112 -150 117 -167 131 -153 125 6 -2 81 -45
167 -96 157 -91 180 -100 208 -81 12 8 7 17 -30 52 -111 103 -209 198 -204
198 2 0 70 -41 150 -91 138 -85 182 -102 191 -73 2 6 -48 61 -112 122 -63 62
-109 112 -102 112 7 0 73 -38 147 -84 127 -79 170 -95 170 -61 0 7 -45 56
-100 109 -141 134 -135 138 45 26 107 -67 133 -78 149 -63 4 4 -37 51 -91 105
-54 54 -91 98 -83 98 8 0 57 -34 109 -75 51 -41 97 -75 102 -75 24 0 11 25
-57 103 -40 47 -74 88 -74 91 0 16 25 0 97 -58 92 -76 118 -73 51 6 -79 94
-78 91 -78 212 0 68 -4 106 -9 101 -5 -6 -17 -57 -27 -115 -9 -58 -20 -112
-25 -120 -5 -9 -9 41 -9 118 0 191 -20 175 -56 -46 -9 -59 -21 -111 -25 -116
-12 -13 -11 20 2 166 6 65 8 122 5 126 -16 15 -37 -35 -76 -183 -43 -158 -68
-220 -57 -140 4 22 9 81 12 130 3 50 8 107 11 128 5 30 3 37 -10 37 -21 0 -28
-17 -76 -195 -50 -186 -51 -187 -56 -183 -2 2 3 78 11 169 8 90 15 165 15 167
0 1 -7 2 -15 2 -21 0 -28 -18 -84 -219 -50 -183 -69 -232 -57 -156 3 22 10 92
16 155 6 63 13 134 16 158 4 32 2 42 -9 42 -25 0 -42 -39 -97 -227 -30 -100
-56 -181 -57 -179 -2 2 10 86 27 186 17 100 29 184 27 187 -9 8 -36 -10 -52
-33 -13 -21 -107 -252 -159 -396 -10 -26 -21 -50 -25 -53 -8 -4 4 96 15 125
15 42 51 276 43 284 -12 13 -47 -20 -71 -68 -11 -21 -42 -104 -69 -183 -46
-133 -112 -283 -125 -283 -3 0 -3 7 0 16 4 9 20 91 36 183 16 91 36 188 44
216 21 67 7 79 -39 35 -21 -20 -47 -64 -66 -109 -92 -226 -152 -359 -170 -381
l-20 -25 7 60 c4 33 20 104 36 158 16 54 35 127 43 161 l15 63 -43 48 c-23 26
-82 79 -130 117 -48 39 -86 73 -83 75 13 14 171 -59 282 -128 62 -40 87 -46
114 -29 12 8 3 22 -50 76 -36 36 -84 79 -107 95 -41 29 -92 89 -76 89 5 0 36
-16 69 -36 233 -144 301 -173 320 -142 5 7 -38 56 -115 130 -67 65 -120 118
-118 118 2 0 68 -47 146 -104 117 -85 148 -103 165 -97 11 5 21 11 21 14 0 3
-44 56 -97 116 -54 61 -98 113 -98 116 0 4 56 -37 124 -89 114 -88 166 -114
166 -85 0 6 -39 58 -87 115 -131 156 -130 156 70 2 94 -72 95 -72 115 -59 10
6 -10 36 -78 115 -50 58 -85 106 -78 106 7 0 59 -36 116 -80 96 -75 125 -90
135 -72 3 4 -31 49 -74 101 -43 52 -77 97 -74 99 2 2 43 -31 90 -74 47 -44 90
-80 95 -82 21 -8 7 22 -46 99 -31 44 -53 83 -50 86 4 4 38 -24 76 -62 38 -38
73 -66 76 -62 4 4 -14 38 -41 77 -27 39 -46 72 -44 75 3 2 28 -16 57 -41 29
-25 57 -44 63 -42 5 2 -7 25 -27 51 -20 26 -35 50 -32 53 3 3 27 -13 53 -36
26 -23 50 -39 52 -36 3 2 -11 25 -30 50 -35 47 -38 67 -22 149 2 9 0 17 -5 17
-4 0 -16 -29 -26 -65 -19 -65 -37 -89 -29 -37 21 135 9 148 -26 26 -23 -79
-42 -99 -35 -36 14 103 15 152 6 152 -9 0 -13 -11 -45 -140 -21 -83 -39 -104
-31 -35 3 28 8 84 12 125 5 66 4 73 -9 60 -8 -8 -27 -65 -41 -125 -25 -102
-45 -159 -46 -128 0 7 9 69 21 139 31 192 8 183 -66 -26 -49 -139 -71 -183
-60 -120 58 334 44 354 -58 81 -33 -89 -56 -139 -53 -117 3 21 13 90 22 152
29 189 1 168 -81 -61 -32 -88 -61 -163 -65 -168 -3 -4 7 69 24 163 16 93 26
173 23 177 -17 16 -48 -41 -107 -195 -35 -89 -64 -161 -66 -159 -2 1 16 76 38
165 22 89 38 166 34 169 -18 18 -49 -28 -140 -210 -54 -109 -101 -196 -103
-193 -3 3 7 44 21 93 41 141 69 263 63 270 -18 17 -62 -36 -103 -123 -24 -52
-64 -137 -89 -190 -25 -53 -55 -108 -66 -122 l-22 -27 7 25 c4 14 23 86 42
160 19 74 41 154 50 176 9 23 14 50 12 60 -3 15 -8 13 -40 -15 -24 -21 -58
-74 -99 -154 -71 -140 -150 -277 -160 -277 -13 0 12 100 55 215 36 98 49 121
72 133 29 15 29 15 6 25 -12 6 -22 14 -22 19 0 5 -4 7 -9 4 -14 -9 -178 59
-212 88 l-31 26 29 0 c16 0 78 -11 138 -25 122 -28 161 -30 220 -14 l40 11
-30 24 c-17 13 -61 39 -100 57 -38 18 -86 41 -105 50 l-35 18 78 -5 c43 -2
120 -17 172 -31 90 -26 96 -26 120 -11 14 9 24 20 21 24 -3 5 -56 34 -120 66
-102 51 -155 86 -130 86 5 0 54 -13 109 -29 167 -48 212 -56 241 -43 14 7 23
16 19 21 -3 6 -59 40 -125 77 -116 64 -144 83 -97 65 249 -97 259 -101 278
-91 10 6 19 14 19 18 -1 4 -50 40 -110 81 -61 41 -109 76 -107 78 2 1 61 -22
131 -52 120 -51 156 -58 156 -31 0 6 -46 44 -102 84 -56 39 -95 72 -88 72 8 0
64 -21 126 -46 102 -42 145 -50 144 -27 0 4 -41 37 -90 72 -50 35 -90 68 -90
72 0 5 48 -12 106 -36 59 -25 113 -45 120 -45 35 0 17 25 -61 82 -48 34 -81
64 -75 66 5 2 45 -17 89 -42 122 -72 136 -61 35 28 -36 32 -63 61 -60 64 3 2
38 -14 77 -37 40 -23 75 -39 78 -35 3 3 -18 28 -47 56 -29 28 -51 52 -48 55 2
2 27 -7 55 -21 73 -37 82 -32 29 17 -44 40 -46 45 -53 112 -8 74 -22 69 -25
-10 -1 -22 -5 -51 -9 -65 -6 -20 -9 -13 -15 35 -4 33 -10 71 -13 85 -5 23 -6
24 -13 5 -5 -11 -9 -55 -9 -97 -1 -42 -5 -79 -10 -82 -5 -3 -12 25 -15 62 -17
168 -31 170 -41 7 -4 -63 -11 -115 -16 -115 -5 0 -9 54 -9 120 0 186 -22 157
-57 -75 -18 -120 -18 -120 -25 -65 -3 30 -6 92 -7 138 -2 146 -29 96 -57 -105
-10 -68 -21 -123 -26 -123 -4 0 -8 59 -8 130 0 128 -8 158 -30 108 -6 -13 -20
-93 -33 -178 l-23 -155 -8 155 c-4 85 -10 157 -12 160 -15 15 -33 -46 -58
-192 -15 -89 -29 -164 -32 -167 -3 -3 -3 28 0 69 19 265 19 272 -16 233 -15
-17 -74 -222 -99 -340 -11 -57 -34 -75 -24 -20 9 45 23 280 18 290 -20 35 -57
-50 -93 -213 -28 -128 -67 -257 -75 -248 -3 4 13 215 24 308 5 41 6 79 2 83
-20 21 -58 -55 -95 -189 -44 -161 -75 -255 -87 -268 -14 -15 -11 78 5 174 35
207 32 227 -23 142 -36 -57 -64 -133 -92 -252 -28 -117 -50 -192 -55 -187 -7
7 -34 377 -28 392 3 8 1 78 -5 156 -7 78 -10 143 -8 145 2 2 43 -12 92 -30
129 -49 201 -61 264 -46 87 21 83 33 -24 75 -53 20 -108 48 -123 61 -34 29
-24 30 92 4 95 -21 201 -26 226 -10 20 12 0 27 -95 73 -38 18 -81 39 -95 45
-41 20 102 6 189 -18 76 -22 121 -20 121 3 0 8 -47 37 -105 66 -58 28 -105 56
-105 62 0 6 8 8 18 5 86 -26 239 -66 252 -66 9 0 24 6 35 13 16 13 8 19 -88
73 -58 32 -105 59 -104 61 2 1 56 -18 121 -43 101 -39 121 -43 133 -32 11 12
0 24 -77 77 -49 34 -90 64 -90 66 0 2 48 -16 107 -41 99 -41 133 -48 133 -26
0 4 -38 35 -85 67 -46 33 -84 63 -85 67 0 4 48 -13 107 -37 100 -41 123 -46
123 -25 0 5 -33 32 -72 61 -88 63 -82 58 -77 63 2 3 46 -13 98 -35 85 -35 117
-41 109 -19 -2 5 -34 31 -73 59 -84 61 -70 67 27 10 38 -22 73 -38 76 -34 4 4
-20 31 -52 61 -66 60 -59 70 16 23 70 -42 78 -32 20 23 -49 46 -50 48 -57 123
-4 41 -11 73 -16 69 -5 -3 -9 -41 -9 -84 0 -43 -4 -81 -9 -84 -5 -3 -12 32
-16 79 -4 47 -10 85 -14 85 -8 0 -20 -91 -22 -164 -2 -73 -17 0 -18 89 -1 69
-4 78 -15 63 -7 -10 -19 -58 -25 -108 -21 -148 -29 -158 -30 -33 -1 167 -28
156 -52 -21 -19 -146 -27 -152 -28 -23 -1 72 -5 117 -11 117 -16 0 -26 -36
-45 -165 -9 -66 -19 -122 -21 -124 -2 -2 -4 55 -4 127 0 196 -25 185 -61 -28
-11 -69 -23 -127 -25 -129 -2 -2 -1 56 2 130 l6 134 -20 -20 c-13 -13 -32 -69
-56 -165 -42 -165 -59 -212 -51 -136 15 143 18 246 6 246 -19 0 -49 -79 -71
-186 -22 -105 -47 -191 -59 -198 -4 -3 -4 30 0 72 17 189 20 252 11 252 -17 0
-40 -45 -62 -121 -64 -220 -84 -279 -93 -270 -9 9 -5 53 29 269 3 22 13 37 30
44 13 6 24 14 24 18 0 3 -37 18 -82 33 -80 26 -127 51 -117 62 3 2 48 -2 100
-11 93 -15 173 -12 185 7 5 9 -132 79 -155 79 -5 0 -13 5 -17 12 -8 13 101 4
173 -14 43 -10 93 -5 93 11 0 8 -129 71 -147 71 -6 0 -17 7 -24 17 -13 14 -11
16 11 11 191 -40 240 -45 240 -20 0 4 -36 25 -80 47 -44 21 -78 40 -77 41 1 2
43 -10 92 -25 85 -26 115 -29 115 -11 0 4 -32 27 -70 50 -39 23 -72 46 -75 50
-3 4 35 -7 84 -25 56 -20 95 -29 103 -24 9 6 10 11 2 17 -6 4 -39 25 -72 47
-34 22 -62 43 -62 46 0 3 36 -7 81 -22 130 -47 146 -35 44 31 -36 24 -64 44
-62 46 2 2 37 -7 77 -21 120 -41 133 -31 40 29 -34 21 -59 41 -56 43 2 2 31
-9 65 -26 33 -17 63 -31 66 -31 16 0 0 20 -40 50 -60 45 -57 56 6 24 28 -14
53 -23 56 -21 2 3 -14 20 -36 38 -23 18 -39 34 -38 36 2 2 20 -4 40 -12 52
-22 56 -19 19 14 -21 20 -32 39 -32 58 0 15 -5 35 -10 43 -7 11 -10 0 -10 -38
0 -33 -4 -51 -10 -47 -5 3 -10 23 -10 43 0 20 -5 44 -10 52 -7 10 -10 -8 -10
-60 -1 -85 -14 -78 -25 14 -10 82 -24 53 -26 -49 -1 -95 -5 -89 -14 19 -4 43
-11 74 -15 70 -5 -5 -14 -54 -20 -109 -7 -55 -14 -102 -16 -104 -2 -2 -4 18
-5 45 0 27 -4 72 -8 99 -7 46 -8 48 -18 25 -6 -14 -14 -65 -18 -115 -9 -102
-22 -87 -24 28 -1 37 -5 67 -11 67 -12 0 -17 -21 -33 -150 l-13 -105 -8 113
c-7 95 -11 112 -22 100 -7 -7 -19 -62 -26 -123 l-13 -110 -5 109 c-4 89 -7
106 -17 94 -13 -15 -63 -220 -63 -257 0 -11 -4 -22 -9 -25 -5 -4 -7 44 -3 116
5 112 4 122 -11 110 -21 -18 -33 -56 -52 -168 -8 -50 -22 -109 -30 -130 -13
-36 -14 -29 -9 106 5 145 5 145 -15 122 -11 -13 -31 -70 -46 -135 -41 -173
-47 -193 -56 -169 -4 11 -3 50 1 88 5 38 9 89 9 114 l1 45 -20 -25 c-24 -30
-52 -116 -75 -230 -9 -47 -20 -89 -24 -93 -4 -4 -13 12 -20 35 -10 34 -71 196
-108 286 -4 9 12 12 60 12 92 0 162 17 199 48 l32 27 -88 6 c-91 6 -131 23
-79 32 15 3 53 9 83 12 30 4 75 16 100 27 40 17 43 20 26 30 -10 6 -47 13 -82
16 -35 2 -64 8 -64 13 0 11 93 29 149 29 45 0 84 21 68 36 -3 3 -39 11 -80 17
-42 7 -78 15 -82 18 -3 4 41 10 99 14 71 5 109 12 117 21 7 8 10 16 8 19 -3 2
-38 10 -79 18 l-75 15 93 1 c115 1 124 18 25 49 l-68 21 84 -2 c52 -1 86 2 88
8 2 6 -28 21 -67 34 -38 12 -70 25 -70 27 0 3 37 4 81 2 103 -4 114 12 27 38
l-63 19 78 3 c42 2 77 7 77 12 0 5 -25 16 -56 25 -71 21 -64 31 11 15 31 -6
59 -10 61 -7 3 3 -19 18 -48 34 -47 25 -55 34 -72 83 -11 30 -21 57 -23 59
-10 13 -10 -12 1 -76 15 -87 4 -89 -14 -3 -21 100 -34 86 -27 -28 4 -56 5
-102 3 -102 -2 0 -12 34 -21 75 -27 112 -39 107 -32 -13 4 -56 5 -102 3 -102
-2 0 -12 32 -21 70 -27 111 -39 100 -32 -31 l6 -114 -24 88 c-35 133 -38 130
-37 -28 l1 -90 -15 80 c-8 43 -17 81 -19 84 -14 13 -21 -25 -25 -147 -5 -142
-8 -141 -31 7 -10 67 -13 73 -25 56 -10 -14 -14 -55 -14 -154 0 -74 -4 -131
-8 -125 -11 12 -32 130 -32 178 0 20 -5 36 -10 36 -18 0 -30 -48 -30 -118 0
-37 -3 -98 -7 -136 -8 -89 -22 -66 -30 51 -8 116 -17 132 -37 63 -10 -35 -16
-92 -16 -161 0 -59 -4 -110 -8 -113 -5 -3 -23 25 -41 62 -18 37 -49 93 -68
124 -35 58 -36 78 -5 78 48 0 198 97 180 116 -3 3 -33 -2 -66 -10 -69 -18 -82
-19 -82 -8 0 5 29 21 63 36 35 15 79 40 98 56 l34 29 -35 0 c-19 0 -53 -4 -75
-9 -22 -5 -41 -7 -44 -5 -5 5 139 75 155 75 12 0 28 29 21 36 -2 2 -28 0 -57
-6 -107 -20 -105 -11 7 34 103 42 109 61 17 53 -76 -6 -74 -4 17 21 86 23 89
42 7 43 -68 1 -69 0 45 30 56 15 44 29 -25 29 -70 1 -64 10 20 30 74 17 74 30
1 30 -74 0 -68 12 14 29 31 7 57 17 57 22 0 5 -24 9 -52 10 -39 0 -48 3 -33 9
11 5 35 9 53 9 43 1 41 21 -2 21 -19 0 -38 5 -41 10 -4 6 10 10 34 10 23 0 41
5 41 10 0 6 -14 10 -32 10 -36 0 -28 16 12 23 24 4 24 4 -3 6 -19 1 -34 11
-48 34 -12 17 -18 24 -15 14 3 -11 9 -31 12 -45 5 -23 2 -20 -20 13 -26 42
-36 29 -11 -15 26 -45 15 -56 -12 -12 -33 56 -42 46 -14 -17 29 -68 26 -77 -6
-16 -33 62 -40 41 -14 -43 22 -73 15 -74 -19 -3 -13 28 -27 51 -32 51 -11 0
-11 -4 13 -82 11 -39 19 -72 16 -74 -2 -2 -14 19 -27 46 -13 28 -27 50 -32 50
-11 0 -10 -7 12 -80 28 -91 24 -95 -15 -20 -30 58 -34 62 -34 35 -1 -16 6 -52
14 -79 23 -75 17 -78 -12 -8 -14 35 -29 60 -34 55 -8 -8 8 -121 26 -195 13
-53 -2 -28 -30 47 -46 128 -60 87 -25 -74 12 -52 19 -96 16 -98 -5 -5 -26 40
-53 119 -34 95 -43 42 -18 -102 19 -108 19 -136 0 -95 -8 17 -21 56 -30 88
-31 114 -48 20 -21 -118 15 -75 14 -89 -3 -56 -6 11 -44 62 -85 114 l-73 94
54 17 c48 15 141 82 130 93 -2 2 -32 -3 -66 -11 -33 -8 -63 -11 -66 -6 -3 4
20 18 50 30 60 24 105 55 105 72 0 10 -22 8 -100 -9 -24 -5 -24 -4 5 16 17 12
51 28 77 36 25 9 49 23 52 32 5 13 -1 14 -41 9 -27 -4 -57 -10 -68 -13 -42
-12 -1 13 63 38 80 32 94 56 30 52 -41 -3 -42 -2 -13 8 17 6 41 16 55 22 23
11 20 12 -35 17 l-60 5 59 15 c79 20 85 40 14 41 l-53 1 50 12 c81 20 88 30
25 36 l-55 5 58 14 c68 17 74 31 12 31 -44 0 -45 1 -71 51 -14 28 -28 49 -31
46 -2 -3 2 -30 11 -60 22 -75 19 -80 -10 -24 -14 27 -28 47 -30 44 -3 -3 3
-35 14 -71 22 -72 16 -80 -13 -17 -27 60 -36 40 -14 -31 10 -34 17 -63 15 -65
-1 -2 -13 20 -26 47 -13 28 -27 50 -32 50 -11 0 -10 -3 8 -67 20 -68 13 -79
-11 -17 -10 27 -20 41 -25 35 -6 -11 11 -123 26 -176 14 -45 -14 3 -31 52 -9
29 -21 55 -26 58 -13 9 -10 -51 6 -120 8 -33 15 -69 14 -80 0 -21 -40 69 -53
120 -7 27 -9 28 -16 10 -4 -12 -2 -61 6 -110 19 -119 13 -137 -16 -43 -12 43
-27 75 -31 72 -12 -7 -11 -78 1 -134 6 -25 13 -56 16 -70 4 -20 -10 -9 -70 50
-42 41 -76 77 -76 80 0 4 17 14 38 23 39 17 90 63 80 72 -3 3 -22 -2 -42 -10
-50 -21 -71 -13 -26 10 46 23 100 64 100 75 0 5 -20 3 -45 -4 -56 -17 -49 -3
15 29 63 32 75 50 29 42 -19 -3 -43 -8 -54 -12 -11 -4 8 10 43 30 66 38 80 59
35 50 -26 -5 -26 -4 5 10 43 20 41 35 -5 29 l-38 -4 40 15 c61 24 69 39 16 32
-49 -6 -44 5 12 23 20 6 37 15 37 19 0 4 -17 6 -37 4 l-38 -3 43 17 c48 20 56
38 12 28 -40 -9 -38 2 3 14 25 7 27 9 9 10 -29 1 -19 21 11 22 20 1 20 2 -3 8
-22 6 -23 8 -7 14 10 4 15 11 12 17 -3 5 -3 10 2 10 4 0 9 14 9 32 l1 32 -19
-27 c-11 -15 -23 -25 -28 -22 -4 3 -6 -5 -3 -17 4 -19 3 -20 -7 -8 -9 12 -10
9 -6 -15 l7 -30 -21 25 -20 25 10 -28 c14 -40 12 -46 -6 -17 -14 24 -15 24
-10 -20 5 -41 4 -43 -6 -17 -12 27 -35 40 -25 13 3 -8 8 -32 11 -53 l6 -38
-15 33 c-8 17 -18 32 -21 32 -3 0 -3 -15 1 -32 16 -76 15 -81 -5 -38 l-21 45
5 -55 c4 -37 2 -50 -4 -40 -5 8 -10 24 -10 35 0 12 -3 15 -9 10 -6 -6 -6 -37
-1 -80 5 -38 7 -71 5 -73 -1 -2 -8 20 -15 47 -7 28 -16 51 -21 51 -12 0 -11
-20 1 -99 6 -35 9 -66 6 -68 -3 -3 -14 24 -25 58 l-21 64 4 -98 c5 -100 -6
-123 -19 -41 -11 75 -13 77 -50 54 -52 -32 -53 -23 -2 23 55 51 63 76 16 52
-47 -25 -44 -13 6 25 61 46 63 65 4 34 -43 -22 -47 -11 -6 15 33 20 76 61 64
61 -3 0 -17 -4 -31 -10 -35 -13 -33 -4 4 15 39 20 39 36 0 25 -38 -11 -31 3
10 20 38 16 39 32 3 25 -25 -5 -26 -4 -10 7 53 37 54 39 17 33 l-35 -6 38 21
c44 24 48 35 10 26 l-28 -6 25 15 25 14 -25 1 -25 1 25 10 c20 8 22 12 10 19
-13 9 -13 10 0 10 13 0 13 1 0 10 -8 5 -10 10 -4 10 7 0 9 11 6 28 l-5 27 -12
-28 c-6 -15 -15 -24 -19 -20 -5 5 -3 -3 4 -17 12 -23 12 -24 -3 -11 -12 9 -17
10 -17 2 0 -7 -4 -9 -10 -6 -7 4 -7 -3 0 -22 10 -27 9 -27 -6 -8 -16 19 -16
19 -10 -7 3 -14 8 -34 12 -45 3 -10 -2 -5 -11 10 -21 37 -31 28 -16 -14 6 -18
9 -34 7 -36 -2 -3 -7 5 -11 16 -3 12 -10 21 -15 21 -5 0 -3 -19 5 -41 20 -56
19 -60 -6 -21 -28 42 -33 36 -15 -16 17 -48 14 -54 -9 -14 l-16 27 5 -35 c3
-19 7 -51 10 -70 6 -32 5 -31 -11 10 -15 38 -18 41 -21 21 -2 -13 2 -44 8 -68
17 -58 7 -65 -15 -11 -24 56 -29 30 -12 -55 17 -77 6 -91 -14 -19 l-13 47 -4
-37 c-2 -21 1 -54 7 -75 6 -20 9 -39 6 -41 -2 -2 -24 10 -50 28 l-46 32 36 39
c34 38 44 59 27 59 -5 0 -17 -9 -27 -20 -10 -11 -22 -20 -27 -20 -6 0 9 21 31
46 55 62 54 83 -1 36 -33 -28 -18 2 19 40 40 41 41 60 0 28 -44 -35 -43 -22 3
25 45 46 46 54 7 34 -17 -8 -16 -5 6 13 31 27 36 43 8 28 -32 -17 -35 -11 -7
11 31 25 28 36 -6 19 -21 -10 -20 -9 5 14 32 29 35 41 7 26 -28 -15 -25 -2 5
22 19 15 23 23 15 37 -5 10 -6 21 -2 25 3 4 -1 4 -9 1 -10 -4 -16 0 -16 9 0 8
4 13 9 10 10 -6 10 17 0 33 -5 8 -13 2 -24 -18 -10 -17 -14 -28 -10 -25 4 2 8
-4 8 -14 0 -10 -5 -16 -10 -13 -5 4 -6 -1 -2 -12 6 -18 6 -18 -15 1 l-22 19
18 -35 18 -35 -23 20 -23 20 17 -33 c10 -19 15 -36 12 -39 -3 -3 -8 2 -12 11
-3 9 -10 16 -15 16 -5 0 -3 -13 6 -30 21 -41 18 -50 -6 -20 -13 16 -19 19 -15
8 19 -55 19 -54 2 -34 -20 25 -20 11 -1 -44 19 -54 18 -63 -2 -25 -23 42 -29
14 -9 -37 21 -50 14 -62 -10 -16 -25 48 -28 21 -4 -47 24 -70 18 -85 -10 -24
l-20 44 4 -40 c3 -22 8 -50 12 -63 l7 -23 -46 22 -46 22 24 31 c25 32 49 86
39 86 -4 0 -15 -11 -26 -26 -31 -38 -33 -21 -4 23 35 51 35 74 -1 42 -27 -24
-24 -15 9 33 27 39 22 55 -9 27 l-26 -24 26 40 c33 49 35 64 5 39 -21 -17 -21
-16 1 9 27 29 22 48 -6 26 -10 -7 -8 -2 5 12 30 34 28 43 -5 22 l-28 -17 28
30 c31 35 37 56 7 29 -11 -10 -20 -13 -20 -8 0 6 7 16 15 23 15 13 15 47 -1
58 -5 4 -10 15 -11 25 -2 48 -4 53 -12 32 -5 -11 -7 -28 -5 -38 2 -14 -1 -17
-14 -12 -9 3 -13 3 -10 -1 4 -4 3 -15 -3 -26 -8 -15 -7 -24 7 -39 19 -21 6
-26 -16 -6 -8 7 -7 2 3 -15 21 -34 22 -44 2 -28 -8 7 -15 8 -15 2 0 -5 7 -15
15 -22 8 -7 15 -17 15 -23 0 -5 -9 -2 -20 8 -25 22 -26 13 -3 -23 l17 -27 -22
19 c-29 25 -28 13 4 -43 l25 -46 -25 30 c-33 39 -33 15 0 -44 l25 -46 -30 33
c-38 39 -39 28 -5 -39 28 -56 27 -78 -2 -30 -10 17 -22 31 -26 31 -8 0 10 -59
25 -78 17 -21 1 -24 -42 -6 -46 18 -46 18 -26 67 8 20 15 47 15 59 -1 20 -3
18 -20 -12 -18 -34 -29 -26 -11 8 4 9 11 31 15 47 l6 30 -20 -24 c-24 -28 -25
-22 -5 26 21 49 18 53 -11 18 l-25 -30 21 46 c16 39 18 52 9 78 -9 25 -14 29
-25 20 -19 -16 -18 -4 3 29 l17 27 -23 -20 -24 -20 16 31 c18 34 14 46 -11 36
-14 -5 -15 -3 -5 9 9 11 8 19 -6 38 l-18 24 -5 -31z m248 -64 c-10 -6 -22 -6
-26 -2 -5 5 3 10 18 11 22 1 24 0 8 -9z m-496 -93 c0 -5 -5 -3 -10 5 -5 8 -10
20 -10 25 0 6 5 3 10 -5 5 -8 10 -19 10 -25z m312 3 c-7 -7 -12 -8 -12 -2 0
14 12 26 19 19 2 -3 -1 -11 -7 -17z m388 2 c-8 -5 -19 -10 -25 -10 -5 0 -3 5
5 10 8 5 20 10 25 10 6 0 3 -5 -5 -10z m-377 -25 c-3 -9 -8 -14 -10 -11 -3 3
-2 9 2 15 9 16 15 13 8 -4z m-557 -203 c-22 -3 -26 -6 -15 -13 11 -6 8 -9 -10
-9 -23 0 -23 1 -7 19 12 13 24 17 39 12 20 -5 19 -6 -7 -9z m222 -11 c10 -6 8
-10 -10 -16 l-23 -7 23 -6 c23 -7 23 -7 -7 -19 -28 -10 -31 -9 -31 7 0 44 19
60 48 41z m513 -192 c23 -11 39 -22 37 -23 -1 -1 -22 -12 -45 -24 l-43 -22 0
45 c0 25 2 45 5 45 3 0 24 -9 46 -21z m344 -158 c-5 -4 -95 71 -95 79 0 3 14
14 30 24 17 10 36 26 43 37 10 17 13 8 19 -58 3 -43 5 -80 3 -82z m-210 77
c42 -28 43 -34 8 -41 -16 -3 -36 -9 -45 -12 -15 -6 -18 -1 -18 27 0 31 6 48
17 48 2 0 19 -10 38 -22z m-105 7 c0 -5 -24 -16 -69 -30 -17 -5 -22 -4 -19 6
5 16 88 38 88 24z m43 -107 c5 6 23 12 40 11 l32 0 -40 -19 c-54 -25 -66 -25
-61 3 3 12 6 38 7 57 2 30 3 28 8 -15 4 -31 9 -45 14 -37z m222 -21 l30 -25
-40 -11 c-22 -6 -51 -18 -64 -28 -23 -16 -24 -16 -18 1 4 10 7 42 7 72 l0 55
28 -20 c15 -11 40 -31 57 -44z m-271 -29 c-3 -5 14 -8 38 -8 l43 -1 -34 -14
c-56 -25 -61 -21 -60 43 1 52 2 54 9 22 5 -19 6 -38 4 -42z m7 -65 c51 7 44
-1 -22 -23 -54 -19 -66 -13 -56 27 4 14 5 13 6 -4 2 -49 21 -20 23 35 l2 57 3
-49 4 -48 40 5z m205 3 c30 3 54 4 54 1 0 -3 -21 -12 -47 -21 -25 -9 -55 -23
-65 -33 -17 -15 -18 -13 -18 54 0 80 13 108 18 38 l3 -46 55 7z m988 -1146
c50 -12 101 -19 118 -16 l29 6 -19 -28 c-11 -15 -27 -45 -36 -67 -14 -33 -73
-243 -93 -332 -7 -32 -23 -28 -23 5 0 38 -34 223 -65 350 -29 121 -29 115 -12
109 6 -2 52 -14 101 -27z m171 -1325 c59 -20 131 -39 161 -42 l54 -6 -21 -31
c-11 -17 -50 -92 -86 -166 -36 -74 -77 -155 -91 -179 l-26 -44 -13 39 c-24 67
-72 265 -92 372 -15 83 -16 102 -5 98 7 -3 61 -21 119 -41z m605 -661 l59 -7
-38 -43 c-51 -58 -89 -133 -151 -299 -51 -136 -86 -215 -95 -215 -10 0 -158
234 -209 330 -53 100 -150 320 -141 320 2 0 48 -30 102 -67 121 -81 191 -114
265 -120 57 -6 108 1 108 15 0 4 -45 40 -100 80 -96 72 -170 142 -170 162 0 6
70 -25 155 -69 123 -63 168 -82 215 -87z"/>
<path d="M2122 5403 c-12 -15 -22 -32 -22 -38 0 -5 -8 -1 -17 10 l-16 20 8
-20 c4 -11 10 -28 12 -37 3 -11 15 -18 29 -18 34 0 41 20 7 21 l-28 1 30 8
c20 5 24 8 10 9 -16 1 -17 3 -5 11 8 5 11 12 8 16 -4 4 -3 15 3 25 14 27 6 23
-19 -8z"/>
<path d="M2050 5365 c0 -3 7 -21 14 -40 13 -31 19 -35 50 -35 20 0 36 5 36 10
0 6 -13 10 -30 10 -23 0 -33 7 -45 30 -14 27 -25 38 -25 25z"/>
<path d="M2023 5350 c3 -8 13 -34 22 -57 14 -36 22 -43 44 -42 14 0 35 4 46 8
16 7 14 9 -17 15 -34 6 -48 18 -86 72 -8 12 -11 13 -9 4z"/>
<path d="M2395 5240 c-4 -11 -11 -18 -16 -15 -5 4 -9 1 -9 -5 0 -6 -5 -8 -11
-4 -8 4 -9 -1 -4 -17 10 -33 16 -37 45 -28 23 6 23 7 3 8 -12 1 -24 5 -27 10
-4 5 2 7 12 4 15 -3 18 2 19 31 1 41 -3 45 -12 16z"/>
<path d="M2834 4925 c-4 -8 -12 -15 -20 -15 -8 0 -14 -8 -15 -17 0 -16 -2 -15
-9 2 -8 16 -9 13 -7 -15 2 -32 5 -35 37 -37 l35 -3 -30 15 c-18 9 -21 13 -8 9
16 -4 21 -1 19 13 -2 10 4 28 12 41 9 15 11 22 3 22 -6 0 -14 -7 -17 -15z"/>
<path d="M2714 4884 c3 -16 8 -46 12 -66 5 -33 11 -39 43 -48 66 -18 80 -11
31 16 l-45 25 43 -5 c50 -5 54 3 10 24 -21 10 -37 28 -45 50 l-13 35 6 -49 c6
-56 -11 -57 -22 -1 -3 20 -11 38 -16 41 -6 4 -8 -4 -4 -22z"/>
<path d="M1132 4504 c4 -3 2 -19 -3 -36 l-8 -31 24 23 c31 29 32 50 3 50 -12
0 -19 -3 -16 -6z"/>
<path d="M3150 4378 c0 -43 3 -49 31 -63 39 -20 50 -12 15 10 -17 11 -26 26
-26 44 0 14 -5 33 -10 41 -7 11 -10 2 -10 -32z"/>
<path d="M3218 4402 c-41 -18 -53 -54 -22 -66 21 -8 21 -8 21 8 0 8 -6 12 -15
8 -9 -3 2 11 24 31 44 41 44 43 -8 19z"/>
<path d="M1270 4350 c13 -9 13 -10 0 -10 -9 0 -15 -9 -15 -24 0 -22 1 -22 23
-8 12 8 22 23 22 33 0 13 -7 19 -22 19 -19 0 -20 -2 -8 -10z"/>
<path d="M1365 4155 l30 -14 -30 -1 c-26 -1 -27 -3 -10 -10 19 -8 19 -9 -2 -9
-15 -1 -21 -6 -17 -15 3 -8 0 -24 -6 -36 l-12 -22 26 18 c14 11 26 26 26 34 0
13 1 13 10 0 8 -12 10 -10 11 10 0 23 1 23 9 5 8 -16 9 -13 7 15 -2 32 -5 35
-37 37 l-35 2 30 -14z"/>
<path d="M3448 3970 c-3 -8 -9 -40 -12 -71 l-6 -55 45 -22 c65 -32 75 -27 27
13 -38 33 -41 40 -44 93 -2 31 -6 50 -10 42z"/>
<path d="M3480 3943 c0 -23 -2 -48 -5 -55 -4 -9 10 -22 40 -36 52 -25 57 -21
15 15 -22 18 -30 34 -30 56 0 18 -5 39 -10 47 -7 11 -10 4 -10 -27z"/>
<path d="M3558 3952 c-16 -9 -28 -21 -29 -27 -1 -5 -5 1 -9 15 -7 22 -8 21 -9
-12 -1 -27 4 -40 18 -48 29 -15 38 -12 15 6 -18 14 -18 15 6 8 24 -6 24 -5 6
9 -19 14 -19 15 2 21 12 4 27 16 32 27 13 23 4 24 -32 1z"/>
<path d="M1443 3843 c3 -5 0 -21 -8 -36 -15 -29 -5 -36 15 -12 11 13 15 13 22
3 6 -9 8 -3 6 17 -2 20 -9 31 -22 33 -10 2 -16 0 -13 -5z"/>
<path d="M1486 3515 c19 -15 19 -15 -1 -8 -11 3 -17 2 -12 -2 4 -5 -3 -19 -15
-32 -26 -28 -16 -30 22 -3 21 15 30 17 33 8 3 -7 6 -1 6 13 1 16 -6 29 -15 33
-28 11 -38 6 -18 -9z"/>
<path d="M3690 3334 c0 -12 -3 -42 -6 -67 l-6 -45 51 -26 c59 -30 67 -21 16
18 -30 23 -35 33 -35 69 0 23 -5 49 -10 57 -8 12 -10 11 -10 -6z"/>
<path d="M3805 3330 c-12 -4 -27 -16 -35 -25 -14 -17 -15 -16 -21 6 -7 22 -7
22 -9 -6 l-2 -30 -8 30 c-7 27 -8 26 -9 -15 -1 -41 2 -48 29 -63 35 -21 40
-13 8 14 -13 10 -18 18 -11 19 6 0 15 -4 18 -10 3 -5 11 -10 17 -10 7 0 6 5
-1 14 -10 12 -5 21 26 50 38 35 37 42 -2 26z"/>
<path d="M1510 3066 c0 -3 14 -12 30 -21 25 -13 30 -22 31 -53 0 -30 2 -33 9
-17 11 25 12 72 3 78 -14 8 -73 19 -73 13z"/>
<path d="M1504 3028 c1 -7 5 -19 9 -25 6 -9 3 -11 -8 -7 -9 4 -15 3 -13 -2 1
-5 -4 -20 -11 -34 l-14 -24 27 17 c14 10 26 14 27 10 0 -5 4 1 9 12 8 18 9 18
9 2 1 -30 21 -8 21 24 0 18 -5 29 -14 29 -8 0 -21 3 -29 6 -10 3 -15 0 -13 -8z
m31 -18 c3 -6 -1 -7 -9 -4 -18 7 -21 14 -7 14 6 0 13 -4 16 -10z"/>
<path d="M1450 2619 c17 -15 19 -19 7 -15 -12 4 -16 2 -11 -6 5 -8 2 -9 -11
-4 -15 5 -16 4 -5 -9 10 -12 10 -15 -2 -15 -8 0 -23 -9 -33 -20 -18 -20 -18
-21 1 -14 10 4 24 11 31 16 7 6 17 7 23 3 5 -3 14 4 19 17 9 21 10 20 10 -11
1 -42 6 -38 15 11 6 34 4 38 -23 53 -42 21 -51 18 -21 -6z"/>
<path d="M4154 2400 c-10 -42 -9 -47 14 -72 14 -15 28 -26 30 -23 3 3 -2 13
-11 23 -27 30 -19 38 10 11 l27 -24 -17 28 c-17 26 -17 27 2 27 11 0 37 11 58
25 l37 26 -44 -7 c-25 -4 -51 -11 -57 -17 -10 -7 -13 -3 -14 14 l-1 24 -8 -25
c-7 -25 -7 -25 -11 5 -5 28 -5 28 -15 -15z"/>
<path d="M4557 1940 c-4 -8 -15 -52 -25 -97 l-19 -82 68 -47 c38 -26 72 -44
76 -40 4 3 -15 29 -42 56 -27 27 -46 52 -42 56 3 4 29 -10 57 -30 69 -50 79
-45 30 14 -41 49 -42 51 -38 115 1 36 0 65 -3 65 -4 0 -15 -34 -24 -75 -19
-85 -32 -98 -27 -27 5 62 -2 113 -11 92z"/>
<path d="M4647 1913 c-3 -5 -7 -28 -11 -53 -6 -43 -5 -46 29 -73 19 -15 35
-23 35 -18 0 5 -4 13 -10 16 -5 3 -15 16 -21 27 -11 20 -10 20 21 -2 l33 -23
-18 26 c-16 26 -16 26 9 33 15 3 30 12 34 18 4 7 18 20 32 30 l25 18 -25 -6
c-14 -3 -33 -6 -42 -6 -10 0 -27 -9 -38 -20 l-20 -20 -1 33 -1 32 -14 -40 -14
-40 5 38 c4 36 1 45 -8 30z"/>
<path d="M1349 1695 c19 -34 20 -38 6 -72 -21 -50 -13 -51 19 -3 l27 41 -28
34 c-37 44 -50 44 -24 0z"/>
<path d="M1317 1694 c-4 -4 -7 -12 -7 -18 0 -6 4 -5 9 2 7 11 9 11 14 0 3 -10
-4 -15 -24 -16 -15 -1 -38 -6 -51 -11 l-23 -10 25 -2 c14 -1 32 0 39 1 8 1 20
-5 26 -14 10 -14 14 -12 24 11 10 22 9 29 -7 45 -10 10 -21 15 -25 12z"/>
<path d="M1365 1224 c22 -52 18 -66 -6 -21 -11 22 -23 37 -26 34 -2 -3 0 -14
6 -25 6 -12 11 -27 11 -34 -1 -7 -8 -1 -16 15 -18 32 -28 36 -19 5 6 -17 4
-20 -10 -14 -10 3 -33 3 -53 0 l-35 -7 33 -14 c18 -7 41 -11 52 -8 20 7 25 -9
7 -21 -8 -4 -6 -10 6 -17 14 -7 22 -3 41 19 29 36 31 23 3 -23 -31 -49 -19
-49 30 1 l42 43 -32 51 c-37 60 -56 69 -34 16z m-25 -85 c-7 -11 -14 -18 -17
-15 -3 3 0 12 7 21 18 21 23 19 10 -6z"/>
</g>
</svg>
