<?xml version="1.0" encoding="UTF-8" standalone="no"?>
<!-- Created with Inkscape (http://www.inkscape.org/) -->

<svg
   xmlns:dc="http://purl.org/dc/elements/1.1/"
   xmlns:cc="http://creativecommons.org/ns#"
   xmlns:rdf="http://www.w3.org/1999/02/22-rdf-syntax-ns#"
   xmlns:svg="http://www.w3.org/2000/svg"
   xmlns="http://www.w3.org/2000/svg"
   xmlns:sodipodi="http://sodipodi.sourceforge.net/DTD/sodipodi-0.dtd"
   xmlns:inkscape="http://www.inkscape.org/namespaces/inkscape"
   width="744.09448819"
   height="1052.3622047"
   id="svg2"
   version="1.1"
   inkscape:version="0.48.4 r9939"
   sodipodi:docname="ring_starfish.png"
   inkscape:export-filename="C:\dev\potrace-1.11.win64\ring_starfish.png"
   inkscape:export-xdpi="300"
   inkscape:export-ydpi="300">
  <defs
     id="defs4" />
  <sodipodi:namedview
     id="base"
     pagecolor="#ffffff"
     bordercolor="#666666"
     borderopacity="1.0"
     inkscape:pageopacity="0.0"
     inkscape:pageshadow="2"
     inkscape:zoom="1.4"
     inkscape:cx="475.93631"
     inkscape:cy="467.11455"
     inkscape:document-units="px"
     inkscape:current-layer="layer1"
     showgrid="false" />
  <metadata
     id="metadata7">
    <rdf:RDF>
      <cc:Work
         rdf:about="">
        <dc:format>image/svg+xml</dc:format>
        <dc:type
           rdf:resource="http://purl.org/dc/dcmitype/StillImage" />
        <dc:title></dc:title>
      </cc:Work>
    </rdf:RDF>
  </metadata>
  <g
     inkscape:label="Layer 1"
     inkscape:groupmode="layer"
     id="layer1">
    <path
       inkscape:connector-curvature="0"
       id="path132"
       style="fill:#000000;fill-opacity:1;fill-rule:nonzero;stroke:#ff0000;stroke-width:4"
       d="m 505.3471,190.49003 c -38.87265,-29.31887 -71.73503,-54.11017 -140.9547,25.25906 l -0.69723,0.80313 -0.69723,-0.80313 c -68.40777,-79.55016 -100.74501,-55.20455 -139.46763,-26.06661 -9.55378,7.19292 -19.48707,14.66826 -30.44414,20.99626 -10.97472,6.33683 -22.4878,11.21301 -33.57284,15.92151 -44.82556,18.99725 -82.718568,35.06879 -48.59412,134.69734 l 0.33996,1.00171 -1.04143,0.19875 C 7.1251178,381.97189 12.036602,422.15074 17.914497,470.24622 c 1.447409,11.87493 2.956598,24.22204 2.956598,36.87364 0,12.66924 -1.52684,25.07813 -3.000727,37.02367 -5.957325,48.32494 -10.9879562,89.17896 92.351782,109.43828 l 1.04585,0.20299 -0.35303,1.00613 c -34.680462,99.01957 2.56827,114.85723 47.15995,133.81036 10.99679,4.6776 22.43044,9.54054 33.40957,15.87737 l 0.004,0 c 10.98796,6.35007 20.96096,13.86954 30.5677,21.111 38.86824,29.31798 71.73061,54.10575 140.95034,-25.25906 l 0.69723,-0.80314 0.69723,0.80755 c 68.40771,79.54133 100.74496,55.20014 139.46757,26.0622 9.55379,-7.19292 19.49149,-14.66826 30.44414,-20.99627 10.97913,-6.33683 22.48339,-11.21301 33.57284,-15.91709 44.82557,-19.00166 82.72299,-35.0732 48.59413,-134.70175 l -0.3442,-1.00171 1.05025,-0.1984 c 103.08821,-19.47384 98.18114,-59.65269 92.30325,-107.75258 -1.45182,-11.87052 -2.96101,-24.21322 -2.96101,-36.86481 0,-12.67366 1.52684,-25.07814 3.00072,-37.02809 5.95733,-48.32494 10.98796,-89.17896 -92.34737,-109.43828 l -1.05025,-0.20299 0.35302,-1.00613 c 34.68441,-99.01516 -2.56874,-114.85282 -47.16042,-133.81477 -10.99237,-4.67319 -22.43044,-9.53172 -33.40515,-15.87296 l -0.004,0 c -10.99237,-6.34566 -20.96097,-13.86513 -30.5677,-21.111 l 0,0 z m -141.64311,23.25563 c 69.86837,-79.68695 103.26911,-54.50732 142.75514,-24.72952 9.57144,7.2194 19.50032,14.71239 30.37795,20.98744 l 0,0.004 c 10.85116,6.26622 22.24951,11.11151 33.20658,15.77147 45.31097,19.26202 83.16867,35.37769 48.52352,135.11656 103.9443,20.6653 98.84306,62.18565 92.79307,111.26519 -1.46507,11.88376 -2.98308,24.22645 -2.98308,36.80303 0,12.5501 1.50036,24.83102 2.94777,36.63976 5.96615,48.87213 10.94824,89.71732 -92.76218,109.5839 34.08032,100.34784 -4.43048,116.68857 -49.9621,135.9903 -11.02326,4.67761 -22.47015,9.53172 -33.36102,15.8156 -10.87323,6.27946 -20.76239,13.72391 -30.26763,20.87711 -39.336,29.60482 -72.21603,54.33565 -141.27684,-25.53706 -69.86842,79.68695 -103.26916,54.50774 -142.75519,24.72952 -9.56703,-7.21499 -19.50031,-14.71239 -30.37354,-20.99185 l 0,0 C 179.71528,799.80882 168.31693,794.95912 157.35546,790.29917 112.04889,771.03715 74.19119,754.92589 108.83194,655.18261 4.8876347,634.51819 9.9888708,592.99784 16.038866,543.9183 c 1.465061,-11.88817 2.987488,-24.22646 2.987488,-36.79862 0,-12.55451 -1.504776,-24.83984 -2.947773,-36.64417 -5.970564,-48.87214 -10.9526533,-89.71733 92.757769,-109.5839 -34.075905,-100.34785 4.43048,-116.68857 49.96652,-135.9903 11.02325,-4.67761 22.46573,-9.53173 33.35661,-15.8156 10.87322,-6.27946 20.76238,-13.72391 30.26762,-20.87712 39.34042,-29.6057 72.22044,-54.33522 141.27689,25.53707 l 0,0" />
    <path
       inkscape:connector-curvature="0"
       id="path134"
       style="fill:#000000;fill-opacity:1;fill-rule:nonzero;stroke:#ff0000;stroke-width:4"
       d="m 466.57153,189.66483 c -25.13109,-21.89207 -52.3318,-29.77781 -102.17913,27.43459 l -0.70164,0.80754 -0.69282,-0.80754 c -48.95156,-56.86378 -75.7419,-49.80766 -100.48024,-28.51132 -5.85142,5.03504 -11.57045,10.8335 -17.43511,16.782 -11.19977,11.34981 -22.92467,23.2424 -36.98837,31.35319 -14.03281,8.10196 -30.2235,12.32504 -45.7302,16.36279 -7.87691,2.05196 -15.57289,4.0598 -22.7305,6.51775 -31.52529,10.81586 -51.95671,30.4309 -27.32868,102.20564 l 0.34843,1.01054 -1.05025,0.1984 c -73.720803,13.96239 -81.006392,40.69092 -74.92992,72.76781 1.434171,7.5636 3.59646,15.42727 5.816115,23.4851 4.231908,15.38314 8.666806,31.4944 8.666806,47.70715 0,16.19069 -4.443724,32.32842 -8.702108,47.78216 -2.157876,7.84602 -4.267211,15.51994 -5.723446,22.94233 -6.394196,32.71233 0.375091,60.21311 74.850483,74.77546 l 1.04585,0.203 -0.34844,1.00171 c -24.773651,70.83039 -5.26893,90.50722 25.55472,101.27895 7.25028,2.53738 15.14484,4.59376 23.24239,6.7075 15.4361,4.02451 31.59589,8.23877 45.65077,16.35397 l 0,0 c 14.04164,8.10637 25.7886,20.01661 37.03691,31.42379 5.71021,5.79405 11.30127,11.45571 17.00707,16.42456 25.12667,21.89648 52.3274,29.78222 102.17477,-27.43458 l 0.70164,-0.80755 0.70164,0.81196 c 48.94712,56.8589 75.73743,49.80324 100.47578,28.5069 5.847,-5.03945 11.57045,-10.8335 17.43069,-16.77759 11.19977,-11.34981 22.9335,-23.23798 36.98837,-31.35318 14.04164,-8.11079 30.23233,-12.32505 45.7302,-16.3672 7.88132,-2.05197 15.58172,-4.0554 22.73492,-6.51335 31.52087,-10.81585 51.95229,-30.42649 27.32868,-102.21005 l -0.34879,-1.00613 1.05025,-0.19416 c 73.7208,-13.97104 81.00639,-40.69516 74.92992,-72.77205 -1.42976,-7.56359 -3.59646,-15.42726 -5.8117,-23.48951 -4.23632,-15.38314 -8.66681,-31.48998 -8.66681,-47.69832 0,-16.1951 4.43931,-32.33283 8.69329,-47.79099 2.16228,-7.84161 4.27603,-15.51553 5.72785,-22.94232 6.38979,-32.70793 -0.37509,-60.21312 -74.8549,-74.77106 l -1.04142,-0.20723 0.35302,-1.00171 c 24.76483,-70.8304 5.2601,-90.50281 -25.55472,-101.27895 -7.2547,-2.53297 -15.15367,-4.59376 -23.24681,-6.70751 -15.43609,-4.02009 -31.59147,-8.23434 -45.64635,-16.34955 l -0.004,0 c -14.03281,-8.10637 -25.78419,-20.01661 -37.03691,-31.4282 -5.71462,-5.78522 -11.30127,-11.45571 -17.00707,-16.42457 l 0,0 z m -102.87195,25.42675 c 50.45631,-57.53453 78.28805,-49.29136 104.08548,-26.82121 5.71462,4.98209 11.34539,10.6923 17.10414,16.53048 11.16888,11.31892 22.82759,23.1409 36.653,31.12371 l -0.004,0 c 13.83423,7.98282 29.87047,12.1706 45.19183,16.16422 8.12844,2.11374 16.06271,4.18336 23.39243,6.74722 31.65326,11.06739 51.77578,31.1193 27.02861,102.62045 75.05789,14.92861 81.836,43.1531 75.26971,76.73035 -1.45624,7.44004 -3.58323,15.17132 -5.75875,23.07471 -4.21867,15.32577 -8.62709,31.33112 -8.62709,47.30558 0,15.99211 4.39518,31.96215 8.5962,47.21732 2.23289,8.10638 4.40842,16.01417 5.85141,23.63073 6.23975,32.94621 -1.05908,60.40286 -75.35796,74.7181 24.60155,72.46314 3.54351,92.44887 -28.8158,103.55156 -7.17086,2.45794 -14.93303,4.47902 -22.86731,6.54864 -15.39196,4.01127 -31.4635,8.19905 -45.28009,16.17745 -13.83423,7.98723 -25.47087,19.78273 -36.59121,31.05311 -5.9132,5.99704 -11.68077,11.84405 -17.5366,16.8835 -25.41793,21.88325 -52.84369,29.28357 -102.39537,-27.90234 -50.44751,57.53936 -78.28368,49.29576 -104.0767,26.8212 -5.71903,-4.97768 -11.35422,-10.68788 -17.10855,-16.52606 -11.1733,-11.32334 -22.83201,-23.14973 -36.64418,-31.12372 l -0.007,0 c -13.83423,-7.99164 -29.87488,-12.1706 -45.18742,-16.16421 -8.12844,-2.11816 -16.06271,-4.18778 -23.38801,-6.74722 -31.65726,-11.0718 -51.779786,-31.11931 -27.03261,-102.62487 -75.058777,-14.9242 -81.832477,-43.1531 -75.270593,-76.73035 1.451822,-7.43563 3.583221,-15.16691 5.758748,-23.0703 4.218669,-15.33018 8.62709,-31.33112 8.62709,-47.30116 0,-15.99211 -4.395182,-31.96657 -8.5962,-47.22615 -2.228481,-8.09755 -4.404008,-16.00976 -5.847005,-23.62631 -6.239747,-32.95063 1.05908,-60.40287 75.35796,-74.72252 -24.605958,-72.46314 -3.54792,-92.44445 28.81581,-103.54714 7.17085,-2.46236 14.92861,-4.48344 22.86289,-6.54865 15.39196,-4.01126 31.4635,-8.20345 45.28009,-16.17745 13.82982,-7.98281 25.47087,-19.78273 36.5868,-31.05311 5.9132,-5.99263 11.6896,-11.84846 17.54543,-16.88791 25.41351,-21.87883 52.8437,-29.28357 102.38659,27.90235 l 0,0" />
    <path
       inkscape:connector-curvature="0"
       id="path136"
       style="fill:#000000;fill-opacity:1;fill-rule:nonzero;stroke:#ff0000;stroke-width:4"
       d="m 441.95233,192.04776 c -18.09262,-15.74499 -40.25828,-16.45987 -77.55993,26.40198 l -0.70164,0.80314 -0.69282,-0.80314 c -36.83392,-42.73829 -58.71718,-42.37203 -76.58475,-26.97124 -8.60944,7.41798 -16.36278,18.3265 -24.38973,29.61453 -11.31451,15.91709 -23.17179,32.58878 -38.90795,41.68363 -15.70969,9.05955 -36.09257,11.01002 -55.5973,12.87665 -13.76804,1.31502 -27.0948,2.58592 -37.91507,6.30152 -22.67755,7.80189 -34.380384,26.63587 -15.90826,80.37095 l 0.3442,1.01054 -1.05026,0.1984 c -55.425188,10.52902 -66.046879,29.66307 -61.647284,52.83486 2.122573,11.16888 7.69157,23.33506 13.454731,35.9337 8.12844,17.75724 16.640796,36.37058 16.640796,54.5338 0,18.1191 -8.503531,36.75891 -16.645209,54.58234 -5.74551,12.5854 -11.310093,24.76483 -13.494446,35.98666 -4.59376,23.54247 5.873482,43.09574 61.642872,53.97337 l 1.04585,0.1984 -0.35303,1.00613 c -18.59127,53.26732 -7.33413,72.0351 14.93744,79.81051 10.73201,3.7465 24.05436,5.00857 37.84446,6.31477 19.43854,1.84015 39.81259,3.76856 55.54876,12.85458 l 0,0 c 15.70527,9.06838 27.58462,25.74889 38.94767,41.70569 8.02694,11.26597 15.79353,22.17449 24.42062,29.68514 18.09703,15.74058 40.2583,16.45545 77.5644,-26.4064 l 0.69281,-0.80314 0.69723,0.80314 c 36.83389,42.74271 58.71713,42.37644 76.58028,26.98007 8.61385,-7.4268 16.3672,-18.33533 24.39415,-29.62336 11.31009,-15.91268 23.16737,-32.58878 38.90795,-41.6748 l 0,-0.004 c 15.70528,-9.05955 36.08816,-11.01443 55.5973,-12.88106 13.76804,-1.31503 27.0948,-2.58592 37.91506,-6.29712 22.68197,-7.80189 34.38039,-26.64027 15.90827,-80.37535 l -0.3442,-1.00613 1.04584,-0.20299 c 55.42961,-10.52461 66.0513,-29.65865 61.6517,-52.83486 -2.12257,-11.17329 -7.69157,-23.33506 -13.45473,-35.92929 -8.12844,-17.76166 -16.6408,-36.37058 -16.6408,-54.5338 0,-18.12351 8.50354,-36.75891 16.64521,-54.58675 5.74551,-12.58099 11.3101,-24.76041 13.49886,-35.98225 4.58935,-23.54688 -5.87789,-43.10015 -61.64729,-53.97337 l -1.04584,-0.20299 0.34844,-1.00613 c 18.59568,-53.2629 7.33413,-72.0351 -14.93303,-79.8061 -10.73201,-3.74649 -24.05436,-5.00856 -37.84446,-6.31476 -19.43854,-1.84015 -39.81259,-3.76856 -55.54875,-12.859 l 0,0 c -15.70528,-9.06837 -27.58463,-25.74447 -38.94768,-41.70569 -8.02694,-11.26597 -15.79353,-22.17008 -24.42062,-29.68072 l 0,0 z m -78.25716,24.39856 c 37.85325,-43.16634 60.67643,-42.14257 79.46628,-25.79302 8.77712,7.63862 16.61431,18.64423 24.71186,30.00727 11.24832,15.80236 23.00852,32.31518 38.36959,41.18057 l 0,0.004 c 15.38756,8.88303 35.55421,10.79379 54.79857,12.61188 13.90484,1.31502 27.33751,2.59033 38.28134,6.40743 23.1409,8.0799 34.98936,27.2669 16.40691,81.15643 56.30776,11.19977 66.83678,31.47674 62.07092,55.92384 -2.22848,11.42483 -7.83719,23.71016 -13.63565,36.40147 -8.05342,17.64251 -16.4687,36.07491 -16.4687,53.81892 0,17.77931 8.4241,36.19406 16.4687,53.76597 5.80729,12.70013 11.42482,24.97222 13.58711,36.35733 4.5717,24.07642 -6.11177,43.93418 -62.07533,54.78533 18.45447,54.36612 6.1559,73.61931 -17.3998,81.71245 -11.0012,3.78621 -24.45152,5.07476 -38.3387,6.39419 -19.30615,1.84457 -39.48604,3.77739 -54.84712,12.64277 l -0.004,0 c -15.38313,8.88304 -27.12127,25.39145 -38.32104,41.15409 -8.09314,11.3807 -15.9171,22.37748 -24.68981,29.94108 -18.5692,16.00535 -41.10996,16.6761 -78.48663,-26.36227 -37.85328,43.16634 -60.67648,42.14256 -79.46632,25.7886 -8.77713,-7.6342 -16.61432,-18.64422 -24.71187,-30.00727 -11.24832,-15.79794 -23.00852,-32.31077 -38.36959,-41.17615 l 0,-0.004 c -15.38756,-8.88304 -35.55421,-10.79379 -54.79857,-12.61188 -13.90484,-1.31944 -27.33751,-2.59475 -38.28134,-6.41185 -23.1409,-8.07548 -34.989357,-27.26249 -16.40691,-81.15643 -56.307763,-11.19977 -66.836785,-31.47674 -62.070924,-55.91943 2.228481,-11.42923 7.837193,-23.71456 13.635656,-36.40587 8.053422,-17.6381 16.468696,-36.07492 16.468696,-53.81451 0,-17.77931 -8.4241,-36.19407 -16.468696,-53.77038 -5.807289,-12.70014 -11.424826,-24.96782 -13.587115,-36.35293 -4.571696,-24.08083 6.116188,-43.93858 62.075333,-54.78974 -18.454471,-54.36611 -6.1559,-73.61931 17.3998,-81.71245 11.0012,-3.78179 24.45152,-5.07034 38.3387,-6.38978 19.31056,-1.84898 39.49045,-3.7818 54.85153,-12.64277 15.38314,-8.88303 27.12127,-25.39144 38.32105,-41.15409 8.09313,-11.38069 15.91709,-22.37748 24.6898,-29.94549 18.56921,-16.00093 41.10998,-16.67168 78.48668,26.36669 l 0,0" />
    <path
       inkscape:connector-curvature="0"
       id="path138"
       style="fill:#000000;fill-opacity:1;fill-rule:nonzero;stroke:#ff0000;stroke-width:4"
       d="m 425.82342,196.44735 c -13.93132,-12.10881 -32.13425,-10.35692 -61.43544,23.34831 l -0.69722,0.80755 -0.69723,-0.80755 c -29.04086,-33.65227 -47.06729,-35.58509 -60.85741,-23.68809 -9.92888,8.56972 -17.82785,24.26176 -26.01807,40.5407 -10.48048,20.8374 -21.44637,42.61915 -37.98567,52.17293 -16.51283,9.53172 -40.86284,8.16375 -64.20232,6.85313 -18.23824,-1.02819 -35.84986,-2.01666 -48.36025,2.29027 -17.44834,6.01027 -25.034,22.65107 -10.49371,64.88189 l 0.34843,1.00171 -1.05025,0.20299 c -43.664993,8.32261 -54.348463,22.97322 -50.941756,40.86726 2.457949,12.88106 12.095578,27.56256 22.099472,42.79125 12.801634,19.50472 26.194584,39.89202 26.194584,58.98635 0,19.06344 -13.36648,39.46838 -26.168107,59.03047 -10.01272,15.27724 -19.676826,30.04258 -22.196554,43.01631 -3.521441,18.11909 7.095837,33.01241 50.941751,41.53359 l 1.04584,0.20299 -0.34879,1.00171 c -14.63295,41.98371 -7.29,58.56272 9.91123,64.55094 12.38241,4.31575 29.91901,3.30521 48.11313,2.26378 23.28652,-1.3415 47.63212,-2.73596 64.17584,6.81342 l 0.004,0 c 16.50841,9.53172 27.50078,31.30464 38.03421,52.17293 8.23435,16.30542 16.18186,32.06365 26.15928,40.73046 13.93134,12.11323 32.13427,10.36133 61.4399,-23.34831 l 0.69723,-0.80313 0.69282,0.80313 c 29.04523,33.65669 47.07166,35.58951 60.86177,23.69251 9.92446,-8.56973 17.82343,-24.26176 26.01806,-40.54071 10.48048,-20.8374 21.44196,-42.62356 37.98568,-52.17293 16.50841,-9.53172 40.86284,-8.16374 64.20232,-6.85313 18.23382,1.02378 35.84986,2.01225 48.36024,-2.29026 17.44835,-6.01469 25.03401,-22.65108 10.48931,-64.88631 l -0.3442,-1.00171 1.04584,-0.20299 c 43.6694,-8.32261 54.35287,-22.9688 50.94175,-40.86285 -2.45353,-12.88106 -12.09558,-27.56697 -22.09506,-42.79124 -12.80163,-19.50473 -26.19017,-39.89644 -26.19017,-58.99077 0,-19.05903 13.35765,-39.46397 26.1637,-59.02606 10.0083,-15.28165 19.67241,-30.04257 22.19655,-43.02072 3.52585,-18.11909 -7.09584,-33.00358 -50.93734,-41.52918 l -1.05026,-0.20758 0.35303,-0.9973 c 14.62413,-41.98811 7.28118,-58.56272 -9.92005,-64.55093 -12.378,-4.32017 -29.91901,-3.30521 -48.10871,-2.26378 -23.28653,1.33708 -47.63213,2.73595 -64.17585,-6.81342 l -0.004,0 c -16.50841,-9.53172 -27.50078,-31.30464 -38.03421,-52.17735 -8.22994,-16.30542 -16.18186,-32.05923 -26.16369,-40.73045 l 0,0 z m -62.12825,21.34929 c 29.82631,-34.00529 48.69117,-35.47035 63.33737,-22.74374 10.25542,8.91834 18.28678,24.8266 26.60056,41.2953 10.40987,20.62999 21.27427,42.15139 37.31051,51.41392 l 0,0 c 16.06713,9.26695 40.13472,7.89015 63.15648,6.5663 18.37504,-1.05467 36.08815,-2.07403 48.81918,2.36087 18.09262,6.30594 26.01365,23.313 11.39393,65.89684 44.36664,8.83008 55.06776,24.43828 51.36539,43.47966 -2.59475,13.3444 -12.35593,28.25537 -22.46132,43.68264 -12.66042,19.33262 -25.86362,39.50369 -25.86362,58.01552 0,18.55597 13.22967,38.70497 25.88127,57.98023 10.10539,15.38755 19.84451,30.2235 22.36424,43.462 3.59205,18.82073 -7.17968,34.18181 -51.36539,42.81331 14.53588,42.83538 6.36772,59.90422 -11.97643,66.2234 -12.84134,4.42166 -30.64272,3.41994 -49.06188,2.38734 -23.07471,-1.29296 -47.14231,-2.64329 -63.17855,6.60601 -16.06271,9.28019 -26.90504,30.81482 -37.26638,51.41393 -8.26965,16.4378 -16.25246,32.29312 -26.45494,41.09672 -14.50498,12.51921 -33.19774,10.87322 -62.7637,-23.07912 -29.83075,34.0053 -48.69562,35.47036 -63.333,22.74374 -10.26426,-8.92275 -18.2912,-24.83101 -26.60939,-41.29971 -10.40988,-20.62558 -21.27427,-42.15139 -37.31051,-51.40951 l 0,0 c -16.0583,-9.27136 -40.13473,-7.89015 -63.15207,-6.5663 -18.37062,1.05467 -36.08815,2.07403 -48.82359,-2.36086 -18.08821,-6.30594 -26.00924,-23.31742 -11.38952,-65.89685 -44.366635,-8.83008 -55.063344,-24.43827 -51.365389,-43.47965 2.594746,-13.34882 12.355935,-28.25538 22.461324,-43.68706 12.656005,-19.33262 25.868035,-39.50369 25.868035,-58.01552 0,-18.55597 -13.22968,-38.70497 -25.885686,-57.97581 -10.10539,-15.38755 -19.848927,-30.2235 -22.368655,-43.46642 -3.583221,-18.81632 7.184094,-34.18181 51.369801,-42.8089 -14.53588,-42.83537 -6.36772,-59.90863 11.98084,-66.22781 12.84135,-4.42166 30.63389,-3.41994 49.05747,-2.38293 23.0703,1.29296 47.14231,2.64329 63.17413,-6.60601 16.06713,-9.28019 26.90505,-30.81482 37.26638,-51.41393 8.27407,-16.4378 16.25247,-32.2887 26.45936,-41.09672 14.505,-12.51921 33.19776,-10.87322 62.76375,23.07912 l 0,0" />
    <path
       inkscape:connector-curvature="0"
       id="path140"
       style="fill:#000000;fill-opacity:1;fill-rule:nonzero;stroke:#ff0000;stroke-width:4"
       d="m 414.01468,200.92638 c -11.04533,-9.58909 -26.0975,-6.87961 -49.63111,20.22402 l -0.69723,0.80755 -0.69281,-0.80755 c -23.4145,-27.0948 -38.36959,-29.88813 -49.33548,-20.41818 -10.67025,9.21841 -17.85435,29.90136 -25.28997,51.31684 -9.0419,26.03131 -18.45889,53.13493 -35.22324,62.81669 l 0,0 c -16.74229,9.66852 -44.92265,4.30251 -72.03069,-0.8605 -22.33335,-4.25398 -43.93858,-8.36232 -57.35801,-3.73326 -13.82541,4.76586 -19.00166,19.1517 -7.29,53.09522 l 0.3442,1.00171 -1.04143,0.20299 c -35.174698,6.72957 -45.072685,18.28237 -42.349966,32.51376 2.6477,13.84747 16.967346,30.40884 31.794466,47.56152 18.02643,20.84182 36.79421,42.55737 36.79421,61.91206 0,19.3238 -18.73689,41.05259 -36.76332,61.94736 -14.849184,17.21446 -29.208546,33.85967 -31.913613,47.79982 -2.775672,14.35936 7.087011,26.04013 42.327903,32.86678 l 1.04584,0.20299 -0.34844,1.00613 c -11.7602,33.82437 -6.69868,48.17491 6.98552,52.93194 13.31352,4.62906 34.81726,0.51189 57.08883,-3.75532 27.06391,-5.18508 55.24427,-10.58639 72.01304,-0.90463 16.74229,9.6641 26.19016,36.75449 35.26736,62.80786 7.48858,21.46844 14.72122,42.23082 25.44442,51.53749 11.04532,9.58909 26.09309,6.87961 49.62673,-20.22402 l 0.69723,-0.80755 0.69722,0.80755 c 23.41005,27.0948 38.36956,29.88812 49.33104,20.41818 10.67023,-9.21841 17.85432,-29.90136 25.29436,-51.31684 9.0419,-26.03572 18.45889,-53.13935 35.21883,-62.8211 16.74229,-9.66411 44.92706,-4.2981 72.03068,0.86491 22.33777,4.25397 43.93418,8.36232 57.35802,3.72885 13.82541,-4.76586 19.00607,-19.1517 7.29441,-53.09081 l -0.3442,-1.00612 1.04143,-0.19876 c 35.1747,-6.72957 45.07268,-18.28678 42.34997,-32.51376 -2.6477,-13.84747 -16.96735,-30.40884 -31.79447,-47.56152 -18.02201,-20.84181 -36.79421,-42.55296 -36.79421,-61.91206 0,-19.3238 18.74131,-41.05259 36.76332,-61.95177 14.84918,-17.21005 29.21296,-33.85526 31.9092,-47.79982 2.78009,-14.35936 -7.0826,-26.03572 -42.3279,-32.86237 l -1.04584,-0.20723 0.34843,-1.00171 c 11.76021,-33.82437 6.7031,-48.17491 -6.98551,-52.93194 -13.30911,-4.62907 -34.81285,-0.51189 -57.08442,3.75532 -27.06391,5.18508 -55.24868,10.58639 -72.01745,0.90463 -16.73788,-9.65969 -26.18134,-36.75449 -35.26737,-62.80786 -7.48416,-21.46844 -14.72121,-42.23082 -25.43998,-51.53749 l 0,0 z m -50.32392,18.22059 c 24.04549,-27.39928 39.75959,-29.83517 51.52862,-19.61505 11.09387,9.62881 18.41034,30.62066 25.97835,52.32297 8.9713,25.73565 18.30003,52.5039 34.451,61.82381 16.16421,9.33314 44.00919,3.99802 70.74214,-1.12086 22.51427,-4.31575 44.25631,-8.47706 58.042,-3.68913 14.59324,5.07476 20.2196,19.86216 8.4594,54.27785 35.75278,7.12232 45.71696,19.51797 42.75154,34.81726 -2.78892,14.42114 -17.30714,31.2561 -32.32401,48.66032 -17.80137,20.63882 -36.3088,42.09402 -36.3088,60.74266 0,18.6707 18.53832,40.11707 36.33528,60.70735 14.9948,17.34244 29.47772,34.08914 32.21809,48.41762 2.90365,15.18014 -7.09583,27.44782 -42.78242,34.47305 11.71166,34.5216 5.96174,49.34872 -8.77271,54.42789 -13.88719,4.79676 -35.72189,0.63987 -58.29795,-3.66265 -26.77708,-5.09682 -54.62206,-10.40546 -70.76862,-1.07673 -16.17303,9.33756 -25.47087,36.11022 -34.40245,61.8238 -7.52388,21.6626 -14.7874,42.57502 -25.8239,52.11116 -11.69401,10.10097 -27.31544,7.58125 -51.24179,-19.80921 -24.04553,27.39928 -39.75522,29.83517 -51.52425,19.61504 -11.09388,-9.6288 -18.41036,-30.62065 -25.97837,-52.32297 -8.96688,-25.73564 -18.30443,-52.50389 -34.45099,-61.8238 -16.16863,-9.33314 -44.0092,-3.99803 -70.74214,1.12086 -22.51869,4.31134 -44.25631,8.47705 -58.04201,3.68913 -14.59324,-5.07917 -20.2196,-19.86658 -8.4594,-54.27786 -35.75719,-7.12231 -45.721369,-19.51796 -42.755945,-34.81726 2.793324,-14.42114 17.311547,-31.2561 32.324005,-48.66031 17.80579,-20.63883 36.31321,-42.09403 36.31321,-60.74266 0,-18.67953 -18.5339,-40.11707 -36.33527,-60.70736 -14.999223,-17.34243 -29.477731,-34.09355 -32.218101,-48.42202 -2.899232,-15.17574 7.091424,-27.44341 42.778011,-34.46423 -11.70725,-34.52601 -5.95733,-49.35314 8.77271,-54.43231 13.89602,-4.79234 35.72189,-0.63986 58.29795,3.66265 26.78149,5.09683 54.62206,10.40105 70.76862,1.07674 l 0.004,0 c 16.16862,-9.33315 25.47087,-36.11022 34.39804,-61.82381 7.52388,-21.6626 14.79182,-42.57502 25.82833,-52.11115 11.69401,-10.10098 27.31103,-7.58125 51.23741,19.80921 l 0,0" />
    <path
       inkscape:connector-curvature="0"
       id="path142"
       style="fill:#000000;fill-opacity:1;fill-rule:nonzero;stroke:#ff0000;stroke-width:4"
       d="m 404.92865,205.11416 c -8.89627,-7.70922 -21.39342,-4.70408 -40.54508,17.38656 l -0.69723,0.80314 -0.69722,-0.80314 C 343.85948,200.39243 331.3844,197.35198 322.5146,205.0259 c -11.08062,9.58909 -17.01588,35.56744 -23.14974,62.37541 -7.17968,31.40614 -14.61531,63.94196 -31.20315,73.5134 -16.5746,9.57143 -48.4838,-0.23371 -79.30745,-9.70382 -26.3402,-8.09314 -51.8861,-15.94799 -65.79094,-11.138 -11.12475,3.84799 -14.76975,16.17745 -5.21597,43.81062 l 0.34844,1.00171 -1.04143,0.20299 c -28.714306,5.51163 -37.584102,14.79623 -35.373273,26.30932 2.762434,14.39466 22.293633,32.52699 42.447053,51.24182 23.60866,21.91855 48.06458,44.6314 48.06458,63.7831 0,19.12964 -24.4471,41.86014 -48.06458,63.82282 -20.17989,18.75895 -39.746398,36.95748 -42.535309,51.40068 -2.228481,11.56604 6.623663,20.88595 35.329149,26.42405 l 1.04584,0.20299 -0.34844,1.00172 c -9.58467,27.62875 -5.97939,39.94938 5.09683,43.79296 13.84747,4.80558 39.31393,-3.04044 65.59677,-11.13358 30.78834,-9.48759 62.6843,-19.31056 79.26773,-9.73912 16.57902,9.57143 24.04112,42.10726 31.24728,73.53987 6.16033,26.85651 12.13531,52.90105 23.25565,62.53427 8.89627,7.71805 21.39342,4.70849 40.54071,-17.38215 l 0.70164,-0.80755 0.69281,0.80755 c 19.13401,22.11271 31.60468,25.14874 40.47448,17.47923 11.08062,-9.5935 17.0203,-35.57626 23.14972,-62.37982 7.1841,-31.40614 14.61972,-63.93755 31.20756,-73.5134 16.57461,-9.57143 48.4794,0.23371 79.30745,9.70824 26.34021,8.09314 51.88169,15.94357 65.78653,11.13358 11.12475,-3.84799 14.77417,-16.17304 5.21597,-43.81062 l -0.34844,-1.00612 1.04584,-0.1984 c 28.71431,-5.51604 37.5797,-14.79182 35.36887,-26.30932 -2.76244,-14.39466 -22.28923,-32.527 -42.44264,-51.24182 -23.60866,-21.91855 -48.06458,-44.6314 -48.06458,-63.77428 0,-19.13405 24.44709,-41.86896 48.06017,-63.83164 20.17989,-18.75896 39.74639,-36.95748 42.5353,-51.4051 2.2329,-11.56162 -6.61925,-20.88153 -35.32914,-26.41964 l -1.04143,-0.20299 0.34843,-0.9973 c 9.58468,-27.62875 5.97498,-39.95379 -5.10123,-43.79737 -13.84306,-4.80117 -39.31835,3.04044 -65.59678,11.13799 -30.78834,9.48759 -62.6843,19.30615 -79.26332,9.73471 l -0.004,0 c -16.5746,-9.57143 -24.04112,-42.10726 -31.24727,-73.53987 -6.16032,-26.8521 -12.1353,-52.89664 -23.25122,-62.53868 l 0,0 z m -41.24231,15.38755 c 19.65032,-22.39072 32.81821,-25.13109 42.44702,-16.77759 11.57486,10.03478 17.62044,36.36616 23.84695,63.51833 7.1179,31.05311 14.49175,63.18736 30.37354,72.35282 l -0.004,0.004 c 15.8862,9.16987 47.39383,-0.53395 77.80267,-9.9024 26.56967,-8.18581 52.32297,-16.12008 66.73528,-11.12034 12.00732,4.17013 16.16863,16.92763 6.58836,45.13446 29.21296,5.82494 38.1666,15.85532 35.74837,28.37011 -2.89923,15.04335 -22.68196,33.44046 -43.08691,52.40682 -23.32624,21.69349 -47.46885,44.14157 -47.46885,62.48572 0,18.34415 24.15144,40.77017 47.47326,62.42836 20.37406,18.91782 40.12149,37.25315 42.99866,52.23913 2.39617,12.47949 -6.57954,22.46574 -35.80132,28.26861 9.55819,28.20684 5.35276,40.97758 -6.69427,45.14329 -14.47851,5.00857 -40.298,-2.93012 -66.92504,-11.1071 -30.45297,-9.35962 -61.97384,-19.04579 -77.85121,-9.88033 -15.88179,9.16986 -23.23357,41.30853 -30.325,72.33517 -6.19562,27.10362 -12.2059,53.37322 -23.74546,63.35505 -9.60674,8.31378 -22.74374,5.5337 -42.37199,-16.86585 -19.65476,22.38189 -32.81825,25.12226 -42.44705,16.7776 -11.57928,-10.04361 -17.62046,-36.37058 -23.84697,-63.52716 -7.12231,-31.0487 -14.49175,-63.18295 -30.36912,-72.35282 -15.8862,-9.16546 -47.39384,0.53836 -77.80268,9.9024 -26.57408,8.1858 -52.32738,16.11566 -66.73969,11.12034 -12.00291,-4.16572 -16.16863,-16.92763 -6.58395,-45.13447 -29.212962,-5.82494 -38.166602,-15.85531 -35.752782,-28.37452 2.903645,-15.03894 22.686382,-33.43604 43.086912,-52.40681 23.33065,-21.68908 47.47326,-44.14158 47.47326,-62.47249 0,-18.35298 -24.15585,-40.78341 -47.47768,-62.43277 -20.36964,-18.92224 -40.117068,-37.25315 -42.994235,-52.24354 -2.396169,-12.4795 6.579535,-22.46574 35.796905,-28.26862 -9.55378,-28.21124 -5.35276,-40.97316 6.69868,-45.13887 14.4741,-5.01298 40.298,2.92571 66.92504,11.1071 30.45297,9.35962 61.96943,19.04138 77.85122,9.87151 15.88178,-9.16987 23.22915,-41.30413 30.32499,-72.33076 6.19562,-27.09921 12.2015,-53.37323 23.74548,-63.35947 9.60232,-8.30936 22.73933,-5.52928 42.37203,16.87468 l 0,0" />
    <path
       inkscape:connector-curvature="0"
       id="path144"
       style="fill:#000000;fill-opacity:1;fill-rule:nonzero;stroke:#ff0000;stroke-width:4"
       d="m 397.74015,208.96215 c -7.23705,-6.26181 -17.64251,-3.2655 -33.36099,14.8889 l -0.69723,0.80755 -0.69281,-0.80755 c -15.76706,-18.19853 -26.20341,-21.18601 -33.4537,-14.90655 -11.29685,9.77884 -15.60378,41.39238 -20.02985,73.84436 -5.03506,36.90012 -10.21573,74.87696 -26.32698,84.1748 -16.11567,9.30226 -51.63899,-5.21596 -86.14735,-19.31497 -30.34264,-12.40006 -59.8998,-24.47799 -74.01204,-19.57974 -9.0419,3.13311 -11.64547,13.64007 -3.7818,36.33527 l 0.34843,1.00613 -1.04584,0.19416 c -23.639548,4.55846 -31.450263,12.10441 -29.636589,21.51257 2.828627,14.68149 28.043559,34.21711 53.933659,54.27344 29.43801,22.80994 59.73653,46.29063 59.73653,64.88631 0,18.61333 -30.33382,42.11608 -59.80273,64.9525 -25.90774,20.07398 -51.140328,39.63166 -53.960128,54.29551 -1.809262,9.39492 5.992628,16.90997 29.570398,21.44637 l 1.04584,0.1984 -0.34879,1.00613 c -7.87691,22.75257 -5.25127,33.29483 3.81269,36.42794 14.12548,4.88501 43.65617,-7.1841 73.97675,-19.57092 34.46864,-14.09459 69.94341,-28.59516 86.05467,-19.29732 l 0,0.004 c 16.12008,9.31549 21.30957,47.32764 26.34905,84.26306 4.43048,32.47846 8.75065,64.10965 20.03868,73.88408 7.23704,6.25739 17.64692,3.26549 33.36102,-14.89332 l 0.69723,-0.80313 0.69722,0.80313 c 15.76261,18.19853 26.20338,21.19484 33.44925,14.91097 11.29685,-9.78325 15.60819,-41.3968 20.03426,-73.83995 5.03064,-36.90012 10.2113,-74.87696 26.32697,-84.17922 16.11567,-9.30225 51.63457,5.21156 86.14734,19.31498 30.34265,12.40006 59.8954,24.47357 74.01205,19.58415 9.03748,-3.13311 11.64547,-13.64889 3.7818,-36.33527 l -0.35303,-1.00613 1.05026,-0.20299 c 23.63514,-4.55404 31.45026,-12.09558 29.63659,-21.51256 -2.82863,-14.67268 -28.04797,-34.21712 -53.93366,-54.27345 -29.44242,-22.80993 -59.74094,-46.2818 -59.74094,-64.87748 0,-18.61333 30.33382,-42.11608 59.80272,-64.9525 25.91216,-20.07839 51.14034,-39.63166 53.96014,-54.29992 1.80485,-9.39934 -5.98822,-16.91439 -29.5704,-21.44196 l -1.04143,-0.20299 0.34879,-1.00171 c 7.87249,-22.7614 5.24686,-33.29483 -3.8171,-36.42795 -14.12107,-4.88942 -43.65617,7.17969 -73.96792,19.57092 -34.47747,14.09018 -69.95224,28.59517 -86.0635,19.2885 -16.11567,-9.30225 -21.30516,-47.32323 -26.34462,-84.25865 -4.4349,-32.48287 -8.75065,-64.11406 -20.04309,-73.88849 l 0,0 z m -34.05822,12.88548 c 16.2083,-18.44565 27.2801,-21.18602 35.25851,-14.27994 11.82198,10.22895 16.18627,42.20435 20.6653,75.03142 4.98209,36.49413 10.1098,74.06059 25.44881,82.91715 15.32577,8.85214 50.38132,-5.47633 84.43958,-19.39882 30.64271,-12.52362 60.48671,-24.72511 75.26529,-19.61505 9.99948,3.46408 13.17231,14.44762 5.29099,37.76945 24.08524,4.81881 31.99304,13.03551 30.00285,23.39684 -2.94777,15.34784 -28.45836,35.11733 -54.64853,55.41196 -29.11146,22.5584 -59.07902,45.77873 -59.07902,63.49626 0,17.69988 29.93225,40.88932 59.01724,63.42125 26.16369,20.27697 51.66105,40.03323 54.61764,55.38106 2.00343,10.39223 -5.91761,18.63099 -30.06463,23.47187 7.87249,23.26004 4.7129,34.2127 -5.2601,37.67677 -14.76976,5.11889 -44.63581,-7.09142 -75.30942,-19.62828 -34.09356,-13.93132 -69.19324,-28.27303 -84.53225,-19.41647 -15.33018,8.84773 -20.44907,46.37005 -25.42233,82.82447 -4.4702,32.8006 -8.8345,64.74951 -20.64765,74.99612 -7.99606,6.92814 -19.08992,4.18777 -35.35559,-14.30641 -16.20834,18.45447 -27.28014,21.19043 -35.25854,14.28875 -11.81757,-10.23336 -16.18186,-42.20875 -20.6653,-75.03582 -4.98211,-36.49414 -10.10982,-74.06059 -25.44442,-82.91274 l 0,0 c -15.33019,-8.85214 -50.38132,5.47192 -84.44399,19.39441 -30.6383,12.52362 -60.48671,24.72511 -75.26529,19.61504 -9.99948,-3.46407 -13.17231,-14.4432 -5.29099,-37.76944 -24.085246,-4.8144 -31.993045,-13.0311 -30.002856,-23.40126 2.947772,-15.34342 28.458366,-35.11733 54.648536,-55.40754 29.11587,-22.55841 59.08343,-45.77874 59.08343,-63.49185 0,-17.70429 -29.93225,-40.88932 -59.01724,-63.43008 -26.1681,-20.26814 -51.665458,-40.0244 -54.617644,-55.37665 -2.00784,-10.38781 5.913197,-18.62657 30.060224,-23.47186 -7.86808,-23.25563 -4.70849,-34.21711 5.26451,-37.67236 14.76534,-5.11889 44.64023,7.09142 75.30501,19.61946 34.09355,13.93573 69.19765,28.27744 84.53224,19.42529 15.33019,-8.85214 20.44908,-46.37447 25.42236,-82.82889 4.47461,-32.79618 8.83449,-64.75392 20.65206,-74.99611 7.99164,-6.92374 19.08992,-4.18337 35.35121,14.302 l 0,0" />
    <path
       inkscape:connector-curvature="0"
       id="path146"
       style="fill:#000000;fill-opacity:1;fill-rule:nonzero;stroke:#ff0000;stroke-width:4"
       d="m 391.92844,212.47477 c -5.91319,-5.10565 -14.58882,-2.2682 -27.55369,12.72661 l -0.69282,0.80755 -0.69723,-0.80755 c -13.0664,-15.05218 -21.81263,-17.86315 -27.77437,-12.69131 -11.35422,9.85827 -13.73715,47.46003 -16.16421,85.81196 -2.67859,42.44264 -5.42338,85.78549 -20.85066,94.68618 -15.45374,8.92275 -54.45878,-10.454 -92.60332,-29.3983 -34.40245,-17.08649 -68.09885,-33.82437 -82.2155,-28.91289 -7.37826,2.56827 -9.25813,11.49985 -2.75361,30.21909 l 0.34879,1.00613 -1.04143,0.20758 c -19.57533,3.78179 -26.384335,9.95535 -24.883971,17.69987 2.863931,14.76534 34.239181,35.62922 66.236631,56.90349 35.40858,23.54689 71.58058,47.59683 71.58058,65.40261 0,17.84109 -36.28673,41.93958 -71.77033,65.49528 -31.99746,21.25221 -63.33299,42.06313 -66.143963,56.74463 -1.465061,7.66951 5.326293,13.76804 24.791303,17.49248 l 1.04143,0.1984 -0.34421,1.00612 c -6.5001,18.84722 -4.56287,27.83175 2.89041,30.40443 14.21815,4.90266 47.98074,-11.83963 82.40526,-28.90848 38.09158,-18.89134 77.00395,-38.18866 92.4268,-29.28797 l 0.004,0 c 15.44935,8.92275 18.17207,52.38916 20.83742,94.89799 2.40058,38.3387 4.75704,75.88309 16.06713,85.6531 5.90878,5.11448 14.58883,2.27261 27.54491,-12.71779 l 0.69723,-0.80754 0.69722,0.80754 c 13.06637,15.05218 21.81702,17.85874 27.76993,12.69131 11.36305,-9.86268 13.74157,-47.46002 16.16863,-85.81637 2.683,-42.43823 5.42778,-85.78108 20.85505,-94.69059 15.44933,-8.91393 54.45878,10.45841 92.59449,29.3983 34.40686,17.08649 68.10326,33.82437 82.21551,28.92171 7.38267,-2.56827 9.26695,-11.49985 2.75802,-30.2235 l -0.35303,-1.00613 1.05026,-0.20299 c 19.5665,-3.78621 26.3755,-9.95535 24.87514,-17.70429 -2.8551,-14.76092 -34.23477,-35.6248 -66.22781,-56.89907 -35.41299,-23.54689 -71.58058,-47.59683 -71.58058,-65.40703 0,-17.84108 36.28232,-41.93516 71.76151,-65.49528 32.00187,-21.24779 63.34181,-42.05872 66.14837,-56.74021 1.46948,-7.67392 -5.32187,-13.76805 -24.7913,-17.49248 l -1.04584,-0.20299 0.3442,-1.00612 c 6.50893,-18.8428 4.5717,-27.82733 -2.8904,-30.40002 -14.21815,-4.90707 -47.97192,11.83522 -82.40085,28.90848 -38.09599,18.89134 -77.00395,38.18866 -92.4268,29.28356 -15.44933,-8.91833 -18.17646,-52.39357 -20.84182,-94.89799 -2.40058,-38.33428 -4.75703,-75.88309 -16.06271,-85.65751 l 0,0 z m -28.25092,10.72759 c 13.45028,-15.29488 22.78784,-17.8808 29.45563,-12.11764 11.89259,10.27749 14.2711,48.21021 16.69816,86.93283 2.63446,42.019 5.3307,84.99118 19.92395,93.41969 14.57117,8.40645 53.02902,-10.66582 90.69256,-29.34093 34.76871,-17.25418 68.86227,-34.15975 83.81736,-29.00114 8.39762,2.90364 10.88205,12.32504 4.36871,31.74592 19.96807,3.99803 26.87857,10.78938 25.22376,19.44295 -2.9566,15.44492 -34.61427,36.46766 -66.93828,57.93168 -35.06879,23.28652 -70.9363,47.107 -70.9363,63.95961 0,16.82614 35.74836,40.59807 70.75096,63.86695 32.31959,21.4905 64.01698,42.56619 67.01771,58.09495 1.69453,8.72418 -5.2248,15.58613 -25.29878,19.65477 6.51776,19.2929 4.0907,28.67018 -4.23191,31.565 -14.84918,5.16301 -48.88537,-11.74697 -83.63644,-29.00556 -37.70766,-18.72807 -76.27142,-37.87977 -90.86466,-29.45125 -14.56676,8.40644 -17.27624,51.25506 -19.93277,93.20787 -2.44912,38.73586 -4.85411,76.72153 -16.79966,87.08728 -6.71192,5.82052 -16.11566,3.26108 -29.67627,-12.08234 -13.4459,15.29047 -22.78346,17.87197 -29.45125,12.11764 -11.89259,-10.27749 -14.2711,-48.21021 -16.70258,-86.93724 -2.63004,-42.019 -5.32629,-84.98677 -19.91955,-93.41528 l 0.004,0 c -14.57117,-8.41086 -53.03343,10.66582 -90.69256,29.34093 -34.77313,17.24536 -68.87109,34.15534 -83.81736,28.99232 -8.39762,-2.89482 -10.88205,-12.32063 -4.37312,-31.7371 -19.96807,-3.99803 -26.874157,-10.79379 -25.219344,-19.44736 2.952184,-15.4405 34.609854,-36.46324 66.938274,-57.92727 35.06879,-23.29535 70.93631,-47.107 70.93631,-63.96402 0,-16.82173 -35.75278,-40.59366 -70.75097,-63.86253 -32.32401,-21.49492 -64.01698,-42.57061 -67.026532,-58.09937 -1.690115,-8.71976 5.233622,-15.58613 25.307602,-19.65477 -6.51776,-19.2929 -4.0907,-28.67459 4.22749,-31.56058 14.8536,-5.16743 48.88538,11.73814 83.63644,29.00114 37.70767,18.72365 76.27142,37.87977 90.86025,29.45567 14.5712,-8.41086 17.28068,-51.25507 19.9372,-93.20788 2.45354,-38.73585 4.85853,-76.72594 16.80407,-87.09169 6.70751,-5.82494 16.11126,-3.26549 29.66749,12.08675 l 0,0" />
    <path
       inkscape:connector-curvature="0"
       id="path148"
       style="fill:#000000;fill-opacity:1;fill-rule:nonzero;stroke:#ff0000;stroke-width:4"
       d="m 387.15817,215.70055 c -4.83646,-4.17454 -12.0691,-1.56656 -22.78342,10.85557 l -0.69723,0.80313 -0.69723,-0.80313 c -10.85998,-12.49273 -18.19411,-15.05218 -23.10118,-10.78938 -11.32334,9.84945 -11.50868,53.83657 -11.69401,98.34 -0.19876,47.9675 -0.40157,96.53957 -14.97716,104.95043 -14.61974,8.44175 -56.96529,-15.83766 -98.67981,-39.75522 -38.5461,-22.10389 -76.54501,-43.89887 -90.52487,-39.0271 -6.03235,2.10492 -7.3915,9.66851 -1.99019,25.15756 l 0.34844,1.00613 -1.05026,0.20758 c -16.24364,3.15959 -22.13036,8.22552 -20.88594,14.6153 2.85952,14.72563 40.86725,36.87805 79.31186,59.28642 41.44534,24.16027 83.40697,48.61619 83.40697,65.45116 0,16.87909 -42.19993,41.41003 -83.77323,65.57912 -38.41372,22.32453 -76.28907,44.34457 -79.05592,58.88485 -1.19588,6.27064 4.67319,11.23508 20.78886,14.30641 l 1.04584,0.1984 -0.3442,1.00613 c -5.38807,15.65232 -3.94507,23.28652 2.20642,25.40027 14.19167,4.88059 52.37151,-16.9497 91.00587,-39.04475 41.6395,-23.81166 83.80413,-47.91455 98.37973,-39.50369 14.61972,8.43734 14.76534,57.26093 14.90656,105.33875 0.13238,44.43724 0.26018,88.23462 11.47336,97.91196 4.83647,4.16571 12.07352,1.56656 22.78346,-10.85557 l 0.69282,-0.80755 0.70164,0.80755 c 10.86436,12.48832 18.19408,15.05659 23.10556,10.78055 11.32333,-9.84062 11.50426,-53.82775 11.6896,-98.33117 0.19416,-47.96751 0.39715,-96.53957 14.97716,-104.95484 14.62413,-8.43734 56.96527,15.84207 98.67537,39.76404 38.55052,22.09947 76.54943,43.89005 90.52929,39.01387 6.03234,-2.0961 7.3915,-9.66411 1.99019,-25.15316 l -0.34844,-1.00612 1.04584,-0.20299 c 16.24806,-3.16401 22.13478,-8.22994 20.89477,-14.61531 -2.86834,-14.72563 -40.86725,-36.87805 -79.31628,-59.29083 -41.44092,-24.15586 -83.40697,-48.62061 -83.40697,-65.44674 0,-16.87909 42.19993,-41.41445 83.77765,-65.57913 38.41372,-22.32893 76.28466,-44.34456 79.05151,-58.88926 1.19588,-6.27505 -4.66878,-11.23508 -20.78445,-14.29758 l -1.05025,-0.20299 0.3442,-1.00613 c 5.38807,-15.65232 3.94948,-23.28652 -2.20642,-25.40027 -14.18726,-4.8806 -52.37151,16.94969 -91.00587,39.04034 -41.6395,23.81165 -83.80413,47.92337 -98.37972,39.50369 -14.61972,-8.43734 -14.76975,-57.25211 -14.90655,-105.34317 -0.13239,-44.424 -0.26053,-88.23461 -11.47337,-97.90313 l 0,0 z m -23.48506,8.85655 c 11.19973,-12.71778 19.08988,-15.07865 24.68976,-10.25101 11.84846,10.21571 11.97644,54.44555 12.10882,99.29759 0.14121,47.56152 0.28701,95.84234 13.98427,103.75013 13.65772,7.88133 55.359,-15.96122 96.54398,-39.51251 39.00062,-22.30246 77.54673,-44.34015 92.52389,-39.18596 7.10466,2.44471 9.08602,10.5246 3.69354,26.75059 16.60549,3.33611 22.59812,8.98895 21.2169,16.24365 -2.92571,15.37872 -41.16291,37.60175 -79.94289,60.14251 -41.11438,23.89991 -82.85096,48.16608 -82.85096,63.98609 0,15.77147 41.49829,39.96262 82.48469,63.84929 38.81087,22.6246 77.17164,44.99325 80.19884,60.53967 1.43417,7.37384 -4.56728,13.12818 -21.31399,16.56578 5.40573,16.0583 3.51262,24.06759 -3.46848,26.50347 -14.77858,5.14978 -53.13935,-16.84378 -92.05172,-39.15507 -41.25999,-23.66161 -83.1422,-47.68067 -96.84405,-39.76846 -13.65772,7.88132 -13.86071,55.91943 -14.05487,103.36622 -0.18111,44.92706 -0.37068,89.32458 -12.32505,99.72122 -5.67049,4.92472 -13.65772,2.59916 -25.00308,-10.18041 -11.20418,12.71779 -19.08992,15.07866 -24.6898,10.2466 -11.84405,-10.21571 -11.97643,-54.44113 -12.10882,-99.302 -0.14121,-47.55269 -0.28242,-95.8291 -13.97986,-103.74131 -13.66215,-7.89014 -55.36343,15.96122 -96.54841,39.51252 -39.00062,22.29363 -77.54672,44.33574 -92.52388,39.18596 -7.10025,-2.44471 -9.09044,-10.52461 -3.69354,-26.74618 -16.60991,-3.34052 -22.59813,-8.99336 -21.21691,-16.25688 2.93012,-15.3699 41.16291,-37.59735 79.9429,-60.14252 41.11437,-23.89549 82.85095,-48.16166 82.85095,-63.97726 0,-15.77147 -41.49829,-39.96704 -82.48027,-63.85371 -38.81529,-22.62901 -77.18047,-44.98442 -80.20326,-60.53966 -1.43417,-7.36944 4.5717,-13.12818 21.3184,-16.56578 -5.41454,-16.05389 -3.51703,-24.07201 3.46408,-26.49907 14.78299,-5.14977 53.13934,16.84379 92.05171,39.15508 41.26,23.6572 83.14661,47.67184 96.84407,39.76404 13.65772,-7.88132 13.8563,-55.91502 14.05487,-103.3618 0.18534,-44.92265 0.37068,-89.329 12.32505,-99.72122 5.66608,-4.92473 13.65772,-2.60799 25.00312,10.1804 l 0,0" />
    <path
       inkscape:connector-curvature="0"
       id="path150"
       style="fill:#000000;fill-opacity:1;fill-rule:nonzero;stroke:#ff0000;stroke-width:4"
       d="m 383.19986,218.6748 c -3.94949,-3.40671 -9.96418,-1.0635 -18.82511,9.22723 l -0.69723,0.81196 -0.69723,-0.80754 c -9.0419,-10.37016 -15.17574,-12.66925 -19.21789,-9.1434 -11.2086,9.76561 -8.95364,60.57497 -6.68986,111.49466 2.37411,53.43059 4.75262,106.99798 -8.84773,114.84842 -13.66213,7.88573 -59.16288,-21.25662 -104.35912,-50.21805 -42.79567,-27.41694 -85.32214,-54.65736 -99.0593,-49.8562 -4.92031,1.72101 -5.89554,8.09755 -1.40769,20.92125 l 0.34844,1.00171 -1.04143,0.20723 c -13.50327,2.64328 -18.56038,6.809 -17.53219,12.07351 2.8551,14.58441 47.98074,38.03421 93.2167,61.53697 47.46003,24.65891 95.0392,49.37961 95.0392,65.08488 0,15.77147 -47.99398,40.60249 -95.67023,65.27023 -45.14329,23.3483 -89.99975,46.55539 -92.70482,60.84856 -0.97082,5.12772 4.06422,9.16105 17.40863,11.6896 l 1.04584,0.1984 -0.34879,1.00613 c -4.45696,13.01344 -3.38023,19.47824 1.69453,21.2169 14.0637,4.82764 56.93438,-22.53634 99.90215,-49.95328 45.08592,-28.77167 90.28218,-57.61396 103.88253,-49.76352 l 0.004,0 c 13.66214,7.88573 11.16447,61.86351 8.68887,115.48386 -2.35204,50.76965 -4.68201,101.22158 6.35007,110.71358 3.94949,3.39789 9.95977,1.05467 18.82074,-9.23606 l 0.69723,-0.80755 0.69722,0.80314 c 9.03745,10.37457 15.18012,12.66925 19.22227,9.14339 11.2086,-9.76119 8.94923,-60.56614 6.68545,-111.49024 -2.37411,-53.43501 -4.75263,-106.99799 8.84331,-114.85283 13.66655,-7.89015 59.16287,21.26103 104.36352,50.21805 42.79567,27.41693 85.32215,54.66177 99.05488,49.86061 4.92473,-1.72101 5.89996,-8.10197 1.41211,-20.92125 l -0.35303,-1.00612 1.04585,-0.20299 c 13.50327,-2.64329 18.56038,-6.80901 17.53219,-12.07352 -2.85511,-14.58883 -47.98516,-38.03421 -93.21671,-61.53255 -47.46002,-24.66333 -95.0392,-49.38402 -95.0392,-65.0893 0,-15.77588 47.99398,-40.6069 95.67024,-65.27023 45.14329,-23.35271 89.99974,-46.5598 92.70481,-60.85297 0.97083,-5.1233 -4.06422,-9.16105 -17.40863,-11.68519 l -1.04584,-0.19875 0.3442,-1.00613 c 4.46579,-13.01344 3.38465,-19.48266 -1.69011,-21.2169 -14.0637,-4.82323 -56.92997,22.53193 -99.90215,49.95328 -45.08592,28.77167 -90.28658,57.61395 -103.88693,49.75911 -13.65772,-7.88573 -11.16447,-61.8591 -8.68446,-115.48386 2.34322,-50.76083 4.67319,-101.21717 -6.35007,-110.70476 l 0,0 z m -19.53117,7.22381 c 9.34635,-10.58198 16.00973,-12.69573 20.73587,-8.62709 11.70284,10.07008 9.3508,60.97653 6.98552,112.19188 -2.45354,53.06433 -4.92031,106.47727 7.771,113.80699 12.63394,7.29 57.3536,-21.2478 101.97176,-49.7194 43.34727,-27.65964 86.59745,-55.25751 101.49077,-50.15186 6.03234,2.07403 7.64303,8.98453 3.16841,22.56723 13.84306,2.79333 19.00166,7.51506 17.8455,13.63125 -2.87275,15.18015 -48.13078,38.59023 -93.67122,62.15035 -47.18202,24.40738 -94.66852,48.97804 -94.66852,63.63306 0,14.58001 47.08052,39.04476 94.0419,63.44773 45.6287,23.70574 91.1559,47.35412 94.17428,62.8211 1.22236,6.2574 -3.9539,11.11151 -17.95141,14.0284 4.49668,13.38412 2.98749,20.21078 -2.8904,22.27157 -14.57559,5.09682 -57.48157,-22.39072 -100.65674,-50.04595 -44.72848,-28.66135 -89.75263,-57.50364 -102.43952,-50.17833 -12.63395,7.29441 -10.27749,60.30137 -7.92987,113.17153 2.28144,51.37422 4.55846,102.62487 -7.31206,112.97296 -4.80999,4.18337 -11.60134,2.12699 -21.1242,-8.53442 -9.34638,10.5908 -16.01418,12.69572 -20.7315,8.63151 -11.70724,-10.0745 -9.35962,-60.97654 -6.98551,-112.1963 2.44912,-53.06433 4.9159,-106.47286 -7.77541,-113.80699 l 0,-0.004 c -12.63395,-7.28559 -57.35804,21.25662 -101.9762,49.72381 -43.34285,27.66406 -86.59304,55.26192 -101.48635,50.15186 -6.03234,-2.06521 -7.64303,-8.98012 -3.17283,-22.56282 -13.83864,-2.79774 -18.99725,-7.51506 -17.84109,-13.63124 2.87276,-15.18015 48.13078,-38.59465 93.67123,-62.15477 47.18202,-24.40297 94.66852,-48.97363 94.66852,-63.62865 0,-14.58441 -47.08052,-39.04917 -94.0419,-63.44772 -45.6287,-23.70575 -91.15149,-47.36295 -94.17429,-62.82552 -1.22235,-6.2574 3.9539,-11.1071 17.95141,-14.01957 -4.49668,-13.38413 -2.98749,-20.21519 2.89041,-22.27157 14.57559,-5.09683 57.48157,22.3863 100.65232,50.04594 44.7329,28.65695 89.75706,57.49923 102.44837,50.17393 12.62953,-7.29442 10.27308,-60.29697 7.92545,-113.17595 -2.28585,-51.36539 -4.55846,-102.62045 7.31207,-112.96414 4.80999,-4.19219 11.60134,-2.13581 21.12423,8.5256 l 0,0" />
    <path
       inkscape:connector-curvature="0"
       id="path152"
       style="fill:#000000;fill-opacity:1;fill-rule:nonzero;stroke:#ff0000;stroke-width:4"
       d="m 379.88141,221.42399 c -3.21254,-2.76684 -8.19022,-0.6884 -15.50666,7.82837 l -0.69723,0.81196 -0.69723,-0.80313 c -7.51506,-8.60503 -12.63836,-10.63052 -15.96563,-7.73129 -11.02326,9.63322 -6.0853,67.76789 -1.18705,125.39509 4.99532,58.75247 9.94652,116.98863 -2.58593,124.22568 l 0,0.004 c -12.60746,7.28118 -61.02509,-26.60939 -109.59274,-60.60145 -47.17319,-33.01682 -94.49642,-66.13514 -107.8982,-61.43547 -3.99803,1.4077 -4.68643,6.75605 -0.962,17.35568 l 0.34844,1.00171 -1.04584,0.20299 c -11.2086,2.20642 -15.52435,5.63519 -14.67267,9.95977 2.82862,14.3726 55.64142,39.15948 107.99528,63.72573 53.38205,25.05607 106.30077,49.88709 106.30077,64.35236 0,14.55793 -53.55858,39.54781 -107.28483,64.61271 -52.17735,24.34119 -104.52239,48.76622 -107.14802,62.7196 -0.78549,4.17013 3.50379,7.44004 14.54029,9.51849 l 1.04584,0.1984 -0.3442,1.00171 c -3.69355,10.81144 -2.89041,16.26571 1.28413,17.69105 13.86071,4.73497 61.73113,-28.6084 109.19116,-61.66935 48.38672,-33.70081 96.34542,-67.11038 108.88228,-59.87333 l 0,0 c 12.60747,7.28559 7.46651,66.15721 2.31232,125.20975 -5.00415,57.36242 -10.02595,114.90578 0.74136,124.15949 3.21696,2.76243 8.19463,0.67958 15.51111,-7.83719 l 0.69282,-0.80755 0.69722,0.79872 c 7.52385,8.60944 12.64715,10.63934 15.97001,7.73129 11.02768,-9.62881 6.08089,-67.76348 1.18706,-125.39509 -4.99533,-58.75247 -9.94653,-116.99305 2.5815,-124.22568 l 0.004,0 c 12.60747,-7.27677 61.02067,26.60497 109.58832,60.59703 47.17319,33.01682 94.50083,66.13955 107.90261,61.43547 3.99803,-1.40328 4.68643,-6.75605 0.96641,-17.34685 l -0.35303,-1.01054 1.04585,-0.20299 c 11.20859,-2.20641 15.52435,-5.62636 14.67267,-9.95976 -2.82468,-14.36866 -55.64189,-39.15555 -107.99575,-63.72621 -53.38647,-25.05607 -106.30076,-49.88708 -106.30076,-64.35235 0,-14.55353 53.55857,-39.53899 107.28041,-64.6083 52.18176,-24.34561 104.52679,-48.76623 107.15684,-62.72402 0.77666,-4.16572 -3.5082,-7.44004 -14.5447,-9.51407 l -1.05026,-0.1984 0.34844,-1.00171 c 3.68913,-10.81586 2.89041,-16.2613 -1.28413,-17.69106 -13.8563,-4.73497 -61.73555,28.61282 -109.19116,61.66494 -48.38231,33.70964 -96.34982,67.11038 -108.88226,59.87333 -12.60747,-7.27676 -7.47093,-66.14838 -2.31674,-125.20974 5.00857,-57.35802 10.03478,-114.90578 -0.74136,-124.15067 l 0,0 z m -16.21713,5.83818 c 7.79744,-8.81684 13.42822,-10.66582 17.42183,-7.24146 11.49102,9.87151 6.4295,67.88262 1.37681,125.71722 -5.10124,58.47446 -10.18924,116.76359 1.40328,123.45344 11.51308,6.65014 58.99959,-26.42405 106.9009,-59.7939 47.83953,-33.3213 96.09387,-66.93827 110.83273,-61.89882 5.14095,1.75631 6.47804,7.65186 2.77567,19.02814 11.53074,2.34763 15.94357,6.29712 14.97716,11.46896 -2.80215,14.88449 -55.57964,39.50369 -108.18503,64.04787 -53.1923,24.81336 -106.2125,49.55171 -106.2125,62.94025 0,13.30469 52.38475,37.88418 105.22843,62.6843 52.7775,24.76924 106.02275,49.7547 109.0323,65.04076 1.04584,5.32629 -3.39347,9.43023 -15.0963,11.91465 3.73326,11.15564 2.51973,16.95852 -2.44471,18.70159 -14.28434,5.01298 -62.00032,-28.38335 -109.55743,-61.66935 -48.08665,-33.65227 -96.01885,-67.19864 -107.61577,-60.51761 l 0,0.004 c -11.51309,6.64572 -6.61484,64.31264 -1.66806,122.48261 4.93797,58.08613 9.91564,116.68856 -1.81808,126.93516 -4.0907,3.56557 -9.85827,1.77396 -17.86312,-7.1179 -7.79306,8.81685 -13.42825,10.66582 -17.41304,7.24146 -11.49543,-9.87151 -6.4295,-67.88703 -1.38563,-125.71281 5.11006,-58.48328 10.19364,-116.76799 -1.39446,-123.46226 l -0.004,0 c -11.51308,-6.64573 -58.99519,26.43287 -106.90533,59.79831 -47.8307,33.32131 -96.09387,66.93386 -110.83273,61.89441 -5.13654,-1.7519 -6.47804,-7.65186 -2.77126,-19.02814 -11.53073,-2.3388 -15.94798,-6.29711 -14.97716,-11.46454 2.80215,-14.88449 55.57523,-39.5081 108.18062,-64.04787 53.1923,-24.81337 106.21693,-49.55613 106.21693,-62.94466 0,-13.29587 -52.38035,-37.88418 -105.23287,-62.68431 -52.77749,-24.76923 -106.01833,-49.7547 -109.02347,-65.03634 -1.05025,-5.32629 3.39347,-9.43464 15.09631,-11.91024 -3.73767,-11.16006 -2.51973,-16.96293 2.44029,-18.70159 14.28876,-5.01739 61.99591,28.37452 109.55743,61.66053 48.08665,33.65668 96.02328,67.21187 107.61138,60.5176 l 0.004,0 c 11.5175,-6.64573 6.61043,-64.30823 1.66805,-122.48703 -4.93796,-58.08613 -9.92005,-116.68415 1.81809,-126.93075 4.08629,-3.56998 9.86268,-1.78279 17.85874,7.1179 l 0,0" />
    <path
       inkscape:connector-curvature="0"
       id="path154"
       style="fill:none;stroke:#ff0000;stroke-width:1.50000000000000000;stroke-linecap:butt;stroke-linejoin:miter;stroke-miterlimit:2.41420007000000010;stroke-opacity:1;stroke-dasharray:none"
       d="m 363.66869,234.08 c 55.2663,-64.34353 -8.12844,219.8209 19.73416,235.9101 27.85822,16.08477 242.68821,-180.86882 215.06387,-100.05219 83.36284,15.69204 -194.43387,102.87199 -194.43387,135.04154 0,32.17398 277.97764,119.74225 194.17792,136.23301 28.0921,80.03115 -186.30543,-116.95333 -214.16806,-100.86856 -27.8626,16.08478 35.29385,300.60666 -20.89032,236.28078 C 307.89047,840.97262 371.2808,556.79936 343.4182,540.71458 315.55557,524.62539 100.72997,721.57899 128.35431,640.76235 44.995881,625.07473 322.79261,537.89037 322.79261,505.72081 322.79261,473.54684 44.810542,385.98298 128.61467,369.49222 100.51816,289.46106 314.9157,486.44114 342.78275,470.35636 370.64093,454.27158 307.48891,169.74971 363.66869,234.08 l 0,0 z" />
    <path
       inkscape:connector-curvature="0"
       id="path156"
       style="fill:none;stroke:#ff0000;stroke-width:1.50000000000000000;stroke-linecap:butt;stroke-linejoin:miter;stroke-miterlimit:2.41420007000000010;stroke-opacity:1;stroke-dasharray:none"
       d="m 363.66428,239.50337 c 55.26629,-64.34353 -8.12403,214.39753 19.73857,230.48673 27.85822,16.08477 237.98854,-178.15934 210.3642,-97.34271 83.36284,15.68763 -189.7342,100.16251 -189.7342,132.33206 0,32.17398 273.2868,117.02394 189.48267,133.5147 28.0921,80.03557 -181.61018,-114.23502 -209.47281,-98.15025 -27.8626,16.08478 35.29826,295.17887 -20.88591,230.84858 -55.26191,64.35236 8.124,-214.39312 -19.7386,-230.4779 -27.86263,-16.08919 -237.98415,178.15493 -210.35981,97.33829 -83.362841,-15.68762 189.73422,-100.1625 189.73422,-132.33206 0,-32.17397 -273.286812,-117.01953 -189.4871,-133.51029 -28.0921,-80.03556 181.61019,114.23062 209.47724,98.14584 27.85818,-16.08478 -35.29826,-295.17887 20.88153,-230.85299 l 0,0 z" />
    <path
       inkscape:connector-curvature="0"
       id="path158"
       style="fill:none;stroke:#ff0000;stroke-width:1.50000000000000000;stroke-linecap:butt;stroke-linejoin:miter;stroke-miterlimit:2.41420007000000010;stroke-opacity:1;stroke-dasharray:none"
       d="m 363.65545,244.93116 c 55.2663,-64.34353 -8.1152,208.96974 19.7474,225.05894 27.85822,16.08477 233.28446,-175.45428 205.66012,-94.63764 83.36284,15.68763 -185.03012,97.45744 -185.03012,129.62699 0,32.17398 268.58271,114.30564 184.78741,130.7964 C 616.91236,715.807 411.90534,524.25913 384.04271,540.3439 356.18011,556.42868 419.34538,830.0994 363.16563,765.77352 307.8993,830.12146 371.2808,556.79936 343.4182,540.71458 315.55557,524.62539 110.13372,716.16003 137.75806,635.3478 54.395217,619.65577 322.79261,537.89037 322.79261,505.72081 c 0,-32.17397 -268.591557,-114.30563 -184.78743,-130.79198 -28.09651,-80.03998 176.91052,111.51231 204.77757,95.42753 27.85818,-16.08478 -35.30267,-289.75549 20.8727,-225.4252 l 0,0 z" />
    <path
       inkscape:connector-curvature="0"
       id="path160"
       style="fill:none;stroke:#ff0000;stroke-width:1.50000000000000000;stroke-linecap:butt;stroke-linejoin:miter;stroke-miterlimit:2.41420007000000010;stroke-opacity:1;stroke-dasharray:none"
       d="m 363.65104,250.35453 c 55.27071,-64.34353 -8.11079,203.54637 19.75181,219.63557 27.85822,16.08477 228.58479,-172.7448 200.96045,-91.92375 83.36284,15.68322 -180.33045,94.74355 -180.33045,126.9131 0,32.17398 263.89187,111.59175 180.08775,128.07368 28.09651,80.03557 -172.21526,-108.794 -200.07789,-92.70923 -27.8626,16.08478 35.30708,284.33213 -20.87267,219.99742 C 307.90371,824.69368 371.2808,556.79936 343.4182,540.71458 315.55557,524.62539 114.8378,713.45496 142.45332,632.64274 59.099298,616.9507 322.79261,537.89037 322.79261,505.72081 c 0,-32.17397 -263.891889,-111.59174 -180.09218,-128.07809 -28.0921,-80.03556 172.21527,108.79842 200.08232,92.71364 27.85818,-16.08478 -35.30708,-284.32771 20.86829,-220.00183 l 0,0 z" />
    <path
       inkscape:connector-curvature="0"
       id="path162"
       style="fill:none;stroke:#ff0000;stroke-width:1.50000000000000000;stroke-linecap:butt;stroke-linejoin:miter;stroke-miterlimit:2.41420007000000010;stroke-opacity:1;stroke-dasharray:none"
       d="m 363.64663,255.78232 c 55.26629,-64.34353 -8.10638,198.11858 19.75622,214.20778 27.85822,16.08477 223.88071,-170.0309 196.26078,-89.21868 83.35843,15.68763 -175.63078,92.03848 -175.63078,124.20803 0,32.17398 259.1922,108.87344 175.39249,125.35979 28.09651,80.03556 -167.52,-106.08011 -195.38263,-89.99534 -27.8626,16.08478 35.30708,278.90875 -20.86826,214.57405 C 307.91254,819.2703 371.2808,556.79936 343.4182,540.71458 315.55557,524.62539 119.53747,710.7499 147.1574,629.92884 63.798966,614.24563 322.79261,537.89037 322.79261,505.72081 c 0,-32.17397 -259.196634,-108.86902 -175.39692,-125.35978 -28.09651,-80.03116 167.52001,106.08011 195.38706,89.99533 27.85818,-16.08478 -35.3115,-278.90433 20.86388,-214.57404 l 0,0 z" />
    <path
       inkscape:connector-curvature="0"
       id="path164"
       style="fill:none;stroke:#ff0000;stroke-width:1.50000000000000000;stroke-linecap:butt;stroke-linejoin:miter;stroke-miterlimit:2.41420007000000010;stroke-opacity:1;stroke-dasharray:none"
       d="m 363.64222,261.20569 c 55.26629,-64.34794 -8.10197,192.69521 19.76063,208.78441 27.85822,16.08477 219.18104,-167.32584 191.5567,-86.5092 83.36285,15.68763 -170.9267,89.329 -170.9267,121.49855 0,32.17398 254.49695,106.15955 170.69724,122.64148 28.09651,80.03557 -162.82475,-103.3618 -190.68738,-87.27703 -27.8626,16.08478 35.31591,273.48097 -20.86384,209.14626 -55.26192,64.34795 8.10193,-192.6908 -19.76067,-208.77558 -27.86263,-16.08919 -219.17665,167.32584 -191.56114,86.50478 -83.354013,-15.68762 170.93555,-89.32899 170.93555,-121.49855 0,-32.17397 -254.501379,-106.15513 -170.70167,-122.64148 -28.0921,-80.03115 162.82476,103.36181 190.69181,87.27703 27.85818,-16.08478 -35.32032,-273.47655 20.85947,-209.15067 l 0,0 z" />
    <path
       inkscape:connector-curvature="0"
       id="path166"
       style="fill:none;stroke:#ff0000;stroke-width:1.50000000000000000;stroke-linecap:butt;stroke-linejoin:miter;stroke-miterlimit:2.41420007000000010;stroke-opacity:1;stroke-dasharray:none"
       d="m 363.6378,266.63348 c 55.2663,-64.34795 -8.09755,187.26742 19.76505,203.35662 27.85822,16.08477 214.48137,-164.61636 186.85703,-83.79972 83.35843,15.68763 -166.22703,86.61952 -166.22703,118.78907 0,32.17398 249.80169,103.43683 166.00198,119.92759 28.0921,80.03115 -158.12949,-100.64791 -185.99212,-84.56314 -27.8626,16.08478 35.32032,268.05759 -20.85943,203.7273 C 307.92136,808.41915 371.2808,556.79936 343.4182,540.71458 315.55557,524.62539 128.94122,705.32652 156.56115,624.5143 73.202715,608.82667 322.79261,537.89037 322.79261,505.72081 c 0,-32.17397 -249.806124,-103.43682 -166.00641,-119.92317 -28.0921,-80.03557 158.1295,100.6435 185.99655,84.55872 27.85818,-16.08478 -35.32473,-268.05318 20.85505,-203.72288 l 0,0 z" />
    <path
       inkscape:connector-curvature="0"
       id="path168"
       style="fill:none;stroke:#ff0000;stroke-width:1.50000000000000000;stroke-linecap:butt;stroke-linejoin:miter;stroke-miterlimit:2.41420007000000010;stroke-opacity:1;stroke-dasharray:none"
       d="m 363.63339,272.05685 c 55.26188,-64.34794 -8.09314,181.84405 19.76946,197.93325 27.85822,16.08477 209.77729,-161.91129 182.15737,-81.09465 83.35843,15.68762 -161.52737,83.91445 -161.52737,116.084 0,32.17398 245.10644,100.71852 161.30672,117.2137 28.0921,80.02674 -153.43423,-97.93402 -181.29686,-81.84925 -27.8626,16.08478 35.32474,262.62981 -20.85502,198.29952 -55.26191,64.34353 8.09311,-181.84406 -19.76949,-197.92884 -27.86263,-16.08919 -209.77731,161.90688 -182.15739,81.09024 -83.354014,-15.68763 161.5318,-83.91445 161.5318,-116.08401 0,-32.17397 -245.106456,-100.72293 -161.31115,-117.20487 -28.0921,-80.03556 153.43424,97.9252 181.30129,81.84042 27.85818,-16.08478 -35.32915,-262.62539 20.85064,-198.29951 l 0,0 z" />
    <path
       inkscape:connector-curvature="0"
       id="path170"
       style="fill:none;stroke:#ff0000;stroke-width:1.50000000000000000;stroke-linecap:butt;stroke-linejoin:miter;stroke-miterlimit:2.41420007000000010;stroke-opacity:1;stroke-dasharray:none"
       d="m 363.62898,277.48463 c 55.26188,-64.34794 -8.08873,176.41627 19.77387,192.50547 27.85822,16.08477 205.07763,-159.20181 177.4577,-78.38517 83.35843,15.68762 -156.8277,81.20497 -156.8277,113.37452 0,32.17398 240.41118,98.00022 156.60706,114.49098 28.09651,80.03556 -148.73457,-95.2113 -176.5972,-79.12653 -27.8626,16.08478 35.32915,257.20644 -20.84619,192.87614 -55.27074,64.34795 8.08428,-176.42068 -19.77832,-192.50546 -27.86263,-16.08919 -205.07323,159.1974 -177.45331,78.38076 -83.358426,-15.68763 156.82772,-81.20497 156.82772,-113.37453 0,-32.17397 -240.415613,-98.00463 -156.61149,-114.49097 -28.09651,-80.03557 148.73458,95.2113 176.60163,79.12652 27.85818,-16.08478 -35.33356,-257.1976 20.84623,-192.87173 l 0,0 z" />
    <path
       inkscape:connector-curvature="0"
       id="path172"
       style="fill:none;stroke:#ff0000;stroke-width:1.50000000000000000;stroke-linecap:butt;stroke-linejoin:miter;stroke-miterlimit:2.41420007000000010;stroke-opacity:1;stroke-dasharray:none"
       d="m 363.62456,282.90801 c 55.26189,-64.34795 -8.08431,170.99289 19.77829,187.08209 27.85822,16.08477 200.37354,-156.49233 172.75362,-75.6801 83.35843,15.69203 -152.12362,78.4999 -152.12362,110.66945 0,32.17398 235.71593,95.28633 151.91621,111.77709 28.0921,80.03556 -144.04372,-92.49741 -171.90635,-76.41264 -27.8626,16.08478 35.33356,251.77865 -20.84178,187.44836 -55.26633,64.34353 8.07987,-170.9929 -19.78273,-187.07768 -27.86263,-16.08919 -200.37798,156.49233 -172.75364,75.67569 -83.362841,-15.69204 152.12805,-78.4999 152.12805,-110.66946 0,-32.17397 -235.715945,-95.28191 -151.91623,-111.77267 -28.0921,-80.03556 144.03932,92.493 171.90637,76.40822 27.85818,-16.08478 -35.33797,-251.77423 20.84181,-187.44835 l 0,0 z" />
    <path
       inkscape:connector-curvature="0"
       id="path174"
       style="fill:none;stroke:#ff0000;stroke-width:1.50000000000000000;stroke-linecap:butt;stroke-linejoin:miter;stroke-miterlimit:2.41420007000000010;stroke-opacity:1;stroke-dasharray:none"
       d="m 363.61574,288.33579 c 55.26629,-64.34794 -8.07549,165.56511 19.78711,181.65431 27.85822,16.08477 195.67388,-153.78726 168.05395,-72.96621 83.36284,15.68321 -147.42395,75.78601 -147.42395,107.95556 0,32.17398 231.01626,92.57243 147.21655,109.05878 28.0921,80.03557 -139.34406,-89.7791 -167.20669,-73.69433 -27.8626,16.08478 35.33797,246.35528 -20.83737,182.02499 C 307.93901,786.71683 371.2808,556.79936 343.4182,540.71458 315.55557,524.62539 147.74872,694.49743 175.36423,613.68079 92.0058,597.99317 322.79261,537.89037 322.79261,505.72081 c 0,-32.17397 -231.02069,-92.56801 -147.22098,-109.05436 -28.09651,-80.03557 139.34407,89.77469 167.21112,73.68991 27.85818,-16.08478 -35.3468,-246.34645 20.83299,-182.02057 l 0,0 z" />
    <path
       inkscape:connector-curvature="0"
       id="path176"
       style="fill:none;stroke:#ff0000;stroke-width:1.50000000000000000;stroke-linecap:butt;stroke-linejoin:miter;stroke-miterlimit:2.41420007000000010;stroke-opacity:1;stroke-dasharray:none"
       d="m 363.61574,293.75916 c 55.26188,-64.34794 -8.07549,160.14174 19.78711,176.23094 27.85822,16.08477 190.9698,-151.07778 163.35428,-70.26114 83.35843,15.68762 -142.72428,73.08094 -142.72428,105.25049 0,32.17398 226.32101,89.84971 142.5257,106.34047 28.0921,80.03116 -134.65321,-87.06079 -162.51584,-70.97602 -27.8626,16.08478 35.3468,240.92749 -20.83295,176.5972 -55.26633,64.34353 8.07104,-160.14174 -19.79156,-176.22652 -27.86263,-16.08919 -190.97423,151.07337 -163.34989,70.26114 -83.36284,-15.68762 142.7243,-73.08535 142.7243,-105.25491 0,-32.17397 -226.32544,-89.84971 -142.52572,-106.34047 -28.0921,-80.03556 134.64881,87.0608 162.51586,70.97602 27.85818,-16.08478 -35.35121,-240.92307 20.83299,-176.5972 l 0,0 z" />
    <path
       inkscape:connector-curvature="0"
       id="path178"
       style="fill:none;stroke:#ff0000;stroke-width:1.50000000000000000;stroke-linecap:butt;stroke-linejoin:miter;stroke-miterlimit:2.41420007000000010;stroke-opacity:1;stroke-dasharray:none"
       d="m 363.60691,299.18695 c 55.2663,-64.34794 -8.06666,154.71395 19.79594,170.80315 27.85822,16.08477 186.27454,-148.3683 158.6502,-67.55166 83.36284,15.68762 -138.0202,70.37146 -138.0202,102.54101 0,32.17398 221.62575,87.13582 137.82604,103.62217 28.0921,80.03115 -129.95355,-84.34249 -157.81618,-68.25772 -27.8626,16.08478 35.35121,235.50412 -20.82413,171.17383 -55.27074,64.34794 8.06222,-154.71837 -19.80038,-170.80315 -27.86263,-16.08919 -186.27015,148.3683 -158.65463,67.54725 -83.35402,-15.68321 138.02904,-70.37146 138.02904,-102.54102 0,-32.17397 -221.63018,-87.13582 -137.83047,-103.62216 -28.0921,-80.03557 129.95356,84.34249 157.82061,68.25771 27.85818,-16.08478 -35.35562,-235.49529 20.82416,-171.16941 l 0,0 z" />
    <path
       inkscape:connector-curvature="0"
       id="path180"
       style="fill:none;stroke:#ff0000;stroke-width:1.50000000000000000;stroke-linecap:butt;stroke-linejoin:miter;stroke-miterlimit:2.41420007000000010;stroke-opacity:1;stroke-dasharray:none"
       d="m 363.6025,304.61032 c 55.26188,-64.34794 -8.06225,149.29058 19.80035,165.37978 27.85822,16.08477 181.57046,-145.65882 153.95053,-64.8466 83.35843,15.69204 -133.32053,67.6664 -133.32053,99.83595 0,32.17398 216.93049,84.42193 133.13078,100.90386 28.0921,80.03557 -125.25829,-81.62418 -153.12092,-65.53941 -27.8626,16.08478 35.35563,230.07633 -20.81971,165.74604 -55.26633,64.34795 8.0578,-149.29058 -19.8048,-165.37536 -27.86263,-16.08919 -181.57048,145.65441 -153.95055,64.84218 -83.35843,-15.69203 133.32496,-67.66639 133.32496,-99.83595 0,-32.17397 -216.93492,-84.41751 -133.1308,-100.90386 -28.0921,-80.03115 125.25389,81.62419 153.12094,65.53941 27.85818,-16.08478 -35.36004,-230.07192 20.81975,-165.74604 l 0,0 z" />
    <path
       inkscape:connector-curvature="0"
       id="path182"
       style="fill:none;stroke:#ff0000;stroke-width:1.50000000000000000;stroke-linecap:butt;stroke-linejoin:miter;stroke-miterlimit:2.41420007000000010;stroke-opacity:1;stroke-dasharray:none"
       d="m 363.59809,310.03811 c 55.26188,-64.34794 -8.05784,143.86279 19.80476,159.95199 27.85822,16.08477 176.87079,-142.95376 149.24645,-62.13712 83.36285,15.68763 -128.61645,64.95692 -128.61645,97.12647 0,32.17398 212.23524,81.70362 128.43111,98.18997 28.09652,80.03557 -120.55862,-78.91029 -148.42125,-62.82552 -27.8626,16.08478 35.36004,224.65296 -20.8153,160.32267 -55.26633,64.34794 8.05339,-143.86721 -19.80921,-159.95199 -27.86263,-16.08919 -176.87081,142.94934 -149.24647,62.1327 -83.35843,-15.68762 128.62088,-64.95691 128.62088,-97.12647 0,-32.17397 -212.23526,-81.6992 -128.43996,-98.18996 -28.0921,-80.03116 120.56305,78.91029 148.4301,62.82551 27.85818,-16.08478 -35.36445,-224.64413 20.81534,-160.31825 l 0,0 z" />
    <path
       inkscape:connector-curvature="0"
       id="path184"
       style="fill:none;stroke:#ff0000;stroke-width:1.50000000000000000;stroke-linecap:butt;stroke-linejoin:miter;stroke-miterlimit:2.41420007000000010;stroke-opacity:1;stroke-dasharray:none"
       d="m 363.59367,315.46148 c 55.26189,-64.34794 -8.05342,138.43942 19.80918,154.52862 27.85822,16.08477 172.17112,-140.24428 144.5512,-59.42764 83.35401,15.68763 -123.9212,62.24744 -123.9212,94.41699 0,32.17398 207.53557,78.9809 123.74027,95.47166 28.0921,80.03116 -115.86778,-76.19198 -143.73041,-60.10721 -27.8626,16.08478 35.36445,219.22518 -20.81089,154.89488 -55.26633,64.34795 8.04898,-138.43942 -19.81362,-154.5242 -27.86263,-16.08919 -172.16673,140.23986 -144.5468,59.42322 -83.35843,-15.68762 123.92121,-62.24743 123.92121,-94.41699 0,-32.17397 -207.54,-78.9809 -123.74029,-95.46725 -28.09651,-80.03556 115.86338,76.18758 143.73043,60.1028 27.85818,-16.08478 -35.37328,-219.22076 20.81092,-154.89488 l 0,0 z" />
    <path
       inkscape:connector-curvature="0"
       id="path186"
       style="fill:none;stroke:#ff0000;stroke-width:1.50000000000000000;stroke-linecap:butt;stroke-linejoin:miter;stroke-miterlimit:2.41420007000000010;stroke-opacity:1;stroke-dasharray:none"
       d="m 363.58485,320.88927 c 55.26629,-64.34795 -8.0446,133.01163 19.818,149.10083 27.85822,16.08477 167.46704,-137.5348 139.84712,-56.72257 83.35843,15.68762 -119.21712,59.54237 -119.21712,91.71192 0,32.17398 202.84473,76.2626 119.0406,92.75777 28.09652,80.03116 -111.16811,-73.47809 -139.03074,-57.39332 -27.8626,16.08478 35.36886,213.8018 -20.80648,149.47151 -55.26633,64.34794 8.04457,-133.01605 -19.81803,-149.10083 -27.86263,-16.08919 -167.46706,137.53479 -139.84714,56.71816 -83.35843,-15.69204 119.22155,-59.54237 119.22155,-91.71193 0,-32.17397 -202.84475,-76.26701 -119.04503,-92.74894 -28.0921,-80.03998 111.16812,73.46927 139.03517,57.38449 27.85818,-16.08478 -35.37769,-213.79297 20.8021,-149.46709 l 0,0 z" />
    <path
       inkscape:connector-curvature="0"
       id="path188"
       style="fill:none;stroke:#ff0000;stroke-width:1.50000000000000000;stroke-linecap:butt;stroke-linejoin:miter;stroke-miterlimit:2.41420007000000010;stroke-opacity:1;stroke-dasharray:none"
       d="m 363.58044,326.31264 c 55.26629,-64.34794 -8.04019,127.58826 19.82241,143.67746 27.85822,16.08477 162.76737,-134.82973 135.14304,-54.00868 83.36284,15.68321 -114.51304,56.82848 -114.51304,88.99803 0,32.17398 198.14506,73.54871 114.34535,90.03505 28.0921,80.03557 -106.47286,-70.75537 -134.33549,-54.6706 -27.8626,16.08478 35.37769,208.37402 -20.79765,144.04373 -55.27074,64.34794 8.03574,-127.58827 -19.82686,-143.67305 -27.86263,-16.08919 -162.76298,134.82531 -135.14747,54.00868 -83.35402,-15.68763 114.52188,-56.83289 114.52188,-89.00245 0,-32.17397 -198.14949,-73.5487 -114.34978,-90.03505 -28.09651,-80.03556 106.47287,70.75538 134.33992,54.6706 27.85818,-16.08478 -35.3821,-208.3696 20.79769,-144.04372 l 0,0 z" />
    <path
       inkscape:connector-curvature="0"
       id="path190"
       style="fill:none;stroke:#ff0000;stroke-width:1.50000000000000000;stroke-linecap:butt;stroke-linejoin:miter;stroke-miterlimit:2.41420007000000010;stroke-opacity:1;stroke-dasharray:none"
       d="m 363.57602,331.74043 c 55.26189,-64.34795 -8.03577,122.16047 19.82683,138.24967 27.85822,16.08477 158.06329,-132.12025 130.44337,-51.2992 83.35843,15.68321 -109.81337,54.119 -109.81337,86.28855 0,32.17398 193.44981,70.83481 109.64568,87.32116 28.10093,80.03557 -101.77319,-68.04148 -129.63582,-51.95671 -27.8626,16.08478 35.3821,202.95064 -20.79324,138.62035 -55.27074,64.34795 8.03133,-122.16489 -19.83127,-138.24967 -27.86263,-16.08919 -158.06331,132.11583 -130.44339,51.30361 -83.35843,-15.69204 109.8178,-54.12782 109.8178,-86.29738 0,-32.17397 -193.45424,-70.82598 -109.65452,-87.32115 -28.0921,-80.03116 101.77761,68.04148 129.64466,51.9567 27.85818,-16.08478 -35.38651,-202.94181 20.79327,-138.61593 l 0,0 z" />
    <path
       inkscape:connector-curvature="0"
       id="path192"
       style="fill:none;stroke:#ff0000;stroke-width:1.50000000000000000;stroke-linecap:butt;stroke-linejoin:miter;stroke-miterlimit:2.41420007000000010;stroke-opacity:1;stroke-dasharray:none"
       d="m 363.57161,337.1638 c 55.26188,-64.34794 -8.03136,116.7371 19.83124,132.8263 27.85822,16.08477 153.36363,-129.41077 125.7437,-48.59413 83.35843,15.68762 -105.1137,51.41393 -105.1137,83.58348 0,32.17398 188.75455,68.11651 104.95484,84.60285 28.0921,80.03557 -97.08235,-65.32317 -124.94498,-49.2384 -27.8626,16.08478 35.38651,197.52286 -20.78882,133.19257 -55.26633,64.34794 8.02691,-116.73711 -19.83569,-132.82189 -27.86263,-16.08919 -153.35923,129.41077 -125.74372,48.58972 -83.35843,-15.68322 105.11813,-51.41393 105.11813,-83.58349 0,-32.17397 -188.75898,-68.11209 -104.95927,-84.59844 -28.0921,-80.03556 97.08236,65.31877 124.94941,49.23399 27.85818,-16.08478 -35.39534,-197.52285 20.78886,-133.19256 l 0,0 z" />
    <path
       inkscape:connector-curvature="0"
       id="path194"
       style="fill:none;stroke:#ff0000;stroke-width:1.50000000000000000;stroke-linecap:butt;stroke-linejoin:miter;stroke-miterlimit:2.41420007000000010;stroke-opacity:1;stroke-dasharray:none"
       d="m 363.5672,342.59158 c 55.26188,-64.34794 -8.02695,111.30932 19.83565,127.39852 27.85822,16.08477 148.65954,-126.70129 121.04403,-45.88906 83.35402,15.69203 -100.41403,48.70886 -100.41403,80.87841 0,32.17398 184.0593,65.3982 100.25958,81.88455 28.0921,80.03115 -92.38709,-62.60487 -120.24972,-46.5201 -27.8626,16.08478 35.39534,192.09949 -20.78441,127.76919 -55.26633,64.34795 8.0225,-111.31373 -19.8401,-127.39851 -27.86263,-16.08919 -148.65956,126.70129 -121.03964,45.88024 -83.35843,-15.68763 100.41405,-48.70445 100.41405,-80.87401 0,-32.17397 -184.05931,-65.3982 -100.2596,-81.88454 C 194.4365,343.8007 314.9157,486.44114 342.78275,470.35636 370.64093,454.27158 307.383,278.26129 363.5672,342.59158 l 0,0 z" />
    <path
       inkscape:connector-curvature="0"
       id="path196"
       style="fill:none;stroke:#ff0000;stroke-width:1.50000000000000000;stroke-linecap:butt;stroke-linejoin:miter;stroke-miterlimit:2.41420007000000010;stroke-opacity:1;stroke-dasharray:none"
       d="m 363.56278,348.01496 c 55.26189,-64.34795 -8.02253,105.88594 19.84007,121.97514 27.85822,16.08477 143.96429,-123.99622 116.33995,-43.17958 83.36284,15.68762 -95.70995,45.99938 -95.70995,78.16893 0,32.17398 179.35963,62.6799 95.55991,79.16624 28.09652,80.03557 -87.68742,-59.88656 -115.55005,-43.80179 -27.8626,16.08478 35.39975,186.6717 -20.78,122.34141 -55.26633,64.34794 8.01809,-105.88595 -19.84451,-121.97073 -27.86263,-16.08919 -143.96431,123.98739 -116.33997,43.17517 -83.35843,-15.68763 95.71438,-45.99938 95.71438,-78.16894 0,-32.17397 -179.36847,-62.67989 -95.56434,-79.16624 -28.09652,-80.03556 87.68743,59.88657 115.55448,43.80179 27.85818,-16.08478 -35.40417,-186.67169 20.78003,-122.3414 l 0,0 z" />
    <path
       inkscape:connector-curvature="0"
       id="path198"
       style="fill:none;stroke:#ff0000;stroke-width:1.50000000000000000;stroke-linecap:butt;stroke-linejoin:miter;stroke-miterlimit:2.41420007000000010;stroke-opacity:1;stroke-dasharray:none"
       d="m 363.55396,353.44274 c 55.26188,-64.34794 -8.01371,100.45816 19.84889,116.54736 27.85822,16.08477 139.26462,-121.29115 111.64028,-40.4701 83.35843,15.68762 -91.01028,43.2899 -91.01028,75.45945 0,32.17398 174.66879,59.966 90.86907,76.44794 28.0921,80.03556 -82.99658,-57.16826 -110.85921,-41.08349 -27.8626,16.08478 35.40417,181.24833 -20.77117,116.91804 -55.27075,64.34794 8.00926,-100.46258 -19.85334,-116.54736 -27.86263,-16.08919 -139.26023,121.28233 -111.63589,40.4701 -83.36284,-15.69204 91.0103,-43.29431 91.0103,-75.46387 0,-32.17397 -174.6688,-59.96158 -90.86909,-76.45234 -28.0921,-80.03116 82.99218,57.17267 110.85923,41.08789 27.85818,-16.08478 -35.40858,-181.24391 20.77121,-116.91362 l 0,0 z" />
    <path
       inkscape:connector-curvature="0"
       id="path200"
       style="fill:none;stroke:#ff0000;stroke-width:1.50000000000000000;stroke-linecap:butt;stroke-linejoin:miter;stroke-miterlimit:2.41420007000000010;stroke-opacity:1;stroke-dasharray:none"
       d="m 363.54955,358.86611 c 55.26188,-64.34794 -8.0093,95.03479 19.8533,111.12399 27.85822,16.08477 134.55613,-118.57726 106.9362,-37.76062 83.36284,15.68762 -86.3062,40.58042 -86.3062,72.74997 0,32.17398 169.96912,57.2477 86.1694,73.73404 28.0921,80.03557 -78.29691,-54.45436 -106.15954,-38.36959 -27.8626,16.08478 35.40858,175.82054 -20.77117,111.49025 -55.26192,64.34794 8.00926,-95.03479 -19.85334,-111.11957 -27.86263,-16.08919 -134.56056,118.57726 -106.93622,37.76062 -83.36284,-15.68762 86.31063,-40.58483 86.31063,-72.75439 0,-32.17397 -169.97355,-57.24328 -86.17383,-73.73404 -28.0921,-80.03115 78.29692,54.45437 106.16397,38.36959 27.85818,-16.08478 -35.40858,-175.82054 20.7668,-111.49025 l 0,0 z" />
    <path
       inkscape:connector-curvature="0"
       id="path202"
       style="fill:none;stroke:#ff0000;stroke-width:1.50000000000000000;stroke-linecap:butt;stroke-linejoin:miter;stroke-miterlimit:2.41420007000000010;stroke-opacity:1;stroke-dasharray:none"
       d="m 363.54513,364.2939 c 55.26189,-64.34794 -8.00488,89.607 19.85772,105.6962 27.85822,16.08477 129.86087,-115.87219 102.23653,-35.05556 83.36285,15.68763 -81.60653,37.87536 -81.60653,70.04491 0,32.17398 165.27386,54.52498 81.47856,71.02015 28.0921,80.03116 -73.60607,-51.74047 -101.4687,-35.6557 -27.8626,16.08478 35.41299,170.39717 -20.76676,106.06688 -55.26192,64.34794 8.00485,-89.61142 -19.85775,-105.6962 -27.86263,-16.08919 -129.85648,115.86778 -102.23655,35.05114 -83.35843,-15.68762 81.61096,-37.87535 81.61096,-70.04491 0,-32.17397 -165.27829,-54.52939 -81.47858,-71.01132 -28.0921,-80.03998 73.60167,51.73165 101.46872,35.64687 27.85818,-16.08478 -35.41299,-170.39275 20.76238,-106.06246 l 0,0 z" />
    <path
       inkscape:connector-curvature="0"
       id="path204"
       style="fill:none;stroke:#ff0000;stroke-width:1.50000000000000000;stroke-linecap:butt;stroke-linejoin:miter;stroke-miterlimit:2.41420007000000010;stroke-opacity:1;stroke-dasharray:none"
       d="m 363.54072,369.71727 c 55.26188,-64.34794 -8.00047,84.18363 19.86213,100.27283 27.85822,16.08477 125.15679,-113.16271 97.53687,-32.34166 83.35843,15.68321 -76.90687,35.16146 -76.90687,67.33101 0,32.17398 160.57419,51.81109 76.77448,68.30185 28.09651,80.03115 -68.90199,-49.02217 -96.76462,-32.9374 -27.8626,16.08478 35.42182,164.96938 -20.76235,100.63909 -55.26191,64.34795 8.00044,-84.18363 -19.86216,-100.26841 -27.86263,-16.08919 -125.15681,113.1583 -97.53689,32.34166 -83.35843,-15.68762 76.9113,-35.16587 76.9113,-67.33543 0,-32.17397 -160.57862,-51.81108 -76.78332,-68.29743 -28.0921,-80.03556 68.90641,49.01776 96.77346,32.93298 27.85818,-16.08478 -35.42182,-164.96938 20.75797,-100.63909 l 0,0 z" />
    <path
       inkscape:connector-curvature="0"
       id="path206"
       style="fill:none;stroke:#ff0000;stroke-width:1.50000000000000000;stroke-linecap:butt;stroke-linejoin:miter;stroke-miterlimit:2.41420007000000010;stroke-opacity:1;stroke-dasharray:none"
       d="m 363.53631,375.14506 c 55.26188,-64.34794 -7.99606,78.75584 19.86654,94.84504 27.85822,16.08477 120.45712,-110.45323 92.83278,-29.6366 83.36285,15.68763 -72.20278,32.4564 -72.20278,64.62595 0,32.17398 155.88335,49.09278 72.08364,65.58354 28.0921,80.03115 -64.21115,-46.30386 -92.07378,-30.21909 -27.8626,16.08478 35.42623,159.5416 -20.75793,95.21572 -55.26192,64.34794 7.99602,-78.76026 -19.86658,-94.84504 -27.86263,-16.08919 -120.45273,110.44882 -92.83722,29.63218 -83.35402,-15.68321 72.21163,-32.45639 72.21163,-64.62595 0,-32.17397 -155.88778,-49.09278 -72.08366,-65.57912 -28.09651,-80.03557 64.20675,46.29945 92.0738,30.21467 27.85818,-16.08478 -35.42623,-159.54601 20.75356,-95.2113 l 0,0 z" />
    <path
       inkscape:connector-curvature="0"
       id="path208"
       style="fill:none;stroke:#ff0000;stroke-width:1.50000000000000000;stroke-linecap:butt;stroke-linejoin:miter;stroke-miterlimit:2.41420007000000010;stroke-opacity:1;stroke-dasharray:none"
       d="m 363.52748,380.56843 c 55.2663,-64.34794 -7.98723,73.33247 19.87537,89.42167 27.85822,16.08477 115.75304,-107.74375 88.13753,-26.93153 83.35402,15.69204 -67.50753,29.75133 -67.50753,61.92088 0,32.17398 151.1881,46.37889 67.38397,62.86524 28.09651,80.03556 -59.51148,-43.58556 -87.37411,-27.50079 -27.8626,16.08478 35.43064,154.11823 -20.75352,89.78793 -55.26192,64.34795 7.99161,-73.33247 -19.87099,-89.41725 -27.86263,-16.08919 -115.75306,107.74375 -88.13314,26.9227 -83.35843,-15.68321 67.50755,-29.74691 67.50755,-61.91647 0,-32.17397 -151.18811,-46.37447 -67.3884,-62.86523 -28.09651,-80.03115 59.51149,43.58556 87.37854,27.50078 27.85818,-16.08478 -35.43064,-154.11822 20.74473,-89.78793 l 0,0 z" />
    <path
       inkscape:connector-curvature="0"
       id="path210"
       style="fill:none;stroke:#ff0000;stroke-width:1.50000000000000000;stroke-linecap:butt;stroke-linejoin:miter;stroke-miterlimit:2.41420007000000010;stroke-opacity:1;stroke-dasharray:none"
       d="m 363.52307,385.99622 c 55.26629,-64.34795 -7.98282,67.90468 19.87978,83.99388 27.85822,16.08477 111.05338,-105.03869 83.43345,-24.22205 83.35843,15.68762 -62.80345,27.04185 -62.80345,59.2114 0,32.17398 146.48843,43.66058 62.68871,60.14693 28.0921,80.03557 -54.81622,-40.86725 -82.67885,-24.78248 -27.8626,16.08478 35.43506,148.69485 -20.7447,84.36456 -55.26191,64.34794 7.98279,-67.9091 -19.87981,-83.99388 -27.86263,-16.08919 -111.0534,105.02986 -83.43347,24.21763 -83.35402,-15.68762 62.80788,-27.04184 62.80788,-59.2114 0,-32.17397 -146.49286,-43.65616 -62.69314,-60.14692 -28.09652,-80.03557 54.81623,40.86725 82.68328,24.78247 27.85818,-16.08478 -35.43506,-148.69485 20.74032,-84.36014 l 0,0 z" />
    <path
       inkscape:connector-curvature="0"
       id="path212"
       style="fill:none;stroke:#ff0000;stroke-width:1.50000000000000000;stroke-linecap:butt;stroke-linejoin:miter;stroke-miterlimit:2.41420007000000010;stroke-opacity:1;stroke-dasharray:none"
       d="m 363.51866,391.41959 c 55.26629,-64.34794 -7.97841,62.48131 19.88419,78.57051 27.85822,16.08477 106.35371,-102.33362 78.73378,-21.51257 83.35402,15.68321 -58.10378,24.33237 -58.10378,56.50192 0,32.17398 141.79759,40.94228 57.99346,57.42862 28.09651,80.03116 -50.12097,-38.14894 -77.9836,-22.06417 -27.8626,16.08478 35.43947,143.26707 -20.74028,78.93678 -55.26192,64.34794 7.97837,-62.48132 -19.88423,-78.5661 -27.86263,-16.08919 -106.34931,102.32479 -78.72939,21.51257 -83.35843,-15.69204 58.1038,-24.33678 58.1038,-56.50634 0,-32.17397 -141.7976,-40.94227 -57.99789,-57.42862 -28.0921,-80.03557 50.12098,38.14895 77.98803,22.06417 27.85818,-16.08478 -35.43947,-143.26706 20.73591,-78.93677 l 0,0 z" />
    <path
       inkscape:connector-curvature="0"
       id="path214"
       style="fill:none;stroke:#ff0000;stroke-width:1.50000000000000000;stroke-linecap:butt;stroke-linejoin:miter;stroke-miterlimit:2.41420007000000010;stroke-opacity:1;stroke-dasharray:none"
       d="m 363.50983,396.84296 c 55.27071,-64.34353 -7.96958,57.05794 19.89302,73.14714 27.85822,16.08477 101.64963,-99.61973 74.0297,-18.80309 83.35843,15.68762 -53.3997,21.62289 -53.3997,53.79244 0,32.17398 137.09792,38.22838 53.2982,54.71032 28.0921,80.03557 -45.42571,-35.43064 -73.28834,-19.34587 -27.8626,16.08478 35.44388,137.84369 -20.73587,73.5134 -55.26192,64.34795 7.97396,-57.05794 -19.88864,-73.14272 -27.86263,-16.08919 -101.65406,99.61973 -74.02972,18.79867 -83.36284,-15.68321 53.40413,-21.62288 53.40413,-53.79244 0,-32.17397 -137.10235,-38.22397 -53.29822,-54.71473 -28.09651,-80.03556 45.42131,35.43506 73.28836,19.35028 27.85818,-16.08478 -35.44829,-137.84369 20.72708,-73.5134 l 0,0 z" />
    <path
       inkscape:connector-curvature="0"
       id="path216"
       style="fill:none;stroke:#ff0000;stroke-width:1.50000000000000000;stroke-linecap:butt;stroke-linejoin:miter;stroke-miterlimit:2.41420007000000010;stroke-opacity:1;stroke-dasharray:none"
       d="m 363.50983,402.26634 c 55.2663,-64.34353 -7.96958,51.63456 19.89302,67.72376 27.85822,16.08477 96.94996,-96.91025 69.33003,-16.09802 83.36285,15.68762 -48.70003,18.91782 -48.70003,51.08737 0,32.17398 132.40266,35.51008 48.59854,51.99643 28.10092,80.03556 -40.72605,-32.71675 -68.58868,-16.63198 -27.8626,16.08478 35.45271,132.41591 -20.73146,68.08562 -55.26192,64.34794 7.96955,-51.63016 -19.89305,-67.71494 -27.86263,-16.08919 -96.94557,96.91025 -69.32564,16.09361 -83.36284,-15.68763 48.70005,-18.91782 48.70005,-51.08738 0,-32.17397 -132.40709,-35.50566 -48.60297,-51.99642 -28.09651,-80.03115 40.72606,32.71675 68.59311,16.63197 27.85818,-16.08478 -35.45271,-132.4159 20.72708,-68.09002 l 0,0 z" />
    <path
       inkscape:connector-curvature="0"
       id="path218"
       style="fill:none;stroke:#ff0000;stroke-width:1.50000000000000000;stroke-linecap:butt;stroke-linejoin:miter;stroke-miterlimit:2.41420007000000010;stroke-opacity:1;stroke-dasharray:none"
       d="m 363.501,407.69412 c 55.2663,-64.34353 -7.96075,46.20678 19.90185,62.29598 27.85822,16.08477 92.24588,-94.20518 64.63036,-13.38413 83.35843,15.68321 -44.00036,16.20393 -44.00036,48.37348 0,32.17398 127.703,32.79177 43.90769,49.27812 28.0921,80.03557 -36.0352,-29.99844 -63.89783,-13.91367 -27.8626,16.08478 35.45712,126.99254 -20.72263,62.66224 -55.26633,64.34795 7.96072,-46.20678 -19.90188,-62.29156 -27.86263,-16.08919 -92.2459,94.20077 -64.62597,13.38413 -83.36284,-15.68763 44.00038,-16.20834 44.00038,-48.3779 0,-32.17397 -127.71184,-32.79177 -43.91212,-49.27811 -28.0921,-80.03116 36.03521,29.99844 63.90226,13.91366 27.85818,-16.08478 -35.45712,-126.99253 20.71825,-62.66224 l 0,0 z" />
    <path
       inkscape:connector-curvature="0"
       id="path220"
       style="fill:none;stroke:#ff0000;stroke-width:1.50000000000000000;stroke-linecap:butt;stroke-linejoin:miter;stroke-miterlimit:2.41420007000000010;stroke-opacity:1;stroke-dasharray:none"
       d="m 363.49659,413.11749 c 55.2663,-64.34353 -7.95634,40.78341 19.90626,56.87261 27.85822,16.08477 87.55062,-91.4957 59.92628,-10.67906 83.36285,15.69203 -39.29628,13.49886 -39.29628,45.66841 0,32.17398 123.01215,30.06905 39.21244,46.56423 28.0921,80.03115 -31.33995,-27.28455 -59.20258,-11.19978 -27.8626,16.08478 35.46153,121.56475 -20.71822,57.23446 -55.26192,64.34794 7.95631,-40.779 -19.90629,-56.86378 -27.86263,-16.08919 -87.54623,91.49129 -59.9263,10.67906 -83.35843,-15.68762 39.30071,-13.50327 39.30071,-45.67283 0,-32.17397 -123.01217,-30.07346 -39.21246,-46.55981 -28.0921,-80.03557 31.33555,27.28014 59.2026,11.19536 27.85818,-16.08478 -35.46153,-121.56474 20.71384,-57.23887 l 0,0 z" />
    <path
       inkscape:connector-curvature="0"
       id="path222"
       style="fill:none;stroke:#ff0000;stroke-width:1.50000000000000000;stroke-linecap:butt;stroke-linejoin:miter;stroke-miterlimit:2.41420007000000010;stroke-opacity:1;stroke-dasharray:none"
       d="m 363.49218,418.54528 c 55.26629,-64.34353 -7.95193,35.35562 19.91067,51.44482 27.85822,16.08477 82.84654,-88.78622 55.22661,-7.974 83.35844,15.69204 -34.59661,10.7938 -34.59661,42.96335 0,32.17398 118.31248,27.35516 34.51277,43.84592 28.09651,80.03116 -26.64028,-24.56624 -54.50291,-8.48147 -27.8626,16.08478 35.46595,116.14138 -20.71381,51.81109 -55.26191,64.34794 7.9519,-35.35563 -19.9107,-51.44041 -27.86263,-16.08919 -82.84656,88.78622 -55.22663,7.96517 -83.35844,-15.68321 34.60104,-10.78938 34.60104,-42.95894 0,-32.17397 -118.31691,-27.35516 -34.52161,-43.8415 -28.0921,-80.03557 26.6447,24.56183 54.51175,8.47705 27.85818,-16.08478 -35.46595,-116.14137 20.70943,-51.81108 l 0,0 z" />
    <path
       inkscape:connector-curvature="0"
       id="path224"
       style="fill:none;stroke:#ff0000;stroke-width:1.50000000000000000;stroke-linecap:butt;stroke-linejoin:miter;stroke-miterlimit:2.41420007000000010;stroke-opacity:1;stroke-dasharray:none"
       d="m 363.48777,423.96865 c 55.26629,-64.34353 -7.94752,29.93225 19.91508,46.02145 27.85822,16.08477 78.14687,-86.08115 50.52253,-5.26452 83.36285,15.68763 -29.89253,8.08432 -29.89253,40.25387 0,32.17398 113.61723,24.63686 29.82193,41.12762 28.0921,80.03556 -21.94944,-21.84794 -49.81207,-5.76317 -27.8626,16.08478 35.47036,110.71359 -20.70939,46.3833 -55.26192,64.34794 7.94748,-29.92784 -19.91512,-46.01262 -27.86263,-16.08919 -78.14689,86.07233 -50.52255,5.2601 -83.35843,-15.69204 29.89696,-8.08431 29.89696,-40.25387 0,-32.17397 -113.62166,-24.64126 -29.82195,-41.12761 -28.0921,-80.03557 21.94504,21.84794 49.81209,5.76316 27.85818,-16.08478 -35.47477,-110.71359 20.70502,-46.38771 l 0,0 z" />
    <path
       inkscape:connector-curvature="0"
       id="path226"
       style="fill:none;stroke:#ff0000;stroke-width:1.50000000000000000;stroke-linecap:butt;stroke-linejoin:miter;stroke-miterlimit:2.41420007000000010;stroke-opacity:1;stroke-dasharray:none"
       d="m 363.47894,429.39644 c 55.27071,-64.34353 -7.93869,24.50446 19.92391,40.59366 27.85822,16.08477 73.44721,-83.37167 45.82728,-2.55504 83.35402,15.68322 -25.19728,5.37484 -25.19728,37.54439 0,32.17398 108.92197,21.92296 25.12226,38.40931 28.0921,80.03557 -17.24977,-19.12963 -45.1124,-3.04486 -27.8626,16.08478 35.47477,105.29463 -20.70498,40.95993 -55.26192,64.34794 7.94307,-24.50447 -19.91953,-40.58925 -27.86263,-16.08919 -73.44281,83.36726 -45.82289,2.55503 -83.35843,-15.69203 25.1973,-5.37924 25.1973,-37.5488 0,-32.17397 -108.9264,-21.91854 -25.12669,-38.4093 -28.0921,-80.03116 17.24978,19.12963 45.11683,3.04485 27.85818,-16.08478 -35.47918,-105.29021 20.69619,-40.95992 l 0,0 z" />
    <path
       inkscape:connector-curvature="0"
       id="path228"
       style="fill:none;stroke:#ff0000;stroke-width:1.50000000000000000;stroke-linecap:butt;stroke-linejoin:miter;stroke-miterlimit:2.41420007000000010;stroke-opacity:1;stroke-dasharray:none"
       d="m 363.47453,434.81981 c 55.27071,-64.34794 -7.93428,19.08109 19.92832,35.17029 27.85822,16.08477 68.74312,-80.66661 41.1232,0.15462 83.35843,15.68763 -20.4932,2.66535 -20.4932,34.83491 0,32.17397 104.22672,19.20907 20.42701,35.691 28.0921,80.03557 -12.55452,-16.41133 -40.41715,-0.32655 -27.8626,16.08478 35.4836,99.86684 -20.69615,35.53214 -55.26634,64.34794 7.93424,-19.07668 -19.92836,-35.16146 -27.86263,-16.08919 -68.74314,80.66219 -41.12322,-0.15886 -83.35843,-15.68321 20.49763,-2.66535 20.49763,-34.83491 0,-32.17397 -104.22674,-19.20024 -20.42702,-35.691 -28.09652,-80.03557 12.55011,16.41133 40.41716,0.32655 27.85818,-16.08478 -35.4836,-99.86243 20.69178,-35.53655 l 0,0 z" />
    <path
       inkscape:connector-curvature="0"
       id="path230"
       style="fill:none;stroke:#ff0000;stroke-width:1.50000000000000000;stroke-linecap:butt;stroke-linejoin:miter;stroke-miterlimit:2.41420007000000010;stroke-opacity:1;stroke-dasharray:none"
       d="m 363.47011,440.2476 c 55.2663,-64.34795 -7.92986,13.6533 19.93274,29.7425 27.85822,16.08477 64.04346,-77.95271 36.41912,2.86392 83.36284,15.68763 -15.78912,-0.0441 -15.78912,32.12543 0,32.17398 99.53146,16.48635 15.72734,32.97711 28.0921,80.03116 -7.85485,-13.69743 -35.71748,2.38734 -27.8626,16.08478 35.48801,94.44347 -20.69174,30.11318 -55.26633,64.34353 7.92983,-13.65772 -19.93277,-29.7425 -27.86263,-16.08919 -64.03906,77.95271 -36.41912,-2.86393 -83.35845,-15.68321 15.79353,0.0399 15.79353,-32.12984 0,-32.17397 -99.53148,-16.48635 -15.73616,-32.97269 -28.09212,-80.03998 7.85925,13.69302 35.7263,-2.39176 27.85818,-16.08478 -35.48801,-94.43906 20.68736,-30.10876 l 0,0 z" />
    <path
       inkscape:connector-curvature="0"
       id="path232"
       style="fill:none;stroke:#ff0000;stroke-width:1.50000000000000000;stroke-linecap:butt;stroke-linejoin:miter;stroke-miterlimit:2.41420007000000010;stroke-opacity:1;stroke-dasharray:none"
       d="m 363.4657,445.67097 c 55.2663,-64.34794 -7.92545,8.22993 19.93715,24.31913 27.85822,16.08477 59.33938,-75.24765 31.71945,5.56899 83.35843,15.68763 -11.08945,-2.74919 -11.08945,29.42036 0,32.17398 94.83621,13.77246 11.0365,30.25439 28.0921,80.03557 -3.16401,-10.97471 -31.02664,5.11006 -27.8626,16.08478 35.49242,89.01569 -20.68733,24.6854 -55.26192,64.34353 7.92542,-8.22994 -19.93718,-24.31472 -27.86263,-16.08919 -59.3394,75.24323 -31.71945,-5.57341 -83.35845,-15.68762 11.09386,2.7492 11.09386,-29.42036 0,-32.17397 -94.84064,-13.77245 -11.03649,-30.2588 -28.09654,-80.03557 3.15958,10.97913 31.02663,-5.10565 27.85818,-16.08478 -35.49684,-89.01127 20.68295,-24.68539 l 0,0 z" />
    <path
       inkscape:connector-curvature="0"
       id="path234"
       style="fill:none;stroke:#ff0000;stroke-width:1.50000000000000000;stroke-linecap:butt;stroke-linejoin:miter;stroke-miterlimit:2.41420007000000010;stroke-opacity:1;stroke-dasharray:none"
       d="m 363.46129,451.09875 c 55.26629,-64.35235 -7.92104,2.80215 19.94156,18.89135 27.85822,16.08477 54.63971,-72.53817 27.01978,8.27847 83.35843,15.68763 -6.38978,-5.45867 -6.38978,26.71088 0,32.17398 90.14095,11.05415 6.33683,27.5405 28.09651,80.03557 1.53566,-8.26082 -26.32697,7.82395 -27.8626,16.08478 35.49684,83.59232 -20.68292,19.26202 -55.26191,64.34353 7.92101,-2.80656 -19.94159,-18.89134 -27.86263,-16.08919 -54.63532,72.53375 -27.01978,-8.27847 -83.35845,-15.68763 6.39419,5.45426 6.39419,-26.7153 0,-32.17397 -90.14097,-11.04973 -6.34124,-27.54049 -28.09212,-80.03116 -1.53567,8.26082 26.33138,-7.82396 27.85818,-16.08478 -35.50125,-83.5879 20.67854,-19.25761 l 0,0 z" />
    <path
       inkscape:connector-curvature="0"
       id="path236"
       style="fill:none;stroke:#ff0000;stroke-width:1.50000000000000000;stroke-linecap:butt;stroke-linejoin:miter;stroke-miterlimit:2.41420007000000010;stroke-opacity:1;stroke-dasharray:none"
       d="m 363.45688,456.52213 c 55.26188,-64.34795 -7.91663,-2.62123 19.94597,13.46797 27.85822,16.08477 49.93563,-69.82869 22.32011,10.98354 83.35402,15.69204 -1.69011,-8.16374 -1.69011,24.00581 0,32.17398 85.44129,8.33585 1.64157,24.82219 28.09651,80.03557 6.23092,-5.54251 -21.63171,10.54226 -27.8626,16.08478 35.50125,78.16453 -20.6785,13.83424 -55.26192,64.34353 7.91659,2.62122 -19.94601,-13.46356 -27.86263,-16.08919 -49.94006,69.82869 -22.3157,-10.99237 -83.36286,-15.68321 1.69011,8.16816 1.69011,-24.0014 0,-32.17397 -85.44572,-8.33584 -1.64157,-24.82219 -28.10094,-80.03115 -6.23534,5.54252 21.63171,-10.54226 27.85818,-16.08478 -35.50566,-78.16011 20.67413,-13.83423 l 0,0 z" />
    <path
       inkscape:connector-curvature="0"
       id="path238"
       style="fill:none;stroke:#ff0000;stroke-width:1.50000000000000000;stroke-linecap:butt;stroke-linejoin:miter;stroke-miterlimit:2.41420007000000010;stroke-opacity:1;stroke-dasharray:none"
       d="m 363.45246,461.94991 c 55.26189,-64.35235 -7.91221,-8.04901 19.95039,8.04019 27.85822,16.08477 45.23596,-67.12362 17.61603,13.69302 83.36285,15.68762 3.01397,-10.87322 3.01397,21.29633 0,32.17398 80.74603,5.61754 -3.05368,22.1083 28.09651,80.03116 10.92617,-2.82862 -16.93646,13.25615 -27.8626,16.08478 35.50566,72.74116 -20.66968,8.41087 -55.26633,64.34353 7.90777,8.04459 -19.95483,-8.04019 -27.86263,-16.08919 -45.23598,67.11921 -17.61603,-13.69743 -83.35845,-15.69204 -3.00956,10.87322 -3.00956,-21.29634 0,-32.17397 -80.75046,-5.61754 3.04927,-22.10388 -28.09212,-80.03557 -10.92618,2.82421 16.94087,-13.26057 27.85818,-16.08478 -35.51007,-72.73674 20.66971,-8.40645 l 0,0 z" />
    <path
       inkscape:connector-curvature="0"
       id="path240"
       style="fill:none;stroke:#ff0000;stroke-width:1.50000000000000000;stroke-linecap:butt;stroke-linejoin:miter;stroke-miterlimit:2.41420007000000010;stroke-opacity:1;stroke-dasharray:none"
       d="m 363.44805,467.37329 c 55.26188,-64.34795 -7.9078,-13.47239 19.9548,2.61681 27.85822,16.08477 40.53629,-64.41414 12.91636,16.4025 83.35843,15.68321 7.71364,-13.5827 7.71364,18.58685 0,32.17398 76.05078,2.90365 -7.74894,19.39441 28.0921,80.03115 15.62143,-0.11473 -12.2412,15.97004 -27.8626,16.08478 35.51007,67.31337 -20.66526,2.98308 -55.26634,64.34353 7.90335,13.47238 -19.95925,-2.6124 -27.86263,-16.08919 -40.5319,64.40973 -12.91195,-16.4025 -83.36286,-15.68762 -7.71364,13.57829 -7.71364,-18.59127 0,-32.17397 -76.05521,-2.89923 7.74894,-19.38558 -28.09653,-80.03998 -15.62585,0.10591 12.2412,-15.97887 27.85818,-16.08478 -35.51449,-67.30895 20.6653,-2.98307 l 0,0 z" />
    <path
       inkscape:connector-curvature="0"
       id="path242"
       style="fill:none;stroke:#ff0000;stroke-width:1.50000000000000000;stroke-linecap:butt;stroke-linejoin:miter;stroke-miterlimit:2.41420007000000010;stroke-opacity:1;stroke-dasharray:none"
       d="m 363.44364,472.79666 c 55.26188,-64.34794 -7.90339,-18.89576 19.95921,-2.80656 27.85822,16.08477 35.83221,-61.70907 8.21228,19.11198 83.36285,15.68762 12.41772,-16.29218 12.41772,15.87737 0,32.17398 71.35552,0.18534 -12.44419,16.67169 28.0921,80.03557 20.31668,2.60799 -7.54595,18.69276 -27.8626,16.08478 35.51449,61.88559 -20.66085,-2.44029 -55.26633,64.34353 7.89894,18.89575 -19.96366,2.81097 -27.86263,-16.08919 -35.83663,61.70466 -8.2167,-19.11198 -83.35403,-15.68762 -12.40889,16.28777 -12.40889,-15.88179 0,-32.17397 -71.35554,-0.18534 12.44419,-16.67169 -28.09651,-80.03556 -20.3211,-2.60798 7.54595,-18.69276 27.85818,-16.08478 -35.5189,-61.88558 20.66089,2.4403 l 0,0 z" />
    <path
       inkscape:connector-curvature="0"
       id="path244"
       style="fill:none;stroke:#ff0000;stroke-width:1.50000000000000000;stroke-linecap:butt;stroke-linejoin:miter;stroke-miterlimit:2.41420007000000010;stroke-opacity:1;stroke-dasharray:none"
       d="m 363.43922,478.22444 c 55.26189,-64.34794 -7.89897,-24.32354 19.96363,-8.23434 27.85822,16.08477 31.13696,-58.99518 3.51262,21.82146 83.36284,15.68762 17.11738,-19.00166 17.11738,13.16789 0,32.17398 66.65585,-2.53296 -17.13945,13.95339 28.0921,80.03556 25.01194,5.32629 -2.85069,21.41106 -27.8626,16.08478 35.52331,56.46221 -20.65644,-7.86808 -55.26633,64.34794 7.89453,24.32354 -19.96807,8.23876 -27.86263,-16.08919 -31.13254,58.99518 -3.51262,-21.82146 -83.35845,-15.68321 -17.11297,18.99725 -17.11297,-13.17231 0,-32.17397 -66.6647,2.53738 17.13504,-13.95338 -28.0921,-80.03557 -25.01195,-5.32629 2.8551,-21.41107 27.85818,-16.08478 -35.52773,-56.45779 20.65647,7.86808 l 0,0 z" />
    <path
       inkscape:connector-curvature="0"
       id="path246"
       style="fill:none;stroke:#ff0000;stroke-width:1.50000000000000000;stroke-linecap:butt;stroke-linejoin:miter;stroke-miterlimit:2.41420007000000010;stroke-opacity:1;stroke-dasharray:none"
       d="m 363.4304,483.64782 c 55.26629,-64.34795 -7.89015,-29.74692 19.97245,-13.65772 27.85822,16.08477 26.43287,-56.2857 -1.19147,24.52653 83.36285,15.68762 21.82147,-21.70673 21.82147,10.46282 0,32.17398 61.96501,-5.24685 -21.8347,11.23949 28.0921,80.03557 29.70719,8.04019 1.84456,24.12496 -27.8626,16.08478 35.52773,51.03443 -20.65203,-13.29145 -55.26633,64.34794 7.89012,29.74691 -19.97248,13.66213 -27.86263,-16.08919 -26.43288,56.2857 1.18705,-24.53094 -83.35845,-15.68321 -21.81264,21.70673 -21.81264,-10.46283 0,-32.17397 -61.96503,5.24686 21.8347,-11.23507 -28.0921,-80.03557 -29.71161,-8.0446 -1.84456,-24.12938 27.85818,-16.08478 -35.53214,-51.03442 20.64765,13.29146 l 0,0 z" />
    <path
       inkscape:connector-curvature="0"
       id="path248"
       style="fill:none;stroke:#ff0000;stroke-width:1.50000000000000000;stroke-linecap:butt;stroke-linejoin:miter;stroke-miterlimit:2.41420007000000010;stroke-opacity:1;stroke-dasharray:none"
       d="m 363.42599,489.0756 c 55.26188,-64.34794 -7.88574,-35.1747 19.97686,-19.0855 27.85822,16.08477 21.73321,-53.58063 -5.89113,27.23601 83.36284,15.68762 26.52113,-24.41621 26.52113,7.75334 0,32.17398 57.26534,-7.96516 -26.53437,8.52119 28.0921,80.03115 34.40686,10.75849 6.54423,26.84326 -27.8626,16.08478 35.53214,45.61106 -20.64761,-18.71924 -55.26633,64.34795 7.8857,35.1747 -19.9769,19.08992 -27.86263,-16.08919 -21.7288,53.57622 5.89113,-27.24042 -83.35845,-15.68321 -26.51672,24.41621 -26.51672,-7.75335 0,-32.17397 -57.26977,7.96958 26.52555,-8.52118 -28.0921,-80.03557 -34.40246,-10.75849 -6.53541,-26.84327 27.85818,-16.08478 -35.53655,-45.60664 20.64324,18.71924 l 0,0 z" />
    <path
       inkscape:connector-curvature="0"
       id="path250"
       style="fill:none;stroke:#ff0000;stroke-width:1.50000000000000000;stroke-linecap:butt;stroke-linejoin:miter;stroke-miterlimit:2.41420007000000010;stroke-opacity:1;stroke-dasharray:none"
       d="m 363.42157,494.49897 c 55.26189,-64.34794 -7.88132,-40.59807 19.98128,-24.50887 27.85822,16.08477 17.02913,-50.87557 -10.58639,29.94107 83.35402,15.68763 31.21639,-27.12127 31.21639,5.04828 0,32.17398 52.57009,-10.67905 -31.22963,5.79847 28.0921,80.03557 39.10212,13.48121 11.23949,29.56598 -27.8626,16.08478 35.53655,40.18327 -20.63879,-24.14261 -55.26633,64.34794 7.87688,40.59807 -19.98572,24.51329 -27.86263,-16.08919 -17.02913,50.86674 10.5908,-29.94549 -83.35845,-15.68762 -31.21639,27.12128 -31.21639,-5.04828 0,-32.17397 -52.5701,10.68347 31.22963,-5.80288 -28.09652,-80.03556 -39.10654,-13.47679 -11.23949,-29.56157 27.85818,-16.08478 -35.54096,-40.18326 20.63882,24.14261 l 0,0 z" />
    <path
       inkscape:connector-curvature="0"
       id="path252"
       style="fill:none;stroke:#ff0000;stroke-width:1.50000000000000000;stroke-linecap:butt;stroke-linejoin:miter;stroke-miterlimit:2.41420007000000010;stroke-opacity:1;stroke-dasharray:none"
       d="m 363.41716,499.92676 c 55.26188,-64.34794 -7.87691,-46.02586 19.98569,-29.93666 27.85822,16.08477 12.32946,-48.16609 -15.29047,32.65055 83.35843,15.68321 35.92047,-29.83075 35.92047,2.3388 0,32.17398 47.87483,-13.40177 -35.92488,3.08899 28.0921,80.03115 43.79737,16.19069 15.93474,32.27546 -27.8626,16.08478 35.54096,34.7599 -20.63437,-29.57039 -55.26634,64.34794 7.87246,46.02585 -19.99014,29.94107 -27.86263,-16.08919 -12.32505,48.16167 15.29047,-32.65055 -83.35404,-15.69204 -35.91606,29.82634 -35.91606,-2.34322 0,-32.17397 -47.87926,13.40178 35.92047,-3.08457 -28.0921,-80.03557 -43.79738,-16.1951 -15.93033,-32.27988 27.85818,-16.08478 -35.54538,-34.75548 20.63441,29.5704 l 0,0 z" />
  </g>
</svg>
