<?xml version="1.0" standalone="no"?>
<!DOCTYPE svg PUBLIC "-//W3C//DTD SVG 20010904//EN"
 "http://www.w3.org/TR/2001/REC-SVG-20010904/DTD/svg10.dtd">
<svg version="1.0" xmlns="http://www.w3.org/2000/svg"
 width="745.000000pt" height="1053.000000pt" viewBox="0 0 745.000000 1053.000000"
 preserveAspectRatio="xMidYMid meet">
<metadata>
Created by potrace 1.11, written by Peter Selinger 2001-2013
</metadata>
<g transform="translate(0.000000,1053.000000) scale(0.100000,-0.100000)"
fill="#000000" stroke="none">
<path d="M2705 8936 c-136 -31 -243 -90 -455 -247 -277 -206 -387 -272 -635
-377 -310 -132 -425 -199 -520 -305 -165 -182 -196 -452 -96 -846 17 -64 37
-136 45 -160 9 -24 16 -49 16 -55 0 -7 -44 -22 -102 -35 -223 -50 -439 -134
-566 -220 -83 -56 -175 -159 -212 -236 -67 -140 -75 -294 -35 -650 31 -277 31
-413 0 -690 -50 -446 -26 -613 112 -782 113 -138 361 -261 684 -339 63 -15
116 -29 118 -31 2 -2 -10 -49 -28 -106 -61 -197 -82 -310 -88 -477 -4 -123 -2
-169 11 -224 24 -103 70 -188 139 -263 100 -107 186 -157 548 -316 219 -96
306 -147 507 -295 366 -271 471 -322 662 -322 108 0 181 18 295 74 127 63 239
149 396 305 l136 136 134 -136 c154 -157 276 -252 404 -314 194 -94 360 -97
541 -11 95 45 160 87 334 216 260 193 357 249 654 377 400 173 515 268 593
490 26 74 28 87 27 253 0 193 -12 270 -79 494 -19 66 -34 120 -32 121 1 1 49
12 107 24 324 71 590 202 705 349 131 166 156 344 105 742 -32 251 -32 469 0
720 54 422 23 614 -127 779 -130 144 -393 269 -711 337 -64 14 -82 21 -77 32
3 8 21 69 40 136 161 558 88 867 -252 1064 -69 40 -104 57 -387 181 -188 83
-314 157 -496 293 -346 257 -471 318 -658 318 -46 0 -112 -7 -146 -16 -160
-40 -352 -170 -555 -374 l-124 -125 -141 141 c-199 200 -363 313 -516 358 -78
23 -203 28 -275 12z m237 -61 c31 -8 71 -20 88 -27 29 -12 25 -13 -57 -14
-172 -1 -263 -56 -538 -324 -331 -322 -406 -366 -830 -479 -196 -53 -279 -81
-367 -127 -91 -49 -166 -122 -206 -203 -35 -70 -40 -60 -17 37 21 87 64 169
127 237 88 97 194 157 549 313 199 87 297 143 462 264 295 217 419 293 530
323 69 18 189 19 259 0z m1698 -19 c100 -34 197 -93 363 -217 289 -215 373
-265 634 -378 218 -95 346 -160 420 -214 123 -91 198 -219 219 -372 l6 -50
-36 72 c-80 157 -200 226 -570 328 -432 118 -489 152 -826 480 -274 267 -351
315 -525 325 l-100 5 65 22 c89 30 103 32 197 28 53 -3 107 -13 153 -29z
m-1555 -90 l40 -12 -62 -8 c-148 -17 -261 -114 -468 -401 -169 -234 -307 -376
-415 -428 -111 -52 -216 -74 -507 -108 -274 -31 -401 -58 -480 -104 -47 -28
-110 -91 -136 -138 l-18 -32 6 40 c11 65 55 146 110 202 86 85 191 129 518
218 367 99 462 154 756 438 244 237 323 297 436 333 51 16 168 16 220 0z
m1338 -6 c98 -30 175 -88 362 -270 366 -356 432 -395 872 -516 275 -75 377
-119 458 -195 59 -56 109 -145 120 -214 l6 -40 -30 51 c-35 61 -74 95 -151
134 -96 49 -179 65 -475 95 -308 32 -455 74 -577 166 -84 63 -159 150 -324
376 -149 205 -244 305 -329 350 -63 33 -163 57 -193 46 -9 -3 -14 -3 -10 2 13
14 101 34 154 34 29 1 81 -8 117 -19z m-1248 -79 c14 -6 8 -9 -28 -14 -63 -9
-100 -29 -165 -91 -76 -72 -118 -137 -249 -390 -137 -264 -199 -360 -286 -444
-137 -131 -265 -154 -723 -132 -376 18 -498 -2 -597 -100 -55 -55 -62 -41 -17
37 71 124 186 167 564 208 333 37 454 66 574 137 95 55 227 196 373 398 188
259 277 350 378 386 39 14 144 17 176 5z m1145 -26 c80 -40 186 -154 335 -360
315 -437 414 -491 995 -550 200 -21 289 -39 373 -77 74 -34 128 -86 158 -152
28 -61 23 -74 -10 -28 -20 27 -50 50 -93 71 -101 49 -166 55 -478 45 -434 -13
-535 -5 -657 52 -71 34 -161 122 -228 224 -27 41 -98 169 -157 284 -193 373
-283 479 -430 503 -39 6 -41 7 -18 14 51 16 152 3 210 -26z m-1100 -44 c0 -5
-14 -13 -32 -16 -21 -5 -55 -30 -93 -69 -80 -80 -130 -183 -239 -486 -103
-289 -151 -400 -210 -489 -138 -207 -269 -228 -806 -129 -262 48 -338 58 -446
58 -117 0 -182 -16 -244 -61 l-42 -31 23 43 c26 45 68 78 139 106 41 16 86 18
485 18 391 0 447 2 500 18 132 39 222 102 309 216 59 78 98 145 218 376 116
222 124 236 184 316 48 63 101 107 153 125 42 15 101 18 101 5z m970 -21 c44
-23 127 -110 175 -184 20 -31 86 -152 146 -269 176 -337 269 -460 401 -525
124 -61 173 -67 458 -62 577 10 618 6 707 -53 28 -19 58 -50 72 -76 l25 -45
-40 32 c-114 92 -242 94 -684 12 -264 -49 -394 -64 -500 -57 -116 8 -170 29
-238 92 -99 92 -155 203 -292 585 -90 253 -150 383 -209 458 -42 52 -113 102
-147 102 -16 0 -17 2 -4 10 19 13 85 3 130 -20z m-945 -56 c-116 -60 -171
-187 -284 -661 -105 -439 -161 -591 -251 -680 -61 -61 -117 -77 -249 -70 -132
8 -200 22 -470 103 -411 123 -513 146 -636 148 -100 1 -115 -1 -163 -25 -50
-25 -52 -25 -39 -5 23 35 75 64 135 77 85 17 227 5 483 -42 393 -72 520 -82
653 -54 80 17 142 51 197 107 94 97 152 217 288 595 90 249 124 329 177 409
43 64 112 114 158 114 l31 0 -30 -16z m841 0 c90 -43 163 -175 284 -513 138
-386 191 -494 294 -597 95 -95 139 -109 351 -109 159 1 186 4 425 48 140 25
298 51 350 57 179 21 298 -12 341 -92 7 -14 1 -12 -26 6 -101 69 -251 57 -615
-51 -499 -147 -567 -163 -704 -163 -127 0 -161 12 -222 75 -94 96 -142 226
-248 670 -36 149 -77 308 -91 355 -53 164 -114 265 -190 312 -28 17 -29 18 -7
18 13 0 39 -7 58 -16z m-809 -65 c-98 -81 -147 -252 -217 -759 -70 -501 -117
-681 -205 -778 -49 -55 -88 -66 -199 -59 -123 7 -262 51 -621 194 -368 146
-460 180 -565 205 -108 26 -222 28 -270 4 l-35 -17 27 25 c16 14 50 29 82 36
101 21 233 -6 691 -142 278 -83 404 -110 525 -111 131 -1 188 19 260 92 100
100 156 251 260 691 68 288 100 398 140 486 39 87 109 160 155 163 5 1 -7 -13
-28 -30z m751 4 c40 -25 98 -128 136 -242 20 -60 65 -232 101 -383 78 -327
114 -446 167 -555 74 -152 156 -217 294 -229 131 -12 269 16 693 143 300 89
408 113 514 113 80 0 132 -14 156 -43 12 -16 11 -16 -22 -2 -50 21 -166 19
-262 -4 -107 -26 -209 -63 -530 -191 -430 -172 -557 -210 -696 -210 -83 0
-125 16 -163 60 -88 106 -130 266 -205 795 -73 506 -114 651 -211 739 -34 30
-37 37 -19 31 13 -4 34 -14 47 -22z m-22 -98 c60 -103 97 -268 159 -705 57
-405 94 -570 155 -690 65 -129 126 -166 270 -164 145 2 275 42 725 222 300
120 424 164 528 187 82 18 189 17 208 -2 7 -7 -2 -8 -32 -3 -125 23 -307 -43
-844 -305 -344 -168 -437 -210 -579 -257 -146 -49 -246 -57 -293 -22 -102 76
-144 270 -183 859 -43 652 -75 827 -169 929 l-26 29 28 -18 c15 -10 39 -37 53
-60z m-706 23 c-67 -92 -108 -305 -135 -703 -25 -365 -45 -599 -61 -703 -29
-198 -76 -317 -140 -359 -48 -31 -149 -22 -290 25 -141 47 -230 87 -669 300
-372 180 -502 233 -627 258 -68 13 -96 15 -128 6 -32 -8 -40 -8 -31 1 6 6 40
13 75 15 118 8 271 -38 674 -202 414 -169 572 -217 717 -218 110 -1 160 17
211 76 96 112 145 292 214 791 68 484 105 633 180 719 43 48 47 46 10 -6z
m690 -189 c29 -119 46 -280 70 -629 49 -731 95 -928 230 -998 40 -21 55 -23
125 -18 152 9 308 71 850 333 315 153 518 243 547 243 7 0 -32 -20 -88 -44
-131 -55 -291 -140 -654 -346 -520 -295 -729 -390 -860 -390 -146 0 -189 255
-190 1120 0 443 -20 692 -65 825 -5 17 -5 17 4 4 6 -9 20 -54 31 -100z m-457
90 c33 -17 87 -71 81 -81 -3 -5 0 -16 7 -24 11 -13 18 -9 54 26 23 23 60 48
81 56 l39 15 -34 -6 c-19 -3 -43 -13 -53 -22 -10 -9 -20 -14 -23 -11 -3 3 13
18 36 33 30 21 45 26 56 19 9 -5 15 -14 15 -19 0 -6 5 -17 12 -25 7 -8 16 -22
19 -31 5 -15 3 -15 -23 -3 -36 18 -72 6 -122 -43 l-36 -36 -44 36 c-61 50 -93
61 -128 43 -26 -12 -28 -12 -23 3 3 9 13 24 21 34 8 9 12 17 7 17 -4 0 -2 7 5
15 15 18 24 19 53 4z m-247 -120 c-24 -123 -35 -341 -41 -824 -3 -253 -10
-514 -15 -580 -18 -217 -55 -354 -108 -395 -87 -69 -324 27 -957 387 -383 217
-511 285 -643 339 -59 24 -101 44 -94 44 34 0 256 -97 567 -247 557 -270 707
-330 860 -339 70 -5 85 -3 125 18 135 70 182 275 230 991 22 329 41 510 66
620 21 91 28 81 10 -14z m274 21 c14 -10 36 -30 49 -44 l24 -26 44 40 c70 65
115 72 143 20 15 -28 13 -29 -18 -18 -40 15 -77 3 -125 -41 l-42 -39 -42 38
c-23 22 -54 42 -69 46 -32 8 -76 -5 -82 -26 -4 -12 -1 -11 15 3 31 27 67 21
122 -23 28 -22 51 -46 51 -52 0 -6 24 12 54 41 61 57 99 66 132 30 16 -18 19
-39 20 -189 l1 -168 -22 14 c-33 22 -68 9 -129 -47 l-53 -48 -38 39 c-21 22
-54 47 -74 56 -32 15 -38 16 -63 1 l-27 -15 3 43 c3 50 19 75 51 75 28 0 108
-53 130 -86 l16 -26 54 51 c59 56 97 71 129 51 19 -12 20 -12 7 3 -28 35 -105
7 -165 -62 l-20 -22 -35 34 c-77 73 -117 84 -159 45 l-23 -23 11 30 c30 79 78
76 171 -12 l35 -34 20 22 c58 66 131 95 164 67 12 -11 12 -10 1 5 -26 34 -91
16 -145 -42 -17 -17 -35 -31 -41 -31 -6 0 -24 14 -41 31 -58 61 -111 74 -152
37 -14 -13 -22 -17 -17 -9 4 8 9 66 10 129 1 112 2 115 29 139 30 26 51 24 96
-7z m-224 -982 c17 -435 15 -869 -5 -963 -17 -77 -51 -138 -84 -150 -42 -14
-142 15 -282 84 -147 73 -307 168 -715 427 -173 110 -371 234 -440 274 -69 41
-129 78 -135 83 -17 16 153 -77 470 -257 546 -310 760 -406 902 -406 92 0 125
21 163 103 65 140 79 296 90 997 5 311 10 567 12 570 1 3 4 -74 5 -170 1 -96
10 -363 19 -592z m634 170 c11 -707 24 -849 89 -980 37 -73 77 -98 157 -98
150 0 336 84 929 420 296 167 424 237 410 223 -5 -5 -55 -36 -110 -68 -55 -32
-235 -144 -400 -249 -580 -366 -801 -489 -940 -521 -101 -24 -131 -4 -161 107
-39 148 -41 400 -9 1103 8 176 15 396 15 489 0 93 3 167 6 164 3 -4 10 -269
14 -590z m-417 384 c21 -14 47 -36 57 -49 10 -13 21 -23 25 -23 5 0 24 16 43
36 38 39 89 74 110 74 18 0 52 -37 52 -57 0 -13 -3 -14 -12 -5 -23 23 -73 13
-121 -23 -25 -19 -51 -43 -56 -53 -9 -15 -13 -14 -43 14 -60 56 -90 74 -122
74 -18 0 -37 -5 -44 -12 -9 -9 -12 -8 -12 5 0 9 9 26 21 38 24 24 45 20 102
-19z m24 -76 l58 -54 58 54 c47 43 65 54 92 54 24 0 38 -6 45 -19 15 -29 13
-32 -15 -25 -41 10 -74 -4 -129 -56 l-52 -50 -40 41 c-62 64 -122 87 -152 57
-9 -9 -12 -8 -12 8 0 29 19 44 57 44 25 0 45 -12 90 -54z m-41 -18 c16 -12 46
-37 66 -56 l37 -35 25 30 c63 75 157 108 164 57 3 -18 -1 -20 -28 -16 -33 5
-83 -24 -135 -78 l-28 -29 -51 46 c-58 52 -90 67 -128 59 -19 -4 -28 -1 -28 7
0 40 61 49 106 15z m-159 -95 c-2 -16 -4 -3 -4 27 0 30 2 43 4 28 2 -16 2 -40
0 -55z m141 53 c15 -8 47 -35 71 -60 l45 -46 57 55 c56 53 95 73 124 61 8 -3
15 -14 15 -24 0 -15 -6 -18 -24 -15 -31 6 -72 -16 -121 -66 -21 -23 -43 -41
-48 -41 -5 0 -28 18 -50 41 -53 52 -92 72 -128 65 -32 -6 -34 -4 -19 25 13 23
41 24 78 5z m369 -188 c-2 -35 -3 -9 -3 57 0 66 1 94 3 63 2 -32 2 -86 0 -120z
m-373 137 c18 -9 52 -36 76 -60 l44 -44 52 49 c57 54 96 74 125 65 26 -9 26
-45 0 -38 -27 7 -79 -22 -131 -73 l-46 -44 -39 41 c-47 48 -110 83 -136 76
-14 -4 -19 0 -19 13 0 17 12 27 33 29 5 1 23 -6 41 -14z m4 -55 c17 -11 51
-40 75 -65 l43 -45 54 55 c62 62 102 84 124 65 15 -12 11 -44 -5 -35 -16 11
-75 -22 -122 -69 l-48 -47 -52 47 c-57 51 -107 77 -131 68 -11 -4 -16 0 -16
14 0 19 12 29 35 31 6 1 25 -8 43 -19z m-10 -49 c20 -11 57 -40 81 -65 l45
-46 57 55 c79 76 129 93 129 44 0 -12 -7 -19 -20 -19 -32 0 -71 -24 -120 -74
l-44 -46 -51 49 c-57 56 -83 71 -119 71 -38 0 -36 39 2 49 1 1 19 -8 40 -18z
m41 -81 c28 -23 57 -50 64 -60 15 -26 33 -25 47 0 17 33 110 100 137 100 35 0
26 -32 -13 -42 -16 -4 -57 -32 -91 -62 l-60 -55 -19 21 c-39 43 -117 98 -140
98 -17 0 -24 6 -24 20 0 33 43 24 99 -20z m-41 -24 c15 -8 49 -37 77 -65 l49
-51 56 54 c76 74 120 95 120 58 0 -11 -12 -22 -33 -30 -18 -6 -57 -36 -87 -67
l-54 -54 -62 59 c-38 37 -75 63 -93 66 -21 5 -31 12 -31 25 0 23 21 24 58 5z
m8 -58 c16 -12 50 -41 76 -66 l46 -45 34 38 c38 45 105 95 125 95 24 0 14 -37
-12 -44 -13 -3 -53 -33 -88 -66 l-64 -59 -48 49 c-27 27 -68 59 -92 70 -44 20
-58 50 -24 50 10 0 31 -10 47 -22z m-18 -42 c15 -8 52 -40 82 -70 l54 -56 61
59 c76 74 115 97 115 66 0 -8 -19 -26 -41 -41 -23 -14 -61 -46 -84 -70 -24
-24 -45 -44 -48 -44 -3 0 -30 24 -61 54 -31 29 -70 59 -86 66 -18 8 -30 20
-30 31 0 23 3 23 38 5z m18 -65 c21 -16 57 -47 78 -70 l40 -41 60 59 c34 32
71 63 84 70 38 20 28 -23 -10 -48 -18 -11 -55 -42 -82 -70 l-50 -51 -62 60
c-34 33 -74 64 -88 70 -16 6 -26 17 -26 30 0 27 10 25 56 -9z m16 -65 c25 -19
58 -51 75 -72 l30 -37 28 38 c29 37 110 105 126 105 24 0 4 -32 -40 -64 -27
-20 -63 -52 -81 -72 l-31 -36 -61 57 c-34 31 -72 62 -85 68 -22 10 -33 47 -14
47 4 0 28 -15 53 -34z m-2165 18 c-3 -3 -12 -4 -19 -1 -8 3 -5 6 6 6 11 1 17
-2 13 -5z m4520 -10 c-3 -3 -12 -4 -19 -1 -8 3 -5 6 6 6 11 1 17 -2 13 -5z
m-2324 -93 l72 -69 75 71 c55 54 75 68 78 55 2 -10 -26 -44 -75 -91 l-78 -75
-72 69 c-40 38 -78 69 -83 69 -6 0 -10 9 -10 20 0 11 5 20 10 20 6 0 43 -31
83 -69z m4 -56 c37 -36 68 -65 68 -65 1 0 31 29 67 65 64 62 93 80 86 52 -2
-7 -37 -45 -79 -85 l-76 -71 -49 50 c-27 28 -61 58 -76 67 -26 15 -39 52 -19
52 6 0 41 -29 78 -65z m-2217 9 c0 -3 -10 -14 -22 -24 -24 -19 -30 -72 -14
-142 8 -36 8 -37 -31 -47 -65 -18 -107 -52 -113 -91 l-6 -35 -17 33 c-17 30
-17 36 -3 57 13 20 108 65 137 65 8 0 8 9 3 28 -5 15 -9 55 -9 89 0 74 -15 74
-16 0 l-1 -52 -10 38 c-6 20 -7 48 -4 60 5 21 12 24 56 25 27 0 50 -2 50 -4z
m2225 -73 l59 -61 73 72 c50 50 73 67 73 54 0 -10 -33 -51 -74 -91 l-75 -74
-34 42 c-19 23 -53 56 -76 72 -22 17 -41 38 -41 48 0 26 23 10 95 -62z m2408
62 c14 -17 29 -136 16 -127 -9 5 -20 -39 -11 -47 4 -3 27 -12 52 -18 51 -14
71 -27 88 -56 9 -16 11 -16 12 -4 0 21 -28 46 -69 60 -17 6 -30 13 -28 15 2 2
25 -3 50 -12 66 -22 74 -42 40 -94 l-28 -42 -7 33 c-8 40 -36 65 -91 81 -23 6
-45 14 -49 17 -4 4 -3 33 3 66 13 70 1 114 -32 122 -16 4 -18 8 -7 14 21 14
44 10 61 -8z m37 2 c10 -12 10 -28 3 -68 l-10 -52 -2 48 c0 27 -6 57 -11 68
-13 23 2 26 20 4z m-4615 -14 c17 -7 17 -8 -8 -14 -14 -4 -32 -17 -38 -29 -11
-21 -8 -96 7 -145 5 -18 2 -23 -12 -23 -31 0 -122 -47 -133 -69 -7 -11 -9 -33
-6 -48 l6 -28 -20 24 c-49 55 -3 117 102 136 33 6 37 10 31 29 -30 91 -29 121
1 151 25 26 37 29 70 16z m4538 -23 c21 -24 21 -47 4 -116 l-14 -51 52 -16
c97 -28 127 -72 84 -125 l-21 -25 6 24 c10 49 -22 83 -102 107 -48 14 -53 18
-48 37 15 49 18 125 7 145 -6 12 -24 25 -38 29 -25 6 -25 7 -8 14 27 10 56 1
78 -23z m-4488 -8 c-3 -5 -13 -10 -20 -10 -32 0 -46 -86 -26 -158 7 -24 7 -34
-2 -36 -112 -32 -151 -62 -145 -111 3 -28 1 -32 -10 -22 -27 22 -34 58 -16 84
17 27 86 62 123 63 20 0 23 4 17 28 -19 82 -19 132 -1 152 19 21 92 30 80 10z
m4439 -12 c20 -28 20 -71 2 -131 l-14 -45 36 -7 c50 -9 109 -41 122 -65 8 -15
7 -27 -5 -49 -21 -42 -31 -45 -27 -7 3 27 -2 37 -27 58 -16 14 -53 32 -81 39
-39 10 -49 16 -44 28 10 27 17 118 10 144 -4 16 -17 29 -36 35 -41 15 -38 22
9 22 30 0 44 -6 55 -22z m-2324 -53 l66 -65 64 65 c35 36 68 65 72 65 22 0 1
-33 -64 -97 l-73 -72 -71 70 c-40 38 -75 76 -78 84 -12 32 21 12 84 -50z
m-2071 48 c23 -6 22 -7 -10 -17 -46 -15 -59 -63 -37 -139 l15 -54 -56 -18
c-30 -9 -68 -30 -84 -46 -24 -24 -28 -34 -22 -62 l6 -32 -20 25 c-47 57 -15
107 86 136 49 14 54 18 48 37 -4 12 -9 50 -12 83 -5 56 -3 63 18 78 26 18 33
19 68 9z m4350 -16 c10 -8 12 -28 8 -77 -3 -36 -9 -75 -12 -86 -6 -19 -2 -22
31 -29 21 -3 55 -15 75 -25 53 -28 63 -61 29 -101 l-20 -24 6 27 c9 39 -36 81
-105 99 l-53 13 7 36 c18 97 17 114 -5 143 -12 15 -31 27 -43 28 -21 0 -21 1
-2 9 23 10 63 4 84 -13z m-4316 -23 c-21 -9 -35 -24 -39 -40 -6 -25 0 -99 11
-139 5 -18 -1 -23 -48 -38 -30 -10 -67 -27 -82 -39 -22 -17 -26 -27 -23 -59 4
-43 -12 -38 -32 10 -21 52 14 87 114 112 37 9 46 15 41 28 -4 9 -12 42 -17 73
-10 48 -9 60 6 82 14 21 24 26 59 25 l42 -1 -32 -14z m4267 -4 c23 -23 25 -56
6 -127 l-14 -53 41 -11 c62 -17 115 -46 122 -68 6 -20 -16 -74 -34 -85 -5 -4
-7 10 -4 32 4 33 1 42 -20 59 -14 11 -51 28 -82 38 -50 15 -56 20 -51 39 13
44 18 106 12 131 -4 14 -21 34 -39 45 l-32 20 38 0 c24 0 44 -7 57 -20z
m-2199 -91 l32 -41 59 66 c58 64 83 81 76 52 -2 -11 -124 -146 -131 -146 -12
0 -147 144 -147 155 0 22 67 -30 111 -86z m-2003 82 c10 -6 5 -10 -16 -14 -50
-10 -59 -69 -26 -183 5 -18 0 -22 -32 -29 -52 -9 -111 -41 -125 -66 -6 -11 -8
-33 -5 -47 l6 -27 -20 24 c-45 52 -13 101 83 129 54 16 58 19 52 42 -3 14 -8
52 -11 86 -6 56 -5 62 17 78 26 17 56 21 77 7z m4160 -18 c16 -22 15 -79 -2
-135 l-13 -45 56 -16 c102 -29 135 -76 91 -128 l-20 -24 6 32 c8 42 -29 78
-105 99 -31 9 -57 17 -58 18 -2 1 2 18 7 37 27 89 6 169 -44 169 -17 0 -18 2
-6 10 20 14 72 4 88 -17z m-4147 -32 c-36 -33 -40 -69 -17 -144 l14 -47 -41
-11 c-101 -27 -138 -64 -124 -122 5 -20 4 -20 -19 6 -13 15 -24 36 -24 46 0
28 43 61 106 81 65 20 64 17 45 107 -16 79 1 113 56 113 l35 0 -31 -29z m4087
21 c23 -15 29 -65 16 -127 -7 -33 -13 -63 -13 -66 -1 -4 16 -10 36 -14 55 -10
112 -43 125 -71 10 -20 8 -29 -9 -52 -11 -15 -24 -26 -29 -25 -5 1 -16 -5 -25
-13 -14 -12 -15 -11 -11 14 5 37 -31 69 -104 92 -52 16 -59 21 -57 42 2 12 6
49 9 80 8 65 -9 104 -48 110 -22 4 -21 5 5 12 38 11 75 -7 83 -41 4 -15 2 -52
-5 -83 -19 -85 -20 -82 31 -95 76 -20 112 -46 119 -86 l6 -34 2 32 c1 41 -39
76 -109 94 -27 7 -50 17 -50 23 0 5 5 35 12 66 14 72 6 106 -35 130 l-32 20
35 0 c19 0 41 -4 48 -8z m-4018 -22 c13 -8 13 -10 -1 -10 -9 0 -24 -9 -34 -20
-15 -16 -17 -31 -12 -82 3 -35 9 -73 12 -85 6 -19 1 -23 -48 -37 -75 -22 -120
-60 -115 -98 5 -32 -6 -37 -22 -9 -30 57 3 100 99 127 31 9 57 17 58 18 1 1
-4 24 -12 51 -21 67 -19 111 5 135 22 22 46 25 70 10z m1890 -55 l64 -65 70
67 c53 53 67 62 61 43 -4 -14 -6 -36 -6 -50 1 -17 -17 -42 -61 -87 l-62 -63
-68 67 c-41 40 -68 76 -68 88 1 15 17 3 68 -51 l68 -71 58 63 c31 35 54 64 49
64 -4 0 -30 -25 -58 -56 l-50 -56 -72 75 c-67 68 -86 97 -65 97 4 0 37 -29 72
-65z m-2376 30 c-18 -8 -41 -26 -53 -41 -22 -28 -38 -27 -27 1 5 15 80 55 101
54 6 0 -4 -7 -21 -14z m514 -16 c-36 -27 -43 -66 -24 -140 9 -34 15 -63 14
-64 -2 0 -30 -9 -62 -19 -76 -23 -121 -65 -112 -104 l6 -27 -20 24 c-26 31
-25 57 4 86 21 21 109 55 142 55 9 0 9 11 -2 47 -17 57 -18 135 -2 151 7 7 28
12 48 12 l35 -1 -27 -20z m3906 5 c20 -19 21 -85 2 -147 l-14 -45 46 -12 c105
-26 148 -67 121 -116 -17 -32 -29 -30 -29 4 0 16 -8 36 -17 44 -21 19 -89 48
-112 48 -36 0 -40 13 -25 75 17 74 11 113 -24 142 l-27 23 32 0 c17 0 39 -7
47 -16z m-3851 -10 c3 -4 -5 -15 -18 -26 -30 -23 -33 -77 -11 -152 11 -35 11
-48 3 -51 -140 -43 -167 -60 -167 -108 0 -27 -2 -29 -14 -17 -28 30 -29 58 -1
84 27 25 103 56 137 56 22 0 22 3 2 80 -17 67 -12 114 14 130 20 11 46 13 55
4z m3794 -2 c27 -17 33 -62 18 -134 -8 -40 -14 -73 -12 -74 1 -1 27 -9 58 -18
92 -26 129 -69 99 -116 -11 -17 -13 -15 -25 25 -11 33 -72 69 -137 80 -21 4
-38 7 -38 8 0 1 7 24 15 51 27 89 12 166 -33 166 -15 0 -15 2 -2 10 18 12 41
12 57 2z m-3767 -47 c-21 -22 -22 -31 -17 -92 3 -37 9 -78 12 -90 6 -19 1 -23
-47 -37 -77 -23 -117 -50 -125 -86 -4 -24 -8 -28 -19 -19 -43 36 8 96 105 123
33 9 61 18 61 19 0 1 -7 24 -15 51 -30 98 -16 156 37 156 l31 0 -23 -25z
m3734 9 c20 -20 20 -76 1 -140 -19 -63 -19 -64 5 -64 32 0 126 -39 145 -60 12
-13 15 -27 11 -45 -8 -33 -22 -32 -34 4 -11 31 -75 68 -137 78 -34 5 -36 8
-30 32 3 14 8 58 12 98 5 65 4 72 -16 85 -11 7 -21 16 -21 20 0 14 48 8 64 -8z
m-3681 -10 c3 -4 -4 -19 -16 -35 -19 -27 -20 -34 -10 -92 7 -34 15 -71 18 -83
6 -19 1 -23 -41 -33 -79 -20 -124 -48 -131 -82 -6 -32 -20 -34 -37 -6 -22 35
37 85 128 107 31 7 56 14 56 15 0 2 -7 22 -15 45 -21 60 -20 146 3 159 20 12
36 14 45 5z m3631 -10 c20 -20 21 -94 2 -157 l-14 -47 42 -10 c98 -25 155 -66
140 -103 -9 -24 -34 -30 -34 -8 0 30 -51 66 -119 85 -49 14 -61 21 -57 34 31
102 29 172 -5 196 -15 10 -17 15 -7 19 23 10 36 7 52 -9z m-1888 -72 l48 -54
63 69 c46 50 62 63 62 48 0 -11 -28 -50 -62 -87 l-63 -68 -67 75 c-37 40 -67
79 -67 85 0 17 30 -7 86 -68z m-1702 49 c3 -5 -1 -14 -9 -21 -19 -16 -20 -91
-1 -154 11 -35 11 -48 3 -51 -93 -28 -122 -41 -147 -62 -17 -14 -30 -32 -30
-40 0 -8 -6 -13 -12 -10 -7 2 -13 17 -13 32 0 37 45 69 121 86 53 12 55 14 50
38 -26 112 -29 141 -18 166 11 24 45 34 56 16z m3552 -16 c18 -27 14 -84 -11
-154 l-13 -38 51 -12 c76 -17 131 -51 135 -82 2 -17 -3 -29 -12 -32 -10 -4
-16 -1 -16 7 0 26 -58 63 -124 81 -36 10 -66 18 -66 19 0 1 7 23 15 50 19 63
19 127 0 152 -20 26 -19 34 5 34 11 0 27 -11 36 -25z m-4557 -115 c47 -89 186
-225 416 -405 542 -427 651 -533 686 -667 24 -89 -29 -186 -183 -334 -86 -83
-173 -155 -534 -439 -192 -151 -342 -302 -382 -384 -18 -35 -32 -80 -33 -100
0 -34 -1 -35 -10 -11 -16 39 -2 100 39 171 28 50 113 140 383 409 367 366 417
426 459 550 57 169 -22 318 -329 614 -295 286 -456 450 -491 500 -48 71 -73
142 -64 186 l7 35 11 -50 c7 -27 18 -61 25 -75z m41 91 c0 -28 55 -106 121
-171 86 -85 237 -196 583 -429 336 -227 479 -335 566 -428 135 -144 133 -207
-10 -357 -95 -99 -220 -193 -591 -443 -492 -332 -612 -433 -666 -565 -12 -29
-22 -44 -23 -33 0 32 43 115 89 170 58 72 194 189 448 388 385 301 512 423
574 552 93 193 -17 343 -571 775 -318 247 -449 368 -504 463 -27 48 -45 114
-27 103 6 -4 11 -15 11 -25z m1010 14 c0 -1 -7 -16 -16 -33 -13 -27 -13 -40
-3 -89 21 -105 23 -101 -56 -127 -50 -17 -78 -34 -97 -57 -20 -24 -31 -30 -39
-22 -32 32 27 84 117 104 30 7 57 16 59 20 3 3 -2 29 -10 55 -28 92 -12 174
30 158 8 -4 15 -7 15 -9z m3454 -1 c20 -20 21 -85 1 -150 -19 -64 -21 -61 23
-69 62 -11 139 -51 147 -75 12 -39 -15 -42 -49 -5 -28 30 -111 65 -153 65 -16
0 -17 29 -3 66 18 47 16 131 -4 153 -13 15 -14 20 -4 24 21 9 26 8 42 -9z
m962 -69 c-48 -106 -179 -225 -677 -615 -73 -58 -186 -157 -250 -220 -93 -93
-123 -129 -152 -189 -50 -100 -50 -152 0 -252 48 -95 201 -251 409 -415 83
-65 214 -168 290 -228 161 -127 343 -303 372 -361 11 -22 22 -56 26 -75 6 -32
5 -33 -6 -10 -6 14 -18 41 -27 60 -21 49 -168 194 -284 279 -53 40 -230 161
-391 270 -353 238 -470 326 -568 429 -147 154 -145 218 16 378 102 101 200
174 571 424 483 327 618 439 666 556 13 32 25 50 27 41 2 -10 -8 -42 -22 -72z
m94 34 c0 -92 -78 -201 -304 -419 -430 -415 -521 -517 -576 -641 -38 -84 -35
-184 7 -270 54 -108 126 -195 322 -384 326 -315 445 -438 488 -505 51 -80 70
-144 55 -185 l-10 -30 -1 36 c-1 20 -15 65 -33 100 -48 96 -190 231 -513 485
-395 312 -512 424 -567 540 -36 76 -35 106 4 185 43 87 232 274 443 438 443
344 577 468 633 580 18 35 32 78 32 95 0 24 3 27 10 16 5 -8 10 -27 10 -41z
m-5741 -8 c-7 -32 -6 -58 6 -103 30 -117 95 -214 320 -478 175 -205 258 -318
308 -419 40 -80 42 -89 42 -175 0 -86 -2 -96 -41 -176 -48 -99 -116 -193 -280
-385 -251 -296 -321 -399 -350 -518 -13 -52 -14 -75 -6 -109 6 -23 9 -44 7
-46 -2 -2 -15 16 -29 41 -50 84 -30 215 56 367 17 30 83 136 147 235 196 306
251 435 251 594 0 148 -57 279 -258 590 -68 107 -145 237 -171 290 -43 91 -46
101 -46 181 0 72 4 91 24 123 13 21 25 37 27 35 1 -2 -2 -23 -7 -47z m104 -93
c45 -107 152 -224 513 -565 306 -289 400 -441 360 -578 -39 -129 -133 -242
-450 -543 -364 -344 -440 -444 -441 -574 0 -38 -1 -68 -2 -68 -12 0 -33 69
-33 107 1 103 70 216 299 486 196 231 274 335 326 439 82 163 82 260 1 423
-52 104 -129 208 -328 442 -166 195 -202 243 -253 336 -42 76 -56 161 -34 212
l12 30 7 -55 c4 -30 14 -72 23 -92z m279 6 c120 -113 222 -181 728 -479 368
-216 582 -358 676 -448 83 -78 104 -110 104 -157 0 -47 -22 -81 -105 -158
-117 -109 -284 -218 -795 -517 -283 -165 -489 -300 -590 -385 -41 -35 -61 -48
-45 -31 73 79 212 182 590 436 320 215 460 320 561 420 181 178 182 286 4 465
-99 99 -242 206 -603 449 -321 216 -424 291 -516 377 -58 54 -121 137 -121
158 1 6 9 -5 20 -24 10 -20 51 -67 92 -106z m5195 84 c-57 -98 -187 -201 -615
-491 -365 -246 -499 -345 -599 -445 -181 -180 -182 -282 -3 -463 100 -101 225
-195 565 -424 314 -212 409 -280 513 -368 108 -91 118 -109 13 -24 -104 85
-244 179 -446 299 -719 426 -807 483 -925 594 -76 72 -113 135 -103 174 11 44
72 118 150 180 134 108 266 192 698 445 265 155 481 291 574 361 71 54 168
152 181 185 7 16 15 27 18 25 2 -3 -7 -24 -21 -48z m241 -32 c5 -76 -16 -130
-96 -247 -48 -71 -75 -104 -283 -350 -296 -349 -356 -521 -259 -735 35 -78
126 -211 222 -325 40 -48 120 -142 177 -210 116 -137 199 -259 226 -331 20
-55 17 -150 -6 -173 -12 -12 -14 -8 -11 30 11 135 -75 246 -515 664 -412 391
-460 509 -302 743 41 60 203 227 521 536 219 212 288 311 296 424 6 78 25 62
30 -26z m76 42 c71 -122 30 -254 -181 -578 -138 -213 -196 -317 -234 -419 -40
-109 -49 -226 -25 -321 24 -96 120 -282 246 -475 188 -287 242 -417 219 -525
-6 -28 -21 -63 -34 -78 l-24 -27 11 43 c8 31 8 58 0 97 -24 118 -95 228 -312
480 -182 212 -271 333 -322 435 -41 81 -43 89 -43 176 0 86 2 94 42 175 53
106 121 198 312 424 84 99 176 212 203 250 100 140 143 264 120 348 -6 20 -9
37 -7 37 2 0 15 -19 29 -42z m-5988 -29 c-18 -56 -18 -68 -7 -133 16 -98 84
-234 225 -451 185 -284 256 -444 256 -573 0 -142 -56 -262 -304 -647 -171
-265 -220 -431 -162 -544 9 -17 12 -31 7 -31 -17 0 -72 84 -86 134 -37 124
-10 224 163 612 185 414 180 553 -42 1047 -100 223 -128 311 -130 412 -1 62 4
90 20 125 17 37 69 110 78 110 1 0 -6 -28 -18 -61z m3029 -59 c2 0 30 28 64
63 45 47 59 56 54 38 -3 -13 -31 -51 -61 -83 l-56 -59 -63 63 c-37 36 -63 71
-63 83 0 16 14 6 61 -42 34 -35 62 -63 64 -63z m-1669 99 c3 -6 1 -16 -5 -22
-15 -15 -14 -72 4 -142 18 -66 15 -70 -45 -80 -47 -8 -112 -45 -126 -73 -9
-19 -13 -20 -29 -9 -14 11 -16 17 -6 35 14 27 48 45 126 67 33 10 61 19 63 20
1 1 -2 15 -8 31 -21 55 -31 130 -21 158 11 27 35 35 47 15z m3382 -17 c10 -28
3 -95 -17 -159 -11 -37 -10 -38 44 -47 55 -10 129 -49 133 -70 7 -35 -14 -38
-45 -8 -26 26 -54 38 -162 68 -9 3 -11 12 -7 27 4 12 12 51 19 85 10 55 9 68
-5 92 -17 31 -15 40 13 40 10 0 21 -12 27 -28z m1368 -55 c27 -48 29 -60 28
-152 -1 -118 -15 -164 -144 -454 -140 -314 -174 -453 -153 -613 16 -118 52
-223 158 -463 51 -115 103 -241 114 -280 49 -155 36 -274 -38 -356 l-40 -44
19 53 c51 136 7 263 -208 597 -190 295 -262 454 -262 578 0 121 74 287 245
552 149 230 182 289 216 389 32 91 37 168 14 231 -19 51 -19 51 4 31 10 -9 31
-40 47 -69z m-6214 21 c-24 -48 -27 -63 -27 -158 1 -127 20 -188 144 -468 211
-474 211 -567 -2 -1047 -125 -281 -142 -337 -142 -466 0 -100 2 -109 33 -170
l33 -64 -51 50 c-29 28 -65 78 -83 115 -31 63 -32 67 -31 200 1 129 3 143 49
315 139 519 139 573 -11 1130 -34 126 -37 153 -38 270 -1 121 1 134 26 187 21
46 109 158 124 158 2 0 -9 -24 -24 -52z m6357 -87 c72 -136 66 -247 -34 -619
-62 -234 -76 -319 -76 -457 0 -140 14 -221 81 -475 57 -218 58 -222 69 -324
18 -154 -21 -275 -116 -367 -25 -24 -44 -39 -41 -34 2 6 15 33 28 60 19 38 25
71 28 137 5 118 -21 207 -142 480 -212 480 -213 574 -6 1039 44 99 93 218 109
263 56 158 58 290 6 390 l-26 51 45 -44 c25 -24 58 -69 75 -100z m-6464 80
c-57 -80 -77 -149 -77 -271 0 -115 10 -171 77 -420 108 -402 106 -502 -19
-976 -90 -342 -84 -491 28 -637 50 -65 15 -46 -69 38 -109 108 -164 256 -165
435 0 47 12 184 26 305 33 285 34 475 3 725 -29 238 -31 450 -6 535 31 100 75
170 153 245 41 39 76 70 79 70 3 0 -11 -22 -30 -49z m1607 -31 c-2 -38 3 -85
12 -115 8 -27 14 -50 13 -51 -1 0 -24 -6 -51 -13 -62 -15 -123 -46 -138 -70
-14 -23 -38 -16 -38 10 0 26 50 55 131 76 l67 17 -13 37 c-32 91 -31 183 3
177 14 -3 17 -13 14 -68z m3304 45 c7 -30 -2 -102 -21 -155 l-14 -38 52 -13
c71 -17 109 -34 131 -58 22 -24 21 -26 -25 -50 -31 -17 -32 -17 -55 6 -12 12
-57 33 -99 45 -86 25 -80 11 -55 131 8 41 8 68 1 88 -9 25 -7 31 17 48 37 28
60 26 68 -4z m1664 -83 c49 -55 104 -166 119 -240 18 -86 13 -275 -14 -508
-32 -276 -31 -409 1 -697 48 -427 24 -581 -114 -737 -22 -25 -61 -60 -86 -79
l-47 -33 40 53 c54 71 81 146 88 244 7 101 -12 210 -77 455 -108 405 -108 502
5 930 65 249 79 335 72 443 -6 93 -28 161 -78 233 l-33 49 41 -33 c23 -18 61
-54 83 -80z m-3280 29 c40 46 56 58 58 46 2 -10 -21 -44 -55 -81 l-58 -63 -62
66 c-34 36 -62 75 -62 86 0 15 16 3 62 -48 l63 -68 54 62z m-1646 4 c-3 -26 0
-65 9 -101 9 -33 17 -65 19 -73 2 -9 -17 -19 -57 -30 -71 -21 -121 -45 -133
-66 -8 -16 -42 -11 -42 5 0 28 86 74 158 86 47 7 49 13 27 74 -15 42 -21 141
-9 153 3 3 12 3 20 0 11 -4 13 -16 8 -48z m47 -44 c-1 -28 5 -76 14 -106 17
-60 14 -75 -14 -75 -32 0 -115 -32 -149 -58 -24 -17 -37 -21 -45 -13 -24 24
40 63 151 91 35 9 42 15 37 28 -41 105 -45 214 -7 193 12 -7 15 -22 13 -60z
m3123 42 c7 -30 -5 -109 -24 -157 -6 -16 -7 -32 -3 -36 4 -4 39 -15 77 -25 75
-20 131 -58 107 -74 -9 -6 -25 -1 -49 15 -35 24 -120 54 -154 54 -22 0 -22 3
-2 81 9 35 14 84 12 111 -5 43 0 54 24 57 3 1 9 -11 12 -26z m-1528 -59 c27
31 52 56 57 56 18 0 3 -28 -49 -87 l-57 -64 -25 23 c-36 33 -102 118 -102 131
0 6 29 -17 64 -52 l63 -63 49 56z m-1559 45 c7 -7 9 -24 7 -39 -5 -23 9 -99
32 -172 3 -12 -4 -18 -28 -23 -58 -13 -122 -37 -151 -57 -15 -11 -35 -17 -44
-14 -39 15 61 72 159 90 l37 7 -15 42 c-19 51 -31 177 -17 177 5 0 14 -5 20
-11z m3036 -60 c-1 -35 -8 -83 -17 -106 l-15 -43 27 -6 c123 -28 193 -63 163
-83 -8 -5 -27 -1 -55 15 -22 13 -68 30 -100 38 -32 9 -60 17 -62 19 -2 1 4 30
12 62 9 33 17 85 19 115 3 66 2 63 18 57 8 -3 11 -25 10 -68z m-2983 -19 c0
-27 9 -76 19 -110 14 -44 16 -62 8 -65 -7 -2 -39 -11 -72 -20 -33 -9 -74 -25
-91 -36 -34 -21 -64 -25 -64 -9 0 17 60 48 129 66 36 10 68 19 69 20 2 1 -6
42 -19 91 -23 92 -22 127 6 117 11 -4 15 -20 15 -54z m2944 44 c5 -14 -8 -93
-29 -175 -6 -26 -4 -27 63 -43 86 -21 144 -54 120 -67 -11 -6 -33 -1 -70 16
-29 13 -77 30 -106 37 -42 9 -52 15 -47 27 17 43 35 130 35 166 0 40 6 55 21
55 4 0 10 -7 13 -16z m-1438 -66 l51 57 0 -45 c0 -39 -6 -52 -51 -103 l-51
-59 -57 64 c-32 34 -57 72 -58 83 0 15 15 3 56 -43 55 -61 57 -62 76 -45 11
10 34 36 50 58 29 39 29 38 -16 -7 -26 -27 -49 -48 -51 -48 -13 0 -115 119
-114 135 0 15 14 5 57 -42 l58 -63 50 58z m-1460 -13 c2 -27 11 -73 20 -103 8
-30 12 -58 7 -62 -4 -4 -38 -15 -74 -24 -36 -10 -78 -26 -94 -36 -27 -18 -55
-17 -55 1 0 13 69 45 130 59 30 8 58 16 62 20 4 3 -2 34 -12 69 -11 34 -20 81
-20 102 0 34 3 39 16 31 10 -6 17 -26 20 -57z m2854 32 c0 -18 -9 -66 -20
-106 -12 -40 -19 -75 -18 -76 2 -1 27 -8 57 -14 71 -15 144 -48 136 -61 -9
-15 -26 -12 -71 9 -21 10 -65 24 -96 31 -32 7 -58 17 -58 21 0 4 7 34 15 66 8
31 15 78 15 104 0 43 7 56 33 58 4 1 7 -14 7 -32z m950 28 c0 -3 -51 -39 -112
-79 -102 -66 -230 -143 -628 -376 -293 -173 -450 -281 -559 -384 -66 -63 -111
-137 -111 -181 0 -133 200 -296 770 -630 290 -169 480 -285 480 -292 0 -3 -10
1 -22 9 -41 27 -349 193 -608 328 -552 288 -773 427 -845 530 -32 46 -32 68 3
116 77 106 282 233 887 549 404 211 580 307 675 370 72 48 70 47 70 40z
m-4675 -70 c87 -56 310 -177 650 -355 512 -267 699 -379 811 -483 79 -74 94
-107 69 -154 -58 -108 -290 -253 -945 -593 -249 -129 -457 -241 -570 -307 -24
-14 -24 -14 -5 1 11 10 106 68 210 130 105 62 300 178 435 259 135 80 295 180
355 223 181 128 285 246 285 324 0 48 -41 113 -113 184 -120 117 -247 202
-747 496 -286 168 -510 307 -510 317 0 5 3 3 75 -42z m903 33 c7 -7 12 -24 12
-38 0 -15 9 -60 19 -100 11 -41 19 -76 17 -77 -2 -2 -30 -10 -62 -19 -32 -8
-78 -24 -101 -35 -30 -15 -47 -18 -59 -11 -15 8 -12 13 23 30 22 12 70 29 105
37 l65 17 -17 56 c-22 72 -34 152 -23 152 5 0 14 -5 21 -12z m2772 -26 c0 -20
-8 -68 -19 -105 -10 -37 -16 -69 -12 -71 3 -2 24 -7 45 -10 52 -10 146 -45
146 -56 0 -16 -32 -19 -54 -5 -12 8 -56 24 -97 34 -48 12 -74 24 -73 33 2 15
35 186 40 206 7 27 24 10 24 -26z m-2709 -75 c5 -32 17 -76 25 -99 8 -23 13
-42 12 -43 -2 -1 -30 -9 -63 -17 -33 -9 -81 -24 -107 -34 -37 -14 -50 -16 -60
-6 -14 14 32 35 129 59 35 9 63 21 63 28 0 7 -7 31 -15 54 -8 23 -17 65 -21
94 -6 48 -5 51 10 37 9 -9 21 -41 27 -73z m2669 65 c0 -10 -9 -55 -21 -101
-11 -45 -19 -85 -16 -87 3 -3 33 -12 66 -20 34 -8 76 -21 93 -30 26 -13 29
-18 16 -25 -10 -6 -29 -3 -50 6 -19 8 -65 22 -102 31 -60 15 -66 19 -60 38 20
60 34 124 34 152 0 29 15 54 32 54 4 0 8 -8 8 -18z m-70 -138 c-11 -42 -19
-78 -18 -79 2 -1 33 -9 69 -18 100 -25 124 -36 111 -49 -8 -8 -28 -6 -74 10
-35 11 -80 23 -100 27 -43 8 -44 12 -24 81 8 27 17 69 21 94 4 25 13 48 19 52
20 13 18 -38 -4 -118z m-2548 31 c9 -44 20 -91 24 -105 5 -24 2 -26 -53 -38
-32 -8 -77 -22 -100 -32 -35 -15 -44 -16 -59 -5 -16 11 -9 16 64 39 46 14 92
26 103 26 23 0 23 5 4 59 -8 22 -18 64 -23 91 -8 44 -7 51 6 48 11 -2 21 -29
34 -83z m1308 21 c25 29 48 53 53 53 19 2 2 -29 -45 -82 l-51 -58 -51 48 c-47
44 -37 28 24 -40 l25 -28 52 58 c70 77 70 45 1 -36 l-53 -61 -52 58 c-40 44
-52 64 -51 87 1 17 -2 39 -6 50 -4 11 19 -8 51 -41 l58 -62 45 54z m1214 7
c-4 -21 -15 -66 -24 -100 -18 -65 -17 -73 9 -73 26 0 161 -42 161 -50 0 -18
-31 -16 -96 6 -38 13 -79 24 -92 24 -31 0 -35 18 -18 67 8 23 18 63 22 90 3
26 11 54 16 61 19 23 29 12 22 -25z m-3079 -106 c6 -5 -44 18 -110 52 -66 35
-124 68 -130 74 -5 5 44 -18 110 -53 66 -34 125 -67 130 -73z m585 112 c4 -8
15 -45 25 -84 9 -38 19 -78 22 -87 4 -13 -5 -19 -39 -28 -23 -6 -68 -20 -99
-30 -31 -11 -64 -17 -73 -14 -34 13 -5 26 140 64 l42 10 -18 58 c-27 88 -34
135 -19 130 7 -2 16 -11 19 -19z m2427 -116 l-24 -82 89 -21 c48 -12 90 -26
93 -30 11 -18 -31 -19 -93 -1 -37 11 -80 22 -95 26 -22 4 -27 10 -22 22 3 9
15 53 27 97 11 45 25 87 32 95 21 27 18 -20 -7 -106z m828 109 c-15 -13 -265
-143 -265 -138 0 7 256 146 268 146 3 0 2 -4 -3 -8z m-3188 -95 c12 -45 24
-89 28 -99 5 -12 -1 -18 -27 -23 -18 -3 -66 -16 -106 -27 -52 -15 -76 -18 -84
-10 -10 10 74 42 155 57 l34 7 -23 74 c-27 84 -30 116 -11 109 7 -3 22 -42 34
-88z m2332 31 c-4 -24 -15 -65 -23 -93 -9 -27 -16 -53 -16 -57 0 -4 25 -12 56
-18 87 -18 133 -36 112 -45 -14 -5 -185 30 -197 41 -8 7 43 190 57 202 9 6 17
12 18 12 1 0 -2 -19 -7 -42z m-2312 20 c9 -12 53 -172 53 -190 0 -5 -6 -8 -14
-8 -7 0 -50 -11 -94 -23 -45 -13 -87 -20 -94 -16 -19 12 -10 16 82 40 47 13
86 23 88 24 1 1 -9 42 -23 90 -14 48 -25 89 -25 91 0 9 18 3 27 -8z m1107 -79
l39 -43 49 53 c64 69 65 38 1 -37 l-47 -55 -53 59 c-29 32 -53 68 -53 79 1 18
2 18 13 4 7 -9 30 -36 51 -60z m-1044 11 c0 -9 9 -43 20 -75 11 -33 19 -63 17
-68 -5 -16 -187 -58 -205 -48 -12 7 -4 12 37 25 29 8 69 18 89 22 20 4 40 8
43 10 4 2 -4 41 -17 86 -29 100 -29 106 -4 83 11 -10 20 -26 20 -35z m1376
-111 c32 -64 104 -83 199 -54 27 8 50 13 51 12 1 -1 -4 -13 -11 -27 -9 -15
-15 -19 -15 -10 0 12 -4 11 -15 -4 -8 -11 -15 -15 -15 -8 0 12 1 13 -154 -77
-49 -28 -91 -50 -92 -48 -2 2 -4 71 -5 155 0 104 -4 152 -12 152 -8 0 -7 4 1
12 15 15 16 32 1 22 -7 -4 -6 2 2 17 11 22 13 19 31 -45 10 -37 25 -81 34 -97z
m827 129 c-3 -18 -14 -57 -25 -87 -22 -67 -22 -71 0 -71 17 0 120 -24 152 -36
13 -5 13 -7 -1 -14 -10 -6 -48 -1 -108 13 -89 21 -92 23 -86 47 15 65 41 156
48 168 15 23 26 12 20 -20z m-1356 10 c-2 -7 0 -21 5 -30 6 -12 5 -18 -2 -18
-7 0 -7 -7 1 -21 6 -12 7 -19 1 -15 -7 4 -11 -42 -11 -131 -1 -75 -3 -138 -5
-140 -2 -2 -35 15 -74 37 -40 23 -77 38 -83 34 -7 -4 -9 -3 -6 3 4 5 -21 24
-54 41 -49 25 -60 28 -55 14 5 -14 3 -13 -9 2 -8 11 -15 23 -15 28 0 4 -5 7
-11 6 -6 -2 -13 2 -16 9 -3 7 17 5 57 -8 123 -38 187 -20 226 64 13 29 26 71
30 94 3 24 11 43 16 43 5 0 8 -6 5 -12z m1289 -110 c-21 -69 -22 -78 -7 -82 9
-2 49 -12 89 -21 50 -12 70 -21 63 -28 -7 -7 -37 -4 -96 9 -48 10 -91 21 -95
24 -11 7 39 182 54 192 19 13 17 -15 -8 -94z m-2075 -3 c15 -49 27 -90 26 -91
-6 -6 -168 -44 -186 -44 -61 0 12 32 125 55 l32 6 -24 75 c-27 85 -29 97 -12
92 6 -2 24 -44 39 -93z m-721 49 c0 -2 -13 2 -30 11 -16 9 -30 18 -30 21 0 2
14 -2 30 -11 17 -9 30 -18 30 -21z m1792 -22 c27 31 47 47 48 37 0 -16 -79
-117 -93 -118 -5 -1 -29 20 -54 47 -28 29 -37 36 -25 17 11 -16 33 -43 50 -58
l29 -28 46 53 c33 37 47 48 47 35 0 -11 -21 -44 -47 -74 l-48 -56 -47 54 c-26
30 -48 50 -47 44 0 -5 21 -34 48 -63 l48 -52 43 54 c24 30 47 53 52 50 12 -7
-5 -34 -55 -89 l-44 -49 -39 44 c-60 66 -62 70 -61 145 l0 69 51 -57 50 -58
48 53z m967 -19 c-11 -38 -22 -78 -25 -89 -5 -20 1 -23 70 -38 42 -10 78 -21
81 -26 11 -18 -24 -17 -106 4 l-86 21 25 85 c13 47 29 91 34 98 23 28 25 8 7
-55z m-1990 -39 c12 -39 21 -76 21 -81 0 -16 -177 -56 -197 -44 -18 10 3 18
115 41 28 7 52 15 52 18 0 4 -9 36 -20 70 -11 35 -20 71 -20 80 0 35 28 -13
49 -84z m1936 -14 c-15 -45 -25 -83 -23 -85 2 -1 38 -10 82 -20 54 -12 75 -20
68 -27 -14 -14 -182 20 -182 36 1 26 51 170 62 177 7 4 14 7 15 5 2 -2 -8 -40
-22 -86z m-1889 -11 c13 -41 24 -79 24 -84 0 -6 -35 -18 -77 -28 -87 -19 -123
-21 -123 -8 0 9 121 41 154 41 21 0 20 4 -9 90 -30 87 -29 83 -9 72 9 -5 27
-42 40 -83z m1840 -23 c-13 -42 -21 -78 -17 -80 3 -2 36 -9 74 -16 67 -12 89
-23 64 -33 -13 -5 -161 24 -171 34 -8 7 39 156 55 175 22 27 21 0 -5 -80z
m-1790 -17 c13 -40 22 -75 20 -77 -12 -12 -170 -41 -183 -33 -14 8 -14 9 3 14
20 6 79 20 126 31 l27 6 -25 72 c-28 84 -30 98 -7 76 9 -9 26 -50 39 -89z
m664 61 c0 -5 -2 -10 -4 -10 -3 0 -8 5 -11 10 -3 6 -1 10 4 10 6 0 11 -4 11
-10z m1100 3 c0 -5 -9 -37 -20 -73 -11 -36 -20 -68 -20 -72 0 -8 16 -13 94
-28 41 -8 55 -15 48 -22 -8 -8 -35 -6 -93 5 -45 9 -84 18 -86 20 -2 3 29 102
52 165 5 13 25 17 25 5z m-1718 -89 c31 -91 37 -84 -80 -104 -48 -9 -76 -10
-83 -3 -6 6 18 15 71 27 44 9 80 21 80 25 0 4 -9 34 -20 66 -23 68 -24 78 -7
73 6 -2 24 -40 39 -84z m1408 62 c0 -3 -4 -8 -10 -11 -5 -3 -10 -1 -10 4 0 6
5 11 10 11 6 0 10 -2 10 -4z m240 -80 c-11 -33 -20 -62 -20 -66 0 -4 17 -11
38 -14 84 -16 117 -27 100 -37 -20 -11 -168 20 -168 36 0 19 42 139 54 154 20
25 18 -10 -4 -73z m-1610 17 c41 -111 43 -107 -49 -127 -53 -11 -87 -14 -98
-8 -20 12 -12 14 85 33 34 6 62 15 62 19 0 4 -9 33 -20 65 -23 66 -24 75 -11
75 5 0 19 -26 31 -57z m746 -9 l48 -56 52 58 c66 73 72 49 8 -27 -25 -30 -49
-58 -54 -62 -7 -8 -120 119 -120 135 0 19 21 4 66 -48z m264 36 c0 -5 -5 -10
-11 -10 -5 0 -7 5 -4 10 3 6 8 10 11 10 2 0 4 -4 4 -10z m554 -67 c-13 -43
-24 -78 -24 -79 0 -1 34 -7 75 -14 53 -9 73 -16 66 -23 -8 -8 -35 -7 -88 2
-43 7 -79 14 -81 16 -5 5 39 149 50 163 24 29 25 7 2 -65z m-1537 55 c15 -19
54 -141 47 -147 -9 -9 -149 -38 -163 -33 -27 9 -6 21 57 32 37 7 70 14 74 17
4 2 -4 35 -17 73 -22 65 -21 87 2 58z m713 -73 l54 -65 30 37 c67 81 75 89 76
71 0 -9 -23 -45 -52 -79 l-52 -63 -58 65 c-32 35 -58 72 -58 82 0 9 1 17 3 17
2 0 27 -29 57 -65z m255 55 c-3 -5 -11 -10 -16 -10 -6 0 -7 5 -4 10 3 6 11 10
16 10 6 0 7 -4 4 -10z m521 -68 c-28 -81 -34 -72 68 -92 45 -9 56 -14 43 -21
-16 -9 -134 6 -157 21 -12 7 34 150 52 161 7 5 14 7 15 5 2 -1 -8 -35 -21 -74z
m-1414 -14 l27 -76 -71 -16 c-80 -18 -105 -20 -112 -7 -3 5 23 15 59 22 36 7
70 16 76 20 10 6 1 46 -29 128 -3 9 0 12 9 9 8 -2 26 -39 41 -80z m256 37 c-3
-3 -9 2 -12 12 -6 14 -5 15 5 6 7 -7 10 -15 7 -18z m1112 -50 c-12 -36 -20
-68 -17 -71 2 -3 32 -10 66 -16 63 -12 82 -28 33 -28 -16 0 -54 5 -84 11 l-56
11 26 77 c23 68 39 97 50 86 2 -2 -6 -34 -18 -70z m-1323 -1 c33 -89 33 -89
-53 -108 -47 -10 -81 -13 -91 -7 -19 10 -15 12 80 32 31 7 57 15 57 19 0 4 -9
33 -20 65 -24 69 -24 68 -7 63 6 -3 22 -31 34 -64z m473 24 c0 -6 -7 -5 -15 2
-9 8 -15 9 -15 2 0 -6 5 -14 10 -17 6 -3 10 -14 10 -23 -1 -15 -3 -14 -17 3
-16 20 -15 16 2 -28 3 -8 -1 -14 -9 -14 -8 0 -12 6 -8 15 3 9 1 13 -4 10 -5
-4 -9 4 -9 17 0 13 4 21 9 18 4 -3 5 5 1 17 -5 15 -4 20 4 16 6 -4 11 -2 11 5
0 8 4 8 15 -1 8 -7 15 -17 15 -22z m195 -76 c11 13 36 43 56 67 l36 44 0 -41
c0 -23 5 -48 12 -55 8 -11 2 -25 -27 -64 -60 -80 -91 -115 -101 -111 -17 6
-131 152 -131 168 1 16 18 -2 95 -93 l40 -48 59 71 c32 39 56 73 54 76 -3 2
-28 -25 -57 -61 -29 -36 -55 -65 -57 -65 -1 0 -30 32 -64 72 -60 72 -64 84
-51 146 1 2 27 -26 58 -63 l57 -67 21 24z m172 83 c-4 -8 -11 -15 -17 -15 -7
0 -7 6 0 21 13 23 26 19 17 -6z m18 -53 c-16 -27 -16 -27 -9 -2 6 23 6 24 -11
10 -19 -16 -19 -14 5 33 14 28 14 28 22 7 5 -14 3 -31 -7 -48z m419 -4 c-13
-39 -24 -72 -24 -73 0 -1 32 -8 71 -14 49 -9 68 -16 60 -24 -13 -13 -161 11
-161 26 0 15 42 130 53 145 23 30 24 6 1 -60z m-1224 -24 c12 -36 20 -67 19
-69 -2 -2 -39 -9 -82 -16 -53 -9 -80 -10 -88 -2 -7 7 13 14 66 23 41 7 75 14
75 15 0 1 -9 28 -20 60 -24 69 -25 81 -6 65 8 -6 25 -41 36 -76z m177 64 c-3
-8 -6 -5 -6 6 -1 11 2 17 5 13 3 -3 4 -12 1 -19z m43 -22 c0 -12 -5 -7 -19 24
-11 24 -11 24 3 6 9 -11 16 -24 16 -30z m749 -6 c0 -10 -3 -8 -9 5 -12 27 -12
43 0 25 5 -8 9 -22 9 -30z m-923 -62 c15 -41 20 -65 13 -69 -6 -3 -43 -12 -82
-18 -89 -15 -116 2 -31 19 101 20 94 14 74 68 -10 26 -21 58 -25 72 -15 53 28
-8 51 -72z m1129 22 c-26 -77 -29 -71 45 -85 64 -12 75 -17 59 -25 -14 -8
-142 10 -153 21 -7 6 32 128 47 147 23 29 24 7 2 -58z m-45 -26 c-26 -77 -25
-79 57 -89 29 -3 53 -11 53 -16 0 -12 -45 -11 -112 2 l-56 11 24 70 c23 69 42
103 51 94 3 -3 -5 -35 -17 -72z m-1035 -27 c10 -31 16 -59 13 -62 -11 -11
-147 -32 -159 -24 -16 10 -8 13 74 29 31 6 57 16 57 21 0 5 -9 32 -20 61 -11
29 -20 58 -20 63 1 22 37 -36 55 -88z m214 68 c5 2 14 -2 21 -10 7 -8 16 -12
21 -9 5 3 6 -2 2 -12 -5 -14 -9 -13 -25 7 -14 17 -18 19 -14 7 8 -28 -9 -21
-22 7 -15 32 -15 46 -1 22 6 -9 14 -15 18 -12z m586 -5 c-18 -35 -29 -39 -20
-7 6 21 6 21 -14 -3 -11 -14 -21 -19 -21 -12 0 7 -5 10 -12 6 -7 -4 -8 -3 -4
5 4 6 11 9 16 6 4 -3 13 2 20 10 7 8 16 13 20 10 5 -3 11 -1 15 5 14 23 14 8
0 -20z m-615 -13 c0 -5 -4 -5 -10 -2 -5 3 -10 14 -10 23 0 15 2 15 10 2 5 -8
10 -19 10 -23z m647 8 c-4 -8 -11 -15 -17 -15 -7 0 -7 6 0 21 13 23 26 19 17
-6z m-786 -82 c11 -35 19 -66 18 -68 -2 -2 -39 -9 -82 -16 -53 -9 -80 -10 -88
-2 -7 7 13 14 66 23 41 7 75 14 75 15 0 2 -36 104 -46 130 -7 20 -7 20 14 1
12 -10 31 -47 43 -83z m944 28 c-14 -38 -25 -71 -25 -74 0 -3 32 -11 71 -17
49 -9 68 -15 60 -23 -7 -7 -32 -6 -83 2 -40 6 -74 14 -77 17 -6 5 38 134 52
152 24 30 25 6 2 -57z m-49 -29 c-14 -39 -22 -73 -18 -76 4 -2 25 -6 47 -10
86 -14 97 -18 87 -28 -11 -11 -159 9 -167 23 -7 10 45 152 58 161 19 12 18 4
-7 -70z m-854 -12 c15 -40 25 -77 23 -80 -9 -14 -166 -33 -177 -22 -7 7 13 14
64 22 40 7 76 14 80 16 3 2 -2 25 -12 51 -31 84 -33 96 -19 91 8 -3 26 -38 41
-78z m317 20 c25 -33 57 -72 72 -86 l27 -25 62 78 c84 103 80 99 80 81 0 -9
-32 -58 -72 -109 l-71 -93 -35 40 c-58 67 -122 152 -122 163 0 22 16 9 59 -49z
m494 -26 c-29 -86 -28 -88 46 -99 71 -10 86 -15 70 -26 -14 -9 -20 -9 -121 11
l-56 11 25 75 c21 64 44 104 58 104 2 0 -8 -34 -22 -76z m-796 54 c11 -15 65
-158 59 -158 -2 0 -40 -7 -85 -15 -51 -10 -87 -12 -97 -7 -19 10 -5 15 77 27
74 11 76 13 46 94 -24 65 -24 90 0 59z m323 -106 c40 -51 77 -89 81 -85 3 5
37 46 74 93 83 104 85 107 85 93 0 -5 -11 -27 -25 -47 -27 -40 -31 -51 -15
-41 21 13 -15 -52 -69 -124 l-55 -73 -42 48 c-46 53 -107 157 -98 167 4 3 -3
19 -15 35 -11 16 -17 32 -14 36 4 3 9 3 13 -1 3 -5 39 -50 80 -101z m425 23
c-14 -37 -25 -71 -25 -75 0 -4 30 -13 68 -20 90 -16 100 -19 84 -29 -12 -7
-171 15 -182 25 -6 7 38 132 58 164 26 41 24 7 -3 -65z m-669 -21 c15 -41 25
-76 23 -79 -10 -10 -176 -32 -188 -25 -17 9 -7 13 92 30 76 14 73 6 36 105
-23 60 -24 71 -5 56 8 -7 27 -46 42 -87z m624 -3 c-17 -45 -30 -83 -30 -85 0
-1 39 -9 86 -16 59 -8 82 -16 75 -23 -12 -12 -191 10 -191 24 0 19 62 174 73
181 6 4 13 6 14 4 2 -1 -11 -39 -27 -85z m-583 -11 c18 -46 30 -87 26 -91 -5
-4 -46 -14 -93 -22 -47 -8 -71 -15 -55 -15 48 -1 158 23 162 34 2 6 -10 46
-26 89 -29 74 -33 101 -11 79 5 -5 25 -49 44 -99 24 -64 31 -92 23 -96 -7 -4
-53 -13 -103 -20 -88 -12 -93 -12 -118 8 -15 12 -23 23 -19 26 4 3 42 10 83
17 41 7 78 14 82 16 3 2 -7 39 -23 81 -34 90 -33 86 -17 81 7 -3 27 -42 45
-88z m498 73 c-32 -79 -86 -226 -83 -229 2 -1 59 -11 126 -21 129 -19 170 -40
55 -29 -112 10 -213 28 -213 37 0 31 99 259 112 259 6 0 7 -8 3 -17z m0 -93
c-21 -55 -35 -103 -32 -106 3 -3 51 -13 106 -22 56 -9 101 -20 101 -25 0 -10
-79 -4 -187 14 l-62 11 23 61 c45 118 59 152 69 165 23 30 17 -4 -18 -98z m41
12 c-39 -104 -46 -94 77 -113 77 -12 105 -29 45 -28 -37 0 -176 24 -183 31 -7
7 64 191 77 200 7 4 14 6 15 4 2 -2 -12 -44 -31 -94z m-457 -16 c22 -57 41
-108 41 -114 0 -11 -24 -18 -98 -28 -29 -4 -50 -9 -48 -12 6 -5 166 18 166 24
0 2 -18 50 -41 106 -23 57 -43 109 -46 116 -3 6 -1 12 4 12 13 0 113 -222 113
-251 0 -8 -196 -39 -244 -39 -48 0 -46 18 2 23 34 3 33 4 -10 5 -68 3 -59 18
15 26 34 4 84 12 110 18 55 11 55 2 2 136 -21 54 -28 82 -20 82 7 0 31 -47 54
-104z m115 -108 c14 -37 22 -69 18 -71 -21 -13 -190 -29 -205 -20 -14 7 5 13
78 22 68 10 95 17 95 27 0 8 -16 53 -35 101 -19 48 -35 89 -35 92 0 18 63 -94
84 -151z m206 55 c-21 -54 -35 -101 -32 -105 4 -3 51 -12 106 -20 84 -11 94
-14 65 -20 -35 -8 -188 9 -202 22 -14 12 79 220 98 220 2 0 -14 -44 -35 -97z
m-915 27 c-4 -6 8 -10 27 -11 27 0 30 -2 13 -9 -18 -8 -17 -9 8 -9 16 -1 26
-5 22 -11 -3 -5 1 -10 9 -10 9 0 16 -4 16 -10 0 -5 7 -10 15 -10 8 0 15 -3 15
-7 0 -5 40 -30 89 -58 l88 -49 -95 -58 c-52 -32 -99 -58 -103 -58 -5 0 -9 -4
-9 -10 0 -5 -7 -10 -15 -10 -8 0 -15 -4 -15 -10 0 -5 -7 -10 -16 -10 -8 0 -12
-4 -9 -10 4 -6 -6 -10 -22 -10 -22 0 -25 -2 -13 -10 12 -8 10 -10 -10 -10 -22
0 -20 5 32 58 31 31 61 67 67 79 30 59 1 131 -87 211 -41 37 -44 42 -24 42 13
0 20 -4 17 -10z m1553 -47 c-64 -67 -78 -90 -78 -132 0 -47 16 -78 69 -134
l50 -52 -42 4 c-33 3 -38 5 -22 12 18 7 18 8 -4 8 -13 1 -21 4 -18 7 10 10
-82 71 -196 132 l-38 20 77 46 c42 25 79 46 81 46 2 0 24 14 48 30 24 17 48
30 54 30 18 0 12 20 -6 21 -17 2 34 15 67 18 8 0 -11 -25 -42 -56z m-728 -47
c19 24 35 42 37 40 2 -1 -4 -24 -13 -50 -18 -54 -12 -65 36 -67 14 0 34 -4 45
-8 15 -7 6 -10 -37 -16 -64 -8 -66 -12 -42 -70 21 -52 12 -54 -27 -5 l-33 41
-43 -48 -42 -48 19 53 c11 29 20 56 20 61 0 5 -26 12 -57 16 -44 6 -53 9 -38
16 11 4 31 8 45 8 48 2 53 13 31 72 l-20 54 42 -47 42 -46 35 44z m637 38 c-3
-3 -12 -4 -19 -1 -8 3 -5 6 6 6 11 1 17 -2 13 -5z m-1262 -24 c-3 -5 -12 -10
-18 -10 -7 0 -6 4 3 10 19 12 23 12 15 0z m45 6 c0 -2 -7 -7 -16 -10 -8 -3
-12 -2 -9 4 6 10 25 14 25 6z m1120 -6 c0 -5 -2 -10 -4 -10 -3 0 -8 5 -11 10
-3 6 -1 10 4 10 6 0 11 -4 11 -10z m-45 -20 c4 -6 -5 -10 -20 -10 -15 0 -24 4
-20 10 3 6 12 10 20 10 8 0 17 -4 20 -10z m-1032 -7 c-7 -2 -19 -2 -25 0 -7 3
-2 5 12 5 14 0 19 -2 13 -5z m32 -23 c4 -6 -6 -10 -24 -10 -16 0 -33 5 -36 10
-4 6 6 10 24 10 16 0 33 -4 36 -10z m993 3 c-10 -2 -28 -2 -40 0 -13 2 -5 4
17 4 22 1 32 -1 23 -4z m-28 -23 c-36 -11 -52 -11 -45 0 3 6 21 10 38 9 31 -1
31 -1 7 -9z m-952 -7 c-10 -2 -26 -2 -35 0 -10 3 -2 5 17 5 19 0 27 -2 18 -5z
m9 -19 c-3 -3 -12 -4 -19 -1 -8 3 -5 6 6 6 11 1 17 -2 13 -5z m316 -25 c40 -6
73 -12 75 -14 6 -6 -57 -155 -81 -191 -15 -21 -27 -36 -27 -34 0 3 18 50 40
105 l39 100 -32 7 c-18 4 -60 10 -95 14 -34 3 -65 10 -68 15 -7 12 63 11 149
-2z m412 2 c-11 -4 -59 -13 -107 -20 l-87 -13 26 -71 c14 -40 32 -85 40 -102
l14 -30 -26 30 c-22 27 -91 183 -83 190 2 2 28 7 58 13 67 12 194 14 165 3z
m89 -22 c-10 -4 -66 -14 -122 -22 -57 -9 -106 -18 -109 -20 -4 -4 24 -77 84
-224 3 -7 1 -13 -5 -13 -16 0 -121 244 -109 256 6 6 162 32 222 36 47 4 67 -3
39 -13z m146 5 c0 -2 -16 -4 -35 -4 -19 0 -35 4 -35 8 0 4 16 6 35 4 19 -2 35
-6 35 -8z m-967 -1 c-7 -2 -21 -2 -30 0 -10 3 -4 5 12 5 17 0 24 -2 18 -5z
m246 -8 c51 -7 95 -16 97 -18 12 -12 -92 -257 -109 -257 -5 0 -6 8 -2 18 4 9
24 62 45 117 46 118 54 108 -105 127 -106 12 -141 28 -62 28 23 0 84 -7 136
-15z m-254 -15 c-3 -5 -22 -10 -41 -10 -21 0 -33 4 -29 10 3 6 22 10 41 10 21
0 33 -4 29 -10z m859 1 c7 -10 -5 -13 -124 -32 -41 -7 -79 -16 -84 -20 -5 -4
8 -50 29 -104 35 -91 41 -121 17 -93 -5 7 -28 58 -50 113 -47 117 -53 108 88
129 121 18 118 18 124 7z m124 2 c-10 -2 -28 -2 -40 0 -13 2 -5 4 17 4 22 1
32 -1 23 -4z m-778 -13 c83 -14 100 -19 100 -31 0 -27 -83 -219 -94 -219 -9 0
-3 26 20 85 52 129 52 127 -31 141 -38 7 -85 13 -102 13 -18 1 -33 6 -33 11 0
13 57 13 140 0z m370 -151 c16 -31 27 -59 24 -62 -3 -3 2 -17 11 -31 16 -24
13 -66 -4 -66 -5 0 -26 21 -47 48 -21 26 -52 63 -70 84 l-32 36 -68 -84 c-38
-47 -70 -80 -72 -74 -3 9 22 45 125 178 12 14 15 14 33 -3 12 -10 46 -52 77
-92 31 -40 58 -73 60 -73 8 0 -19 39 -83 119 l-68 84 -38 -44 c-21 -24 -57
-70 -81 -102 -40 -55 -67 -64 -32 -11 9 14 14 28 11 31 -9 9 41 97 90 158 l48
58 43 -49 c23 -27 56 -74 73 -105z m415 141 c-3 -5 -12 -10 -20 -10 -8 0 -17
5 -20 10 -4 6 5 10 20 10 15 0 24 -4 20 -10z m-1022 -7 c-7 -2 -21 -2 -30 0
-10 3 -4 5 12 5 17 0 24 -2 18 -5z m205 -14 c45 -6 84 -14 86 -18 5 -8 -62
-183 -74 -195 -21 -21 -18 4 10 80 17 43 30 84 30 91 0 7 -35 16 -90 24 -49 7
-90 16 -90 19 0 12 11 18 28 14 9 -1 54 -8 100 -15z m707 12 c7 -12 -11 -17
-112 -32 l-81 -12 28 -76 c15 -42 32 -84 36 -95 5 -14 3 -17 -7 -14 -14 5 -91
189 -83 198 5 5 165 37 196 39 9 1 19 -3 23 -8z m-1015 -21 c0 -5 -2 -10 -4
-10 -3 0 -8 5 -11 10 -3 6 -1 10 4 10 6 0 11 -4 11 -10z m35 0 c3 -6 -1 -7 -9
-4 -18 7 -21 14 -7 14 6 0 13 -4 16 -10z m243 -20 c39 -7 72 -13 72 -15 0 -15
-64 -176 -72 -181 -19 -12 -17 4 12 83 l29 81 -72 12 c-40 6 -78 13 -85 16
-22 7 -3 24 21 19 12 -2 55 -9 95 -15z m761 11 c13 -9 -15 -17 -131 -37 -21
-3 -38 -8 -38 -9 0 -2 13 -39 30 -81 31 -81 32 -95 8 -70 -15 14 -72 165 -66
171 3 4 148 31 173 34 6 0 16 -3 24 -8z m-1092 -17 c-3 -3 -12 -4 -19 -1 -8 3
-5 6 6 6 11 1 17 -2 13 -5z m271 -18 c40 -7 75 -16 78 -19 9 -8 -46 -155 -64
-173 -7 -8 -17 -12 -22 -9 -5 3 -11 1 -15 -5 -3 -5 -10 -10 -15 -10 -5 0 2 32
16 72 13 39 24 75 24 79 0 4 -25 10 -57 14 -71 9 -101 19 -84 29 10 7 131 -7
168 -19 7 -2 4 -24 -13 -70 -13 -36 -24 -71 -24 -78 1 -7 14 24 30 67 31 82
29 95 -12 96 -38 0 -118 22 -112 31 7 11 12 11 102 -5z m867 5 c3 -5 -29 -15
-70 -22 -41 -7 -80 -16 -85 -19 -7 -4 -2 -32 15 -77 30 -83 31 -96 5 -65 -21
25 -65 150 -56 159 7 7 122 30 158 32 15 0 29 -3 33 -8z m39 -30 c3 -5 -30
-14 -74 -22 -52 -8 -80 -17 -80 -26 0 -7 11 -42 25 -78 20 -54 21 -64 8 -56
-13 7 -78 158 -70 162 1 1 29 7 62 14 74 15 122 18 129 6z m-985 -32 c36 -6
67 -12 68 -14 5 -4 -47 -149 -57 -159 -20 -20 -19 3 4 71 l24 71 -74 12 c-40
7 -71 17 -68 21 7 12 24 11 103 -2z m1021 2 c0 -4 -34 -14 -75 -21 -41 -7 -75
-14 -75 -15 0 -2 11 -33 25 -69 29 -78 29 -77 11 -70 -13 5 -73 151 -65 158
19 16 179 32 179 17z m39 -20 c16 -10 8 -13 -81 -31 -32 -6 -58 -13 -58 -14 0
-2 9 -29 20 -61 24 -69 25 -81 6 -65 -15 12 -61 138 -54 146 4 4 122 31 143
33 6 0 16 -3 24 -8z m-1089 -12 c27 -6 50 -15 50 -19 0 -24 -54 -149 -66 -154
-18 -7 -18 -8 11 70 14 37 24 69 22 71 -2 1 -30 8 -63 14 -32 7 -63 16 -68 20
-14 13 53 11 114 -2z m582 -107 c50 -64 41 -84 -10 -22 -20 25 -49 58 -63 74
l-26 30 -59 -72 c-54 -67 -74 -84 -74 -64 0 4 30 45 67 91 l67 84 28 -34 c16
-19 47 -58 70 -87z m-639 83 c26 -4 50 -11 53 -16 6 -10 -33 -138 -47 -153
-20 -22 -20 7 0 65 21 63 20 79 -4 79 -8 0 -37 5 -66 11 -36 8 -48 14 -38 20
8 5 23 7 34 5 11 -3 41 -8 68 -11z m1191 6 c6 -9 -75 -31 -110 -31 -24 0 -26
-22 -4 -84 11 -33 18 -61 16 -64 -8 -7 -35 43 -55 101 l-20 57 22 5 c116 27
143 30 151 16z m-1244 -32 c25 -5 50 -11 57 -14 16 -6 -33 -151 -54 -159 -10
-4 -13 -2 -10 6 17 46 40 129 36 132 -3 3 -25 7 -49 10 l-45 6 39 -10 c22 -6
42 -12 44 -14 9 -10 -44 -149 -60 -157 -23 -12 -23 -12 7 67 14 36 25 68 25
69 0 2 -31 9 -70 16 -79 14 -92 28 -27 30 23 1 34 3 24 6 -9 2 -15 9 -12 14 8
12 38 11 95 -2z m1295 2 c3 -5 -3 -12 -12 -14 -10 -2 -4 -3 13 -2 17 2 37 -1
44 -5 14 -9 -23 -21 -102 -36 -21 -3 -38 -7 -38 -9 0 -1 9 -28 20 -60 24 -69
25 -81 6 -65 -14 11 -62 138 -55 144 2 2 22 8 44 14 l40 12 -44 -6 c-24 -2
-48 -7 -52 -10 -5 -3 2 -34 15 -69 22 -61 21 -82 -1 -52 -13 16 -57 137 -52
141 7 6 103 24 136 25 17 0 34 -3 38 -8z m-635 -73 c33 -39 60 -79 60 -87 -1
-16 -16 -2 -91 86 l-36 43 -53 -65 c-30 -36 -55 -65 -57 -65 -21 0 87 158 109
160 4 0 34 -32 68 -72z m-762 18 c35 -8 66 -16 69 -19 6 -7 -35 -136 -50 -154
-23 -31 -24 -8 -1 59 27 81 26 82 -44 93 -63 9 -77 16 -60 26 16 11 10 11 86
-5z m1491 5 c10 -6 -4 -13 -45 -21 -79 -15 -94 -20 -94 -29 0 -4 9 -34 20 -66
24 -69 24 -66 6 -59 -8 3 -26 39 -40 79 l-24 74 56 11 c32 6 62 13 67 15 18 6
40 5 54 -4z m-726 -80 c39 -45 46 -60 44 -92 -1 -22 -4 -39 -7 -39 -3 0 -27
27 -55 60 l-49 61 -48 -53 c-26 -29 -47 -57 -47 -63 -1 -5 21 14 47 44 l47 53
53 -60 c28 -33 52 -69 52 -79 0 -12 -17 1 -53 42 l-54 59 -34 -38 c-55 -63
-65 -86 -12 -28 l48 53 53 -63 c68 -82 67 -110 -2 -35 l-53 58 -50 -57 -50
-58 0 70 c-1 68 0 70 46 126 25 32 51 58 56 57 6 0 30 -25 54 -55 24 -30 46
-52 49 -50 2 3 -19 33 -49 67 l-53 62 -58 -64 c-74 -82 -76 -55 -2 35 47 55
59 65 69 54 7 -7 34 -37 58 -67z m-811 48 c29 -6 58 -12 65 -14 15 -5 -31
-147 -53 -166 -19 -15 -18 -3 6 66 11 32 20 63 20 70 0 7 -30 17 -70 24 -39 7
-68 17 -64 22 7 12 31 11 96 -2z m1588 2 c0 -5 -30 -14 -67 -21 -38 -7 -71
-14 -75 -17 -4 -2 4 -35 17 -73 21 -63 22 -69 6 -61 -15 8 -56 115 -56 146 0
10 90 32 143 34 17 0 32 -3 32 -8z m-1090 -8 c0 -5 -10 -19 -21 -33 l-20 -25
16 33 c15 30 25 41 25 25z m525 -15 c-9 32 2 27 21 -10 16 -30 16 -32 1 -19
-10 7 -17 10 -17 6 0 -5 -8 -1 -18 8 -10 10 -22 14 -26 10 -4 -4 -4 1 0 11 7
17 8 17 26 -5 19 -24 19 -24 13 -1z m-996 -23 c8 -8 -51 -164 -65 -169 -7 -3
-14 -4 -14 -3 0 1 11 36 24 79 l24 76 -67 12 c-77 15 -92 21 -66 30 16 6 153
-16 164 -25z m441 28 c-1 -10 -39 -60 -40 -51 0 14 23 58 32 58 4 0 8 -3 8 -7z
m610 -26 c0 -23 -2 -22 -19 10 -10 19 -9 22 4 17 8 -4 15 -15 15 -27z m559 24
c16 -10 7 -14 -86 -32 -35 -6 -63 -12 -63 -14 0 -1 11 -34 24 -73 23 -67 22
-90 -1 -59 -12 14 -57 147 -52 152 4 3 135 32 154 34 6 0 16 -3 24 -8z m-1209
-22 c-7 -11 -14 -18 -17 -15 -8 8 5 36 17 36 7 0 7 -6 0 -21z m535 -29 c0 -33
-5 -52 -14 -55 -22 -9 -33 9 -25 40 7 27 8 27 22 9 14 -18 14 -13 -4 30 -5 14
-4 17 4 12 7 -4 12 -2 12 3 0 6 1 11 3 11 2 0 3 -22 2 -50z m-429 3 c-8 -15
-15 -25 -16 -21 0 12 23 58 27 54 3 -2 -2 -17 -11 -33z m-628 13 c35 -8 65
-16 68 -19 8 -8 -37 -149 -53 -166 -22 -26 -22 -8 3 69 23 75 21 89 -13 90
-34 0 -112 23 -107 31 7 12 26 11 102 -5z m1786 6 c3 -5 -31 -16 -74 -26 -44
-9 -80 -21 -80 -25 0 -4 9 -34 20 -66 24 -69 25 -81 6 -66 -14 12 -56 122 -56
147 0 22 172 55 184 36z m-1317 -24 c-3 -8 -6 -5 -6 6 -1 11 2 17 5 13 3 -3 4
-12 1 -19z m766 -68 c25 -12 30 -12 38 0 8 12 9 10 4 -6 -4 -17 0 -23 17 -27
13 -4 24 -5 24 -4 1 1 12 -7 25 -18 l22 -20 -6 20 c-7 20 -7 20 8 1 8 -11 15
-23 15 -28 0 -4 5 -7 11 -5 6 1 13 -3 16 -9 2 -8 -20 -5 -64 7 -126 35 -180
19 -218 -63 -14 -29 -28 -70 -31 -91 -4 -20 -11 -40 -17 -44 -5 -3 -7 0 -5 8
3 8 1 22 -4 32 -6 11 -5 17 2 17 8 0 8 6 0 20 -6 11 -7 20 -2 20 5 0 9 14 10
30 0 17 -3 28 -8 25 -4 -2 -14 3 -21 13 -12 15 -12 16 2 5 9 -7 19 -10 22 -6
4 3 7 53 7 109 l0 103 63 -37 c34 -21 75 -44 90 -52z m-638 -55 c0 -74 4 -135
8 -135 4 0 3 -10 -4 -22 -10 -18 -9 -20 6 -14 16 6 16 5 2 -18 -9 -14 -12 -26
-7 -28 5 -2 6 -9 1 -16 -5 -9 -14 10 -25 55 -22 87 -47 126 -94 149 -35 16
-42 16 -112 2 -41 -9 -83 -19 -93 -23 -13 -6 -16 -3 -11 9 3 8 10 14 14 13 5
-1 16 7 25 18 9 11 14 14 10 8 -3 -7 -2 -13 3 -13 5 0 14 10 20 23 6 12 11 16
11 9 1 -11 111 41 201 97 19 11 37 21 40 21 3 0 5 -61 5 -135z m55 72 c-10 -9
-11 -7 -6 13 7 24 6 24 -8 6 -19 -24 -20 -16 -4 20 l12 26 9 -27 c6 -18 5 -30
-3 -38z m1179 54 c14 -9 -8 -18 -94 -36 -66 -15 -64 -8 -38 -87 22 -69 23 -92
3 -72 -13 13 -61 156 -55 162 4 5 140 39 160 41 6 0 16 -3 24 -8z m-1877 -12
c29 -6 58 -12 65 -14 14 -5 -31 -150 -53 -175 -21 -21 -18 4 6 76 11 32 19 63
16 69 -2 6 -36 17 -75 25 -72 13 -95 30 -41 30 16 0 53 -5 82 -11z m-54 -26
c47 -10 81 -22 79 -28 -2 -5 -14 -45 -27 -87 -12 -42 -29 -79 -36 -82 -18 -7
-18 -4 10 85 l23 77 -41 6 c-71 11 -117 27 -111 36 8 13 6 13 103 -7z m549 -5
c-3 -8 -6 -5 -6 6 -1 11 2 17 5 13 3 -3 4 -12 1 -19z m1437 13 c6 -9 -113 -41
-150 -41 -10 0 -14 -5 -11 -14 15 -40 47 -150 44 -153 -10 -10 -37 40 -56 106
-12 40 -21 74 -19 75 2 1 32 9 68 18 77 19 117 21 124 9z m-633 -28 c-12 -20
-14 -14 -5 12 4 9 9 14 11 11 3 -2 0 -13 -6 -23z m678 8 c18 -11 9 -16 -81
-37 -43 -10 -78 -21 -78 -25 0 -4 4 -18 9 -32 5 -13 16 -47 25 -76 14 -47 14
-51 -1 -43 -14 8 -63 138 -63 168 0 9 87 36 170 53 3 0 11 -3 19 -8z m-2070
-17 c39 -9 71 -19 71 -23 -2 -29 -50 -165 -63 -179 -9 -9 -17 -11 -17 -5 0 10
34 126 46 158 4 9 -19 18 -75 30 -45 10 -81 22 -81 26 0 13 40 11 119 -7z
m-82 -18 c32 -8 70 -17 84 -20 l27 -6 -29 -92 c-25 -78 -45 -116 -56 -104 -2
1 8 40 21 86 14 46 23 87 21 91 -3 3 -24 9 -47 13 -72 12 -120 28 -106 38 17
10 17 10 85 -6z m1273 4 c0 -5 -2 -10 -4 -10 -3 0 -8 5 -11 10 -3 6 -1 10 4
10 6 0 11 -4 11 -10z m934 1 c5 -8 -94 -41 -125 -41 -38 -1 -41 -15 -20 -87
26 -86 27 -103 6 -82 -8 8 -24 44 -34 79 -10 36 -22 72 -26 81 -5 14 8 20 72
37 88 23 119 26 127 13z m-949 -29 c-3 -3 -11 0 -18 7 -9 10 -8 11 6 5 10 -3
15 -9 12 -12z m995 8 c17 -11 -5 -21 -90 -39 -30 -7 -60 -14 -67 -16 -8 -3 -3
-29 14 -85 24 -76 25 -106 3 -84 -11 11 -60 177 -54 183 4 4 80 25 174 49 3 1
12 -2 20 -8z m-2272 -18 c40 -9 73 -21 73 -27 -1 -31 -46 -177 -58 -186 -19
-16 -17 12 7 91 11 36 20 70 20 75 0 6 -36 18 -80 28 -44 10 -80 22 -80 28 0
13 35 11 118 -9z m-60 -24 c85 -20 93 -24 87 -43 -3 -11 -15 -54 -25 -94 -19
-69 -40 -105 -48 -80 -3 8 26 117 44 162 3 10 -11 17 -49 26 -97 21 -128 32
-122 42 8 12 7 12 113 -13z m1190 -35 c43 -51 49 -64 49 -102 l0 -44 -51 58
-52 58 -46 -52 c-25 -28 -49 -51 -52 -51 -15 0 -2 24 46 81 l51 62 48 -54 c27
-30 49 -51 49 -47 0 4 -22 32 -49 61 l-48 54 -48 -54 c-49 -56 -71 -65 -40
-16 24 37 78 101 87 102 3 1 28 -25 56 -56z m1202 48 c0 -10 -76 -34 -142 -46
-21 -4 -38 -10 -38 -14 0 -3 11 -41 25 -84 30 -93 31 -108 7 -82 -17 18 -70
182 -61 189 2 1 38 12 79 23 84 23 130 28 130 14z m-2431 -42 c41 -10 76 -21
78 -23 5 -4 -40 -177 -50 -193 -5 -7 -13 -13 -18 -13 -10 0 -6 23 22 120 10
35 17 66 15 68 -2 2 -30 9 -63 17 -90 21 -120 34 -103 45 8 6 22 7 30 4 8 -3
48 -14 89 -25z m2480 22 c14 -9 -61 -37 -146 -56 -18 -3 -33 -10 -33 -13 0 -4
9 -36 20 -72 23 -74 25 -103 9 -98 -7 2 -24 47 -39 101 l-27 96 55 12 c30 6
71 17 91 24 44 17 52 17 70 6z m51 -32 c0 -8 -94 -39 -161 -53 l-26 -6 23 -81
c28 -94 29 -110 10 -103 -7 3 -22 42 -34 87 -11 45 -24 90 -27 99 -5 13 2 19
37 28 23 6 68 19 98 28 55 18 80 18 80 1z m-2590 -13 c66 -17 94 -29 91 -38
-2 -7 -13 -53 -25 -102 -12 -50 -28 -92 -34 -94 -18 -6 -15 34 8 108 11 36 20
70 20 76 0 6 -17 14 -37 17 -66 11 -144 38 -138 47 8 13 7 13 115 -14z m-35
-29 c44 -11 81 -22 83 -23 2 -1 -6 -32 -17 -69 -12 -37 -21 -79 -21 -95 0 -15
-9 -35 -20 -45 -19 -18 -20 -17 -20 1 0 11 11 58 24 106 l24 86 -62 12 c-86
17 -135 38 -116 50 8 6 22 7 30 4 8 -3 51 -15 95 -27z m1065 29 c0 -3 -4 -8
-10 -11 -5 -3 -10 -1 -10 4 0 6 5 11 10 11 6 0 10 -2 10 -4z m734 -26 c138
-47 347 -167 856 -490 336 -213 510 -320 599 -364 28 -15 51 -29 51 -32 0 -10
-281 140 -585 313 -740 421 -934 476 -1024 290 -65 -136 -80 -297 -91 -985 -4
-316 -11 -576 -14 -579 -3 -4 -6 80 -6 186 0 105 -7 355 -16 554 -19 427 -15
909 8 997 19 73 44 119 71 130 27 11 83 4 151 -20z m874 21 c17 -11 -41 -35
-127 -52 -55 -12 -62 -15 -56 -34 24 -80 44 -169 40 -173 -12 -12 -33 23 -40
64 -3 25 -13 64 -21 86 -19 55 -18 68 9 69 12 0 54 11 92 24 81 27 86 27 103
16z m-1747 -31 c29 -39 48 -132 60 -285 11 -147 8 -318 -17 -870 -7 -176 -15
-405 -16 -510 -1 -184 -2 -186 -8 -75 -4 63 -8 277 -9 475 -3 743 -37 982
-154 1069 -22 16 -42 20 -95 19 -145 -1 -377 -107 -927 -420 -286 -162 -505
-279 -505 -268 0 2 23 16 51 31 89 45 265 151 602 366 621 395 821 500 946
495 45 -2 57 -6 72 -27z m-957 -26 c36 -9 66 -19 66 -23 0 -3 -9 -39 -20 -80
-11 -41 -20 -84 -20 -96 0 -21 -17 -45 -32 -45 -10 0 17 140 38 193 3 10 -18
20 -78 36 -98 26 -120 37 -99 50 8 5 26 4 46 -5 18 -7 62 -21 99 -30z m2756
36 c18 -11 -28 -32 -123 -56 -34 -9 -63 -17 -65 -19 -1 -1 6 -36 18 -76 24
-90 26 -121 5 -113 -8 4 -15 14 -15 23 0 10 -9 51 -20 92 -11 41 -20 79 -20
85 0 7 30 19 68 29 37 9 78 23 92 30 30 17 40 18 60 5z m-1401 -67 c68 -77 66
-105 -3 -31 l-53 58 -51 -58 c-66 -74 -70 -45 -4 32 26 30 50 56 54 56 3 0 29
-26 57 -57z m1451 35 c0 -12 -52 -33 -132 -53 l-65 -17 17 -57 c10 -31 21 -79
25 -106 l8 -50 -22 19 c-11 11 -21 31 -21 45 0 23 -15 90 -34 147 -6 19 0 23
61 39 38 10 84 26 103 35 34 18 60 17 60 -2z m-2911 -12 c42 -14 88 -27 102
-30 l27 -6 -18 -62 c-10 -35 -21 -84 -25 -110 -3 -27 -12 -49 -20 -52 -21 -8
-19 34 5 123 12 41 17 77 13 81 -4 4 -32 12 -60 18 -72 16 -126 39 -118 52 8
13 7 14 94 -14z m-29 -32 c36 -13 76 -24 89 -24 19 0 22 -4 17 -22 -27 -95
-36 -137 -36 -169 0 -24 -5 -39 -15 -43 -26 -10 -27 18 -6 109 12 47 21 90 21
95 0 4 -17 11 -37 15 -42 7 -142 41 -152 50 -9 10 23 25 39 18 8 -3 44 -17 80
-29z m2982 21 c1 -14 -57 -41 -122 -56 -30 -7 -58 -15 -62 -18 -4 -4 2 -35 12
-70 23 -73 27 -135 8 -129 -7 3 -16 25 -20 51 -3 25 -14 71 -23 103 -9 31 -13
60 -8 64 4 4 37 15 73 24 36 9 76 24 90 31 27 16 51 16 52 0z m-3090 -24 c18
-11 63 -27 101 -37 37 -9 67 -19 67 -23 0 -3 -7 -28 -15 -56 -9 -27 -17 -73
-19 -102 -4 -54 -11 -73 -27 -73 -19 0 -3 126 26 202 5 12 -1 18 -27 23 -59
12 -134 37 -154 52 -16 12 -17 15 -4 23 19 12 13 13 52 -9z m1648 -115 c0 -14
-15 -3 -53 39 l-53 59 -40 -43 c-21 -24 -40 -47 -42 -52 -2 -5 -8 -9 -13 -9
-20 0 -6 28 43 84 l52 58 52 -58 c29 -33 53 -68 54 -78z m1497 118 c5 -15 -45
-38 -127 -60 -36 -10 -66 -18 -68 -20 -1 -1 6 -35 18 -75 11 -40 20 -88 20
-107 0 -30 -2 -32 -20 -22 -15 8 -20 21 -20 53 0 23 -7 67 -15 97 -8 30 -15
60 -15 65 0 6 30 18 68 28 37 10 81 26 97 37 32 20 56 22 62 4z m37 -10 c9 -3
16 -10 16 -16 0 -13 -97 -56 -157 -68 -51 -11 -52 -12 -42 -38 18 -46 37 -151
32 -172 -9 -33 -33 -4 -33 39 0 32 -13 94 -34 157 -6 20 0 23 64 39 39 9 85
28 103 40 17 13 33 24 34 24 1 1 8 -2 17 -5z m-3230 -19 c17 -13 76 -33 148
-49 l27 -6 -15 -43 c-8 -23 -18 -73 -21 -112 -6 -66 -16 -90 -35 -79 -13 9 -9
56 12 133 12 40 19 76 16 78 -2 2 -30 11 -62 20 -72 18 -137 51 -129 63 9 14
37 12 59 -5z m3278 -36 c-24 -19 -82 -42 -149 -59 l-41 -10 19 -68 c20 -71 25
-137 10 -146 -14 -9 -34 22 -28 44 5 18 -10 104 -28 166 -6 19 2 24 77 47 47
15 93 36 103 46 14 17 21 18 38 9 l21 -11 -22 -18z m-3332 16 c7 -8 45 -25 84
-36 39 -11 76 -22 83 -24 8 -3 5 -25 -9 -77 -12 -45 -17 -89 -14 -115 4 -29 1
-43 -8 -46 -8 -3 -17 -3 -20 0 -11 11 -6 87 9 143 21 76 20 77 -30 84 -24 4
-69 20 -100 35 -30 15 -55 25 -55 20 0 -11 79 -46 135 -60 28 -7 51 -13 53
-14 1 -1 -5 -29 -13 -61 -9 -32 -15 -83 -14 -112 3 -57 -14 -89 -31 -62 -17
27 -5 124 24 200 5 12 -9 19 -62 33 -70 18 -132 49 -132 67 0 10 54 38 76 39
6 1 17 -6 24 -14z m1749 -120 c0 -15 -13 -6 -53 38 l-53 59 -51 -59 c-36 -40
-52 -52 -52 -40 0 10 23 45 51 77 l51 59 54 -57 c29 -31 53 -66 53 -77z m1636
95 c0 -20 -70 -57 -135 -71 -30 -7 -56 -13 -57 -14 -2 -1 6 -39 18 -84 23 -89
19 -135 -9 -129 -14 3 -16 12 -14 49 2 25 -4 73 -12 106 -20 77 -20 83 2 83
34 0 140 41 158 61 20 22 49 22 49 -1z m-3480 -25 c27 -24 50 -33 134 -55 40
-11 43 -13 37 -38 -26 -115 -29 -145 -19 -173 10 -25 9 -31 -3 -36 -39 -15
-48 61 -19 160 16 54 11 67 -27 67 -31 0 -125 40 -144 61 -16 17 -16 22 -4 29
19 12 15 14 45 -15z m3525 15 c25 -17 -32 -57 -116 -82 -41 -12 -74 -27 -74
-33 0 -5 7 -32 15 -59 17 -55 20 -132 6 -140 -5 -4 -16 -3 -24 0 -12 4 -13 11
-5 35 9 28 -5 124 -27 182 -5 12 -2 17 9 17 35 0 146 44 167 66 25 27 28 28
49 14z m-3710 -5 c0 -2 -10 -9 -22 -15 -22 -11 -22 -10 -4 4 21 17 26 19 26
11z m201 -72 c19 -6 53 -17 75 -22 l42 -11 -14 -48 c-18 -60 -21 -146 -5 -165
9 -12 8 -16 -5 -21 -44 -17 -57 56 -29 152 9 29 14 56 11 61 -3 4 -29 13 -58
20 -87 19 -152 70 -118 91 9 5 23 -1 40 -18 15 -15 42 -32 61 -39z m1769 20
c53 -60 74 -92 67 -99 -3 -4 -30 20 -61 52 l-54 59 -51 -55 c-65 -71 -68 -43
-3 33 26 31 50 56 54 56 3 1 25 -20 48 -46z m1787 30 c10 -26 -40 -61 -121
-85 l-73 -21 21 -78 c22 -82 16 -134 -14 -134 -12 0 -14 12 -12 57 2 33 -3 80
-13 113 -9 32 -14 59 -11 62 2 3 23 9 46 14 58 13 129 48 141 70 12 23 28 24
36 2z m38 -33 c0 -32 -50 -65 -121 -81 -30 -7 -57 -15 -59 -19 -2 -4 2 -28 10
-55 27 -89 14 -179 -23 -156 -9 5 -9 14 0 39 10 25 9 45 -1 94 -22 100 -22
100 29 113 69 18 121 46 133 72 13 29 32 25 32 -7z m-3711 5 c7 -19 96 -61
149 -70 43 -8 41 -5 22 -69 -18 -58 -19 -119 -4 -148 8 -15 8 -23 -1 -32 -9
-8 -16 -5 -31 13 -24 29 -24 49 0 139 17 67 18 72 2 72 -67 0 -194 71 -177 98
10 17 33 15 40 -3z m3760 -43 c-19 -30 -73 -60 -130 -73 -30 -7 -54 -17 -54
-23 0 -6 7 -33 15 -60 27 -90 17 -146 -28 -146 -15 0 -17 4 -11 18 15 34 16
112 1 162 l-15 51 25 10 c13 5 30 9 36 9 7 0 36 11 65 25 36 16 55 33 62 51
10 26 12 26 28 11 13 -13 14 -21 6 -35z m-3804 18 c13 -24 71 -55 135 -71 43
-11 46 -14 41 -38 -28 -121 -29 -138 -12 -171 9 -18 16 -35 16 -37 0 -8 -37
-2 -48 9 -17 17 -15 95 3 154 8 27 15 50 15 51 0 0 -24 7 -52 13 -71 17 -125
45 -133 70 -12 38 16 55 35 20z m1996 -149 l2 -45 -59 61 -58 60 -53 -60 c-28
-33 -54 -55 -56 -49 -5 15 5 31 61 92 l48 53 56 -54 57 -54 -54 64 -54 64 -53
-58 c-29 -32 -56 -55 -59 -52 -8 8 12 39 66 100 l43 49 56 -63 c49 -55 56 -68
57 -108z m1850 105 c-7 -30 -61 -61 -134 -76 l-48 -11 18 -72 c10 -40 16 -84
13 -99 -8 -33 -30 -52 -50 -44 -15 5 -15 8 -1 28 20 28 20 77 1 148 -8 30 -13
55 -12 56 1 1 27 9 57 18 74 21 118 50 126 82 6 23 8 24 22 11 9 -10 12 -24 8
-41z m-3891 22 c11 -26 79 -63 141 -78 l42 -10 -14 -47 c-21 -68 -18 -139 5
-162 20 -20 20 -20 -1 -27 -16 -5 -27 0 -40 16 -22 27 -23 58 -3 134 8 32 13
61 10 66 -2 4 -22 10 -42 13 -53 9 -127 48 -131 70 -4 22 4 47 15 47 5 0 13
-10 18 -22z m1434 -13 c60 -69 87 -222 101 -575 5 -135 10 -382 10 -550 0
-407 21 -654 65 -785 6 -18 5 -18 -5 -3 -39 62 -71 292 -100 728 -38 572 -67
756 -140 900 -49 97 -131 132 -254 111 -164 -29 -294 -81 -756 -306 -463 -225
-610 -284 -735 -298 -55 -6 -62 -8 95 34 107 29 366 158 730 364 597 337 760
413 901 414 53 1 59 -2 88 -34z m1224 8 c119 -39 387 -176 742 -378 525 -300
738 -397 874 -399 55 -1 59 -2 32 -10 -46 -13 -171 16 -311 71 -63 25 -270
121 -460 213 -490 239 -631 296 -791 321 -126 19 -195 -11 -246 -108 -75 -142
-105 -323 -138 -828 -34 -522 -62 -721 -115 -825 -30 -58 -33 -49 -5 13 55
119 72 333 79 987 8 665 31 855 114 943 22 23 33 27 84 27 37 0 89 -10 141
-27z m1287 -35 c0 -23 -54 -59 -120 -79 -55 -16 -70 -25 -65 -36 16 -42 26
-103 23 -137 -3 -44 -33 -72 -58 -55 -13 8 -13 11 2 19 26 16 30 61 14 134 -9
37 -16 69 -16 71 0 2 24 11 53 19 76 22 121 55 125 91 l4 30 19 -24 c10 -13
19 -27 19 -33z m-3990 23 c0 -34 39 -57 167 -96 9 -3 8 -17 -3 -57 -19 -73
-18 -121 5 -149 18 -23 18 -23 -4 -41 -29 -22 -53 -23 -77 -1 -22 20 -24 81
-3 149 8 27 15 49 15 50 0 0 -24 6 -54 13 -99 22 -156 84 -112 121 14 10 16 9
16 -7 0 -11 9 -29 20 -40 19 -21 117 -63 145 -63 8 0 15 -1 15 -3 0 -1 -7 -33
-15 -72 -19 -91 -6 -145 34 -145 14 1 13 2 -2 11 -32 19 -38 55 -22 132 8 40
15 75 15 78 0 4 -17 10 -37 14 -98 18 -164 72 -133 110 17 21 30 19 30 -4z
m4018 -13 c18 -18 15 -53 -7 -72 -23 -20 -113 -56 -142 -56 -17 0 -20 -4 -15
-22 24 -89 29 -138 18 -163 -13 -28 -34 -40 -57 -31 -13 5 -12 9 5 26 24 24
27 85 6 153 -16 52 -16 52 34 62 76 16 153 76 135 105 -9 14 8 13 23 -2z
m-4104 -50 c7 -31 51 -58 125 -78 40 -10 43 -13 37 -38 -25 -111 -19 -167 19
-184 l24 -11 -34 -18 c-43 -23 -69 -24 -90 -2 -14 14 -16 29 -12 82 4 36 9 78
13 94 5 22 3 27 -13 27 -32 0 -109 30 -132 51 -26 25 -27 50 0 80 20 24 20 24
14 2 -13 -46 31 -84 125 -108 25 -6 44 -14 43 -18 -21 -91 -24 -146 -12 -173
9 -19 23 -30 39 -32 l25 -3 -25 13 c-39 21 -46 56 -27 134 19 76 18 79 -45 89
-40 7 -95 39 -111 66 -8 13 -6 24 8 45 10 16 20 24 21 19 1 -6 5 -22 8 -37z
m4154 -12 c-4 -38 -49 -70 -122 -87 l-53 -12 14 -46 c18 -59 19 -127 3 -146
-7 -8 -27 -15 -44 -15 l-31 0 22 18 c38 29 40 84 7 195 -4 11 0 17 10 17 27 0
128 42 147 61 11 11 19 31 19 45 0 23 2 25 16 14 9 -8 14 -25 12 -44z m52 -26
c0 -28 -55 -68 -118 -86 -31 -9 -58 -17 -59 -18 -1 -1 4 -24 12 -51 29 -93 12
-155 -41 -155 -29 0 -40 16 -14 23 35 9 41 84 16 177 -7 24 -4 27 46 43 29 9
68 26 86 37 27 16 32 26 32 57 l1 38 19 -24 c11 -13 20 -31 20 -41z m-2020
-97 c0 -25 -18 -12 -70 48 l-53 61 -58 -58 c-75 -74 -77 -49 -3 34 l57 63 63
-68 c35 -37 63 -74 64 -80z m2060 72 c0 -39 -40 -69 -120 -90 -50 -13 -49 -10
-29 -102 11 -54 11 -64 -4 -87 -14 -20 -25 -26 -55 -26 l-37 1 27 15 c41 22
46 61 23 171 -6 24 -4 34 6 37 120 35 165 69 155 119 l-6 32 20 -24 c11 -13
20 -34 20 -46z m-4312 -25 c14 -12 52 -29 84 -38 51 -15 58 -20 53 -37 -4 -11
-9 -52 -12 -92 l-6 -72 34 -20 34 -21 -37 0 c-20 0 -44 7 -52 16 -20 20 -20
76 -1 140 8 27 15 49 15 50 0 0 -24 6 -53 13 -104 23 -139 64 -104 124 12 21
12 21 15 -10 2 -21 13 -40 30 -53z m-41 -30 c14 -11 50 -27 80 -37 50 -16 54
-19 49 -43 -3 -14 -9 -48 -12 -77 -8 -63 11 -100 53 -105 l28 -4 -27 -8 c-74
-21 -107 25 -88 120 7 32 14 63 17 69 2 7 -21 18 -55 28 -63 17 -112 50 -112
73 0 8 8 29 18 47 l17 32 3 -37 c2 -26 11 -44 29 -58z m4388 56 c17 -32 17
-36 2 -59 -16 -24 -108 -67 -144 -67 -12 0 -14 -6 -9 -27 4 -16 9 -55 12 -89
7 -69 -7 -94 -56 -94 -35 0 -49 17 -18 22 14 2 29 15 37 33 14 29 14 30 -12
158 -1 4 22 16 52 26 80 28 106 51 106 95 0 45 7 45 30 2z m-2158 -48 c37 -37
63 -71 63 -83 -1 -15 -15 -5 -64 48 l-64 67 -52 -60 c-49 -57 -70 -72 -70 -51
0 10 111 141 120 141 2 0 33 -28 67 -62z m2213 -13 c0 -31 -39 -61 -109 -82
-31 -9 -57 -17 -58 -18 -1 0 4 -23 12 -50 31 -102 14 -145 -58 -145 l-42 0 35
18 c35 17 35 18 35 82 0 36 -4 77 -9 92 -7 24 -5 27 26 33 51 11 106 42 124
71 14 20 15 30 5 52 l-11 27 25 -28 c14 -15 25 -39 25 -52z m-4518 37 c-5 -37
39 -76 112 -97 l53 -15 -15 -68 c-17 -82 -7 -116 40 -137 l33 -14 -42 -1 c-62
0 -77 19 -69 94 3 34 7 72 9 85 2 21 -4 26 -47 37 -66 17 -100 44 -108 85 -6
33 -6 33 -5 -6 2 -38 5 -41 56 -67 30 -16 66 -28 79 -28 21 0 23 -3 17 -22 -4
-13 -9 -52 -12 -88 -5 -72 7 -94 57 -102 25 -4 25 -4 -4 -13 -40 -11 -79 5
-90 38 -10 26 0 102 19 150 5 13 2 17 -13 17 -33 0 -105 29 -130 53 -18 17
-22 29 -18 52 5 25 4 27 -5 12 -27 -45 20 -96 109 -119 40 -10 43 -13 38 -37
-25 -113 -17 -153 37 -177 l32 -14 -50 3 c-44 2 -52 6 -63 30 -11 22 -11 39
-1 84 6 32 13 62 16 68 2 7 -22 19 -57 28 -67 19 -100 45 -100 81 0 26 37 79
50 71 4 -3 13 2 20 10 7 8 16 13 20 10 4 -3 13 2 20 10 17 20 17 19 12 -13z
m4554 -33 c14 -28 14 -33 0 -55 -19 -28 -54 -47 -114 -64 -27 -7 -42 -16 -39
-23 17 -45 27 -126 18 -150 -12 -30 -48 -43 -88 -31 l-28 8 28 4 c55 7 67 58
41 174 -6 25 -3 27 51 44 78 25 109 55 102 100 -7 40 6 37 29 -7z m-2181 -129
c5 -19 -10 -8 -63 44 l-70 69 -61 -64 c-46 -49 -60 -59 -61 -44 0 11 27 47 62
82 l63 63 61 -63 c34 -34 65 -74 69 -87z m2221 108 c24 -46 12 -72 -48 -102
-29 -14 -63 -26 -76 -26 -21 0 -24 -3 -18 -27 15 -67 18 -131 7 -151 -10 -18
-21 -22 -59 -22 l-47 1 33 14 c51 23 59 67 30 184 -2 8 13 18 37 25 99 31 135
69 115 122 -13 34 5 22 26 -18z m-4724 -32 c-5 -41 25 -68 103 -92 51 -16 53
-18 43 -43 -5 -14 -10 -49 -11 -77 -2 -59 18 -91 62 -96 23 -4 22 -5 -12 -12
-28 -6 -43 -4 -63 9 -25 16 -26 20 -21 79 3 33 9 71 12 83 6 19 2 23 -37 33
-100 27 -132 64 -104 119 21 40 33 40 28 -3z m4780 10 c10 9 48 -48 48 -72 0
-30 -39 -60 -106 -81 -42 -13 -53 -21 -49 -32 18 -47 24 -115 12 -140 -10 -22
-20 -26 -57 -29 l-45 -3 32 20 c46 29 51 63 26 168 -4 19 1 24 42 34 69 17
105 52 104 97 l-2 37 -6 -40 c-5 -33 -13 -43 -46 -62 -22 -12 -56 -25 -76 -28
l-36 -6 15 -63 c8 -34 12 -75 8 -90 -9 -36 -46 -52 -88 -39 -31 10 -31 11 -7
12 45 2 62 32 56 98 -3 32 -8 67 -12 78 -5 18 0 23 44 34 68 17 115 61 109
101 -4 27 -3 29 12 15 9 -8 19 -13 22 -9z m219 7 c13 -16 12 -17 -3 -4 -10 7
-18 15 -18 17 0 8 8 3 21 -13z m-2491 -150 c0 -25 -20 -12 -77 52 l-59 66 -46
-48 c-107 -114 -124 -105 -22 11 l67 75 68 -72 c37 -40 68 -78 69 -84z m-803
127 c18 -11 43 -40 56 -67 72 -144 94 -294 142 -1003 31 -446 70 -625 159
-718 l31 -34 -28 13 c-60 27 -115 153 -156 356 -11 54 -39 229 -61 388 -61
426 -95 581 -159 715 -110 234 -296 227 -946 -37 -444 -180 -608 -230 -719
-220 -33 3 -65 12 -74 21 -14 14 -12 14 23 5 77 -21 210 9 412 92 54 22 249
114 433 204 333 162 435 209 540 247 166 61 288 74 347 38z m1613 -15 c130
-42 265 -102 640 -285 376 -183 533 -249 653 -275 75 -17 148 -16 192 0 15 6
14 3 -5 -11 -14 -11 -47 -20 -81 -22 -111 -8 -276 42 -699 213 -418 168 -549
207 -700 208 -78 1 -102 -3 -136 -20 -82 -44 -143 -145 -188 -313 -34 -127
-49 -210 -96 -535 -61 -427 -85 -543 -137 -652 -24 -50 -82 -113 -104 -113 -5
0 6 13 24 30 86 75 130 276 162 735 47 681 71 853 139 985 12 25 38 56 57 68
30 21 42 23 114 19 48 -3 113 -15 165 -32z m-3366 1 c-8 -34 31 -74 96 -96 42
-15 54 -23 52 -37 -20 -120 -15 -153 30 -175 l33 -17 -42 0 c-35 -1 -46 4 -59
24 -16 25 -16 39 2 136 6 37 6 37 -35 44 -52 9 -105 44 -109 73 -3 21 21 72
33 72 3 0 3 -11 -1 -24z m896 20 c0 -2 -42 -30 -92 -62 -128 -80 -145 -89
-133 -77 9 10 216 143 223 143 1 0 2 -2 2 -4z m3223 -99 c42 -27 77 -51 77
-54 0 -5 4 -7 -130 75 -58 36 -109 70 -115 75 -14 14 75 -37 168 -96z m797 8
c0 -26 -22 -48 -70 -70 -33 -15 -33 -16 -6 -10 39 8 86 42 86 63 0 11 3 13 10
6 30 -30 -46 -79 -117 -77 -24 1 -45 -2 -48 -7 -7 -12 5 -61 14 -56 3 2 4 -20
3 -50 -4 -64 -31 -91 -73 -76 -24 9 -24 9 -2 16 31 10 44 57 33 117 -5 28 -12
54 -15 59 -3 5 20 17 51 26 75 24 108 55 102 96 l-5 32 18 -23 c11 -13 19 -33
19 -46z m-4956 12 c5 -22 19 -34 59 -53 29 -13 60 -24 70 -24 20 0 20 4 6 -60
-15 -69 -5 -116 28 -133 l26 -14 -27 -5 c-47 -9 -69 19 -70 90 -1 33 2 58 7
55 4 -2 7 0 7 6 0 5 2 16 5 23 4 10 -9 18 -45 27 -52 13 -110 53 -110 75 0 16
33 62 36 50 1 -5 5 -22 8 -37z m2528 -24 c39 -39 68 -76 68 -87 0 -16 -16 -4
-69 48 l-70 69 -65 -69 c-48 -51 -65 -64 -66 -50 0 16 113 150 130 155 2 0 35
-29 72 -66z m76 -172 c1 -36 -2 -40 -16 -32 -10 5 -42 36 -73 68 l-56 58 -69
-70 c-49 -51 -69 -65 -72 -53 -2 10 25 45 69 88 l72 72 63 -63 c35 -35 66 -61
68 -58 3 3 -25 35 -62 72 l-68 66 -64 -64 c-36 -36 -68 -65 -72 -65 -18 0 9
40 69 101 l65 66 73 -72 c66 -66 73 -75 73 -114z m-2590 114 c13 -4 21 -9 19
-11 -7 -7 -80 25 -89 39 -19 30 -5 36 20 9 15 -16 38 -32 50 -37z m2600 -187
c2 -5 2 -14 -1 -20 -2 -8 -35 17 -79 60 l-75 72 -68 -67 c-49 -49 -70 -63 -72
-52 -2 9 25 44 69 87 l73 71 75 -72 c41 -40 77 -75 78 -79z m-988 87 c57 -30
97 -90 138 -206 40 -114 65 -239 117 -603 25 -170 54 -353 65 -408 43 -209 95
-326 169 -375 25 -17 29 -23 15 -23 -28 0 -78 34 -108 72 -59 79 -107 224
-197 603 -113 481 -188 647 -320 720 -48 26 -66 30 -159 33 -157 6 -235 -10
-650 -133 -472 -141 -608 -155 -686 -74 l-28 30 34 -18 c47 -23 138 -28 224
-13 106 19 241 65 571 198 330 131 485 185 603 207 83 15 171 11 212 -10z
m-1544 -16 c-3 -17 0 -45 9 -65 14 -34 9 -44 -13 -22 -13 13 -16 59 -6 96 9
33 17 27 10 -9z m3516 2 c121 -32 261 -83 558 -204 345 -140 502 -187 630
-187 54 0 86 5 112 18 47 25 40 1 -9 -29 -48 -30 -145 -36 -258 -15 -105 20
-177 39 -418 112 -364 110 -509 140 -651 132 -109 -6 -181 -39 -237 -111 -89
-112 -136 -242 -228 -632 -92 -384 -123 -484 -184 -586 -34 -56 -86 -99 -121
-99 -18 0 -17 3 9 19 42 25 59 47 93 116 55 111 89 267 142 655 69 495 116
678 201 774 18 22 47 45 64 52 53 23 172 17 297 -15z m-1070 -46 c39 -36 74
-65 79 -65 5 0 9 -9 9 -20 0 -33 -17 -24 -89 48 l-68 69 -74 -71 c-58 -57 -74
-67 -77 -53 -2 12 11 31 40 55 23 20 56 52 72 69 16 18 32 33 34 33 2 0 36
-29 74 -65z m2319 -32 c-6 -13 -15 -23 -21 -23 -7 0 -8 6 0 19 5 11 10 39 11
63 l1 43 9 -40 c7 -26 6 -48 0 -62z m-2243 -82 c12 -7 22 -21 22 -32 0 -17 -3
-18 -22 -8 -13 7 -51 39 -85 71 l-61 59 -66 -65 c-36 -36 -70 -66 -76 -66 -21
0 -9 36 18 52 15 9 49 39 77 67 l49 51 61 -59 c33 -32 70 -64 83 -70z m-10
-46 c29 -17 45 -55 23 -55 -13 0 -94 69 -126 108 l-27 32 -74 -70 c-41 -38
-79 -70 -84 -70 -21 0 -9 36 18 52 15 9 51 41 81 71 l54 55 51 -52 c28 -29 66
-61 84 -71z m-72 6 c34 -33 72 -62 83 -66 18 -6 36 -33 27 -42 -11 -12 -53 14
-113 70 l-65 62 -27 -32 c-31 -37 -109 -103 -122 -103 -25 0 -3 38 37 63 24
16 59 46 77 68 17 21 34 39 36 39 2 0 32 -27 67 -59z m81 -116 c20 -10 33 -23
33 -35 0 -31 -37 -12 -109 55 l-66 63 -67 -63 c-74 -68 -108 -86 -108 -54 0
11 14 26 38 38 20 11 59 42 86 70 l50 51 55 -55 c30 -30 70 -62 88 -70z
m-1131 67 c54 -28 96 -77 139 -163 54 -106 90 -225 165 -538 38 -157 81 -324
95 -371 57 -183 139 -306 217 -329 l33 -9 -40 -1 c-124 -2 -208 123 -350 521
-141 394 -207 524 -314 620 -79 71 -140 91 -294 96 -143 5 -195 -1 -507 -58
-252 -46 -396 -63 -460 -54 -101 13 -159 43 -186 97 l-17 32 26 -23 c33 -31
107 -52 185 -52 96 0 236 32 554 126 255 75 399 113 493 127 17 3 73 4 125 3
75 -2 104 -7 136 -24z m2237 17 c101 -15 271 -59 485 -124 271 -83 407 -115
508 -122 114 -7 173 1 218 32 42 29 46 19 11 -24 -63 -74 -236 -87 -510 -37
-371 68 -427 76 -545 82 -223 12 -340 -33 -442 -168 -80 -106 -129 -217 -274
-623 -113 -320 -205 -447 -318 -444 l-41 1 33 11 c69 22 140 118 191 259 32
86 56 178 122 453 92 390 141 526 226 625 70 82 167 105 336 79z m-3626 -25
c-3 -3 -12 -4 -19 -1 -8 3 -5 6 6 6 11 1 17 -2 13 -5z m2429 -44 c29 -27 68
-57 88 -67 22 -10 36 -24 36 -35 0 -10 -4 -18 -8 -18 -18 0 -99 59 -133 97
l-37 41 -53 -55 c-47 -47 -95 -83 -114 -83 -3 0 -5 8 -5 19 0 11 11 23 28 30
16 7 53 37 83 67 29 29 55 54 58 54 2 0 28 -22 57 -50z m103 -125 c22 -5 31
-12 31 -26 0 -43 -51 -19 -138 65 l-53 51 -25 -33 c-34 -43 -112 -102 -135
-102 -35 0 -19 28 34 58 28 17 70 48 91 71 l39 40 63 -58 c35 -34 76 -62 93
-66z m-123 36 c31 -37 112 -91 136 -91 11 0 18 -7 18 -20 0 -13 -7 -20 -18
-20 -27 0 -106 55 -137 96 l-27 36 -57 -55 c-78 -76 -131 -100 -131 -58 0 12
9 20 29 24 16 4 55 31 88 61 32 30 62 55 66 56 5 0 19 -13 33 -29z m26 -76
c32 -30 71 -58 86 -61 45 -10 52 -13 52 -24 0 -15 -26 -23 -55 -16 -13 3 -52
32 -86 63 l-62 58 -26 -32 c-66 -79 -151 -120 -151 -73 0 13 7 20 18 20 27 0
107 54 133 89 13 17 25 31 27 31 2 0 31 -25 64 -55z m195 -117 c-2 -29 -3 -6
-3 52 0 58 1 81 3 53 2 -29 2 -77 0 -105z m-500 -25 c-2 -32 -3 -8 -3 52 0 61
1 87 3 58 2 -29 2 -78 0 -110z m356 47 c18 -11 45 -20 60 -20 42 0 33 -34 -10
-38 -26 -3 -41 6 -95 56 l-63 60 -58 -54 c-57 -54 -93 -71 -122 -60 -27 10
-17 36 13 36 31 0 88 37 136 88 l29 31 39 -40 c21 -22 53 -49 71 -59z m-1341
79 c187 -40 267 -159 448 -663 45 -126 99 -266 121 -312 67 -141 153 -235 227
-250 48 -9 39 -24 -15 -24 -95 1 -181 65 -268 199 -25 38 -94 165 -155 282
-134 258 -198 356 -285 438 -74 68 -131 101 -226 128 -57 16 -108 18 -499 18
-389 0 -440 2 -485 18 -63 22 -120 67 -145 118 -27 53 -25 55 14 15 55 -54
119 -71 266 -70 120 1 195 11 417 55 276 55 476 71 585 48z m2716 0 c53 -6
207 -31 342 -55 404 -74 556 -72 665 11 l46 35 -20 -37 c-42 -83 -114 -124
-251 -144 -68 -10 -144 -9 -375 1 -318 14 -433 8 -548 -31 -84 -28 -132 -58
-200 -126 -82 -81 -148 -184 -281 -441 -128 -247 -171 -315 -243 -384 -58 -57
-105 -78 -173 -78 -58 0 -59 14 -3 25 26 5 53 23 98 69 81 80 136 192 245 500
117 329 174 451 256 543 91 105 218 137 442 112z m-1457 -65 c45 -50 101 -84
136 -84 37 0 46 -22 15 -39 -25 -14 -73 10 -132 65 l-51 48 -52 -52 c-73 -71
-137 -91 -137 -41 0 15 7 19 33 19 33 0 105 49 134 90 18 26 25 25 54 -6z
m-2439 -142 c104 -39 207 -46 490 -32 468 23 599 -2 739 -142 72 -72 142 -183
269 -427 60 -116 131 -243 158 -283 89 -131 190 -207 276 -208 32 0 38 -3 28
-12 -8 -8 -42 -13 -90 -13 -65 0 -86 5 -137 29 -83 41 -176 139 -315 332 -246
339 -350 436 -539 498 -113 38 -153 45 -431 76 -140 16 -282 36 -315 45 -143
37 -235 107 -270 205 -8 23 -15 44 -15 46 0 2 22 -19 48 -45 31 -31 68 -55
104 -69z m2551 6 c12 0 30 -1 40 0 20 2 23 -21 3 -37 -23 -20 -64 -2 -125 55
l-58 53 -34 -35 c-73 -76 -159 -104 -159 -52 0 15 5 18 16 14 24 -9 94 28 138
73 l39 40 59 -54 c33 -30 69 -56 81 -57z m2411 59 c-34 -100 -139 -177 -289
-210 -95 -21 -112 -24 -335 -47 -226 -24 -314 -41 -420 -80 -184 -66 -270
-149 -524 -499 -215 -296 -324 -372 -493 -346 l-48 7 61 17 c76 22 119 48 177
110 64 69 105 135 228 373 215 415 312 521 517 563 90 18 203 21 542 11 240
-7 296 -6 356 7 93 20 164 57 206 106 18 22 34 38 35 37 2 -1 -4 -23 -13 -49z
m-2518 -38 c16 -17 49 -42 73 -57 37 -22 48 -24 72 -15 21 8 29 8 29 0 0 -17
-32 -47 -50 -47 -23 0 -101 52 -131 88 l-26 30 -44 -45 c-54 -55 -93 -77 -126
-68 -16 4 -22 2 -18 -5 17 -28 108 13 164 73 l24 26 53 -49 c58 -52 100 -68
133 -50 26 14 29 -5 4 -32 -31 -35 -70 -21 -149 55 l-42 39 -40 -40 c-60 -60
-87 -75 -123 -68 -18 3 -28 2 -24 -4 8 -13 51 -13 78 1 12 6 41 30 64 52 l42
40 41 -37 c61 -55 104 -73 140 -59 21 8 30 8 30 0 0 -21 -33 -47 -60 -47 -29
0 -98 49 -126 89 l-16 23 -47 -45 c-53 -52 -80 -67 -115 -67 -34 0 -40 14 -42
88 -1 62 -1 63 23 57 32 -8 81 17 128 65 22 22 42 40 45 40 4 0 19 -14 36 -31z
m-2511 -137 c96 -64 201 -92 440 -117 418 -44 522 -71 660 -170 87 -62 167
-152 314 -355 228 -316 336 -407 495 -419 81 -6 81 -6 45 -19 -107 -37 -222
-31 -320 18 -90 44 -166 107 -364 300 -315 307 -375 341 -826 465 -109 30
-232 68 -274 86 -167 69 -259 173 -289 328 -6 32 -3 29 32 -25 24 -37 58 -73
87 -92z m2742 76 c-2 -13 -4 -5 -4 17 -1 22 1 32 4 23 2 -10 2 -28 0 -40z
m2314 -39 c-46 -120 -150 -211 -308 -269 -46 -16 -175 -55 -285 -85 -408 -112
-484 -156 -820 -483 -106 -103 -220 -205 -252 -226 -117 -77 -211 -98 -328
-72 -100 23 -108 31 -29 32 153 1 274 100 497 408 207 287 319 391 481 449 96
35 191 52 428 77 110 11 241 29 290 39 151 31 257 90 311 174 36 56 44 33 15
-44z m-2834 29 c-3 -8 -6 -5 -6 6 -1 11 2 17 5 13 3 -3 4 -12 1 -19z m-2285
-184 c90 -99 204 -153 468 -224 457 -122 526 -161 865 -491 287 -278 362 -323
543 -324 l102 0 -42 -18 c-176 -75 -360 -55 -549 59 -43 26 -144 97 -226 157
-279 207 -363 257 -653 382 -199 86 -325 152 -397 209 -118 92 -185 215 -207
376 l-7 45 30 -62 c16 -34 49 -83 73 -109z m5181 129 c-40 -278 -165 -405
-572 -578 -86 -37 -217 -98 -291 -136 -123 -63 -186 -105 -480 -319 -196 -143
-304 -191 -445 -198 -95 -4 -168 8 -255 46 l-44 19 86 -5 c184 -10 288 50 571
326 211 206 279 263 389 322 102 55 184 84 408 145 258 71 358 108 445 166 81
55 133 116 166 195 13 30 24 54 25 54 2 0 0 -17 -3 -37z m-2617 -24 c58 -66
141 -98 172 -67 9 9 12 8 12 -4 0 -9 -12 -26 -26 -37 -24 -19 -28 -19 -62 -5
-21 8 -56 34 -79 56 l-42 42 -55 -52 c-30 -29 -59 -52 -65 -52 -5 0 -16 -3
-24 -6 -19 -7 -57 29 -57 53 0 13 3 14 12 5 24 -24 70 -13 125 28 29 23 53 45
53 50 0 16 16 11 36 -11z m92 -126 c29 -12 37 -12 63 1 37 19 40 0 5 -33 -34
-32 -65 -22 -130 39 l-52 50 -39 -40 c-36 -37 -90 -70 -114 -70 -16 0 -51 38
-51 55 0 14 3 13 25 -1 23 -15 27 -15 68 5 23 11 58 36 76 55 l33 34 42 -40
c22 -23 56 -47 74 -55z m-76 2 c21 -20 55 -43 74 -53 33 -15 37 -15 65 0 34
20 37 11 8 -26 -34 -43 -72 -33 -151 42 l-37 35 -50 -46 c-55 -52 -88 -64
-123 -47 -22 12 -22 11 -6 -5 25 -27 75 -12 133 39 l50 44 47 -44 c56 -52 91
-63 130 -41 33 19 36 10 7 -27 -34 -43 -73 -33 -147 38 -38 36 -44 39 -53 24
-5 -10 -31 -34 -56 -53 -48 -36 -88 -44 -113 -22 -12 10 -12 9 -1 -5 26 -35
80 -20 142 39 l37 35 56 -46 c61 -49 111 -61 136 -31 18 22 23 12 9 -18 -6
-14 -21 -30 -33 -35 -16 -8 -17 -11 -5 -11 9 -1 22 6 29 14 20 24 23 10 6 -23
-29 -57 -75 -51 -151 19 l-45 42 -48 -45 c-60 -56 -84 -65 -120 -43 l-27 17
21 -22 c29 -30 69 -20 128 31 l45 40 52 -41 c66 -52 92 -59 130 -31 33 25 35
22 14 -19 -29 -56 -88 -47 -159 25 l-34 34 -19 -21 c-31 -35 -95 -78 -116 -78
-11 0 -29 7 -39 17 -11 10 -18 12 -18 4 0 -18 45 -34 75 -27 14 4 46 25 71 48
l45 41 32 -30 c73 -69 113 -79 155 -40 14 12 22 16 18 10 -4 -7 -9 -29 -11
-48 -7 -48 -22 -75 -43 -76 -14 0 -14 -2 3 -8 19 -8 19 -8 -1 -19 -24 -13 -70
6 -105 45 l-24 25 39 -26 c21 -14 46 -26 55 -25 9 0 6 4 -9 10 -14 6 -43 28
-66 50 -40 39 -40 40 -59 19 -10 -11 -14 -20 -10 -20 14 0 -48 -61 -79 -77
-26 -13 -30 -13 -44 1 -13 13 -14 16 -2 16 10 0 7 5 -7 15 -11 8 -23 23 -25
33 -5 17 -2 18 22 9 38 -14 70 -3 123 43 34 30 48 37 54 27 4 -7 26 -27 48
-45 45 -36 94 -43 116 -14 11 14 11 15 -1 5 -32 -29 -80 -12 -147 50 l-32 30
-52 -47 c-57 -51 -94 -59 -125 -25 -16 17 -18 39 -20 163 l-1 143 27 -15 c35
-20 72 -6 126 49 21 21 40 39 42 39 3 0 22 -16 44 -35z m-317 -531 c9 -15 12
-23 6 -20 -11 7 -35 46 -28 46 3 0 12 -12 22 -26z"/>
<path d="M3513 8276 c21 -8 46 -21 55 -29 31 -26 48 -32 29 -9 -22 24 -77 52
-104 52 -10 -1 -1 -7 20 -14z"/>
<path d="M3458 8120 c-10 -6 -18 -16 -18 -22 0 -6 8 -4 18 5 34 31 72 19 137
-44 l41 -39 34 36 c61 63 108 78 143 47 16 -14 19 -15 15 -3 -2 8 -16 19 -30
24 -34 12 -74 -5 -121 -50 l-36 -36 -49 42 c-52 43 -104 58 -134 40z"/>
<path d="M3458 8066 c-28 -21 -21 -28 8 -10 23 16 28 16 59 1 19 -9 52 -32 74
-52 l40 -36 40 39 c58 56 93 69 128 47 l28 -17 -21 22 c-30 31 -71 20 -132
-35 l-49 -44 -34 36 c-33 34 -84 63 -111 63 -7 0 -21 -7 -30 -14z"/>
<path d="M3463 8018 c-13 -6 -23 -15 -23 -20 0 -5 11 -1 24 7 21 14 28 14 58
2 18 -8 51 -33 72 -56 l40 -40 47 44 c62 58 94 71 125 50 13 -8 24 -13 24 -10
0 2 -11 12 -24 20 -21 14 -28 14 -59 2 -19 -9 -53 -31 -74 -51 l-40 -36 -24
26 c-50 53 -111 79 -146 62z"/>
<path d="M3450 7856 c-10 -13 -7 -13 18 -4 25 10 35 8 63 -10 19 -11 49 -37
68 -56 l34 -35 54 49 c61 56 90 67 125 49 21 -11 22 -11 9 4 -27 33 -71 19
-138 -46 l-43 -41 -27 26 c-74 69 -137 94 -163 64z"/>
<path d="M5258 6570 c3 -31 -2 -74 -12 -111 -10 -33 -16 -62 -14 -63 2 -2 34
-11 71 -21 38 -10 82 -29 98 -42 16 -14 29 -20 29 -14 0 18 -43 41 -115 63
-38 11 -71 22 -72 22 -1 1 4 24 12 51 16 53 20 151 7 159 -5 3 -7 -17 -4 -44z"/>
<path d="M3520 5937 c0 -10 102 -135 112 -136 9 -1 111 119 106 125 -3 3 -27
-22 -54 -56 -46 -57 -50 -59 -64 -42 -58 70 -100 116 -100 109z"/>
<path d="M3506 5738 c13 -22 103 -135 117 -147 12 -9 25 2 72 60 31 38 55 72
53 75 -3 2 -28 -25 -57 -61 -28 -36 -55 -65 -59 -65 -4 1 -34 34 -66 75 -55
70 -77 93 -60 63z"/>
<path d="M3570 5299 c-55 -71 -74 -99 -67 -99 2 0 32 36 66 80 34 44 63 80 65
80 2 0 32 -36 67 -80 62 -79 79 -96 60 -62 -15 27 -121 152 -129 152 -4 0 -32
-32 -62 -71z"/>
<path d="M3820 5011 c0 -5 5 -13 10 -16 6 -3 10 -2 10 4 0 5 -4 13 -10 16 -5
3 -10 2 -10 -4z"/>
<path d="M3580 2938 c-54 -50 -100 -63 -130 -35 -12 10 -12 9 -1 -5 22 -29 72
-22 124 17 25 19 47 40 50 47 3 9 18 1 43 -23 42 -39 75 -59 96 -59 7 1 -1 7
-18 14 -17 8 -49 31 -71 52 l-41 39 -52 -47z"/>
<path d="M3575 2714 c-11 -9 -33 -22 -50 -30 -24 -10 -26 -13 -10 -14 12 0 36
13 55 30 36 30 40 41 5 14z"/>
</g>
</svg>
