<?xml version="1.0" encoding="UTF-8" standalone="no"?>
<svg
   xmlns:dc="http://purl.org/dc/elements/1.1/"
   xmlns:cc="http://creativecommons.org/ns#"
   xmlns:rdf="http://www.w3.org/1999/02/22-rdf-syntax-ns#"
   xmlns:svg="http://www.w3.org/2000/svg"
   xmlns="http://www.w3.org/2000/svg"
   xmlns:sodipodi="http://sodipodi.sourceforge.net/DTD/sodipodi-0.dtd"
   xmlns:inkscape="http://www.inkscape.org/namespaces/inkscape"
   version="1.0"
   width="706.000000pt"
   height="706.000000pt"
   viewBox="0 0 706.000000 706.000000"
   preserveAspectRatio="xMidYMid meet"
   id="svg2"
   inkscape:version="0.48.4 r9939"
   sodipodi:docname="ring_hill.svg">
  <defs
     id="defs12" />
  <sodipodi:namedview
     pagecolor="#ffffff"
     bordercolor="#666666"
     borderopacity="1"
     objecttolerance="10"
     gridtolerance="10"
     guidetolerance="10"
     inkscape:pageopacity="0"
     inkscape:pageshadow="2"
     inkscape:window-width="640"
     inkscape:window-height="480"
     id="namedview10"
     showgrid="false"
     inkscape:zoom="1.5127678"
     inkscape:cx="381.4145"
     inkscape:cy="420.00054"
     inkscape:current-layer="svg2" />
  <metadata
     id="metadata4">
Created by potrace 1.11, written by Peter Selinger 2001-2013
<rdf:RDF>
  <cc:Work
     rdf:about="">
    <dc:format>image/svg+xml</dc:format>
    <dc:type
       rdf:resource="http://purl.org/dc/dcmitype/StillImage" />
  </cc:Work>
</rdf:RDF>
</metadata>
  <g
     transform="translate(0.000000,706.000000) scale(0.100000,-0.100000)"
     fill="#000000"
     stroke="none"
     id="g6"
     style="fill:none;stroke:#000000">
    <path
       d="M2756 7045 c-33 -9 -121 -44 -195 -80 -172 -81 -234 -99 -320 -92 -36 2 -73 8 -81 11 -11 4 -21 -5 -34 -29 -46 -85 -119 -131 -328 -205 -215 -77 -300 -136 -353 -245 -71 -144 -73 -386 -5 -698 12 -55 19 -101 16 -104 -3 -3 -36 2 -73 11 -234 56 -503 74 -626 41 -178 -47 -257 -136 -342 -385 -63 -185 -116 -267 -214 -330 -23 -15 -23 -18 -12 -73 21 -97 1 -172 -103 -387 -88 -183 -102 -265 -66 -381 47 -154 201 -315 466 -489 60 -39 110 -75 112 -79 1 -4 -26 -25 -60 -46 -195 -118 -393 -289 -461 -396 -107 -168 -101 -293 27 -547 65 -129 90 -219 83 -300 -2 -37 -8 -74 -11 -82 -4 -11 5 -21 29 -34 51 -28 113 -99 141 -163 14 -30 45 -112 70 -181 25 -70 57 -148 71 -174 34 -63 106 -133 168 -163 144 -71 388 -73 695 -6 116 26 113 26 107 -1 -58 -270 -68 -345 -68 -498 0 -137 14 -208 57 -291 52 -104 142 -165 344 -234 185 -63 259 -109 317 -197 26 -38 28 -39 67 -31 62 12 152 7 204 -12 26 -9 108 -46 182 -80 207 -98 283 -112 401 -75 155 48 327 213 496 477 36 57 69 103 73 103 4 0 24 -28 45 -62 118 -195 289 -393 396 -461 168 -107 292 -101 547 27 140 70 209 90 294 84 40 -3 80 -8 88 -12 11 -4 21 5 34 29 46 85 119 131 330 206 216 78 298 135 351 244 71 144 73 388 6 695 -26 116 -26 113 2 107 269 -58 344 -68 497 -68 303 1 419 89 525 401 63 185 116 267 214 330 23 15 23 18 12 73 -21 97 -1 172 103 387 91 188 104 285 58 408 -56 146 -227 316 -481 477 -50 32 -91 61 -91 65 0 4 28 24 63 46 199 122 388 284 459 395 108 165 102 292 -26 547 -70 140 -90 209 -84 294 3 40 8 80 12 88 4 11 -5 21 -29 34 -51 28 -113 99 -141 163 -14 30 -45 112 -70 181 -57 158 -84 208 -142 267 -145 144 -397 162 -871 59 -34 -7 -34 -7 -28 22 58 265 68 341 68 494 -1 304 -88 419 -401 525 -185 63 -267 116 -330 214 -15 23 -18 23 -73 12 -97 -21 -172 -1 -387 103 -188 91 -285 104 -408 58 -145 -56 -317 -228 -477 -481 -32 -50 -61 -91 -66 -91 -4 0 -28 34 -54 76 -101 167 -240 336 -336 410 -129 99 -255 131 -383 99z m191 -40 c79 -24 141 -63 227 -145 91 -86 199 -227 288 -376 35 -57 65 -104 68 -104 3 1 27 38 55 83 152 253 323 443 459 512 75 38 84 40 165 39 76 0 97 -5 179 -38 51 -21 91 -40 89 -43 -3 -2 -33 3 -68 12 -144 38 -288 13 -414 -70 -122 -82 -288 -272 -413 -475 -55 -89 -54 -88 -59 -73 -10 29 -181 275 -240 345 -121 145 -245 240 -363 275 -68 21 -205 21 -275 -1 -27 -8 -50 -14 -52 -12 -6 6 122 60 172 72 69 17 122 17 182 -1z m-81 -86 c121 -22 261 -121 393 -278 56 -68 196 -271 247 -358 10 -18 21 -33 24 -33 3 0 37 51 75 112 191 307 380 496 545 545 75 23 197 20 280 -6 l65 -21 -77 5 c-294 21 -543 -159 -819 -593 -35 -56 -66 -102 -69 -102 -3 0 -24 31 -47 68 -96 155 -201 292 -307 397 -177 175 -293 230 -488 230 -100 0 -105 1 -70 13 84 29 166 36 248 21z m-48 -84 c209 -49 409 -238 633 -599 40 -64 76 -116 80 -116 5 0 16 14 24 30 58 113 206 319 310 431 189 205 354 283 563 263 l87 -8 -74 -8 c-215 -23 -364 -100 -542 -279 -97 -98 -203 -235 -299 -386 -36 -56 -68 -101 -71 -100 -4 1 -47 63 -96 137 -248 374 -457 556 -705 615 -35 8 -88 15 -118 16 -46 1 -50 3 -25 9 51 13 167 10 233 -5z m-98 -59 c249 -53 494 -282 750 -702 l59 -97 23 39 c12 22 58 93 102 159 241 366 468 560 710 604 108 20 128 12 38 -15 -138 -40 -233 -94 -376 -213 -131 -109 -320 -344 -459 -571 l-38 -61 -55 87 c-170 271 -339 472 -502 597 -84 65 -221 137 -312 164 -61 18 -69 22 -40 22 19 0 64 -6 100 -13z m16 -77 c209 -87 433 -300 641 -614 44 -66 95 -146 114 -177 36 -61 43 -67 53 -43 3 9 47 80 97 158 236 367 461 585 699 679 125 50 138 42 25 -16 -144 -73 -224 -134 -370 -280 -136 -137 -230 -256 -370 -470 l-98 -148 -20 33 c-271 445 -544 734 -827 877 -98 49 -63 50 56 1z m-381 -29 c52 -36 255 -247 319 -331 l48 -64 -48 55 c-91 106 -230 235 -284 264 -136 74 -206 18 -231 -184 -6 -52 -13 -97 -15 -99 -8 -9 -4 171 7 246 22 160 85 195 204 113z m2479 39 c52 -24 77 -123 75 -303 l-2 -121 -8 87 c-17 192 -68 270 -165 252 -73 -14 -206 -122 -345 -279 -56 -64 -40 -40 31 45 80 97 219 237 270 273 34 24 89 51 117 57 1 0 13 -5 27 -11z m-2161 -50 c260 -132 503 -385 754 -786 52 -84 98 -153 102 -153 3 0 39 54 79 121 191 311 407 565 609 712 77 56 243 146 243 132 0 -3 -17 -13 -38 -24 -21 -11 -76 -48 -122 -82 -219 -162 -434 -406 -658 -747 -55 -84 -103 -158 -106 -165 -6 -14 3 -26 -129 175 -250 384 -493 645 -747 807 -78 49 -73 53 13 10z m61 -108 c211 -149 480 -466 709 -835 l84 -136 113 178 c195 304 381 533 565 695 78 69 235 185 235 174 0 -2 -28 -26 -62 -53 -228 -178 -522 -531 -767 -922 -46 -73 -84 -132 -86 -130 -1 2 -37 59 -80 128 -239 385 -535 743 -760 920 -44 34 -82 65 -85 68 -9 11 55 -30 134 -87z m-954 45 c0 -2 -20 -16 -44 -30 -258 -151 -317 -456 -192 -990 9 -38 15 -70 13 -72 -2 -2 -27 3 -57 11 -103 27 -283 57 -394 64 -194 12 -335 -11 -440 -73 -56 -32 -137 -120 -176 -189 -18 -31 -33 -57 -35 -57 -7 0 33 106 59 159 55 107 138 170 266 202 124 31 394 7 640 -56 52 -13 95 -23 97 -22 1 2 -9 45 -22 98 -81 316 -86 609 -15 749 43 84 107 136 228 186 57 23 72 28 72 20z m3617 -41 c124 -57 190 -138 224 -275 31 -124 7 -394 -56 -640 -13 -52 -23 -95 -22 -97 2 -1 45 9 98 22 314 80 610 86 747 16 62 -32 117 -86 151 -150 30 -57 74 -171 68 -177 -1 -2 -16 23 -32 54 -68 129 -198 225 -351 257 -140 30 -378 14 -614 -39 -58 -13 -106 -23 -108 -21 -1 1 6 40 17 86 36 156 52 263 58 404 10 225 -27 359 -130 471 -27 30 -76 70 -108 90 -32 20 -59 39 -59 41 0 7 42 -8 117 -42z m-3050 20 c58 -25 166 -119 259 -228 122 -143 131 -156 41 -60 -187 197 -304 254 -375 183 -37 -36 -48 -69 -67 -191 l-14 -94 3 140 c4 149 16 201 52 241 27 28 50 30 101 9z m2469 -23 c33 -48 44 -118 43 -260 -2 -123 -2 -125 -9 -47 -11 123 -28 181 -65 220 -42 45 -86 47 -164 5 -57 -31 -188 -150 -275 -250 l-48 -55 48 65 c75 100 292 314 344 339 61 29 99 24 126 -17z m-3055 -49 c-63 -63 -86 -95 -119 -163 -56 -119 -67 -177 -66 -365 1 -163 20 -310 62 -487 11 -43 17 -78 15 -78 -2 0 -52 11 -111 24 -268 62 -549 77 -693 38 -124 -33 -194 -74 -287 -169 l-84 -84 29 51 c44 80 113 161 165 192 170 105 428 109 831 14 56 -14 103 -23 105 -21 2 1 -8 51 -22 111 -52 228 -59 284 -60 459 -1 152 1 178 22 245 30 94 78 167 145 218 42 33 134 91 144 92 1 0 -33 -35 -76 -77z m3639 -43 c111 -107 146 -228 137 -469 -5 -148 -17 -228 -64 -424 -14 -60 -23 -110 -21 -112 2 -2 49 7 104 20 212 50 282 59 474 59 169 1 190 -1 249 -22 128 -46 205 -116 282 -257 18 -33 30 -58 27 -55 -3 3 -32 37 -66 76 -74 87 -149 138 -262 178 -84 31 -87 31 -285 31 -206 0 -281 -9 -484 -57 -45 -10 -84 -18 -86 -16 -1 2 6 37 16 78 46 190 63 322 63 495 1 193 -10 247 -70 367 -26 53 -59 95 -116 152 l-80 78 63 -33 c34 -19 88 -59 119 -89z m-3564 34 c-66 -80 -118 -182 -148 -290 -18 -68 -21 -105 -22 -269 0 -197 14 -313 64 -524 11 -46 18 -86 16 -88 -2 -3 -55 7 -118 21 -208 47 -322 60 -508 60 -147 -1 -188 -4 -255 -22 -108 -29 -230 -92 -300 -155 -64 -56 -61 -39 5 36 49 55 133 114 205 144 93 38 154 47 310 47 159 -1 308 -22 505 -69 56 -14 105 -25 109 -25 4 0 -7 65 -25 146 -119 526 -76 812 152 1005 32 27 60 49 61 49 2 0 -21 -30 -51 -66z m3456 -36 c178 -180 204 -491 84 -993 -14 -55 -23 -102 -21 -104 2 -1 52 9 112 23 392 93 678 94 858 4 49 -25 117 -80 165 -132 59 -66 68 -84 21 -46 -72 58 -104 80 -161 110 -212 108 -512 114 -938 19 -51 -12 -96 -19 -99 -16 -3 3 6 57 21 119 118 518 75 856 -138 1087 l-31 34 35 -23 c19 -13 61 -50 92 -82z m-2426 -110 c181 -186 379 -447 564 -746 85 -138 96 -151 108 -135 8 10 60 91 116 180 127 200 252 375 372 518 105 125 278 304 344 354 29 22 9 -3 -56 -70 -242 -249 -479 -562 -694 -914 -40 -66 -78 -126 -84 -132 -9 -10 -28 14 -81 100 -229 372 -482 708 -729 966 -77 80 -78 82 -21 34 33 -29 105 -98 161 -155z m-958 160 c-76 -118 -119 -232 -143 -377 -34 -200 -11 -505 59 -806 13 -55 23 -101 22 -102 0 0 -68 14 -151 32 -234 53 -380 68 -590 62 -153 -4 -194 -9 -272 -31 -87 -24 -201 -74 -268 -118 -23 -15 -20 -11 10 17 223 204 573 237 1110 106 63 -16 115 -25 115 -20 0 4 -13 65 -30 136 -53 229 -63 315 -64 513 -1 146 3 201 17 263 23 97 81 214 144 289 50 61 65 73 41 36z m3289 -40 c62 -77 106 -163 135 -265 20 -69 23 -100 23 -268 -1 -201 -16 -320 -70 -545 -14 -56 -25 -107 -25 -114 0 -10 35 -5 135 19 395 96 700 96 913 3 57 -26 150 -87 177 -119 l20 -23 -35 21 c-80 49 -168 86 -259 111 -89 24 -112 26 -311 26 -232 1 -324 -9 -560 -63 -69 -15 -126 -27 -126 -27 -1 1 13 71 32 156 103 476 83 821 -60 1073 -24 42 -43 77 -42 77 1 0 25 -28 53 -62z m-3282 -62 c-111 -274 -110 -691 1 -1159 14 -60 24 -110 22 -112 -2 -3 -71 11 -154 29 -268 60 -364 71 -624 70 -259 0 -337 -11 -494 -72 -42 -16 -76 -28 -76 -27 0 11 138 77 205 99 243 78 516 70 952 -29 82 -18 149 -32 150 -31 1 0 -12 56 -28 124 -108 455 -109 811 -3 1050 26 59 72 142 79 142 2 0 -12 -38 -30 -84z m3266 -31 c71 -149 84 -219 84 -470 0 -243 -10 -322 -70 -581 -19 -81 -34 -149 -32 -150 2 -2 27 3 57 11 86 23 345 72 453 85 61 8 162 11 275 7 202 -6 283 -23 417 -87 98 -47 143 -80 61 -44 -164 71 -359 100 -611 91 -205 -7 -444 -43 -676 -102 l-27 -7 24 99 c34 140 71 367 85 518 21 237 -10 509 -79 675 -39 93 -14 64 39 -45z m-2389 -32 c222 -248 400 -490 606 -820 69 -112 128 -203 131 -203 3 0 33 46 66 102 97 165 312 483 424 628 103 133 302 363 338 390 10 8 2 -4 -18 -25 -195 -215 -492 -634 -749 -1058 -29 -48 -56 -90 -60 -92 -4 -3 -49 64 -101 148 -237 387 -482 729 -736 1027 -78 92 -11 25 99 -97z m-374 92 c86 -49 141 -104 336 -335 12 -13 -33 30 -99 96 -175 174 -266 215 -335 149 -37 -35 -50 -74 -66 -195 l-13 -95 3 145 c2 83 9 160 16 180 30 82 80 100 158 55z m2331 15 c40 -21 54 -85 57 -250 2 -129 1 -141 -6 -70 -13 148 -39 212 -95 236 -71 29 -158 -20 -316 -178 -72 -71 -90 -86 -59 -48 74 92 262 276 305 298 44 23 86 27 114 12z m365 -64 c105 -278 99 -664 -18 -1163 -18 -79 -29 -143 -24 -143 5 0 53 11 106 24 247 63 496 96 710 96 174 0 301 -17 431 -56 94 -28 105 -43 15 -20 -111 28 -229 39 -414 39 -243 0 -469 -29 -767 -97 -140 -32 -137 -32 -128 2 122 476 156 936 91 1242 -13 63 -27 124 -32 135 -4 11 -5 18 -1 15 3 -3 17 -36 31 -74z m-3149 27 c-44 -111 -67 -468 -46 -699 15 -158 52 -388 90 -551 15 -68 24 -123 20 -123 -4 0 -65 13 -135 29 -311 70 -512 95 -764 95 -191 -1 -297 -11 -414 -40 -87 -22 -80 -9 11 19 128 41 258 58 431 58 227 0 425 -26 696 -91 71 -17 131 -28 133 -26 3 2 -11 76 -31 163 -43 194 -61 303 -77 458 -16 163 -7 391 21 520 22 99 56 205 67 205 3 0 2 -8 -2 -17z m3092 -25 c-3 -8 -6 -5 -6 6 -1 11 2 17 5 13 3 -3 4 -12 1 -19z m-3068 -104 c-15 -118 -6 -520 16 -679 21 -157 59 -358 95 -518 17 -71 30 -132 30 -136 0 -5 -65 7 -145 25 -385 89 -730 130 -1020 120 -104 -3 -206 -9 -225 -12 -19 -4 -33 -4 -30 -1 3 3 48 14 100 23 132 25 484 25 665 0 137 -18 420 -73 543 -105 39 -10 72 -17 72 -14 0 2 -11 48 -24 101 -33 132 -71 323 -93 467 -26 177 -26 592 1 728 11 53 21 95 23 93 2 -2 -1 -44 -8 -92z m3110 -104 c33 -264 -5 -665 -100 -1055 -16 -66 -29 -125 -29 -131 0 -9 21 -6 73 7 241 63 554 113 777 124 145 7 365 -7 465 -30 l60 -13 -75 6 c-138 13 -508 5 -645 -12 -168 -21 -372 -58 -558 -100 -125 -28 -147 -31 -143 -17 46 154 119 568 142 801 16 163 15 456 -1 580 -2 19 2 10 10 -20 8 -30 19 -93 24 -140z m-2663 145 c60 -25 157 -109 254 -222 136 -156 137 -160 15 -37 -124 125 -187 170 -251 180 -96 14 -135 -55 -158 -281 -2 -22 -3 28 -2 110 3 161 17 220 59 250 27 19 39 19 83 0z m381 -93 c171 -213 418 -572 606 -880 l105 -173 20 33 c173 291 371 594 516 793 82 114 225 295 232 295 2 0 -36 -53 -84 -118 -153 -205 -585 -874 -666 -1030 l-17 -34 -118 194 c-227 373 -441 696 -603 911 -107 142 -102 147 9 9z m1896 78 c35 -41 47 -110 46 -253 l-2 -122 -7 90 c-9 105 -31 165 -72 200 -71 60 -177 5 -362 -188 -50 -53 -59 -60 -35 -27 18 25 87 99 154 166 161 161 228 194 278 134z m326 -256 c2 -311 -45 -657 -140 -1038 -17 -65 -29 -120 -27 -121 2 -2 87 16 190 40 375 87 681 126 973 124 l170 -1 -195 -14 c-346 -24 -715 -81 -1055 -163 -66 -16 -122 -28 -124 -25 -2 2 12 72 32 156 102 433 155 822 158 1153 1 125 4 155 9 115 5 -30 8 -132 9 -226z m-2999 -84 c6 -91 22 -244 35 -340 26 -179 100 -566 135 -700 10 -41 18 -75 17 -76 -1 -2 -58 11 -127 27 -439 102 -720 142 -1225 172 -27 2 36 4 141 5 292 3 625 -40 998 -128 93 -22 170 -40 171 -40 1 0 -11 53 -27 118 -104 425 -158 868 -141 1145 7 101 8 110 10 52 2 -38 7 -144 13 -235z m2941 60 c-21 -327 -82 -713 -170 -1072 -21 -87 -34 -158 -30 -158 4 0 79 17 166 39 350 86 796 155 1063 164 74 3 117 3 95 1 -432 -44 -780 -103 -1198 -205 -92 -23 -170 -40 -172 -38 -2 2 8 49 21 104 113 464 198 960 220 1285 5 58 10 96 12 85 3 -11 -1 -103 -7 -205z m-2876 -152 c34 -272 90 -574 171 -916 25 -107 44 -196 41 -198 -3 -3 -40 4 -83 15 -383 97 -929 193 -1254 220 -88 8 -90 8 -30 10 232 4 727 -69 1154 -170 92 -22 170 -38 173 -36 2 3 -10 59 -27 126 -101 401 -167 826 -175 1131 -3 148 -3 154 5 58 4 -59 16 -167 25 -240z m395 312 c49 -25 154 -120 234 -209 114 -129 119 -144 11 -35 -123 124 -197 174 -260 174 -86 -1 -120 -65 -136 -255 -6 -74 -7 -60 -5 75 2 131 6 173 19 205 30 69 66 81 137 45z m2163 2 c38 -42 63 -191 50 -302 l-7 -65 -7 85 c-12 145 -52 210 -131 210 -69 0 -156 -61 -292 -203 -49 -52 -59 -59 -35 -27 55 74 261 276 304 298 49 26 97 28 118 4z m-2536 -139 c-3 -10 -5 -2 -5 17 0 19 2 27 5 18 2 -10 2 -26 0 -35z m453 -7 c47 -31 203 -188 265 -268 42 -53 33 -46 -60 48 -118 118 -176 159 -241 169 -34 6 -45 3 -71 -19 -46 -38 -64 -96 -73 -226 -8 -111 -8 -109 -6 60 1 153 3 180 21 215 35 69 83 75 165 21z m2042 10 c9 -11 21 -39 27 -61 15 -62 25 -232 13 -238 -5 -4 -11 20 -14 58 -7 84 -40 151 -84 172 -67 33 -152 -14 -304 -167 -53 -53 -79 -75 -60 -50 55 71 221 239 268 272 75 52 121 56 154 14z m305 -23 c-3 -10 -5 -2 -5 17 0 19 2 27 5 18 2 -10 2 -26 0 -35z m-2771 -148 c47 -295 191 -964 260 -1202 6 -21 6 -21 -108 8 -291 74 -964 216 -1111 234 -32 4 -56 10 -53 12 22 22 636 -89 1054 -190 152 -37 182 -42 178 -28 -89 299 -251 1148 -245 1286 2 26 2 27 6 5 2 -14 11 -70 19 -125z m2760 48 c-20 -219 -115 -730 -202 -1075 -19 -75 -34 -141 -34 -146 0 -6 69 8 153 29 334 85 874 187 1072 203 42 3 4 -6 -95 -23 -300 -52 -581 -111 -953 -202 -114 -28 -211 -49 -214 -46 -3 3 15 90 40 194 99 409 193 861 219 1056 6 48 14 87 16 87 2 0 1 -35 -2 -77z m-2310 -2 c58 -33 211 -182 281 -273 39 -51 30 -44 -58 45 -244 245 -360 224 -379 -68 l-7 -110 -3 80 c-10 244 20 355 95 355 11 0 43 -13 71 -29z m1961 7 c33 -37 43 -83 48 -222 3 -105 2 -120 -5 -76 -26 146 -32 164 -65 197 -68 68 -154 33 -319 -131 -107 -107 -109 -108 -50 -36 34 41 102 114 151 162 130 124 196 154 240 106z m-1905 -137 c52 -33 179 -157 247 -241 42 -52 40 -50 -35 21 -152 147 -220 183 -289 155 -44 -19 -70 -72 -84 -171 -5 -37 -13 -70 -17 -74 -10 -9 4 202 17 253 23 90 78 110 161 57z m1860 12 c29 -34 40 -89 43 -233 l4 -145 -13 100 c-7 55 -19 114 -25 130 -53 131 -163 104 -355 -89 -69 -68 -94 -90 -66 -56 107 133 243 264 303 294 42 21 90 20 109 -1z m185 -25 c-3 -7 -5 -2 -5 12 0 14 2 19 5 13 2 -7 2 -19 0 -25z m-2019 -103 c68 -38 138 -103 230 -210 126 -146 128 -151 16 -35 -109 112 -189 169 -251 177 -32 4 -45 0 -70 -21 -37 -31 -51 -69 -69 -186 l-13 -85 4 135 c4 141 14 190 48 228 26 28 52 28 105 -3z m1771 15 c38 -20 54 -86 57 -240 2 -120 1 -132 -6 -67 -11 108 -28 163 -62 199 -26 28 -33 30 -74 25 -56 -6 -128 -52 -232 -150 -69 -65 -72 -67 -35 -22 108 132 266 265 315 265 11 0 27 -4 37 -10z m-1721 -141 c46 -23 197 -166 272 -259 35 -44 23 -34 -61 46 -153 146 -237 178 -299 116 -33 -33 -48 -81 -59 -190 l-8 -77 -1 110 c-2 123 15 225 43 255 23 26 58 25 113 -1z m1695 -10 c27 -37 36 -96 35 -229 l-1 -115 -8 83 c-10 104 -22 142 -58 176 -65 62 -145 29 -311 -129 l-84 -80 54 64 c83 97 176 188 233 227 64 42 109 43 140 3z m-1656 -113 c54 -26 197 -160 283 -266 34 -42 20 -31 -63 48 -224 216 -331 200 -357 -52 -8 -71 -8 -64 -6 59 3 145 11 180 46 215 25 25 34 25 97 -4z m1584 14 c10 -6 25 -23 33 -38 19 -37 38 -173 34 -242 l-3 -55 -8 40 c-5 22 -13 65 -19 95 -13 66 -59 120 -104 120 -60 0 -136 -51 -259 -175 -116 -116 -118 -117 -55 -40 99 121 230 247 291 278 60 30 63 31 90 17z m-301 -74 c0 -2 -8 -10 -17 -17 -16 -13 -17 -12 -4 4 13 16 21 21 21 13z m-1231 -68 c48 -23 204 -172 281 -268 35 -44 26 -37 -46 34 -106 106 -177 156 -234 163 -78 11 -113 -30 -142 -167 l-18 -85 5 110 c5 125 18 180 48 213 26 28 49 28 106 0z m1507 -3 c28 -43 44 -134 43 -245 l-2 -105 -8 75 c-17 147 -55 210 -126 210 -61 0 -132 -47 -252 -167 -125 -125 -125 -124 -1 21 170 199 301 279 346 211z m-326 11 c0 -2 -8 -10 -17 -17 -16 -13 -17 -12 -4 4 13 16 21 21 21 13z m0 -69 c0 -2 -10 -12 -22 -23 l-23 -19 19 23 c18 21 26 27 26 19z m-939 -24 c13 -16 12 -17 -3 -4 -10 7 -18 15 -18 17 0 8 8 3 21 -13z m1200 -23 c5 0 18 -18 29 -41 15 -29 23 -70 28 -145 8 -111 -1 -179 -10 -78 -12 124 -67 194 -144 180 -49 -10 -136 -72 -238 -172 -74 -73 -82 -79 -46 -34 84 104 233 245 290 273 30 15 61 25 68 22 8 -3 18 -5 23 -5z m-1392 -19 c51 -26 176 -145 269 -255 l77 -91 -112 111 c-170 170 -264 208 -327 133 -29 -34 -45 -86 -56 -174 -7 -57 -7 -55 -8 35 -2 110 16 211 43 240 23 25 65 26 114 1z m78 -147 c54 -37 220 -204 283 -284 19 -25 -10 1 -65 57 -165 167 -266 215 -332 159 -35 -30 -51 -67 -69 -171 l-13 -70 5 111 c9 237 59 288 191 198z m1280 24 c31 -34 43 -90 48 -218 l5 -115 -14 80 c-23 142 -61 192 -141 183 -60 -7 -145 -66 -255 -177 -64 -65 -81 -78 -50 -41 78 96 253 264 300 287 57 29 81 29 107 1z m2036 -15 c-7 -2 -19 -2 -25 0 -7 3 -2 5 12 5 14 0 19 -2 13 -5z m-3092 -90 c13 -16 12 -17 -3 -4 -17 13 -22 21 -14 21 2 0 10 -8 17 -17z m-2148 0 c-7 -2 -19 -2 -25 0 -7 3 -2 5 12 5 14 0 19 -2 13 -5z m85 -10 c-10 -2 -26 -2 -35 0 -10 3 -2 5 17 5 19 0 27 -2 18 -5z m1854 -14 c45 -23 200 -169 281 -264 42 -48 31 -41 -53 40 -224 212 -331 212 -377 0 l-13 -60 4 100 c4 95 19 158 47 192 17 19 64 16 111 -8z m1222 2 c27 -30 44 -100 50 -212 l5 -104 -17 80 c-20 90 -29 109 -67 145 -60 56 -156 15 -313 -134 l-97 -91 62 70 c192 219 324 305 377 246z m-3470 -1 c-249 -21 -317 -96 -226 -249 24 -41 81 -106 162 -185 135 -131 135 -132 -15 -4 -242 206 -324 341 -243 401 43 32 123 45 273 45 139 -1 139 -1 49 -8z m5832 -1 c165 -30 169 -119 13 -284 -63 -66 -230 -215 -279 -249 -9 -6 7 9 35 33 82 72 191 188 224 238 105 159 38 242 -213 263 l-91 7 126 2 c69 0 152 -4 185 -10z m-5731 -50 c-145 -14 -216 -45 -235 -104 -25 -77 30 -167 211 -339 105 -101 108 -105 35 -45 -247 200 -361 344 -334 421 20 56 93 76 283 76 l130 -1 -90 -8z m5614 0 c67 -14 115 -47 119 -82 8 -67 -97 -198 -287 -359 -111 -94 -153 -126 -72 -54 174 154 271 283 271 361 0 30 -7 44 -34 70 -40 38 -96 54 -216 65 l-85 7 127 2 c70 0 150 -4 177 -10z m-5491 -50 c-113 -10 -181 -32 -213 -70 -60 -72 -20 -157 158 -334 72 -71 122 -123 111 -114 -255 205 -384 351 -384 432 0 33 49 74 98 82 20 4 42 8 47 10 6 2 69 3 140 3 l130 -1 -87 -8z m5420 -13 c67 -29 79 -73 41 -149 -22 -43 -218 -244 -299 -307 -25 -18 0 11 55 65 153 151 201 238 172 308 -25 58 -91 86 -232 98 -75 6 -64 7 65 5 123 -2 164 -6 198 -20z m-3318 -33 c60 -39 209 -185 280 -273 34 -42 24 -35 -40 31 -247 251 -374 262 -426 36 l-14 -62 5 95 c5 109 19 160 52 197 31 32 67 27 143 -24z m1092 27 c18 -13 31 -39 41 -82 16 -61 32 -208 23 -208 -2 0 -9 24 -16 53 -23 109 -70 167 -137 167 -60 0 -161 -68 -292 -199 -79 -80 -70 -67 46 64 81 90 170 167 234 202 53 28 69 29 101 3z m2073 -36 c142 -38 121 -129 -73 -315 -53 -52 -122 -114 -152 -139 -33 -27 -11 -1 56 66 111 111 174 204 174 260 0 78 -79 124 -228 133 -89 5 -92 6 -42 11 80 8 207 0 265 -16z m-5145 6 c-225 -18 -287 -99 -191 -248 26 -41 149 -169 236 -247 17 -15 3 -6 -31 19 -34 26 -104 87 -157 137 -166 156 -216 260 -148 308 43 31 93 39 241 39 127 -1 130 -1 50 -8z m184 -42 c45 -1 33 -3 -44 -8 -126 -8 -183 -24 -221 -63 -67 -67 -9 -185 180 -365 53 -51 53 -52 11 -20 -25 18 -93 81 -152 139 -80 79 -115 121 -134 163 -33 72 -27 99 28 127 42 21 185 41 242 33 16 -2 56 -5 90 -6z m4842 -13 c86 -26 104 -67 63 -148 -23 -45 -198 -225 -289 -296 -43 -34 -36 -25 31 40 139 135 189 208 189 277 0 77 -65 119 -200 130 -56 4 -69 8 -50 13 35 11 202 1 256 -16z m-4766 -35 c20 -6 15 -8 -26 -9 -68 -1 -146 -26 -184 -57 -26 -22 -30 -33 -30 -73 0 -64 48 -137 171 -260 108 -109 41 -59 -98 72 -214 203 -216 304 -5 326 99 11 141 11 172 1z m1750 -22 c54 -31 282 -244 303 -283 5 -11 -32 21 -84 70 -111 106 -195 155 -262 155 -71 0 -106 -44 -141 -175 -3 -11 -3 16 -1 60 5 94 20 146 51 181 31 33 67 31 134 -8z m1029 5 c27 -34 48 -109 55 -198 l5 -70 -20 65 c-35 107 -69 143 -140 142 -67 -1 -149 -53 -278 -176 l-75 -71 62 71 c139 161 271 264 339 264 22 0 38 -8 52 -27z m1856 6 c63 -16 89 -41 88 -83 -2 -53 -50 -121 -166 -233 -148 -142 -211 -187 -85 -60 104 105 168 199 168 249 0 63 -74 115 -177 125 -32 3 -65 10 -73 15 -19 12 190 1 245 -13z m-4532 4 c-7 -2 -19 -2 -25 0 -7 3 -2 5 12 5 14 0 19 -2 13 -5z m22 -43 c-11 -5 -37 -9 -57 -9 -53 -1 -144 -38 -168 -68 -52 -66 6 -174 187 -349 l58 -56 -55 43 c-30 24 -96 84 -146 134 -198 197 -200 282 -5 305 94 11 211 11 186 0z m4395 -11 c124 -42 105 -117 -74 -295 -61 -60 -131 -125 -156 -144 -26 -20 -1 9 57 67 159 158 200 254 136 315 -37 36 -71 47 -183 64 l-95 14 140 -5 c77 -2 156 -9 175 -16z m-4306 -44 c-108 -14 -176 -40 -195 -76 -19 -36 -5 -105 34 -163 19 -29 75 -92 123 -141 110 -109 39 -58 -89 64 -99 96 -167 189 -167 231 0 70 81 97 290 98 l105 0 -101 -13z m1781 -5 c10 -11 16 -20 13 -20 -3 0 -13 9 -23 20 -10 11 -16 20 -13 20 3 0 13 -9 23 -20z m2405 0 c19 -7 43 -20 53 -28 27 -24 22 -80 -13 -132 -38 -57 -155 -176 -250 -253 l-75 -61 96 94 c52 52 109 115 126 140 103 153 45 229 -190 250 -80 7 -72 8 63 5 90 -2 170 -8 190 -15z m-2591 -44 c30 -17 109 -84 175 -150 110 -107 108 -110 -9 -11 -65 54 -154 104 -200 111 -73 11 -120 -25 -161 -123 l-24 -58 6 50 c18 163 61 233 134 218 14 -3 49 -19 79 -37z m905 32 c43 -19 87 -140 85 -232 0 -30 -1 -29 -13 11 -28 89 -81 143 -138 143 -69 0 -172 -58 -279 -158 -99 -92 -65 -41 40 61 107 103 175 154 231 173 44 16 44 16 74 2z m-2350 -29 c-45 -4 -101 -13 -124 -19 -53 -14 -110 -68 -110 -102 0 -55 61 -148 164 -251 l101 -101 -76 61 c-95 77 -224 214 -250 265 -40 79 -9 131 87 147 27 5 103 9 169 8 l120 0 -81 -8z m3928 -16 c62 -28 69 -55 35 -126 -27 -55 -170 -204 -282 -294 -46 -36 -33 -21 51 63 239 239 220 347 -64 374 -78 8 -72 8 63 6 128 -2 157 -5 197 -23z m-5345 -15 c-3 -8 -6 -5 -6 6 -1 11 2 17 5 13 3 -3 4 -12 1 -19z m6507 -40 c-29 -325 -223 -562 -702 -860 l-113 -70 108 -67 c333 -207 534 -394 632 -590 39 -76 71 -197 70 -260 l0 -46 -18 65 c-63 229 -226 449 -476 643 -84 66 -342 241 -368 250 -15 5 -20 2 108 82 444 280 698 576 751 878 10 57 14 44 8 -25z m53 -118 c-5 -130 -25 -193 -93 -297 -81 -124 -287 -299 -521 -444 -62 -39 -113 -72 -113 -74 0 -1 35 -24 78 -51 337 -208 540 -402 618 -594 29 -72 43 -212 28 -296 l-8 -49 -7 75 c-28 316 -214 556 -648 835 -67 43 -121 80 -121 84 0 3 37 29 82 56 214 130 427 309 528 443 101 133 159 286 161 427 1 64 2 67 11 35 6 -20 8 -86 5 -150z m-6563 -75 c43 -135 124 -253 265 -387 100 -95 252 -210 380 -288 49 -30 90 -58 91 -61 0 -3 -43 -32 -96 -65 -148 -91 -299 -209 -405 -314 -153 -152 -237 -298 -259 -452 -22 -148 -23 -150 -31 -78 -8 84 5 192 31 263 66 175 263 367 585 567 55 34 104 66 108 70 5 4 -40 38 -100 75 -361 226 -555 426 -608 632 -16 59 -20 219 -8 263 6 18 10 0 14 -60 4 -47 19 -121 33 -165z m121 83 c121 -239 416 -519 794 -754 87 -53 92 -59 75 -71 -10 -8 -84 -57 -164 -110 -392 -259 -645 -523 -750 -785 -13 -32 -25 -56 -27 -54 -8 8 40 153 72 216 72 141 218 309 390 446 79 63 303 215 382 260 29 16 53 31 53 34 0 3 -53 37 -118 77 -338 206 -597 449 -701 658 -29 60 -81 213 -81 239 0 6 11 -14 23 -44 13 -30 36 -80 52 -112z m6325 69 c-89 -293 -335 -549 -807 -837 -40 -25 -73 -47 -73 -50 0 -3 54 -38 119 -78 157 -96 339 -232 450 -338 148 -141 244 -281 296 -434 34 -99 31 -121 -4 -39 -130 300 -399 560 -915 884 -13 8 12 27 125 99 285 179 551 415 677 599 57 83 126 214 138 262 4 16 9 24 12 17 2 -7 -6 -45 -18 -85z m-6538 -12 c-9 -169 34 -296 145 -435 100 -126 291 -284 486 -402 l68 -41 -133 -87 c-161 -105 -258 -182 -359 -286 -99 -102 -153 -188 -186 -291 -23 -75 -25 -95 -21 -203 l4 -120 -18 58 c-90 288 18 496 392 759 47 33 124 83 172 112 l88 53 -108 67 c-291 181 -463 343 -539 506 -24 53 -27 72 -28 165 0 74 6 125 19 173 10 37 20 67 21 67 1 0 0 -43 -3 -95z m278 -50 c164 -242 454 -499 836 -740 l124 -79 -47 -30 c-445 -276 -749 -541 -924 -805 -38 -57 -69 -101 -69 -97 0 5 19 44 42 89 135 259 395 504 806 758 l133 83 -52 30 c-103 61 -346 227 -429 292 -207 165 -397 387 -476 559 -41 89 -44 109 -6 40 15 -27 43 -72 62 -100z m6200 69 c-126 -279 -445 -582 -887 -843 -40 -24 -73 -45 -73 -47 0 -1 42 -28 93 -60 353 -218 610 -438 759 -650 56 -80 123 -202 115 -210 -2 -3 -26 30 -53 72 -154 248 -460 524 -860 776 -88 56 -111 75 -102 83 7 6 63 43 123 80 407 255 737 562 876 814 18 33 35 59 37 57 2 -2 -11 -34 -28 -72z m258 -137 c4 -88 2 -105 -22 -170 -60 -163 -228 -328 -529 -516 l-127 -79 111 -69 c315 -195 504 -385 555 -560 20 -70 15 -202 -12 -287 l-19 -58 0 133 c-1 125 -3 139 -31 209 -77 193 -263 379 -571 574 -51 32 -93 60 -93 61 0 2 41 28 90 59 198 123 385 280 476 398 57 73 108 184 124 266 8 36 11 103 8 160 l-5 97 20 -60 c12 -35 22 -100 25 -158z m-6799 123 c-25 -99 -24 -201 1 -284 52 -167 229 -349 527 -540 51 -33 90 -62 88 -65 -2 -4 -39 -29 -82 -55 -287 -180 -476 -371 -535 -540 -21 -62 -24 -199 -4 -271 7 -27 16 -61 20 -75 10 -37 -33 44 -61 115 -48 121 -40 231 26 345 64 112 260 282 473 410 59 36 107 67 107 70 0 3 -49 36 -109 73 -397 247 -566 465 -522 673 10 47 81 228 87 222 2 -2 -5 -37 -16 -78z m1678 69 c-254 -25 -272 -130 -61 -359 l69 -75 -62 53 c-93 80 -199 197 -223 247 -52 107 11 143 245 143 l120 -1 -88 -8z m3657 1 c85 -19 113 -67 80 -136 -22 -46 -125 -158 -228 -247 -126 -110 -127 -109 -14 3 169 169 207 263 134 328 -38 33 -65 41 -176 52 -72 7 -70 7 45 8 66 1 138 -3 159 -8z m-5084 -239 c108 -206 295 -390 615 -604 83 -55 150 -103 150 -108 0 -4 -53 -41 -117 -82 -423 -271 -665 -549 -730 -839 -18 -83 -21 -29 -3 72 48 282 269 525 727 800 l79 47 -108 67 c-407 252 -621 479 -683 722 -11 43 -20 98 -19 123 0 45 1 44 25 -38 14 -47 43 -119 64 -160z m6239 200 c-31 -55 -122 -175 -201 -262 -158 -176 -486 -430 -760 -589 -43 -25 -76 -49 -75 -55 2 -5 37 -30 79 -55 388 -233 689 -484 876 -733 54 -70 88 -127 60 -97 -8 8 -53 61 -101 116 -178 208 -510 475 -847 683 -74 46 -136 85 -138 86 -1 1 71 49 160 106 312 200 530 371 733 574 72 71 153 160 180 198 27 37 51 67 53 67 2 0 -7 -18 -19 -39z m-75 -18 c-128 -159 -281 -305 -489 -469 -119 -93 -413 -292 -537 -364 -43 -25 -78 -47 -78 -50 0 -3 69 -47 153 -99 372 -230 705 -498 890 -716 50 -59 50 -59 -29 17 -250 241 -612 514 -966 728 -60 36 -108 68 -108 71 0 3 57 41 128 84 385 237 848 596 1012 784 63 72 79 81 24 14z m-6026 -41 c180 -229 559 -542 924 -766 65 -39 118 -74 118 -77 0 -3 -53 -39 -117 -79 -366 -226 -718 -513 -901 -735 -97 -117 -103 -123 -52 -45 170 256 460 511 875 770 70 43 129 81 132 83 2 3 -56 42 -129 88 -434 270 -725 532 -903 812 -31 49 -10 28 53 -51z m6479 -37 c47 -119 39 -235 -25 -345 -67 -114 -272 -290 -490 -420 -50 -30 -91 -57 -91 -60 0 -3 49 -36 109 -73 256 -159 416 -305 485 -441 38 -75 40 -84 39 -165 0 -76 -5 -97 -38 -177 -48 -118 -72 -152 -45 -64 27 86 35 212 19 281 -28 123 -127 263 -268 382 -85 71 -230 175 -310 222 -28 17 -52 33 -52 36 0 3 28 23 63 44 145 90 269 185 373 289 95 95 117 124 154 199 39 78 44 97 48 174 4 74 -1 118 -24 218 -7 31 26 -32 53 -100z m-5041 96 c-3 -4 -33 -11 -67 -15 -83 -8 -139 -40 -157 -89 -14 -35 -13 -40 18 -105 26 -52 59 -92 144 -177 66 -66 88 -92 56 -65 -97 79 -267 254 -289 298 -32 64 -26 102 22 126 52 25 286 49 273 27z m3343 -2 c74 -12 116 -31 132 -60 26 -49 -60 -171 -224 -316 -122 -108 -128 -106 -17 5 109 110 160 188 160 245 0 45 -53 92 -120 105 -155 31 -153 30 -70 31 41 0 104 -4 139 -10z m-4442 -311 c199 -165 431 -330 692 -492 111 -68 148 -96 139 -103 -7 -6 -74 -48 -148 -94 -248 -153 -549 -370 -720 -518 -41 -36 -126 -115 -189 -175 -86 -83 -103 -97 -71 -56 169 212 531 507 920 749 l160 99 -147 92 c-197 123 -413 275 -548 385 -121 99 -317 289 -385 375 -31 39 -8 20 80 -66 69 -66 166 -154 217 -196z m2316 287 c57 -29 101 -62 202 -153 87 -78 108 -112 30 -48 -102 83 -190 129 -255 134 -73 5 -112 -14 -151 -76 -25 -40 -29 -43 -29 -21 0 47 30 127 59 158 36 39 74 40 144 6z m871 -9 c33 -34 49 -77 61 -156 l6 -45 -21 42 c-76 149 -205 140 -417 -29 -69 -55 -80 -61 -48 -28 75 80 203 186 261 218 79 42 117 42 158 -2z m2391 -27 c-215 -219 -578 -494 -973 -737 -159 -98 -163 -101 -140 -115 13 -8 91 -57 173 -107 306 -189 556 -371 798 -583 81 -71 147 -131 147 -134 0 -5 -4 -2 -186 147 -221 181 -546 407 -862 600 -84 51 -150 96 -145 100 4 4 67 42 138 85 378 229 925 624 1064 769 19 20 37 36 40 36 3 0 -21 -27 -54 -61z m-5505 -230 c198 -152 550 -390 788 -533 62 -37 110 -71 107 -75 -2 -5 -67 -46 -142 -92 -317 -192 -754 -501 -968 -683 l-90 -77 90 86 c107 103 322 277 493 400 123 87 424 282 514 333 27 15 48 29 48 32 0 3 -62 43 -137 89 -325 199 -620 413 -858 624 -179 158 -218 204 -60 70 72 -60 168 -139 215 -174z m1180 244 c-147 -15 -217 -39 -244 -83 -40 -68 0 -146 154 -300 134 -134 78 -94 -80 57 -111 106 -165 177 -176 229 -13 67 81 103 271 102 61 -1 94 -3 75 -5z m3146 -24 c47 -23 49 -26 48 -65 0 -29 -10 -54 -34 -89 -37 -54 -157 -176 -241 -245 -41 -34 -31 -20 46 61 147 155 179 237 117 299 -32 32 -76 46 -184 60 -65 8 -59 9 63 6 121 -2 142 -5 185 -27z m1079 -15 c-204 -182 -608 -466 -1013 -713 -124 -75 -151 -96 -140 -106 7 -6 92 -59 188 -118 314 -190 724 -474 855 -592 23 -20 5 -10 -40 23 -219 160 -585 399 -912 596 -90 53 -163 100 -163 104 0 4 42 31 93 61 316 185 817 515 1032 680 137 104 167 124 100 65z m-5455 -100 c204 -153 569 -393 903 -593 169 -101 187 -114 170 -126 -10 -7 -93 -58 -183 -112 -303 -183 -634 -400 -852 -559 -71 -51 -128 -92 -128 -89 0 6 173 141 307 238 202 147 531 363 741 487 40 23 71 44 70 45 -2 1 -91 56 -198 122 -205 126 -378 239 -545 356 -105 74 -365 275 -425 328 l-35 31 40 -28 c22 -16 83 -61 135 -100z m4205 85 c141 -27 130 -113 -38 -282 -45 -46 -111 -107 -147 -137 -57 -48 -53 -42 41 56 101 105 159 192 159 236 0 64 -71 114 -175 125 -30 3 -52 10 -49 14 6 10 134 2 209 -12z m-2915 1 c-242 -31 -253 -142 -36 -369 88 -92 89 -93 26 -41 -168 141 -275 276 -268 337 7 56 79 81 238 81 83 -1 88 -2 40 -8z m1060 -55 c52 -26 183 -123 250 -184 l45 -42 -78 51 c-169 111 -280 142 -369 102 -26 -11 -54 -32 -64 -46 -24 -38 -27 -26 -8 30 17 51 55 100 89 115 28 12 80 2 135 -26z m778 9 c23 -15 72 -105 72 -133 0 -10 -12 -4 -32 15 -47 44 -89 58 -158 51 -70 -6 -140 -36 -258 -112 -91 -58 -79 -44 55 64 74 61 164 117 211 131 34 11 79 4 110 -16z m2062 22 c0 -2 -8 -10 -17 -17 -16 -13 -17 -12 -4 4 13 16 21 21 21 13z m-3758 -17 c-261 -34 -276 -139 -52 -374 80 -83 92 -99 50 -65 -188 153 -317 319 -292 375 22 49 111 73 272 73 l85 -1 -63 -8z m2632 -4 c162 -34 153 -107 -33 -294 -58 -59 -131 -126 -161 -151 -45 -36 -41 -30 26 36 263 257 259 379 -14 414 -56 7 -56 7 28 9 47 0 116 -6 154 -14z m-2514 -37 c-150 -33 -200 -66 -200 -134 0 -67 84 -191 203 -300 34 -32 46 -47 27 -33 -19 13 -89 78 -155 144 -129 129 -174 199 -161 250 12 48 130 82 286 82 l45 1 -45 -10z m2417 -13 c59 -18 83 -41 83 -80 0 -60 -97 -181 -255 -318 l-70 -61 71 75 c91 95 129 146 155 205 18 39 20 53 10 83 -15 51 -73 86 -164 101 -40 6 -76 13 -82 16 -25 11 212 -9 252 -21z m-2291 -24 c-3 -4 -24 -11 -47 -15 -81 -13 -145 -59 -155 -112 -12 -64 40 -147 185 -298 l86 -90 -70 61 c-102 88 -228 222 -259 276 -20 33 -26 57 -24 83 3 34 8 41 50 62 34 17 72 26 140 32 51 4 94 8 96 9 2 0 1 -3 -2 -8z m2152 -18 c74 -18 107 -51 98 -96 -13 -66 -143 -218 -296 -346 -62 -52 -61 -51 22 35 99 100 129 138 164 206 45 89 21 153 -72 187 -30 12 -62 21 -72 22 -9 0 -26 4 -37 9 -33 14 123 1 193 -17z m-1412 -51 c43 -22 115 -64 160 -94 l81 -56 79 55 c124 87 227 133 293 133 65 0 112 -24 135 -68 l15 -29 -42 14 c-79 28 -253 -7 -422 -85 l-60 -28 -86 37 c-181 78 -321 105 -391 76 -49 -21 -49 -6 1 44 36 37 42 39 98 39 48 0 74 -7 139 -38z m1280 12 c28 -7 63 -23 77 -35 75 -58 -7 -186 -272 -424 -25 -22 -5 3 45 56 215 232 222 345 24 408 l-65 20 70 -5 c39 -3 93 -12 121 -20z m-1962 2 c-191 -60 -177 -184 45 -421 64 -67 63 -67 -33 20 -157 143 -247 270 -232 329 12 48 101 85 206 85 l55 0 -41 -13z m123 -34 c-67 -24 -114 -65 -127 -110 -20 -77 32 -175 183 -342 23 -25 -16 11 -84 80 -238 237 -250 332 -49 376 30 7 71 13 90 13 35 0 35 0 -13 -17z m1664 8 c214 -41 204 -140 -38 -391 -95 -98 -137 -123 -51 -30 100 107 158 210 158 279 0 57 -54 110 -143 138 -40 12 -41 13 -11 13 17 1 55 -4 85 -9z m-1581 -52 c-132 -79 -118 -195 46 -408 l65 -85 -91 95 c-104 109 -184 221 -194 274 -13 70 27 111 136 140 86 24 97 19 38 -16z m1504 9 c56 -16 106 -66 106 -106 0 -65 -98 -209 -226 -331 l-57 -55 55 70 c102 131 138 203 138 280 0 46 -5 59 -30 89 -17 19 -49 44 -73 56 l-42 21 45 -6 c25 -4 63 -12 84 -18z m-1407 -27 c-44 -35 -70 -103 -64 -167 7 -63 55 -171 118 -265 52 -77 27 -59 -50 37 -152 186 -184 280 -118 351 29 31 90 62 126 64 7 0 2 -9 -12 -20z m1315 -12 c112 -56 92 -171 -62 -360 -109 -135 -124 -147 -65 -56 128 201 148 320 68 409 l-36 40 29 -7 c16 -4 46 -15 66 -26z m-979 3 c41 -11 123 -40 182 -65 l106 -46 60 30 c149 76 342 118 409 90 86 -36 78 -189 -23 -422 l-44 -101 32 -71 c66 -144 88 -224 89 -318 1 -83 -1 -89 -27 -115 -25 -25 -34 -28 -95 -27 -86 1 -171 24 -301 81 l-104 45 -76 -35 c-104 -48 -228 -85 -303 -92 -115 -11 -164 39 -152 153 8 78 38 177 84 282 l41 93 -45 106 c-78 184 -101 309 -69 371 33 64 100 75 236 41z m-270 -22 c-36 -72 -6 -247 73 -418 l35 -77 -36 -80 c-78 -170 -107 -342 -71 -414 l14 -30 -28 15 c-39 20 -68 60 -76 103 -13 69 29 174 132 328 l55 81 -54 79 c-114 165 -156 284 -127 354 12 28 75 90 92 90 3 0 -1 -14 -9 -31z m1178 -32 c28 -45 22 -132 -14 -212 -30 -64 -147 -248 -154 -241 -2 2 14 46 36 98 22 52 48 123 58 158 20 77 24 213 6 232 -23 22 -14 29 17 13 17 -9 40 -30 51 -48z m-2311 18 c13 -14 21 -25 18 -25 -2 0 -15 11 -28 25 -13 14 -21 25 -18 25 2 0 15 -11 28 -25z m-69 -2 c13 -16 12 -17 -3 -4 -17 13 -22 21 -14 21 2 0 10 -8 17 -17z m120 -40 c13 -16 12 -17 -3 -4 -10 7 -18 15 -18 17 0 8 8 3 21 -13z m3059 -67 c0 -2 -8 -10 -17 -17 -16 -13 -17 -12 -4 4 13 16 21 21 21 13z m-1979 -448 c-142 -213 -164 -332 -78 -425 l41 -44 -30 7 c-47 11 -101 42 -123 70 -42 53 -22 131 62 252 38 54 168 212 174 212 2 0 -19 -33 -46 -72z m1087 -32 c81 -120 112 -196 112 -269 0 -60 -21 -99 -69 -128 -30 -18 -42 -14 -20 8 6 6 13 37 16 69 7 74 -23 205 -73 318 -48 110 -47 106 -41 106 3 0 37 -47 75 -104z m116 -56 c66 -86 104 -151 117 -201 11 -41 10 -50 -8 -85 -20 -40 -75 -75 -138 -89 l-30 -7 28 22 c103 81 85 232 -53 442 l-41 63 41 -45 c23 -25 60 -70 84 -100z m-1308 41 c-167 -207 -188 -335 -67 -413 l46 -30 -49 6 c-63 8 -141 51 -156 86 -27 66 35 171 214 358 38 39 71 72 72 72 2 0 -25 -35 -60 -79z m1479 -157 c127 -174 94 -251 -125 -288 -34 -6 -33 -5 17 24 28 16 62 44 74 62 49 68 19 179 -85 313 -86 112 -88 120 -6 35 44 -47 101 -113 125 -146z m174 -124 c17 -35 31 -72 31 -82 0 -52 -92 -98 -220 -112 l-55 -6 60 25 c78 32 125 82 125 132 0 68 -48 152 -169 295 -29 34 3 6 71 -63 93 -94 133 -143 157 -189z m-1760 243 c-160 -176 -202 -300 -125 -372 13 -12 50 -33 82 -47 l59 -24 -55 6 c-138 15 -210 55 -210 116 0 53 65 151 180 269 110 114 161 151 69 52z m-106 -35 c-164 -170 -216 -283 -162 -352 24 -30 80 -61 136 -76 31 -8 24 -9 -43 -6 -133 6 -216 57 -200 122 14 56 83 144 203 262 70 67 128 122 131 122 3 0 -26 -33 -65 -72z m1905 -140 c101 -109 137 -202 94 -241 -31 -28 -103 -48 -187 -53 l-80 -4 54 15 c105 30 147 72 144 145 -3 63 -36 117 -157 255 l-70 80 81 -77 c45 -42 99 -96 121 -120z m-2049 64 c-217 -225 -219 -339 -5 -388 l61 -14 -96 4 c-139 6 -209 40 -209 101 0 59 89 172 254 322 50 46 93 83 95 83 2 0 -43 -48 -100 -108z m2168 -106 c87 -95 131 -174 117 -214 -16 -48 -123 -83 -248 -81 l-61 1 61 13 c75 16 116 36 143 71 53 67 7 164 -158 338 l-66 69 69 -59 c38 -32 102 -95 143 -138z m-2250 103 c-126 -115 -207 -233 -207 -301 0 -64 43 -98 154 -124 l61 -14 -102 4 c-120 5 -189 30 -199 73 -10 38 33 116 107 197 59 65 248 236 259 236 3 0 -30 -32 -73 -71z m2329 -104 c114 -112 166 -191 162 -243 -3 -33 -8 -39 -51 -61 -38 -19 -67 -24 -155 -27 l-107 -4 65 13 c203 40 218 145 47 334 -33 38 -79 85 -101 106 l-41 39 44 -33 c25 -19 86 -74 137 -124z m-2502 2 c-224 -232 -216 -333 30 -372 l81 -13 -70 -1 c-94 -1 -202 16 -245 38 -29 15 -36 24 -38 54 -4 45 13 79 84 162 47 55 249 244 263 245 2 0 -45 -51 -105 -113z m2581 -7 c33 -30 86 -84 118 -120 161 -178 124 -243 -147 -255 -83 -3 -100 -2 -66 5 135 27 153 33 186 62 70 62 36 151 -120 316 -91 97 -84 95 29 -8z m-2575 86 c0 -2 -8 -10 -17 -17 -16 -13 -17 -12 -4 4 13 16 21 21 21 13z m2765 -200 c77 -78 118 -127 134 -164 l25 -52 -21 -28 c-30 -40 -83 -54 -223 -57 -94 -3 -110 -2 -65 4 98 13 147 31 182 66 41 41 42 65 1 146 -24 47 -60 92 -142 174 -67 67 -89 93 -56 66 30 -25 105 -95 165 -155z m-2904 69 c-220 -229 -203 -334 59 -366 50 -6 36 -7 -66 -5 -116 2 -137 6 -180 27 -38 19 -50 30 -52 51 -7 60 67 158 231 305 56 51 104 93 106 93 2 0 -42 -47 -98 -105z m3056 -138 c75 -77 123 -152 123 -189 0 -59 -63 -85 -231 -93 -88 -4 -97 -3 -59 6 171 41 200 60 200 132 0 62 -58 149 -179 266 l-96 95 90 -77 c50 -42 118 -105 152 -140z m-3190 83 c-96 -101 -147 -181 -147 -231 0 -65 71 -107 215 -128 l60 -9 -80 -1 c-146 -2 -251 25 -276 70 -27 51 49 158 225 316 50 46 93 83 95 83 1 0 -40 -45 -92 -100z m3180 -3 c180 -152 277 -279 257 -336 -17 -49 -71 -64 -229 -67 -120 -2 -129 -1 -62 6 175 18 237 77 192 183 -22 52 -123 175 -196 236 -35 30 -71 61 -79 70 -27 27 18 -8 117 -92z m-3286 -25 c-113 -113 -161 -187 -161 -248 0 -74 56 -109 195 -122 110 -10 23 -19 -102 -10 -142 10 -191 37 -180 103 8 48 50 106 149 202 68 67 187 172 195 173 1 0 -42 -44 -96 -98z m3304 68 c10 -11 16 -20 13 -20 -3 0 -13 9 -23 20 -10 11 -16 20 -13 20 3 0 13 -9 23 -20z m-1567 -40 c191 -82 324 -103 417 -64 19 7 18 6 -2 -26 -68 -107 -206 -85 -425 65 l-80 56 -89 -61 c-177 -122 -297 -157 -368 -108 -19 13 -43 37 -54 55 l-18 32 33 -17 c72 -37 229 -11 404 67 49 21 89 40 90 40 0 1 42 -17 92 -39z m-1867 -80 c-234 -235 -217 -339 60 -370 63 -7 53 -8 -66 -6 -117 2 -148 6 -187 24 -59 26 -68 52 -40 115 23 52 121 159 247 269 49 43 91 78 92 78 2 0 -46 -49 -106 -110z m3679 -97 c114 -122 146 -197 100 -238 -30 -28 -132 -45 -255 -43 l-110 1 77 8 c107 11 154 25 190 58 25 22 31 35 31 68 0 60 -40 121 -157 242 l-101 104 81 -66 c45 -37 110 -97 144 -134z m-115 167 c10 -11 16 -20 13 -20 -3 0 -13 9 -23 20 -10 11 -16 20 -13 20 3 0 13 -9 23 -20z m-3689 -115 c-156 -157 -197 -253 -133 -313 32 -30 69 -42 177 -58 l95 -14 -143 4 c-125 4 -148 7 -190 28 -42 21 -47 27 -50 61 -4 51 33 108 140 214 71 69 197 181 206 183 1 0 -45 -47 -102 -105z m1844 55 c-84 -74 -185 -148 -244 -179 -120 -64 -207 -25 -237 107 l-7 33 43 -40 c91 -84 227 -58 430 83 66 46 70 44 15 -4z m288 -87 c128 -60 227 -53 288 20 l27 32 -8 -35 c-19 -90 -67 -140 -133 -140 -71 0 -204 80 -337 204 l-50 46 70 -47 c39 -25 103 -61 143 -80z m1821 -91 c62 -69 101 -134 101 -167 0 -27 -34 -59 -80 -74 -19 -6 -93 -14 -165 -16 l-130 -4 82 13 c113 19 148 33 178 67 54 65 22 140 -125 293 l-105 110 94 -79 c52 -44 119 -108 150 -143z m-4078 77 c-156 -154 -193 -239 -136 -308 30 -35 67 -49 184 -67 l86 -13 -130 4 c-143 5 -199 16 -232 48 -47 43 -19 109 95 229 64 68 218 206 230 208 2 0 -42 -45 -97 -101z m4165 -85 c145 -146 172 -227 91 -267 -45 -23 -229 -44 -260 -30 -17 8 -10 11 42 16 85 9 145 37 166 77 33 64 -3 136 -143 283 -80 83 -87 94 -42 57 30 -24 96 -86 146 -136z m-1851 -29 c126 -62 208 -40 266 71 l20 39 -6 -50 c-8 -69 -53 -157 -88 -174 -64 -30 -175 34 -347 199 l-95 91 97 -75 c53 -40 122 -86 153 -101z m-2443 64 c-99 -98 -162 -192 -162 -241 0 -67 74 -115 192 -125 70 -6 71 -7 34 -15 -53 -11 -216 6 -261 28 -90 42 -57 131 107 290 74 71 179 164 187 164 2 0 -42 -45 -97 -101z m1999 -1 c-52 -50 -121 -108 -154 -129 -122 -79 -178 -75 -222 15 -22 45 -49 156 -39 156 2 0 10 -15 17 -32 8 -18 29 -48 47 -65 79 -77 192 -50 357 83 43 34 80 63 83 63 3 0 -37 -41 -89 -91z m2415 -75 c238 -238 189 -315 -196 -303 l-85 3 105 7 c160 11 230 50 230 127 0 56 -45 127 -148 235 -123 130 -51 77 94 -69z m120 -40 c122 -122 167 -198 143 -242 -30 -54 -76 -66 -264 -67 -166 -2 -168 -2 -57 6 90 7 123 13 166 34 125 61 99 153 -95 349 -95 94 -106 108 -57 70 34 -27 108 -94 164 -150z m-4646 85 c-165 -163 -208 -262 -142 -328 37 -37 92 -52 222 -60 l105 -7 -85 -3 c-447 -14 -475 87 -110 407 52 45 97 83 99 83 3 0 -37 -41 -89 -92z m4678 -40 c106 -92 219 -222 233 -270 18 -58 5 -86 -49 -111 -41 -18 -68 -21 -202 -23 -135 -2 -144 -1 -70 6 47 4 103 13 125 19 176 48 155 173 -65 384 -115 110 -103 108 28 -5z m-4810 -11 c-77 -76 -113 -120 -136 -167 -41 -82 -41 -113 1 -155 40 -40 92 -56 217 -65 l95 -7 -137 -1 c-75 -1 -160 3 -188 9 -58 12 -110 51 -110 82 0 35 37 99 92 162 48 53 257 245 267 245 3 0 -43 -47 -101 -103z m12 79 c0 -2 -8 -10 -17 -17 -16 -13 -17 -12 -4 4 13 16 21 21 21 13z m2707 -177 c30 -17 70 -35 89 -39 76 -17 142 28 176 122 l19 53 -6 -67 c-3 -37 -12 -86 -21 -110 -52 -148 -158 -114 -394 128 l-95 97 89 -76 c48 -42 113 -91 143 -108z m2256 26 c151 -134 226 -250 197 -304 -24 -46 -91 -64 -250 -67 -134 -3 -139 -2 -65 7 113 13 181 36 210 71 59 69 18 157 -149 323 -125 125 -103 113 57 -30z m-2786 29 c-158 -153 -255 -207 -315 -175 -31 16 -60 88 -70 171 -5 41 -8 76 -7 78 2 2 11 -20 20 -48 58 -173 192 -165 403 24 103 92 85 63 -31 -50z m-2303 9 c-147 -143 -199 -237 -170 -307 23 -56 103 -86 266 -100 25 -2 -22 -3 -105 -2 -200 3 -255 25 -255 101 0 63 74 155 244 307 55 48 102 88 105 88 3 0 -35 -39 -85 -87z m6 73 c0 -2 -8 -10 -17 -17 -16 -13 -17 -12 -4 4 13 16 21 21 21 13z m5168 -120 c157 -135 242 -243 242 -308 0 -75 -58 -98 -255 -103 l-140 -4 99 14 c155 22 211 60 209 140 -2 61 -52 135 -177 260 -130 131 -130 131 22 1z m93 97 c13 -16 12 -17 -3 -4 -17 13 -22 21 -14 21 2 0 10 -8 17 -17z m-5431 -60 c-150 -130 -251 -256 -264 -328 -17 -89 47 -136 216 -160 l103 -14 -145 3 c-125 2 -152 6 -197 25 -132 58 -70 177 222 428 66 56 122 103 125 103 3 -1 -24 -26 -60 -57z m54 -21 c-132 -126 -194 -217 -194 -284 0 -84 79 -123 290 -142 25 -2 -25 -3 -110 -2 -160 3 -208 13 -252 53 -58 52 26 181 242 370 52 45 97 83 100 83 3 0 -31 -35 -76 -78z m5506 -152 c94 -93 150 -177 150 -225 0 -67 -74 -95 -260 -100 -96 -3 -123 -2 -95 5 22 5 54 9 71 9 53 1 131 30 163 60 24 23 31 37 31 68 0 73 -43 138 -184 278 -120 119 -125 124 -51 65 44 -36 123 -108 175 -160z m23 52 c208 -180 289 -309 233 -371 -32 -35 -103 -52 -246 -58 -74 -3 -133 -3 -130 0 3 3 45 11 94 17 97 12 148 29 183 62 65 61 23 169 -126 318 -53 53 -121 118 -151 145 -55 48 -55 48 -5 9 28 -21 94 -76 148 -122z m-3072 100 c-81 -97 -238 -239 -296 -267 -65 -32 -94 -28 -128 16 -25 34 -47 129 -46 199 l1 55 12 -50 c53 -216 197 -204 431 34 33 34 61 61 63 61 2 0 -14 -22 -37 -48z m-2571 34 c0 -3 -40 -39 -90 -81 -49 -42 -114 -107 -143 -143 -103 -127 -123 -204 -67 -260 37 -38 71 -49 196 -66 l99 -14 -110 -1 c-122 -1 -236 19 -275 47 -34 25 -37 71 -10 128 29 58 156 192 290 305 107 90 110 92 110 85z m3074 -172 c154 -105 233 -82 287 84 l19 57 -6 -70 c-10 -136 -51 -225 -104 -225 -59 0 -171 85 -311 235 l-84 90 81 -73 c45 -40 98 -84 118 -98z m-536 34 c-81 -98 -223 -236 -278 -270 -77 -49 -107 -53 -141 -19 -36 36 -49 86 -54 201 -2 52 -2 84 1 70 24 -131 54 -183 113 -201 36 -11 45 -9 103 19 70 33 161 107 239 195 63 71 76 75 17 5z m626 -187 c77 -46 132 -48 175 -7 29 28 40 55 71 166 7 26 8 14 4 -50 -6 -94 -25 -173 -49 -207 -50 -71 -185 13 -387 240 l-73 82 101 -95 c56 -52 127 -110 158 -129z m-24 -72 c173 -147 265 -115 309 106 9 42 10 35 5 -50 -8 -159 -37 -235 -92 -235 -64 0 -222 131 -362 300 l-53 65 69 -70 c39 -38 94 -91 124 -116z m-655 129 c-174 -195 -309 -308 -366 -308 -60 0 -88 65 -94 220 -4 89 -3 96 5 48 11 -68 45 -143 73 -163 63 -44 161 1 306 141 99 96 127 119 76 62z m-1732 5 c-7 -2 -19 -2 -25 0 -7 3 -2 5 12 5 14 0 19 -2 13 -5z m877 -28 c0 -3 -20 -86 -44 -183 -85 -335 -178 -782 -220 -1047 -8 -55 -17 -111 -19 -125 -3 -18 -5 -16 -6 10 -4 111 114 765 202 1123 25 97 41 177 37 177 -4 0 -93 -20 -196 -46 -370 -89 -701 -151 -1004 -189 -174 -21 -212 -17 -55 7 289 43 846 160 1180 247 124 33 125 33 125 26z m2398 -39 c339 -86 789 -180 1052 -220 218 -34 224 -36 135 -30 -252 16 -689 94 -1128 200 -104 25 -190 44 -193 42 -2 -3 16 -90 42 -194 88 -364 153 -708 189 -999 21 -166 17 -196 -6 -45 -43 288 -141 756 -238 1138 -21 83 -37 152 -34 152 2 0 84 -20 181 -44z m-1589 -58 c-18 -24 -84 -94 -145 -156 -116 -116 -200 -171 -243 -157 -44 14 -68 92 -76 246 -4 87 -3 96 6 54 41 -208 88 -248 216 -185 49 24 90 58 167 135 55 57 103 103 104 104 2 1 -11 -18 -29 -41z m1051 -176 c-14 -84 -25 -108 -55 -128 -24 -15 -28 -15 -68 0 -66 25 -181 131 -327 301 -14 16 23 -16 81 -70 107 -100 192 -155 242 -155 63 0 114 83 125 205 l7 70 3 -80 c2 -44 -2 -108 -8 -143z m-1960 170 c0 -4 -20 -94 -45 -200 -107 -456 -172 -854 -199 -1227 -2 -27 -2 24 0 115 6 303 73 741 174 1141 32 124 35 143 22 136 -15 -10 -361 -90 -512 -118 -299 -57 -689 -100 -880 -97 l-75 1 95 8 c414 35 855 110 1270 214 155 38 150 37 150 27z m2583 -32 c396 -95 858 -174 1182 -202 197 -17 129 -23 -95 -9 -317 21 -636 71 -1004 157 -103 24 -194 44 -201 44 -11 0 -10 -8 0 -45 26 -86 94 -401 124 -575 42 -242 61 -401 66 -565 l4 -140 -19 170 c-22 197 -48 358 -96 610 -29 149 -111 513 -130 578 -3 9 -3 17 -1 17 3 0 79 -18 170 -40z m-1048 -50 c10 -11 16 -20 13 -20 -3 0 -13 9 -23 20 -10 11 -16 20 -13 20 3 0 13 -9 23 -20z m-1105 -158 c6 -23 22 -55 36 -72 22 -26 33 -30 74 -30 63 0 141 51 264 174 69 69 80 78 46 36 -74 -91 -232 -245 -282 -274 -32 -18 -58 -26 -80 -24 -28 3 -36 10 -57 50 -20 41 -24 66 -27 175 -2 103 -1 116 6 67 5 -34 13 -80 20 -102z m-524 131 c-13 -41 -66 -278 -90 -398 -60 -304 -92 -562 -103 -835 l-8 -185 -7 95 c-22 253 25 672 124 1103 22 98 38 181 34 184 -3 4 -86 -12 -184 -35 -245 -58 -420 -88 -657 -112 -118 -12 -491 -13 -555 -1 -32 6 10 9 143 10 203 1 394 18 637 56 169 26 454 84 565 114 92 25 108 26 101 4z m2739 -12 c423 -103 853 -162 1183 -163 101 0 182 -1 180 -3 -2 -2 -72 -9 -155 -15 -297 -22 -711 26 -1165 134 -76 19 -138 32 -138 31 0 -1 18 -80 41 -176 43 -184 80 -382 105 -564 19 -138 29 -527 16 -620 -9 -63 -10 -53 -11 101 -2 327 -57 727 -157 1143 -37 155 -38 161 -26 161 4 0 61 -13 127 -29z m-860 -192 c66 -38 122 -39 159 -3 28 29 56 108 56 160 0 18 5 36 11 40 9 5 10 -15 5 -72 -12 -144 -18 -173 -40 -206 -27 -41 -61 -46 -118 -17 -46 23 -177 145 -261 244 -47 54 -43 52 43 -29 52 -48 118 -101 145 -117z m-3152 114 c-7 -2 -19 -2 -25 0 -7 3 -2 5 12 5 14 0 19 -2 13 -5z m1177 -2 c0 -6 -16 -77 -35 -160 -86 -373 -120 -670 -112 -991 3 -124 8 -238 11 -255 l6 -30 -10 30 c-25 72 -41 237 -41 405 0 258 32 507 106 817 20 81 34 147 32 149 -1 2 -36 -6 -77 -16 -119 -31 -414 -87 -555 -106 -170 -22 -483 -22 -615 0 -96 16 -197 42 -120 31 19 -3 134 -8 255 -11 169 -5 257 -3 380 10 183 19 445 64 620 106 133 31 155 34 155 21z m2248 -123 c-4 -106 -9 -142 -26 -180 -26 -61 -53 -69 -119 -37 -56 27 -194 157 -284 267 l-63 77 95 -96 c127 -128 196 -174 262 -174 42 0 52 4 72 29 29 36 45 90 52 177 10 114 16 78 11 -63z m670 108 c117 -30 384 -80 542 -102 224 -31 616 -30 800 1 14 3 6 -2 -17 -9 -23 -8 -84 -21 -135 -30 -305 -51 -689 -18 -1190 103 -43 10 -78 14 -78 10 0 -5 16 -75 34 -156 70 -300 95 -474 102 -728 5 -145 2 -218 -10 -310 -16 -117 -42 -234 -31 -140 2 22 7 119 11 215 8 207 -11 438 -58 710 -25 147 -41 225 -92 443 -5 23 6 22 122 -7z m1095 17 c-7 -2 -21 -2 -30 0 -10 3 -4 5 12 5 17 0 24 -2 18 -5z m-3034 -75 c-29 -35 -94 -103 -144 -153 -142 -139 -219 -165 -259 -86 -24 46 -47 269 -26 256 6 -3 10 -15 10 -25 0 -57 24 -126 55 -157 65 -65 143 -34 303 122 59 57 109 104 110 105 2 0 -20 -28 -49 -62z m-1084 -68 c-23 -85 -72 -341 -92 -480 -13 -94 -18 -187 -18 -380 0 -227 3 -266 23 -357 12 -56 25 -110 28 -120 5 -15 4 -16 -5 -3 -15 21 -49 131 -68 220 -24 119 -29 399 -8 560 18 150 53 336 89 478 12 50 22 92 20 92 -1 0 -66 -15 -145 -34 -464 -111 -835 -121 -1118 -31 -113 37 -143 60 -38 30 101 -29 261 -46 428 -46 256 0 466 26 769 94 80 18 146 33 147 32 1 -1 -4 -25 -12 -55z m3373 -24 c232 -39 344 -49 537 -49 189 1 322 16 450 52 38 11 71 18 73 16 8 -8 -165 -66 -259 -86 -87 -19 -135 -23 -294 -23 -249 0 -441 26 -739 100 -55 13 -101 23 -102 21 -2 -1 10 -54 26 -117 57 -227 100 -532 100 -714 0 -171 -41 -396 -89 -497 -12 -24 -19 -35 -15 -24 23 79 46 211 56 332 20 241 -16 613 -91 927 -17 71 -31 132 -31 136 0 4 52 -6 116 -21 64 -16 182 -39 262 -53z m-2258 61 c0 -2 -10 -12 -22 -23 l-23 -19 19 23 c18 21 26 27 26 19z m-2463 -13 c-3 -3 -12 -4 -19 -1 -8 3 -5 6 6 6 11 1 17 -2 13 -5z m1983 -179 c14 -48 27 -66 62 -89 57 -37 138 5 282 143 l100 96 -78 -93 c-81 -96 -193 -200 -247 -227 -42 -22 -88 -16 -110 15 -26 35 -39 116 -38 234 l2 101 7 -70 c4 -38 13 -88 20 -110z m1541 -69 c74 -41 124 -39 161 4 26 32 38 71 58 189 7 42 8 38 9 -34 1 -99 -15 -200 -38 -240 -22 -39 -64 -44 -123 -14 -44 22 -209 182 -288 279 -30 37 -10 21 62 -51 59 -58 130 -118 159 -133z m-580 62 c212 -352 473 -747 635 -965 52 -71 76 -108 53 -83 -131 141 -475 634 -674 963 -55 92 -103 166 -107 167 -3 0 -55 -80 -114 -177 -124 -205 -288 -453 -418 -633 -90 -126 -284 -370 -293 -370 -2 0 24 37 59 83 166 215 440 627 654 985 60 100 110 182 111 182 1 0 43 -69 94 -152z m-3013 113 c20 -10 73 -30 117 -44 280 -87 668 -78 1118 28 53 12 97 18 97 13 0 -5 -9 -44 -20 -86 -27 -109 -67 -349 -81 -488 -25 -254 5 -534 76 -704 40 -97 40 -100 1 -40 -157 242 -172 640 -46 1158 16 64 27 118 26 120 -2 1 -63 -12 -137 -29 -269 -62 -356 -73 -584 -73 -169 -1 -224 3 -284 17 -100 24 -214 70 -281 112 -60 38 -61 46 -2 16z m4887 -71 c383 -61 700 -42 924 56 29 13 56 24 60 24 12 -1 -35 -32 -94 -62 -144 -74 -270 -99 -490 -99 -185 1 -343 21 -575 75 -84 20 -155 34 -157 33 -2 -2 11 -64 28 -138 47 -204 69 -358 76 -535 6 -174 -4 -276 -40 -399 -20 -71 -82 -204 -112 -240 -12 -15 -11 -10 3 20 30 62 71 198 89 299 22 121 22 397 -1 566 -9 69 -31 193 -48 275 -17 83 -33 162 -35 176 l-5 27 129 -30 c70 -16 182 -37 248 -48z m-4829 -19 c67 -32 161 -64 249 -83 92 -20 424 -17 560 5 95 16 309 59 356 73 13 3 10 -20 -17 -148 -82 -379 -87 -703 -14 -917 24 -73 66 -158 105 -215 40 -59 25 -52 -30 15 -67 80 -119 177 -147 274 -21 72 -23 100 -23 280 1 216 10 291 67 528 16 71 28 130 26 132 -2 3 -74 -11 -159 -30 -528 -118 -848 -80 -1069 124 l-55 51 46 -30 c26 -16 73 -43 105 -59z m5816 30 c-137 -129 -302 -183 -555 -182 -176 1 -358 26 -581 82 -43 11 -81 18 -83 15 -3 -3 9 -67 26 -143 46 -210 61 -314 68 -473 11 -274 -45 -454 -189 -611 l-49 -54 29 45 c166 255 202 572 117 1035 -9 50 -25 125 -36 169 -11 43 -19 80 -17 81 2 2 50 -8 108 -21 250 -57 344 -68 565 -68 163 -1 227 3 287 16 110 25 223 71 298 122 36 24 67 44 70 44 3 1 -23 -25 -58 -57z m-3872 -162 c7 -27 24 -62 40 -79 59 -63 143 -31 295 112 85 79 93 85 55 38 -78 -96 -206 -215 -262 -245 -73 -38 -102 -31 -130 33 -17 38 -21 71 -24 187 -2 116 -1 128 6 71 5 -37 14 -90 20 -117z m480 178 c0 -2 -12 -14 -27 -28 l-28 -24 24 28 c23 25 31 32 31 24z m3449 -39 c-63 -81 -142 -148 -213 -183 -113 -55 -181 -69 -341 -69 -153 0 -280 17 -493 66 -73 16 -135 28 -137 26 -2 -2 2 -28 10 -58 26 -94 64 -301 75 -402 33 -310 -15 -495 -169 -649 -90 -90 -153 -131 -79 -51 92 99 145 199 180 342 17 68 21 117 22 245 0 171 -16 303 -60 503 -14 63 -24 115 -22 117 2 3 41 -4 86 -15 219 -52 319 -64 532 -64 195 0 209 1 295 28 109 33 189 77 275 150 36 30 67 55 68 56 2 0 -11 -19 -29 -42z m-5972 -18 c68 -62 208 -133 310 -157 61 -14 118 -18 258 -18 189 1 291 13 500 60 60 14 110 23 112 22 1 -2 -8 -52 -22 -112 -49 -217 -60 -310 -60 -510 0 -169 3 -199 23 -270 34 -116 75 -196 150 -288 66 -82 66 -82 22 -47 -130 100 -206 216 -235 355 -32 154 -11 425 54 700 15 66 27 121 26 123 -2 2 -65 -10 -142 -27 -208 -46 -335 -62 -475 -62 -278 -1 -400 54 -572 259 -33 38 -6 24 51 -28z m3903 -123 c-14 -206 -64 -242 -197 -143 -58 43 -164 150 -244 249 -29 35 -11 21 52 -42 51 -51 117 -109 146 -128 132 -89 216 -34 230 150 5 59 8 75 14 56 3 -15 3 -78 -1 -142z m-3885 18 c114 -112 235 -155 458 -162 161 -6 295 9 492 53 60 13 113 24 116 24 3 0 -2 -35 -12 -77 -51 -211 -63 -304 -63 -488 -1 -199 9 -254 66 -375 30 -63 127 -173 203 -229 17 -13 -3 -6 -44 16 -145 74 -232 181 -266 325 -34 143 -15 388 50 662 14 60 23 111 21 114 -3 2 -67 -9 -143 -26 -222 -49 -280 -56 -433 -56 -166 -1 -225 11 -323 62 -83 43 -150 114 -201 213 -33 64 -34 69 -10 39 15 -19 55 -62 89 -95z m3010 -2 c84 -141 325 -506 435 -658 103 -142 178 -236 309 -390 115 -136 46 -71 -96 90 -211 239 -410 511 -612 837 l-103 168 -107 -173 c-247 -400 -535 -778 -728 -957 l-48 -45 46 50 c192 209 514 658 743 1037 49 81 92 145 96 143 4 -3 33 -48 65 -102z m2953 45 c-144 -271 -402 -327 -948 -208 -78 17 -144 29 -146 27 -3 -2 7 -56 21 -118 129 -568 71 -830 -217 -983 -80 -43 -80 -42 6 30 104 86 168 191 203 329 13 53 17 110 17 230 -1 162 -18 291 -64 488 l-18 79 22 -5 c320 -72 513 -94 667 -77 191 21 307 76 418 197 36 40 67 73 69 73 2 0 -12 -28 -30 -62z m-6007 -114 c149 -193 405 -236 863 -143 81 17 149 29 151 27 2 -2 -6 -41 -16 -88 -77 -342 -77 -614 -2 -764 41 -83 92 -136 187 -198 50 -32 88 -58 85 -58 -15 0 -120 40 -168 64 -107 55 -170 138 -202 266 -30 123 -8 388 55 640 13 52 23 96 22 97 -1 1 -37 -7 -81 -18 -230 -59 -506 -85 -637 -60 -136 27 -228 93 -284 203 -23 46 -36 78 -69 173 -4 11 7 -4 24 -34 17 -30 49 -78 72 -107z m6046 64 c-70 -185 -146 -259 -307 -299 -122 -30 -384 -7 -640 55 -52 13 -96 23 -97 22 -1 -1 9 -44 22 -97 41 -159 65 -334 65 -464 0 -240 -60 -364 -212 -441 -46 -23 -74 -35 -173 -69 -11 -4 16 15 59 41 141 85 214 178 253 324 14 50 18 101 17 220 -1 157 -15 272 -54 439 -11 46 -18 86 -16 88 3 3 44 -4 93 -15 154 -36 264 -52 398 -59 269 -12 434 55 547 224 26 39 51 78 54 87 4 9 8 15 11 13 2 -3 -7 -33 -20 -69z m-2077 -216 c-11 -62 -34 -101 -67 -113 -52 -19 -207 100 -335 259 l-62 77 107 -103 c104 -101 183 -152 234 -152 32 0 78 44 98 92 9 23 20 83 23 133 l7 90 3 -113 c1 -63 -2 -139 -8 -170z m-475 248 c10 -11 16 -20 13 -20 -3 0 -13 9 -23 20 -10 11 -16 20 -13 20 3 0 13 -9 23 -20z m-995 7 c0 -2 -10 -12 -22 -23 l-23 -19 19 23 c18 21 26 27 26 19z m-446 -242 c62 -81 143 -53 319 113 76 72 79 74 37 23 -25 -30 -83 -92 -129 -138 -135 -133 -216 -160 -255 -84 -21 39 -36 147 -35 246 l1 80 18 -103 c13 -77 24 -111 44 -137z m1007 63 c225 -369 469 -693 707 -940 85 -89 116 -126 82 -98 -255 209 -537 558 -814 1013 l-48 78 -104 -166 c-235 -375 -472 -674 -677 -853 -118 -103 -173 -143 -83 -60 211 193 545 626 781 1010 43 70 81 125 85 123 5 -3 36 -51 71 -107z m967 -60 c-7 -221 -38 -281 -129 -249 -65 23 -181 128 -299 271 -34 42 -20 31 61 -46 141 -134 225 -172 285 -129 37 25 65 109 71 211 9 148 16 109 11 -58z m-2049 -77 c17 -56 58 -91 105 -91 58 0 123 41 236 146 81 76 88 81 50 35 -126 -152 -271 -271 -332 -271 -32 0 -64 37 -77 89 -11 43 -17 160 -12 251 l4 65 8 -95 c4 -52 12 -110 18 -129z m461 175 c0 -2 -8 -10 -17 -17 -16 -13 -17 -12 -4 4 13 16 21 21 21 13z m-515 -281 c18 -71 64 -115 119 -115 50 0 129 54 240 163 62 63 94 89 72 61 -107 -134 -247 -266 -314 -296 -59 -26 -86 -18 -114 35 -20 38 -23 57 -24 212 -2 149 -1 157 6 70 4 -55 11 -113 15 -130z m1141 97 c252 -411 584 -798 854 -995 l25 -18 -25 12 c-141 67 -374 279 -558 509 -77 97 -278 390 -346 506 l-28 48 -32 -53 c-17 -30 -80 -128 -139 -218 -242 -368 -494 -633 -732 -773 -50 -29 -39 -18 55 55 226 176 541 555 767 922 41 68 78 123 81 123 4 0 39 -53 78 -118z m1011 -41 c-4 -119 -10 -159 -26 -195 -29 -67 -56 -76 -127 -41 -60 29 -196 157 -284 265 -35 44 -23 34 61 -46 107 -102 188 -154 240 -154 70 0 115 84 126 238 10 135 16 93 10 -67z m-2190 -205 c34 -91 99 -111 194 -59 31 16 100 75 164 138 108 108 104 93 -11 -36 -164 -182 -289 -258 -336 -201 -36 43 -42 76 -44 252 -2 164 -2 168 6 65 5 -63 16 -131 27 -159z m1193 88 c246 -392 522 -691 792 -861 86 -53 55 -48 -55 10 -218 115 -449 349 -664 672 -44 66 -98 150 -119 187 -21 37 -41 68 -44 68 -3 0 -32 -44 -65 -98 -261 -425 -512 -693 -778 -832 -120 -62 -163 -74 -67 -18 121 70 226 154 355 283 174 173 337 384 487 628 33 53 63 97 66 97 4 0 45 -61 92 -136z m821 -152 c25 -12 64 -22 86 -22 55 0 97 46 112 122 28 144 30 147 25 29 -7 -181 -31 -241 -95 -241 -41 0 -78 21 -157 89 -58 51 -214 220 -234 254 -3 7 44 -38 105 -99 66 -65 131 -119 158 -132z m-2065 -54 c18 -56 63 -98 105 -98 69 0 169 69 295 202 89 95 80 80 -23 -38 -136 -157 -257 -253 -319 -254 -61 0 -94 102 -92 290 l1 125 8 -90 c5 -49 16 -111 25 -137z m1274 26 c258 -394 512 -637 785 -750 44 -19 72 -34 61 -34 -33 0 -198 60 -264 97 -199 111 -423 356 -619 675 -43 70 -81 127 -84 128 -4 0 -26 -33 -49 -72 -211 -358 -469 -637 -695 -750 -55 -27 -160 -63 -215 -73 -21 -4 -2 8 48 29 277 116 529 356 793 754 60 90 109 169 109 176 1 15 12 -1 130 -180z m813 -82 c69 -42 124 -51 160 -27 38 25 67 93 74 174 3 39 10 68 14 65 23 -14 0 -236 -30 -294 -27 -53 -57 -59 -127 -25 -64 31 -224 184 -309 295 -43 56 -35 50 57 -45 58 -60 131 -125 161 -143z m-2122 -99 c58 -120 172 -85 369 115 116 119 114 114 -8 -27 -217 -251 -349 -305 -393 -162 -6 20 -13 99 -15 176 l-3 140 14 -98 c7 -54 24 -119 36 -144z m2423 57 c-8 -97 -25 -163 -50 -191 -26 -29 -81 -25 -140 12 -56 35 -214 194 -289 290 -41 52 -28 42 70 -57 135 -137 195 -177 261 -177 81 0 123 69 132 218 6 88 6 89 14 40 5 -27 5 -88 2 -135z m-1178 82 c72 -119 179 -266 274 -376 189 -220 396 -355 616 -401 l69 -15 -89 5 c-260 15 -468 154 -699 468 -46 62 -114 163 -152 225 -39 61 -72 112 -76 112 -3 0 -30 -39 -59 -87 -141 -232 -333 -464 -472 -568 -119 -89 -252 -139 -403 -150 l-80 -6 92 25 c121 32 199 67 303 135 181 118 397 364 571 648 24 39 47 69 51 67 4 -2 28 -39 54 -82z m1222 -187 c-5 -135 -19 -194 -56 -221 -56 -43 -171 28 -325 201 -139 155 -159 188 -40 65 126 -132 212 -190 278 -190 80 0 125 77 134 230 7 133 14 72 9 -85z m-2681 128 c-3 -10 -5 -4 -5 12 0 17 2 24 5 18 2 -7 2 -21 0 -30z m150 -162 c27 -100 90 -133 179 -96 52 22 151 104 239 198 43 45 59 60 37 32 -183 -227 -321 -342 -400 -333 -59 7 -93 115 -91 289 l2 94 9 -65 c6 -36 16 -89 25 -119z m1263 160 c0 -16 182 -283 246 -361 91 -111 229 -239 314 -292 91 -57 200 -94 323 -111 l92 -13 -79 -9 c-300 -30 -545 150 -830 613 -38 61 -73 112 -77 112 -4 0 -20 -21 -35 -47 -196 -338 -444 -595 -627 -652 -82 -25 -177 -34 -257 -23 l-65 8 50 8 c118 16 174 29 241 55 202 78 416 291 625 620 59 93 79 116 79 92z m-816 -108 c-168 -209 -288 -324 -378 -364 -40 -17 -50 -18 -73 -7 -56 27 -84 125 -82 288 1 83 16 82 18 -1 3 -104 67 -209 128 -209 75 1 204 95 334 245 88 101 117 127 53 48z m2134 -133 c-6 -201 -41 -264 -132 -239 -67 19 -155 94 -289 249 -132 153 -134 158 -14 33 163 -170 263 -226 335 -189 16 8 36 26 46 40 23 36 45 139 47 221 1 39 4 59 6 45 3 -14 3 -86 1 -160z m-1279 37 c142 -230 350 -464 481 -540 125 -73 274 -99 430 -75 37 5 32 2 -30 -19 -62 -21 -95 -26 -186 -27 l-110 -1 -86 42 c-150 75 -317 259 -478 525 -36 59 -67 107 -70 107 -3 0 -31 -44 -63 -97 -168 -282 -369 -494 -524 -552 -108 -40 -249 -35 -378 14 l-40 16 40 -7 c75 -13 218 -7 280 11 202 59 395 237 597 548 46 70 85 127 88 128 3 0 25 -33 49 -73z m1316 -300 c-36 -140 -107 -142 -264 -7 -39 33 -109 106 -157 162 -129 152 -130 154 -3 23 137 -142 217 -195 291 -195 42 0 50 4 77 37 36 43 60 137 63 245 1 40 4 11 5 -66 3 -101 -1 -155 -12 -199z m-2187 306 c-262 -315 -370 -412 -460 -413 -68 0 -95 67 -105 260 -6 135 3 156 18 40 12 -99 28 -147 60 -181 74 -79 221 -2 410 215 46 53 85 96 88 96 2 0 -2 -8 -11 -17z m-671 -35 c-3 -8 -6 -5 -6 6 -1 11 2 17 5 13 3 -3 4 -12 1 -19z m1553 -126 c171 -273 354 -458 518 -524 48 -19 74 -23 167 -22 76 1 124 6 154 18 60 22 74 19 26 -6 -176 -93 -309 -99 -445 -20 -114 67 -281 260 -411 476 -35 58 -66 105 -69 105 -3 0 -27 -37 -54 -82 -151 -251 -324 -443 -460 -512 -75 -38 -84 -40 -165 -39 -73 0 -98 5 -165 33 -77 31 -170 78 -131 66 67 -21 187 -45 227 -45 108 0 224 44 326 123 108 83 264 271 376 455 22 34 42 62 45 62 3 0 31 -39 61 -88z m781 71 c13 -16 12 -17 -3 -4 -17 13 -22 21 -14 21 2 0 10 -8 17 -17z m686 -25 c-3 -8 -6 -5 -6 6 -1 11 2 17 5 13 3 -3 4 -12 1 -19z"
       id="path8"
       style="fill:none;stroke:#000000" />
  </g>
</svg>
