<?xml version="1.0" encoding="UTF-8" standalone="no"?>
<!-- Created with Inkscape (http://www.inkscape.org/) -->

<svg
   xmlns:dc="http://purl.org/dc/elements/1.1/"
   xmlns:cc="http://creativecommons.org/ns#"
   xmlns:rdf="http://www.w3.org/1999/02/22-rdf-syntax-ns#"
   xmlns:svg="http://www.w3.org/2000/svg"
   xmlns="http://www.w3.org/2000/svg"
   xmlns:sodipodi="http://sodipodi.sourceforge.net/DTD/sodipodi-0.dtd"
   xmlns:inkscape="http://www.inkscape.org/namespaces/inkscape"
   width="744.09448819"
   height="1052.3622047"
   id="svg2"
   version="1.1"
   inkscape:version="0.48.4 r9939"
   sodipodi:docname="ring_shell.svg">
  <defs
     id="defs4" />
  <sodipodi:namedview
     id="base"
     pagecolor="#ffffff"
     bordercolor="#666666"
     borderopacity="1.0"
     inkscape:pageopacity="0.0"
     inkscape:pageshadow="2"
     inkscape:zoom="0.98994949"
     inkscape:cx="317.18771"
     inkscape:cy="569.07005"
     inkscape:document-units="px"
     inkscape:current-layer="layer1"
     showgrid="false" />
  <metadata
     id="metadata7">
    <rdf:RDF>
      <cc:Work
         rdf:about="">
        <dc:format>image/svg+xml</dc:format>
        <dc:type
           rdf:resource="http://purl.org/dc/dcmitype/StillImage" />
        <dc:title></dc:title>
      </cc:Work>
    </rdf:RDF>
  </metadata>
  <g
     inkscape:label="Layer 1"
     inkscape:groupmode="layer"
     id="layer1">
    <path
       inkscape:connector-curvature="0"
       id="path100"
       style="fill:#000000;fill-opacity:1;fill-rule:nonzero;stroke:#000000;stroke-width:5.31496063"
       d="m 250.56797,225.44429 c -8.39081,-1.58201 -14.30328,2.82386 -16.6964,15.49636 l -0.19377,1.04102 -1.00086,-0.34018 c -11.05279,-3.787 -16.04802,-4.65997 -16.50744,-3.31566 -1.33693,3.90175 23.4048,22.6769 53.35242,45.39888 47.73749,36.2183 108.5057,82.32624 99.25132,98.34721 l 0,0.006 c -6.68876,11.58641 -58.38699,20.36945 -115.89035,30.14434 -68.56926,11.65608 -145.44944,24.72205 -162.820056,44.92347 -5.569844,6.4797 -4.705456,13.80369 5.066963,22.20555 l 0.80534,0.69674 -0.797137,0.69264 c -8.803967,7.67646 -12.056915,11.56592 -11.120431,12.63973 2.708703,3.10665 31.340281,-8.93469 65.993381,-23.50887 55.23527,-23.2302 125.54966,-52.80076 134.80076,-36.77569 6.69282,11.59051 -11.54503,60.74769 -31.83252,115.43375 -24.19253,65.21506 -51.31587,138.332 -42.5074,163.47619 2.82385,8.06172 9.59783,10.97574 21.76661,6.71332 l 1.00085,-0.35247 0.20328,1.04101 c 2.24598,11.45526 3.98947,16.2218 5.38869,15.9431 4.044,-0.79101 7.93303,-31.6075 12.63481,-68.90369 7.49901,-59.44851 17.04395,-135.13109 35.55067,-135.13109 13.37744,0 46.84156,40.37825 84.05578,85.29353 44.37835,53.55488 94.13804,113.60176 120.31914,118.54043 8.38959,1.5902 14.29961,-2.82386 16.69313,-15.48817 l 0.19672,-1.04511 1.00003,0.34427 c 11.04951,3.7829 16.04559,4.65997 16.50869,3.31568 1.3361,-3.90586 -23.4064,-22.67692 -53.35816,-45.403 -47.73503,-36.21829 -108.50324,-82.32624 -99.24883,-98.3554 6.68873,-11.58641 58.387,-20.36947 115.89278,-30.14844 68.56762,-11.65199 145.447,-24.72205 162.82043,-44.92348 5.56985,-6.4756 4.70507,-13.79959 -5.06979,-22.20148 l -0.8033,-0.69264 0.79511,-0.69675 c 8.80354,-7.67642 12.05774,-11.56588 11.12328,-12.63968 -2.70909,-3.10666 -31.3411,8.93466 -65.99378,23.50886 -55.23115,23.2302 -125.54063,52.79666 -134.7991,36.7716 l -0.003,0.003 c -6.69281,-11.59051 11.54543,-60.74768 31.83292,-115.43374 24.19335,-65.21097 51.31711,-138.332 42.50947,-163.47619 -2.82385,-8.06172 -9.59865,-10.97575 -21.77114,-6.70922 l -0.99593,0.34837 -0.20493,-1.04101 c -2.25007,-11.45936 -3.98782,-16.2218 -5.3895,-15.94721 -4.0411,0.79102 -7.93057,31.61161 -12.63562,68.90371 -7.49613,59.45669 -17.0415,135.13928 -35.55025,135.13928 -13.37744,0 -46.83747,-40.38645 -84.05169,-85.29763 C 326.5064,290.43147 276.7512,230.3887 250.56888,225.44183 l 0,0 z m -35.36702,15.22176 c -0.7398,-1.22544 -1.01686,-2.21727 -0.77012,-2.93041 0.10754,-0.31968 0.29935,-0.58609 0.57296,-0.8115 -0.50739,0.12295 -0.80986,0.34428 -0.91888,0.66396 -0.23017,0.67624 0.1682,1.71726 1.11604,3.07795 l 0,0 z M 85.238852,461.85709 c 0.629095,-2.02465 1.786935,-3.99193 3.429182,-5.89772 17.804636,-20.70963 95.033606,-33.83707 163.915566,-45.54644 57.04843,-9.69701 108.34504,-18.41448 114.59933,-29.25088 l 0.003,0 c 8.43468,-14.63568 -51.604,-60.19032 -98.77138,-95.97827 -12.81268,-9.7175 -24.68887,-18.73007 -34.03053,-26.29587 8.10763,6.80348 18.03989,14.76274 28.67339,23.28348 43.70458,35.01745 99.07509,79.39582 89.51742,95.94959 l 0,0 c -6.99201,12.11102 -56.55906,21.37359 -111.31273,31.60751 -64.01832,11.95936 -135.17661,25.26304 -152.481219,45.36201 -1.860289,2.16399 -3.067707,4.41406 -3.543128,6.76659 l 0,0 z m 3.052938,33.24686 c -2.936152,0.49182 -4.887425,0.36886 -5.655908,-0.51231 -0.227542,-0.25804 -0.366797,-0.56969 -0.413122,-0.93446 -0.213122,0.58199 -0.187217,1.01233 0.05898,1.29103 0.69511,0.79511 2.784114,0.79101 6.010013,0.15574 l 0,0 z M 213.11973,719.4836 c -1.92136,-1.66398 -3.36692,-3.97962 -4.37882,-6.87315 -9.03102,-25.77536 18.21284,-99.21608 42.51233,-164.71803 20.12889,-54.25982 38.22654,-103.03993 31.97226,-113.87633 -8.44779,-14.62748 -77.92486,14.59471 -132.50191,37.54621 -17.73905,7.4674 -33.92642,14.27089 -46.10508,18.68085 11.04049,-3.83618 25.27781,-9.38142 40.76066,-15.4185 52.17574,-20.33663 118.2847,-46.0997 127.84891,-29.55002 l 0.002,0 c 6.99158,12.11102 -9.76914,59.66978 -28.28281,112.20823 -21.64983,61.42397 -45.71409,129.7006 -36.96177,154.73414 1.11764,3.19271 2.80173,5.65181 5.13458,7.2666 l 0,0 z m 29.20619,13.37745 c -1.00371,2.58205 -2.04433,4.08209 -3.14393,4.29931 -0.42133,0.0819 -0.83898,0.0131 -1.25866,-0.22131 0.46765,0.64756 0.90947,0.91806 1.33528,0.83608 1.01357,-0.20099 2.03164,-1.93447 3.06731,-4.91408 l 0,0 z m 257.57818,3.46733 c -2.57384,1.08199 -5.54115,1.25823 -8.85272,0.63116 -26.84097,-5.06573 -76.81787,-65.37901 -121.40117,-119.1757 -36.91914,-44.5628 -70.11684,-84.62547 -82.63362,-84.62547 -16.89105,0 -26.32249,74.77682 -33.73008,133.52038 -2.26401,17.94726 -4.34193,34.42316 -6.46659,46.92763 2.0558,-11.13968 4.22019,-25.27125 6.55757,-40.5381 8.4773,-55.3623 19.21982,-125.50374 38.33597,-125.50374 13.98403,0 46.79238,38.30032 83.03116,80.60486 42.37423,49.4564 89.46989,104.43345 115.52395,109.36802 3.65995,0.69675 6.89775,0.34837 9.63553,-1.20904 l 0,0 z m 26.82868,-16.43902 c 0.75821,1.24594 1.04511,2.25416 0.7951,2.9714 -0.16787,0.50001 -0.5369,0.87707 -1.11479,1.13528 0.94266,-0.0531 1.47546,-0.31149 1.6271,-0.75413 0.24591,-0.72133 -0.22132,-1.85251 -1.30741,-3.35255 l 0,0 z M 657.10552,497.11221 c -0.43443,2.61073 -1.73776,5.11081 -3.81569,7.52891 -17.80791,20.71373 -95.03152,33.83708 -163.91472,45.54645 -57.0509,9.7011 -108.34751,18.41858 -114.60179,29.25087 -8.44698,14.63158 51.5999,60.18622 98.76934,95.97418 11.47985,8.71337 22.21378,16.85706 31.04191,23.89825 -7.47153,-6.19281 -16.22589,-13.20531 -25.52125,-20.65635 -43.70212,-35.02154 -99.07264,-79.38762 -89.51497,-95.94549 l 0,-0.003 c 6.99201,-12.10691 56.55907,-21.37358 111.3148,-31.6034 64.0183,-11.96757 135.17617,-25.26305 152.47997,-45.36201 2.34843,-2.72549 3.65585,-5.59443 3.7624,-8.62731 l 0,0 z m 0.45084,-31.84928 c 0.8156,0.1023 1.41397,0.34427 1.76644,0.74592 0.34837,0.40166 0.49182,0.91806 0.41395,1.55743 0.38526,-0.78691 0.40984,-1.34021 0.11049,-1.68038 l 0,0 c -0.37705,-0.43034 -1.15577,-0.63117 -2.29105,-0.62297 l 0,0 z M 529.38449,241.61691 c 1.6517,1.61479 2.91812,3.75831 3.83618,6.37313 9.02896,25.77537 -18.21775,99.22018 -42.51356,164.71804 -20.13175,54.25982 -38.22655,103.04403 -31.97227,113.87632 l 0,0.003 c 8.44288,14.62338 77.92037,-14.5988 132.49986,-37.5544 11.30772,-4.75424 21.97607,-9.24209 31.38619,-13.01679 -7.91418,2.98779 -16.67263,6.40593 -25.87782,9.98801 -52.17779,20.33667 -118.29042,46.10383 -127.84809,29.55006 -6.99201,-12.11102 9.77079,-59.67389 28.28363,-112.20824 21.64819,-61.42396 45.71039,-129.7006 36.95603,-154.73414 -1.05331,-3.01237 -2.61074,-5.38129 -4.75015,-6.9961 l 0,0 z m -28.05411,-17.13166 c 0.47132,-0.59019 0.95085,-0.94676 1.44676,-1.04512 0.41395,-0.078 0.832,-0.0164 1.24594,0.21312 -0.40575,-0.47542 -0.7869,-0.67215 -1.15577,-0.59428 -0.51231,0.0945 -1.02463,0.58609 -1.53693,1.42628 l 0,0 z m -257.01915,-0.90987 c 2.00786,-0.42214 4.21366,-0.38526 6.59773,0.0617 26.83523,5.06982 76.81378,65.3872 121.39298,119.1798 36.92733,44.5628 70.12504,84.62957 82.63771,84.62957 16.88984,0 26.32455,-74.78092 33.73052,-133.52448 1.62299,-12.86924 3.15173,-24.98026 4.67226,-35.415 -1.46316,8.80764 -2.98779,18.76287 -4.59439,29.25498 -8.47566,55.35821 -19.21779,125.49965 -38.33722,125.49965 -13.98402,0 -46.79238,-38.29622 -83.03526,-80.60077 -42.37012,-49.4646 -89.46455,-104.44165 -115.52067,-109.37212 -2.76768,-0.5246 -5.29114,-0.45493 -7.54366,0.28689 l 0,0 z M 83.394536,461.31609 c 0.577881,-2.56975 1.937337,-5.03704 3.992737,-7.42645 17.718137,-20.58258 89.215777,-33.94364 153.536567,-45.96449 54.31842,-10.15194 103.49201,-19.34484 110.06598,-30.72223 l 0,0 c 8.76256,-15.19308 -45.9194,-59.01406 -89.08053,-93.60116 -28.11642,-22.52936 -51.41997,-41.20615 -49.5646,-46.60794 0.13771,-0.40575 0.39061,-0.73363 0.75904,-0.99593 -0.70943,0.1436 -1.12708,0.43443 -1.2779,0.86887 -1.54143,4.49193 19.43746,22.36542 44.64477,43.82918 39.71431,33.82068 89.74449,76.43261 79.90813,93.47 -7.2871,12.61513 -54.63688,22.34493 -106.58515,33.01739 -59.54153,12.23807 -125.17179,25.72618 -142.348536,45.6571 -2.316464,2.68451 -3.714043,5.50836 -4.050508,8.47566 l 0,0 z M 211.67543,720.81561 c -2.43001,-1.83612 -4.20875,-4.53702 -5.42066,-7.99613 -8.96708,-25.64421 15.20741,-94.23643 36.95806,-155.95139 18.36819,-52.11221 34.99573,-99.29392 28.42872,-110.67131 l 0,-0.003 c -8.77033,-15.18898 -74.06573,10.2585 -125.60088,30.34513 -33.56947,13.07826 -61.392431,23.92695 -65.146633,19.61944 -0.283625,-0.32788 -0.445101,-0.71724 -0.483625,-1.17626 -0.289851,0.75821 -0.264274,1.3197 0.05898,1.68857 3.117306,3.58617 29.084903,-5.65181 60.281313,-16.75051 49.14535,-17.47589 111.05949,-39.49704 120.89585,-22.46784 7.28422,12.61922 -7.96499,58.48941 -24.695,108.81879 -19.17641,57.68205 -40.31065,121.26182 -31.63826,146.10273 1.33201,3.81978 3.41322,6.69692 6.3621,8.44287 l 0,0 z m 288.51967,17.54561 c -2.94271,1.43857 -6.38954,1.71726 -10.2626,0.98364 -26.69342,-5.05754 -74.01041,-60.28869 -116.58136,-109.9828 -35.94779,-41.96026 -68.49384,-79.95321 -81.63768,-79.95321 -17.53944,0 -28.1455,69.26027 -36.51706,123.92993 -5.45305,35.61993 -9.97571,65.1454 -15.58696,66.23969 -0.51106,0.0984 -1.02173,0 -1.52748,-0.31542 0.59057,0.83609 1.1574,1.17626 1.70496,1.0697 l 0.003,0 c 4.66037,-0.90576 9.64412,-28.01313 15.63325,-60.57967 9.43143,-51.30072 21.31539,-115.9338 40.98686,-115.9338 14.57421,0 46.67762,36.14043 81.89589,75.79325 40.36596,45.45218 84.8632,95.54384 110.70413,100.45382 4.28702,0.8156 8.05352,0.32788 11.18476,-1.70497 l 0,0 z m 24.05809,-23.74251 c 4.0534,4.27471 6.13133,7.45104 5.52885,9.22159 -0.20492,0.58197 -0.64756,1.02461 -1.34839,1.31151 1.17626,-0.0616 1.83611,-0.38936 2.03284,-0.95904 0.5533,-1.61481 -1.79923,-4.95507 -6.2133,-9.57406 l 0,0 z M 658.97443,498.06716 c -0.34017,3.08615 -1.79923,6.03706 -4.23783,8.87321 -17.72184,20.58258 -89.21578,33.94774 -153.53737,45.96859 -54.3172,10.14784 -103.4908,19.33664 -110.06067,30.72223 l -0.003,-0.003 c -8.76256,15.19718 45.91941,59.01406 89.08052,93.60116 17.55381,14.0619 33.23051,26.62785 42.08323,35.3945 -8.17238,-8.15598 -21.58671,-19.57846 -36.4806,-32.26326 -39.7102,-33.82068 -89.74038,-76.42851 -79.90402,-93.4618 7.283,-12.62333 54.63688,-22.35313 106.58515,-33.02558 59.54277,-12.23397 125.17177,-25.71799 142.34851,-45.653 2.75009,-3.18863 4.20505,-6.56578 4.12718,-10.15195 l 0,0 z m -2.38531,-34.29198 c 2.34023,-0.1928 3.93044,0.078 4.64358,0.90166 l 0,0 c 0.40985,0.47133 0.56969,1.082 0.45493,1.84843 0.48772,-0.99184 0.5164,-1.69678 0.13508,-2.13942 -0.68854,-0.791 -2.49598,-0.95494 -5.23376,-0.61067 l 0,0 z M 531.11406,240.55539 c 2.09431,1.80744 3.65993,4.3239 4.75423,7.45514 8.96748,25.64012 -15.20947,94.24053 -36.95601,155.94729 -18.36941,52.12041 -34.99696,99.29802 -28.43119,110.6795 8.77486,15.18898 74.06779,-10.2585 125.60212,-30.34517 16.14802,-6.29116 30.97223,-12.06593 42.4234,-15.88978 -10.25441,3.2378 -23.09496,7.80348 -36.96422,12.73395 -49.14491,17.48004 -111.0607,39.50528 -120.89705,22.46788 -7.28301,-12.61922 7.96334,-58.48941 24.69335,-108.81059 19.1768,-57.68615 40.30859,-121.26591 31.64029,-146.10682 -1.25823,-3.59847 -3.17632,-6.36085 -5.86492,-8.1314 l 0,0 z m -31.75505,-15.61521 c 1.02052,-2.1886 2.06563,-3.47552 3.15583,-3.68864 0.50821,-0.0984 1.01643,0 1.52053,0.30722 -0.5287,-0.66395 -1.03691,-0.93035 -1.53283,-0.83608 l 0,0 c -1.02871,0.20099 -2.07383,1.68037 -3.14353,4.21733 l 0,0 z M 244.1063,221.64089 c 2.42712,-0.68854 5.13294,-0.71722 8.08837,-0.15574 26.69054,5.05343 74.00752,60.29279 116.57846,109.9828 35.94781,41.96437 68.49386,79.9573 81.63769,79.9573 17.54151,0 28.14429,-69.26846 36.51749,-123.93812 2.75418,-17.97185 5.26655,-34.39447 7.80351,-46.39483 -2.4468,10.75032 -5.04113,24.87369 -7.86089,40.21022 -9.43471,51.3048 -21.32031,115.93789 -40.98893,115.93789 -14.5742,0 -46.67762,-36.14453 -81.89589,-75.79326 -40.37006,-45.44807 -84.86319,-95.54793 -110.70616,-100.45382 -3.40545,-0.65165 -6.48095,-0.47542 -9.17365,0.64756 l 0,0 z M 81.539136,460.66443 c 0.480341,-3.13534 2.033272,-6.14363 4.51613,-9.02896 17.585344,-20.39815 83.537314,-33.95183 143.371914,-46.24728 51.52367,-10.58638 98.48818,-20.24241 105.36544,-32.1444 9.06994,-15.71359 -40.31268,-57.76813 -79.50812,-91.15027 -25.72945,-21.91049 -47.14731,-40.15284 -45.19725,-45.82514 0.17443,-0.50411 0.5029,-0.90986 0.99758,-1.22135 -0.95578,0.16788 -1.51317,0.5492 -1.70989,1.12298 -1.65864,4.81983 17.47307,22.26297 40.35081,43.12834 35.77031,32.61164 80.54214,73.43662 70.45577,90.90437 l 0,0.003 c -7.5658,13.10696 -52.61917,23.29169 -101.71288,34.38628 -55.14549,12.46348 -115.42516,26.09094 -132.416256,45.78006 -2.793922,3.23779 -4.372264,6.66412 -4.513248,10.29129 l 0,0 z M 210.16594,722.14762 c -3.00829,-1.98776 -5.16655,-5.10261 -6.58666,-9.16831 -8.87239,-25.42699 12.36267,-89.31824 31.63373,-147.28308 16.59067,-49.91953 31.71856,-95.41676 24.84376,-107.32285 -9.07115,-15.71358 -70.18652,6.02477 -118.69247,23.27935 -31.84194,11.32411 -58.344372,20.75062 -62.282621,16.2259 -0.354106,-0.40576 -0.544277,-0.90167 -0.561887,-1.48775 -0.390602,0.98773 -0.358624,1.70906 0.06227,2.18859 3.34108,3.84437 28.018449,-4.00422 57.525879,-13.38155 46.12887,-14.67254 103.86951,-33.02965 113.95385,-15.56601 7.56784,13.10692 -6.13953,57.21069 -21.07646,105.27771 -16.77673,53.98931 -35.11745,113.00747 -26.55857,137.56558 1.56726,4.50423 4.08412,7.80761 7.73915,9.67242 l 0,0 z m 290.29966,18.30382 c -3.34437,1.86892 -7.31169,2.27056 -11.79134,1.41809 -26.468,-5.02884 -71.17836,-55.36641 -111.74104,-101.03172 -34.93137,-39.33314 -66.77248,-75.17847 -80.5229,-75.17847 -18.14071,0 -29.8726,63.78879 -39.18396,114.42965 -6.1092,33.2264 -11.19705,60.89525 -17.0886,62.04693 l 0,0 c -0.6197,0.12295 -1.23611,-0.0131 -1.84924,-0.42624 0.73648,1.05331 1.45372,1.47546 2.15006,1.34021 4.99809,-0.96725 10.54252,-26.26309 17.1673,-56.50579 10.36303,-47.2883 23.32857,-106.4745 43.5013,-106.4745 15.1357,0 46.485,33.92725 80.64175,70.89556 38.36591,41.52583 80.30568,86.91654 105.85563,91.78143 4.96326,0.94266 9.29945,0.29936 12.86104,-2.29515 l 0,0 z M 660.89252,499.05079 c -0.20099,3.62716 -1.81973,7.07808 -4.65998,10.36916 -17.58249,20.40226 -83.53118,33.95594 -143.36493,46.25139 -51.52613,10.58227 -98.49065,20.23831 -105.36791,32.1444 -9.06994,15.71358 40.30858,57.76811 79.50648,91.14616 25.73437,21.9146 47.14895,40.15695 45.19807,45.82514 -0.24164,0.70085 -0.77872,1.22135 -1.64759,1.54104 1.46316,-0.0738 2.27875,-0.48772 2.52876,-1.20906 1.65989,-4.82391 -17.47183,-22.26705 -40.34956,-43.12424 -35.77156,-32.61573 -80.54749,-73.44072 -70.46113,-90.91255 7.56581,-13.10285 52.62453,-23.29168 101.72026,-34.38628 55.14099,-12.46348 115.42148,-26.09093 132.41379,-45.78415 3.19271,-3.70503 4.80343,-7.64367 4.48374,-11.86101 l 0,0 z M 532.92968,239.4816 c 2.59434,1.99596 4.49194,4.90178 5.77886,8.59861 8.87732,25.42699 -12.36102,89.31824 -31.62799,147.28719 -16.59476,49.91543 -31.71816,95.40855 -24.845,107.31874 9.07403,15.71359 70.18652,-6.02476 118.69617,-23.27938 31.83701,-11.32408 58.3419,-20.75058 62.28054,-16.22995 0.49182,0.56558 0.66396,1.30331 0.50412,2.22137 0.61886,-1.24594 0.65166,-2.13121 0.16394,-2.6927 -3.34437,-3.84438 -28.02133,4.00421 -57.53042,13.38561 -46.12842,14.66437 -103.86785,33.02967 -113.95012,15.56604 -7.5699,-13.10695 6.13543,-57.21479 21.0744,-105.2777 16.7792,-53.98933 35.1199,-113.00748 26.55817,-137.56969 -1.47545,-4.23373 -3.7911,-7.41416 -7.10267,-9.32814 l 0,0 z M 243.94646,219.64084 c 2.86074,-1.01643 6.10264,-1.13528 9.67285,-0.45493 26.46675,5.03293 71.1771,55.3664 111.74389,101.0399 34.93137,39.32495 66.76839,75.17438 80.5188,75.17438 18.14399,0 29.87384,-63.7929 39.1856,-114.42965 6.10673,-33.2346 11.19705,-60.89527 17.08657,-62.05104 l 0,0 c 0.61887,-0.11902 1.23364,0.0164 1.84842,0.42625 -0.67625,-0.88528 -1.33611,-1.23365 -1.98367,-1.1107 -4.99605,0.97135 -10.5372,26.26309 -17.16444,56.5058 -10.36097,47.28829 -23.33267,106.47858 -43.50541,106.47858 -15.13159,0 -46.4768,-33.92724 -80.63764,-70.89965 -38.36591,-41.52174 -80.30568,-86.91243 -105.85274,-91.78143 -4.09071,-0.77872 -7.75679,-0.47542 -10.91223,1.10249 l 0,0 z M 79.64973,459.94309 c 0.324928,-3.77059 2.066886,-7.35267 5.01615,-10.77081 17.38495,-20.15224 77.97364,-33.84526 133.39744,-46.37433 48.68382,-11.00443 93.36384,-21.09899 100.52799,-33.5133 l 0.003,0 c 9.34044,-16.189 -34.82482,-56.4566 -70.10702,-88.62969 -23.36627,-21.30802 -42.9062,-39.12413 -40.85368,-45.08332 0.21444,-0.63116 0.64183,-1.13118 1.29185,-1.49595 -1.2488,0.20067 -1.97219,0.68445 -2.23162,1.43038 -1.78038,5.16819 15.51479,22.20558 36.08426,42.46848 31.88499,31.40258 71.5087,70.42833 61.20511,88.27313 -7.8322,13.57008 -50.52036,24.18924 -96.7242,35.68548 -50.81628,12.64383 -105.92653,26.36145 -122.66965,45.74728 -3.307466,3.83208 -5.070246,7.90597 -4.940728,12.26265 l 0,0 z m 128.93092,263.54474 c -3.66608,-2.12302 -6.23707,-5.67231 -7.88794,-10.40196 -8.75886,-25.136 9.67488,-84.45333 26.53603,-138.71725 14.81398,-47.66537 28.41112,-91.40847 21.24369,-103.81865 -9.34661,-16.18901 -66.30608,1.92216 -111.8087,16.3939 -30.13532,9.58226 -55.33608,17.59479 -59.471447,12.84055 -0.4369,-0.50822 -0.65943,-1.13528 -0.643463,-1.8853 -0.518868,1.25413 -0.477064,2.17629 0.06066,2.79517 3.584961,4.12717 26.987687,-2.33204 54.817207,-10.0167 43.14146,-11.90609 96.74514,-26.70569 107.05076,-8.86912 l 0.002,0 c 7.83508,13.57008 -4.31161,55.85003 -17.45216,101.60959 -14.46149,50.33757 -30.14147,104.91707 -21.72197,129.10633 1.81851,5.23375 4.82025,9.00846 9.27569,10.96344 l 0,0 z m 292.11037,19.15221 c -3.77061,2.35662 -8.29124,2.88943 -13.42663,1.90988 -26.15243,-4.97965 -68.30532,-50.59986 -106.86795,-92.33882 -33.87397,-36.65682 -64.95686,-70.30128 -79.28926,-70.30128 -18.68908,0 -31.48126,58.38289 -41.70206,105.02364 -6.76699,30.88616 -12.42988,56.723 -18.61899,57.92385 -0.75904,0.14755 -1.50659,-0.0327 -2.24803,-0.57378 0.91275,1.31151 1.80743,1.83201 2.69313,1.66398 5.36285,-1.04101 11.46756,-24.53761 18.728,-52.48517 11.25814,-43.31688 25.24174,-97.14635 45.84481,-97.14635 15.6685,0 46.2104,31.66078 79.27286,65.9282 36.35765,37.68966 75.78505,78.55563 100.94975,83.35905 5.69278,1.0902 10.64785,0.26231 14.66437,-2.9632 l 0,0 z M 662.85979,500.10411 c -0.006,4.22963 -1.79923,8.22155 -5.06572,12.00445 -17.38577,20.15224 -77.97365,33.85347 -133.39743,46.37844 -48.68588,11.00442 -93.36344,21.09898 -100.5317,33.51739 -9.34453,16.1849 34.82072,56.4566 70.10456,88.6297 23.36955,21.30391 42.90702,39.12411 40.85778,45.08331 -0.29116,0.84018 -0.95084,1.45087 -2.01646,1.81153 1.80334,-0.0862 2.80747,-0.61067 3.11895,-1.51644 1.78285,-5.17229 -15.51276,-22.20968 -36.07894,-42.46438 -31.8903,-31.41078 -71.51443,-70.43653 -61.21085,-88.28133 l 0.003,0.003 c 7.84039,-13.57417 50.52609,-24.19334 96.72419,-35.68959 50.8171,-12.64382 105.9253,-26.35734 122.66761,-45.74727 3.67634,-4.25422 5.44278,-8.81583 4.82391,-13.72991 l 0,0 z M 534.82728,238.39959 c 3.16403,2.15991 5.43459,5.49197 6.93874,9.80357 8.75845,25.136 -9.67653,84.45745 -26.53769,138.71316 -14.81191,47.66946 -28.40658,91.41254 -21.24244,103.82274 9.34865,16.18901 66.30936,-1.92218 111.81482,-16.39802 30.13204,-9.57812 55.32953,-17.59066 59.4649,-12.83642 0.59018,0.67625 0.7869,1.56562 0.55329,2.68861 0.78281,-1.55743 0.8156,-2.66402 0.19672,-3.37306 -3.58207,-4.12717 -26.9844,2.33614 -54.81721,10.02079 -43.14062,11.91016 -96.74879,26.70978 -107.04828,8.86909 l 0,-0.003 c -7.8363,-13.57004 4.30751,-55.84999 17.45135,-101.60136 14.45944,-50.34166 30.14024,-104.92527 21.72195,-129.11451 -1.71316,-4.91818 -4.46734,-8.55353 -8.49615,-10.59048 l 0,0 z M 243.83089,217.5711 c 3.31894,-1.42217 7.13545,-1.64348 11.36551,-0.83199 26.152,4.97556 68.30489,50.59988 106.86342,92.33882 33.87397,36.65684 64.95686,70.30128 79.28925,70.30128 18.69319,0 31.48456,-58.38698 41.70208,-105.02772 6.77068,-30.88617 12.43069,-56.71891 18.6235,-57.92386 0.75822,-0.14754 1.50824,0.037 2.25007,0.58198 -0.85659,-1.14348 -1.69678,-1.60251 -2.52876,-1.44267 -5.36492,1.04102 -11.47166,24.54173 -18.73007,52.48108 -11.25444,43.32096 -25.24666,97.15044 -45.84564,97.15044 -15.6685,0 -46.21039,-31.65668 -79.27286,-65.92819 -36.35764,-37.68555 -75.78505,-78.55563 -100.94685,-83.35905 -4.82556,-0.92216 -9.12405,-0.46723 -12.76965,1.65988 l 0,0 z M 77.716068,459.1357 c 0.106885,-4.46325 2.045962,-8.6683 5.486229,-12.65612 17.127563,-19.82846 72.527183,-33.61986 123.620523,-46.32515 45.80547,-11.40608 88.12844,-21.93099 95.57538,-34.82891 9.59046,-16.60706 -29.47259,-55.08361 -60.90794,-86.04766 -21.02074,-20.69734 -38.69214,-38.10769 -36.53388,-44.37017 0.27214,-0.78691 0.82418,-1.40579 1.68241,-1.82792 -1.61684,0.2295 -2.54555,0.84838 -2.87507,1.80742 -1.91317,5.54115 13.55041,22.17279 31.83209,41.83322 28.07461,30.19762 62.67522,67.41185 52.1913,85.56813 l 0,0 c -8.0904,14.00042 -48.34898,25.04583 -91.62322,36.91504 -46.57885,12.77087 -96.681168,26.51718 -113.110347,45.52185 -3.85832,4.45915 -5.808378,9.24208 -5.337475,14.41027 l 0,0 z M 206.91913,724.84033 c -4.41856,-2.24188 -7.45105,-6.26249 -9.34986,-11.70937 -8.6097,-24.75075 7.15185,-79.61713 21.68508,-130.21701 13.03357,-45.37021 25.07779,-87.29769 17.63495,-100.18742 l 0,0 c -9.59006,-16.61522 -62.43959,-2.02055 -104.97079,9.72161 -28.43977,7.85269 -52.350325,14.45125 -56.695139,9.447 -0.547558,-0.63117 -0.803697,-1.40988 -0.744679,-2.37302 -0.66438,1.59021 -0.609854,2.74188 0.07705,3.53289 3.837391,4.42636 25.97412,-0.65166 52.14047,-6.65183 40.18399,-9.21749 89.71498,-20.57439 100.19645,-2.41402 8.08673,14.00453 -2.48286,54.38687 -13.84179,97.80211 -12.22496,46.72681 -25.37535,96.9865 -17.13208,120.71672 2.09557,6.03297 5.63049,10.31588 11.00033,12.33234 l 0,0 z m 294.0096,20.03338 c -4.23374,2.95501 -9.38143,3.65585 -15.24636,2.53696 -25.73438,-4.91408 -65.3749,-46.00547 -101.92927,-83.89185 -32.77558,-33.97233 -63.05517,-65.35851 -77.94906,-65.35851 -19.1809,0 -32.96983,53.06307 -44.06443,95.76516 -7.42235,28.55413 -13.66106,52.56305 -20.16617,53.82947 -0.92501,0.1764 -1.84104,-0.0656 -2.739,-0.77461 1.12708,1.63529 2.24144,2.27056 3.35255,2.05334 5.75549,-1.11069 12.42824,-22.81626 20.31127,-48.48096 12.11304,-39.40692 27.043,-87.98214 48.00265,-87.98214 16.16851,0 45.86203,29.34514 77.78101,60.89117 34.35349,33.95184 71.30541,70.47342 95.97827,75.19487 6.5043,1.25004 12.1561,0.20886 16.66854,-3.7829 l 0,0 z M 664.90084,501.22709 c 0.22131,4.89768 -1.74186,9.48388 -5.47558,13.80778 -17.12755,19.83256 -72.53085,33.61576 -123.61844,46.32926 -45.80875,11.39788 -88.13379,21.93508 -95.57663,34.82071 l 0,0.003 c -9.59045,16.61524 29.46809,55.0836 60.90346,86.04765 21.02112,20.70143 38.69378,38.11179 36.53797,44.37017 -0.35247,1.01233 -1.15987,1.73776 -2.48367,2.14761 2.22137,-0.10656 3.45092,-0.76232 3.84437,-1.8976 1.914,-5.54115 -13.55368,-22.17279 -31.83291,-41.83731 -28.07461,-30.18943 -62.67401,-67.40366 -52.19419,-85.55994 8.08631,-14.00451 48.34981,-25.04582 91.62979,-36.91504 46.57516,-12.77496 96.67502,-26.51718 113.10584,-45.52185 4.19685,-4.8608 6.13543,-10.09455 5.15999,-15.79555 l 0,0 z M 536.81914,237.28891 c 3.81979,2.33203 6.5002,6.11493 8.23385,11.09869 8.61502,24.74664 -7.14775,79.61713 -21.68097,130.217 -13.03318,45.37021 -25.07452,87.2936 -17.63578,100.18329 l 0.003,0 c 9.58635,16.61115 62.44039,2.02465 104.97035,-9.71747 28.43937,-7.85269 52.34992,-14.45126 56.69431,-9.4511 0.70494,0.8156 0.92627,1.8853 0.60658,3.2501 0.97544,-1.91809 1.00413,-3.28289 0.22525,-4.18046 -3.83618,-4.42227 -25.96798,0.65166 -52.14089,6.65594 -40.18564,9.21336 -89.71171,20.57025 -100.19562,2.41811 l 0,-0.003 c -8.08631,-14.00042 2.48368,-54.39097 13.84057,-97.80619 12.22578,-46.72681 25.37781,-96.99062 17.13576,-120.71674 -1.97137,-5.67229 -5.21327,-9.79127 -10.05768,-11.94707 l 0,0 z M 243.73662,215.4235 c 3.81201,-1.9099 8.25312,-2.25827 13.20613,-1.31561 25.73356,4.91408 65.37818,46.00137 101.93255,83.89185 32.77557,33.97232 63.05517,65.35851 77.94495,65.35851 19.185,0 32.9723,-53.06306 44.06689,-95.76926 7.42236,-28.55413 13.66025,-52.56305 20.16454,-53.82538 0.93035,-0.17607 1.84841,0.0698 2.74598,0.77872 -1.0697,-1.46726 -2.13121,-2.04106 -3.19272,-1.83613 -5.75427,1.11479 -12.4266,22.82446 -20.30798,48.48506 -12.11511,39.41102 -27.04179,87.98624 -48.00553,87.98624 -16.16852,0 -45.86203,-29.34514 -77.78101,-60.89527 -34.35349,-33.95183 -71.30541,-70.47341 -95.97785,-75.19487 -5.63542,-1.082 -10.62862,-0.44263 -14.79595,2.33614 l 0,0 z M 75.724205,458.28322 c -0.182301,-5.24606 1.954975,-10.14785 5.942803,-14.75864 16.791087,-19.42681 67.173742,-33.2469 114.013252,-46.09154 42.90292,-11.77085 82.81356,-22.7138 90.52074,-36.05846 l 0,-0.003 c 9.80357,-16.98001 -24.29007,-53.64914 -51.94867,-83.39593 -18.68787,-20.09486 -34.49611,-37.09947 -32.2227,-43.68163 0.341,-0.98364 1.04718,-1.73366 2.16278,-2.22958 -2.0554,0.26231 -3.23042,1.04922 -3.65462,2.27876 -2.05088,5.9264 11.58765,22.1605 27.59878,41.21844 24.34129,28.96809 54.0766,64.36668 43.45376,82.76478 l 0,0.003 c -8.31707,14.40616 -46.10016,25.84912 -86.43498,38.06261 -42.42095,12.84054 -87.693188,26.54997 -103.721957,45.08331 -4.466528,5.16 -6.612068,10.72983 -5.709188,16.80789 l 0,0 z M 205.15638,726.20511 c -5.26861,-2.34432 -8.80682,-6.86905 -10.97125,-13.09464 -8.42605,-24.25892 4.79811,-74.79732 17.09192,-121.77824 11.25936,-43.03817 21.7363,-83.08034 14.02747,-96.4332 -9.79947,-16.97182 -58.60176,-5.78706 -98.19557,3.29518 -26.75041,6.13542 -49.376878,11.3241 -53.943018,6.06166 -0.680349,-0.78692 -0.978292,-1.77055 -0.850025,-2.9837 -0.851665,1.97956 -0.776647,3.42633 0.09443,4.43456 4.10832,4.73375 24.98189,1.04511 49.490821,-3.29519 37.26259,-6.59445 82.7861,-14.64797 93.41182,3.75012 l 0,0.003 c 8.31378,14.40616 -0.66927,52.84584 -10.2589,93.88394 -10.08761,43.16113 -20.85269,89.21988 -12.81884,112.36812 2.39188,6.89774 6.51741,11.72986 12.9213,13.7873 l 0,0 z m 295.96087,21.02522 c -4.73374,3.62306 -10.55359,4.50423 -17.20132,3.23371 -25.21797,-4.82801 -62.37482,-41.55452 -96.92094,-75.69079 -31.64029,-31.27552 -61.07149,-60.36655 -76.49408,-60.36655 -19.60715,0 -34.31578,47.85799 -46.24932,86.68701 -8.05968,26.2303 -14.88284,48.42358 -21.71747,49.7433 -1.13813,0.22131 -2.25416,-0.0944 -3.34928,-1.01643 1.38326,2.02465 2.76812,2.79927 4.16449,2.52876 6.16205,-1.18856 13.39833,-21.11539 21.89777,-44.50953 12.92005,-35.56663 28.70823,-79.01875 49.95477,-79.01875 16.62754,0 45.43168,27.0008 76.1785,55.82544 32.32883,30.32057 66.83397,62.66581 90.90435,67.2889 7.38137,1.41397 13.7791,0.14754 18.83253,-4.70507 l 0,0 z M 667.00336,502.40745 c 0.5246,5.64361 -1.623,10.89377 -5.87312,15.81604 -16.79149,19.42271 -67.17824,33.2428 -114.01571,46.09154 -42.90292,11.76265 -82.81395,22.7097 -90.5191,36.05846 -9.80357,16.98002 24.28762,53.64504 51.94828,83.39594 18.68908,20.09896 34.49283,37.09946 32.21817,43.68163 -0.42214,1.22545 -1.41807,2.09432 -3.06566,2.55336 2.72959,-0.1187 4.23373,-0.94266 4.72555,-2.37303 2.05334,-5.93051 -11.58232,-22.1605 -27.59919,-41.21844 -24.34089,-28.97218 -54.07948,-64.36668 -43.45211,-82.77297 8.31582,-14.40207 46.09974,-25.84094 86.43291,-38.05851 42.4234,-12.83646 87.69524,-26.54998 103.7285,-45.07921 4.77883,-5.52477 6.89775,-11.51675 5.47148,-18.09481 l 0,0 z M 538.86428,236.14133 c 4.5944,2.47138 7.75433,6.7584 9.7462,12.49218 8.42648,24.25482 -4.79933,74.79732 -17.09068,121.78233 -11.26263,43.03817 -21.73835,83.07215 -14.03321,96.42501 l 0,0 c 9.80767,16.98408 58.60832,5.79112 98.19966,-3.29108 26.75081,-6.13544 49.37852,-11.32002 53.94013,-6.06166 0.85659,0.98773 1.1066,2.28286 0.67216,3.95094 1.20495,-2.36483 1.22955,-4.04931 0.25411,-5.16819 -4.11078,-4.73785 -24.98026,-1.04922 -49.49328,3.29108 -37.25931,6.59446 -82.77707,14.65204 -93.40853,-3.75012 l 0,0 c -8.31992,-14.40616 0.66395,-52.84584 10.2544,-93.88804 10.09047,-43.16113 20.85309,-89.21988 12.82415,-112.37221 -2.26236,-6.50429 -6.06165,-11.17657 -11.86511,-13.41024 l 0,0 z M 243.67432,213.18572 c 4.33826,-2.49597 9.46137,-3.00009 15.20416,-1.89759 25.2159,4.81982 62.37275,41.54633 96.91886,75.68258 31.64029,31.27144 61.07559,60.36246 76.49409,60.36246 19.61125,0 34.3166,-47.85388 46.24728,-86.68291 8.06582,-26.23029 14.88569,-48.42358 21.72197,-49.74739 1.14347,-0.22131 2.26235,0.10231 3.36075,1.03282 -1.33201,-1.85661 -2.66402,-2.56975 -4.01242,-2.31154 -6.16001,1.18855 -13.39794,21.11538 -21.89409,44.50952 -12.91842,35.56664 -28.70578,79.02285 -49.95232,79.02285 -16.63164,0 -45.43577,-27.0049 -76.1785,-55.82953 -32.33293,-30.32058 -66.83807,-62.66581 -90.90763,-67.2848 -6.51617,-1.25004 -12.2684,-0.40985 -17.00215,3.14353 l 0,0 z M 73.668833,457.36925 c -0.557394,-6.12723 1.79143,-11.79544 6.374783,-17.09477 16.387764,-18.9391 61.916174,-32.73049 104.581824,-45.64481 39.97454,-12.10692 77.42444,-23.44742 85.37671,-37.21833 l 0.002,0.003 c 9.97571,-17.2915 -19.30631,-52.1491 -43.27751,-80.67864 -16.37302,-19.48419 -30.31278,-36.07485 -27.92091,-42.99309 0.42581,-1.23364 1.32709,-2.1517 2.7714,-2.72959 -2.59516,0.31543 -4.06323,1.30332 -4.60302,2.86484 -2.19473,6.34036 9.61382,22.1605 23.37899,40.60368 20.70839,27.74263 45.76366,61.31331 35.04203,79.89173 l -0.002,0 c -8.52648,14.76274 -43.79108,26.57456 -81.16434,39.09542 -38.35278,12.84466 -78.953573,26.44751 -94.516338,44.42347 -5.134576,5.9264 -7.489565,12.36921 -6.043619,19.47598 l 0,0 z M 203.34567,727.6109 c -6.26618,-2.41401 -10.38227,-7.50023 -12.84465,-14.5947 -8.20804,-23.65645 2.61769,-69.97751 12.76307,-113.38863 9.50481,-40.66925 18.40793,-78.77284 10.46058,-92.54375 l -0.002,0 c -9.98186,-17.2915 -54.80902,-9.35274 -91.50316,-2.85665 -25.063442,4.43047 -46.404244,8.20927 -51.199076,2.67632 -0.84878,-0.97954 -1.197577,-2.21728 -0.979931,-3.74601 -1.077508,2.46318 -0.966848,4.26241 0.12984,5.52885 4.392754,5.07392 23.998256,2.75828 46.852217,0.0573 34.38258,-4.05749 75.98219,-8.97568 86.70546,9.59455 l 0,0.0103 c 8.52199,14.75864 1.12216,51.20645 -6.72273,89.83055 -8.04942,39.64463 -16.57141,81.609 -8.78757,104.06869 2.72182,7.86498 7.51334,13.30777 15.1275,15.36521 l 0,0 z m 297.98471,22.02115 c -5.28295,4.45095 -11.86102,5.54935 -19.39402,4.10668 -24.5909,-4.72145 -59.29276,-37.25931 -91.81832,-67.75612 -30.46813,-28.55824 -59.00996,-55.32543 -74.91617,-55.32543 -19.96372,0 -35.50516,42.78817 -48.22889,77.81381 -8.69003,23.92284 -16.09146,44.2923 -23.27817,45.67759 -1.40086,0.27443 -2.76484,-0.13542 -4.09356,-1.32382 1.69063,2.48778 3.40829,3.42224 5.1567,3.08617 6.58954,-1.27053 14.38814,-19.41043 23.47491,-40.55039 13.67293,-31.80424 30.2144,-70.289 51.66587,-70.289 17.04149,0 44.90708,24.63189 74.43665,50.74332 30.30418,26.79179 62.383,55.15329 85.73207,59.64114 8.365,1.6107 15.61522,0.078 21.26293,-5.82395 l 0,0 z M 669.18375,503.63699 c 0.90986,6.5002 -1.44267,12.48399 -6.26658,18.06202 -16.38573,18.94319 -61.91578,32.73048 -104.58099,45.6489 -39.97661,12.10282 -77.42854,23.44333 -85.3755,37.21423 -9.97981,17.2874 19.29975,52.145 43.27588,80.67045 16.37344,19.48828 30.31238,36.07894 27.91887,42.99718 -0.51641,1.49594 -1.73366,2.53286 -3.77061,3.04927 3.33207,-0.13508 5.15589,-1.17626 5.77067,-2.955 2.19678,-6.34036 -9.61504,-22.1646 -23.38185,-40.60368 -20.70553,-27.74263 -45.75956,-61.3133 -35.04203,-79.88763 8.52894,-14.76683 43.79229,-26.57866 81.16636,-39.09953 38.35771,-12.84465 78.95727,-26.45161 94.51921,-44.42346 5.4182,-6.25838 7.74204,-13.09056 5.76657,-20.67275 l 0,0 z M 541.01189,234.96507 c 5.48787,2.60253 9.17241,7.43874 11.44707,13.99222 8.20925,23.65644 -2.61894,69.9775 -12.75858,113.38863 -9.50849,40.67335 -18.41448,78.77694 -10.46343,92.54375 l 0,0.003 c 9.9798,17.2874 54.80901,9.35274 91.50683,2.85665 25.05813,-4.43457 46.39893,-8.20927 51.19825,-2.68041 1.03692,1.19675 1.32791,2.77877 0.74593,4.81162 1.49184,-2.89763 1.48775,-4.96327 0.2705,-6.36905 -4.39358,-5.06982 -23.99662,-2.75417 -46.85387,-0.0573 -34.37807,4.0657 -75.98178,8.97978 -86.7034,-9.59044 l 0,-0.003 c -8.52075,-14.76683 -1.12299,-51.21055 6.72151,-89.83465 8.04942,-39.64052 16.57427,-81.6049 8.79124,-104.07279 -2.57384,-7.42644 -6.9961,-12.70119 -13.90205,-14.98814 l 0,0 z M 243.63743,210.84959 c 4.9067,-3.18862 10.77902,-3.88126 17.38494,-2.61483 24.59255,4.72145 59.2944,37.25931 91.81997,67.75612 30.46812,28.56233 59.00996,55.32542 74.92026,55.32542 19.95962,0 35.50107,-42.78816 48.22686,-77.8097 8.68878,-23.92694 16.09064,-44.29641 23.27528,-45.68579 1.40988,-0.27444 2.78697,0.14755 4.12307,1.3566 -1.64759,-2.33614 -3.31567,-3.20911 -5.01654,-2.88534 -6.59036,1.26644 -14.38977,19.40633 -23.47611,40.5463 -13.67253,31.80833 -30.21812,70.29718 -51.66548,70.29718 -17.04149,0 -44.90708,-24.63598 -74.43665,-50.74741 -30.30828,-26.79179 -62.38711,-55.14919 -85.73452,-59.64113 -7.48137,-1.43857 -14.07256,-0.36477 -19.42108,4.10258 l 0,0 z M 71.53926,456.38562 c -1.030785,-7.11907 1.543489,-13.63976 6.786667,-19.69321 15.891058,-18.35302 56.736943,-32.03785 95.323333,-44.96447 37.03679,-12.402 71.98128,-24.11547 80.15569,-38.27163 l 0,-0.003 c 10.1167,-17.52102 -14.54306,-50.56299 -34.92646,-77.86709 -14.07583,-18.86121 -26.15199,-35.04203 -23.63512,-42.30044 0.53116,-1.54103 1.67424,-2.67631 3.53332,-3.34026 -3.25667,0.36477 -5.08009,1.6148 -5.76372,3.59026 -2.34843,6.77481 7.63672,22.1728 19.18624,39.98072 17.18779,26.50078 37.76835,58.23943 26.99875,76.89573 -8.7064,15.08242 -41.41393,27.23442 -75.82687,40.01759 -34.38257,12.77907 -70.487357,26.18931 -85.48698,43.5095 -5.867786,6.76659 -8.456389,14.18075 -6.34485,22.44739 l 0,0 z M 201.4407,729.04537 c -7.41416,-2.455 -12.17086,-8.15598 -14.95783,-16.20131 -7.94574,-22.9351 0.62746,-65.14949 8.72361,-105.02362 7.77279,-38.27984 15.10661,-74.39567 6.93381,-88.56003 l -0.002,0.003 c -10.11833,-17.52922 -51.06137,-12.6889 -84.90131,-8.69699 -23.372436,2.76239 -43.42303,5.13131 -48.454721,-0.68034 -1.066426,-1.22545 -1.474634,-2.77468 -1.125444,-4.71326 -1.368893,3.06156 -1.208659,5.29934 0.179022,6.90595 4.687845,5.41818 23.018719,4.46734 44.210733,3.36895 31.54563,-1.6353 69.32054,-3.58617 80.09503,15.07422 l 0.003,-0.003 c 8.70436,15.07422 2.8755,49.481 -3.25622,85.67469 -6.12888,36.16912 -12.56311,74.14567 -5.0719,95.79385 3.08659,8.9183 8.61134,15.04144 17.62348,17.05789 l 0,0 z m 300.07001,23.10725 c -5.88132,5.4018 -13.29548,6.742 -21.78753,5.1108 -23.83678,-4.5862 -56.11234,-33.11984 -86.60095,-60.07146 -29.25907,-25.87373 -56.86646,-50.2802 -73.2235,-50.2802 -20.23831,0 -36.52158,37.87409 -49.97526,69.1783 -9.29494,21.6195 -17.26937,40.16924 -24.81796,41.6201 -1.73569,0.33608 -3.41197,-0.18853 -5.03497,-1.72957 2.06974,3.07797 4.1993,4.19686 6.40058,3.77471 7.033,-1.3525 15.37548,-17.69725 25.02124,-36.59945 14.36027,-28.14019 31.5534,-61.83792 53.10323,-61.83792 17.40626,0 44.28821,22.25067 72.56775,45.6612 28.25903,23.39005 57.92795,47.95226 80.42042,52.28845 9.43881,1.81563 17.62759,-0.006 23.92695,-7.11496 l 0,0 z m 169.9354,-247.2246 c 1.38119,7.46743 -1.18446,14.27911 -6.63954,20.58668 -15.89392,18.34891 -56.7394,32.02965 -95.32662,44.96036 -37.03799,12.40611 -71.98166,24.11138 -80.15813,38.27163 -10.11506,17.52511 14.54552,50.56299 34.92728,77.87528 14.07828,18.85303 26.15242,35.02973 23.64004,42.30044 -0.63526,1.82382 -2.12301,3.07796 -4.64767,3.65995 4.06569,-0.16394 6.27067,-1.46317 7.04119,-3.68863 2.34843,-6.7666 -7.63958,-22.16871 -19.185,-39.97661 -17.18903,-26.50079 -37.77162,-58.23945 -27.0008,-76.89574 l 0,-0.003 c 8.70517,-15.07422 41.41517,-27.23032 75.83013,-40.01759 34.38217,-12.77088 70.48571,-26.1934 85.48616,-43.50541 6.13132,-7.06988 8.67648,-14.84879 6.03296,-23.56627 l 0,0 z M 543.24556,233.73552 c 6.52889,2.7132 10.8118,8.15598 13.39795,15.62342 7.95106,22.93511 -0.62297,65.14949 -8.71748,105.02773 -7.77482,38.27573 -15.11111,74.39157 -6.93873,88.56002 l 0.003,-0.003 c 10.11506,17.52101 51.0589,12.6889 84.90008,8.68878 23.37365,-2.76238 43.42343,-5.1272 48.45637,0.68034 1.27053,1.47136 1.6107,3.38945 0.83609,5.88953 1.84432,-3.55749 1.80333,-6.08625 0.27869,-7.8486 -4.68867,-5.4182 -23.02118,-4.46734 -44.21443,-3.37305 -31.54603,1.63529 -69.31765,3.59027 -80.09255,-15.06603 l 0,0.003 c -8.70519,-15.07832 -2.88125,-49.48509 3.25419,-85.68289 6.12723,-36.16501 12.55775,-74.14156 5.06982,-95.78974 -2.92632,-8.44698 -8.04122,-14.39388 -16.23409,-16.70952 l 0,0 z M 243.60218,208.41919 c 5.53132,-4.02881 12.23933,-4.93048 19.80059,-3.47552 23.83924,4.58621 56.11479,33.11575 86.60342,60.07148 29.25906,25.86962 56.86644,50.27609 73.22349,50.27609 20.23832,0 36.52158,-37.87409 49.97691,-69.1742 9.29125,-21.6236 17.26691,-40.17744 24.81631,-41.6283 1.74595,-0.33607 3.43453,0.19673 5.06573,1.75825 -2.02876,-2.92221 -4.11078,-3.98782 -6.26249,-3.56977 -7.03709,1.3525 -15.3775,17.69725 -25.02533,36.59945 -14.35699,28.14018 -31.55013,61.83792 -53.09995,61.83792 -17.40625,0 -44.28821,-22.25477 -72.57184,-45.66531 -28.25494,-23.38594 -57.92796,-47.94815 -80.41591,-52.28024 -8.5556,-1.64759 -16.08491,-0.30723 -22.11093,5.25015 l 0,0 z M 69.326899,455.32001 c -1.612343,-8.24205 1.206987,-15.70949 7.167428,-22.58674 15.310291,-17.66856 51.639253,-31.16896 86.236183,-44.02181 34.09775,-12.66841 66.50446,-24.71385 74.87766,-39.21428 10.2126,-17.68496 -10.038,-48.9072 -26.94753,-74.98585 -11.81061,-18.20546 -22.02485,-33.95594 -19.37969,-41.57092 0.66888,-1.93448 2.1181,-3.33207 4.50957,-4.09848 -4.08087,0.41805 -6.33789,2.00416 -7.21047,4.52063 -2.49925,7.20513 5.67518,22.1605 15.04596,39.29625 13.79877,25.24666 30.13982,55.141 19.3731,73.79319 l 0,0.003 c -8.85026,15.32832 -38.97697,27.78361 -70.43612,40.7922 -30.51281,12.61513 -62.289174,25.75077 -76.633861,42.29225 -6.672724,7.69285 -9.520776,16.18491 -6.60223,25.77946 l 0,0 z M 199.43939,730.51673 c -8.74124,-2.46729 -14.21026,-8.84863 -17.35461,-17.93087 -7.64615,-22.09902 -1.17502,-60.30508 4.99358,-96.69141 6.0756,-35.86173 11.85036,-69.95701 3.47716,-84.45745 l 0,-0.003 c -10.20768,-17.68086 -47.37766,-15.75457 -78.41383,-14.15206 -21.672352,1.12708 -40.416358,2.09433 -45.693172,-3.99603 -1.335285,-1.54512 -1.822185,-3.4919 -1.300038,-5.94279 -1.725856,3.79929 -1.493882,6.58626 0.262303,8.61501 4.990313,5.77067 22.026068,6.16822 41.550027,6.62314 28.76316,0.67216 62.83178,1.46726 73.59811,20.11537 l 0,0.003 c 8.85027,15.33243 4.57555,47.64897 0.1105,81.39179 -4.33211,32.73458 -8.84044,66.82166 -1.69064,87.5149 3.48863,10.09456 9.8298,16.98002 20.46045,18.91041 l 0,0 z m 302.25166,24.25071 c -6.54529,6.53708 -14.89389,8.1478 -24.45566,6.30347 -22.95969,-4.42636 -52.81305,-29.14021 -81.24013,-52.6737 -28.02132,-23.19332 -54.65327,-45.23496 -71.39967,-45.23496 -20.42274,0 -37.33718,33.14443 -51.46383,60.82968 -9.86505,19.32846 -18.39481,36.04617 -26.31511,37.5667 -2.1546,0.41395 -4.22308,-0.25411 -6.21166,-2.23777 2.54063,3.7993 5.18578,5.1354 7.95515,4.6026 7.48957,-1.43447 16.35252,-15.99228 26.51062,-32.67721 14.96232,-24.5745 32.68417,-53.67374 54.22169,-53.67374 17.69725,0 43.55048,19.86126 70.54309,40.60368 26.17701,20.11536 53.44422,41.0668 74.94896,45.21856 10.63557,2.05744 19.88175,-0.0819 26.90655,-8.62731 l 0,0 z M 673.79454,506.27642 c 1.97138,8.57403 -0.83198,16.31196 -6.99201,23.41873 -15.30783,17.67266 -51.64088,31.17306 -86.23618,44.02591 -34.09528,12.66431 -66.50198,24.70975 -74.87928,39.21838 l -0.003,0 c -10.20522,17.68085 10.04538,48.9072 26.95572,74.98175 11.80364,18.20546 22.02116,33.95183 19.37764,41.57091 -0.77872,2.24597 -2.61484,3.77061 -5.76248,4.43047 4.98376,-0.18461 7.66007,-1.83613 8.62731,-4.62309 2.50418,-7.20104 -5.6723,-22.16461 -15.04143,-39.30036 -13.79959,-25.24256 -30.14434,-55.14099 -19.37763,-73.78909 l 0,-0.003 c 8.85272,-15.32833 38.98067,-27.78772 70.43653,-40.79221 30.5132,-12.61512 62.28874,-25.75487 76.63753,-42.29634 6.91825,-7.97975 9.72571,-16.80788 6.25839,-26.84096 l 0,0 z M 545.60629,232.47729 c 7.72974,2.79106 12.67661,8.906 15.60702,17.37346 7.64367,22.09083 1.17217,60.30098 -4.99195,96.68732 -6.07805,35.86173 -11.85281,69.95701 -3.47961,84.45335 l 0,0.003 c 10.20932,17.68496 47.37437,15.76276 78.41217,14.15206 21.67278,-1.11889 40.41925,-2.09433 45.69399,4.00422 1.56153,1.80743 1.96318,4.16405 0.94266,7.23382 2.28285,-4.35259 2.18039,-7.46743 0.2623,-9.68472 -4.98786,-5.76656 -22.02525,-6.16822 -41.55042,-6.61905 -28.76726,-0.67215 -62.82975,-1.46726 -73.60056,-20.11535 l 0,0 c -8.84863,-15.33653 -4.5739,-47.64897 -0.1105,-81.39588 4.3362,-32.73458 8.84453,-66.82986 1.69268,-87.519 -3.31157,-9.57816 -9.197,-16.27098 -18.87761,-18.57433 l 0,0 z M 243.57966,205.89043 c 6.21822,-5.04114 13.85327,-6.19281 22.47937,-4.52473 22.95763,4.42227 52.81097,29.13202 81.24216,52.66551 28.02133,23.19331 54.65326,45.23906 71.39967,45.23906 20.42274,0 37.33718,-33.14854 51.46055,-60.82559 9.86505,-19.32845 18.3981,-36.05026 26.31636,-37.57079 2.1681,-0.41805 4.25013,0.2623 6.25019,2.27056 -2.50007,-3.64766 -5.10261,-4.93048 -7.824,-4.40998 -7.49203,1.43857 -16.35295,15.99638 -26.50899,32.67721 -14.96767,24.57451 -32.68541,53.67783 -54.22294,53.67783 -17.69725,0 -43.55047,-19.86535 -70.54309,-40.60777 -26.1811,-20.11125 -53.44422,-41.0586 -74.95099,-45.21446 -9.74662,-1.88531 -18.32638,-0.24591 -25.09829,6.62315 l 0,0 z M 67.029683,454.21342 c -2.345546,-9.54127 0.747563,-18.07021 7.511699,-25.87373 14.63119,-16.86935 46.613688,-30.09106 77.323628,-42.78815 31.15956,-12.88564 61.00636,-25.22208 69.54431,-40.01759 l 0.003,0 c 10.24949,-17.75873 -5.82437,-47.15715 -19.3973,-71.99396 -9.57695,-17.51691 -17.93415,-32.80426 -15.16603,-40.77171 0.84222,-2.4345 2.66565,-4.16816 5.72843,-5.06573 -5.09441,0.50001 -7.87521,2.52057 -8.98633,5.71329 -2.64965,7.63138 3.73169,22.10312 10.97617,38.52984 10.56792,23.96383 22.94042,52.00974 12.23642,70.54719 -8.96256,15.52505 -36.48962,28.23444 -65.00113,41.39878 -26.7508,12.34462 -54.381958,25.1073 -67.961047,40.75532 -7.579341,8.73386 -10.739666,18.43087 -6.812105,29.56645 l 0,0 z M 197.32457,732.02906 c -10.28145,-2.43449 -16.53983,-9.57815 -20.07969,-19.82436 -7.29245,-21.10719 -2.75336,-55.4074 1.60579,-88.351 4.42348,-33.42723 8.65804,-65.44867 0.12165,-80.23601 l -0.002,0 c -10.25403,-17.76282 -43.75912,-18.54563 -72.04849,-19.20549 -19.959187,-0.46312 -37.381024,-0.86887 -42.899222,-7.25021 -1.681198,-1.94679 -2.273445,-4.38538 -1.520964,-7.47973 -2.175867,4.72145 -1.826677,8.17237 0.400013,10.75032 5.28501,6.11493 21.011279,7.82401 38.854043,9.76668 26.04134,2.82795 56.51727,6.13953 67.22004,24.67287 8.95724,15.52096 6.20059,45.71038 3.34436,76.99001 -2.68,29.34103 -5.44484,59.64932 1.31765,79.24007 3.93046,11.38968 11.17002,19.14401 23.68639,20.92685 l 0,0 z m 304.53451,25.45568 c -7.2748,7.88548 -16.67673,9.79127 -27.42295,7.71335 -21.91869,-4.23374 -49.36213,-25.32043 -75.71538,-45.57104 -26.7344,-20.5416 -52.34172,-40.21432 -69.4283,-40.21432 -20.50881,0 -37.93556,28.61971 -52.65278,52.79666 -10.38392,17.0497 -19.44364,31.93129 -27.73527,33.5174 -2.69269,0.51641 -5.25752,-0.32788 -7.69737,-2.88943 3.11855,4.70916 6.41823,6.29527 9.91958,5.62312 7.93588,-1.51644 17.27756,-14.27912 27.88155,-28.76315 15.46767,-21.13588 33.57477,-45.87843 54.98116,-45.87843 17.91446,0 42.68569,17.48824 68.3463,35.59943 24.07039,16.98821 48.93179,34.54202 69.27665,38.48066 11.97577,2.31564 22.41461,-0.16001 30.24681,-10.41425 l 0,0 z M 676.24544,507.70679 c 2.6968,9.84456 -0.38526,18.61121 -7.324,26.61145 -14.63158,16.87345 -46.61614,30.09516 -77.32197,42.79226 -31.16077,12.87744 -61.00592,25.22206 -69.54716,40.01349 l 0,0 c -10.25031,17.76283 5.82394,47.16535 19.39811,71.99805 9.57407,17.51692 17.93087,32.80426 15.1644,40.77581 -0.96315,2.77877 -3.20912,4.64358 -7.11907,5.3895 6.09445,-0.21738 9.32405,-2.31154 10.5413,-5.81164 2.65171,-7.63547 -3.72962,-22.10722 -10.97574,-38.53394 -10.56588,-23.95974 -22.9392,-52.00975 -12.23397,-70.55128 l 0,0 c 8.96338,-15.52096 36.48879,-28.22626 65.00195,-41.39059 26.75079,-12.34873 54.37866,-25.10731 67.96104,-40.75531 7.79941,-8.98797 10.91426,-18.99237 6.45511,-30.5378 l 0,0 z M 548.06128,231.15757 c 9.14781,2.83615 14.84061,9.70521 18.15629,19.29566 7.29529,21.10719 2.75417,55.4156 -1.60662,88.3551 -4.42225,33.42722 -8.65599,65.44458 -0.11869,80.24011 l 0,0 c 10.25441,17.75872 43.7595,18.53743 72.04723,19.19729 19.96372,0.46723 37.38228,0.87298 42.89884,7.25432 1.93447,2.23777 2.4263,5.1272 1.09019,8.9101 2.81975,-5.34033 2.61074,-9.16011 0.19672,-11.95118 -5.28294,-6.11494 -21.00882,-7.824 -38.84952,-9.76258 -26.04176,-2.82796 -56.51808,-6.14363 -67.22332,-24.68107 l 0,0 c -8.95518,-15.52096 -6.201,-45.71448 -3.34436,-76.99 2.68041,-29.34105 5.44689,-59.64933 -1.31561,-79.23598 -3.74192,-10.84459 -10.48392,-18.39809 -21.93099,-20.63177 l 0,0 z M 243.57474,203.22641 c 6.97398,-6.24199 15.65293,-7.65596 25.45076,-5.76657 21.91744,4.23784 49.36499,25.32454 75.71414,45.57514 26.7385,20.5375 52.34582,40.21431 69.43239,40.21431 20.50472,0 37.93557,-28.6238 52.64912,-52.79666 10.38556,-17.04968 19.4473,-31.93128 27.73443,-33.52149 2.7132,-0.5205 5.29525,0.34428 7.74614,2.94272 -3.08207,-4.56982 -6.34445,-6.10674 -9.79538,-5.45099 -7.93876,1.52054 -17.2833,14.28731 -27.88198,28.77136 -15.47177,21.13587 -33.57887,45.87431 -54.98524,45.87431 -17.91447,0 -42.68571,-17.48003 -68.34221,-35.59532 -24.07449,-16.99641 -48.93589,-34.54202 -69.27913,-38.48066 -11.07573,-2.1435 -20.83995,-0.18459 -28.44304,8.23385 l 0,0 z M 64.616922,452.98797 c -3.24026,-11.01672 0.187219,-20.72602 7.835054,-29.54596 13.843461,-15.9472 41.655774,-28.78774 68.579094,-41.21844 28.24921,-13.04138 55.5185,-25.63192 64.18308,-40.64056 10.23637,-17.73414 -1.93242,-45.32103 -12.32905,-68.8955 -7.39652,-16.7751 -13.91436,-31.55423 -11.0245,-39.87415 1.06807,-3.07796 3.36361,-5.24606 7.28914,-6.27888 -6.37642,0.57789 -9.80112,3.17223 -11.21794,7.25023 -2.8001,8.04532 1.82667,21.97196 7.02191,37.61587 7.52317,22.65232 16.21606,48.83753 5.65469,67.13725 l 0,0 c -9.01994,15.62342 -33.942,28.52544 -59.53867,41.77994 -23.10194,11.95937 -46.764121,24.20974 -59.46614,38.83313 -8.586322,9.88964 -12.125772,20.93505 -6.986668,33.83707 l 0,0 z M 195.08805,733.58239 c -12.07456,-2.34844 -19.20551,-10.36097 -23.18392,-21.88591 -6.89201,-19.9596 -4.10461,-50.46871 -1.40863,-80.00238 2.83041,-30.97633 5.55836,-60.88707 -3.10748,-75.89572 -10.24171,-17.73823 -40.21473,-20.99242 -65.82737,-23.77529 -18.223493,-1.98366 -34.28791,-3.72552 -40.045066,-10.38556 -2.127507,-2.46729 -2.857463,-5.53705 -1.791431,-9.4511 -2.75336,5.87722 -2.23164,10.17243 0.610248,13.46351 5.56656,6.44283 19.94322,9.40193 36.082652,12.72579 23.381847,4.80753 50.408057,10.37326 60.975987,28.68119 9.0183,15.61522 7.73098,43.64885 6.41166,72.44069 -1.19266,25.98438 -2.41236,52.59993 3.90504,70.92425 4.42679,12.84055 12.64917,21.60311 27.37831,23.16053 l 0,0 z m 306.91038,26.7672 c -8.09041,9.46749 -18.66859,11.68067 -30.73042,9.35273 -20.73423,-4.01242 -45.75957,-21.67688 -69.9898,-38.77985 -25.41469,-17.94316 -49.95232,-35.25925 -67.28889,-35.25925 -20.47603,0 -38.28394,24.3286 -53.50161,45.11611 -10.82655,14.79552 -20.36864,27.8328 -29.01683,29.48858 -3.38289,0.64756 -6.57193,-0.40165 -9.57367,-3.69273 3.83579,5.83213 7.9646,7.70105 12.40409,6.84856 8.36211,-1.59021 18.11201,-12.56595 29.06355,-24.88599 15.85703,-17.84479 34.18954,-38.46836 55.32133,-38.46836 18.03332,0 41.66927,15.13569 65.94868,30.67714 21.9064,14.02091 44.34969,28.3861 63.37075,32.07884 13.45942,2.60663 25.25485,-0.21313 33.99282,-12.47578 l 0,0 z M 678.79879,509.19863 c 3.59438,11.30772 0.1928,21.24244 -7.62317,30.24271 -13.84058,15.9554 -41.65289,28.79595 -68.57992,41.22665 -28.24265,13.04137 -55.51396,25.63191 -64.17814,40.64056 l 0,0.003 c -10.23802,17.72595 1.93447,45.32103 12.32823,68.89141 7.39776,16.771 13.91435,31.55832 11.02491,39.87414 -1.20494,3.45912 -3.95913,5.77477 -8.84452,6.61085 7.49202,-0.24164 11.39788,-2.92631 12.94301,-7.35677 2.79517,-8.04123 -1.82793,-21.97197 -7.0248,-37.60768 -7.52071,-22.66052 -16.21769,-48.83753 -5.65181,-67.14136 l 0,-0.003 c 9.01667,-15.62342 33.93954,-28.52545 59.53457,-41.77994 23.10314,-11.95528 46.76369,-24.20974 59.46489,-38.83723 8.79125,-10.12325 12.29135,-21.45556 6.60675,-34.76334 l 0,0 z M 550.68021,229.79278 c 10.79131,2.84435 17.3079,10.57409 21.04571,21.39818 6.88956,19.96371 4.10669,50.46462 1.40988,79.99829 -2.83205,30.98454 -5.56164,60.89116 3.10666,75.90801 l 0,0 c 10.23801,17.73004 40.21431,20.98833 65.82573,23.7712 18.22595,1.97956 34.28791,3.72552 40.04627,10.38556 2.40991,2.79106 3.02469,6.36084 1.27053,11.04541 3.5083,-6.58216 3.13534,-11.29542 0.0777,-14.83242 -5.56574,-6.44281 -19.94321,-9.40191 -36.08304,-12.72168 -23.37775,-4.81162 -50.40314,-10.37326 -60.97313,-28.68119 l 0,0 c -9.02077,-15.61522 -7.73384,-43.64885 -6.41413,-72.44069 1.19266,-25.98438 2.41401,-52.59993 -3.90585,-70.92425 -4.22554,-12.25856 -11.9102,-20.7957 -25.4065,-22.90642 l 0,0 z M 243.5813,200.44355 c 7.81128,-7.69286 17.66486,-9.41012 28.78076,-7.25432 20.73669,4.01241 45.76202,21.67687 69.98816,38.77575 25.41469,17.94315 49.95231,35.26335 67.2889,35.26335 20.47602,0 38.28802,-24.3327 53.5016,-45.12021 10.82819,-14.79142 20.36945,-27.83279 29.01726,-29.48449 3.40584,-0.65165 6.61495,0.41395 9.63143,3.75831 -3.8034,-5.70508 -7.89778,-7.5289 -12.29135,-6.68872 -8.36091,1.59841 -18.11529,12.56595 -29.06235,24.88599 -15.86113,17.84479 -34.18954,38.46837 -55.32543,38.46837 -18.03332,0 -41.66927,-15.12751 -65.94868,-30.67305 -21.90639,-14.02502 -44.34559,-28.39019 -63.36583,-32.08293 -12.5688,-2.4304 -23.68307,-0.14328 -32.21447,10.15195 l 0,0 z M 62.124225,451.75433 c -4.384984,-12.76678 -0.573394,-23.82449 8.092865,-33.80019 12.937276,-14.89389 36.75519,-27.23032 60.01245,-39.27166 25.35279,-13.12745 50.03797,-25.90652 58.78904,-41.05861 l 0,0 c 10.1532,-17.59479 1.59759,-43.35785 -5.80508,-65.6536 -5.29771,-15.9513 -10.01589,-30.16073 -7.01374,-38.79214 1.36563,-3.92225 4.26162,-6.66824 9.31915,-7.8609 -8.03221,0.67215 -12.24589,4.03701 -14.07257,9.28307 -2.92182,8.3896 0.0103,21.68917 3.26115,36.44781 4.69566,21.30391 10.05114,45.60382 -0.29935,63.53468 -9.01995,15.62342 -31.33127,28.6402 -54.04752,41.8906 -19.57475,11.41837 -39.45731,23.02118 -51.149068,36.4765 -9.740455,11.20525 -13.768445,23.79169 -7.087491,38.80444 l 0,0 z M 192.67689,735.1931 c -14.16556,-2.20499 -22.24247,-11.22166 -26.70572,-24.17286 -6.43134,-18.644 -5.2018,-45.43988 -4.00094,-71.6005 1.30784,-28.52544 2.58247,-56.29677 -6.16534,-71.45295 -10.15646,-17.58659 -36.747,-23.06217 -59.754665,-27.79182 -16.46443,-3.38945 -31.130834,-6.40593 -37.102325,-13.32417 -2.713622,-3.13944 -3.640698,-7.0125 -2.153342,-11.97986 -3.496432,7.34448 -2.699261,12.70939 0.94593,16.93493 5.803845,6.72151 18.787446,10.83638 33.19647,15.3939 20.796522,6.58627 44.519782,14.09878 54.871312,32.02964 l 0,0.003 c 9.01502,15.61522 9.13387,41.45206 9.25355,67.75202 0.10231,22.65642 0.2082,45.6653 6.01985,62.53056 4.9854,14.47584 14.27092,24.41466 31.59522,25.677 l 0,0 z m 309.50188,28.0951 c -9.01667,11.41427 -20.95555,13.96762 -34.52153,11.3405 -19.36943,-3.75831 -41.96027,-18.21776 -64.01831,-32.33704 -24.0417,-15.3939 -47.45224,-30.38205 -64.95275,-30.38205 -20.31209,0 -38.34541,20.29569 -53.94834,37.85359 -11.16712,12.56185 -21.11413,23.75481 -30.09064,25.46798 -4.28252,0.8197 -8.2769,-0.47543 -11.98642,-4.71326 4.73867,7.2748 9.94659,9.4429 15.6189,8.3609 8.72855,-1.66398 18.77966,-10.84868 29.92957,-21.04571 16.10704,-14.72175 34.47235,-31.51324 55.17379,-31.51324 18.02922,0 40.46022,12.82006 63.30107,25.86554 19.67682,11.23804 39.65691,22.65641 57.16155,26.05815 15.18077,2.94681 28.55412,-0.20886 38.33311,-14.95536 l 0,0 z M 681.46281,510.76016 c 4.71735,13.02497 0.91806,24.27122 -7.88138,34.40676 -12.93891,14.89799 -36.7593,27.22623 -60.01,39.26757 -25.35321,13.12745 -50.03838,25.90651 -58.78864,41.0627 l -0.003,0 c -10.15195,17.59069 -1.59841,43.35785 5.80345,65.64541 5.29934,15.95949 10.02079,30.16483 7.01661,38.79623 -1.51235,4.3526 -4.91408,7.24612 -11.04952,8.19288 9.27487,-0.2705 14.00453,-3.74192 15.9677,-9.38144 2.92631,-8.39368 -0.003,-21.69327 -3.25829,-36.4519 -4.69687,-21.29981 -10.05359,-45.59973 0.29935,-63.53058 9.02075,-15.62342 31.3288,-28.6402 54.04669,-41.8947 19.57435,-11.41838 39.4561,-23.02528 51.14497,-36.4724 9.92243,-11.41838 13.92255,-24.26303 6.71332,-39.64053 l 0,0 z M 553.4221,228.35831 c 12.74628,2.78697 20.18912,11.51263 24.40236,23.74661 6.43053,18.6358 5.20098,45.43169 4.00013,71.5964 -1.30332,28.52134 -2.57795,56.29677 6.16821,71.44476 l 0,0.003 c 10.15605,17.5866 36.747,23.05807 59.75179,27.79182 16.4677,3.38944 31.13617,6.41412 37.10766,13.32416 3.02469,3.50831 3.82799,7.92237 1.53694,13.75042 4.37717,-8.13959 3.72961,-13.95943 -0.16395,-18.47187 -5.80345,-6.7256 -18.78744,-10.83638 -33.1977,-15.39799 -20.79572,-6.58627 -44.51773,-14.09878 -54.8705,-32.02965 l 0,-0.003 c -9.01667,-15.61521 -9.13552,-41.45205 -9.25438,-67.74792 -0.1023,-22.65642 -0.20885,-45.6653 -6.01657,-62.53876 -4.77883,-13.86107 -13.5045,-23.57857 -29.46399,-25.46797 l 0,0 z M 243.60671,197.50903 c 8.756,-9.43471 19.94525,-11.45936 32.53498,-9.02076 19.37106,3.75831 41.9578,18.21775 64.01584,32.34113 24.0417,15.3939 47.45224,30.37796 64.95275,30.37796 20.31209,0 38.34542,-20.2916 53.95244,-37.8495 11.16426,-12.56184 21.11129,-23.7548 30.08697,-25.46798 4.3116,-0.82789 8.32811,0.49183 12.05773,4.79113 -4.71325,-7.15594 -9.88963,-9.28716 -15.52505,-8.20925 -8.72567,1.66398 -18.77925,10.84868 -29.93122,21.0375 -16.10294,14.72586 -34.46824,31.51734 -55.16969,31.51734 -18.02513,0 -40.46022,-12.81595 -63.30106,-25.86553 -19.67682,-11.23804 -39.66103,-22.65641 -57.16155,-26.05405 -14.25862,-2.77057 -26.92376,-0.14754 -36.51214,12.40201 l 0,0 z M 59.497097,450.41002 c -5.792403,-14.80781 -1.476273,-27.37786 8.328118,-38.66098 11.901563,-13.69714 31.908721,-25.36961 51.607275,-36.86176 22.51133,-13.13974 44.61894,-26.03357 53.38603,-41.21844 9.99621,-17.32019 4.72268,-41.25124 0.096,-62.22728 -3.30913,-15.02503 -6.29324,-28.55823 -3.20174,-37.44373 1.75782,-5.04524 5.40137,-8.54944 11.92043,-9.93063 -10.15317,0.77052 -15.33079,5.20097 -17.70011,11.99626 -3.00829,8.63141 -1.66808,21.16047 -0.20165,34.88219 2.12915,19.89813 4.52431,42.27585 -5.5219,59.67391 l 0,0.006 c -8.93673,15.47997 -28.65905,28.51314 -48.55267,41.66518 C 93.493715,382.97567 77.213321,393.73828 66.682254,405.8452 55.61471,418.57509 50.912537,432.89519 59.49722,450.408 l 0,0 z M 190.27846,736.87757 c -16.74435,-1.93039 -25.90528,-12.1561 -30.937,-26.76309 -5.90428,-17.13986 -6.01002,-40.30858 -6.11248,-63.12075 -0.11836,-26.05815 -0.23541,-51.64908 -9.00722,-66.84216 l -0.003,0 c -9.99293,-17.31608 -33.35428,-24.70975 -53.835643,-31.19765 -14.666408,-4.63948 -27.882376,-8.82813 -34.0301,-15.9472 -3.482072,-4.037 -4.698927,-8.93469 -2.649687,-15.25455 -4.463641,9.22568 -3.224259,15.9513 1.491849,21.41867 5.968637,6.91824 17.487408,12.02905 30.105002,17.61528 18.293989,8.10271 38.877809,17.22182 48.924019,34.61989 l 0.002,0 c 8.9396,15.48407 10.36916,39.08313 11.80855,62.88712 1.17173,19.33665 2.3517,38.81264 7.57602,53.99751 5.64487,16.39804 16.11033,27.80822 36.66833,28.58693 l 0,0 z m 312.01506,29.55416 c -10.06178,13.70942 -23.54988,16.57427 -38.79214,13.61516 -17.79971,-3.45912 -37.91917,-14.95126 -57.72303,-26.26718 -22.62773,-12.92251 -44.84561,-25.61962 -62.39531,-25.61962 -19.9965,0 -38.08311,16.53329 -53.93604,31.02552 -11.35362,10.38146 -21.59039,19.7342 -30.83083,21.49655 -5.46287,1.0451 -10.50401,-0.52052 -15.10865,-5.99199 5.89156,9.12323 12.51186,11.59871 19.82312,10.20522 8.97857,-1.70906 19.15713,-9.13141 30.30911,-17.2628 16.16852,-11.79544 34.35758,-25.05813 54.44014,-25.05813 17.87759,0 39.02577,10.55769 60.36657,21.21375 17.33248,8.65599 34.79611,17.37757 50.54248,20.43913 17.13577,3.33207 32.33294,-0.0945 43.30458,-17.79561 l 0,0 z M 684.25798,512.41594 c 6.09853,15.03734 1.79923,27.77133 -8.1191,39.1856 -11.902,13.69303 -31.9067,25.36961 -51.6081,36.85766 -22.50887,13.13154 -44.61609,26.03767 -53.38684,41.22254 -9.9921,17.3161 -4.71736,41.23894 -0.0944,62.22728 3.31158,15.02093 6.29527,28.55822 3.20092,37.43963 -1.92219,5.52476 -6.10674,9.2011 -13.85698,10.2626 11.55363,-0.29115 17.27921,-4.84849 19.80797,-12.09872 3.00419,-8.6273 1.66399,-21.16047 0.19673,-34.88218 -2.12711,-19.89405 -4.52063,-42.27586 5.52475,-59.67392 l 0,-0.003 c 8.9388,-15.48407 28.6607,-28.51725 48.55064,-41.66518 16.16442,-10.68884 32.44768,-21.45146 42.97669,-33.55838 11.22575,-12.91023 15.89392,-27.45984 6.80758,-45.31283 l 0,0 z M 556.29514,226.84597 c 15.09471,2.65582 23.56627,12.55365 28.32871,26.39013 5.90591,17.13576 6.00838,40.30449 6.11494,63.11664 0.11902,26.06225 0.23377,51.64908 9.00436,66.84626 l 0.003,0 c 9.9962,17.3079 33.35345,24.70565 53.83767,31.18946 14.66027,4.64358 27.88199,8.82813 34.02971,15.9554 3.83618,4.44685 4.91818,9.93472 1.91809,17.21772 5.50016,-10.13145 4.41406,-17.34888 -0.59429,-23.15643 -5.97149,-6.92233 -17.48822,-12.02495 -30.10746,-17.61118 -18.29562,-8.1068 -38.8741,-17.22183 -48.91948,-34.62808 l -0.003,0 c -8.93879,-15.47998 -10.36916,-39.07904 -11.81182,-62.88303 -1.16808,-19.33665 -2.35253,-38.80853 -7.574,-53.99342 -5.4141,-15.73817 -15.27505,-26.87785 -34.22643,-28.44347 l 0,0 z m -312.67367,-32.4108 c 9.82651,-11.57002 22.56378,-13.90616 36.84166,-11.13558 17.79971,3.45912 37.91506,14.95127 57.72303,26.26718 22.62363,12.92661 44.8456,25.61961 62.3953,25.61961 20.00061,0 38.07901,-16.53327 53.93604,-31.02552 11.3528,-10.38145 21.59081,-19.73829 30.8247,-21.49654 5.50426,-1.0533 10.58228,0.5451 15.20946,6.11084 -5.87313,-9.03715 -12.46758,-11.47985 -19.75058,-10.09456 -8.97978,1.70906 -19.15632,9.13141 -30.30419,17.26281 -16.17261,11.79133 -34.36168,25.06222 -54.44425,25.06222 -17.87758,0 -39.02985,-10.56179 -60.36656,-21.21785 -17.33658,-8.6519 -34.79612,-17.37346 -50.54658,-20.43504 -16.22302,-3.15992 -30.7083,-0.25803 -41.51803,15.08243 l 0,0 z M 56.717506,448.93047 c -7.526061,-17.22182 -2.534108,-31.50503 8.578125,-44.28411 10.700714,-12.30774 27.081958,-23.13594 43.346379,-33.88626 19.7141,-13.02907 39.2573,-25.94749 47.9793,-41.0586 l 0.003,0.003 c 9.74045,-16.87755 7.38054,-38.94788 5.2817,-58.56732 -1.48897,-13.93075 -2.84967,-26.65654 0.29443,-35.67729 2.28164,-6.54119 6.84611,-11.0905 15.28326,-12.68891 -12.92784,0.88937 -19.26617,6.81988 -22.37527,15.73408 -3.02426,8.6642 -3.10583,20.19323 -3.19393,32.64032 -0.12821,18.41858 -0.27214,38.84132 -9.90031,55.51395 l 0,0.003 c -8.76544,15.18488 -25.92169,28.10331 -43.063185,41.01763 -12.852416,9.68061 -25.70034,19.35713 -34.880123,29.91072 -12.634803,14.52093 -18.305464,30.8083 -7.353498,51.33761 l 0,0 z M 187.61772,738.61943 c -19.77846,-1.58202 -30.07261,-13.24221 -35.74819,-29.7345 -5.30223,-15.41029 -6.49036,-35.01744 -7.66869,-54.48523 -1.42628,-23.58268 -2.8431,-46.96862 -11.56346,-62.07153 l 0,-0.003 c -9.74373,-16.87346 -30.03735,-25.86553 -48.077243,-33.85758 -12.814314,-5.6764 -24.51263,-10.85687 -30.75134,-18.0948 -4.51489,-5.22966 -6.176809,-11.44706 -3.365248,-19.52517 -5.739517,11.68067 -3.77677,20.15634 2.398005,27.32049 5.992408,6.95512 15.934509,12.78726 26.672112,19.09073 15.88654,9.31995 33.497324,19.65223 43.123844,36.32896 l 0.003,0 c 8.76704,15.18488 11.38269,36.50519 13.99261,57.8009 1.9595,15.97999 3.91569,31.93948 8.46091,45.16528 6.41209,18.64811 18.08949,31.8944 42.52341,32.06654 l 0,0 z m 314.78646,31.12387 c -11.26673,16.5087 -26.57456,19.63174 -43.7595,16.28737 -16.00868,-3.11075 -33.57887,-11.88969 -51.01792,-20.59487 -21.14408,-10.55769 -42.09962,-21.02522 -59.54687,-21.02522 -19.49647,0 -37.42324,13.08236 -53.36224,24.70156 -11.32412,8.26254 -21.66415,15.80375 -31.04723,17.58659 -7.04939,1.3443 -13.47705,-0.51231 -19.23417,-7.61499 7.38054,11.56592 15.90538,14.29141 25.44912,12.47989 9.01214,-1.71317 19.03702,-7.40596 29.86522,-13.55779 16.01687,-9.09453 33.77559,-19.18089 53.02617,-19.18089 17.52511,0 37.3003,8.39779 57.05499,16.78328 14.81191,6.29527 29.61563,12.58235 43.33735,15.25456 19.4596,3.7911 36.85357,0.24984 49.23508,-21.11949 l 0,0 z M 687.22527,514.21108 c 7.80352,17.42265 2.81976,31.83292 -8.38959,44.71855 -10.69704,12.30365 -27.08277,23.13594 -43.34556,33.88626 -19.7137,13.03318 -39.25527,25.9516 -47.98094,41.0586 l 0,-0.003 c -9.7421,16.88165 -7.38137,38.94378 -5.28295,58.56732 1.48775,13.93484 2.84846,26.65244 -0.29509,35.6773 -2.46728,7.07807 -7.61907,11.82412 -17.44314,13.02088 14.50453,-0.31149 21.41458,-6.41003 24.70566,-15.84064 3.02468,-8.66419 3.10255,-20.19323 3.19271,-32.64032 0.12723,-18.41858 0.27477,-38.83722 9.89785,-55.50986 l 0,-0.006 c 8.76665,-15.17668 25.9229,-28.1033 43.06275,-41.01352 12.85285,-9.68061 25.70159,-19.36124 34.88219,-29.91073 12.77087,-14.67666 18.43088,-31.16076 6.99611,-52.00156 l 0,0 z M 559.27883,225.25166 c 17.98415,2.40991 27.57869,13.73401 32.9805,29.4394 5.30343,15.4103 6.49199,35.01744 7.66825,54.48114 1.43037,23.58677 2.84845,46.97272 11.57002,62.07563 l 0,0.003 c 9.738,16.87345 30.03368,25.86553 48.07521,33.85757 12.81185,5.6723 24.51303,10.85688 30.75092,18.0948 4.91818,5.69689 6.44691,12.56595 2.50418,21.73016 6.97561,-12.7094 5.14769,-21.73426 -1.3689,-29.29596 -5.99198,-6.95102 -15.939,-12.78726 -26.67293,-19.08663 -15.88572,-9.32405 -33.4969,-19.65633 -43.12423,-36.33306 l -0.003,0 c -8.76666,-15.18488 -11.38149,-36.50519 -13.99223,-57.8009 -1.95497,-15.98 -3.91405,-31.94358 -8.45926,-45.16529 -6.18052,-17.97595 -17.25052,-30.93534 -39.92742,-32.00096 l 0,0 z M 243.65956,191.18917 c 11.05978,-14.19305 25.60284,-16.79559 41.8283,-13.64385 16.00868,3.11484 33.57887,11.8856 51.01792,20.59487 21.14407,10.56179 42.10372,21.02113 59.54686,21.02113 19.49649,0 37.42325,-13.07417 53.36225,-24.70156 11.32821,-8.25845 21.66458,-15.79556 31.04601,-17.58249 7.09448,-1.3525 13.55779,0.5328 19.34484,7.75432 -7.36907,-11.49214 -15.87342,-14.19714 -25.3942,-12.38971 -9.01256,1.71317 -19.03745,7.40595 -29.86564,13.55779 -16.01687,9.09452 -33.7756,19.18089 -53.02618,19.18089 -17.52102,0 -37.3003,-8.39369 -57.05498,-16.78329 -14.81193,-6.29116 -29.61565,-12.58234 -43.33737,-15.25455 -18.55423,-3.61896 -35.22521,-0.56559 -47.46781,18.24645 l 0,0 z M 53.812075,447.40993 c -9.772423,-20.19731 -3.811983,-36.45191 8.869117,-51.02201 9.306442,-10.69294 22.232629,-20.43504 35.162134,-30.17713 16.994344,-12.79956 34.004684,-25.61142 42.582814,-40.46842 l 0.001,0.003 c 9.38346,-16.25458 9.52609,-36.41502 9.65396,-54.60819 0.0882,-12.60693 0.16951,-24.28761 3.29315,-33.2346 3.00048,-8.59452 8.7142,-14.62339 19.71288,-16.4759 -16.68044,1.02462 -24.40361,9.20519 -28.55331,21.09079 -2.89763,8.29124 -4.11449,18.44318 -5.40961,29.23038 -2.01891,16.84067 -4.2251,35.22646 -13.30571,50.95645 -8.46297,14.65618 -23.10193,27.29999 -37.581053,39.80037 -9.590019,8.28303 -19.114079,16.50459 -26.678666,25.18927 -14.602469,16.77509 -21.822783,35.35352 -7.746952,59.71491 l 0,0 z M 184.95699,740.44735 c -23.61914,-1.02052 -35.15107,-14.53322 -41.60125,-33.30018 -4.60916,-13.40614 -6.57847,-29.46399 -8.54902,-45.53824 -2.58902,-21.11129 -5.18254,-42.25536 -13.75575,-57.10417 l 0,-0.003 c -9.38307,-16.25048 -26.772932,-26.45981 -42.462322,-35.665 -10.878617,-6.38134 -20.950623,-12.29135 -27.13484,-19.4719 -5.930079,-6.87315 -8.296543,-14.82421 -4.439477,-25.23846 -7.491207,14.98816 -4.2698,25.78356 3.954217,35.33303 5.744433,6.66824 13.923793,12.79547 22.61379,19.30385 13.574604,10.17244 28.397992,21.27523 37.475312,37.00111 8.46294,14.66437 12.09053,33.65674 15.67834,52.44419 2.37915,12.45119 4.74071,24.81631 8.47566,35.69779 7.38833,21.50474 20.26658,37.26751 49.74534,36.54208 l 0,0 z m 317.59063,32.70999 c -12.70119,20.05797 -30.20171,23.31217 -49.72279,19.50878 -13.91435,-2.71319 -28.80824,-9.04126 -43.71442,-15.36111 -19.57436,-8.31992 -39.1733,-16.64395 -56.33365,-16.64395 -18.77516,0 -36.30846,9.96341 -52.12041,18.94319 -10.96344,6.2297 -21.11538,11.99217 -30.42999,13.75861 -9.21995,1.75415 -17.52265,-0.35656 -24.78806,-9.65602 9.37366,14.8652 20.55636,17.66036 33.23788,15.25455 8.6355,-1.63939 18.03334,-5.66 28.02134,-9.93062 15.59062,-6.67644 32.61982,-13.95534 50.7761,-13.95534 16.91853,0 35.18958,6.35265 53.25979,12.64792 11.96757,4.15996 23.85317,8.29943 35.15269,10.50441 22.39411,4.36817 42.54225,1.0615 56.66152,-25.07042 l 0,0 z M 690.32783,516.07179 c 9.99619,20.34487 4.0411,36.69372 -8.71338,51.3499 -9.29945,10.68884 -22.22607,20.42683 -35.16088,30.17303 -16.99231,12.79546 -34.00102,25.61142 -42.57915,40.46432 l -0.003,0 c -9.38143,16.25458 -9.52078,36.41912 -9.65193,54.60409 -0.0902,12.61103 -0.17213,24.28762 -3.29518,33.2387 -3.20501,9.197 -9.52487,15.45128 -22.10312,16.80378 18.46367,-0.31968 26.7549,-8.71338 31.11159,-21.18916 2.89762,-8.29123 4.11898,-18.44727 5.41,-29.23447 2.01645,-16.83657 4.22553,-35.22237 13.30777,-50.95235 8.46337,-14.66028 23.10315,-27.29999 37.579,-39.80037 9.59045,-8.28303 19.11532,-16.50869 26.67702,-25.19338 14.71355,-16.90214 21.92688,-35.63631 7.42236,-60.26409 l 0,0 z M 562.48794,223.57538 c 21.50884,2.04515 32.29605,15.16849 38.45607,33.07886 4.61079,13.40614 6.57806,29.46809 8.54534,45.53825 2.59024,21.12358 5.18458,42.25535 13.75861,57.10826 l 0,0.003 c 9.38142,16.25048 26.77538,26.45981 42.46438,35.665 10.87737,6.38134 20.95145,12.29135 27.13195,19.46779 6.38545,7.40597 8.63551,16.04147 3.44683,27.66887 8.94698,-16.14393 5.82804,-27.52132 -2.79516,-37.52981 -5.74198,-6.66824 -13.91845,-12.79547 -22.61133,-19.30795 -13.57419,-10.17244 -28.3943,-21.27523 -37.47653,-37.00111 -8.46338,-14.66028 -12.09053,-33.65675 -15.6767,-52.44419 -2.37713,-12.45119 -4.74194,-24.81223 -8.47976,-35.69369 -7.13137,-20.76702 -19.38993,-36.17731 -46.7637,-36.55438 l 0,0 z M 243.70917,187.74234 c 12.51185,-17.46363 29.22586,-20.21782 47.76248,-16.60295 13.91845,2.71319 28.81234,9.04126 43.71442,15.36521 19.57845,8.31582 39.1774,16.63574 56.33365,16.63574 18.77515,0 36.30846,-9.95521 52.12451,-18.93909 10.95934,-6.22559 21.11538,-11.99626 30.42714,-13.7627 9.27487,-1.76235 17.61938,0.38526 24.91057,9.81997 -9.36093,-14.80783 -20.52929,-17.5866 -33.18951,-15.18489 -8.6355,1.6394 -18.03332,5.66001 -28.02133,9.93063 -15.59473,6.67233 -32.61982,13.95533 -50.7802,13.95533 -16.91854,0 -35.18958,-6.35675 -53.25569,-12.64792 -11.97168,-4.16406 -23.85728,-8.30352 -35.1527,-10.50441 -21.46742,-4.19275 -40.868,-1.31971 -54.87334,21.93508 l 0,0 z M 50.717326,445.74185 c -12.676608,-23.91464 -5.177629,-42.44389 9.455201,-59.25176 7.626851,-8.75847 17.211985,-17.0374 26.865951,-25.37371 14.360692,-12.39792 28.879982,-24.93517 37.190452,-39.33315 8.89004,-15.3898 11.07082,-33.58706 13.06885,-50.2474 1.30453,-10.88147 2.53244,-21.12358 5.5022,-29.61974 4.00914,-11.47984 11.09502,-19.69731 25.54709,-21.87771 -21.956,1.21726 -31.20791,13.03728 -36.90726,29.33286 -2.48943,7.12726 -4.32921,15.14389 -6.24691,23.50479 -3.46607,15.11521 -7.19651,31.36569 -15.57299,45.87022 -7.99657,13.85288 -20.175199,25.97209 -32.102607,37.8413 -6.176409,6.14363 -12.285608,12.21758 -17.712819,18.45138 -17.333732,19.89403 -27.418459,41.19385 -9.087158,70.70292 l 0,0 z M 181.95979,742.36134 c -28.37873,-0.29509 -41.07747,-16.29147 -48.48671,-37.85769 -3.77349,-10.99623 -6.14936,-23.42283 -8.5396,-35.94779 -3.55749,-18.6399 -7.15802,-37.48473 -15.46565,-51.87451 -8.89327,-15.4062 -23.558076,-26.38603 -36.985525,-36.44781 -8.776492,-6.57396 -17.030836,-12.76267 -22.900259,-19.57435 -7.916629,-9.1888 -11.491752,-19.41452 -6.203889,-32.9805 -9.956036,19.64814 -4.346425,33.58708 6.930961,46.67763 4.941951,5.74198 10.951966,11.3323 17.226318,17.16445 11.352408,10.56178 23.558078,21.90639 31.934565,36.41912 l 0.0031,0 c 7.998201,13.85697 12.404071,30.46402 16.717321,46.7268 2.23489,8.42648 4.44888,16.7628 7.12438,24.56631 8.72364,25.41879 22.46952,45.05463 58.64481,43.12834 l 0,0 z m 320.70259,34.43955 c -14.45534,24.5827 -34.69775,27.60739 -57.12875,23.2302 -11.40198,-2.22547 -23.36135,-6.38953 -35.40679,-10.57818 -17.91447,-6.23379 -36.02567,-12.53726 -52.65322,-12.53726 -17.79152,0 -34.63218,7.20514 -50.05888,13.80369 -10.07816,4.31161 -19.56205,8.3691 -28.40248,10.04538 -12.26676,2.32755 -23.1802,0.1187 -32.45628,-12.1438 12.16387,19.5174 27.29793,21.77485 44.62877,18.49278 7.42235,-1.40702 15.27915,-3.8247 23.47202,-6.33669 14.83651,-4.55341 30.77551,-9.45519 47.51371,-9.45519 15.99638,0 32.57884,4.48784 48.81704,8.88551 8.43057,2.27793 16.76689,4.53702 24.8409,6.11904 26.45981,5.16779 50.40724,3.06075 66.83396,-29.52548 l 0,0 z M 693.61481,518.04726 c 12.86104,24.0376 5.36082,42.63242 -9.31995,59.49358 -7.62728,8.76256 -17.21363,17.04149 -26.86556,25.37781 -14.36108,12.3979 -28.88201,24.93927 -37.18963,39.32495 -8.88961,15.39799 -11.07411,33.59526 -13.07007,50.2556 -1.30741,10.87736 -2.53695,21.11948 -5.50426,29.62383 -4.25013,12.1684 -11.96757,20.68094 -28.26724,22.20558 24.04991,-0.31149 33.85347,-12.4471 39.79627,-29.43941 2.48778,-7.12315 4.328,-15.13979 6.24609,-23.5007 3.46732,-15.1193 7.20104,-31.36978 15.57424,-45.87841 7.99614,-13.84878 20.17683,-25.968 32.10341,-37.83311 6.17233,-6.14362 12.28316,-12.22577 17.71365,-18.45136 17.42675,-20.0047 27.52132,-41.43156 8.78305,-71.17836 l 0,0 z M 565.88969,221.78844 c 26.01717,1.49595 37.99703,17.04969 45.1038,37.74294 3.7747,10.99212 6.15182,23.42692 8.54124,35.94779 3.55749,18.6399 7.15595,37.48473 15.46358,51.8704 8.8978,15.41029 23.55808,26.39013 36.9888,36.45191 8.77076,6.57397 17.0292,12.76267 22.89823,19.57435 8.43878,9.79128 11.94298,20.76702 5.04113,35.70599 11.75446,-20.98423 6.14773,-35.52975 -5.59853,-49.1736 l 0,-0.003 c -4.92637,-5.72149 -10.94704,-11.32412 -17.22592,-17.16035 -11.3569,-10.56179 -23.56218,-21.91459 -31.93948,-36.42733 -8.00433,-13.85696 -12.40611,-30.45991 -16.71771,-46.7186 -2.23367,-8.42648 -4.44685,-16.76279 -7.12316,-24.5622 -8.46337,-24.65648 -21.64819,-43.86198 -55.43198,-43.2472 l 0,0 z M 243.78786,184.04961 c 14.29344,-21.65639 33.7178,-24.22613 55.14303,-20.04978 11.40197,2.22548 23.36135,6.38953 35.40679,10.57818 17.91037,6.2379 36.02567,12.54136 52.65322,12.54136 17.79151,0 34.63628,-7.20513 50.05887,-13.80369 10.07817,-4.3116 19.56206,-8.365 28.40249,-10.04128 12.32823,-2.34434 23.28758,-0.10656 32.59524,12.31594 -12.16021,-19.46779 -27.28771,-21.72196 -44.59971,-18.43908 -7.42644,1.40169 -15.28323,3.81569 -23.47611,6.33216 -14.8283,4.56162 -30.7714,9.4552 -47.5096,9.4552 -15.99229,0 -32.57885,-4.49194 -48.81704,-8.88551 -8.43059,-2.27876 -16.76689,-4.53702 -24.84091,-6.11083 -25.50485,-4.98786 -48.66866,-3.20093 -65.01627,26.10733 l 0,0 z M 47.385654,443.86065 c -16.608694,-28.90661 -6.298123,-50.13674 11.030657,-70.02668 5.43213,-6.2379 11.586018,-12.36102 17.805876,-18.55384 11.839272,-11.77903 23.933073,-23.80809 31.809543,-37.44783 8.23385,-14.26682 11.93068,-30.37796 15.3681,-45.36612 1.92586,-8.40189 3.77509,-16.45131 6.30592,-23.69333 5.5059,-15.74227 14.13525,-27.47622 33.40428,-30.14024 -35.15066,1.84841 -43.56402,27.10736 -53.19546,56.07545 -4.38495,13.19302 -9.02443,27.14835 -16.491481,40.07906 l 0,0.003 c -7.306769,12.65201 -17.104604,23.91874 -26.608166,34.8453 -24.187609,27.8164 -46.459978,53.43602 -19.429269,94.22412 l 0,0 z M 178.7228,744.37369 c -34.82443,0.72133 -48.41335,-19.09483 -57.1468,-44.54641 -2.68942,-7.8363 -4.91325,-16.22179 -7.16086,-24.69336 -4.28292,-16.14802 -8.65643,-32.63212 -16.531653,-46.27188 l 0,-0.003 C 89.652913,614.60014 77.544753,603.34161 66.281726,592.86589 59.959799,586.98457 53.898143,581.34915 48.912749,575.55799 38.056687,562.95106 32.20979,549.63918 39.462466,531.67144 c -15.984084,31.37798 1.689001,51.29661 21.966656,74.12926 9.228144,10.39376 18.989092,21.38179 26.457738,34.3207 l 0.0031,0 c 7.311689,12.66431 12.168822,26.77949 16.879192,40.46842 12.1639,35.34122 23.35644,67.85039 73.95347,63.78469 l 0,0 z m 323.96007,36.43142 c -16.78328,30.62347 -40.7676,32.4932 -67.20692,27.32376 -8.14779,-1.59759 -16.50869,-3.85667 -24.96386,-6.14772 -16.11933,-4.35997 -32.58294,-8.81501 -48.34161,-8.81501 -16.48,0 -32.27555,4.8485 -46.97271,9.36585 -8.24205,2.53247 -16.14803,4.96287 -23.67694,6.38461 -16.74804,3.17633 -31.51035,1.42179 -43.60907,-14.91847 19.25506,30.97633 45.66241,25.56633 76.00348,19.33214 13.62336,-2.79844 28.02953,-5.75836 42.9521,-5.75836 14.61109,0 29.26727,2.85293 43.489,5.61942 36.747,7.15146 70.55539,13.72499 92.32653,-32.38622 l 0,0 z M 697.18459,520.29323 c 16.70132,28.96398 6.38953,50.21871 -10.96754,70.13734 -5.43049,6.2338 -11.58232,12.35693 -17.80381,18.54974 -11.84052,11.77903 -23.93105,23.81218 -31.80833,37.45603 -8.23795,14.25862 -11.93069,30.36976 -15.37341,45.36201 -1.92219,8.3978 -3.7706,16.44721 -6.30346,23.68923 -5.78297,16.54968 -15.02505,28.66889 -36.43962,30.48452 37.86178,-0.44674 46.48089,-26.36144 56.39923,-56.1902 4.38537,-13.19302 9.02486,-27.14425 16.49229,-40.07497 l 0,-0.006 c 7.3035,-12.65202 17.10297,-23.91875 26.60736,-34.84941 24.25481,-27.89018 46.57926,-53.57537 19.19729,-94.5561 l 0,0 z M 569.69717,219.89084 c 32.04195,0.75002 44.95216,20.03748 53.36225,44.54641 2.68861,7.83631 4.91409,16.2218 7.16006,24.69747 4.28701,16.14392 8.66009,32.63622 16.52918,46.27187 8.23385,14.25863 20.34077,25.51716 31.6034,35.99288 6.31167,5.86903 12.36513,11.50034 17.36527,17.3038 l 0.003,0 c 11.46345,13.31597 17.34067,27.41475 8.1068,46.94812 18.55383,-33.02558 0.42624,-53.44832 -20.45553,-76.96131 -9.22978,-10.38966 -18.98828,-21.37359 -26.45982,-34.3207 l 0,0.003 c -7.31168,-12.66841 -12.16839,-26.77949 -16.88164,-40.47252 -11.86511,-34.48464 -22.81626,-66.26428 -70.33407,-64.01011 l 0,0 z M 243.9641,179.96343 c 16.66279,-27.26721 39.7942,-28.78775 65.1925,-23.82859 8.14778,1.59431 16.51279,3.85667 24.96386,6.14363 16.12344,4.36488 32.58704,8.81994 48.34162,8.81994 16.4841,0 32.27554,-4.85261 46.97271,-9.36504 8.24205,-2.53286 16.14802,-4.96326 23.67283,-6.38544 16.82838,-3.19272 31.64439,-1.40988 43.76771,15.1275 -19.25058,-30.95994 -45.653,-25.54584 -75.98998,-19.31205 -13.62336,2.79516 -28.02542,5.75837 -42.9521,5.75837 -14.607,0 -29.26727,-2.85664 -43.48491,-5.61902 -35.73057,-6.95513 -68.67129,-13.34876 -90.48424,28.6607 l 0,0 z m -17.68456,49.15719 c 19.29484,-96.97011 61.54446,-88.76494 108.51308,-79.62532 14.12746,2.75008 28.68938,5.58213 43.14063,5.58213 14.76273,0 29.06234,-2.93452 42.58734,-5.71738 43.79228,-8.99207 79.58434,-16.33246 98.03161,79.77697 93.62985,-31.77144 107.65076,8.9224 123.2168,54.16556 4.68457,13.61515 9.51668,27.65246 16.73001,40.14874 l 0,0.006 c 7.37317,12.76678 17.07428,23.69333 26.24669,34.01331 29.68531,33.43133 53.93603,60.76412 -20.07438,124.79468 74.33419,65.19047 46.09974,97.67916 14.70126,133.78679 -9.4429,10.85687 -19.18089,22.05804 -26.40652,34.5666 l 0,-0.003 c -7.37317,12.77907 -11.98397,26.63194 -16.34066,39.73889 -14.10287,42.4275 -25.6483,77.09246 -118.10599,45.00955 -19.29155,96.9783 -61.54281,88.76865 -108.51143,79.63352 -14.12747,-2.75047 -28.68529,-5.58581 -43.14064,-5.58581 -14.76273,0 -29.06234,2.9378 -42.58733,5.71696 -43.7923,8.9925 -79.58271,16.33328 -98.03244,-79.77697 -93.63108,31.77144 -107.6475,-8.9224 -123.2172,-54.16966 C 98.347833,667.5712 93.51572,653.538 86.300356,641.03352 l 0,0 C 78.928005,628.26285 69.227716,617.34039 60.057343,607.01631 30.368752,573.58498 6.1172069,546.2563 80.130071,482.2257 5.7971323,417.03034 34.030336,384.54576 65.426783,348.43403 c 9.445758,-10.85688 19.184569,-22.05394 26.40653,-34.56251 l 0.0031,0 c 7.373989,-12.77907 11.9815,-26.63194 16.33613,-39.73889 14.10779,-42.4234 25.64749,-77.09246 118.10682,-45.01364 l 0,0"
       inkscape:export-filename="C:\dev\potrace-1.11.win64\ring_shell.png"
       inkscape:export-xdpi="90"
       inkscape:export-ydpi="90" />
  </g>
</svg>
