<?xml version="1.0" encoding="UTF-8" standalone="no"?>
<svg
   xmlns:dc="http://purl.org/dc/elements/1.1/"
   xmlns:cc="http://creativecommons.org/ns#"
   xmlns:rdf="http://www.w3.org/1999/02/22-rdf-syntax-ns#"
   xmlns:svg="http://www.w3.org/2000/svg"
   xmlns="http://www.w3.org/2000/svg"
   xmlns:sodipodi="http://sodipodi.sourceforge.net/DTD/sodipodi-0.dtd"
   xmlns:inkscape="http://www.inkscape.org/namespaces/inkscape"
   version="1.0"
   width="744.000000pt"
   height="1052.000000pt"
   viewBox="0 0 744.000000 1052.000000"
   preserveAspectRatio="xMidYMid meet"
   id="svg2"
   inkscape:version="0.48.4 r9939"
   sodipodi:docname="ring_star.svg">
  <defs
     id="defs12" />
  <sodipodi:namedview
     pagecolor="#ffffff"
     bordercolor="#666666"
     borderopacity="1"
     objecttolerance="10"
     gridtolerance="10"
     guidetolerance="10"
     inkscape:pageopacity="0"
     inkscape:pageshadow="2"
     inkscape:window-width="640"
     inkscape:window-height="480"
     id="namedview10"
     showgrid="false"
     inkscape:zoom="0.71787072"
     inkscape:cx="485.53192"
     inkscape:cy="586.7412"
     inkscape:current-layer="svg2" />
  <metadata
     id="metadata4">
Created by potrace 1.11, written by Peter Selinger 2001-2013
<rdf:RDF>
  <cc:Work
     rdf:about="">
    <dc:format>image/svg+xml</dc:format>
    <dc:type
       rdf:resource="http://purl.org/dc/dcmitype/StillImage" />
    <dc:title></dc:title>
  </cc:Work>
</rdf:RDF>
</metadata>
  <g
     transform="translate(0.000000,1052.000000) scale(0.100000,-0.100000)"
     fill="#000000"
     stroke="none"
     id="g6"
     style="fill:none;stroke:#000000;stroke-width:8">
    <path
       d="M2236 8619 c-33 -39 -83 -104 -111 -143 -55 -77 -160 -254 -154 -260 2 -2 36 0 74 5 39 4 110 8 158 8 l88 1 -25 -42 -25 -43 -103 -7 c-57 -4 -130 -13 -163 -20 l-60 -13 -37 -105 c-21 -58 -45 -130 -53 -161 -15 -54 -17 -56 -70 -78 -98 -41 -254 -153 -345 -247 -94 -98 -158 -189 -215 -304 l-37 -76 -67 -17 c-123 -32 -243 -81 -251 -102 -7 -19 -24 -141 -36 -256 -5 -52 -8 -57 -43 -77 -21 -12 -42 -22 -46 -22 -8 0 -3 110 11 254 l7 69 -59 -33 c-109 -61 -258 -164 -341 -234 l-82 -71 5 -60 c12 -138 37 -287 65 -395 17 -63 32 -116 33 -118 2 -1 39 41 83 95 82 100 130 150 136 142 2 -2 9 -24 15 -49 l11 -44 -53 -61 c-67 -77 -146 -185 -146 -201 0 -7 33 -78 74 -157 72 -143 73 -145 59 -178 -30 -70 -63 -218 -71 -316 -15 -172 11 -365 68 -516 l19 -50 -39 -67 c-41 -70 -110 -216 -110 -232 0 -14 108 -158 156 -208 l43 -45 -11 -45 c-6 -25 -13 -47 -15 -49 -6 -7 -52 40 -131 134 -41 50 -78 94 -82 98 -14 16 -85 -299 -95 -418 -3 -33 -7 -81 -10 -106 l-5 -47 82 -69 c132 -111 380 -274 395 -259 3 3 1 57 -6 119 -12 121 -14 197 -6 197 3 0 23 -11 44 -24 41 -26 51 -52 51 -135 0 -41 25 -211 32 -216 8 -7 183 -67 246 -85 l72 -21 38 -77 c115 -234 294 -413 536 -537 l79 -40 23 -80 c40 -145 77 -234 99 -239 23 -6 160 -23 248 -32 54 -5 59 -8 82 -45 14 -21 25 -41 25 -44 0 -8 -76 -6 -197 6 -62 7 -116 9 -119 6 -15 -14 147 -262 254 -389 l74 -87 66 5 c125 10 277 35 392 66 63 16 116 31 118 32 1 2 -25 24 -59 51 -74 58 -179 154 -179 164 0 4 21 13 47 18 l48 11 45 -42 c55 -52 195 -156 209 -156 16 0 171 73 239 113 l61 36 50 -20 c154 -58 345 -84 514 -68 98 9 247 43 318 71 32 14 37 12 177 -59 79 -40 150 -73 158 -73 18 0 105 63 195 141 l65 57 47 -11 c26 -6 47 -13 47 -17 0 -10 -92 -95 -172 -159 -38 -30 -67 -55 -65 -57 7 -7 206 -57 278 -70 84 -15 106 -18 230 -28 l66 -6 65 77 c114 136 278 386 264 401 -3 3 -57 0 -119 -7 -123 -12 -197 -14 -197 -5 0 3 10 23 22 44 22 38 25 39 88 45 76 6 216 24 246 31 17 4 30 32 69 152 26 81 49 153 51 160 2 7 32 26 67 42 222 101 432 309 551 547 l36 72 72 21 c40 12 112 36 160 53 l87 31 11 60 c6 34 14 102 17 151 7 105 11 116 57 143 l34 20 4 -46 c3 -26 0 -95 -5 -155 -6 -59 -8 -110 -4 -113 14 -15 261 146 388 253 l86 73 -4 57 c-8 116 -35 281 -65 398 -17 66 -31 121 -33 122 -1 2 -26 -27 -56 -65 -66 -82 -149 -172 -159 -172 -4 0 -13 21 -19 46 l-12 46 43 47 c51 54 158 197 158 210 0 13 -69 156 -112 233 l-38 67 25 65 c85 226 87 539 5 774 l-29 83 35 59 c34 59 114 226 114 239 0 10 -98 140 -152 203 l-47 54 12 46 12 47 41 -37 c23 -20 72 -74 109 -120 37 -46 69 -82 70 -80 2 2 14 46 28 98 32 121 54 244 62 340 3 41 8 89 10 105 5 27 -3 36 -75 97 -84 72 -246 184 -342 237 l-58 32 0 -33 c0 -18 4 -71 10 -116 5 -46 7 -104 3 -128 l-6 -43 -27 14 c-52 27 -60 42 -60 113 0 71 -25 231 -37 243 -12 10 -146 58 -234 83 l-77 21 -50 97 c-95 183 -230 333 -401 446 -50 33 -116 70 -146 82 l-55 22 -20 72 c-12 39 -36 112 -53 161 l-32 90 -60 13 c-33 7 -107 16 -163 20 l-104 7 -25 43 -25 42 88 -1 c49 0 121 -4 159 -8 39 -5 72 -7 74 -5 5 5 -86 160 -146 248 -30 43 -82 112 -116 153 l-62 73 -100 -5 c-120 -6 -236 -26 -380 -63 l-107 -28 78 -66 c44 -37 98 -86 122 -111 l43 -44 -46 -12 -47 -12 -52 46 c-28 25 -86 70 -129 101 l-77 56 -83 -39 c-45 -21 -112 -55 -148 -76 l-67 -37 -88 29 c-241 81 -508 81 -744 1 l-85 -29 -151 76 -151 76 -79 -56 c-43 -31 -102 -77 -130 -102 l-52 -46 -46 12 c-25 6 -46 15 -46 19 0 10 67 71 158 144 39 32 72 62 72 66 0 8 -163 51 -280 74 -41 9 -124 18 -185 21 l-110 6 -59 -72z m232 -125 c23 -7 23 -7 -14 -45 -30 -31 -45 -39 -74 -39 -59 0 -67 12 -34 54 30 37 63 45 122 30z m2685 -31 c31 -42 24 -53 -33 -53 -29 0 -44 8 -74 39 -43 44 -39 48 39 49 35 1 44 -4 68 -35z m-2103 -143 c22 -11 40 -24 40 -28 0 -4 -16 -18 -35 -31 -35 -24 -35 -24 -82 -6 l-47 18 40 33 c21 19 40 34 42 34 1 0 21 -9 42 -20z m1483 -14 l39 -33 -47 -17 -46 -18 -40 28 -41 28 44 22 c24 13 45 23 48 23 3 0 22 -15 43 -33z m-673 -6 c47 -6 103 -16 124 -21 l39 -11 -49 -40 c-27 -23 -89 -81 -137 -131 l-88 -89 -77 79 c-42 44 -103 103 -136 131 l-58 51 39 10 c102 28 226 35 343 21z m-1276 -110 c4 -5 -3 -24 -18 -43 -25 -32 -29 -34 -67 -27 -22 4 -42 9 -44 12 -3 2 7 21 21 42 24 35 28 37 62 31 21 -4 41 -10 46 -15z m2440 -17 c14 -20 24 -39 21 -41 -2 -3 -23 -8 -45 -12 -38 -7 -43 -5 -65 25 -32 41 -31 53 3 58 56 8 62 6 86 -30z m-1669 -47 c97 -73 251 -229 327 -332 34 -46 65 -84 68 -84 3 0 30 35 60 76 114 157 384 404 427 390 10 -4 28 -14 41 -24 l24 -18 -79 -59 c-157 -117 -342 -325 -446 -500 l-28 -48 -31 54 c-86 150 -249 339 -388 449 -45 36 -94 74 -107 86 l-26 20 34 22 c19 12 38 22 43 22 5 0 41 -24 81 -54z m-521 -11 c39 -16 39 -22 3 -62 -24 -27 -24 -27 -71 -8 l-36 15 27 35 c32 40 29 40 77 20z m1904 -15 c30 -40 28 -45 -17 -60 -38 -12 -40 -12 -65 16 -33 38 -32 42 7 59 45 20 50 19 75 -15z m-1579 -170 c256 -190 476 -506 553 -793 11 -42 15 -48 37 -45 21 3 28 16 56 100 64 190 168 369 307 528 83 95 145 150 263 234 l79 58 28 -34 c15 -18 28 -35 28 -38 0 -3 -24 -20 -54 -39 -187 -117 -378 -334 -490 -557 -138 -275 -185 -629 -123 -926 l15 -68 -110 0 c-98 0 -109 2 -104 16 34 90 47 412 22 566 -34 206 -122 422 -242 595 -83 119 -243 280 -349 352 -44 30 -82 56 -84 57 -2 2 8 19 23 39 32 41 27 43 145 -45z m-1014 3 c-4 -10 -12 -30 -17 -45 -5 -16 -15 -28 -21 -28 -7 0 -29 -3 -50 -6 l-37 -7 15 42 c21 60 22 61 72 61 39 0 44 -2 38 -17z m285 7 c12 -8 12 -13 -3 -44 -14 -31 -22 -36 -49 -36 -53 0 -61 10 -43 53 13 32 20 37 48 37 17 0 39 -4 47 -10z m2733 -27 c17 -44 10 -53 -41 -53 -27 0 -35 5 -49 36 -20 41 -10 54 43 54 27 0 34 -5 47 -37z m299 -15 c19 -52 19 -52 -44 -42 -31 6 -39 12 -52 45 -9 22 -16 42 -16 45 0 3 21 4 47 2 47 -3 48 -4 65 -50z m-2753 -33 c2 -3 -3 -21 -13 -41 -12 -25 -21 -34 -32 -30 -9 3 -27 9 -40 12 -28 7 -29 13 -7 58 l16 35 36 -15 c19 -8 37 -17 40 -19z m2191 -42 c0 -10 -49 -33 -71 -33 -9 0 -39 53 -39 68 0 6 17 17 38 25 l37 15 17 -31 c9 -18 17 -37 18 -44z m-1902 -118 c300 -225 478 -561 498 -935 6 -112 -6 -263 -27 -342 l-9 -36 -41 16 c-39 15 -40 17 -34 51 62 326 4 627 -173 896 -63 95 -191 226 -284 292 -43 30 -78 59 -78 64 0 17 30 69 40 69 5 0 54 -34 108 -75z m1636 39 c9 -21 13 -40 9 -44 -4 -4 -42 -32 -83 -62 -346 -254 -528 -703 -455 -1123 9 -49 12 -91 8 -95 -4 -4 -23 -12 -40 -18 -32 -11 -33 -10 -42 26 -36 135 -38 372 -6 527 65 313 250 594 509 776 38 27 72 49 76 49 3 0 14 -16 24 -36z m-2288 -90 c-53 -208 -44 -500 20 -729 31 -110 123 -305 191 -406 96 -141 247 -292 381 -381 34 -23 62 -47 62 -53 0 -6 -32 -42 -71 -80 -56 -56 -72 -67 -79 -55 -66 115 -215 282 -334 375 -206 161 -414 252 -676 296 -113 19 -367 17 -474 -4 -48 -10 -90 -17 -91 -15 -2 2 -5 21 -7 43 l-3 40 49 12 c67 17 220 33 308 33 221 0 469 -59 673 -159 89 -44 102 -48 116 -35 15 14 13 23 -32 112 -99 196 -148 395 -156 627 -5 138 12 334 33 390 4 10 21 15 51 15 43 0 45 -1 39 -26z m2898 9 c21 -72 31 -180 30 -343 0 -153 -4 -203 -23 -290 -30 -143 -72 -265 -132 -384 -42 -83 -48 -102 -36 -113 11 -11 32 -5 128 41 136 64 238 98 376 126 185 37 418 37 592 -1 l51 -11 0 -44 c0 -24 -3 -44 -7 -44 -5 0 -43 7 -86 15 -282 54 -605 11 -876 -116 -206 -96 -442 -296 -561 -476 -30 -45 -57 -82 -60 -83 -3 0 -38 33 -79 74 l-73 73 80 56 c314 220 530 554 599 927 24 129 24 413 0 520 -9 41 -17 78 -17 83 0 4 20 7 44 7 34 0 46 -4 50 -17z m-3192 -75 c-31 -182 -14 -508 34 -677 8 -29 13 -56 10 -59 -3 -3 -34 2 -68 12 -171 45 -476 60 -658 32 -47 -7 -86 -12 -88 -11 -2 1 2 23 8 48 l12 45 87 11 c119 15 376 14 486 -3 50 -8 92 -12 94 -10 2 2 -2 50 -9 106 -17 129 -17 366 -1 479 l13 87 41 10 c23 5 45 10 48 11 3 0 -1 -36 -9 -81z m3441 67 l34 -7 13 -91 c16 -119 15 -365 -3 -490 l-14 -97 31 5 c123 20 179 25 315 25 84 0 193 -5 242 -12 l88 -11 10 -46 c5 -25 9 -47 7 -48 -1 -1 -42 4 -91 12 -178 29 -492 14 -658 -32 -32 -9 -60 -13 -63 -10 -3 3 1 29 9 59 56 194 66 585 20 742 -4 14 -1 18 10 13 9 -3 31 -9 50 -12z m-2889 -108 c-62 -293 8 -624 188 -885 67 -97 205 -235 290 -290 l66 -43 -16 -40 c-8 -21 -18 -39 -22 -39 -24 0 -150 99 -241 190 -224 222 -339 466 -369 783 -11 110 -2 259 20 364 l11 51 43 -14 43 -15 -13 -62z m2381 1 c22 -118 22 -322 0 -443 -43 -239 -158 -465 -329 -643 -74 -77 -190 -172 -243 -201 -20 -10 -24 -8 -42 27 l-20 39 71 49 c152 104 299 279 383 457 106 223 139 509 86 740 -8 34 -7 39 12 46 12 5 29 11 37 14 8 3 18 6 21 6 4 1 15 -41 24 -91z m-3223 -178 l-4 -185 -184 -1 c-183 -1 -183 -1 -172 20 28 55 102 148 165 206 59 57 192 156 198 148 1 -2 0 -86 -3 -188z m4088 112 c74 -58 138 -123 189 -192 87 -117 98 -107 -114 -106 l-185 1 0 126 c0 69 -3 155 -7 189 l-6 64 39 -24 c21 -13 59 -39 84 -58z m-2925 -79 c207 -203 306 -459 292 -754 -3 -66 -8 -123 -11 -126 -9 -9 -97 61 -162 129 -148 154 -236 341 -264 558 -12 88 -8 248 6 285 9 22 51 -6 139 -92z m1792 70 c11 -57 8 -260 -6 -328 -39 -192 -120 -348 -253 -490 -65 -70 -155 -141 -165 -131 -4 3 -8 68 -11 144 -3 111 0 155 16 232 47 220 158 406 330 552 37 32 70 58 74 58 4 0 11 -17 15 -37z m-3624 -595 c-5 -45 -8 -48 -49 -64 -25 -9 -46 -15 -47 -13 -2 2 -2 25 1 50 4 45 5 46 50 61 26 8 48 14 49 14 0 -1 -1 -22 -4 -48z m5408 -31 c5 -46 4 -48 -18 -43 -52 14 -73 26 -73 45 0 10 -3 33 -6 50 l-7 32 49 -18 c48 -18 49 -20 55 -66z m-5968 -264 c6 -46 5 -49 -36 -88 l-42 -40 -6 55 c-6 54 -5 56 30 87 20 18 39 32 42 33 4 0 9 -21 12 -47z m556 -25 c1 -11 -14 -25 -39 -38 -44 -22 -45 -22 -53 39 -4 31 -1 35 37 52 l41 18 6 -27 c4 -15 7 -35 8 -44z m5407 42 c7 0 4 -86 -2 -93 -5 -4 -60 15 -83 30 -2 1 0 22 3 47 l7 46 36 -15 c19 -8 37 -15 39 -15z m530 -8 c29 -23 31 -29 26 -71 -2 -25 -7 -49 -11 -53 -4 -5 -24 9 -44 30 -35 36 -37 41 -31 85 7 50 8 50 60 9z m-6197 -164 c1 -21 -8 -33 -36 -53 l-38 -25 -6 27 c-14 59 -10 72 29 98 l37 25 7 -22 c3 -13 6 -35 7 -50z m5923 25 c7 -8 7 -29 2 -58 l-9 -45 -37 25 c-39 26 -46 49 -32 102 6 22 7 22 36 5 16 -9 34 -23 40 -29z m-4916 -18 c343 -60 661 -273 847 -567 l17 -28 -40 -20 -39 -20 -42 61 c-168 248 -459 433 -770 489 -92 17 -309 14 -397 -4 -40 -9 -75 -16 -76 -16 -5 0 -27 82 -24 86 2 2 40 10 84 18 108 19 330 20 440 1z m4260 0 c48 -9 89 -17 91 -19 4 -4 -18 -69 -26 -78 -3 -3 -37 0 -76 8 -97 20 -312 20 -417 0 -238 -45 -454 -162 -623 -338 -50 -51 -107 -119 -128 -150 -21 -32 -40 -58 -42 -58 -2 0 -20 8 -40 17 -22 11 -34 22 -30 31 14 38 110 157 190 237 183 183 414 304 664 349 105 19 328 20 437 1z m-4952 -109 c3 -13 9 -31 12 -39 4 -11 -6 -22 -34 -36 l-40 -20 -16 41 c-9 22 -16 42 -14 43 11 9 65 34 74 35 7 0 15 -11 18 -24z m5269 8 c18 -9 33 -17 34 -18 2 -2 -5 -21 -13 -44 l-17 -41 -38 20 c-22 11 -39 21 -39 23 0 10 31 76 36 76 3 0 19 -7 37 -16z m-3052 -105 c19 -7 35 -13 37 -14 7 -6 -33 -75 -43 -75 -15 0 -75 21 -75 26 0 10 35 74 40 74 4 0 22 -5 41 -11z m842 -26 c15 -38 15 -38 -11 -50 -43 -19 -57 -15 -76 23 -9 20 -16 37 -14 38 56 35 84 31 101 -11z m-3298 -30 c16 -38 16 -38 -15 -65 -16 -16 -34 -28 -38 -28 -4 0 -14 18 -24 40 l-16 39 31 25 c18 14 35 25 39 26 4 0 15 -17 23 -37z m5749 12 c29 -23 29 -25 16 -64 -15 -47 -25 -50 -62 -16 -33 28 -32 26 -14 70 18 41 22 42 60 10z m-4854 -26 c222 -41 430 -164 572 -339 l61 -75 -39 -8 c-22 -5 -104 -7 -184 -4 -155 5 -245 25 -374 82 -131 58 -273 170 -362 286 l-44 58 42 5 c24 3 59 8 78 10 49 5 184 -3 250 -15z m4227 5 l42 -6 -44 -58 c-118 -153 -299 -274 -502 -337 -81 -25 -102 -27 -265 -27 -97 -1 -180 2 -184 6 -4 4 19 39 50 77 165 202 409 329 681 355 43 4 155 -1 222 -10z m-2087 -49 c11 -27 40 -83 63 -123 41 -73 41 -73 77 -67 19 4 81 22 136 41 l102 34 116 -117 117 -116 -35 -111 c-56 -174 -58 -155 26 -203 40 -22 96 -51 124 -63 l52 -21 0 -168 0 -168 -124 -63 c-68 -35 -124 -68 -124 -73 0 -15 38 -145 62 -209 l20 -58 -94 -92 c-53 -51 -104 -105 -115 -120 l-21 -28 -60 25 c-34 14 -96 34 -138 46 -63 17 -78 19 -86 7 -4 -7 -34 -65 -66 -128 l-57 -115 -165 0 -165 0 -57 115 c-32 63 -62 121 -66 128 -7 11 -27 8 -99 -12 -50 -14 -112 -35 -138 -46 -26 -11 -49 -19 -49 -18 -17 29 -117 135 -167 178 l-66 57 20 49 c36 91 67 217 57 229 -6 7 -63 39 -128 71 -64 32 -117 58 -118 59 0 0 2 37 6 82 4 46 4 119 1 163 l-6 81 110 54 c162 81 152 67 121 173 -14 49 -34 108 -44 132 l-18 43 120 119 119 118 96 -34 c53 -18 114 -37 136 -40 l40 -7 42 73 c22 40 51 96 62 123 l22 51 169 0 169 0 21 -51z m-2650 -82 c88 -131 247 -273 401 -357 213 -117 510 -165 754 -121 43 8 80 13 81 12 1 -1 9 -19 18 -40 11 -29 12 -39 3 -42 -107 -34 -354 -44 -498 -20 -271 45 -494 158 -687 348 -77 76 -192 222 -192 244 0 8 55 41 70 42 3 0 25 -30 50 -66z m5010 52 c17 -9 30 -19 30 -24 0 -21 -89 -139 -163 -217 -240 -254 -564 -394 -911 -394 -97 0 -292 23 -305 35 -2 3 1 23 8 46 11 35 16 40 34 35 146 -36 396 -33 550 7 267 70 517 242 661 455 27 39 53 72 58 72 5 0 22 -7 38 -15z m-5606 -116 c16 -41 16 -41 -13 -81 l-30 -41 -22 46 -22 45 28 36 c15 20 31 36 35 36 4 0 15 -18 24 -41z m6170 6 l27 -35 -24 -46 -23 -46 -29 41 -28 41 18 40 c10 22 21 40 25 40 4 0 20 -16 34 -35z m-5779 -125 c118 -162 316 -332 495 -424 111 -58 295 -120 420 -142 127 -23 364 -23 485 -1 50 9 96 17 103 17 9 0 12 -28 12 -106 0 -105 0 -106 -22 -100 -13 3 -66 13 -118 22 -128 21 -398 14 -520 -15 -194 -45 -391 -133 -541 -242 -109 -80 -282 -257 -339 -347 -25 -39 -50 -71 -56 -71 -5 -1 -22 12 -37 27 l-28 29 40 59 c175 263 477 490 779 586 93 30 102 35 100 56 -3 20 -18 28 -105 57 -225 75 -413 194 -588 369 -66 67 -145 157 -174 200 l-54 79 33 30 c33 29 34 29 47 11 8 -10 38 -53 68 -94z m5470 59 c10 -14 -98 -160 -188 -256 -175 -184 -371 -311 -612 -394 -93 -33 -110 -42 -113 -61 -2 -21 7 -26 96 -55 307 -97 586 -307 781 -587 l41 -60 -27 -28 c-26 -28 -53 -37 -53 -18 0 5 -34 54 -75 109 -217 288 -550 491 -903 552 -178 30 -421 23 -574 -16 l-28 -7 0 106 c0 78 3 106 13 106 6 0 53 -8 102 -17 121 -22 358 -21 485 1 115 21 302 82 397 129 193 98 436 308 546 475 l48 72 29 -20 c16 -12 32 -25 35 -31z m-5663 -259 c120 -155 307 -322 468 -416 l62 -36 -65 -37 c-168 -98 -367 -278 -485 -438 l-60 -82 -25 42 -25 42 29 40 c94 129 241 276 381 382 l69 51 -83 63 c-157 119 -411 394 -390 423 5 6 16 24 26 40 10 15 21 24 25 20 4 -5 37 -47 73 -94z m5827 55 l20 -35 -61 -77 c-80 -102 -233 -253 -336 -332 l-83 -62 88 -69 c138 -106 269 -241 384 -395 4 -5 -4 -29 -18 -52 l-25 -42 -57 77 c-135 181 -314 341 -500 448 l-54 31 62 37 c160 94 387 298 495 448 27 37 53 65 57 63 4 -3 16 -21 28 -40z m-3910 -111 c1 -9 -68 -49 -74 -42 -2 2 -10 20 -19 41 l-15 38 42 19 42 19 12 -32 c6 -18 12 -37 12 -43z m1946 59 c19 -9 35 -22 35 -29 0 -11 -17 -58 -26 -72 -2 -3 -63 25 -72 33 -4 3 20 85 24 85 2 0 19 -8 39 -17z m-3896 -377 l80 -80 -77 -72 c-42 -39 -99 -99 -127 -132 -27 -34 -53 -58 -57 -54 -14 14 -38 177 -38 257 0 75 23 246 36 266 3 5 27 -17 53 -49 27 -31 85 -93 130 -136z m5987 76 c8 -48 14 -119 14 -158 0 -74 -25 -243 -38 -256 -4 -4 -36 26 -71 68 -35 41 -92 100 -127 131 l-63 56 124 129 c69 71 125 134 125 141 1 35 24 -35 36 -111z m-4380 -423 c85 -15 89 -19 74 -64 -12 -36 -14 -37 -49 -31 -294 51 -538 19 -775 -102 -162 -83 -341 -238 -431 -374 -21 -32 -41 -58 -45 -58 -4 0 -24 7 -44 15 l-37 16 53 76 c201 290 518 484 873 532 82 12 294 6 381 -10z m3029 -4 c320 -66 602 -249 786 -509 27 -38 49 -73 49 -77 0 -9 -53 -39 -68 -39 -5 0 -26 26 -48 57 -53 79 -183 213 -263 272 -237 176 -548 259 -831 221 -151 -21 -151 -21 -166 22 l-12 36 48 12 c135 33 360 35 505 5z m-2686 -112 c7 -5 -22 -83 -31 -83 -18 0 -68 31 -68 42 0 6 5 26 12 44 l11 32 36 -16 c20 -9 38 -18 40 -19z m1981 -34 c0 -12 -56 -49 -74 -49 -5 0 -26 60 -26 75 0 7 17 19 38 27 36 14 37 14 49 -11 7 -14 12 -33 13 -42z m-2369 -126 c5 -5 -12 -34 -44 -74 -153 -185 -356 -302 -596 -344 -126 -22 -329 -16 -338 10 -5 17 109 145 181 203 130 106 282 176 449 208 79 15 332 13 348 -3z m3073 -12 c107 -28 218 -77 303 -134 117 -79 278 -246 256 -268 -5 -5 -57 -13 -115 -16 -219 -12 -429 46 -613 170 -113 77 -275 251 -243 262 63 21 308 13 412 -14z m-2809 -109 c-83 -131 -232 -286 -356 -369 -146 -99 -332 -175 -499 -204 -106 -18 -347 -16 -439 4 -41 9 -75 18 -77 20 -2 2 2 20 8 41 13 43 -5 41 158 16 264 -40 578 41 816 208 92 65 219 194 280 282 l47 69 39 -20 40 -20 -17 -27z m2245 -9 c94 -140 260 -282 430 -368 202 -102 455 -146 660 -115 163 25 145 27 158 -16 6 -21 10 -39 8 -41 -2 -2 -36 -11 -77 -20 -92 -20 -334 -22 -439 -4 -345 60 -665 274 -851 569 l-21 32 33 15 c19 8 39 14 44 14 6 0 30 -29 55 -66z m-4220 -56 c0 -4 -9 -26 -21 -48 l-20 -40 -30 37 c-16 20 -29 39 -29 41 0 2 10 22 21 45 l21 42 29 -35 c16 -19 29 -38 29 -42z m6160 33 l21 -41 -20 -28 c-38 -53 -45 -54 -65 -5 l-18 44 26 35 c15 19 29 35 31 35 3 0 14 -18 25 -40z m-3897 -153 l34 -42 -80 -55 c-293 -199 -510 -528 -589 -893 -29 -134 -32 -439 -5 -556 9 -41 15 -76 14 -77 -2 -2 -21 -6 -43 -10 l-41 -6 -11 44 c-23 92 -35 244 -29 383 10 225 60 423 156 615 44 87 48 99 34 112 -13 14 -25 10 -111 -33 -200 -100 -389 -147 -627 -156 -121 -4 -187 -1 -273 11 -148 22 -143 19 -136 70 4 22 7 42 8 42 1 1 33 -4 71 -12 39 -8 138 -17 221 -21 169 -7 311 10 464 53 119 34 348 150 451 228 106 80 269 250 329 343 l45 69 42 -33 c23 -19 57 -53 76 -76z m1720 36 c266 -389 711 -623 1180 -623 107 0 269 17 333 36 20 5 22 1 25 -40 3 -30 0 -47 -8 -51 -7 -2 -63 -12 -125 -21 -148 -22 -390 -15 -528 16 -134 29 -263 73 -374 129 -83 41 -97 46 -109 33 -13 -12 -8 -29 39 -126 29 -61 64 -145 78 -187 80 -248 97 -547 45 -791 l-11 -50 -41 6 c-23 4 -42 8 -44 10 -1 1 5 38 14 82 23 112 23 396 -1 524 -35 189 -111 375 -223 544 -81 123 -252 297 -371 378 l-84 56 70 71 c38 39 74 71 79 71 5 0 30 -30 56 -67z m-3779 -137 c-4 -11 -12 -31 -18 -43 l-11 -22 -33 25 c-36 29 -39 42 -17 85 l16 29 35 -26 c27 -21 33 -31 28 -48z m5757 27 c11 -35 11 -37 -22 -64 -38 -31 -41 -29 -58 21 -11 33 -10 36 21 62 18 14 36 24 40 22 3 -2 12 -21 19 -41z m-3301 -17 c0 -2 7 -19 15 -38 l14 -35 -40 -16 -39 -16 -21 41 c-11 22 -19 41 -17 43 14 11 88 29 88 21z m815 -10 l34 -15 -17 -39 -16 -39 -43 14 c-24 8 -43 17 -43 19 0 12 35 74 42 74 5 0 24 -6 43 -14z m-3062 -102 c18 -9 33 -18 35 -19 2 -1 -5 -21 -14 -43 l-16 -41 -39 19 c-21 11 -39 22 -39 24 0 10 31 76 36 76 3 0 19 -7 37 -16z m5313 -27 c13 -36 12 -37 -16 -52 -44 -23 -56 -19 -68 22 -6 20 -10 38 -9 39 15 11 64 33 71 31 5 -2 15 -20 22 -40z m-3310 -2 c7 -19 14 -38 14 -43 0 -5 -30 -29 -67 -55 -69 -46 -201 -172 -249 -237 -112 -151 -179 -299 -220 -485 -22 -101 -23 -350 -1 -444 l14 -63 -33 -14 c-18 -8 -38 -14 -43 -14 -13 0 -30 85 -42 207 -35 375 120 770 402 1026 60 54 193 155 207 157 2 0 10 -16 18 -35z m1337 -12 c159 -106 341 -322 423 -501 38 -82 80 -211 95 -287 28 -143 28 -370 -1 -503 -13 -57 -11 -56 -76 -31 -22 8 -22 9 -7 76 22 96 21 333 -1 438 -21 99 -60 212 -97 286 -82 164 -242 349 -386 447 l-62 42 17 40 c9 22 19 40 20 40 2 0 36 -21 75 -47z m-610 -69 c-30 -171 -35 -217 -35 -339 0 -296 77 -555 239 -799 80 -121 272 -318 381 -389 39 -27 72 -52 72 -56 0 -4 -13 -20 -29 -35 l-29 -28 -76 52 c-256 177 -464 454 -567 755 -33 95 -40 110 -60 110 -19 0 -26 -14 -55 -99 -46 -138 -93 -233 -181 -366 -91 -136 -254 -305 -381 -394 l-83 -58 -30 28 c-16 15 -29 31 -29 35 0 4 33 29 73 56 107 71 299 268 380 390 114 170 190 368 224 577 18 119 13 403 -10 504 -7 34 -11 64 -8 67 10 11 206 0 204 -11z m-3055 -16 c32 -22 33 -25 28 -67 -4 -25 -8 -46 -10 -48 -9 -9 -76 43 -76 58 0 26 12 79 18 79 3 0 21 -10 40 -22z m5956 -9 c3 -17 6 -39 6 -48 0 -16 -68 -67 -77 -57 -3 3 -8 25 -10 49 -5 41 -3 45 28 65 44 28 45 28 53 -9z m-3276 -79 c22 -103 21 -378 -1 -478 -39 -174 -103 -327 -200 -472 -62 -94 -229 -261 -322 -322 l-70 -47 -17 32 c-9 18 -17 37 -18 43 0 6 32 32 70 58 124 85 253 226 334 365 131 226 185 520 141 766 -19 105 -19 102 13 113 48 18 56 11 70 -58z m618 54 c13 -3 24 -9 24 -13 0 -3 -7 -42 -15 -86 -19 -107 -19 -270 1 -386 20 -113 73 -270 121 -359 83 -151 230 -316 358 -401 36 -24 65 -48 65 -53 -1 -6 -9 -26 -18 -44 l-18 -33 -73 52 c-264 185 -448 463 -517 781 -24 112 -29 313 -10 436 17 115 21 126 43 118 8 -4 26 -9 39 -12z m-3594 -87 c37 -31 37 -33 30 -84 l-7 -53 -41 38 c-40 35 -41 39 -37 85 3 26 8 47 12 47 3 0 23 -15 43 -33z m6550 -18 c3 -49 2 -52 -38 -84 l-42 -34 -7 52 c-6 51 -6 53 31 85 20 17 41 32 45 32 4 0 9 -23 11 -51z m-5997 -4 c36 -16 36 -17 30 -58 -4 -23 -8 -43 -10 -45 -1 -2 -21 5 -44 14 -29 11 -40 21 -37 31 3 8 6 28 6 44 0 33 4 35 55 14z m5445 -31 c0 -42 -2 -46 -36 -60 -20 -8 -38 -14 -40 -12 -2 2 -6 22 -10 45 -6 40 -5 43 27 57 54 23 59 21 59 -30z m-2071 -74 c145 -141 244 -324 282 -520 14 -73 17 -276 6 -333 l-8 -37 -58 45 c-158 121 -290 322 -342 520 -23 90 -35 268 -25 369 l8 66 30 -17 c16 -10 65 -52 107 -93z m-1213 33 c9 -85 -2 -260 -20 -334 -53 -214 -178 -411 -344 -542 l-61 -48 -8 38 c-13 63 -7 282 10 359 35 154 98 284 198 409 60 74 183 185 205 185 8 0 15 -25 20 -67z m-2156 -227 c18 -8 26 -22 32 -55 4 -25 6 -46 4 -48 -1 -2 -24 4 -49 13 -43 15 -47 18 -47 49 0 18 -3 41 -7 50 -5 14 -2 16 18 10 13 -4 35 -12 49 -19z m5442 -25 c-4 -49 -4 -50 -50 -65 -25 -9 -47 -14 -49 -13 -2 2 0 25 3 50 6 43 9 47 48 61 22 8 43 15 46 15 3 1 3 -21 2 -48z m-4402 -9 c0 -5 -6 -31 -14 -58 -20 -69 -43 -222 -51 -334 -6 -92 7 -305 25 -382 4 -21 6 -38 3 -38 -2 0 -24 5 -48 11 l-43 11 -11 81 c-23 181 -21 329 5 536 l7 54 -49 -6 c-171 -22 -312 -28 -431 -18 -190 15 -189 15 -202 66 -6 24 -11 46 -11 48 0 2 35 -3 78 -11 126 -24 412 -21 552 6 63 12 129 26 145 31 40 12 45 13 45 3z m3430 -22 c211 -43 430 -49 618 -16 39 7 72 11 72 9 0 -2 -5 -24 -11 -48 -13 -51 -12 -51 -201 -66 -120 -10 -264 -4 -434 17 l-51 6 14 -88 c17 -113 19 -394 3 -501 l-12 -81 -45 -12 c-25 -6 -47 -9 -49 -8 -1 2 2 24 7 48 18 79 27 282 19 406 -8 103 -33 256 -57 343 -5 20 -3 23 11 18 10 -4 62 -16 116 -27z m-3910 -310 l138 0 4 -182 c3 -101 4 -185 2 -187 -8 -10 -148 96 -212 161 -65 64 -162 192 -162 213 0 4 21 5 46 1 26 -3 109 -6 184 -6z m4490 4 c0 -21 -88 -133 -164 -210 -79 -78 -202 -173 -210 -162 -2 1 -1 85 2 185 l4 183 157 3 c86 1 168 4 184 5 15 1 27 -1 27 -4z m-2327 -402 c79 -145 295 -384 450 -497 37 -27 67 -51 67 -54 0 -3 -18 -16 -39 -28 l-39 -22 -68 51 c-91 68 -265 244 -338 341 -32 42 -62 77 -66 77 -4 0 -36 -37 -71 -82 -81 -105 -222 -248 -322 -327 l-78 -61 -40 23 c-21 12 -39 25 -39 28 0 3 30 27 68 54 151 110 385 372 456 513 9 17 20 32 25 32 4 0 20 -22 34 -48z m-1090 -237 c9 -20 17 -38 17 -41 0 -5 -64 -34 -74 -34 -8 0 -36 57 -36 73 0 11 36 30 71 36 3 1 13 -15 22 -34z m2200 5 c7 -6 -18 -80 -28 -80 -18 0 -75 31 -75 40 0 6 7 24 15 40 14 27 17 28 47 18 18 -6 36 -14 41 -18z m-2777 -54 c11 -11 36 -77 32 -82 -2 -1 -24 0 -50 3 -45 5 -47 7 -62 51 -9 25 -16 47 -16 48 0 7 87 -10 96 -20z m3348 -23 c-8 -25 -15 -47 -17 -48 -1 -1 -23 -5 -49 -8 -54 -7 -57 -2 -30 53 14 29 24 36 57 41 22 3 43 7 47 8 3 0 0 -20 -8 -46z m-3037 -6 c9 -21 14 -39 12 -41 -2 -2 -23 -6 -46 -9 -38 -4 -43 -3 -51 22 -6 14 -13 34 -17 43 -5 13 0 18 22 21 53 8 65 3 80 -36z m2750 29 c2 -2 -5 -21 -14 -45 -11 -28 -21 -40 -31 -36 -7 3 -27 5 -43 5 -33 0 -35 7 -14 56 14 35 16 36 57 29 24 -4 44 -8 45 -9z m-1189 -369 c17 -14 29 -28 25 -30 -75 -43 -450 -43 -525 0 -4 2 23 30 60 62 37 32 96 90 132 128 l65 69 105 -101 c58 -56 120 -113 138 -128z m-1143 177 c15 -19 25 -36 24 -37 -2 -2 -21 -10 -41 -19 l-37 -17 -31 37 -30 37 37 17 c50 22 47 23 78 -18z m1898 14 l27 -10 -30 -39 -31 -38 -37 17 c-20 9 -39 18 -41 19 -2 1 9 19 24 38 19 26 32 34 44 30 9 -4 28 -12 44 -17z m-2170 -107 l26 -39 -50 -7 c-28 -4 -51 -5 -53 -4 -20 28 -46 68 -46 72 0 6 34 14 71 16 20 1 32 -8 52 -38z m2475 25 c3 -4 -16 -36 -44 -75 -2 -1 -25 0 -53 4 l-50 7 26 40 c26 39 28 40 72 34 24 -3 46 -8 49 -10z m-1988 -135 l34 -29 -34 -21 c-19 -11 -40 -21 -47 -21 -13 0 -73 48 -73 59 0 8 59 39 75 40 6 0 26 -12 45 -28z m1460 13 c22 -9 40 -20 40 -25 0 -4 -16 -20 -36 -35 l-35 -27 -46 22 -45 22 38 29 c22 16 40 30 41 30 2 0 21 -7 43 -16z m-2066 -196 l35 -43 -52 -7 c-52 -7 -52 -7 -89 35 l-37 42 47 6 c26 3 50 7 54 7 3 1 22 -17 42 -40z m2728 29 c4 -1 -10 -21 -30 -44 -37 -42 -37 -42 -89 -35 l-52 7 34 41 c33 40 36 41 82 37 27 -3 51 -5 55 -6z"
       id="path8"
       style="fill:none;stroke:#000000;stroke-width:8" />
  </g>
</svg>
