<?xml version="1.0" encoding="UTF-8" standalone="no"?>
<svg
   xmlns:dc="http://purl.org/dc/elements/1.1/"
   xmlns:cc="http://creativecommons.org/ns#"
   xmlns:rdf="http://www.w3.org/1999/02/22-rdf-syntax-ns#"
   xmlns:svg="http://www.w3.org/2000/svg"
   xmlns="http://www.w3.org/2000/svg"
   xmlns:sodipodi="http://sodipodi.sourceforge.net/DTD/sodipodi-0.dtd"
   xmlns:inkscape="http://www.inkscape.org/namespaces/inkscape"
   version="1.0"
   width="1052.3622"
   height="744.09448"
   viewBox="0 0 841.88975 595.27559"
   preserveAspectRatio="xMidYMid meet"
   id="svg2"
   inkscape:version="0.48.4 r9939"
   sodipodi:docname="ring_shell.svg">
  <defs
     id="defs12" />
  <sodipodi:namedview
     pagecolor="#ffffff"
     bordercolor="#666666"
     borderopacity="1"
     objecttolerance="10"
     gridtolerance="10"
     guidetolerance="10"
     inkscape:pageopacity="0"
     inkscape:pageshadow="2"
     inkscape:window-width="640"
     inkscape:window-height="480"
     id="namedview10"
     showgrid="false"
     inkscape:zoom="0.55447871"
     inkscape:cx="968.6192"
     inkscape:cy="219.58309"
     inkscape:current-layer="svg2" />
  <metadata
     id="metadata4">
Created by potrace 1.11, written by Peter Selinger 2001-2013
<rdf:RDF>
  <cc:Work
     rdf:about="">
    <dc:format>image/svg+xml</dc:format>
    <dc:type
       rdf:resource="http://purl.org/dc/dcmitype/StillImage" />
  </cc:Work>
</rdf:RDF>
</metadata>
  <g
     transform="matrix(0.08028316,0,0,-0.08028316,138.49585,564.95833)"
     id="g6"
     style="fill:none;stroke:#000000;stroke-width:9.96472991000000090">
    <path
       d="m 2575,6803 c -293,-39 -479,-271 -596,-746 -18,-72 -25,-87 -38,-82 -9,4 -60,19 -114,35 -309,92 -563,98 -721,18 -23,-11 -73,-53 -111,-92 C 906,5847 866,5767 770,5490 650,5143 602,5060 372,4788 188,4569 146,4514 95,4417 -10,4221 -4,4036 114,3827 c 51,-92 175,-245 274,-340 45,-42 82,-78 82,-80 0,-1 -62,-65 -138,-142 -155,-158 -217,-240 -272,-358 -79,-172 -80,-284 -4,-443 39,-82 92,-153 265,-355 223,-258 268,-337 394,-689 144,-404 226,-530 402,-619 173,-88 446,-82 772,19 36,10 66,18 67,17 1,-1 16,-60 34,-131 111,-446 272,-658 530,-697 98,-15 190,-6 440,42 376,72 458,72 833,5 273,-49 360,-59 457,-53 338,24 530,249 655,765 11,48 22,72 29,69 159,-61 399,-109 551,-110 196,-2 287,32 400,147 88,89 128,167 225,446 122,351 165,426 401,705 187,222 220,267 275,369 104,195 97,380 -20,590 -51,91 -177,246 -275,339 -45,41 -81,77 -81,79 0,2 62,66 138,143 155,158 216,239 273,359 74,159 75,293 4,442 -40,82 -93,153 -266,354 -233,271 -269,336 -409,730 -77,220 -134,337 -203,426 -121,152 -259,214 -482,214 -148,0 -296,-25 -474,-80 -36,-10 -66,-18 -67,-17 -1,1 -16,60 -34,131 -130,523 -333,731 -685,701 -44,-3 -172,-24 -285,-46 -376,-72 -465,-72 -837,-4 -285,52 -398,63 -508,48 z m 196,-73 c 53,-5 202,-28 330,-52 217,-39 246,-42 399,-42 146,1 186,5 350,37 102,20 214,41 250,47 79,14 256,15 290,1 21,-8 16,-10 -32,-10 -74,-1 -170,-22 -353,-76 -242,-72 -323,-88 -465,-88 -138,0 -232,16 -480,83 -248,67 -341,82 -467,78 -111,-3 -118,5 -19,21 70,12 87,12 197,1 z m 0,-106 c 46,-8 170,-37 274,-64 269,-69 352,-83 490,-84 150,0 218,12 471,85 228,65 307,82 379,77 l 50,-3 -80,-19 c -44,-10 -173,-56 -287,-102 -265,-107 -342,-127 -478,-128 -134,-1 -196,13 -535,124 -244,79 -382,113 -500,123 -22,2 -1,4 46,5 48,1 124,-5 170,-14 z m -178,-71 c -7,-2 -21,-2 -30,0 -10,3 -4,5 12,5 17,0 24,-2 18,-5 z m 1837,-9 c -83,-28 -124,-47 -285,-135 -459,-249 -519,-248 -1140,5 -115,47 -253,97 -305,110 -53,14 -82,25 -65,25 50,1 148,-26 416,-114 269,-88 427,-125 535,-125 127,0 293,47 577,164 132,55 233,84 287,84 18,0 12,-4 -20,-14 z m 9,-88 c -31,-12 -101,-54 -155,-92 -318,-222 -409,-272 -539,-295 -146,-25 -252,7 -658,203 -136,65 -289,134 -340,153 -51,19 -87,34 -81,34 20,1 212,-68 384,-139 297,-123 413,-158 545,-167 162,-10 288,32 585,195 143,79 264,132 300,132 8,0 -10,-11 -41,-24 z m -1792,8 c -3,-3 -12,-4 -19,-1 -8,3 -5,6 6,6 11,1 17,-2 13,-5 z m 1785,-102 c -23,-16 -108,-87 -188,-158 -233,-206 -317,-261 -439,-289 -148,-35 -304,18 -665,223 -63,36 -169,94 -235,128 -66,35 -116,64 -111,64 4,0 119,-53 255,-119 295,-142 373,-175 483,-201 219,-53 367,-4 687,223 135,97 230,157 246,157 6,0 -9,-13 -33,-28 z m -126,-230 c -244,-268 -339,-345 -466,-378 -146,-37 -282,18 -704,283 -83,53 -155,100 -161,106 -12,12 -18,16 137,-72 176,-99 382,-197 453,-216 98,-26 182,-30 255,-11 139,35 247,106 480,315 74,66 136,121 138,121 2,0 -57,-67 -132,-148 z m -1346,22 c 0,-2 -9,0 -20,6 -11,6 -20,13 -20,16 0,2 9,0 20,-6 11,-6 20,-13 20,-16 z m 1321,-191 c -179,-237 -282,-332 -399,-368 -130,-41 -293,31 -677,298 -183,127 -197,143 -35,39 321,-206 508,-279 657,-254 133,22 234,92 429,296 76,80 140,146 142,146 2,0 -51,-71 -117,-157 z m -1986,-48 c 82,-39 178,-118 334,-270 189,-184 326,-338 725,-815 182,-217 396,-470 477,-561 212,-238 341,-347 424,-356 37,-5 46,-1 80,28 89,78 164,323 234,769 11,69 45,316 76,550 59,457 93,661 105,639 4,-8 13,-40 20,-71 7,-32 14,-58 14,-58 1,0 23,7 50,15 66,20 108,19 138,-4 71,-56 64,-240 -22,-576 -54,-207 -139,-461 -359,-1064 -279,-764 -329,-925 -338,-1088 l -6,-92 35,-35 c 25,-25 46,-36 82,-41 151,-23 477,77 1111,340 568,236 765,312 765,297 0,-4 -23,-28 -52,-53 l -52,-46 38,-33 c 103,-91 87,-168 -53,-249 -198,-116 -535,-199 -1461,-360 -729,-127 -1000,-187 -1131,-251 -109,-53 -130,-89 -104,-177 43,-143 274,-358 885,-826 508,-390 628,-487 598,-487 -8,0 -40,8 -72,19 l -56,18 -6,-26 c -20,-94 -61,-151 -110,-151 -39,0 -118,35 -195,86 -85,57 -423,387 -576,564 -54,63 -241,284 -413,490 -534,638 -693,807 -823,875 -71,37 -112,30 -161,-27 -110,-127 -175,-425 -291,-1313 -44,-342 -77,-560 -93,-620 -8,-28 -10,-24 -27,45 -10,41 -18,76 -19,77 -1,1 -20,-4 -41,-12 -167,-59 -226,49 -179,326 44,258 131,539 376,1209 301,821 367,1031 375,1192 l 6,97 -35,35 C 2460,4032 2172,3955 1235,3565 874,3415 816,3392 690,3349 l -85,-29 55,55 54,55 -23,16 c -40,28 -81,94 -81,131 0,92 193,192 555,288 206,54 429,99 895,180 994,173 1265,239 1350,330 20,21 25,37 24,75 -1,72 -49,144 -194,291 -153,154 -291,269 -700,582 -466,357 -626,487 -601,487 5,0 37,-9 70,-19 34,-10 63,-16 65,-12 2,3 7,24 10,47 9,51 39,102 69,114 31,14 82,5 142,-25 z m 2069,23 c -33,-56 -182,-279 -201,-303 -72,-87 -151,-158 -211,-187 -62,-31 -66,-31 -129,-21 -117,20 -256,99 -510,291 -62,46 -113,86 -113,89 0,3 21,-11 48,-30 84,-61 256,-165 332,-201 143,-67 239,-80 337,-46 116,40 238,148 375,328 63,82 93,116 72,80 z M 1041,5867 C 1006,5809 973,5709 925,5513 825,5104 779,5022 475,4710 238,4467 170,4382 123,4270 c -19,-44 -23,-48 -18,-20 18,100 112,246 299,465 248,290 314,404 432,745 84,245 130,343 197,418 29,32 32,27 8,-11 z m 93,-14 c -29,-67 -43,-137 -74,-349 C 995,5044 957,4979 553,4623 377,4467 262,4349 224,4283 c -34,-57 -40,-55 -10,5 42,82 114,169 305,366 325,334 369,414 476,844 54,219 74,278 116,343 37,59 45,62 23,12 z m 4838,-174 c 25,-52 83,-195 127,-319 131,-361 175,-438 397,-696 164,-190 216,-259 256,-339 29,-56 51,-115 43,-115 -2,0 -18,26 -35,58 -23,40 -95,119 -244,267 -318,316 -350,370 -470,803 -83,299 -124,404 -201,508 -35,48 -34,47 22,-12 38,-41 74,-94 105,-155 z m -4758,139 c -10,-35 -18,-141 -24,-308 -12,-332 -30,-426 -109,-547 -73,-113 -136,-171 -455,-418 -99,-76 -218,-177 -265,-224 -46,-47 -74,-71 -62,-53 44,63 136,155 296,296 432,380 473,455 545,992 20,152 40,235 66,287 22,41 24,33 8,-25 z m 80,-35 c -3,-32 1,-135 10,-230 22,-223 22,-410 2,-486 -49,-180 -143,-272 -571,-561 -104,-71 -213,-148 -241,-172 -28,-24 -55,-44 -60,-44 -12,0 42,46 236,197 325,255 394,318 471,437 85,129 108,239 119,571 7,212 21,345 36,345 2,0 1,-26 -2,-57 z m 4550,-73 c 41,-80 72,-169 126,-365 126,-465 165,-533 490,-855 171,-171 222,-228 249,-278 18,-35 30,-66 27,-69 -3,-4 -6,-1 -6,5 0,25 -132,150 -274,260 -83,63 -190,154 -237,201 -160,160 -202,266 -299,756 -37,184 -76,311 -125,404 -28,54 -30,61 -10,36 14,-16 40,-59 59,-95 z m -4464,22 c 0,-20 18,-125 41,-232 53,-255 63,-421 29,-519 -52,-154 -145,-236 -540,-472 -118,-71 -230,-138 -247,-150 -18,-11 -33,-18 -33,-15 0,3 74,55 164,115 425,286 533,398 583,597 21,86 21,272 -1,504 -19,195 -19,210 -6,210 6,0 10,-17 10,-38 z m 2924,-49 c -115,-213 -225,-352 -316,-397 -29,-14 -61,-26 -73,-26 -48,0 -138,32 -217,78 -78,44 -360,251 -374,273 -3,5 51,-28 119,-75 250,-170 383,-214 509,-168 104,37 230,158 343,330 26,39 50,72 52,72 3,0 -17,-39 -43,-87 z m 1486,-90 c 16,-50 52,-202 80,-337 56,-274 86,-378 137,-481 70,-140 161,-235 408,-426 147,-114 229,-191 255,-239 9,-16 -8,-5 -48,30 -33,30 -127,95 -209,144 -454,274 -497,344 -578,943 -34,252 -59,376 -90,456 -8,20 -15,41 -15,45 1,19 33,-52 60,-135 z M 1529,5480 c 74,-239 91,-318 91,-424 0,-225 -96,-320 -565,-566 -77,-40 -164,-86 -192,-102 -29,-16 -53,-27 -53,-25 0,3 60,40 133,83 233,137 358,223 443,308 121,121 154,206 154,395 0,96 -7,150 -45,338 -25,123 -45,226 -44,231 1,9 2,5 78,-238 z m 4181,68 c 12,-51 35,-189 51,-308 40,-296 47,-330 80,-450 69,-241 166,-344 533,-565 81,-50 174,-113 205,-142 62,-58 65,-70 5,-22 -22,18 -113,67 -204,111 -314,149 -386,192 -467,281 -107,116 -144,272 -173,717 -11,175 -34,363 -50,420 -11,38 -12,50 -6,50 2,0 14,-42 26,-92 z M 1643,5435 c 109,-256 145,-389 132,-499 -12,-109 -61,-175 -194,-264 -89,-60 -478,-258 -488,-249 -3,3 24,20 58,38 103,51 249,139 326,197 242,179 273,357 138,782 -63,202 -60,201 28,-5 z m 2627,8 c -134,-256 -243,-360 -355,-339 -48,9 -165,71 -240,126 -78,58 -265,210 -265,216 0,3 35,-21 78,-53 104,-79 162,-115 257,-160 70,-32 90,-37 155,-37 88,-1 134,19 213,92 56,52 158,184 188,245 11,21 23,36 26,34 3,-3 -23,-59 -57,-124 z M 1815,5278 c 89,-181 118,-281 113,-388 -2,-65 -7,-83 -32,-119 -42,-60 -143,-132 -281,-200 -118,-58 -303,-141 -314,-141 -3,0 61,36 143,81 234,125 327,203 378,315 18,40 22,67 23,149 0,121 -23,214 -96,390 -28,66 -53,127 -56,135 -13,37 56,-88 122,-222 z m 3822,190 c -3,-7 -5,-2 -5,12 0,14 2,19 5,13 2,-7 2,-19 0,-25 z m 33,-318 c 30,-466 69,-612 197,-750 88,-96 164,-142 483,-294 85,-40 164,-81 175,-90 14,-12 7,-10 -24,5 -25,12 -137,53 -250,91 -256,86 -354,133 -437,211 -135,125 -159,250 -167,867 -3,266 3,255 23,-40 z m -3767,153 c 178,-292 225,-468 153,-572 -55,-78 -210,-166 -490,-277 -33,-13 -61,-23 -62,-21 -2,1 59,33 134,70 153,75 269,158 317,228 84,122 64,286 -65,557 -32,67 -57,122 -56,122 2,0 33,-48 69,-107 z m 2369,-45 c -99,-203 -178,-299 -259,-314 -70,-13 -197,56 -373,204 -129,109 -178,154 -105,97 238,-185 389,-245 498,-197 85,38 186,151 268,299 60,108 44,59 -29,-89 z m -2214,-45 c 118,-173 192,-337 192,-423 -1,-82 -53,-142 -190,-218 -58,-32 -390,-166 -396,-159 -2,2 22,14 54,27 161,65 295,143 364,212 112,112 106,260 -22,515 -37,73 -66,133 -64,133 1,0 29,-39 62,-87 z m 3546,-610 c 53,-303 171,-411 609,-554 103,-34 186,-63 184,-65 -5,-5 -394,83 -472,107 -38,12 -97,35 -130,51 -217,109 -259,246 -236,771 6,144 12,289 13,322 1,33 5,-75 8,-240 5,-202 13,-330 24,-392 z m -1309,498 c -88,-208 -179,-321 -258,-321 -60,0 -227,107 -357,230 l -65,61 55,-42 c 190,-144 308,-185 407,-140 73,34 169,149 234,284 41,85 32,41 -16,-72 z m -2024,-55 c 101,-152 148,-270 135,-341 -10,-54 -74,-109 -191,-165 -99,-49 -325,-134 -332,-126 -3,2 13,10 34,16 77,25 241,112 300,160 145,118 137,270 -32,560 l -26,45 26,-30 c 15,-16 53,-70 86,-119 z m 96,12 c 108,-138 173,-249 194,-331 23,-93 -17,-142 -176,-218 -68,-32 -224,-89 -244,-89 -3,0 45,25 106,55 248,122 288,235 167,471 -25,48 -59,107 -75,131 -44,63 -28,53 28,-19 z m 235,-173 c 112,-148 146,-243 109,-302 -26,-41 -126,-96 -263,-144 -136,-48 -158,-50 -53,-4 197,86 263,168 237,293 -14,69 -55,156 -115,247 -44,66 -45,68 -11,30 20,-22 63,-76 96,-120 z m 2884,-127 c -1,-297 7,-363 58,-474 72,-158 261,-255 639,-330 48,-9 86,-19 84,-21 -2,-2 -93,8 -201,22 -519,66 -615,148 -616,530 0,104 28,545 35,545 1,0 2,-123 1,-272 z m -1176,168 c -81,-205 -156,-306 -228,-306 -51,0 -170,76 -297,190 -88,79 -99,90 -55,59 113,-82 142,-101 200,-128 38,-18 81,-31 104,-31 90,0 176,74 256,218 24,45 46,80 48,78 1,-2 -11,-38 -28,-80 z M 2778,4799 c 101,-130 130,-221 89,-267 -28,-30 -121,-76 -235,-116 -131,-45 -150,-46 -47,0 163,71 223,140 210,242 -7,58 -62,174 -112,239 -16,21 -33,45 -37,53 -14,25 71,-71 132,-151 z m 165,-64 c 49,-58 107,-164 107,-195 0,-44 -72,-92 -215,-142 -119,-43 -134,-40 -41,6 48,24 101,57 117,72 77,74 57,183 -65,354 l -47,65 47,-50 c 25,-27 69,-77 97,-110 z m 2454,98 c -3,-10 -5,-2 -5,17 0,19 2,27 5,18 2,-10 2,-26 0,-35 z M 4309,4699 c -64,-160 -125,-239 -184,-239 -46,0 -211,115 -300,210 l -40,42 70,-53 c 90,-67 178,-109 231,-109 79,0 165,79 230,213 44,89 40,53 -7,-64 z m 1074,-111 c -6,-244 3,-332 46,-424 37,-79 87,-126 186,-175 95,-47 196,-73 377,-99 l 133,-19 -145,5 c -544,20 -653,102 -637,483 4,115 36,441 43,441 1,0 -1,-96 -3,-212 z m -2252,54 c 26,-35 56,-83 65,-108 16,-41 16,-45 -1,-70 -19,-29 -103,-70 -209,-103 -99,-30 -102,-26 -11,18 153,72 178,148 97,291 -14,25 -39,63 -55,85 l -31,40 48,-45 c 27,-25 70,-73 97,-108 z m 216,-139 c 33,-61 28,-75 -33,-111 -38,-21 -212,-82 -236,-82 -7,0 24,17 68,39 43,21 90,51 104,66 48,52 28,146 -56,262 -26,36 -14,26 45,-36 44,-47 93,-109 108,-138 z m 995,49 c -64,-181 -120,-258 -179,-249 -45,8 -144,77 -233,164 l -75,75 66,-51 c 81,-62 162,-101 210,-101 74,0 158,84 215,215 16,35 30,63 31,61 2,-2 -14,-53 -35,-114 z m 938,-38 c -40,-429 19,-572 274,-658 61,-21 227,-45 321,-47 l 70,-2 -90,-10 c -118,-13 -344,4 -438,33 -200,62 -222,183 -141,753 12,85 15,42 4,-69 z m -93,-56 c -3,-7 -5,-2 -5,12 0,14 2,19 5,13 2,-7 2,-19 0,-25 z m -818,-74 c -51,-166 -108,-251 -162,-240 -40,8 -140,82 -212,156 l -60,63 54,-42 c 109,-85 181,-107 240,-76 40,20 94,86 128,155 15,32 29,57 31,56 1,-2 -7,-34 -19,-72 z m 801,-64 c -7,-61 -10,-163 -8,-226 5,-102 9,-121 37,-178 24,-50 42,-71 84,-99 83,-57 239,-93 427,-98 l 55,-2 -70,-7 c -244,-25 -449,3 -523,72 -57,55 -67,216 -27,473 13,88 25,166 25,174 0,8 3,12 6,8 3,-3 0,-56 -6,-117 z m -3890,100 c -8,-5 -19,-10 -25,-10 -5,0 -3,5 5,10 8,5 20,10 25,10 6,0 3,-5 -5,-10 z M 590,4316 c 0,-2 -8,-10 -17,-17 -16,-13 -17,-12 -4,4 13,16 21,21 21,13 z m 4487,-38 c -3,-7 -5,-2 -5,12 0,14 2,19 5,13 2,-7 2,-19 0,-25 z m -697,-112 c -38,-113 -73,-174 -106,-182 -32,-8 -103,39 -204,136 -70,68 -73,76 -6,22 58,-46 127,-75 169,-69 52,7 104,58 143,138 15,33 30,57 31,52 2,-5 -10,-48 -27,-97 z m 681,9 c -14,-99 -14,-260 0,-325 20,-95 95,-164 212,-197 29,-7 117,-17 197,-21 163,-7 142,-14 -80,-27 -209,-12 -321,19 -361,101 -19,41 -21,56 -17,177 4,116 44,384 55,373 3,-2 0,-39 -6,-81 z m -94,-47 c -3,-8 -6,-5 -6,6 -1,11 2,17 5,13 3,-3 4,-12 1,-19 z m -10,-50 c -3,-8 -6,-5 -6,6 -1,11 2,17 5,13 3,-3 4,-12 1,-19 z m -15,-139 c -16,-195 9,-289 89,-345 58,-40 123,-55 264,-62 l 130,-6 -85,-12 c -47,-7 -126,-13 -177,-13 -192,-2 -256,34 -268,149 -3,36 -2,103 4,150 12,94 43,261 48,256 2,-2 0,-55 -5,-117 z m -113,-130 c -19,-157 0,-257 57,-311 48,-45 106,-60 249,-67 l 130,-6 -90,-15 c -49,-8 -135,-14 -190,-15 -163,0 -205,35 -205,167 0,85 45,356 57,344 2,-2 -1,-46 -8,-97 z m -2321,75 c 19,-13 22,-24 21,-77 0,-34 -11,-102 -23,-152 l -23,-90 5,86 c 9,161 -40,204 -220,197 -109,-4 -102,3 32,32 109,23 179,25 208,4 z m -131,-110 c 32,-9 47,-55 40,-124 -7,-60 -48,-252 -53,-247 -2,2 1,43 6,92 20,195 -39,253 -250,243 l -95,-5 90,23 c 87,22 214,31 262,18 z m 2350,-26 c -3,-8 -6,-5 -6,6 -1,11 2,17 5,13 3,-3 4,-12 1,-19 z m -14,-138 c -5,-99 -3,-127 11,-165 35,-91 138,-131 311,-122 l 100,5 -60,-13 c -187,-43 -332,-40 -382,7 -21,19 -23,31 -23,109 0,49 9,135 20,191 11,57 20,104 20,106 0,1 2,2 4,2 2,0 2,-54 -1,-120 z m -2458,46 c 25,-11 36,-23 42,-47 11,-41 -2,-184 -26,-279 l -18,-75 5,115 c 3,89 1,123 -11,151 -33,80 -130,116 -287,105 -101,-6 -95,-2 31,24 115,22 218,25 264,6 z m -388,-42 c -3,-3 -12,-4 -19,-1 -8,3 -5,6 6,6 11,1 17,-2 13,-5 z m 2732,-114 c -23,-181 19,-254 160,-280 34,-6 95,-9 134,-6 l 72,6 -55,-15 c -85,-22 -218,-37 -268,-29 -28,4 -55,16 -70,31 -23,23 -24,29 -19,111 4,79 45,287 54,278 2,-2 -2,-45 -8,-96 z m -2493,49 c 65,-17 84,-46 84,-129 0,-62 -20,-202 -39,-275 -4,-18 -7,23 -7,105 1,124 -1,138 -22,172 -16,25 -42,46 -80,65 -54,27 -64,28 -192,27 -151,-1 -152,1 -2,26 128,22 197,24 258,9 z m 3351,-15 c -3,-3 -12,-4 -19,-1 -8,3 -5,6 6,6 11,1 17,-2 13,-5 z m -960,-86 c -3,-8 -6,-5 -6,6 -1,11 2,17 5,13 3,-3 4,-12 1,-19 z m -2528,-9 c 65,-14 98,-47 107,-107 8,-57 -9,-219 -35,-322 -18,-70 -19,-71 -13,-20 4,30 7,100 7,155 -1,87 -4,106 -25,145 -51,91 -118,115 -324,115 -156,0 -152,3 34,29 120,18 186,19 249,5 z m 2517,-123 c -1,-100 2,-118 20,-143 36,-50 86,-67 199,-67 l 100,1 -73,-18 c -107,-26 -191,-33 -239,-20 -55,15 -66,45 -53,145 9,69 39,216 44,216 1,0 2,-51 2,-114 z m -2602,-5 c 52,-23 71,-53 81,-131 7,-59 -15,-254 -40,-350 l -14,-55 7,65 c 12,114 7,254 -12,304 -24,63 -81,110 -161,135 -54,17 -94,21 -208,21 -77,0 -138,2 -135,5 3,3 56,12 119,20 149,19 303,13 363,-14 z m 2486,-92 c -12,-108 1,-164 48,-195 39,-27 106,-37 180,-28 81,9 60,-3 -44,-26 -110,-24 -182,-26 -213,-4 -22,16 -23,22 -19,88 5,64 47,261 54,253 2,-2 -1,-41 -6,-88 z m -2615,-19 c 62,-32 83,-61 95,-133 11,-70 -3,-245 -30,-367 l -18,-85 6,70 c 11,109 8,245 -7,302 -37,150 -167,211 -453,214 l -133,2 85,13 c 48,7 154,12 245,10 148,-1 164,-3 210,-26 z m -212,-85 c 85,-18 142,-49 170,-95 34,-54 36,-243 6,-441 -12,-82 -24,-147 -27,-145 -2,3 1,62 8,133 35,399 -73,516 -500,540 -116,7 -126,9 -75,14 124,12 349,9 418,-6 z m 594,-27 c -3,-8 -6,-5 -6,6 -1,11 2,17 5,13 3,-3 4,-12 1,-19 z m -856,-58 c 113,-12 209,-39 261,-74 97,-65 113,-223 62,-599 -9,-70 -18,-126 -20,-124 -3,2 1,72 8,155 13,180 2,311 -36,394 -28,64 -98,131 -169,162 -99,44 -264,73 -427,77 l -85,3 70,6 c 116,11 227,11 336,0 z m -181,-91 c 165,-18 268,-52 335,-111 85,-74 106,-201 80,-490 -25,-288 -32,-314 -27,-103 8,298 -19,427 -109,517 -93,93 -254,151 -509,183 -74,9 -139,18 -145,20 -17,7 275,-6 375,-16 z m -286,-69 c 381,-48 523,-117 577,-281 23,-70 24,-86 22,-284 -1,-115 -8,-275 -15,-355 l -14,-145 0,265 c 0,220 -3,279 -18,344 -36,163 -110,257 -261,331 -89,44 -158,64 -475,139 -73,17 -63,16 184,-14 z m 1841,-34 c 28,-18 86,-68 130,-111 83,-80 83,-83 0,-20 -151,114 -230,92 -317,-89 -41,-86 -41,-71 -1,59 30,96 47,131 81,168 33,35 47,34 107,-7 z M 697,2794 c 306,-68 428,-117 506,-203 94,-104 112,-189 109,-516 -1,-137 -6,-311 -10,-385 l -9,-135 -2,220 c -2,363 -26,544 -87,655 -83,152 -198,225 -542,341 -113,38 -208,72 -211,75 -3,4 5,4 19,0 14,-4 116,-27 227,-52 z m -67,-89 c 260,-89 361,-138 437,-211 92,-90 128,-197 143,-424 9,-142 21,-675 15,-668 -2,2 -10,109 -20,238 -34,493 -64,620 -178,758 -85,103 -165,152 -517,320 -80,38 -154,77 -165,86 -16,13 -12,13 20,-2 22,-11 141,-54 265,-97 z m -235,-12 c 44,-22 127,-62 185,-88 164,-73 268,-135 336,-198 149,-139 178,-236 214,-724 11,-153 27,-316 35,-362 8,-47 13,-86 11,-89 -7,-7 -25,90 -51,273 -79,562 -113,669 -258,821 -75,80 -142,129 -362,264 -161,99 -228,148 -247,183 -9,18 -5,16 23,-8 19,-17 70,-49 114,-72 z m 45,-147 c 389,-237 471,-325 534,-571 25,-100 34,-152 81,-490 21,-152 48,-277 79,-370 4,-11 1,-9 -8,6 -31,54 -66,181 -116,423 -88,432 -137,545 -304,712 -56,55 -159,145 -231,199 -148,112 -214,172 -256,232 -16,23 -29,43 -29,45 0,2 24,-19 53,-47 28,-28 117,-90 197,-139 z m 2314,94 c 28,-21 78,-67 111,-101 55,-57 56,-60 15,-27 -108,85 -176,113 -234,97 -47,-13 -111,-86 -152,-172 -42,-90 -43,-76 -3,46 36,111 83,196 118,214 31,15 74,-2 145,-57 z M 251,2545 c 30,-28 110,-93 179,-145 69,-52 170,-140 225,-195 160,-159 195,-243 284,-675 57,-275 85,-371 141,-480 31,-59 34,-69 14,-45 -56,67 -113,209 -183,456 -141,494 -164,534 -491,859 -170,169 -223,228 -248,276 -40,76 -41,89 -3,38 15,-21 52,-62 82,-89 z m 6339,20 c -49,-71 -151,-176 -290,-298 -175,-153 -324,-301 -376,-374 -95,-132 -132,-249 -179,-576 -33,-223 -56,-322 -89,-369 -20,-28 -20,-22 0,33 11,31 19,107 25,259 17,403 38,509 128,636 65,93 149,170 404,367 198,153 397,339 397,369 0,6 3,9 6,5 3,-3 -9,-27 -26,-52 z m -4793,8 c -3,-10 -5,-4 -5,12 0,17 2,24 5,18 2,-7 2,-21 0,-30 z m 4658,-34 c -39,-39 -169,-148 -290,-242 -259,-202 -358,-294 -425,-394 -91,-136 -114,-248 -129,-633 -6,-143 -15,-241 -24,-270 l -14,-45 5,86 c 2,47 -3,170 -13,273 -24,252 -18,395 20,491 62,156 150,237 531,493 181,121 313,222 368,281 17,17 32,31 35,31 3,0 -26,-32 -64,-71 z m 224,9 c -47,-92 -108,-167 -294,-361 -354,-369 -389,-428 -490,-832 -62,-245 -83,-310 -127,-382 -36,-59 -46,-64 -23,-10 27,64 44,145 65,306 53,400 95,510 260,684 47,50 155,152 240,227 184,162 307,290 352,365 38,64 49,66 17,3 z m 91,-9 c -28,-104 -114,-234 -291,-440 -248,-289 -315,-405 -434,-749 -89,-256 -148,-375 -215,-435 -20,-17 -18,-12 9,36 42,76 64,143 117,359 99,402 136,467 448,790 222,230 280,301 334,411 20,42 38,75 40,73 2,-1 -2,-21 -8,-45 z M 370,2270 c 297,-293 343,-370 446,-740 96,-348 151,-484 231,-581 35,-42 34,-41 -19,9 -90,87 -140,188 -259,526 -112,313 -168,409 -405,686 -160,186 -201,242 -248,336 -38,75 -32,88 10,24 20,-30 130,-147 244,-260 z m 5980,286 c 0,-2 -8,-10 -17,-17 -16,-13 -17,-12 -4,4 13,16 21,21 21,13 z m -3571,-58 c 35,-22 102,-79 150,-125 85,-83 85,-83 21,-33 -219,173 -332,143 -446,-119 -43,-97 -43,-82 0,45 62,185 121,274 181,274 19,0 54,-16 94,-42 z m 926,-3 c -104,-52 -128,-78 -127,-142 1,-48 23,-97 78,-178 30,-42 22,-37 -46,35 -93,97 -138,176 -120,209 14,28 55,48 175,87 136,45 147,42 40,-11 z m 2595,20 c -6,-8 -93,-69 -193,-136 -432,-290 -542,-397 -603,-586 -24,-75 -29,-300 -10,-489 9,-89 15,-190 15,-225 l -1,-64 -18,105 c -10,58 -32,175 -50,260 -37,180 -49,340 -30,421 41,175 155,278 595,538 94,55 199,120 235,144 74,51 77,52 60,32 z m -2355,-20 c -137,-53 -193,-99 -202,-164 -8,-59 13,-122 69,-204 l 50,-72 -47,45 c -26,25 -66,70 -89,100 -123,158 -105,204 109,273 44,14 94,30 110,36 59,19 59,9 0,-14 z m 224,-9 c -2,-2 -32,-15 -66,-29 -89,-36 -168,-92 -187,-131 -35,-73 -9,-167 80,-293 l 55,-78 -61,65 c -116,125 -180,227 -180,288 0,31 13,46 74,82 54,33 308,118 285,96 z m 1936,-5 c -6,-4 -98,-60 -205,-123 -231,-137 -333,-208 -417,-291 -71,-69 -124,-162 -143,-249 -22,-97 -8,-275 40,-502 22,-109 39,-203 36,-210 -2,-6 -5,-4 -5,4 -1,9 -30,108 -65,220 -87,281 -99,339 -94,463 3,90 7,108 33,156 64,116 194,207 609,427 215,114 227,120 211,105 z m -1798,-42 c -87,-35 -191,-100 -220,-140 -51,-70 -26,-183 75,-334 73,-109 53,-95 -54,39 -87,107 -138,202 -138,252 0,60 77,110 268,174 139,47 179,52 69,9 z m 1363,-4 c -14,-8 -29,-14 -35,-14 -5,0 1,6 15,14 14,8 30,14 35,14 6,0 -1,-6 -15,-14 z m -1225,-44 c -129,-63 -177,-99 -204,-153 -26,-55 -27,-102 -1,-179 17,-51 81,-170 124,-230 34,-47 -66,68 -114,133 -110,146 -143,255 -95,308 31,34 138,90 254,131 144,51 156,48 36,-10 z m 1405,44 c 0,-3 -37,-23 -82,-46 -125,-63 -285,-157 -363,-214 -262,-193 -291,-381 -130,-854 19,-58 35,-110 35,-115 -1,-18 -148,331 -174,413 -53,161 -58,288 -17,369 22,44 98,120 163,164 71,48 199,115 386,204 185,88 182,87 182,79 z m -851,-9 c -2,-2 -40,-18 -84,-36 -166,-65 -298,-153 -341,-226 -63,-107 -29,-258 107,-481 21,-35 36,-63 34,-63 -9,0 -155,210 -188,270 -53,96 -80,184 -71,234 9,57 70,114 186,170 107,53 379,153 357,132 z m 431,-6 c -8,-5 -19,-10 -25,-10 -5,0 -3,5 5,10 8,5 20,10 25,10 6,0 3,-5 -5,-10 z m -3743,-32 c -3,-7 -5,-2 -5,12 0,14 2,19 5,13 2,-7 2,-19 0,-25 z m 2937,-22 c -136,-67 -216,-137 -235,-206 -24,-89 16,-216 116,-371 25,-39 41,-67 34,-64 -25,16 -163,214 -200,286 -83,166 -64,215 122,310 61,31 243,99 264,99 6,0 -40,-25 -101,-54 z m 551,39 c -16,-8 -78,-36 -136,-63 -167,-77 -270,-156 -314,-241 -51,-99 -21,-249 94,-466 27,-52 48,-95 45,-95 -2,0 -36,48 -76,108 -131,198 -191,355 -168,440 23,88 141,166 403,268 149,58 224,82 152,49 z m 298,-64 c -349,-181 -442,-278 -451,-472 -5,-108 23,-228 98,-409 67,-164 68,-166 25,-90 -145,258 -207,421 -209,546 -1,73 2,85 29,130 57,91 193,176 510,316 72,31 135,57 140,57 6,0 -58,-35 -142,-78 z m -224,-4 c -80,-40 -176,-94 -213,-121 -212,-151 -228,-326 -61,-673 30,-62 52,-113 50,-113 -9,0 -131,209 -175,303 -64,133 -89,241 -71,307 20,72 104,145 253,219 120,59 333,150 353,150 6,0 -56,-33 -136,-72 z m -2450,18 c 59,-29 179,-125 241,-192 25,-26 32,-36 15,-22 -57,48 -132,99 -186,124 -135,62 -227,7 -330,-198 -27,-55 -49,-94 -49,-88 0,5 16,53 35,106 67,187 141,295 201,295 13,0 47,-11 73,-25 z m 57,-165 c 64,-32 195,-133 259,-200 39,-41 37,-40 -35,14 -84,63 -175,112 -227,122 -102,19 -205,-65 -294,-239 -29,-58 -55,-104 -57,-102 -9,8 105,272 141,327 44,66 95,108 132,108 12,0 48,-13 81,-30 z m 64,-165 c 62,-32 190,-130 280,-215 73,-69 73,-70 15,-24 -329,260 -473,236 -655,-108 -27,-51 -50,-90 -50,-86 0,18 82,210 119,276 56,101 98,152 145,173 47,22 78,18 146,-16 z m -1443,-27 c -3,-7 -5,-2 -5,12 0,14 2,19 5,13 2,-7 2,-19 0,-25 z m 1477,-127 c 71,-31 172,-101 301,-211 140,-119 176,-154 87,-84 -120,93 -193,142 -270,180 -204,101 -334,32 -513,-274 -21,-37 -39,-64 -39,-60 0,5 21,54 47,110 146,317 242,401 387,339 z m 37,-156 c 75,-27 176,-93 331,-217 81,-65 148,-122 148,-125 0,-3 -6,-1 -12,4 -262,201 -369,256 -498,257 -65,1 -81,-3 -124,-28 -93,-54 -189,-167 -288,-336 -57,-98 -46,-60 25,80 100,200 190,321 272,363 38,21 91,21 146,2 z m 134,-200 c 83,-41 360,-238 395,-281 8,-9 -37,18 -100,61 -226,154 -377,207 -491,171 -114,-36 -230,-146 -361,-341 -33,-49 -63,-92 -65,-95 -18,-17 99,194 157,284 77,118 162,208 225,238 60,28 130,18 240,-37 z m -25,-127 c 64,-20 174,-80 285,-156 110,-75 305,-220 305,-226 0,-1 -63,39 -141,90 -244,160 -370,216 -495,217 -61,0 -80,-4 -148,-37 -99,-48 -214,-156 -333,-313 -47,-62 -88,-113 -90,-113 -5,0 -6,-2 97,161 159,249 259,352 380,390 28,9 87,3 140,-13 z m 71,-167 c 96,-33 180,-80 384,-217 250,-168 335,-234 140,-109 -561,358 -730,345 -1122,-87 -69,-76 -127,-138 -129,-138 -2,0 51,73 118,163 271,361 417,454 609,388 z m -1984,-23 c -3,-8 -6,-5 -6,6 -1,11 2,17 5,13 3,-3 4,-12 1,-19 z m 2374,5 c 13,-16 12,-17 -3,-4 -10,7 -18,15 -18,17 0,8 8,3 21,-13 z m -335,-144 c 38,-11 121,-48 184,-81 104,-55 501,-298 525,-321 13,-13 23,-18 -175,93 -593,335 -727,326 -1180,-80 -190,-169 -199,-169 -40,0 262,280 327,336 446,385 74,31 149,32 240,4 z m 109,-179 c 110,-39 168,-68 438,-219 117,-65 235,-130 262,-144 28,-14 46,-26 42,-27 -4,0 -119,54 -255,119 -288,139 -344,163 -443,191 -106,29 -200,35 -286,17 -129,-28 -223,-81 -546,-305 -34,-24 -84,-55 -112,-69 -55,-28 -51,-20 9,20 21,14 103,83 183,154 169,149 237,201 314,243 129,69 240,74 394,20 z m 13,-146 c 88,-23 172,-59 434,-185 136,-66 289,-135 340,-154 51,-19 88,-34 82,-34 -26,-2 -137,38 -377,135 -376,152 -502,183 -657,163 -132,-16 -249,-64 -518,-213 -119,-66 -213,-106 -249,-106 -10,0 14,15 52,34 39,18 126,73 195,122 186,131 217,151 305,195 138,68 249,80 393,43 z m 97,-172 c 87,-25 193,-64 355,-132 234,-98 375,-145 490,-163 21,-4 20,-4 -6,-6 -64,-2 -197,31 -435,110 -134,45 -291,92 -349,105 -218,50 -392,25 -685,-96 -212,-88 -315,-120 -378,-119 l -52,1 40,8 c 65,13 139,46 299,133 170,93 289,149 356,167 110,31 238,28 365,-8 z m 675,-82 c 8,-5 11,-10 5,-10 -5,0 -17,5 -25,10 -8,5 -10,10 -5,10 6,0 17,-5 25,-10 z m -653,-70 c 51,-11 209,-57 350,-104 291,-95 376,-115 495,-117 60,-1 75,-4 53,-9 -94,-24 -228,-6 -540,74 -451,116 -540,115 -960,-5 -246,-70 -342,-87 -406,-72 l -44,11 39,1 c 65,2 152,29 357,112 323,131 452,152 656,109 z m 780,-56 c -3,-3 -12,-4 -19,-1 -8,3 -5,6 6,6 11,1 17,-2 13,-5 z m -755,-99 c 53,-8 202,-41 330,-74 276,-70 369,-85 492,-79 101,6 89,-5 -25,-23 -90,-14 -213,-1 -511,53 -212,38 -247,42 -393,41 -118,0 -189,-5 -270,-21 -60,-11 -173,-32 -250,-47 -148,-28 -327,-36 -375,-16 -22,9 -20,10 21,10 73,1 190,27 369,80 302,89 424,105 612,76 z"
       id="path8"
       style="fill:none;stroke:#000000;stroke-width:9.96472991000000090"
       inkscape:connector-curvature="0" />
  </g>
</svg>
