<?xml version="1.0" standalone="no"?>
<!DOCTYPE svg PUBLIC "-//W3C//DTD SVG 20010904//EN"
 "http://www.w3.org/TR/2001/REC-SVG-20010904/DTD/svg10.dtd">
<svg version="1.0" xmlns="http://www.w3.org/2000/svg"
 width="425.000000pt" height="425.000000pt" viewBox="0 0 425.000000 425.000000"
 preserveAspectRatio="xMidYMid meet">
<metadata>
Created by potrace 1.11, written by Peter Selinger 2001-2013
</metadata>
<g transform="translate(0.000000,425.000000) scale(0.100000,-0.100000)"
fill="#000000" stroke="none">
<path d="M2027 4168 c-47 -47 -115 -131 -157 -193 -40 -60 -77 -114 -81 -119
-4 -5 -63 27 -133 73 -196 128 -325 180 -360 145 -42 -42 -79 -149 -121 -354
-16 -74 -29 -136 -30 -137 -1 -2 -59 9 -131 23 -147 28 -300 40 -359 27 -35
-8 -42 -14 -53 -48 -17 -48 -5 -184 30 -358 12 -63 17 -111 12 -116 -5 -5 -61
-18 -124 -31 -146 -28 -264 -65 -314 -97 -38 -25 -38 -26 -33 -75 7 -59 64
-174 158 -319 38 -58 69 -108 69 -112 0 -3 -55 -43 -122 -89 -141 -94 -278
-221 -278 -256 0 -36 149 -177 275 -261 61 -41 114 -77 119 -82 5 -4 -27 -63
-73 -133 -128 -196 -180 -325 -145 -360 42 -43 172 -86 374 -126 63 -13 116
-24 117 -25 2 0 -9 -59 -23 -131 -28 -147 -40 -300 -27 -359 8 -35 14 -42 48
-53 48 -17 184 -5 358 30 63 12 111 17 116 12 5 -5 18 -61 31 -124 28 -146 65
-264 97 -314 25 -38 26 -38 75 -33 61 8 174 63 318 158 59 38 110 69 113 69 4
0 38 -46 75 -102 124 -185 228 -298 273 -298 34 0 179 156 264 283 43 64 81
117 83 117 3 0 61 -36 128 -80 194 -127 323 -179 358 -144 43 42 86 172 126
374 13 63 24 116 25 117 0 2 59 -9 131 -23 147 -28 300 -40 359 -27 35 8 42
14 53 48 17 48 5 184 -30 358 -12 63 -17 111 -12 116 5 5 61 18 124 31 146 28
264 65 314 97 38 25 38 26 33 74 -7 60 -75 197 -159 322 -32 48 -61 94 -64
101 -4 10 36 42 118 97 140 95 278 222 278 257 0 36 -149 178 -275 262 -60 40
-114 77 -119 81 -5 4 27 63 73 133 114 174 172 306 154 351 -14 38 -171 93
-383 135 -63 13 -116 24 -117 25 -2 0 9 59 22 131 29 148 41 301 28 359 -8 35
-14 42 -48 53 -48 17 -184 5 -358 -30 -63 -12 -111 -17 -116 -12 -5 5 -18 61
-31 124 -28 146 -65 264 -97 314 -25 38 -26 38 -75 33 -61 -8 -174 -63 -318
-158 -59 -38 -110 -69 -113 -69 -4 0 -38 46 -75 103 -124 184 -228 297 -273
297 -12 0 -55 -35 -102 -82z m284 -308 c38 -38 69 -73 69 -78 0 -9 -100 -86
-104 -80 -2 2 -13 48 -26 103 -12 55 -25 106 -27 113 -12 31 25 6 88 -58z
m-295 28 c-3 -13 -13 -58 -23 -100 -9 -43 -19 -78 -23 -78 -12 0 -90 62 -90
71 0 15 114 129 129 129 9 0 11 -7 7 -22z m131 -35 c21 -49 42 -148 42 -193 0
-27 -7 -41 -30 -58 l-30 -24 -34 27 c-28 21 -35 33 -35 60 0 71 42 225 62 225
5 0 16 -17 25 -37z m-513 -59 c89 -35 94 -43 61 -99 -15 -25 -31 -45 -35 -43
-8 3 -120 156 -120 164 0 10 34 2 94 -22z m1086 21 c0 -3 -22 -36 -50 -73 -27
-37 -55 -75 -62 -86 -13 -17 -16 -14 -41 32 -15 27 -27 52 -27 55 0 9 67 45
112 61 46 16 68 19 68 11z m-1356 -166 c9 -53 19 -104 22 -114 6 -16 3 -17
-22 -11 -86 21 -104 28 -104 41 0 41 79 215 86 190 2 -6 10 -53 18 -106z m169
28 c25 -34 52 -77 61 -94 16 -31 15 -35 -4 -73 -23 -44 -21 -44 -71 -30 -32 9
-37 15 -48 62 -20 83 -31 171 -25 195 9 33 34 16 87 -60z m1275 1 c-7 -110
-25 -167 -55 -179 -64 -24 -71 -23 -90 15 -16 35 -16 37 7 78 44 81 112 162
139 167 2 1 1 -36 -1 -81z m161 -24 c31 -82 29 -89 -30 -102 -60 -14 -72 -15
-65 -4 3 5 10 40 16 78 6 38 13 82 16 99 l6 29 19 -22 c10 -13 27 -48 38 -78z
m-1078 -11 l69 -48 -7 -75 c-5 -41 -8 -168 -8 -282 1 -114 0 -206 -1 -205 -1
1 -27 65 -57 142 -30 78 -80 193 -112 256 l-58 116 46 72 c26 39 49 71 53 71
3 0 37 -21 75 -47z m599 -18 c23 -36 43 -70 43 -77 1 -7 -21 -58 -49 -113 -28
-55 -79 -170 -113 -255 -34 -85 -64 -156 -65 -158 -2 -1 -3 82 -2 185 0 103
-1 232 -4 287 l-5 98 70 49 c39 27 73 49 76 49 4 0 26 -29 49 -65z m824 -144
c15 -6 1 -18 -74 -64 -51 -32 -94 -56 -95 -55 -1 2 -7 29 -12 60 -8 49 -8 58
6 61 27 8 155 6 175 -2z m-2236 -7 l52 -7 -6 -51 c-4 -28 -10 -55 -14 -59 -4
-4 -46 17 -95 47 -49 32 -82 58 -74 60 47 16 71 17 137 10z m1087 -24 c18 -11
36 -28 39 -36 7 -19 1 -229 -15 -499 -10 -164 -13 -183 -35 -217 -13 -21 -26
-38 -29 -38 -2 0 -15 19 -29 43 -22 38 -25 60 -35 222 -19 334 -22 483 -8 495
39 33 63 49 71 50 5 0 23 -9 41 -20z m872 -60 c19 -100 18 -102 -39 -145 -29
-22 -120 -107 -202 -189 -82 -82 -147 -143 -143 -135 3 8 31 72 62 143 31 71
72 179 92 240 20 61 39 115 43 119 11 13 110 35 145 34 29 -2 30 -5 42 -67z
m-1703 42 l78 -18 43 -124 c23 -69 63 -174 90 -235 26 -60 54 -125 61 -143 11
-24 -28 10 -143 125 -87 87 -182 176 -211 198 -50 38 -53 42 -47 75 17 103 28
140 38 140 7 0 47 -9 91 -18z m-354 -103 c84 -50 119 -83 120 -114 0 -42 -9
-51 -58 -59 -37 -6 -46 -3 -63 16 -31 37 -97 151 -105 181 l-6 28 38 -16 c22
-9 55 -25 74 -36z m1694 9 l28 -41 -23 -56 c-39 -96 -133 -300 -202 -438 -53
-106 -74 -137 -104 -158 -21 -14 -41 -25 -44 -25 -4 0 -9 19 -13 42 -6 35 3
69 60 232 37 105 93 254 124 331 52 129 59 140 86 146 52 12 59 9 88 -33z
m696 17 c-18 -46 -42 -89 -84 -147 -34 -48 -46 -57 -71 -58 -43 0 -51 9 -58
60 -5 44 -5 46 40 80 50 38 148 90 169 90 10 0 11 -6 4 -25z m-1679 -1 c19 -5
82 -160 180 -439 46 -132 63 -193 62 -229 -1 -63 -12 -72 -54 -44 -27 19 -49
55 -108 173 -76 156 -179 384 -201 446 -12 32 -10 39 11 72 25 38 38 40 110
21z m-852 -123 c28 -46 50 -85 48 -87 -1 -2 -28 -7 -59 -12 -53 -8 -57 -7 -62
12 -8 28 -7 135 0 164 8 28 9 27 73 -77z m2635 39 c3 -22 3 -65 0 -95 l-7 -55
-51 6 c-28 4 -55 10 -59 14 -8 7 94 179 104 174 4 -2 9 -22 13 -44z m-2083
-307 c220 -226 345 -374 353 -417 4 -21 5 -40 3 -42 -3 -3 -26 0 -52 7 -52 13
-118 67 -365 298 -184 171 -183 170 -174 227 5 33 12 48 28 54 56 23 68 15
207 -127z m1692 117 c5 -4 11 -25 14 -46 5 -39 4 -40 -134 -174 -226 -221
-374 -346 -417 -354 -21 -4 -40 -5 -42 -3 -3 3 0 26 7 52 10 38 33 72 117 167
58 66 161 179 230 250 l126 130 46 -7 c25 -4 49 -10 53 -15z m-2078 -82 c22
-29 107 -120 189 -202 82 -82 143 -147 135 -143 -8 3 -68 29 -134 58 -66 29
-176 72 -245 95 l-125 42 -18 63 c-28 101 -23 112 48 125 104 20 107 20 150
-38z m2393 31 c28 -6 52 -16 52 -22 0 -7 -9 -47 -18 -91 l-18 -78 -124 -42
c-69 -24 -174 -64 -235 -90 -60 -27 -125 -55 -143 -63 -25 -10 9 29 125 144
87 87 176 182 198 211 44 59 32 57 163 31z m-2699 -91 c13 -56 14 -71 3 -64
-5 3 -50 12 -101 20 -51 8 -95 17 -98 20 -8 8 45 38 110 62 34 12 65 19 68 16
4 -4 11 -28 18 -54z m2989 11 c54 -26 79 -49 55 -49 -18 -1 -187 -30 -206 -36
-21 -7 -21 -8 4 89 10 38 11 39 47 32 20 -4 65 -20 100 -36z m-2990 -160 c44
-13 53 -24 68 -84 5 -21 0 -27 -30 -42 -35 -16 -37 -16 -78 7 -63 35 -147 100
-160 123 -10 19 -8 20 73 15 46 -3 104 -11 127 -19z m3040 15 c12 -4 22 -10
22 -15 0 -13 -105 -93 -161 -124 l-48 -26 -41 21 c-45 23 -44 21 -30 71 10 35
12 36 88 52 68 15 101 21 137 26 6 0 20 -2 33 -5z m-3210 -149 l81 -59 -45
-29 c-25 -16 -51 -26 -58 -24 -6 3 -23 29 -38 58 -28 59 -45 124 -31 118 5 -2
46 -31 91 -64z m3292 40 c0 -23 -39 -118 -59 -144 l-18 -24 -47 28 c-26 15
-46 31 -44 35 4 10 150 118 161 119 4 1 7 -6 7 -14z m-2762 -36 c53 -23 192
-87 308 -144 184 -89 215 -107 238 -141 14 -21 26 -42 26 -45 0 -4 -18 -9 -41
-13 -34 -5 -69 3 -217 55 -190 66 -473 176 -483 187 -4 4 -10 25 -13 47 -6 38
-4 42 32 67 20 14 41 27 45 27 4 1 52 -17 105 -40z m2277 9 c36 -24 38 -38 19
-109 -5 -19 -149 -77 -439 -180 -172 -60 -235 -73 -279 -56 -15 6 -15 10 -2
34 8 16 22 35 32 44 35 31 587 286 622 288 7 1 28 -9 47 -21z m-2520 -184 c55
-29 165 -77 245 -109 80 -31 151 -60 158 -64 6 -4 -81 -7 -195 -6 -115 0 -243
-4 -285 -8 l-77 -8 -51 77 c-29 42 -48 80 -43 84 18 17 137 90 142 88 3 -2 51
-26 106 -54z m2806 1 c38 -24 69 -47 69 -51 0 -3 -21 -37 -47 -75 l-48 -69
-75 7 c-41 5 -168 8 -282 7 -114 0 -207 1 -205 2 1 1 70 29 152 61 83 33 195
83 250 111 55 28 104 51 108 51 5 1 40 -19 78 -44z m-1370 -10 c106 -37 215
-160 241 -273 14 -65 0 -170 -31 -234 -52 -109 -182 -205 -288 -215 -157 -15
-311 70 -384 213 -31 61 -34 76 -34 149 1 101 22 163 80 237 47 61 99 99 175
130 53 22 167 19 241 -7z m-1736 -146 c20 -28 35 -52 33 -54 -2 -1 -48 -12
-103 -25 -55 -12 -106 -25 -112 -27 -7 -3 -13 0 -13 7 0 14 135 150 149 150 5
0 26 -23 46 -51z m3335 -17 c63 -61 76 -89 38 -78 -13 3 -58 13 -100 23 -43 9
-78 19 -78 23 0 11 64 90 73 90 4 0 35 -26 67 -58z m-2515 -123 c164 -10 183
-13 218 -35 20 -13 37 -26 37 -29 0 -2 -19 -15 -42 -29 -39 -22 -61 -25 -223
-35 -275 -16 -479 -22 -490 -13 -24 17 -56 74 -51 90 3 9 17 30 32 45 l25 28
157 -6 c86 -3 238 -10 337 -16z m2080 13 c6 -4 20 -22 33 -40 26 -37 23 -57
-13 -96 l-25 -27 -157 6 c-87 3 -239 10 -338 16 -164 10 -183 13 -217 35 -21
13 -38 26 -38 29 0 2 19 15 43 29 38 22 60 25 227 36 102 6 230 12 285 13 55
2 120 4 145 5 25 1 50 -2 55 -6z m-2767 -43 l24 -30 -27 -34 c-21 -28 -33 -35
-60 -35 -71 0 -225 42 -225 62 0 22 148 66 225 66 33 1 44 -5 63 -29z m3104
20 c76 -15 139 -40 135 -53 -5 -17 -133 -56 -201 -62 -59 -4 -62 -3 -84 26
l-24 31 27 34 c29 39 54 43 147 24z m178 -160 c0 -13 -135 -149 -148 -149 -8
0 -86 100 -80 104 3 3 203 52 221 55 4 0 7 -4 7 -10z m-3467 -26 c42 -9 77
-19 77 -23 0 -12 -62 -90 -71 -90 -15 0 -129 114 -129 129 0 9 7 11 23 7 12
-3 57 -13 100 -23z m549 -48 c114 1 206 0 205 -2 -1 -1 -66 -26 -143 -57 -78
-30 -193 -80 -256 -112 l-115 -57 -72 46 c-39 26 -71 49 -71 53 0 3 21 37 48
75 l47 69 75 -7 c41 -5 168 -8 282 -8z m2629 -61 l52 -77 -24 -18 c-13 -10
-46 -31 -74 -48 l-50 -30 -98 50 c-54 28 -171 80 -260 116 -89 35 -164 66
-166 68 -2 3 68 2 155 -1 87 -3 204 -1 259 4 55 5 112 10 127 11 23 1 35 -10
79 -75z m-2018 37 c4 -4 -3 -23 -15 -42 -19 -27 -55 -49 -173 -108 -156 -76
-384 -179 -446 -201 -32 -12 -39 -10 -72 11 -38 25 -40 38 -21 110 5 18 222
106 479 194 128 43 168 53 200 49 22 -3 43 -9 48 -13z m1256 -42 c184 -64 471
-176 482 -187 4 -4 10 -25 13 -47 6 -38 4 -41 -36 -69 l-41 -28 -56 23 c-96
39 -300 133 -438 202 -106 53 -137 74 -158 104 -14 21 -25 41 -25 45 0 6 24
12 69 17 8 0 94 -27 190 -60z m-1129 -137 c0 -5 -6 -30 -14 -56 -17 -54 -133
-191 -370 -434 l-101 -104 -45 7 c-55 8 -60 13 -67 62 -5 38 -5 39 134 173
194 189 367 340 400 350 38 11 63 12 63 2z m813 -6 c51 -15 189 -131 410 -346
l129 -124 -7 -46 c-8 -55 -13 -60 -61 -67 -39 -5 -40 -4 -174 134 -269 276
-360 390 -360 450 0 16 6 16 63 -1z m-2007 -42 c25 -15 44 -30 42 -34 -5 -14
-160 -121 -166 -115 -13 13 55 175 74 175 3 0 26 -12 50 -26z m3212 -16 c24
-39 57 -136 49 -144 -3 -4 -32 14 -64 38 -32 24 -71 52 -87 62 l-29 18 44 28
c24 16 49 29 56 29 6 1 20 -14 31 -31z m-1834 -89 c5 -34 -3 -69 -55 -217 -64
-185 -176 -472 -187 -483 -4 -4 -25 -10 -47 -13 -38 -6 -41 -4 -69 36 l-28 41
23 56 c39 96 133 300 202 438 53 106 74 137 104 158 21 14 41 25 44 25 4 0 9
-18 13 -41z m449 9 c26 -25 60 -84 130 -233 101 -214 177 -387 177 -405 0 -5
-10 -26 -22 -45 -24 -36 -38 -38 -109 -19 -18 5 -80 157 -180 439 -60 172 -73
235 -56 279 9 23 19 20 60 -16z m-1170 -135 c-87 -87 -176 -182 -198 -211 -38
-50 -42 -53 -75 -47 -103 17 -140 28 -140 38 0 7 9 47 18 91 l18 78 124 42
c112 38 228 85 360 145 25 11 46 21 48 21 1 0 -69 -71 -155 -157z m-473 127
c44 -23 44 -21 30 -71 -10 -34 -13 -36 -82 -52 -99 -21 -159 -27 -183 -18 -18
8 -17 12 22 47 33 31 157 114 171 114 1 0 21 -9 42 -20z m2315 -51 c66 -29
176 -72 245 -95 l125 -42 18 -63 c27 -100 23 -111 -48 -126 -100 -21 -106 -19
-150 40 -22 28 -107 119 -189 201 -82 82 -143 147 -135 144 8 -3 68 -30 134
-59z m594 3 c46 -31 91 -68 100 -81 l15 -24 -84 5 c-112 7 -169 25 -181 55
-23 61 -22 71 8 87 15 8 35 15 43 15 8 1 53 -25 99 -57z m-1495 6 c22 -39 25
-61 35 -223 16 -270 21 -479 13 -490 -4 -5 -22 -20 -40 -33 -37 -26 -57 -23
-96 13 l-27 25 6 157 c3 87 10 239 16 338 10 164 13 183 35 218 13 20 26 37
29 37 2 0 15 -19 29 -42z m-1428 -185 c-27 -110 -24 -106 -64 -98 -45 8 -162
62 -162 75 0 5 21 12 48 15 26 4 74 13 107 20 33 7 64 13 69 14 4 0 5 -11 2
-26z m2923 -7 c51 -8 95 -17 98 -20 8 -8 -45 -38 -113 -62 -48 -18 -66 -21
-69 -11 -22 66 -30 121 -17 113 5 -3 50 -12 101 -20z m-651 -341 c50 -38 53
-42 47 -75 -17 -103 -28 -140 -38 -140 -7 0 -47 9 -91 18 l-78 18 -42 124
c-23 69 -64 175 -90 235 -27 61 -55 125 -62 143 -11 24 28 -10 143 -125 87
-87 182 -176 211 -198z m-1458 181 c-33 -75 -78 -190 -99 -254 l-38 -117 -64
-18 c-100 -27 -111 -23 -126 48 -21 101 -19 105 45 155 31 24 120 108 197 186
77 77 141 140 142 139 1 0 -25 -63 -57 -139z m405 -173 c0 -115 4 -242 8 -284
l8 -76 -77 -53 -77 -53 -18 24 c-9 13 -31 46 -48 74 l-30 50 58 115 c32 63 84
181 116 263 31 81 58 147 59 147 1 0 2 -93 1 -207z m420 47 c32 -80 82 -195
113 -256 l55 -111 -46 -72 c-26 -39 -49 -71 -53 -71 -3 0 -37 21 -75 47 l-69
48 7 75 c5 41 8 168 7 282 0 114 1 207 2 205 1 -1 28 -67 59 -147z m-1472 40
c7 -6 -92 -179 -104 -180 -11 0 -19 91 -13 146 l7 54 51 -6 c28 -4 55 -10 59
-14z m2596 -85 c0 -119 -8 -120 -72 -15 -32 51 -56 94 -54 96 2 2 28 7 58 12
65 9 68 6 68 -93z m-2413 67 c6 -4 14 -27 17 -52 l6 -45 -58 -42 c-58 -42
-134 -82 -158 -83 -21 0 14 76 71 157 44 63 55 73 81 73 17 0 35 -4 41 -8z
m2195 -14 c31 -37 96 -151 103 -180 6 -26 5 -27 -19 -18 -46 18 -89 42 -147
84 -48 34 -57 46 -58 71 0 42 10 53 50 58 19 2 39 5 43 5 5 1 17 -8 28 -20z
m-37 -232 c48 -30 83 -56 79 -59 -21 -12 -90 -18 -139 -11 l-55 6 6 47 c7 51
12 71 19 71 2 0 43 -24 90 -54z m-2118 -12 c8 -69 3 -74 -91 -73 -118 1 -120
8 -19 71 49 31 92 57 96 57 4 1 10 -24 14 -55z m1615 -64 c35 -10 37 -12 52
-83 21 -94 28 -158 19 -180 -7 -16 -9 -16 -30 -1 -23 16 -87 105 -116 161 -16
31 -15 35 4 73 23 45 21 44 71 30z m-1144 -35 c16 -34 16 -37 -2 -68 -37 -66
-107 -157 -127 -168 -21 -11 -21 -10 -15 77 7 120 24 164 68 180 51 19 58 17
76 -21z m1319 -14 c16 -5 42 -12 58 -16 26 -6 28 -8 21 -43 -12 -69 -85 -200
-85 -154 0 18 -30 191 -36 206 -7 18 1 20 42 7z m-1536 -39 c-4 -16 -11 -58
-15 -93 -10 -87 -18 -99 -40 -65 -31 47 -67 156 -52 161 30 10 83 23 99 24 14
1 15 -4 8 -27z m787 -38 c26 -20 33 -32 33 -59 0 -71 -42 -225 -62 -225 -21 0
-67 155 -68 228 0 24 8 40 28 57 15 13 29 25 31 25 2 0 19 -11 38 -26z m-447
-133 c0 -20 -162 -93 -176 -78 -3 2 23 43 58 90 l63 86 27 -44 c16 -25 28 -49
28 -54z m944 6 c31 -43 56 -80 56 -83 0 -17 -125 26 -161 55 l-22 18 28 47
c15 26 31 46 35 44 5 -2 33 -38 64 -81z m-655 -68 c12 -56 25 -108 28 -115 3
-8 0 -14 -7 -14 -14 0 -150 135 -150 149 0 8 88 79 100 80 4 1 16 -45 29 -100z
m329 60 c23 -17 42 -35 42 -40 0 -15 -114 -129 -129 -129 -9 0 -11 7 -7 23 3
12 13 57 23 100 9 42 19 77 23 77 3 0 25 -14 48 -31z"/>
</g>
</svg>
