<?xml version="1.0" encoding="UTF-8" standalone="no"?>
<!-- Created with Inkscape (http://www.inkscape.org/) -->

<svg
   xmlns:dc="http://purl.org/dc/elements/1.1/"
   xmlns:cc="http://creativecommons.org/ns#"
   xmlns:rdf="http://www.w3.org/1999/02/22-rdf-syntax-ns#"
   xmlns:svg="http://www.w3.org/2000/svg"
   xmlns="http://www.w3.org/2000/svg"
   xmlns:sodipodi="http://sodipodi.sourceforge.net/DTD/sodipodi-0.dtd"
   xmlns:inkscape="http://www.inkscape.org/namespaces/inkscape"
   width="210mm"
   height="297mm"
   viewBox="0 0 210 297"
   version="1.1"
   id="svg8"
   inkscape:version="0.92.4 (5da689c313, 2019-01-14)"
   sodipodi:docname="drawing.svg">
  <defs
     id="defs2" />
  <sodipodi:namedview
     id="base"
     pagecolor="#ffffff"
     bordercolor="#666666"
     borderopacity="1.0"
     inkscape:pageopacity="0.0"
     inkscape:pageshadow="2"
     inkscape:zoom="0.7"
     inkscape:cx="381.94543"
     inkscape:cy="615.21037"
     inkscape:document-units="mm"
     inkscape:current-layer="layer1"
     showgrid="false"
     inkscape:window-width="1080"
     inkscape:window-height="1857"
     inkscape:window-x="1912"
     inkscape:window-y="-8"
     inkscape:window-maximized="1" />
  <metadata
     id="metadata5">
    <rdf:RDF>
      <cc:Work
         rdf:about="">
        <dc:format>image/svg+xml</dc:format>
        <dc:type
           rdf:resource="http://purl.org/dc/dcmitype/StillImage" />
        <dc:title></dc:title>
      </cc:Work>
    </rdf:RDF>
  </metadata>
  <g
     inkscape:label="Layer 1"
     inkscape:groupmode="layer"
     id="layer1">
    <g
       id="g4641"
       transform="translate(-13.985119,108.85714)">
      <path
         id="path4618"
         d="M 124.99405,47.211092 C 96.99102,43.499822 74.743609,25.004982 66.215008,-1.6533977 c -1.711526,-5.34983 -3.171837,-13.6946903 -3.171837,-18.1252703 0,-1.7509 0.371814,-2.07086 2.085557,-1.79468 0.922185,0.14862 0.959482,0.19764 1.020929,1.34172 0.95225,17.7299103 7.56966,32.894 19.636053,44.99687 11.460935,11.49559 26.04863,18.21253 42.47725,19.55874 2.03729,0.16695 3.80067,0.39713 3.91861,0.51151 0.11794,0.11439 0.17748,0.79014 0.13229,1.50167 l -0.0821,1.29368 -1.71979,0.0418 c -0.94589,0.023 -3.42893,-0.18471 -5.51787,-0.46156 z"
         style="fill:none;stroke:#ff0000;stroke-width:0.26458335"
         inkscape:connector-curvature="0" />
      <path
         id="path4614"
         d="m 134.47412,47.084452 c -0.78282,-2.05899 -0.28622,-2.40586 3.94577,-2.75606 14.02378,-1.16046 26.5187,-6.1119 37.20349,-14.74285 3.17857,-2.56759 8.36071,-7.8293 10.76134,-10.92658 8.18596,-10.5614997 12.84252,-22.6399497 13.98591,-36.27745 0.16335,-1.94829 0.3902,-3.63884 0.50411,-3.75678 0.11391,-0.11795 0.78926,-0.17748 1.50079,-0.13229 1.26266,0.0802 1.29576,0.104 1.38043,0.99354 0.12836,1.34854 -0.69337,8.16098 -1.41292,11.7135603 -2.15644,10.64691 -6.53146,20.2297897 -13.32162,29.1792197 -2.57953,3.39981 -9.20447,10.02475 -12.60429,12.60429 -10.79698,8.19195 -22.32063,12.8019 -35.90454,14.36335 -5.17958,0.59539 -5.72145,0.57188 -6.03847,-0.26195 z"
         style="fill:none;stroke:#ff0000;stroke-width:0.26458335"
         inkscape:connector-curvature="0" />
      <path
         id="path4610"
         d="M 128.26296,42.025562 C 100.22301,39.578612 76.925398,19.660522 70.448411,-7.4024977 69.147814,-12.836818 68.75595,-16.335858 68.744614,-22.616038 c -0.0104,-5.76394 0.20518,-8.10434 1.206413,-13.09687 4.950103,-24.68313 24.590438,-44.744146 49.183813,-50.237301 4.19503,-0.936998 10.92473,-1.753259 14.45514,-1.753298 3.14816,-3.4e-5 9.39654,0.738819 13.72298,1.622702 4.11073,0.839813 10.19435,2.97426 14.55209,5.105617 13.18303,6.447793 23.52047,16.78893 29.90575,29.91644 3.5828,7.36589 5.19021,13.01875 6.35354,22.34383 0.96874,7.76527 -0.20876,17.91654 -3.07736,26.5298603 -8.87007,26.6334797 -34.1637,44.6918497 -62.1157,44.3474697 -1.98549,-0.0245 -4.08623,-0.086 -4.66832,-0.13684 z"
         style="fill:none;stroke:#ff0000;stroke-width:0.26458335"
         inkscape:connector-curvature="0" />
      <path
         id="path4606"
         d="M 128.61361,30.306572 C 107.59169,28.258902 89.712978,14.030412 83.059063,-5.9472877 78.679027,-19.097898 79.605043,-33.280398 85.659011,-45.767078 c 8.931505,-18.42178 27.352959,-30.03021 47.655009,-30.03021 11.99303,0 22.87477,3.648866 32.44578,10.87972 2.81193,2.1244 7.83967,7.15214 9.96407,9.96407 5.73521,7.59132 9.27669,16.20144 10.51331,25.56019 0.56773,4.29659 0.37699,12.03333 -0.39866,16.16998 -3.87434,20.6623803 -19.24417,37.01352 -39.65798,42.19001 -4.93618,1.2517 -12.52774,1.83074 -17.56693,1.33989 z"
         style="fill:none;stroke:#ff0000;stroke-width:0.26458335"
         inkscape:connector-curvature="0" />
      <path
         id="path4602"
         d="m 102.15812,16.242362 c -1.72696,-0.63251 -1.00531,-1.81348 1.41343,-2.31307 0.90838,-0.18762 2.7167,-0.74197 4.01849,-1.23189 3.42358,-1.28845 4.85295,-2.8407697 6.08293,-6.6061497 0.85037,-2.60329 1.11072,-7.01144998 0.41409,-7.01144998 -0.12052,0 -0.45221,0.52693 -0.7371,1.17095 -1.18501,2.67892998 -3.91754,4.60702998 -5.50443,3.88398998 -0.84319,-0.38418 -0.7823,-1.19813 0.18056,-2.41385 0.98696,-1.24613998 1.58375,-2.63694998 1.58375,-3.69093 0,-0.44124 -0.0344,-0.80225 -0.0764,-0.80225 -0.042,0 -0.54342,0.23813 -1.11428,0.52917 -1.23513,0.62971 -3.21431,0.69109 -4.99576,0.15496 -3.27299,-0.98503 -6.200427,-4.82169 -7.991616,-10.4737103 -1.279483,-4.03735 -2.033717,-5.03231 -3.806391,-5.02127 -0.513324,0.003 -1.452333,0.24132 -2.086687,0.52916 -2.218243,1.00655 -3.155215,0.40764 -2.272488,-1.45257 0.836701,-1.76321 2.894346,-3.0482 4.881068,-3.0482 3.105245,0 5.643676,2.70132 7.097691,7.55316 1.086623,3.62588 2.298723,4.6472803 5.728603,4.8273103 1.79452,0.0942 2.33082,0.0232 3.19773,-0.4234 2.20851,-1.1376903 3.71544,-3.5088103 4.61522,-7.2619803 0.28804,-1.20148 0.52455,-2.70888 0.52557,-3.34979 0.002,-1.08832 -0.10236,-1.25959 -1.57622,-2.59335 -3.10182,-2.80698 -6.08104,-7.44159 -7.36345,-11.45491 -0.90676,-2.83772 -1.18922,-4.7359 -1.18113,-7.9375 0.013,-5.13723 1.41835,-9.6695 4.36375,-14.07291 4.67178,-6.98439 11.95609,-11.47618 21.34945,-13.1649 3.82564,-0.68776 6.79705,-0.6878 10.62308,-1.2e-4 12.56428,2.25826 21.92406,10.214 24.88568,21.15265 0.85641,3.16313 0.8589,9.42023 0.005,12.56758 -0.63544,2.34214 -2.12851,5.6369 -3.58926,7.92043 -1.23485,1.93037 -4.83744,5.6752 -6.95642,7.23106 l -1.66488,1.22244 0.003,2.26408 c 0.003,2.82815 0.64856,4.35714 2.60912,6.18175 2.31293,2.1525503 4.40175,2.7479703 6.72862,1.9179903 1.90631,-0.67997 3.14589,-1.8339503 5.83322,-5.4304403 4.35617,-5.82999 4.95925,-6.35835 7.25748,-6.35835 1.68631,0 3.34727,1.07793 4.7102,3.05684 0.91917,1.33459 0.96755,1.49146 0.57969,1.87933 -0.55668,0.55667 -1.65808,0.18814 -3.19047,-1.06754 -2.23561,-1.83191 -3.36987,-1.42844 -5.18594,1.84471 -3.51059,6.3272403 -4.47618,7.9385903 -5.57301,9.3000703 -2.44117,3.03018 -4.53437,4.03659 -8.39562,4.03659 -1.45772,0 -2.20094,0.1008 -2.20094,0.29852 0,0.16418 0.34739,0.90833002 0.77197,1.65364002 1.32409,2.32431998 1.40125,4.39783998 0.16365,4.39783998 -0.70342,0 -1.98016,-1.32751 -2.7748,-2.88514 -0.54059,-1.05963998 -1.07465,-1.43180998 -1.70662,-1.18929998 -0.95029,0.36466 -0.55985,2.89796998 0.7406,4.80522998 1.23355,1.80915 3.45055,3.17974 7.16495,4.42952 3.37442,1.1353697 3.8957,1.5895497 2.71349,2.3641597 -2.4652,1.61526 -8.87254,0.75841 -13.09394,-1.75106 -3.83971,-2.2825597 -7.20846,-7.5802497 -7.20846,-11.33600968 0,-1.28864002 -0.43333,-2.45045002 -0.86153,-2.30987002 -0.68924,0.22629 -1.48578,1.86928 -1.79498,3.70243002 -0.27235,1.61467998 -0.25327,2.32391998 0.12498,4.64535998 0.47634,2.92345 0.36422,3.49343 -0.68721,3.49343 -0.78165,0 -3.04519,-2.28487 -3.80789,-3.84378 -0.37569,-0.76787 -0.85531,-2.44958 -1.06584,-3.73712 -0.21052,-1.28753998 -0.44577,-2.72793 -0.52277,-3.20087 -0.22011,-1.352 -0.54994,-1.01916 -1.04875,1.05833 -0.9886,4.11737 -2.52733,6.86345 -4.57268,8.16057 -1.28366,0.81407 -2.86702,1.02209 -3.4375,0.45162 -0.47935,-0.47935 -0.38777,-1.28664 0.37308,-3.28902 0.62264,-1.63864 0.67662,-2.06472 0.54866,-4.33097998 -0.25614,-4.53650002 -1.22577,-5.66448002 -1.57367,-1.83066002 -0.60852,6.70581 -3.93524,12.7784997 -8.44954,15.4240497 -3.59823,2.1087 -10.87123,3.63563 -13.21984,2.77542 z"
         style="fill:none;stroke:#ff0000;stroke-width:0.26458335"
         inkscape:connector-curvature="0" />
      <path
         id="path4598"
         d="m 131.39144,-21.922688 c -3.43866,-1.12463 -5.6775,-4.02306 -5.72885,-7.41668 -0.032,-2.1166 0.65566,-4.05914 1.9626,-5.54391 3.82359,-4.34383 10.82838,-3.24408 13.25349,2.08078 0.8912,1.95681 0.84878,4.82042 -0.098,6.61459 -1.83791,3.48299 -6.00002,5.37369 -9.38928,4.26522 z"
         style="fill:none;stroke:#ff0000;stroke-width:0.26458335"
         inkscape:connector-curvature="0" />
      <path
         id="path4594"
         d="m 131.4115,-27.484368 c -0.76785,-0.76786 -0.89958,-1.08168 -0.89958,-2.14313 0,-1.06144 0.13173,-1.37527 0.89958,-2.14312 0.75789,-0.75788 1.0881,-0.89959 2.09637,-0.89959 2.21553,0 3.79886,2.12742 3.00227,4.03394 -0.55905,1.33797 -1.60858,2.05148 -3.01765,2.05148 -0.99078,0 -1.32656,-0.14515 -2.08099,-0.89958 z"
         style="fill:none;stroke:#ff0000;stroke-width:0.26458335"
         inkscape:connector-curvature="0" />
      <path
         id="path4590"
         d="m 114.90339,-38.104228 c -4.47117,-2.0093 -4.15138,-8.31772 0.50062,-9.87527 1.71035,-0.57265 3.51147,-0.18069 4.9422,1.0755 1.28457,1.12787 1.78023,2.20588 1.80009,3.91504 0.0209,1.80143 -0.79748,3.38141 -2.28578,4.4128 -1.28269,0.8889 -3.54913,1.10467 -4.95713,0.47193 z"
         style="fill:none;stroke:#ff0000;stroke-width:0.26458335"
         inkscape:connector-curvature="0" />
      <path
         id="path4586"
         d="m 148.88952,-38.194618 c -2.85939,-1.29883 -3.9086,-5.02788 -2.15868,-7.67219 0.9501,-1.43571 3.1913,-2.5315 4.80549,-2.34956 2.9629,0.33397 5.15019,2.98369 4.81302,5.83058 -0.42285,3.57035 -4.17977,5.6811 -7.45983,4.19117 z"
         style="fill:none;stroke:#ff0000;stroke-width:0.26458335"
         inkscape:connector-curvature="0" />
      <path
         id="path4582"
         d="m 63.21956,-23.850758 c -0.490426,-0.49043 0.08061,-7.07151 1.048783,-12.08699 5.9307,-30.7232 31.49709,-53.943406 62.539407,-56.800282 1.81901,-0.167407 3.78355,-0.26399 4.36563,-0.21463 1.04277,0.08843 1.05954,0.106569 1.14065,1.233779 0.0453,0.629218 -0.0435,1.295653 -0.19732,1.480967 -0.17842,0.214986 -1.35735,0.398972 -3.25731,0.508343 -13.18441,0.758962 -26.5902,5.927613 -37.361466,14.404848 -2.404001,1.892004 -8.892277,8.380275 -10.784281,10.784285 -8.461656,10.75147 -13.635932,24.15202 -14.398027,37.28859 -0.09304,1.60381 -0.286674,3.06485 -0.430292,3.24675 -0.271077,0.34334 -2.356063,0.46405 -2.665774,0.15434 z"
         style="fill:none;stroke:#ff0000;stroke-width:0.26458335"
         inkscape:connector-curvature="0" />
      <path
         id="path4578"
         d="m 200.76739,-23.991168 c -0.0648,-0.18956 -0.24714,-1.93581 -0.40522,-3.88054 -0.72613,-8.93253 -2.80408,-16.47694 -6.75075,-24.50995 -4.02552,-8.19351 -9.48491,-15.30317 -16.1492,-21.030778 -11.86844,-10.200305 -25.53568,-15.606896 -41.65015,-16.476284 -1.06487,-0.05745 -1.20454,-0.142512 -1.40802,-0.857527 -0.13812,-0.485336 -0.11826,-1.076464 0.0511,-1.521355 0.25805,-0.677834 0.38151,-0.727582 1.8049,-0.727283 0.84035,1.77e-4 3.13525,0.186412 5.09978,0.413856 29.77824,3.447587 54.25721,25.475691 60.69614,54.619161 0.80919,3.66251 1.80179,11.25318 1.69216,12.94045 l -0.0789,1.21476 -1.39202,0.0801 c -0.96544,0.0555 -1.42811,-0.0256 -1.5098,-0.26458 z"
         style="fill:none;stroke:#ff0000;stroke-width:0.26458335"
         inkscape:connector-curvature="0" />
    </g>
    <g
       id="g4628"
       transform="translate(-36.663691,48.002976)">
      <path
         id="path4574"
         d="m 104.6616,237.9212 c -9.702309,-1.10801 -15.360741,-2.74638 -22.049225,-6.38423 -10.045327,-5.46363 -17.816452,-13.62505 -22.780978,-23.92512 -2.963874,-6.14925 -4.599966,-12.26573 -5.196318,-19.42628 -0.449194,-5.39359 0.268792,-12.34907 1.876748,-18.18097 1.778913,-6.45194 5.60495,-13.87915 9.776809,-18.979 10.470476,-12.79955 25.342853,-19.90043 41.680254,-19.90043 8.49181,0 15.78891,1.65229 23.17562,5.24768 12.53131,6.09946 21.79983,16.19849 26.86927,29.27688 3.46235,8.93233 4.28027,20.27278 2.17025,30.09045 -3.33699,15.52666 -13.08665,28.36211 -27.4766,36.17301 -4.57474,2.48319 -11.21422,4.62394 -17.01012,5.48455 -2.82331,0.41922 -9.2706,0.72504 -11.03571,0.52346 z"
         style="fill:none;stroke:#ff0000;stroke-width:0.26458335"
         inkscape:connector-curvature="0" />
      <path
         id="path4570"
         d="m 132.80354,219.53965 c -1.0275,-0.50861 -1.85538,-1.65949 -2.32376,-3.2304 -0.14945,-0.50122 -0.60978,-0.73175 -2.66714,-1.33568 -2.76411,-0.8114 -6.98228,-2.10255 -9.65729,-2.95601 -1.52797,-0.4875 -3.67109,-1.14697 -4.7625,-1.46548 -1.0914,-0.31852 -2.49042,-0.744 -3.10892,-0.94552 -1.87792,-0.61185 -3.08567,-0.70699 -4.70568,-0.37068 -0.85061,0.17659 -1.73225,0.41306 -1.95921,0.5255 -0.22695,0.11244 -1.78187,0.59534 -3.45536,1.07311 -7.298513,2.08365 -10.584728,3.07515 -10.754297,3.24472 -0.1,0.1 -0.459621,0.18181 -0.799171,0.18181 -0.541824,0 -0.61736,0.12697 -0.61736,1.03776 0,0.76324 -0.229368,1.34068 -0.867051,2.18281 -1.148048,1.51614 -2.363044,2.13486 -3.886718,1.97926 -1.629011,-0.16635 -2.389981,-1.06352 -2.389981,-2.81772 0,-0.71091 0.13884,-1.37836 0.308533,-1.48323 0.210312,-0.12999 0.09829,-0.36659 -0.351885,-0.74322 -2.817845,-2.35753 -2.216473,-6.24108 0.966435,-6.24108 1.318533,0 1.953612,0.24958 3.134215,1.2317 0.412504,0.34316 0.847174,0.56387 0.965935,0.49047 0.226698,-0.14011 4.647301,-1.42563 9.131975,-2.6556 1.455208,-0.39911 2.750275,-0.81994 2.877926,-0.93518 0.127653,-0.11525 -0.289065,-0.34102 -0.926042,-0.50171 -0.636974,-0.1607 -1.93204,-0.51963 -2.877926,-0.79763 -2.858484,-0.84011 -5.343768,-1.54868 -6.879166,-1.96131 -0.800365,-0.21509 -2.096688,-0.5713 -2.880718,-0.79157 -1.415801,-0.39778 -1.431816,-0.39569 -2.35205,0.30621 -0.744784,0.56807 -1.269646,0.72373 -2.675536,0.7935 -2.032275,0.10085 -3.158085,-0.42518 -3.874341,-1.81026 -0.568111,-1.09861 -0.323794,-1.98088 0.856896,-3.09441 0.705649,-0.66552 0.868267,-0.96669 0.643376,-1.19158 -0.165528,-0.16553 -0.300961,-0.92352 -0.300961,-1.68442 0,-1.21704 0.111125,-1.50128 0.923825,-2.36299 0.851916,-0.90329 1.01423,-0.96935 2.085263,-0.84863 0.638792,0.072 1.461233,0.35549 1.827652,0.62997 0.760037,0.56935 1.734997,2.30141 1.839566,3.26808 0.07879,0.72836 1.095801,1.08956 10.389319,3.6899 4.219464,1.18061 10.680107,3.0374 12.035707,3.45906 1.25152,0.38929 1.61741,0.40487 2.64583,0.11266 0.65641,-0.18652 2.74128,-0.7677 4.63305,-1.29152 1.89177,-0.52382 4.09442,-1.13467 4.89479,-1.35744 0.80036,-0.22277 2.52677,-0.69501 3.83646,-1.04942 1.30968,-0.35441 3.86953,-1.07391 5.68854,-1.5989 1.81901,-0.52499 3.81698,-1.08152 4.43993,-1.23674 0.95468,-0.23787 1.21208,-0.4516 1.63818,-1.36025 0.27805,-0.59292 0.66132,-1.2681 0.85173,-1.50039 0.64149,-0.78262 2.01815,-1.29743 3.46943,-1.29743 1.16757,0 1.56383,0.12429 2.1612,0.67792 0.67285,0.62358 0.72116,0.79856 0.6026,2.18281 -0.12438,1.45213 -0.093,1.54411 0.89464,2.62346 0.89886,0.98231 1.02354,1.27757 1.02354,2.42387 0,1.13277 -0.10761,1.39586 -0.81405,1.99029 -1.44971,1.21984 -3.83066,0.8812 -5.55069,-0.78948 l -0.94078,-0.91379 -4.35089,1.21351 c -2.39299,0.66743 -5.12479,1.43012 -6.07068,1.69487 -3.65864,1.02404 -5.72449,1.56916 -6.61458,1.74538 -0.50932,0.10085 -1.16089,0.34673 -1.44793,0.54642 -0.48808,0.33954 -0.49038,0.36307 -0.0355,0.36307 0.26751,0 1.03814,0.18136 1.71252,0.40303 2.96793,0.97556 11.18305,3.30114 11.66129,3.30114 0.28953,0 0.65366,-0.23774 0.80917,-0.52831 0.42385,-0.79197 2.20107,-1.58836 3.54457,-1.58836 1.51533,0 2.31986,0.31343 3.17685,1.23766 1.01235,1.09178 0.94256,2.44157 -0.19247,3.72251 -0.81118,0.91547 -0.86056,1.07114 -0.63287,1.99487 0.27819,1.12857 0.0622,3.01703 -0.41782,3.65378 -0.317,0.42047 -1.82048,1.29762 -2.22351,1.29722 -0.11637,-1.1e-4 -0.70411,-0.24401 -1.3061,-0.54199 z"
         style="fill:none;stroke:#ff0000;stroke-width:0.26458335"
         inkscape:connector-curvature="0" />
      <path
         id="path4566"
         d="m 103.29004,200.36585 c -0.0875,-0.0875 -1.49724,-0.33431 -3.13277,-0.54848 -7.256665,-0.95025 -14.137551,-4.41485 -18.332258,-9.23049 -2.150189,-2.46848 -3.129841,-4.20201 -3.890518,-6.8844 -0.874424,-3.08351 -0.591233,-8.6525 0.460521,-9.0561 0.210187,-0.0807 1.019643,0.006 1.798793,0.1932 1.511321,0.36256 1.744954,0.65407 2.119302,2.64435 0.282284,1.5008 1.855459,4.55154 3.042494,5.90009 2.481839,2.81951 6.443488,4.00589 9.887741,2.96103 3.030966,-0.91949 5.560755,-4.03702 7.182475,-8.85121 0.3168,-0.94044 0.74109,-1.79436 0.94287,-1.8976 0.20178,-0.10325 1.97421,-0.31252 3.93875,-0.46505 8.05576,-0.62545 15.70026,-2.11927 23.22892,-4.53919 1.78908,-0.57506 3.47711,-1.04557 3.75116,-1.04557 0.61881,0 1.79533,2.39308 2.66661,5.42396 0.82725,2.87771 0.85368,7.20065 0.0584,9.55116 -0.87665,2.59097 -1.55603,3.75312 -3.77337,6.45466 -3.71562,4.52701 -10.13742,7.79587 -17.49635,8.90607 -2.93804,0.44325 -12.1359,0.80042 -12.45276,0.48357 z"
         style="fill:none;stroke:#ff0000;stroke-width:0.26458335"
         inkscape:connector-curvature="0" />
      <path
         id="path4562"
         d="m 102.28035,193.00394 c 0,-0.49207 0.21462,-0.68388 1.04283,-0.93202 0.90447,-0.27098 2.95107,-2.14034 2.91573,-2.66322 -0.006,-0.0829 -0.39256,-0.39081 -0.8599,-0.68414 -0.91953,-0.57716 -1.22009,-1.50681 -0.69264,-2.14235 1.30309,-1.57012 6.37027,-1.49209 7.54629,0.11621 0.59618,0.81533 -0.24193,2.42718 -1.26207,2.42718 -1.19475,0 0.16562,1.87982 2.01527,2.78476 1.7234,0.84319 1.89662,1.52664 0.4226,1.66738 -1.59544,0.15234 -2.58607,-0.2025 -3.92427,-1.40566 l -1.30145,-1.17011 -0.5551,0.75082 c -0.76448,1.03401 -2.6018,1.87073 -4.10791,1.87073 -1.12327,0 -1.23938,-0.0581 -1.23938,-0.61958 z"
         style="fill:none;stroke:#ff0000;stroke-width:0.26458335"
         inkscape:connector-curvature="0" />
      <path
         id="path4558"
         d="m 121.98835,185.47467 c -1.51403,-0.52354 -3.58107,-1.67984 -4.08207,-2.28351 -0.50038,-0.60292 -0.175,-1.44444 1.13535,-2.9363 1.74198,-1.98327 3.55744,-2.87791 5.8606,-2.88803 2.81594,-0.0124 6.20771,1.46526 6.21443,2.70733 0.01,1.81417 -2.64707,4.82781 -4.82703,5.47519 -1.72324,0.51175 -2.65203,0.49562 -4.30128,-0.0747 z"
         style="fill:none;stroke:#ff0000;stroke-width:0.26458335"
         inkscape:connector-curvature="0" />
      <path
         id="path4554"
         d="m 87.441637,173.94213 c -0.06063,-0.0562 -1.777119,-0.24125 -3.81441,-0.41119 -2.037292,-0.16994 -3.912526,-0.37009 -4.167188,-0.44478 -0.690996,-0.20267 -0.572029,-1.22221 0.357476,-3.06355 l 0.820497,-1.62539 -1.050163,-2.00509 c -0.577588,-1.10279 -1.369587,-2.95757 -1.759993,-4.12174 -0.390408,-1.16417 -0.833604,-2.47386 -0.984882,-2.91042 -0.151278,-0.43656 -0.339095,-2.2316 -0.417372,-3.98898 l -0.142322,-3.19524 0.731094,-0.57508 c 0.890024,-0.70009 2.309201,-0.74746 4.673253,-0.156 1.667076,0.41709 4.899816,1.48598 5.90835,1.95358 0.967806,0.4487 4.006953,1.5961 4.227663,1.5961 0.119568,0 1.171337,-0.61193 2.337266,-1.35984 2.841799,-1.82294 6.025114,-3.24896 8.119444,-3.63724 0.94589,-0.17537 2.32792,-0.4474 3.07119,-0.60452 1.43346,-0.30303 3.6623,-0.20177 6.40245,0.29087 3.21748,0.57846 5.73853,1.646 9.28184,3.93041 l 2.21901,1.43063 4.13099,-1.59267 c 4.48665,-1.7298 5.99835,-2.16039 8.23656,-2.34608 1.22476,-0.10161 1.58145,-0.0254 2.21579,0.47361 l 0.75605,0.59471 -0.11904,3.51005 c -0.0655,1.93054 -0.24216,3.66639 -0.39263,3.85746 -0.15047,0.19107 -0.35064,0.75309 -0.44482,1.24893 -0.23911,1.25893 -1.97293,5.28228 -2.69997,6.26534 -0.49379,0.66767 -1.05467,0.94932 -3.07088,1.54202 -1.35671,0.39883 -3.06206,0.9063 -3.78966,1.12772 -9.36884,2.85101 -20.76445,4.3186 -33.533454,4.3186 -3.845544,0 -7.041507,-0.046 -7.102139,-0.10222 z"
         style="fill:none;stroke:#ff0000;stroke-width:0.26458335"
         inkscape:connector-curvature="0" />
      <path
         id="path4550"
         d="m 82.205898,162.84002 c -1.101198,-2.64519 -1.550011,-5.39007 -1.049538,-6.41884 0.347411,-0.71414 0.470982,-0.76349 1.845871,-0.73723 1.315066,0.0251 4.733104,0.98743 6.093727,1.71561 0.814102,0.43569 0.545724,1.09731 -1.117195,2.75416 -0.876322,0.87313 -2.091968,2.27211 -2.701439,3.10886 -1.5626,2.1453 -2.029145,2.08111 -3.071426,-0.42256 z"
         style="fill:none;stroke:#ff0000;stroke-width:0.26458335"
         inkscape:connector-curvature="0" />
      <path
         id="path4546"
         d="m 129.74398,163.12369 c -0.68401,-0.90588 -1.9044,-2.29783 -2.71198,-3.09322 -0.80757,-0.79539 -1.46831,-1.65554 -1.46831,-1.91144 0,-0.57935 0.8468,-1.02088 3.65167,-1.90397 2.68407,-0.84506 4.15391,-0.90325 4.5411,-0.17977 0.61025,1.14026 0.2218,3.95767 -0.95997,6.9627 -0.91943,2.33793 -1.36815,2.35641 -3.05251,0.1257 z"
         style="fill:none;stroke:#ff0000;stroke-width:0.26458335"
         inkscape:connector-curvature="0" />
    </g>
  </g>
</svg>
