<?xml version="1.0" encoding="UTF-8" standalone="no"?>
<svg
   xmlns:dc="http://purl.org/dc/elements/1.1/"
   xmlns:cc="http://creativecommons.org/ns#"
   xmlns:rdf="http://www.w3.org/1999/02/22-rdf-syntax-ns#"
   xmlns:svg="http://www.w3.org/2000/svg"
   xmlns="http://www.w3.org/2000/svg"
   xmlns:sodipodi="http://sodipodi.sourceforge.net/DTD/sodipodi-0.dtd"
   xmlns:inkscape="http://www.inkscape.org/namespaces/inkscape"
   version="1.0"
   width="1052.3622"
   height="744.09448"
   viewBox="0 0 841.88975 595.27559"
   preserveAspectRatio="xMidYMid meet"
   id="svg2"
   inkscape:version="0.48.4 r9939"
   sodipodi:docname="hear.svg">
  <defs
     id="defs12" />
  <sodipodi:namedview
     pagecolor="#ffffff"
     bordercolor="#666666"
     borderopacity="1"
     objecttolerance="10"
     gridtolerance="10"
     guidetolerance="10"
     inkscape:pageopacity="0"
     inkscape:pageshadow="2"
     inkscape:window-width="640"
     inkscape:window-height="480"
     id="namedview10"
     showgrid="false"
     inkscape:zoom="0.35757576"
     inkscape:cx="1336.0225"
     inkscape:cy="-740.44021"
     inkscape:current-layer="svg2" />
  <metadata
     id="metadata4">
Created by potrace 1.11, written by Peter Selinger 2001-2013
<rdf:RDF>
  <cc:Work
     rdf:about="">
    <dc:format>image/svg+xml</dc:format>
    <dc:type
       rdf:resource="http://purl.org/dc/dcmitype/StillImage" />
    <dc:title></dc:title>
  </cc:Work>
</rdf:RDF>
</metadata>
  <g
     transform="matrix(0.11084246,0,0,-0.11084246,83.724234,573.35033)"
     id="g6"
     style="fill:#000000;stroke:none">
    <path
       d="m 2957,4958 c -24,-19 -38,-64 -27,-92 11,-30 57,-66 83,-66 18,0 15,-6 -20,-42 -98,-102 -117,-170 -68,-242 14,-21 25,-47 26,-59 0,-43 -14,-127 -21,-127 -4,0 -32,23 -61,51 -109,103 -274,221 -418,298 -99,54 -151,74 -291,114 -84,24 -261,37 -365,26 -49,-5 -152,-13 -227,-18 -131,-7 -139,-9 -222,-49 -174,-83 -335,-210 -521,-410 -111,-119 -144,-175 -213,-357 -92,-241 -102,-373 -44,-535 11,-30 32,-107 47,-170 41,-172 99,-339 171,-489 63,-132 73,-164 54,-176 -16,-10 -11,-61 8,-77 9,-9 26,-18 37,-20 20,-3 27,-17 70,-159 26,-83 29,-89 121,-183 52,-53 106,-120 121,-149 25,-46 28,-64 29,-156 2,-98 14,-142 32,-115 8,11 108,54 128,54 18,0 21,-6 49,-104 14,-48 37,-105 52,-127 51,-77 159,-138 349,-198 56,-18 109,-40 119,-51 9,-10 21,-38 26,-61 9,-37 26,-81 76,-187 33,-71 102,-128 218,-182 176,-82 245,-145 276,-249 8,-27 21,-47 35,-53 27,-13 40,-44 49,-117 15,-131 88,-282 177,-367 94,-89 118,-93 205,-30 90,66 157,154 193,254 16,46 30,88 30,95 0,7 5,29 11,50 10,37 12,39 44,33 l 33,-7 41,83 c 22,46 46,90 53,98 15,18 109,76 178,109 73,36 202,133 236,178 18,23 42,71 54,107 21,64 22,65 98,110 42,24 113,54 157,66 132,36 217,89 269,164 20,28 42,60 51,71 8,12 19,49 23,83 5,34 12,65 15,69 4,3 27,-3 51,-15 24,-12 48,-22 53,-22 15,0 38,38 56,91 41,117 84,178 161,226 54,34 122,99 147,140 12,19 29,64 38,101 14,59 20,69 61,97 47,34 49,40 34,113 -5,27 -2,38 19,60 34,36 175,296 215,397 33,84 76,226 88,291 4,22 18,62 33,89 24,46 26,59 25,170 -1,145 -27,278 -99,515 -27,85 -53,129 -114,190 -31,31 -74,82 -96,114 -59,86 -128,150 -243,227 -93,62 -353,209 -370,209 -11,0 -226,59 -322,88 -76,24 -102,26 -250,27 -149,0 -175,-3 -275,-28 -134,-35 -306,-101 -343,-131 -15,-13 -65,-49 -112,-81 -47,-32 -110,-80 -141,-107 l -57,-48 -5,42 c -2,25 2,62 11,88 19,56 11,93 -28,132 -25,24 -33,27 -50,18 -25,-13 -25,-38 0,-70 21,-28 41,-19 22,10 -15,24 -15,40 -2,40 6,0 17,-15 26,-33 13,-27 14,-41 5,-75 -7,-25 -18,-42 -26,-42 -8,0 -15,5 -15,11 0,5 -4,8 -9,5 -13,-8 -60,58 -67,93 -7,35 30,104 87,160 43,44 69,97 69,144 0,61 -78,108 -123,75 z m 77,-48 19,-32 -21,11 c -25,13 -38,-1 -17,-19 35,-29 1,-55 -36,-27 -46,36 -27,113 26,102 5,-1 18,-16 29,-35 z m -874,-143 c 25,-8 76,-25 114,-37 38,-12 92,-35 120,-51 l 51,-31 -235,7 c -129,4 -253,8 -275,10 -96,8 -259,-26 -354,-74 -121,-62 -237,-214 -287,-376 -15,-49 -18,-90 -17,-221 2,-160 2,-161 -21,-172 -22,-10 -25,-7 -44,36 -50,112 -44,317 15,497 19,58 86,167 151,243 83,98 176,154 307,182 69,15 423,6 475,-13 z m -744,-34 c -21,-21 -65,-73 -97,-115 -32,-42 -73,-87 -90,-99 -18,-12 -74,-58 -126,-101 -52,-43 -98,-78 -104,-78 -15,0 -10,35 11,85 11,26 18,51 14,56 -19,31 162,173 316,247 106,52 126,53 76,5 z m 2764,-13 c 77,-16 284,-119 347,-172 110,-92 185,-201 242,-353 60,-159 73,-323 39,-465 -15,-64 -21,-67 -76,-41 l -49,23 -5,177 c -5,159 -8,183 -32,246 -62,162 -157,256 -379,373 -123,65 -156,72 -361,72 -231,1 -436,19 -436,39 0,11 208,78 295,95 39,8 81,17 95,20 41,8 261,-2 320,-14 z m -2092,-95 c 12,-10 12,-14 0,-24 -19,-16 -109,-74 -142,-91 -16,-8 -43,-28 -59,-45 -17,-16 -38,-34 -47,-40 -9,-5 -43,-28 -76,-49 -97,-65 -188,-99 -266,-100 -60,-1 -70,2 -94,25 -24,25 -25,28 -11,60 51,121 261,259 427,280 79,10 252,0 268,-16 z m 2579,-61 c 100,-50 201,-114 274,-175 39,-32 50,-50 67,-106 24,-79 36,-173 26,-205 -6,-21 -7,-21 -23,8 -33,61 -100,141 -170,203 -40,35 -92,92 -117,126 -24,34 -78,95 -120,135 -86,82 -78,84 63,14 z m -2467,-19 c -14,-25 -28,-45 -32,-45 -15,0 -66,-117 -78,-178 l -13,-63 -29,30 c -16,17 -27,35 -23,41 3,5 2,10 -3,10 -6,0 -9,6 -9,13 1,6 -2,41 -6,77 -5,36 -5,73 -2,82 9,24 102,68 162,77 26,4 50,6 53,4 2,-2 -7,-24 -20,-48 z m 301,41 c 71,-11 83,-17 180,-88 57,-42 130,-101 161,-131 l 57,-54 -47,-46 -47,-46 -40,27 c -22,15 -56,39 -75,53 -102,78 -280,160 -408,189 l -54,12 48,49 c 45,46 51,49 99,48 27,0 84,-6 126,-13 z m 1661,-61 c 79,-28 238,-118 293,-167 52,-45 125,-147 125,-173 0,-14 -7,-26 -17,-29 -112,-31 -242,9 -424,130 -84,56 -99,71 -124,120 -20,40 -38,60 -60,69 -41,18 -69,50 -61,71 10,26 171,13 268,-21 z m -534,-16 c 63,-39 102,-71 96,-80 -3,-5 -26,-9 -52,-9 -98,-1 -215,-27 -277,-63 -97,-55 -173,-103 -209,-131 l -34,-25 -46,53 c -25,30 -46,59 -46,64 0,15 149,138 201,167 77,41 144,56 242,51 68,-4 96,-10 125,-27 z m 204,-14 c 117,-42 128,-50 128,-93 0,-37 -33,-110 -77,-168 l -21,-28 -7,57 c -4,31 -11,60 -16,63 -5,3 -9,14 -9,25 0,27 -34,92 -71,134 -39,44 -25,45 73,10 z m -2607,-34 c 3,-5 -7,-40 -21,-78 -15,-37 -34,-99 -43,-137 -18,-76 -40,-100 -101,-111 -52,-9 -90,23 -90,76 0,46 36,90 159,196 76,64 86,70 96,54 z m 1165,-27 c 98,-34 189,-82 290,-152 108,-74 115,-85 90,-137 -11,-22 -32,-60 -48,-85 -23,-39 -56,-113 -75,-172 -3,-9 -27,-31 -54,-49 -26,-18 -91,-71 -143,-117 -130,-116 -252,-170 -347,-155 -32,5 -63,-9 -63,-29 0,-5 23,-34 51,-64 71,-74 132,-89 264,-62 81,16 86,7 79,-131 -3,-58 -12,-130 -19,-159 -16,-62 -57,-137 -88,-156 -27,-18 -82,-25 -83,-11 0,6 -10,30 -22,55 -12,25 -22,61 -22,80 -1,100 -40,107 -132,24 -20,-18 -54,-37 -75,-43 -44,-12 -305,-17 -322,-7 -13,8 -16,216 -3,216 18,0 94,74 111,109 10,20 24,61 31,91 7,30 19,63 27,72 9,9 47,29 87,44 85,33 100,42 132,85 26,36 32,94 14,146 -7,19 -7,38 -1,55 8,22 18,27 68,33 32,4 74,15 94,26 45,23 89,73 89,103 0,36 -64,92 -121,106 -27,7 -56,19 -64,27 -33,33 -9,195 41,271 15,23 20,24 78,19 34,-3 95,-18 136,-33 z m 628,4 c 13,-16 19,-89 8,-106 -4,-7 -18,-12 -32,-12 -22,0 -24,4 -24,43 0,77 20,108 48,75 z m -1068,-55 c 13,-62 49,-143 63,-143 5,0 27,-15 49,-34 22,-20 74,-47 118,-62 83,-30 100,-47 100,-103 0,-56 -82,-111 -166,-111 -54,0 -137,44 -181,96 -80,93 -96,244 -38,359 16,30 32,55 36,55 4,0 13,-26 19,-57 z M 939,4260 c 2,-70 28,-146 56,-156 22,-9 57,-9 83,0 20,7 22,4 22,-29 0,-79 -74,-165 -141,-165 -71,0 -139,115 -132,221 8,134 13,156 39,204 15,28 34,58 43,69 15,17 16,15 23,-30 3,-27 7,-78 7,-114 z m 2819,139 c 32,-11 59,-57 49,-83 -3,-8 1,-38 9,-68 30,-114 16,-148 -60,-148 -40,0 -89,-23 -124,-57 -32,-33 -30,-92 4,-132 27,-32 88,-64 145,-76 61,-12 69,-16 69,-34 0,-10 -7,-25 -16,-32 -24,-20 -15,-144 14,-194 12,-20 22,-44 22,-54 0,-25 -53,-46 -110,-45 -50,0 -165,22 -192,36 -9,4 -55,53 -102,107 -47,54 -105,111 -130,127 -40,25 -47,35 -67,99 -12,38 -28,82 -35,96 -7,15 -16,41 -19,60 -3,18 -17,55 -30,82 -13,27 -21,57 -18,66 10,28 66,82 108,103 22,11 47,26 55,33 52,46 142,83 227,95 85,12 167,26 169,29 1,0 15,-4 32,-10 z m -1912,-31 c -12,-28 -24,-76 -41,-164 -3,-14 -24,-30 -61,-48 -78,-37 -133,-43 -191,-21 -44,17 -133,88 -133,106 0,5 22,7 48,5 71,-5 182,33 283,98 101,65 113,68 95,24 z m 2206,-153 c 19,-61 13,-154 -12,-207 -25,-53 -85,-113 -135,-134 -51,-21 -142,-18 -190,7 -125,64 -107,161 35,188 117,23 187,77 245,190 17,33 18,34 31,16 8,-11 20,-38 26,-60 z m -2544,-83 c 63,-36 161,-38 239,-3 57,25 100,23 109,-7 17,-51 27,-70 57,-103 104,-113 104,-118 -20,-213 -102,-79 -136,-91 -241,-88 -43,2 -262,56 -294,73 -31,17 -38,44 -49,196 -12,176 -7,226 28,261 l 25,25 50,-57 c 27,-31 71,-69 96,-84 z m 1447,29 -8,-100 -61,-82 c -33,-45 -69,-95 -80,-111 -15,-24 -23,-28 -45,-23 -14,3 -39,19 -55,35 l -28,28 37,73 c 56,110 112,184 179,239 34,26 63,47 64,45 2,-2 1,-49 -3,-104 z m 1193,85 c 21,-13 76,-43 121,-66 78,-38 115,-49 246,-66 l 50,-6 -45,-39 c -56,-48 -127,-74 -183,-65 -23,4 -76,18 -118,33 l -75,26 -25,104 c -14,57 -22,103 -17,103 5,0 25,-11 46,-24 z m -1083,-28 c 20,-24 49,-71 65,-105 32,-69 90,-236 90,-258 0,-8 -16,-22 -36,-30 -44,-18 -54,-19 -54,-2 0,6 -29,59 -65,116 -60,96 -65,109 -65,160 0,76 11,161 21,161 4,0 24,-19 44,-42 z m 1801,-6 c 69,-67 151,-164 169,-198 18,-36 3,-63 -46,-80 -29,-10 -39,-9 -69,8 -35,19 -70,66 -70,95 0,9 -14,56 -31,105 -24,71 -28,92 -18,104 6,8 13,14 14,14 2,0 25,-22 51,-48 z M 772,4110 c 2,-92 -2,-136 -20,-220 -13,-58 -27,-134 -31,-170 l -7,-65 -27,52 c -15,29 -33,52 -40,50 -6,-1 -11,7 -10,18 1,10 -5,31 -13,47 -19,37 -18,74 5,122 11,23 43,99 72,169 28,71 55,125 60,120 4,-4 9,-60 11,-123 z m 4357,92 c 10,-20 36,-80 57,-132 33,-83 38,-105 39,-180 0,-113 -18,-140 -104,-161 -35,-8 -125,6 -148,24 -12,8 -73,111 -73,122 0,3 13,5 30,5 41,0 110,29 110,46 0,8 4,14 10,14 14,0 42,59 36,76 -3,7 -1,16 4,19 12,7 13,97 1,145 -15,67 8,81 38,22 z m -497,-156 c 7,-13 13,-85 15,-183 4,-184 10,-171 -87,-193 -30,-7 -77,-19 -103,-27 -132,-41 -273,-54 -346,-33 -41,11 -134,82 -148,112 -6,13 -18,46 -27,73 l -16,50 64,60 c 35,33 73,74 85,92 29,42 49,47 107,25 27,-11 82,-27 122,-37 90,-22 131,-12 228,51 68,45 86,46 106,10 z M 3031,3943 c 17,-27 51,-90 76,-140 46,-92 46,-94 47,-195 1,-125 -20,-183 -110,-309 -111,-154 -139,-141 -278,127 -60,115 -67,154 -42,215 8,19 17,53 21,77 5,31 27,69 82,143 109,145 152,162 204,82 z m 2329,-91 c 12,-37 28,-82 36,-101 9,-19 18,-64 21,-101 5,-55 2,-72 -16,-105 -20,-38 -83,-130 -101,-149 -5,-5 -9,33 -8,85 0,63 -7,119 -20,170 l -20,75 24,93 c 13,51 24,110 24,130 l 0,36 20,-33 c 11,-17 29,-62 40,-100 z m -4214,91 c 5,-24 29,-95 49,-144 4,-10 -7,-29 -29,-54 -39,-42 -40,-47 -55,-295 -10,-156 -24,-198 -89,-285 -48,-64 -125,-135 -146,-135 -17,0 -39,47 -70,148 -29,92 -30,110 -16,163 9,32 15,38 47,44 46,8 103,37 124,61 9,11 29,41 44,67 23,40 26,51 14,58 -18,11 -29,11 -29,1 0,-11 -107,-32 -167,-32 -59,0 -78,16 -76,63 6,144 54,357 81,357 5,0 19,-11 32,-25 54,-57 151,-57 216,0 48,42 62,43 70,8 z m 898,-124 c 25,-82 2,-145 -63,-178 -52,-26 -205,-60 -281,-63 -89,-3 -205,27 -315,82 -49,25 -89,48 -88,52 1,4 -2,22 -7,39 l -9,31 41,-6 c 23,-4 87,-22 143,-41 131,-44 200,-51 294,-31 86,18 135,47 206,122 27,29 53,50 57,48 4,-3 14,-27 22,-55 z m 660,-19 c 5,0 5,-19 1,-42 -4,-24 -11,-63 -14,-88 -5,-37 -12,-48 -39,-65 -18,-11 -77,-51 -130,-88 -59,-41 -119,-74 -152,-84 -67,-20 -160,-19 -200,2 -29,15 -83,92 -74,107 3,4 22,8 42,8 47,0 154,30 212,60 25,13 78,57 119,98 88,88 136,113 189,101 20,-5 41,-9 46,-9 z m 2222,-27 c 47,-61 146,-91 216,-64 19,7 37,7 57,0 25,-9 31,-18 41,-62 28,-128 20,-298 -16,-354 -12,-20 -23,-23 -72,-23 -31,1 -97,9 -147,19 -49,10 -92,17 -94,15 -9,-8 19,-53 74,-117 54,-64 131,-117 169,-117 42,0 45,-82 6,-182 l -21,-58 -46,0 c -29,0 -58,8 -79,21 -38,23 -88,83 -105,125 -27,68 -50,210 -60,364 -6,91 -17,192 -24,225 -13,55 -12,67 7,150 29,118 42,126 94,58 z m -1001,-29 c 32,-61 99,-128 150,-149 19,-8 75,-15 131,-17 97,-2 127,3 354,61 71,19 120,23 120,11 0,-12 -71,-127 -94,-150 -36,-37 -107,-53 -267,-58 -136,-4 -166,-2 -240,17 -95,25 -167,55 -187,80 -36,44 -54,104 -48,154 7,51 30,107 44,107 4,0 21,-25 37,-56 z M 651,3611 c 51,-60 101,-81 190,-81 41,0 89,4 107,9 42,13 42,-4 -1,-61 -43,-57 -92,-80 -176,-82 -129,-2 -191,42 -206,149 -8,59 -8,193 1,207 4,5 17,-15 29,-46 13,-31 38,-74 56,-95 z m 595,101 c 20,-44 21,-61 18,-257 -2,-138 -8,-230 -17,-267 -16,-64 -75,-158 -123,-195 -46,-35 -118,-41 -177,-15 -26,12 -47,23 -47,26 0,2 37,42 83,88 130,130 151,189 164,462 6,135 7,140 36,173 16,18 32,33 36,33 3,-1 16,-22 27,-48 z m 2059,27 c 59,-32 98,-67 150,-136 60,-80 119,-130 170,-145 22,-6 45,-15 50,-19 10,-7 72,2 132,20 18,5 35,6 37,2 10,-16 -60,-106 -94,-123 -34,-16 -59,-16 -177,-2 -47,6 -237,126 -331,211 -53,47 -54,49 -59,115 -3,37 -3,74 0,82 9,23 74,20 122,-5 z M 1392,3599 c 140,-82 223,-205 234,-344 11,-153 12,-195 3,-195 -6,0 -27,13 -47,29 -20,16 -49,31 -63,35 -28,6 -148,114 -150,134 -2,16 -2,18 -27,96 -28,87 -32,276 -6,276 2,0 27,-14 56,-31 z m 3386,-42 c 12,-14 23,-106 42,-332 12,-154 27,-215 69,-289 33,-57 72,-96 125,-123 28,-15 29,-17 11,-24 -68,-26 -180,6 -236,68 -38,42 -86,157 -105,253 -13,68 -16,114 -11,231 8,166 16,201 55,216 37,15 38,15 50,0 z m -2088,-62 c 12,-30 49,-100 82,-155 l 59,-100 -41,-48 c -22,-26 -50,-57 -63,-68 -12,-12 -36,-48 -52,-79 -17,-32 -40,-65 -53,-74 -12,-9 -32,-24 -45,-34 -38,-32 -115,-67 -147,-67 -36,0 -80,26 -80,47 0,8 16,39 36,70 45,70 64,123 69,188 3,28 7,84 10,125 4,41 8,83 11,92 3,9 35,39 72,67 37,27 76,59 86,70 11,12 22,21 26,21 4,0 18,-25 30,-55 z m -916,17 c 16,-26 -55,-182 -82,-182 -5,0 -29,43 -54,95 l -45,95 88,0 c 48,0 90,-4 93,-8 z m 1528,-85 c 96,-76 120,-109 99,-130 -14,-14 -14,-147 -1,-217 10,-54 45,-121 102,-198 39,-52 31,-62 -51,-62 -46,0 -67,7 -128,42 -62,35 -80,52 -116,107 -23,37 -44,71 -46,76 -2,6 -30,54 -63,107 l -59,97 35,49 c 20,27 52,88 72,136 25,59 40,84 48,78 6,-4 55,-43 108,-85 z m 726,30 c 67,-20 80,-31 87,-76 4,-20 9,-48 11,-63 3,-15 24,-55 47,-89 l 41,-61 -1,-102 c -2,-126 -4,-138 -33,-153 -18,-9 -33,-8 -69,3 -25,8 -83,17 -128,20 -57,5 -87,12 -96,23 -92,107 -163,155 -186,127 -5,-6 -19,-43 -29,-83 -24,-84 -35,-107 -63,-127 -28,-19 -61,-5 -83,37 -9,18 -25,46 -36,62 -32,50 -52,152 -53,263 0,56 4,106 9,111 5,6 29,0 61,-15 70,-34 177,-43 235,-21 53,21 84,49 128,117 32,49 35,52 69,47 20,-3 60,-12 89,-20 z m 582,-92 c 0,-58 -7,-120 -17,-158 -15,-56 -24,-69 -95,-138 -71,-69 -166,-135 -240,-166 l -28,-12 0,52 c 0,67 51,255 85,312 14,25 43,59 65,76 37,30 206,127 223,128 4,1 7,-42 7,-94 z m 839,-25 c 1,-54 -4,-73 -28,-115 -44,-76 -87,-112 -155,-129 -87,-23 -174,0 -231,62 -34,37 -79,101 -74,107 3,2 45,-3 93,-11 99,-17 152,-10 216,29 50,31 129,106 148,142 l 16,30 7,-25 c 4,-14 7,-54 8,-90 z m -1176,43 c 37,-3 67,-8 67,-10 0,-2 -17,-29 -39,-61 -21,-31 -46,-72 -56,-91 l -17,-33 -31,38 c -39,46 -55,86 -56,138 -1,38 -1,38 32,32 17,-4 62,-10 100,-13 z M 693,3340 c 59,-28 66,-34 72,-68 16,-90 63,-229 125,-374 48,-112 64,-160 56,-167 -16,-13 -74,-41 -84,-41 -21,0 -136,274 -192,455 -25,82 -55,225 -47,225 3,0 34,-14 70,-30 z m 747,-223 c 1,-18 -93,-49 -128,-43 -53,8 -57,17 -33,80 12,31 21,71 21,89 0,32 0,32 70,-43 38,-41 69,-79 70,-83 z m 1552,61 c 35,-29 138,-171 169,-235 87,-180 14,-420 -203,-661 l -30,-33 -61,80 c -34,44 -68,80 -74,80 -7,1 -13,8 -13,16 0,14 -58,133 -70,145 -3,3 -15,28 -28,55 -31,71 -42,133 -32,180 5,22 14,62 20,89 5,28 19,68 30,90 21,43 140,175 175,194 27,15 98,15 117,0 z m -817,-84 c 25,-106 71,-179 201,-314 85,-90 108,-131 128,-236 32,-168 33,-162 -37,-157 -96,8 -91,3 -139,121 -7,17 -16,32 -20,32 -5,0 -8,6 -8,13 0,15 -36,60 -129,161 -75,81 -94,113 -117,200 -22,82 16,205 70,226 32,13 39,8 51,-46 z m -604,-31 c 46,-35 47,-37 34,-62 -7,-14 -24,-36 -38,-49 -13,-13 -41,-59 -62,-104 -23,-49 -58,-102 -89,-135 -43,-46 -60,-56 -111,-70 -135,-34 -135,-34 -258,65 -53,42 -71,66 -97,120 -23,49 -30,75 -25,99 l 6,31 72,-5 c 87,-7 120,5 194,70 51,44 53,44 98,36 39,-7 58,-5 114,15 90,33 106,32 162,-11 z m 3064,-5 c 4,-18 16,-52 26,-75 l 18,-43 -45,0 c -47,0 -147,36 -142,52 5,13 112,97 125,98 6,0 15,-14 18,-32 z m 755,24 c 0,-4 -4,-12 -10,-18 -5,-5 -23,-54 -39,-109 -32,-111 -95,-272 -116,-295 -7,-8 -34,-53 -59,-100 -25,-47 -55,-96 -66,-109 -20,-24 -21,-24 -53,-6 -77,41 -76,35 -13,128 31,46 56,90 56,98 0,8 17,48 38,89 21,41 54,117 72,168 32,91 34,93 79,113 25,11 57,26 71,33 30,17 40,19 40,8 z m -1589,-63 c 48,-51 62,-107 48,-185 -15,-82 -29,-104 -110,-176 -145,-127 -203,-196 -241,-287 l -20,-49 -76,4 c -42,3 -81,9 -86,14 -13,13 20,147 54,219 23,48 59,93 154,190 134,137 169,188 187,269 10,47 13,52 32,47 12,-4 38,-24 58,-46 z m -1815,10 c 8,-7 14,-30 14,-59 l 0,-47 -82,-8 c -144,-12 -268,-86 -342,-203 -30,-49 -45,-59 -57,-41 -34,54 -13,155 54,254 49,72 57,79 127,105 46,17 72,19 163,16 63,-3 114,-10 123,-17 z m 2527,-79 c 55,-22 92,-30 136,-30 34,0 61,-4 61,-8 0,-19 98,-105 148,-129 48,-23 60,-25 132,-20 111,9 116,0 61,-106 -23,-45 -57,-103 -75,-128 -30,-41 -37,-45 -65,-41 -41,6 -81,-20 -81,-53 0,-24 -3,-25 -62,-25 -117,0 -171,14 -234,63 -75,57 -77,59 -163,197 -40,63 -81,124 -91,135 -10,11 -21,32 -25,46 -6,24 0,29 82,77 48,28 91,52 95,52 3,0 40,-13 81,-30 z m -407,-55 c 102,-26 143,-62 221,-195 90,-152 87,-140 57,-207 -23,-52 -28,-56 -38,-39 -35,59 -142,194 -180,227 -66,58 -118,79 -203,79 -40,0 -73,3 -73,8 0,28 31,146 40,152 13,8 95,-4 176,-25 z m -1483,-38 c 4,-24 4,-60 0,-80 -14,-87 73,-276 202,-441 105,-134 105,-153 -2,-93 -32,17 -98,46 -147,62 -103,35 -126,57 -126,122 0,122 -75,299 -149,354 -19,14 -31,32 -31,46 0,21 5,23 48,23 35,0 63,9 107,34 72,40 90,35 98,-27 z m -566,-15 c 18,-38 52,-87 78,-112 65,-63 159,-190 189,-254 22,-46 24,-59 15,-80 -7,-14 -21,-28 -33,-32 -12,-3 -45,-18 -75,-32 l -54,-26 -18,25 c -11,13 -25,31 -31,39 -7,8 -25,30 -39,50 -28,38 -110,78 -248,120 -70,21 -170,84 -180,114 -2,6 -8,22 -14,36 -22,54 7,104 86,148 66,37 116,53 192,62 105,12 97,16 132,-58 z m 1253,-7 c 42,-26 114,-47 135,-38 15,5 55,-13 55,-25 0,-8 -26,-41 -92,-119 -53,-62 -109,-193 -123,-287 -9,-57 -25,-70 -105,-86 -36,-7 -87,-21 -115,-31 -64,-24 -75,-24 -75,2 0,20 31,68 76,119 28,31 125,226 148,296 9,29 19,77 21,109 4,49 17,85 31,85 3,0 22,-11 44,-25 z m 752,-119 c 58,-26 143,-96 153,-126 7,-21 -10,-52 -70,-123 -58,-71 -74,-78 -258,-101 -73,-10 -115,-20 -128,-32 -21,-19 -39,-73 -39,-116 0,-35 -7,-35 -59,3 -24,17 -62,39 -86,49 -71,30 -69,59 11,183 47,72 241,272 272,280 9,3 47,5 84,6 51,1 80,-5 120,-23 z m -2587,-74 c -1,-146 -113,-247 -245,-222 -68,13 -126,50 -148,96 -15,32 -15,38 -1,62 14,26 18,27 124,32 96,4 116,8 155,32 25,14 56,38 69,52 33,35 46,20 46,-52 z m -437,46 c 34,-34 -18,-114 -93,-143 -123,-47 -125,73 -2,130 59,28 78,30 95,13 z m 675,-121 c 29,-22 117,-55 217,-82 55,-15 129,-56 154,-86 28,-33 32,-55 15,-92 l -11,-25 -57,39 c -57,40 -96,52 -276,84 -96,17 -151,45 -182,91 -16,25 -16,29 1,78 10,28 27,61 39,73 l 20,23 23,-39 c 13,-21 39,-50 57,-64 z m -44,-165 c 27,-12 92,-27 147,-33 127,-14 189,-38 243,-93 l 44,-45 -16,-52 c -28,-87 -19,-195 23,-251 11,-15 30,-58 41,-96 12,-37 27,-74 35,-83 41,-46 0,-82 -107,-94 -30,-4 -81,-16 -114,-28 -86,-30 -213,-30 -275,1 -80,39 -80,39 -80,140 0,128 24,172 71,131 16,-14 34,-19 58,-17 32,3 38,9 63,58 33,66 35,108 7,144 -17,22 -28,26 -74,26 -63,0 -172,-32 -209,-61 -40,-31 -60,-22 -64,30 -2,25 -17,67 -32,95 -83,148 -102,194 -90,216 6,12 26,28 43,35 18,7 54,37 81,65 l 49,52 53,-60 c 35,-39 70,-66 103,-80 z m -601,69 c 70,-60 122,-87 188,-96 50,-6 51,-7 87,-73 67,-125 82,-177 82,-282 0,-111 -16,-147 -80,-192 -79,-53 -81,-51 -88,55 -8,127 -37,183 -157,307 -114,118 -114,119 -140,210 l -20,75 27,22 c 16,13 32,23 36,23 5,0 34,-22 65,-49 z m 3204,2 c 9,-10 22,-39 29,-65 12,-45 11,-49 -17,-94 -48,-78 -81,-89 -259,-89 -148,0 -151,-1 -205,-30 -30,-16 -58,-31 -61,-33 -4,-2 -6,27 -4,63 3,94 16,105 136,115 166,15 234,43 298,126 35,46 47,47 83,7 z m 201,-4 c 56,-55 122,-75 298,-94 36,-4 64,-13 78,-26 33,-31 32,-32 -54,-87 -53,-33 -108,-52 -171,-58 -67,-6 -71,-5 -118,27 -74,51 -91,78 -91,152 0,60 10,117 21,117 3,0 19,-14 37,-31 z m 474,-21 c 84,-40 159,-136 123,-158 -17,-10 -69,5 -100,30 -14,11 -35,25 -46,31 -12,6 -32,29 -44,52 -22,39 -22,41 -5,54 23,16 17,17 72,-9 z M 2500,2331 c 210,-47 365,-119 465,-217 85,-83 327,-487 309,-516 -3,-5 -13,-12 -24,-18 -16,-8 -23,-3 -48,39 -43,70 -90,119 -133,141 -29,15 -46,36 -73,87 -38,73 -102,155 -151,196 -42,34 -132,81 -207,107 -133,46 -343,35 -398,-20 -11,-11 -23,-20 -27,-20 -5,0 -29,-23 -55,-52 -25,-29 -50,-50 -54,-46 -4,4 -6,37 -6,72 2,82 34,150 95,200 83,68 159,80 307,47 z m 1916,-43 c 22,-29 58,-63 82,-76 24,-13 44,-33 48,-46 3,-15 -15,-63 -55,-149 -57,-119 -63,-127 -90,-127 -19,0 -45,14 -77,40 -53,44 -104,57 -182,46 -58,-8 -82,-31 -89,-85 -10,-76 47,-141 124,-141 47,0 76,-39 81,-108 3,-51 0,-62 -30,-106 -47,-70 -86,-88 -174,-83 -61,3 -84,11 -185,61 -172,88 -179,92 -179,129 0,24 12,43 52,84 49,50 52,56 59,120 4,38 3,97 -2,133 -17,107 -13,159 12,186 35,37 89,47 219,40 90,-5 124,-4 157,8 58,21 112,58 134,95 27,44 50,39 95,-21 z m -937,-13 c 105,-12 207,-86 251,-183 19,-41 39,-172 27,-172 -4,0 -14,15 -23,33 -21,40 -40,58 -101,96 -135,83 -304,87 -544,15 -11,-3 -27,13 -52,51 -21,30 -37,61 -37,68 0,31 152,83 285,97 69,7 88,6 194,-5 z m 1494,-30 c 17,-12 17,-19 7,-77 -17,-96 -48,-139 -155,-219 -115,-84 -138,-114 -180,-226 -18,-48 -38,-89 -44,-91 -6,-2 -30,13 -55,32 -33,28 -47,49 -61,91 -21,68 -15,125 27,239 37,101 69,146 106,146 61,0 160,42 224,95 68,57 67,57 131,10 z M 2366,2136 c 7,-18 -15,-165 -28,-189 -19,-36 -51,-17 -75,44 -28,71 -22,123 16,144 34,18 80,19 87,1 z m 310,-22 c 66,-27 110,-72 100,-101 -3,-6 -29,-45 -59,-85 -64,-86 -91,-138 -123,-232 -32,-94 -52,-106 -98,-60 -35,36 -33,63 13,180 29,74 42,126 51,204 6,57 14,108 16,112 8,13 31,9 100,-18 z m -151,-104 0,-115 -43,-81 c -65,-122 -59,-118 -128,-109 -95,11 -95,11 -46,112 55,115 72,179 81,306 1,4 31,7 69,5 l 67,-3 0,-115 z m -747,64 c 26,-18 28,-47 6,-114 -21,-64 -36,-77 -71,-61 -25,11 -25,14 -20,77 4,50 10,71 28,90 27,28 28,29 57,8 z m -118,-4 c 0,-28 -24,-117 -35,-130 -22,-26 -43,-86 -50,-145 l -8,-57 -37,37 c -32,31 -39,47 -48,102 -17,101 7,140 113,185 46,19 65,22 65,8 z m 1624,-13 c 8,-12 20,-56 26,-97 7,-46 31,-120 61,-192 27,-65 49,-127 49,-137 0,-26 -37,-51 -73,-51 -23,0 -31,7 -43,38 -27,65 -100,204 -153,292 -29,46 -50,94 -49,104 3,20 26,35 83,54 52,17 83,14 99,-11 z m 296,-2 c 28,-15 30,-19 30,-75 0,-78 -13,-110 -44,-110 -26,0 -29,6 -64,120 -11,36 -18,68 -15,72 7,13 62,9 93,-7 z m -156,-4 c 26,-5 31,-13 43,-61 20,-78 60,-174 110,-257 24,-39 43,-76 43,-82 0,-16 -155,-14 -167,2 -5,6 -31,59 -57,115 -34,73 -51,125 -57,175 -5,40 -12,82 -14,95 -5,20 -2,22 32,21 21,-1 51,-4 67,-8 z m -1190,-78 c 15,-38 29,-75 32,-83 5,-16 -51,-120 -65,-120 -24,0 -41,207 -21,245 7,14 16,25 20,25 3,0 19,-30 34,-67 z m 646,-54 c 0,-4 -16,-40 -35,-81 -23,-49 -47,-84 -73,-105 -21,-17 -58,-61 -83,-97 -47,-70 -64,-80 -79,-42 -19,52 59,240 146,349 l 47,58 38,-37 c 22,-21 39,-41 39,-45 z m 816,-23 c 31,-67 31,-110 -2,-158 -30,-43 -39,-47 -41,-17 -1,12 -11,39 -22,61 -18,36 -18,43 -5,80 8,22 14,50 14,63 0,53 24,41 56,-29 z m 474,27 c 16,-21 20,-38 18,-76 -3,-56 -20,-74 -60,-64 -34,9 -50,49 -42,104 10,65 48,82 84,36 z m 152,-33 c 45,-32 59,-49 72,-87 9,-25 16,-61 16,-78 0,-40 -34,-92 -80,-123 l -35,-23 -6,58 c -4,32 -14,98 -23,147 -18,98 -20,146 -8,146 5,0 34,-18 64,-40 z m -1368,-33 c 28,-51 19,-80 -32,-96 -39,-12 -46,-12 -60,3 -15,15 -14,20 11,71 32,65 55,71 81,22 z M 1679,1605 c 41,-27 54,-30 116,-29 39,1 94,9 124,18 30,9 56,15 58,13 1,-2 -6,-19 -16,-39 -10,-20 -28,-65 -41,-99 -13,-35 -28,-67 -33,-70 -14,-10 -131,25 -207,60 -88,41 -142,81 -160,116 -8,17 -25,46 -37,65 -12,20 -25,55 -29,79 l -7,42 93,-63 c 51,-35 113,-76 139,-93 z m 1249,78 c 3,-50 1,-55 -41,-100 -55,-60 -75,-98 -92,-178 -19,-91 -6,-145 52,-223 14,-18 23,-35 22,-36 -23,-18 -111,-58 -116,-52 -24,24 -45,114 -55,238 -11,131 -10,139 12,208 31,96 69,146 133,175 73,34 81,30 85,-32 z m 125,26 c 26,-17 64,-55 85,-85 51,-71 72,-186 53,-286 -18,-93 -83,-279 -100,-286 -9,-3 -25,8 -42,28 -33,39 -32,59 2,140 18,43 23,74 23,145 0,98 -11,131 -73,209 -25,31 -31,48 -31,87 0,89 12,95 83,48 z m -586,-89 c 34,-18 87,-53 118,-77 l 55,-43 0,-70 c 0,-39 -4,-70 -9,-70 -5,0 -30,16 -56,36 -26,19 -59,41 -73,47 -15,6 -31,18 -37,25 -5,7 -28,15 -50,17 -22,3 -54,10 -71,15 -51,17 -184,-12 -288,-64 -81,-39 -91,-42 -94,-26 -5,28 42,119 88,172 56,65 102,78 245,75 104,-3 114,-5 172,-37 z m 1991,-29 c -6,-57 -71,-175 -121,-217 -68,-57 -187,-100 -287,-104 -69,-3 -80,-1 -80,12 0,7 -16,47 -37,90 -20,43 -33,81 -29,85 3,4 30,-1 60,-10 80,-25 152,-22 206,9 25,15 79,44 120,65 41,21 95,56 120,78 25,22 47,40 49,41 2,0 1,-22 -1,-49 z m -1461,-50 c 40,-51 56,-107 56,-186 -1,-98 -52,-215 -94,-215 -16,0 -100,82 -117,114 -11,21 -16,57 -17,111 0,80 13,132 44,169 21,25 73,57 86,53 6,-2 25,-23 42,-46 z m 696,28 c 72,-27 138,-92 177,-174 29,-61 51,-165 35,-165 -4,0 -23,14 -43,31 -19,17 -55,39 -79,50 -24,10 -60,32 -81,48 -48,39 -98,59 -162,66 -60,6 -95,-2 -207,-43 l -83,-31 0,83 0,83 53,23 c 123,53 294,66 390,29 z m -1338,-90 c 68,-12 156,-54 229,-109 75,-55 85,-71 98,-141 6,-35 23,-89 39,-119 16,-30 29,-64 29,-76 0,-30 -77,-183 -96,-191 -10,-4 -29,9 -57,40 -30,34 -77,64 -167,111 -69,36 -136,75 -148,86 -12,12 -37,49 -54,83 -29,56 -32,73 -36,167 -5,131 2,141 99,159 3,1 32,-4 64,-10 z m -193,-156 c 3,-96 7,-114 32,-160 42,-76 77,-105 226,-186 117,-64 139,-80 169,-123 30,-45 33,-54 28,-102 -3,-30 -14,-65 -23,-80 l -17,-27 -16,48 c -9,26 -33,67 -53,91 -37,42 -55,53 -248,145 -47,22 -94,48 -105,58 -55,48 -137,206 -154,294 -10,53 -10,54 22,83 32,28 102,65 123,66 8,0 13,-36 16,-107 z m 1429,77 c 51,-14 66,-36 79,-114 17,-104 -3,-160 -84,-239 -35,-34 -94,-80 -131,-102 -37,-22 -96,-66 -131,-98 -74,-67 -88,-66 -124,7 -11,24 -28,50 -36,57 -23,19 -44,65 -44,97 0,16 13,58 29,93 16,35 36,89 45,120 20,71 44,101 103,129 116,55 214,72 294,50 z m 225,-168 c 59,-48 59,-48 56,-96 -3,-52 -35,-124 -78,-176 C 3759,919 3655,852 3542,797 3441,748 3383,695 3342,614 l -29,-58 -11,35 c -15,46 -17,104 -8,162 8,44 14,53 78,104 39,30 103,78 144,105 130,87 184,171 184,289 l 0,48 29,-10 c 15,-5 55,-31 87,-57 z m -912,-178 c 12,-91 8,-119 -24,-159 -17,-21 -44,-66 -61,-100 -29,-59 -30,-69 -32,-196 -2,-150 6,-184 73,-319 34,-68 37,-81 33,-135 -3,-33 -6,-62 -8,-63 -4,-4 -90,82 -121,120 -57,72 -101,219 -110,373 -6,101 -5,117 19,196 46,151 72,198 145,267 36,34 69,62 73,62 3,0 9,-21 13,-46 z m 122,-16 c 98,-90 200,-288 211,-408 7,-73 -27,-235 -68,-325 -24,-54 -50,-88 -110,-148 -43,-42 -85,-77 -94,-77 -12,0 -15,15 -15,84 0,84 0,85 42,137 44,56 80,149 99,253 9,54 8,74 -7,127 -25,90 -47,139 -88,196 -34,47 -36,55 -36,127 0,45 4,76 10,76 6,0 31,-19 56,-42 z m -57,-173 c 67,-76 105,-189 99,-289 -10,-138 -82,-288 -144,-294 -34,-3 -42,7 -83,111 -28,71 -28,73 -20,212 8,149 28,226 72,273 28,30 40,28 76,-13 z"
       id="path8"
       inkscape:connector-curvature="0" />
  </g>
</svg>
