<?xml version="1.0" encoding="UTF-8" standalone="no"?>
<!-- Created with Inkscape (http://www.inkscape.org/) -->

<svg
   xmlns:dc="http://purl.org/dc/elements/1.1/"
   xmlns:cc="http://creativecommons.org/ns#"
   xmlns:rdf="http://www.w3.org/1999/02/22-rdf-syntax-ns#"
   xmlns:svg="http://www.w3.org/2000/svg"
   xmlns="http://www.w3.org/2000/svg"
   xmlns:sodipodi="http://sodipodi.sourceforge.net/DTD/sodipodi-0.dtd"
   xmlns:inkscape="http://www.inkscape.org/namespaces/inkscape"
   width="210mm"
   height="297mm"
   id="svg3027"
   version="1.1"
   inkscape:version="0.48.4 r9939"
   sodipodi:docname="star_raw.svg">
  <defs
     id="defs3">
    <clipPath
       id="clipPath18"
       clipPathUnits="userSpaceOnUse">
      <path
         inkscape:connector-curvature="0"
         id="path20"
         d="m 0,0 4234,0 0,2463.99 -4234,0 L 0,0 z" />
    </clipPath>
  </defs>
  <sodipodi:namedview
     inkscape:document-units="mm"
     id="base"
     pagecolor="#ffffff"
     bordercolor="#666666"
     borderopacity="1.0"
     inkscape:pageopacity="0.0"
     inkscape:pageshadow="2"
     inkscape:zoom="0.98994949"
     inkscape:cx="457.7387"
     inkscape:cy="469.7207"
     inkscape:current-layer="g16"
     showgrid="false" />
  <metadata
     id="metadata4">
    <rdf:RDF>
      <cc:Work
         rdf:about="">
        <dc:format>image/svg+xml</dc:format>
        <dc:type
           rdf:resource="http://purl.org/dc/dcmitype/StillImage" />
        <dc:title />
      </cc:Work>
    </rdf:RDF>
  </metadata>
  <g
     inkscape:label="Layer 1"
     inkscape:groupmode="layer"
     id="layer1">
    <g
       transform="matrix(0.81159255,0,0,-0.81270255,-2152.1158,1302.2525)"
       id="g14"
       style="fill:#000000;stroke:none">
      <g
         clip-path="url(#clipPath18)"
         id="g16"
         style="fill:#000000;stroke:none">
        <path
           inkscape:connector-curvature="0"
           id="path22"
           style="fill:none;stroke:#000000;stroke-width:4.92521455"
           d="m 3110.33,1101.92 c 8.65,7.06 18.05,14.83 27.68,22.81 72.18,59.73 158.22,130.91 192.32,106.14 32.35,-23.51 -14.02,-127.59 -51.64,-212.05 -4.55,-10.23 -8.99,-20.172 -13.16,-29.699 9.22,-5.961 19.6,-12.539 30.25,-19.301 79.11,-50.191 173.39,-110 160.37,-150.101 -12.36,-38.02 -125.69,-26.09 -217.63,-16.399 -11.18,1.168 -22.05,2.321 -32.31,3.328 -2.99,-11.277 -5.97,-22.859 -9.01,-34.726 -23.28,-90.75 -51.04,-198.91 -93.19,-198.91 -39.99,0 -63.65,111.457 -82.86,201.91 -2.32,10.93 -4.57,21.539 -6.82,31.769 -11.37,-0.64 -23.43,-1.39 -35.81,-2.171 -93.5,-5.899 -204.93,-12.93 -217.97,27.171 -12.35,38.02 86.35,94.981 166.43,141.188 9.69,5.582 19.1,11.019 28.09,16.301 -4.02,10.39 -8.51,21.74 -13.12,33.38 -34.51,87.11 -75.63,190.92 -41.52,215.7 32.35,23.5 117.02,-52.76 185.71,-114.64 8.44,-7.61 16.67,-15.02 24.19,-21.7 z m -0.04,191.57 c 105.4,90.11 172.82,38.78 227.88,-3.15 5.67,-4.33 11.23,-8.56 16.74,-12.56 5.74,-4.18 11.67,-8.27 17.72,-12.46 57.5,-39.75 127.15,-87.92 75.08,-216.96 118.27,-72.411 90.27,-152.399 67.41,-217.712 -2.36,-6.738 -4.66,-13.32 -6.77,-19.796 -2.15,-6.641 -4.23,-13.59 -6.36,-20.704 -20.03,-66.968 -44.32,-148.089 -183.16,-138.457 -32.3,-134.851 -117.02,-132.953 -186.21,-131.382 -7.08,0.152 -14.01,0.312 -20.93,0.312 -7.14,0 -14.32,-0.172 -21.66,-0.34 l 0,0 c -69.87,-1.633 -154.53,-3.601 -188.27,131.399 -138.23,-10.942 -162.6,70.218 -182.5,136.511 -2.06,6.868 -4.08,13.59 -6.16,20 -2.18,6.707 -4.57,13.52 -7.02,20.489 -23.15,65.949 -51.18,145.859 66.8,219.66 -53.12,128.09 16.53,176.34 73.42,215.75 5.85,4.05 11.57,8.01 17.11,12.04 5.72,4.15 11.46,8.52 17.33,13.01 55.56,42.39 122.9,93.75 229.55,4.35 z m 226.72,-4.68 c -54.61,41.59 -121.51,92.53 -226.09,2.71 l -0.61,-0.53 -0.63,0.52 c -105.84,89.14 -172.65,38.16 -227.78,-3.9 -5.93,-4.52 -11.73,-8.95 -17.35,-13.03 -5.39,-3.92 -11.21,-7.95 -17.16,-12.07 -56.43,-39.08 -125.55,-86.96 -72.43,-214.18 l 0.31,-0.76 -0.69,-0.43 c -117.49,-73.101 -89.64,-152.41 -66.68,-217.831 2.47,-7.039 4.88,-13.918 7.03,-20.528 2.1,-6.461 4.12,-13.179 6.17,-20.043 19.73,-65.75 43.9,-146.277 181.32,-135.078 l 0.81,0.07 0.2,-0.8 c 33.23,-134.321 117.25,-132.36 186.57,-130.739 7.5,0.188 14.83,0.348 21.69,0.348 6.62,0 13.71,-0.148 20.97,-0.32 68.62,-1.539 152.69,-3.438 184.5,130.703 l 0.19,0.797 0.81,-0.059 c 138.02,-9.898 162.12,70.602 181.98,137.039 2.13,7.11 4.21,14.051 6.39,20.742 2.07,6.379 4.4,13.039 6.79,19.84 22.67,64.789 50.45,144.16 -67.3,215.859 l -0.69,0.42 0.31,0.76 c 52.06,128.2 -17.06,175.99 -74.1,215.42 -6.15,4.26 -12.17,8.42 -17.76,12.48 -5.44,3.94 -11.04,8.22 -16.77,12.59 z m -226.71,-14.47 c 110.71,94.31 183.81,41.17 239.71,0.51 l 2.45,-1.76 2.79,-2.03 c 56.38,-40.92 128.99,-93.62 74.25,-228.63 123.91,-76.149 95.95,-162.09 74.57,-227.828 l -0.94,-2.872 0,0 -1.05,-3.269 C 3480.58,742.191 3452.9,656.828 3307.58,667.18 3273.44,525.809 3183.07,525.832 3113.95,525.859 l -6.47,0 c -69.66,-0.027 -159.39,-0.07 -194.46,141.321 -145.01,-11.231 -172.91,74.73 -194.24,140.492 l 0,0 -0.93,2.859 -1.07,3.289 c -21.56,66.231 -49.32,151.559 74.32,228.6 -55.49,134.45 17.64,187.54 73.57,228.15 l 2.45,1.77 2.8,2.04 c 56.33,40.98 128.89,93.74 240.38,-0.04 z m 238.59,-1.04 c -55.49,40.35 -128.06,93.12 -237.97,-0.95 l -0.62,-0.53 -0.63,0.53 c -110.68,93.54 -182.72,41.14 -238.63,0.47 l -2.78,-2.03 -2.45,-1.78 c -55.52,-40.3 -128.13,-93 -72.64,-226.6 l 0.31,-0.75 -0.69,-0.44 c -123.16,-76.361 -95.58,-161.072 -74.18,-226.81 l 1.06,-3.281 0.94,-2.859 0,-0.008 C 2741.77,743 2769.47,657.66 2913.68,669.148 l 0.81,0.071 0.2,-0.797 c 34.56,-140.731 123.65,-140.684 192.79,-140.641 l 6.47,0 c 68.6,-0.031 158.33,-0.07 191.95,140.629 l 0.2,0.801 0.81,-0.063 c 144.54,-10.609 172.01,74.141 193.33,139.903 l 1.06,3.269 0,0.008 0.93,2.863 c 21.24,65.25 49.01,150.559 -74.42,226.029 l -0.7,0.43 0.31,0.75 c 54.75,134.17 -17.35,186.49 -73.3,227.1 l -2.8,2.03 -2.43,1.77 z m -238.59,-18.12 c 54.01,45.85 100.32,59.03 139.91,55.84 39.74,-3.21 72.65,-22.91 99.79,-42.63 27.23,-19.79 56.01,-44.87 71.24,-81.59 15.16,-36.57 16.82,-84.61 -9.96,-150.29 60.29,-37.201 87.14,-77.17 96.34,-115.811 9.22,-38.789 0.66,-76.168 -9.7,-108.078 -10.41,-32.012 -25.38,-67.152 -55.59,-92.973 -30.09,-25.718 -75.27,-42.136 -146.02,-36.968 -16.74,-68.84 -46.46,-106.719 -80.37,-127.41 -34.04,-20.758 -72.23,-24.168 -105.78,-24.168 -33.67,0 -71.7,3.378 -105.59,24.136 -33.76,20.672 -63.34,58.551 -80.29,127.442 -70.64,-5.34 -115.86,11.211 -146,37.058 -30.28,25.961 -45.32,61.242 -55.69,93.153 -10.4,32.007 -18.93,69.218 -9.67,107.879 9.23,38.492 36.13,78.339 96.39,115.73 -26.91,65.54 -25.13,113.65 -9.86,150.32 15.33,36.81 44.23,62.02 71.38,81.74 27.23,19.78 59.99,39.4 99.59,42.53 39.48,3.12 85.69,-10.13 139.88,-55.91 z m 139.75,53.92 c -39.27,3.17 -85.31,-10.02 -139.13,-55.9 l -0.62,-0.53 -0.63,0.53 c -54,45.8 -99.93,59.07 -139.09,55.98 -39.15,-3.1 -71.61,-22.55 -98.62,-42.18 -26.93,-19.56 -55.58,-44.54 -70.73,-80.92 -15.16,-36.38 -16.84,-84.23 10.16,-149.59 l 0.31,-0.76 -0.69,-0.43 c -60.25,-37.198 -87.07,-76.788 -96.22,-114.98 -9.16,-38.199 -0.68,-75.082 9.63,-106.84 10.28,-31.652 25.18,-66.628 55.11,-92.269 29.91,-25.66 74.9,-42.031 145.42,-36.563 l 0.81,0.063 0.19,-0.789 c 16.76,-68.813 46.13,-106.531 79.62,-127.043 33.5,-20.52 71.2,-23.859 104.59,-23.859 33.28,0 71.14,3.371 104.79,23.89 33.64,20.531 63.12,58.25 79.69,127 l 0.2,0.801 0.8,-0.063 c 70.63,-5.308 115.59,10.954 145.45,36.473 29.85,25.52 44.68,60.34 55,92.098 10.28,31.64 18.78,68.691 9.66,107.031 -9.13,38.34 -35.89,78.039 -96.17,115.05 l -0.7,0.43 0.32,0.76 c 26.88,65.52 25.3,113.29 10.26,149.58 -15.04,36.28 -43.58,61.14 -70.59,80.77 -26.92,19.55 -59.54,39.09 -98.82,42.26 z m -139.75,-73.07 c 51.98,43.94 98.14,60.38 137.84,61.09 39.89,0.73 73.22,-14.4 99.39,-33.42 26.11,-18.97 50.48,-45.79 61.79,-83.74 11.24,-37.74 9.54,-86.47 -16.26,-149.37 57.85,-35.86 87.75,-74.692 100.7,-112.211 13.02,-37.719 8.93,-74.109 -1.07,-104.867 -9.97,-30.692 -27.95,-62.16 -60.55,-84.633 -32.42,-22.359 -79.29,-35.809 -147.09,-30.707 -16.23,-66.102 -43.9,-106.524 -75.58,-130.453 -31.86,-24.028 -67.73,-31.391 -100.08,-31.391 -32.28,0 -67.74,7.391 -99.2,31.453 -31.28,23.918 -58.55,64.34 -74.65,130.399 -67.89,-5 -114.88,8.84 -147.42,31.582 -32.7,22.859 -50.78,54.707 -60.78,85.476 -9.97,30.684 -13.92,66.711 -0.76,104.051 13.09,37.152 43.11,75.582 100.95,111.301 -25.73,63.01 -27.1,111.99 -15.51,149.96 11.64,38.17 36.33,65.2 62.51,84.22 26.1,18.97 59.14,33.85 98.73,32.87 39.37,-0.96 85.19,-17.63 137.04,-61.61 z m 137.86,59.18 c -39.43,-0.72 -85.38,-17.15 -137.24,-61.18 l -0.62,-0.52 -0.63,0.53 c -51.72,44.05 -97.33,60.73 -136.46,61.69 -39.08,0.96 -71.74,-13.76 -97.56,-32.52 -25.88,-18.8 -50.3,-45.52 -61.8,-83.21 -11.5,-37.74 -10.08,-86.52 15.76,-149.43 l 0.32,-0.76 -0.7,-0.43 c -57.88,-35.579 -87.83,-73.81 -100.84,-110.72 -12.99,-36.879 -9.08,-72.48 0.78,-102.828 9.89,-30.434 27.75,-61.922 60.04,-84.504 32.33,-22.59 79.16,-36.297 147,-31.18 l 0.81,0.063 0.19,-0.789 c 15.95,-66.051 43.06,-106.344 74.14,-130.121 31.06,-23.75 66.13,-31.031 98.04,-31.031 32,0 67.46,7.25 98.92,30.992 31.48,23.769 59,64.07 75.07,130.16 l 0.2,0.789 0.81,-0.063 c 67.74,-5.226 114.44,8.09 146.67,30.313 32.18,22.187 49.94,53.301 59.8,83.648 9.89,30.43 13.95,66.391 1.09,103.653 -12.87,37.277 -42.7,75.91 -100.59,111.628 l -0.69,0.43 0.31,0.75 c 25.91,62.79 27.68,111.33 16.5,148.84 -11.17,37.47 -35.26,63.98 -61.07,82.73 -25.89,18.81 -58.85,33.78 -98.25,33.07 z m -137.86,-78.34 c 45.39,38.21 87.51,57.94 124.68,64.7 44.92,8.18 82.6,-2.58 110.1,-22.56 27.19,-19.75 48.41,-51.83 53.97,-96.51 4.63,-37.16 -1.58,-83.06 -24.2,-137.84 50.36,-31.359 82.14,-65.32 100.06,-98.57 21.65,-40.199 23.07,-79.371 12.57,-111.692 -10.4,-31.968 -34.34,-62.046 -75.11,-81.148 -33.93,-15.891 -79.49,-24.16 -138.58,-19.578 -14.26,-57.594 -36.73,-98.301 -62.83,-125.633 -31.53,-33.008 -68.35,-46.457 -102.34,-46.457 -33.62,0 -69.62,13.469 -100.39,46.359 -25.59,27.34 -47.53,68.118 -61.44,125.739 -59.17,-4.239 -104.84,4.558 -138.88,20.929 -41.16,19.789 -65.32,50.653 -75.83,82.969 -10.38,31.981 -8.69,70.383 13.07,109.801 18.1,32.793 50.1,66.269 100.6,97.291 -22.31,54.97 -28.06,101.13 -23,138.56 6.09,45.25 27.98,77.77 55.48,97.75 27.19,19.76 64.25,30.02 108.45,21.51 36.78,-7.08 78.51,-27.17 123.62,-65.62 z m 125.02,62.82 c -37.03,-6.74 -79.05,-26.49 -124.4,-64.81 l -0.63,-0.52 -0.62,0.52 c -45.07,38.56 -86.71,58.67 -123.35,65.72 -43.63,8.4 -80.17,-1.7 -106.97,-21.18 -27.11,-19.69 -48.68,-51.78 -54.71,-96.44 -5.04,-37.29 0.77,-83.37 23.2,-138.34 l 0.31,-0.75 -0.7,-0.43 c -50.6,-30.948 -82.58,-64.331 -100.62,-96.999 -21.46,-38.91 -23.15,-76.789 -12.92,-108.281 10.36,-31.879 34.21,-62.309 74.83,-81.84 33.9,-16.309 79.52,-25.039 138.74,-20.692 l 0.8,0.063 0.19,-0.789 c 13.8,-57.692 35.67,-98.434 61.16,-125.684 30.37,-32.437 65.87,-45.738 98.99,-45.738 33.51,0 69.83,13.281 100.96,45.871 25.99,27.219 48.38,67.899 62.54,125.551 l 0.2,0.797 0.81,-0.071 c 59.13,-4.699 104.63,3.524 138.43,19.34 40.23,18.84 63.86,48.5 74.09,80.012 10.35,31.859 8.94,70.488 -12.43,110.172 -17.85,33.137 -49.62,67.008 -100.07,98.288 l -0.7,0.43 0.32,0.75 c 22.73,54.78 28.97,100.6 24.37,137.63 -5.49,44.09 -26.39,75.71 -53.18,95.18 -27.12,19.7 -64.3,30.31 -108.64,22.24 z m -125.01,-81.98 c 45.54,38.17 89.22,60.76 127.67,70.23 42.81,10.55 79.2,4.87 104.64,-13.62 24.96,-18.13 40.77,-50.44 43.24,-93.68 2.22,-39.11 -6.49,-87.22 -29.23,-141.9 50.38,-31.529 85.35,-66.068 106.25,-99.72 23.25,-37.45 29.09,-73.821 19.37,-103.731 -9.53,-29.348 -35.36,-54.367 -75.73,-70.07 -36.52,-14.207 -84.95,-20.778 -144,-16.047 -14.4,-57.66 -36.45,-101.602 -62,-131.871 -28.44,-33.68 -61.22,-50.481 -92.67,-50.481 -30.85,0 -62.63,16.84 -90.03,50.371 -24.8,30.34 -46.03,74.379 -59.77,131.989 -59.29,-4.121 -107.89,3.289 -144.57,18.23 -40.82,16.621 -66.93,42.621 -76.65,72.531 -9.53,29.34 -3.35,64.758 20.09,101.188 21.18,32.961 56.5,66.75 107.05,97.621 -22.23,55.12 -30.21,103.63 -27.33,143.14 3.2,43.96 19.84,76.82 45.29,95.3 24.96,18.14 60.57,23.2 102.44,12.18 37.9,-9.97 80.95,-33.12 125.94,-71.66 z m 128.13,68.36 c -38.37,-9.44 -81.99,-32.06 -127.53,-70.35 l -0.62,-0.52 -0.62,0.52 c -44.97,38.67 -87.99,61.84 -125.78,71.79 -41.3,10.86 -76.33,5.93 -100.84,-11.87 -24.99,-18.16 -41.35,-50.52 -44.5,-93.89 -2.87,-39.42 5.17,-87.89 27.51,-143.03 l 0.3,-0.76 -0.69,-0.42 c -50.67,-30.841 -86,-64.579 -107.14,-97.45 -23.1,-35.899 -29.23,-70.762 -19.87,-99.559 9.55,-29.383 35.27,-54.941 75.54,-71.34 36.6,-14.91 85.18,-22.25 144.53,-18.043 l 0.82,0.063 0.18,-0.801 c 13.67,-57.711 34.85,-101.738 59.57,-132.012 27.01,-33.058 58.27,-49.648 88.55,-49.648 30.9,0 63.15,16.559 91.2,49.789 25.49,30.199 47.48,74.141 61.81,131.883 l 0.2,0.797 0.81,-0.071 c 59.11,-4.839 107.54,1.704 143.96,15.864 39.79,15.476 65.24,40.07 74.59,68.867 9.55,29.383 3.76,65.18 -19.18,102.121 -20.83,33.57 -55.83,68.07 -106.31,99.54 l -0.71,0.43 0.32,0.76 c 22.87,54.72 31.62,102.79 29.4,141.81 -2.42,42.63 -17.95,74.42 -42.45,92.22 -24.99,18.16 -60.82,23.72 -103.05,13.31 z m -128.13,-87.51 c 45.81,38.2 91.41,64.31 131.34,76.77 40.46,12.62 75.17,11.26 98.51,-5.7 22.72,-16.5 33.77,-48.42 33.35,-89.97 -0.42,-41.3 -12.19,-92.17 -35.1,-146.84 50.49,-31.769 89.41,-67.058 113.6,-101.179 24.52,-34.59 33.93,-68.032 25.02,-95.461 -8.68,-26.7 -35.62,-47.078 -75.26,-59.52 -39.4,-12.371 -91.42,-16.898 -150.51,-12 -14.6,-57.832 -36.15,-105.75 -61.12,-139.301 -25.32,-34.007 -54.21,-53.3 -83.06,-53.3 -28.06,0 -55.78,19.32 -79.86,53.179 -23.93,33.672 -44.32,81.742 -57.91,139.434 -59.52,-3.973 -111.75,1.699 -151.38,15.098 -40.16,13.57 -67.44,35.082 -76.35,62.511 -8.67,26.699 1.14,59.028 25.91,92.391 24.6,33.18 64.02,67.418 114.7,98.168 -22.18,55.38 -32.92,106.8 -32.42,148.63 0.49,42.39 12.52,74.98 35.86,91.94 22.71,16.5 56.48,17.15 95.87,3.91 39.15,-13.16 83.89,-40.07 128.81,-78.76 z m 131.91,74.93 c -39.88,-12.43 -85.48,-38.6 -131.31,-76.93 l -0.62,-0.52 -0.63,0.53 c -44.92,38.82 -89.66,65.79 -128.78,78.93 -38.78,13.04 -71.94,12.46 -94.13,-3.65 -22.82,-16.58 -34.58,-48.62 -35.07,-90.39 -0.48,-41.78 10.31,-93.23 32.59,-148.67 l 0.31,-0.75 -0.7,-0.43 c -50.8,-30.739 -90.27,-64.95 -114.86,-98.079 -24.38,-32.851 -34.08,-64.582 -25.62,-90.64 8.72,-26.84 35.57,-47.93 75.14,-61.301 39.58,-13.371 91.85,-19.012 151.46,-14.942 l 0.81,0.051 0.18,-0.801 c 13.54,-57.808 33.9,-105.918 57.79,-139.539 23.72,-33.339 50.89,-52.379 78.3,-52.379 28.22,0 56.57,19.008 81.51,52.52 24.95,33.512 46.45,81.469 61.01,139.422 l 0.2,0.797 0.81,-0.071 c 59.17,-5 111.23,-0.507 150.59,11.832 39.03,12.258 65.53,32.219 74.01,58.282 8.71,26.84 -0.61,59.668 -24.77,93.75 -24.16,34.09 -63.13,69.367 -113.75,101.118 l -0.68,0.43 0.32,0.75 c 23.03,54.73 34.85,105.62 35.27,146.87 0.41,40.91 -10.39,72.28 -32.57,88.39 -22.81,16.58 -56.94,17.87 -96.81,5.42 z m -131.91,-94.09 c 46.12,38.25 94.03,68.71 135.55,84.46 37.94,14.39 70.62,16.5 91.85,1.08 20.47,-14.88 27.48,-45.88 24.46,-85.5 -3.34,-43.67 -18.86,-97.92 -41.99,-152.54 50.64,-32.041 94.41,-68.189 122.22,-102.818 25.41,-31.641 37.52,-62.07 29.41,-87.012 -7.82,-24.082 -35.14,-40.332 -73.75,-49.691 -42.58,-10.32 -98.96,-12.32 -158.06,-7.219 -14.82,-58.051 -35.68,-110.859 -60.01,-148 -22.25,-33.941 -47.45,-54.859 -73.67,-54.859 -25.31,0 -49.21,20.961 -70.05,54.789 -22.97,37.301 -42.29,90.32 -55.7,148.09 -59.79,-3.84 -116.46,-0.321 -159.3,11.34 -39.16,10.66 -66.84,28.171 -74.95,53.109 -7.82,24.082 4.73,53.281 30.46,83.551 28.37,33.371 72.82,68.129 123.64,98.74 -22.13,55.68 -36.3,110.66 -38.44,155.01 -1.96,40.54 6.13,72.27 27.36,87.68 20.47,14.89 52.12,11.98 88.87,-3.14 40.5,-16.67 87.29,-48.21 132.1,-87.07 z m 136.23,82.66 c -41.52,-15.75 -89.48,-46.29 -135.63,-84.66 l -0.62,-0.52 -0.63,0.53 c -44.84,38.98 -91.7,70.61 -132.18,87.28 -36.14,14.87 -67.15,17.81 -87.02,3.37 -20.64,-14.99 -28.49,-46.14 -26.57,-86.04 2.15,-44.34 16.39,-99.4 38.61,-155.15 l 0.3,-0.75 -0.7,-0.42 c -50.92,-30.622 -95.48,-65.399 -123.85,-98.759 -25.31,-29.769 -37.69,-58.351 -30.1,-81.711 7.88,-24.261 35.08,-41.351 73.62,-51.859 42.84,-11.66 99.6,-15.133 159.49,-11.23 l 0.82,0.058 0.17,-0.801 c 13.38,-57.898 32.69,-111.007 55.66,-148.296 20.48,-33.274 43.84,-53.883 68.41,-53.883 25.5,0 50.17,20.59 72.06,54 24.33,37.133 45.18,90.043 59.95,148.203 l 0.21,0.789 0.81,-0.07 c 59.21,-5.161 115.7,-3.219 158.25,7.097 37.98,9.211 64.8,25.063 72.38,48.422 7.89,24.262 -4.07,54.07 -29.09,85.219 -27.79,34.609 -71.67,70.793 -122.41,102.831 l -0.69,0.43 0.31,0.75 c 23.21,54.7 38.82,109.03 42.16,152.7 2.97,38.96 -3.81,69.36 -23.68,83.79 -20.64,14.99 -52.69,12.84 -90.04,-1.32 z m -136.23,-101.82 c 46.32,38.2 96.91,73.98 140.06,93.31 35.33,15.82 65.74,20.61 84.88,6.7 18.31,-13.31 21.99,-42.95 16.66,-80.51 -6.55,-46.15 -26.69,-104.36 -49.93,-158.77 50.63,-32.24 100.3,-69.298 132,-104.349 25.97,-28.723 39.92,-56.172 32.61,-78.672 -7,-21.527 -34.06,-34.187 -71.43,-40.73 -45.9,-8.02 -107.49,-6.86 -166.42,-1.559 -15.02,-58.129 -34.92,-116.82 -58.46,-157.801 -19.29,-33.578 -41.08,-55.328 -64.74,-55.328 -22.63,0 -43.04,21.828 -60.8,55.36 -21.82,41.168 -39.74,100.097 -52.91,157.789 -59.93,-3.68 -121.9,-2.891 -168.14,6.84 -37.89,7.949 -65.31,21.96 -72.62,44.46 -6.99,21.532 7.45,47.68 33.85,74.942 32.41,33.476 82.92,68.726 133.72,99.078 -22.02,55.86 -40.42,115.03 -45.47,162.03 -4.13,38.49 0.72,68.89 19.86,82.8 18.31,13.31 47.65,7.65 81.72,-9.03 41.86,-20.49 91,-57.63 135.56,-96.56 z m 140.83,91.55 c -43.14,-19.32 -93.85,-55.24 -140.23,-93.55 l -0.62,-0.52 -0.63,0.54 c -44.62,39.03 -93.86,76.32 -135.75,96.82 -33.45,16.37 -62.11,22.02 -79.74,9.19 -18.5,-13.43 -23.15,-43.21 -19.09,-81.04 5.05,-47 23.55,-106.33 45.65,-162.28 l 0.29,-0.76 -0.7,-0.409 c -50.9,-30.383 -101.58,-65.699 -134.04,-99.203 -25.89,-26.75 -40.12,-52.258 -33.38,-73 7.06,-21.738 33.95,-35.359 71.18,-43.187 46.27,-9.731 108.41,-10.469 168.44,-6.743 l 0.81,0.051 0.19,-0.801 c 13.15,-57.789 31.08,-116.91 52.92,-158.117 17.43,-32.902 37.3,-54.32 59.1,-54.32 22.87,0 44.13,21.371 63.08,54.348 23.55,41 43.46,99.871 58.46,158.121 l 0.21,0.789 0.81,-0.078 c 59.03,-5.34 120.79,-6.563 166.74,1.48 36.68,6.41 63.18,18.688 69.92,39.43 7.07,21.75 -6.69,48.558 -32.2,76.781 -31.71,35.059 -81.54,72.188 -132.3,104.457 l -0.69,0.441 0.32,0.74 c 23.33,54.5 43.56,112.87 50.12,159.03 5.24,36.87 1.75,65.87 -15.89,78.69 -18.5,13.44 -48.26,8.65 -82.98,-6.9 z m -140.81,-110.71 c 39.89,32.7 85.12,68.49 125.44,92.57 40.78,24.36 76.61,36.74 97.01,21.91 19.41,-14.1 17.1,-51.26 4.85,-96.59 -12.1,-44.76 -33.87,-97.6 -53.88,-143.919 43.41,-27.84 91.44,-59.801 126.8,-90.711 35.77,-31.262 58.62,-61.508 50.82,-85.512 -7.42,-22.797 -43.47,-32.09 -90.37,-34.437 -46.32,-2.332 -103.29,2.05 -153.52,6.769 -13.06,-49.91 -28.63,-105.461 -47.08,-148.629 -18.69,-43.679 -40.4,-74.75 -65.62,-74.75 -23.98,0 -43.95,31.418 -60.68,75.289 -16.54,43.321 -29.97,98.871 -41.02,148.11 -51.48,-3 -109.12,-5.36 -155.89,-1.149 -47.32,4.258 -83.58,15.309 -91.37,39.297 -7.42,22.813 16.29,51.524 52.86,80.992 36.1,29.121 84.76,59.059 128.17,84.77 -18.76,48.04 -38.82,102.13 -49.27,147.91 -10.56,46.32 -11.26,84.22 9.15,99.05 19.41,14.09 54.04,0.41 93.35,-25.25 38.86,-25.35 82.39,-62.38 120.25,-95.72 z m 126.42,90.92 c -40.42,-24.14 -85.85,-60.13 -125.84,-92.92 l -0.64,-0.51 -0.61,0.53 c -37.96,33.44 -81.68,70.69 -120.61,96.09 -38.69,25.24 -72.58,38.81 -91.18,25.29 -19.65,-14.26 -18.81,-51.46 -8.41,-97.06 10.47,-45.89 30.65,-100.22 49.48,-148.389 l 0.3,-0.769 -0.7,-0.41 c -43.54,-25.774 -92.46,-55.84 -128.66,-85.032 -35.95,-28.98 -59.35,-57.019 -52.24,-78.89 7.51,-23.09 43.14,-33.789 89.72,-37.989 46.87,-4.23 104.79,-1.82 156.42,1.2 l 0.82,0.05 0.17,-0.8 c 11.06,-49.352 24.54,-105.172 41.11,-148.629 16.46,-43.153 35.9,-74.063 58.9,-74.063 24.28,0 45.46,30.59 63.85,73.59 18.51,43.293 34.12,99.109 47.2,149.133 l 0.2,0.797 0.81,-0.078 c 50.35,-4.75 107.61,-9.172 154.07,-6.84 46.13,2.32 81.53,11.258 88.63,33.129 7.51,23.09 -15.03,52.691 -50.25,83.468 -35.44,30.973 -83.72,63.063 -127.25,90.973 l -0.7,0.438 0.33,0.75 c 20.06,46.421 41.97,99.501 54.11,144.411 12.04,44.58 14.48,81.01 -4.12,94.52 -19.64,14.28 -54.76,1.99 -94.91,-21.99 z m -126.46,100.65 c 102.77,88.13 166.29,35.68 220.16,-8.83 9.22,-7.61 18.14,-14.99 26.92,-21.35 9.05,-6.58 19.13,-12.98 29.51,-19.56 59.82,-37.93 129.78,-82.3 79.04,-208.64 115.59,-70.5 85.33,-147.129 59.65,-212.122 -4.39,-11.117 -8.65,-21.898 -12,-32.187 -3.47,-10.691 -6.43,-22.231 -9.47,-34.109 -17.59,-68.622 -38.18,-148.864 -174,-139.661 -31.34,-131.711 -113.56,-126.601 -183.31,-122.269 -11.9,0.738 -23.45,1.457 -34.33,1.457 -11.22,0 -23.12,-0.758 -35.37,-1.527 -70.7,-4.473 -153.36,-9.68 -186.59,122.328 -134.95,-10.899 -155.5,68.879 -172.93,136.558 -2.97,11.543 -5.86,22.742 -9.22,33.102 -3.46,10.672 -7.85,21.75 -12.38,33.16 -26.1,65.852 -56.61,142.871 58.67,215.26 -52.06,124.97 17.47,169.17 76.45,206.66 10.08,6.41 19.85,12.63 28.62,19 9.05,6.57 18.25,14.18 27.72,22.02 54.56,45.17 118.39,98 222.86,10.71 z m 218.94,-10.31 c -53.41,44.12 -116.4,96.16 -218.31,8.34 l -0.62,-0.54 -0.62,0.52 c -103.62,86.99 -166.92,34.59 -221.02,-10.2 -9.49,-7.85 -18.7,-15.48 -27.82,-22.1 -8.82,-6.41 -18.62,-12.64 -28.73,-19.06 -58.46,-37.17 -127.41,-80.99 -75.38,-205.05 l 0.32,-0.75 -0.7,-0.44 c -114.75,-71.662 -84.48,-148.048 -58.6,-213.349 4.55,-11.473 8.96,-22.602 12.43,-33.281 3.36,-10.352 6.26,-21.602 9.25,-33.211 17.28,-67.09 37.65,-146.207 171.72,-135.059 l 0.82,0.07 0.19,-0.8 c 32.7,-131.282 114.71,-126.102 184.81,-121.66 12.31,0.781 24.27,1.531 35.49,1.531 10.87,0 22.48,-0.719 34.45,-1.461 69.14,-4.301 150.68,-9.371 181.51,121.582 l 0.19,0.797 0.81,-0.059 c 134.97,-9.469 155.37,70.121 172.81,138.149 3.08,11.972 6.05,23.562 9.51,34.242 3.38,10.398 7.65,21.179 12.03,32.308 25.46,64.43 55.49,140.422 -59.52,210.201 l -0.7,0.42 0.3,0.75 c 50.72,125.43 -18.68,169.44 -78,207.05 -10.41,6.6 -20.5,13.01 -29.61,19.62 -8.83,6.42 -17.78,13.82 -27.01,21.44 z m -189.99,-179.09 c -9.64,-7.98 -19.01,-15.75 -28.35,-23.33 l -0.62,-0.51 -0.61,0.54 c -8.18,7.26 -16.36,14.64 -24.81,22.24 -68.18,61.41 -152.2,137.1 -183.28,114.51 -32.9,-23.9 7.92,-126.96 42.16,-213.43 4.6,-11.62 9.1,-22.93 13.43,-34.161 l 0.3,-0.769 -0.72,-0.399 c -9.07,-5.339 -18.8,-10.941 -28.81,-16.722 -79.48,-45.86 -177.42,-102.391 -165.54,-138.938 12.57,-38.679 123.19,-31.703 216.01,-25.851 12.6,0.789 24.89,1.57 36.65,2.211 l 0.81,0.05 0.18,-0.8 c 2.25,-10.25 4.59,-21.243 6.99,-32.571 19.05,-89.769 42.55,-200.371 80.98,-200.371 40.66,0 68.22,107.36 91.34,197.442 3.17,12.379 6.26,24.437 9.22,35.539 l 0.21,0.789 0.8,-0.078 c 10.61,-1.051 21.71,-2.211 33.14,-3.422 91.26,-9.61 203.73,-21.449 215.6,15.101 12.56,38.68 -81.03,98.051 -159.57,147.879 -10.48,6.641 -20.68,13.11 -30.95,19.75 l -0.68,0.442 0.33,0.75 c 4.22,9.668 8.79,19.909 13.49,30.469 37.33,83.82 83.36,187.11 52.25,209.7 -32.9,23.9 -118.3,-46.77 -189.95,-106.06" />
        <path
           inkscape:connector-curvature="0"
           id="path24"
           style="fill:none;stroke:#000000;stroke-width:4.36288691000000030"
           d="m 3110.89,772.621 c 9.34,-7.582 18.71,-15.351 28.35,-23.32 71.65,-59.289 157.05,-129.973 189.95,-106.063 31.11,22.594 -14.92,125.883 -52.25,209.703 -4.7,10.547 -9.27,20.797 -13.49,30.457 l -0.33,0.762 0.68,0.442 c 10.27,6.636 20.47,13.097 30.95,19.75 78.54,49.82 172.13,109.198 159.57,147.878 -11.87,36.55 -124.34,24.7 -215.6,15.09 -11.43,-1.2 -22.53,-2.37 -33.14,-3.41 l -0.8,-0.08 -0.21,0.79 c -2.96,11.09 -6.05,23.15 -9.22,35.54 -23.12,90.08 -50.68,197.44 -91.34,197.44 -38.43,0 -61.93,-110.61 -80.98,-200.37 -2.4,-11.33 -4.74,-22.33 -6.99,-32.57 l -0.18,-0.8 -0.81,0.04 c -11.76,0.64 -24.05,1.42 -36.65,2.21 -92.82,5.86 -203.44,12.84 -216.01,-25.84 -11.88,-36.56 86.06,-93.079 165.54,-138.942 10.01,-5.777 19.74,-11.379 28.81,-16.719 l 0.72,-0.41 -0.3,-0.758 c -4.33,-11.23 -8.83,-22.55 -13.43,-34.171 -34.24,-86.461 -75.06,-189.52 -42.16,-213.418 31.08,-22.59 115.1,53.089 183.28,114.507 8.45,7.59 16.63,14.981 24.81,22.231 l 0.61,0.551 0.62,-0.52 z m 0.03,-191.59 c 104.58,-89.82 171.48,-38.89 226.09,2.707 5.73,4.364 11.33,8.641 16.77,12.59 5.59,4.063 11.61,8.223 17.76,12.473 57.04,39.429 126.16,87.219 74.1,215.418 l -0.31,0.761 0.69,0.43 c 117.75,71.699 89.97,151.07 67.3,215.86 -2.39,6.8 -4.72,13.46 -6.79,19.83 -2.18,6.7 -4.26,13.64 -6.39,20.75 -19.86,66.43 -43.96,146.94 -181.98,137.04 l -0.81,-0.06 -0.19,0.79 c -31.81,134.15 -115.88,132.25 -184.5,130.7 -7.26,-0.16 -14.35,-0.32 -20.97,-0.32 -6.86,0 -14.19,0.17 -21.69,0.35 -69.32,1.62 -153.34,3.59 -186.57,-130.74 l -0.2,-0.79 -0.81,0.07 c -137.42,11.19 -161.59,-69.34 -181.32,-135.08 -2.05,-6.87 -4.07,-13.58 -6.17,-20.04 -2.15,-6.62 -4.56,-13.5 -7.03,-20.54 -22.96,-65.421 -50.81,-144.718 66.68,-217.832 l 0.69,-0.418 -0.31,-0.769 c -53.12,-127.223 16,-175.09 72.43,-214.18 5.95,-4.121 11.77,-8.14 17.16,-12.062 5.62,-4.09 11.42,-8.508 17.35,-13.028 55.13,-42.062 121.94,-93.043 227.78,-3.91 l 0.63,0.528 0.61,-0.528 z m 227.25,1.18 c -55.06,-41.93 -122.48,-93.262 -227.88,-3.16 -106.65,-89.403 -173.99,-38.039 -229.55,4.347 -5.87,4.493 -11.61,8.872 -17.33,13.012 -5.54,4.039 -11.26,8 -17.11,12.039 -56.89,39.422 -126.54,87.672 -73.42,215.75 -117.98,73.801 -89.95,153.723 -66.8,219.671 2.45,6.97 4.84,13.78 7.02,20.49 2.08,6.4 4.1,13.12 6.16,20 19.9,66.29 44.27,147.45 182.5,136.5 33.74,135.01 118.4,133.04 188.27,131.41 l 0,0 c 7.34,-0.17 14.52,-0.35 21.66,-0.35 6.92,0 13.85,0.16 20.93,0.32 69.19,1.56 153.91,3.47 186.21,-131.38 138.84,9.63 163.13,-71.49 183.16,-138.46 2.13,-7.11 4.21,-14.06 6.36,-20.7 2.11,-6.48 4.41,-13.07 6.77,-19.8 22.86,-65.318 50.86,-145.298 -67.41,-217.701 52.07,-129.058 -17.58,-177.219 -75.08,-216.98 -6.05,-4.18 -11.98,-8.278 -17.72,-12.449 -5.51,-4 -11.07,-8.239 -16.74,-12.559 z m -227.25,17.98 c 109.91,-94.062 182.48,-41.3 237.97,-0.953 l 2.43,1.782 2.8,2.031 c 55.95,40.597 128.05,92.918 73.3,227.09 l -0.31,0.757 0.7,0.422 c 123.43,75.469 95.66,160.789 74.42,226.03 l -0.93,2.87 0,0.01 -1.06,3.27 c -21.32,65.76 -48.79,150.5 -193.33,139.89 l -0.81,-0.06 -0.2,0.8 c -33.62,140.71 -123.35,140.67 -191.95,140.64 l -3.02,-0.01 -3.45,0.01 c -69.14,0.04 -158.23,0.09 -192.79,-140.65 l -0.2,-0.79 -0.81,0.06 c -144.21,11.49 -171.91,-73.85 -193.07,-139.11 l 0,0 -0.94,-2.86 -1.06,-3.28 c -21.4,-65.749 -48.98,-150.46 74.18,-226.82 l 0.69,-0.429 -0.31,-0.75 c -55.49,-133.602 17.12,-186.313 72.64,-226.61 l 2.45,-1.769 2.78,-2.043 c 55.91,-40.66 127.95,-93.059 238.63,0.472 l 0.63,0.528 0.62,-0.528 z m 239.09,-2.5 c -55.9,-40.66 -129,-93.8 -239.71,0.52 -111.49,-93.789 -184.05,-41.02 -240.38,-0.039 l -2.8,2.027 -2.45,1.781 c -55.93,40.61 -129.06,93.7 -73.57,228.141 -123.64,77.051 -95.88,162.367 -74.32,228.609 l 1.07,3.28 0.93,2.87 0,0 c 21.33,65.76 49.23,151.71 194.24,140.49 35.07,141.39 124.8,141.35 194.46,141.32 l 6.47,0 c 69.12,0.02 159.49,0.05 193.63,-141.33 145.32,10.35 173,-75 194.5,-141.27 l 1.05,-3.28 0,0 0.94,-2.86 c 21.38,-65.739 49.34,-151.669 -74.57,-227.829 54.74,-135.012 -17.87,-187.711 -74.25,-228.633 l -2.79,-2.027 -2.45,-1.77 z m -239.09,21.661 c 53.82,-45.891 99.86,-59.071 139.13,-55.911 39.28,3.18 71.9,22.707 98.82,42.27 27.01,19.629 55.55,44.488 70.59,80.769 15.04,36.282 16.62,84.059 -10.26,149.579 l -0.32,0.761 0.7,0.43 c 60.28,37 87.04,76.699 96.17,115.039 9.12,38.352 0.62,75.401 -9.66,107.041 -10.32,31.76 -25.15,66.58 -55,92.1 -29.86,25.51 -74.82,41.78 -145.45,36.46 l -0.8,-0.06 -0.2,0.8 c -16.57,68.75 -46.05,106.48 -79.69,127 -33.65,20.52 -71.51,23.89 -104.79,23.89 -33.39,0 -71.09,-3.34 -104.59,-23.85 -33.49,-20.51 -62.86,-58.24 -79.62,-127.04 l -0.19,-0.8 -0.81,0.06 c -70.52,5.48 -115.51,-10.89 -145.42,-36.55 -29.93,-25.65 -44.83,-60.63 -55.11,-92.27 -10.31,-31.76 -18.79,-68.648 -9.63,-106.851 9.15,-38.188 35.97,-77.77 96.22,-114.981 l 0.69,-0.429 -0.31,-0.75 c -27,-65.36 -25.32,-113.207 -10.16,-149.598 15.15,-36.383 43.8,-61.359 70.73,-80.922 27.01,-19.617 59.47,-39.078 98.62,-42.18 39.16,-3.089 85.09,10.18 139.09,55.993 l 0.63,0.527 0.62,-0.527 z m 139.29,-57.821 c -39.59,-3.191 -85.9,9.989 -139.91,55.828 -54.19,-45.769 -100.4,-59.019 -139.88,-55.91 -39.6,3.141 -72.36,22.75 -99.59,42.539 -27.15,19.731 -56.05,44.934 -71.38,81.742 -15.27,36.668 -17.05,84.77 9.86,150.309 -60.26,37.391 -87.16,77.25 -96.39,115.742 -9.26,38.649 -0.73,75.859 9.67,107.879 10.37,31.91 25.41,67.19 55.69,93.14 30.14,25.86 75.36,42.41 146,37.07 16.95,68.88 46.53,106.76 80.29,127.44 33.89,20.75 71.92,24.14 105.59,24.14 33.55,0 71.74,-3.41 105.78,-24.18 33.91,-20.68 63.63,-58.57 80.37,-127.41 70.75,5.18 115.93,-11.25 146.02,-36.97 30.21,-25.82 45.18,-60.95 55.59,-92.97 10.36,-31.9 18.92,-69.279 9.7,-108.068 -9.2,-38.641 -36.05,-78.614 -96.34,-115.821 26.78,-65.679 25.12,-113.722 9.96,-150.281 -15.23,-36.719 -44.01,-61.809 -71.24,-81.59 -27.14,-19.719 -60.05,-39.422 -99.79,-42.629 z M 3110.92,638.5 c 51.86,-44.012 97.81,-60.449 137.24,-61.16 39.4,-0.711 72.36,14.25 98.25,33.058 25.81,18.762 49.9,45.262 61.07,82.731 11.18,37.512 9.41,86.051 -16.5,148.851 l -0.31,0.75 0.69,0.43 c 57.89,35.719 87.72,74.34 100.59,111.629 12.86,37.25 8.8,73.221 -1.09,103.651 -9.86,30.35 -27.62,61.46 -59.8,83.65 -32.23,22.22 -78.93,35.54 -146.67,30.3 l -0.81,-0.06 -0.2,0.8 c -16.07,66.09 -43.59,106.39 -75.07,130.16 -31.46,23.73 -66.92,30.99 -98.92,30.99 -31.91,0 -66.98,-7.29 -98.04,-31.03 -31.08,-23.78 -58.19,-64.09 -74.14,-130.12 l -0.19,-0.8 -0.81,0.06 c -67.84,5.14 -114.67,-8.57 -147,-31.17 -32.29,-22.59 -50.15,-54.07 -60.04,-84.51 -9.86,-30.34 -13.77,-65.948 -0.78,-102.819 13.01,-36.911 42.96,-75.141 100.84,-110.719 l 0.7,-0.434 -0.32,-0.758 c -25.84,-62.91 -27.26,-111.691 -15.76,-149.441 11.5,-37.68 35.92,-64.391 61.8,-83.211 25.82,-18.758 58.48,-33.469 97.56,-32.508 39.13,0.961 84.74,17.641 136.46,61.68 l 0.63,0.539 0.62,-0.539 z m 137.22,-63.07 c -39.7,0.711 -85.86,17.14 -137.84,61.09 -51.85,-43.989 -97.67,-60.649 -137.04,-61.622 -39.59,-0.976 -72.63,13.903 -98.73,32.883 -26.18,19.008 -50.87,46.039 -62.51,84.219 -11.59,37.969 -10.22,86.93 15.51,149.961 -57.84,35.711 -87.86,74.141 -100.95,111.289 -13.16,37.352 -9.21,73.37 0.76,104.06 10,30.77 28.08,62.61 60.78,85.47 32.54,22.75 79.53,36.59 147.42,31.59 16.1,66.05 43.37,106.48 74.65,130.4 31.46,24.06 66.92,31.44 99.2,31.44 32.35,0 68.22,-7.35 100.08,-31.39 31.68,-23.92 59.35,-64.34 75.58,-130.45 67.8,5.1 114.67,-8.34 147.09,-30.7 32.6,-22.48 50.58,-53.94 60.55,-84.63 10,-30.77 14.09,-67.149 1.07,-104.868 -12.95,-37.531 -42.85,-76.352 -100.7,-112.211 25.8,-62.902 27.5,-111.629 16.26,-149.383 -11.31,-37.949 -35.68,-64.769 -61.79,-83.738 -26.17,-19.012 -59.5,-34.149 -99.39,-33.41 z m -137.22,82.23 c 45.35,-38.32 87.37,-58.058 124.4,-64.801 44.34,-8.07 81.52,2.539 108.64,22.219 26.79,19.481 47.69,51.113 53.18,95.203 4.6,37.028 -1.64,82.84 -24.37,137.617 l -0.32,0.762 0.7,0.43 c 50.45,31.281 82.22,65.14 100.07,98.281 21.37,39.68 22.78,78.309 12.43,110.179 -10.23,31.5 -33.86,61.17 -74.09,80.01 -33.8,15.82 -79.3,24.03 -138.43,19.34 l -0.81,-0.07 -0.2,0.79 c -14.16,57.66 -36.55,98.34 -62.54,125.55 -31.13,32.59 -67.45,45.87 -100.96,45.87 -33.12,0 -68.62,-13.3 -98.99,-45.74 -25.49,-27.24 -47.36,-67.98 -61.16,-125.67 l -0.19,-0.79 -0.8,0.06 c -59.22,4.34 -104.84,-4.38 -138.74,-20.69 -40.62,-19.54 -64.47,-49.97 -74.83,-81.84 -10.23,-31.5 -8.54,-69.382 12.92,-108.28 18.04,-32.668 50.02,-66.051 100.62,-97 l 0.7,-0.43 -0.31,-0.75 c -22.43,-54.969 -28.24,-101.051 -23.2,-138.34 6.03,-44.672 27.6,-76.75 54.71,-96.449 26.8,-19.473 63.34,-29.57 106.97,-21.172 36.64,7.051 78.28,27.16 123.35,65.711 l 0.62,0.531 0.63,-0.531 z m 124.06,-66.691 c -37.17,6.761 -79.29,26.5 -124.68,64.703 -45.11,-38.442 -86.84,-58.531 -123.62,-65.613 -44.2,-8.508 -81.26,1.742 -108.45,21.5 -27.5,19.992 -49.39,52.511 -55.48,97.742 -5.06,37.437 0.69,83.609 23,138.578 -50.5,31.019 -82.5,64.5 -100.6,97.281 -21.76,39.422 -23.45,77.83 -13.07,109.8 10.51,32.33 34.67,63.19 75.83,82.98 34.04,16.37 79.71,25.17 138.88,20.93 13.91,57.62 35.85,98.39 61.44,125.74 30.77,32.88 66.77,46.36 100.39,46.36 33.99,0 70.81,-13.45 102.34,-46.47 26.1,-27.31 48.57,-68.03 62.83,-125.62 59.09,4.58 104.65,-3.69 138.58,-19.59 40.77,-19.09 64.71,-49.18 75.11,-81.14 10.5,-32.33 9.08,-71.502 -12.57,-111.689 -17.92,-33.25 -49.7,-67.223 -100.06,-98.582 22.62,-54.777 28.83,-100.68 24.2,-137.84 -5.56,-44.668 -26.78,-76.75 -53.97,-96.508 -27.5,-19.972 -65.18,-30.73 -110.1,-22.562 z m -124.07,85.851 c 45.54,-38.281 89.16,-60.91 127.53,-70.351 42.23,-10.399 78.06,-4.84 103.05,13.312 24.5,17.797 40.03,49.598 42.45,92.231 2.22,39.019 -6.53,87.09 -29.4,141.797 l -0.32,0.761 0.71,0.442 c 50.48,31.468 85.48,65.957 106.31,99.539 22.94,36.937 28.73,72.739 19.18,102.119 -9.35,28.79 -34.8,53.38 -74.59,68.87 -36.42,14.16 -84.85,20.7 -143.96,15.86 l -0.81,-0.07 -0.2,0.79 c -14.33,57.75 -36.32,101.68 -61.81,131.88 -28.05,33.23 -60.3,49.8 -91.2,49.8 -30.28,0 -61.54,-16.59 -88.55,-49.66 -24.72,-30.26 -45.9,-74.3 -59.57,-132.01 l -0.18,-0.79 -0.82,0.06 c -59.35,4.21 -107.93,-3.13 -144.53,-18.04 -40.27,-16.41 -65.99,-41.96 -75.54,-71.35 -9.36,-28.8 -3.23,-63.651 19.87,-99.561 21.14,-32.867 56.47,-66.609 107.14,-97.437 l 0.69,-0.422 -0.3,-0.77 c -22.34,-55.14 -30.38,-103.609 -27.51,-143.011 3.15,-43.379 19.51,-75.75 44.5,-93.899 24.51,-17.801 59.54,-22.738 100.84,-11.879 37.79,9.957 80.81,33.141 125.78,71.778 l 0.62,0.543 0.62,-0.532 z m 127.07,-72.218 c -38.45,9.48 -82.13,32.058 -127.67,70.226 -44.99,-38.539 -88.04,-61.68 -125.94,-71.648 -41.87,-11.032 -77.48,-5.969 -102.44,12.179 -25.45,18.469 -42.09,51.34 -45.29,95.301 -2.88,39.5 5.1,88.012 27.33,143.129 -50.55,30.871 -85.87,64.672 -107.05,97.621 -23.44,36.43 -29.62,71.85 -20.09,101.2 9.72,29.92 35.83,55.91 76.65,72.53 36.68,14.94 85.28,22.34 144.57,18.23 13.74,57.61 34.97,101.65 59.77,131.98 27.4,33.54 59.18,50.38 90.03,50.38 31.45,0 64.23,-16.8 92.67,-50.49 25.55,-30.26 47.6,-74.2 62,-131.86 59.05,4.73 107.48,-1.85 144,-16.05 40.37,-15.7 66.2,-40.72 75.73,-70.07 9.72,-29.91 3.88,-66.28 -19.37,-103.729 -20.9,-33.652 -55.87,-68.191 -106.25,-99.73 22.74,-54.68 31.45,-102.781 29.23,-141.903 -2.47,-43.238 -18.28,-75.539 -43.24,-93.668 -25.44,-18.5 -61.83,-24.171 -104.64,-13.628 z m -127.07,91.378 c 45.83,-38.332 91.43,-64.492 131.31,-76.921 39.87,-12.45 74,-11.161 96.81,5.421 22.18,16.098 32.98,47.481 32.57,88.391 -0.42,41.25 -12.24,92.141 -35.27,146.859 l -0.32,0.75 0.68,0.442 c 50.62,31.738 89.59,67.027 113.75,101.109 24.16,34.071 33.48,66.919 24.77,93.749 -8.48,26.07 -34.98,46.03 -74.01,58.28 -39.36,12.35 -91.42,16.83 -150.59,11.83 l -0.81,-0.06 -0.2,0.79 c -14.56,57.95 -36.06,105.92 -61.01,139.43 -24.94,33.5 -53.29,52.51 -81.51,52.51 -27.41,0 -54.58,-19.03 -78.3,-52.37 -23.89,-33.62 -44.25,-81.73 -57.79,-139.55 l -0.18,-0.8 -0.81,0.05 c -59.61,4.08 -111.88,-1.56 -151.46,-14.93 -39.57,-13.37 -66.42,-34.47 -75.14,-61.3 -8.46,-26.07 1.24,-57.789 25.62,-90.64 24.59,-33.129 64.06,-67.348 114.86,-98.09 l 0.7,-0.43 -0.31,-0.75 c -22.28,-55.441 -33.07,-106.879 -32.59,-148.66 0.49,-41.77 12.25,-73.82 35.07,-90.391 22.19,-16.109 55.35,-16.687 94.13,-3.648 39.12,13.14 83.86,40.097 128.78,78.918 l 0.63,0.543 0.62,-0.532 z m 130.74,-78.769 c -39.93,12.461 -85.53,38.578 -131.34,76.777 -44.92,-38.699 -89.66,-65.609 -128.81,-78.769 -39.39,-13.231 -73.16,-12.578 -95.87,3.922 -23.34,16.961 -35.37,49.55 -35.86,91.937 -0.5,41.82 10.24,93.25 32.42,148.621 -50.68,30.762 -90.1,65 -114.7,98.18 -24.77,33.351 -34.58,65.691 -25.91,92.381 8.91,27.44 36.19,48.95 76.35,62.52 39.63,13.39 91.86,19.07 151.38,15.09 13.59,57.7 33.98,105.77 57.91,139.44 24.08,33.85 51.8,53.18 79.86,53.18 28.85,0 57.74,-19.29 83.06,-53.3 24.97,-33.55 46.52,-81.47 61.12,-139.31 59.09,4.91 111.11,0.38 150.51,-11.99 39.64,-12.44 66.58,-32.82 75.26,-59.52 8.91,-27.43 -0.5,-60.87 -25.02,-95.46 -24.19,-34.121 -63.11,-69.41 -113.6,-101.191 22.91,-54.668 34.68,-105.528 35.1,-146.84 0.42,-41.539 -10.63,-73.469 -33.35,-89.957 -23.34,-16.961 -58.05,-18.332 -98.51,-5.711 z m -130.74,97.93 c 46.15,-38.36 94.11,-68.903 135.63,-84.653 37.35,-14.168 69.4,-16.308 90.04,-1.316 19.87,14.43 26.65,44.828 23.68,83.777 -3.34,43.68 -18.95,98 -42.16,152.711 l -0.31,0.738 0.69,0.442 c 50.74,32.031 94.62,68.211 122.41,102.832 25.02,31.148 36.98,60.958 29.09,85.218 -7.58,23.36 -34.4,39.21 -72.38,48.41 -42.55,10.32 -99.04,12.27 -158.25,7.1 l -0.81,-0.07 -0.21,0.79 c -14.77,58.16 -35.62,111.08 -59.95,148.21 -21.89,33.41 -46.56,53.99 -72.06,53.99 -24.57,0 -47.93,-20.6 -68.41,-53.87 -22.97,-37.29 -42.28,-90.41 -55.66,-148.31 l -0.17,-0.79 -0.82,0.05 c -59.89,3.91 -116.65,0.43 -159.49,-11.24 -38.54,-10.49 -65.74,-27.58 -73.62,-51.84 -7.59,-23.36 4.79,-51.941 30.1,-81.711 28.37,-33.371 72.93,-68.148 123.85,-98.757 l 0.7,-0.422 -0.3,-0.758 c -22.22,-55.742 -36.46,-110.801 -38.61,-155.152 -1.92,-39.891 5.93,-71.04 26.57,-86.032 19.87,-14.449 50.88,-11.5 87.02,3.371 40.48,16.661 87.34,48.301 132.18,87.27 l 0.63,0.531 0.62,-0.519 z m 134.95,-86.45 c -41.52,15.75 -89.43,46.207 -135.55,84.457 -44.81,-38.859 -91.6,-70.398 -132.1,-87.07 -36.75,-15.117 -68.4,-18.027 -88.87,-3.148 -21.23,15.422 -29.32,47.14 -27.36,87.679 2.14,44.36 16.31,99.34 38.44,155.02 -50.82,30.621 -95.27,65.359 -123.64,98.73 -25.73,30.282 -38.28,59.481 -30.46,83.561 8.11,24.94 35.79,42.44 74.95,53.1 42.84,11.67 99.51,15.19 159.3,11.34 13.41,57.78 32.73,110.8 55.7,148.09 20.84,33.84 44.74,54.79 70.05,54.79 26.22,0 51.42,-20.91 73.67,-54.86 24.33,-37.14 45.19,-89.95 60.01,-148 59.1,5.1 115.48,3.11 158.06,-7.21 38.61,-9.36 65.93,-25.62 73.75,-49.69 8.11,-24.94 -4,-55.37 -29.41,-87.019 -27.81,-34.621 -71.58,-70.77 -122.22,-102.813 23.13,-54.628 38.65,-108.878 41.99,-152.546 3.02,-39.622 -3.99,-70.614 -24.46,-85.5 -21.23,-15.411 -53.91,-13.301 -91.85,1.089 z m -134.95,105.61 C 3157.29,696 3208,660.07 3251.14,640.75 c 34.72,-15.551 64.48,-20.328 82.98,-6.898 17.64,12.828 21.13,41.828 15.89,78.687 -6.56,46.172 -26.79,104.543 -50.12,159.031 l -0.32,0.75 0.69,0.442 c 50.76,32.269 100.59,69.386 132.3,104.457 25.51,28.221 39.27,55.031 32.2,76.781 -6.74,20.74 -33.24,33.02 -69.92,39.43 -45.95,8.03 -107.71,6.82 -166.74,1.47 l -0.81,-0.07 -0.21,0.79 c -15,58.25 -34.91,117.12 -58.46,158.11 -18.95,32.98 -40.21,54.35 -63.08,54.35 -21.8,0 -41.67,-21.41 -59.1,-54.31 -21.84,-41.21 -39.77,-100.33 -52.92,-158.12 l -0.19,-0.8 -0.81,0.05 c -60.03,3.72 -122.17,2.99 -168.44,-6.74 -37.23,-7.83 -64.12,-21.45 -71.18,-43.19 -6.74,-20.74 7.49,-46.251 33.38,-73.001 32.46,-33.508 83.14,-68.828 134.04,-99.199 l 0.7,-0.418 -0.29,-0.75 c -22.1,-55.954 -40.6,-115.282 -45.65,-162.293 -4.06,-37.821 0.59,-67.61 19.09,-81.039 17.63,-12.821 46.29,-7.168 79.74,9.199 41.89,20.492 91.13,57.793 135.75,96.812 l 0.63,0.539 0.62,-0.519 z M 3250.37,639 c -43.15,19.32 -93.74,55.109 -140.06,93.301 -44.56,-38.922 -93.7,-76.063 -135.56,-96.551 -34.07,-16.68 -63.41,-22.352 -81.72,-9.039 -19.14,13.91 -23.99,44.309 -19.86,82.809 5.05,47 23.45,106.171 45.47,162.019 -50.8,30.359 -101.31,65.609 -133.72,99.09 -26.4,27.25 -40.84,53.401 -33.85,74.931 7.31,22.5 34.73,36.51 72.62,44.47 46.24,9.73 108.21,10.51 168.14,6.83 13.17,57.69 31.09,116.63 52.91,157.8 17.76,33.53 38.17,55.35 60.8,55.35 23.66,0 45.45,-21.75 64.74,-55.32 23.54,-40.98 43.44,-99.67 58.46,-157.8 58.93,5.29 120.52,6.46 166.42,-1.56 37.37,-6.54 64.43,-19.21 71.43,-40.73 7.31,-22.51 -6.64,-49.95 -32.61,-78.67 -31.7,-35.059 -81.37,-72.121 -132,-104.36 23.24,-54.41 43.38,-112.621 49.93,-158.761 5.33,-37.559 1.65,-67.207 -16.66,-80.508 -19.14,-13.91 -49.55,-9.121 -84.88,6.699 z m -139.46,114.461 c 39.99,-32.789 85.42,-68.781 125.84,-92.922 40.15,-23.969 75.27,-36.269 94.91,-21.988 18.6,13.519 16.16,49.937 4.12,94.527 -12.14,44.91 -34.05,97.992 -54.11,144.41 l -0.33,0.75 0.7,0.442 c 43.53,27.91 91.81,60 127.25,90.961 35.22,30.789 57.76,60.389 50.25,83.469 -7.1,21.87 -42.5,30.82 -88.63,33.13 -46.46,2.34 -103.72,-2.09 -154.07,-6.83 l -0.81,-0.08 -0.2,0.79 c -13.08,50.03 -28.69,105.85 -47.2,149.14 -18.39,43 -39.57,73.59 -63.85,73.59 -23,0 -42.44,-30.91 -58.9,-74.06 -16.57,-43.47 -30.05,-99.29 -41.11,-148.64 l -0.17,-0.79 -0.82,0.04 c -51.63,3.02 -109.55,5.43 -156.42,1.2 -46.58,-4.19 -82.21,-14.89 -89.72,-37.98 -7.11,-21.87 16.29,-49.909 52.24,-78.901 36.2,-29.18 85.12,-59.258 128.66,-85.02 l 0.7,-0.418 -0.3,-0.761 c -18.83,-48.18 -39.01,-102.508 -49.48,-148.391 -10.4,-45.609 -11.24,-82.809 8.41,-97.059 18.6,-13.531 52.49,0.039 91.18,25.289 38.93,25.403 82.65,62.653 120.61,96.082 l 0.61,0.539 0.64,-0.519 z m 124.86,-94.563 c -40.32,24.071 -85.55,59.872 -125.44,92.563 -37.86,-33.34 -81.39,-70.359 -120.25,-95.711 -39.31,-25.672 -73.94,-39.352 -93.35,-25.25 -20.41,14.832 -19.71,52.73 -9.15,99.051 10.45,45.781 30.51,99.859 49.27,147.91 -43.41,25.711 -92.07,55.648 -128.17,84.758 -36.57,29.48 -60.28,58.181 -52.86,80.991 7.79,24 44.05,35.04 91.37,39.31 46.77,4.21 104.41,1.85 155.89,-1.15 11.05,49.24 24.48,104.78 41.02,148.1 16.73,43.88 36.7,75.3 60.68,75.3 25.22,0 46.93,-31.07 65.62,-74.76 18.45,-43.16 34.02,-98.71 47.08,-148.62 50.23,4.72 107.2,9.1 153.52,6.77 46.9,-2.36 82.95,-11.64 90.37,-34.45 7.8,-24 -15.05,-54.241 -50.82,-85.499 -35.36,-30.91 -83.39,-62.871 -126.8,-90.711 20.01,-46.328 41.78,-99.16 53.88,-143.922 12.25,-45.328 14.56,-82.488 -4.85,-96.59 -20.4,-14.828 -56.23,-2.449 -97.01,21.91 z m -124.85,-97.027 c 101.91,-87.82 164.9,-35.781 218.31,8.34 9.23,7.621 18.18,15.008 27.01,21.43 9.11,6.621 19.2,13.019 29.61,19.621 59.32,37.609 128.72,81.617 78,207.058 l -0.3,0.739 0.7,0.429 c 115.01,69.774 84.98,145.774 59.52,210.202 -4.38,11.12 -8.65,21.9 -12.03,32.31 -3.46,10.67 -6.43,22.27 -9.51,34.23 -17.44,68.03 -37.84,147.63 -172.81,138.16 l -0.81,-0.06 -0.19,0.8 c -30.83,130.94 -112.37,125.88 -181.51,121.58 -11.97,-0.74 -23.58,-1.47 -34.45,-1.47 -11.22,0 -23.18,0.76 -35.49,1.54 -70.1,4.43 -152.11,9.62 -184.81,-121.66 l -0.19,-0.8 -0.82,0.07 c -134.07,11.15 -154.44,-67.97 -171.72,-135.06 -2.99,-11.61 -5.89,-22.86 -9.25,-33.21 -3.47,-10.68 -7.88,-21.81 -12.43,-33.28 -25.88,-65.301 -56.15,-141.692 58.6,-213.352 l 0.7,-0.437 -0.32,-0.75 c -52.03,-124.063 16.92,-167.879 75.38,-205.051 10.11,-6.43 19.91,-12.648 28.73,-19.059 9.12,-6.632 18.33,-14.25 27.82,-22.101 54.1,-44.801 117.4,-97.199 221.02,-10.211 l 0.62,0.531 0.62,-0.539 z m 219.53,6.859 c -53.87,-44.511 -117.39,-96.968 -220.16,-8.832 -104.47,-87.289 -168.3,-34.468 -222.86,10.704 -9.47,7.839 -18.67,15.449 -27.72,22.027 -8.77,6.371 -18.54,12.59 -28.62,19 -58.98,37.48 -128.51,81.691 -76.45,206.672 -115.28,72.379 -84.77,149.39 -58.67,215.249 4.53,11.41 8.92,22.49 12.38,33.16 3.36,10.35 6.25,21.55 9.22,33.1 17.43,67.67 37.98,147.45 172.93,136.56 33.23,132.01 115.89,126.8 186.59,122.32 12.25,-0.77 24.15,-1.52 35.37,-1.52 10.88,0 22.43,0.72 34.33,1.45 69.75,4.34 151.97,9.45 183.31,-122.26 135.82,9.2 156.41,-71.05 174,-139.66 3.04,-11.88 6,-23.43 9.47,-34.11 3.35,-10.29 7.61,-21.08 12,-32.19 25.68,-64.99 55.94,-141.619 -59.65,-212.119 50.74,-126.332 -19.22,-170.722 -79.04,-208.652 -10.38,-6.578 -20.46,-12.969 -29.51,-19.551 -8.78,-6.367 -17.7,-13.75 -26.92,-21.348 z m -192.44,179.09 c -9.63,7.981 -19.03,15.739 -27.68,22.801 -7.52,-6.68 -15.75,-14.082 -24.19,-21.691 -68.69,-61.879 -153.36,-138.141 -185.71,-114.649 -34.11,24.789 7.01,128.598 41.52,215.699 4.61,11.649 9.1,22.989 13.12,33.391 -8.99,5.27 -18.4,10.711 -28.09,16.289 -80.08,46.219 -178.78,103.17 -166.43,141.2 13.04,40.1 124.47,33.07 217.97,27.17 12.38,-0.78 24.44,-1.54 35.81,-2.17 2.25,10.22 4.5,20.84 6.82,31.77 19.21,90.44 42.87,201.9 82.86,201.9 42.15,0 69.91,-108.16 93.19,-198.9 3.04,-11.87 6.02,-23.45 9.01,-34.73 10.26,1.01 21.13,2.15 32.31,3.33 91.94,9.69 205.27,21.63 217.63,-16.41 13.02,-40.09 -81.26,-99.91 -160.37,-150.101 -10.65,-6.75 -21.03,-13.34 -30.25,-19.297 4.17,-9.531 8.61,-19.473 13.16,-29.703 37.62,-84.457 83.99,-188.539 51.64,-212.039 -34.1,-24.782 -120.14,46.41 -192.32,106.14" />
      </g>
    </g>
  </g>
</svg>
