<?xml version="1.0" encoding="UTF-8" standalone="no"?>
<svg
   xmlns:dc="http://purl.org/dc/elements/1.1/"
   xmlns:cc="http://creativecommons.org/ns#"
   xmlns:rdf="http://www.w3.org/1999/02/22-rdf-syntax-ns#"
   xmlns:svg="http://www.w3.org/2000/svg"
   xmlns="http://www.w3.org/2000/svg"
   xmlns:sodipodi="http://sodipodi.sourceforge.net/DTD/sodipodi-0.dtd"
   xmlns:inkscape="http://www.inkscape.org/namespaces/inkscape"
   version="1.0"
   width="744.09448"
   height="1052.3622"
   viewBox="0 0 595.27559 841.88975"
   preserveAspectRatio="xMidYMid meet"
   id="svg2"
   inkscape:version="0.48.4 r9939"
   sodipodi:docname="waves.svg">
  <defs
     id="defs14" />
  <sodipodi:namedview
     pagecolor="#ffffff"
     bordercolor="#666666"
     borderopacity="1"
     objecttolerance="10"
     gridtolerance="10"
     guidetolerance="10"
     inkscape:pageopacity="0"
     inkscape:pageshadow="2"
     inkscape:window-width="640"
     inkscape:window-height="480"
     id="namedview12"
     showgrid="false"
     inkscape:zoom="0.49424084"
     inkscape:cx="245.08622"
     inkscape:cy="378.20849"
     inkscape:current-layer="svg2" />
  <metadata
     id="metadata4">
Created by potrace 1.11, written by Peter Selinger 2001-2013
<rdf:RDF>
  <cc:Work
     rdf:about="">
    <dc:format>image/svg+xml</dc:format>
    <dc:type
       rdf:resource="http://purl.org/dc/dcmitype/StillImage" />
  </cc:Work>
</rdf:RDF>
</metadata>
  <g
     transform="matrix(0.1,0,0,-0.1,29.135593,809.51688)"
     id="g6"
     style="fill:none;stroke:#000000">
    <path
       d="m 666,7606 -70,-34 -220,14 c -122,7 -256,17 -298,22 -76,8 -78,8 -78,-14 0,-26 17,-34 76,-34 24,0 44,-4 44,-8 0,-5 -27,-21 -60,-37 -56,-27 -60,-31 -60,-62 0,-20 5,-33 13,-33 7,0 66,27 132,60 97,50 127,60 160,58 l 40,-3 -66,-49 C 243,7459 171,7413 119,7384 67,7355 19,7327 12,7323 4,7318 0,7302 2,7282 l 3,-33 104,51 c 113,55 215,118 303,187 42,33 63,44 84,41 27,-3 20,-11 -95,-107 C 271,7313 195,7260 73,7194 l -73,-39 0,-46 0,-46 122,-12 c 68,-6 211,-16 318,-21 387,-20 596,-52 864,-131 87,-26 284,-102 351,-137 l 50,-26 -40,-7 c -72,-14 -116,-9 -201,21 -87,31 -325,88 -474,114 -117,21 -251,34 -485,46 -230,12 -438,28 -478,36 -24,5 -27,3 -27,-19 0,-34 5,-35 475,-63 418,-24 727,-76 920,-154 29,-12 26,-13 -65,-31 l -95,-19 -127,25 c -169,33 -324,50 -688,75 -168,11 -331,23 -363,27 -58,6 -59,6 -55,-18 4,-28 16,-30 325,-49 280,-17 504,-38 637,-60 112,-19 136,-25 125,-33 -2,-2 -48,-16 -102,-32 -98,-28 -98,-28 -235,-17 -75,7 -227,17 -337,22 -110,6 -244,15 -299,20 -54,6 -102,10 -107,10 -5,0 -9,-11 -9,-24 0,-29 6,-30 409,-51 162,-9 310,-20 330,-24 l 36,-8 -45,-19 c -25,-10 -69,-30 -99,-45 l -53,-27 -217,14 c -119,7 -249,16 -288,20 l -73,7 0,-27 c 0,-25 3,-26 50,-26 28,0 50,-4 50,-8 0,-5 -22,-19 -50,-32 C 3,6358 0,6354 0,6319 l 0,-38 58,25 c 31,14 85,41 119,61 49,27 71,34 105,31 l 43,-3 -67,-50 C 221,6318 148,6271 95,6241 4,6190 0,6186 0,6154 c 0,-19 2,-34 5,-34 3,0 47,21 98,46 105,53 206,116 289,181 42,33 63,44 84,41 27,-3 20,-11 -95,-107 C 255,6176 176,6121 63,6059 l -63,-34 0,-51 0,-51 46,-7 c 25,-3 120,-10 212,-16 371,-23 483,-32 614,-50 156,-22 336,-65 488,-116 120,-41 313,-127 317,-141 2,-6 -27,-13 -64,-16 -61,-6 -78,-3 -186,34 -283,95 -530,137 -937,159 -235,12 -472,30 -482,37 -5,2 -8,-7 -8,-21 0,-15 7,-27 18,-30 16,-5 115,-11 522,-37 220,-13 421,-41 576,-78 140,-35 288,-80 281,-87 -3,-3 -46,-14 -95,-24 l -90,-19 -114,24 c -143,30 -326,49 -698,75 -162,11 -319,23 -348,26 -51,7 -52,6 -52,-18 0,-30 -4,-29 382,-53 133,-8 305,-22 381,-30 140,-15 321,-45 314,-51 -2,-2 -50,-19 -108,-37 -88,-28 -112,-31 -159,-25 -30,4 -138,12 -240,18 -315,18 -493,30 -533,36 -34,5 -37,4 -37,-19 0,-21 6,-25 48,-31 26,-3 135,-11 242,-16 248,-12 363,-19 422,-26 l 48,-6 -96,-48 c -92,-46 -100,-48 -163,-44 -36,2 -140,9 -231,14 -91,6 -189,13 -217,17 -52,6 -53,5 -53,-21 0,-24 3,-26 45,-26 25,0 45,-4 45,-8 0,-4 -20,-18 -45,-30 -41,-20 -45,-25 -45,-57 0,-19 2,-35 5,-35 3,0 55,25 115,55 80,40 121,55 151,55 37,0 40,-2 28,-16 C 280,5211 158,5131 73,5084 5,5048 0,5043 0,5012 c 0,-30 2,-33 23,-26 71,22 232,115 339,196 72,54 128,75 128,48 0,-5 -3,-10 -7,-10 -5,0 -53,-39 -108,-86 C 265,5039 146,4957 58,4914 l -58,-28 0,-52 c 0,-29 4,-55 9,-58 4,-3 143,-13 307,-23 165,-9 301,-20 304,-23 3,-4 46,-10 97,-14 305,-22 658,-116 918,-243 l 78,-38 -39,-7 c -74,-13 -117,-8 -223,26 -158,51 -321,92 -461,114 -164,27 -189,29 -565,52 -176,11 -344,23 -372,26 -52,7 -53,6 -53,-18 0,-25 1,-25 133,-37 72,-6 218,-16 322,-21 339,-18 495,-38 710,-91 96,-24 237,-69 248,-79 5,-4 -34,-15 -87,-25 -92,-16 -98,-16 -203,4 -200,37 -342,53 -643,71 -186,11 -381,27 -442,36 -35,5 -38,4 -38,-19 0,-31 -2,-31 390,-57 168,-11 348,-25 400,-30 114,-12 280,-39 297,-49 7,-4 -35,-21 -95,-39 l -107,-32 -160,14 c -88,8 -225,17 -305,21 -164,7 -376,23 -402,31 -14,4 -18,0 -18,-19 0,-17 7,-26 23,-30 21,-5 150,-14 551,-37 99,-6 183,-13 188,-16 5,-3 -31,-26 -81,-50 -72,-35 -100,-44 -143,-44 -70,0 -463,28 -505,36 -30,6 -33,4 -33,-19 0,-22 5,-26 58,-34 l 57,-9 -57,-29 C 5,4048 0,4043 0,4013 c 0,-18 5,-33 11,-33 5,0 64,27 130,60 111,56 170,72 183,51 7,-11 -94,-84 -207,-148 -50,-29 -98,-56 -105,-60 -8,-5 -12,-21 -10,-40 l 3,-33 103,50 c 109,52 239,133 310,193 42,35 75,46 86,29 6,-11 -192,-177 -285,-240 -41,-27 -107,-66 -146,-86 l -73,-36 0,-49 0,-48 128,-11 c 70,-7 215,-17 322,-22 364,-19 561,-47 805,-116 157,-43 243,-74 355,-127 l 85,-40 -40,-8 c -71,-14 -115,-10 -202,21 -76,27 -186,55 -373,96 -85,18 -317,41 -560,54 -229,12 -454,28 -493,36 -23,5 -27,2 -27,-19 0,-33 17,-35 329,-47 427,-17 725,-55 935,-120 167,-52 165,-50 56,-71 l -95,-19 -127,25 c -169,34 -324,50 -688,75 -168,11 -329,23 -357,26 -52,7 -53,6 -53,-18 0,-29 -20,-26 395,-53 291,-19 410,-31 559,-56 112,-18 136,-24 125,-32 -2,-2 -48,-16 -102,-32 l -98,-28 -142,12 c -78,6 -227,16 -332,21 -188,10 -265,15 -358,26 -45,6 -47,5 -47,-19 0,-22 5,-25 53,-31 28,-3 184,-13 346,-22 162,-8 310,-19 330,-23 l 36,-8 -45,-19 c -25,-10 -69,-30 -99,-45 l -53,-27 -217,13 c -119,8 -246,17 -283,21 l -68,7 0,-27 c 0,-24 3,-26 45,-26 25,0 45,-4 45,-8 0,-4 -20,-18 -45,-30 -41,-20 -45,-25 -45,-57 0,-19 4,-35 9,-35 4,0 57,25 116,55 88,46 116,55 149,53 l 41,-3 -67,-50 C 211,2888 140,2843 91,2815 2,2766 1,2764 0,2727 l 0,-37 93,46 c 105,53 206,116 289,181 42,33 63,44 85,41 26,-3 18,-11 -102,-111 C 246,2748 177,2699 48,2626 0,2599 0,2599 0,2546 l 0,-53 38,-6 c 20,-4 114,-11 207,-17 375,-23 486,-32 617,-50 156,-22 336,-65 488,-116 120,-41 313,-127 317,-141 2,-6 -27,-13 -64,-16 -61,-6 -78,-3 -186,34 -284,96 -530,137 -942,159 -110,6 -252,15 -315,20 -164,14 -162,14 -158,-12 4,-27 8,-28 433,-53 307,-18 498,-42 671,-84 140,-35 288,-80 281,-87 -3,-3 -46,-14 -95,-24 l -90,-19 -114,24 c -144,30 -327,50 -698,75 -163,11 -317,23 -343,26 -45,6 -47,6 -47,-18 0,-30 -1,-30 370,-53 135,-8 307,-22 383,-30 140,-15 321,-45 314,-51 -2,-2 -50,-19 -108,-37 -88,-28 -112,-31 -159,-25 -30,4 -136,12 -235,17 -361,22 -511,32 -538,37 -23,5 -27,2 -27,-19 0,-31 16,-34 277,-47 251,-12 365,-19 425,-26 l 48,-6 -96,-48 c -92,-46 -100,-48 -163,-44 -36,2 -140,9 -231,14 -91,6 -186,13 -213,16 -46,6 -47,6 -47,-20 0,-24 3,-26 40,-26 22,0 40,-4 40,-8 0,-5 -18,-17 -40,-27 C 3,1788 0,1784 0,1748 l 0,-38 110,55 c 80,40 121,55 151,55 37,0 40,-2 28,-16 C 271,1782 152,1703 68,1656 5,1622 0,1617 0,1585 c 0,-32 1,-34 24,-25 85,32 225,114 328,192 47,35 87,58 103,58 29,0 32,-11 7,-26 -9,-6 -53,-42 -97,-81 C 260,1613 173,1552 77,1500 l -77,-42 0,-57 0,-58 78,-6 c 42,-4 179,-12 305,-19 125,-6 227,-15 227,-18 0,-4 42,-10 93,-14 303,-21 661,-115 922,-243 l 78,-38 -39,-7 c -74,-13 -117,-8 -223,26 -158,51 -321,92 -461,114 -164,27 -190,29 -565,52 -176,11 -341,22 -367,26 -46,6 -48,6 -48,-18 0,-32 -24,-29 605,-69 204,-12 315,-27 483,-65 122,-27 301,-80 315,-94 5,-4 -34,-15 -87,-25 -92,-16 -98,-16 -203,4 -200,37 -342,53 -643,71 -189,11 -386,27 -438,36 -29,4 -32,2 -32,-19 0,-32 -2,-32 375,-57 171,-11 353,-25 405,-30 114,-12 280,-39 297,-49 7,-4 -36,-21 -95,-39 -106,-32 -110,-32 -207,-22 -55,6 -225,17 -379,26 -153,8 -305,18 -337,23 -57,7 -59,7 -59,-15 0,-13 7,-25 17,-28 17,-5 123,-12 547,-36 99,-6 183,-13 188,-16 5,-3 -31,-26 -81,-50 C 599,709 571,700 528,700 456,700 62,728 28,736 3,741 0,739 0,717 0,694 5,691 53,683 l 52,-9 -52,-27 C 4,622 0,617 0,585 c 0,-19 3,-35 6,-35 3,0 59,27 125,60 110,55 170,72 183,52 3,-5 -16,-25 -42,-44 C 220,578 47,474 18,464 5,460 0,449 0,424 c 0,-32 2,-35 23,-28 80,25 297,153 385,227 42,35 75,46 86,29 C 500,642 302,475 209,412 168,385 104,347 67,329 L 0,296 0,244 0,193 122,181 c 68,-6 211,-16 318,-21 256,-13 388,-27 541,-55 148,-27 359,-83 359,-96 0,-5 43,-9 95,-9 52,0 95,4 95,8 0,12 -240,85 -380,116 -220,49 -319,61 -665,81 -348,20 -435,26 -435,34 0,3 42,26 92,51 104,50 75,48 398,29 320,-19 596,-70 842,-155 114,-39 338,-142 338,-156 0,-4 32,-8 70,-8 39,0 70,4 70,9 0,14 -152,94 -276,145 -302,124 -638,191 -1083,216 -102,6 -186,12 -187,13 -2,2 27,25 64,52 77,56 75,55 325,30 294,-31 590,-93 800,-169 186,-67 382,-176 473,-261 l 37,-35 188,0 c 117,0 189,4 191,10 5,16 180,18 185,3 5,-15 193,-19 193,-5 0,5 -22,14 -50,21 -27,7 -50,16 -50,20 0,4 33,14 73,21 39,7 81,16 91,20 11,3 69,-3 130,-16 124,-25 337,-54 397,-54 21,0 39,-4 39,-10 0,-6 123,-10 350,-10 193,0 350,4 350,9 0,10 -75,16 -430,36 -301,17 -397,27 -560,56 -117,20 -133,25 -109,33 8,2 55,18 104,35 l 90,31 135,-14 c 74,-8 234,-20 355,-26 254,-13 427,-31 575,-59 135,-27 330,-81 330,-92 0,-5 43,-9 95,-9 52,0 95,4 95,8 0,12 -240,85 -380,116 -220,49 -319,61 -665,81 -348,20 -435,26 -435,34 0,3 42,26 92,51 104,50 75,48 398,29 320,-19 596,-70 842,-155 114,-39 338,-142 338,-156 0,-4 32,-8 70,-8 39,0 70,4 70,9 0,14 -152,94 -276,145 -302,124 -638,191 -1083,216 -102,6 -186,12 -187,13 -2,2 27,25 64,52 77,56 75,55 325,30 294,-31 590,-93 800,-169 186,-67 382,-176 473,-261 27,-26 46,-35 70,-35 61,0 42,34 -63,112 -42,31 -55,50 -30,47 6,-1 38,-1 70,0 53,1 57,3 57,24 0,23 0,23 -112,20 l -113,-4 -90,47 -90,48 35,7 c 19,4 110,11 203,15 l 167,7 0,25 0,25 -122,-7 c -68,-3 -184,-11 -258,-17 l -135,-11 -105,35 c -58,20 -98,38 -90,40 78,27 437,66 603,67 l 107,0 0,25 c 0,24 -2,25 -62,25 -183,-1 -501,-33 -686,-70 l -100,-20 -98,20 c -54,11 -99,22 -102,24 -10,11 281,86 428,110 146,24 347,46 426,46 39,0 99,3 133,6 52,6 61,10 61,27 0,20 -4,20 -177,14 -311,-11 -671,-70 -912,-152 -97,-32 -107,-34 -174,-25 -40,5 -76,10 -82,10 -37,3 235,115 386,159 263,76 634,131 891,131 66,0 68,1 68,25 l 0,26 -102,-6 c -57,-3 -143,-8 -193,-10 -394,-23 -824,-129 -1115,-275 -78,-39 -151,-53 -164,-31 -4,5 24,30 61,54 331,219 814,353 1351,374 161,6 162,6 162,30 0,16 -6,23 -18,23 -11,0 -27,9 -37,20 -65,72 -365,237 -553,304 -318,114 -737,184 -1112,186 l -75,1 35,30 c 19,16 52,41 72,55 l 37,26 138,-11 c 488,-41 888,-140 1163,-288 112,-60 158,-91 263,-180 l 87,-73 0,44 c 0,41 -4,47 -53,87 -30,24 -66,53 -81,64 l -27,20 78,5 c 73,5 78,7 81,29 l 4,24 -122,-5 -122,-5 -70,38 c -38,21 -78,41 -89,44 -47,15 6,25 186,35 105,5 196,10 203,10 6,0 12,10 12,22 0,21 0,21 -187,14 -104,-3 -222,-10 -263,-15 -71,-9 -80,-8 -183,26 -60,19 -106,37 -104,39 8,9 222,42 332,53 61,5 176,13 258,17 147,7 147,7 147,31 l 0,24 -127,-6 c -267,-12 -449,-32 -651,-72 -77,-15 -89,-15 -187,2 -58,10 -102,22 -98,26 12,12 167,55 293,83 205,45 479,76 673,76 97,0 97,0 97,25 0,24 -3,25 -52,25 -331,-1 -760,-65 -1050,-157 -100,-31 -117,-34 -184,-28 -41,4 -74,11 -74,15 0,27 373,160 570,203 201,45 462,77 624,77 128,0 166,8 166,33 0,20 -4,20 -177,14 -464,-16 -909,-114 -1239,-273 -67,-33 -103,-44 -137,-44 -26,0 -47,3 -47,8 0,13 164,113 275,167 312,151 707,239 1178,261 l 147,7 0,24 c 0,20 -4,23 -19,18 -15,-4 -43,12 -104,58 -333,254 -839,403 -1480,436 -98,5 -180,11 -182,13 -2,2 25,25 61,51 76,55 86,56 322,32 380,-40 700,-117 954,-231 155,-70 230,-120 406,-270 l 42,-37 0,57 c 0,43 -3,56 -15,56 -8,0 -44,24 -79,53 -74,59 -71,65 32,66 57,1 62,3 62,24 0,22 -1,22 -122,19 l -123,-3 -90,48 -90,47 45,7 c 25,4 120,10 213,14 l 167,8 0,25 0,25 -127,-7 c -71,-3 -191,-11 -268,-17 l -140,-11 -105,35 c -58,19 -98,37 -90,40 67,25 462,67 631,67 99,0 99,0 99,25 0,24 -2,25 -72,25 -185,0 -489,-31 -693,-71 -99,-19 -102,-19 -198,0 -54,11 -100,21 -103,24 -6,6 159,54 281,82 201,44 543,82 768,85 10,0 17,8 17,20 0,19 -7,20 -104,20 -313,0 -767,-72 -1034,-164 -65,-22 -80,-24 -148,-17 -41,5 -77,11 -80,14 -3,2 37,23 88,45 319,139 639,209 1071,234 203,12 207,13 207,34 0,22 -2,22 -102,18 -451,-20 -722,-63 -1032,-165 -83,-27 -201,-74 -264,-104 -110,-53 -182,-70 -196,-46 -5,8 98,79 194,133 61,35 237,109 335,142 267,90 679,156 976,156 88,0 89,0 89,25 0,19 -5,25 -21,25 -11,0 -43,20 -71,44 -116,102 -388,231 -641,305 -253,74 -491,111 -836,131 -102,6 -186,12 -187,13 -2,2 27,25 64,52 77,56 75,55 325,30 592,-61 1033,-214 1297,-451 l 65,-58 3,38 c 4,43 -18,73 -90,122 -38,26 -50,46 -25,43 6,-1 36,-1 65,0 47,1 52,3 52,24 0,22 -2,22 -107,19 l -108,-3 -90,47 -90,48 35,7 c 19,4 108,11 198,15 l 162,7 0,25 0,25 -117,-7 c -65,-4 -179,-11 -253,-17 l -135,-11 -105,35 c -58,20 -98,38 -90,40 76,26 437,66 598,67 l 102,0 0,25 c 0,24 -3,25 -57,25 -178,-1 -499,-34 -681,-70 l -100,-20 -98,20 c -54,11 -99,22 -102,24 -10,11 281,86 428,110 148,25 348,46 430,46 41,0 99,3 128,6 43,6 52,10 52,27 0,20 -4,20 -172,14 -307,-11 -668,-71 -907,-152 -97,-32 -107,-34 -174,-25 -40,5 -76,10 -82,10 -37,3 235,115 386,159 261,76 635,131 886,131 61,0 63,1 63,25 l 0,26 -87,-5 c -49,-3 -135,-8 -193,-11 -398,-22 -826,-127 -1120,-275 -78,-39 -151,-53 -164,-31 -4,5 24,30 61,54 330,219 811,352 1346,374 156,6 157,6 157,30 0,13 -6,23 -13,23 -8,0 -22,9 -32,20 -65,72 -365,237 -553,304 -318,114 -737,184 -1112,186 l -75,1 35,30 c 19,16 52,41 72,55 l 37,26 138,-11 c 488,-41 888,-140 1163,-288 109,-59 156,-91 258,-175 l 82,-69 0,44 c 0,41 -3,47 -56,88 -109,87 -107,79 -21,79 77,0 77,0 77,26 l 0,27 -116,-5 -116,-5 -69,38 c -39,21 -79,41 -90,44 -40,13 -6,23 98,29 305,18 293,16 293,39 0,20 -3,20 -182,13 -101,-3 -217,-10 -258,-16 -71,-8 -80,-7 -183,27 -60,19 -106,37 -104,39 8,9 222,42 332,53 61,5 174,13 253,17 141,7 142,7 142,31 l 0,24 -122,-6 c -263,-13 -445,-33 -646,-72 -77,-15 -89,-15 -187,2 -58,10 -102,22 -98,26 12,12 167,55 293,83 203,44 479,76 668,76 91,0 92,0 92,25 0,23 -3,25 -47,25 -111,0 -383,-21 -520,-40 -176,-25 -374,-69 -525,-117 -100,-31 -117,-34 -184,-28 -41,4 -74,11 -74,15 0,27 373,160 570,203 202,45 463,77 625,77 123,0 155,7 155,33 0,20 -4,20 -172,14 -461,-17 -906,-115 -1234,-273 -67,-33 -103,-44 -137,-44 -26,0 -47,3 -47,8 0,13 164,113 275,167 311,151 703,238 1173,261 140,7 142,7 142,30 0,16 -4,22 -14,18 -8,-3 -51,22 -98,59 -334,254 -840,403 -1481,436 -98,5 -180,11 -182,13 -2,2 25,25 61,51 76,55 86,56 322,32 571,-59 1011,-206 1266,-422 37,-32 81,-69 97,-82 l 29,-24 0,52 c 0,28 -5,51 -10,51 -6,0 -39,24 -74,53 -73,59 -71,65 27,66 52,1 57,3 57,24 0,22 -1,22 -117,19 l -118,-3 -90,48 -90,47 45,7 c 25,4 118,10 208,14 l 162,8 0,25 0,25 -122,-7 c -68,-3 -186,-11 -263,-17 l -140,-11 -105,35 c -58,19 -98,37 -90,40 66,25 462,67 626,67 94,0 94,0 94,25 0,24 -2,25 -67,25 -181,0 -486,-32 -688,-71 -99,-19 -102,-19 -198,0 -54,11 -100,21 -103,24 -6,6 159,54 281,82 200,44 532,81 763,85 6,0 12,9 12,20 0,19 -7,20 -99,20 -308,0 -764,-73 -1029,-164 -65,-22 -80,-24 -148,-17 -41,5 -77,11 -80,14 -3,2 37,23 88,45 317,139 637,209 1066,234 197,12 202,13 202,34 0,21 -3,21 -97,17 -546,-22 -956,-107 -1291,-268 -110,-53 -182,-70 -196,-46 -5,8 98,79 194,133 61,35 237,109 335,142 265,90 679,156 971,156 83,0 84,0 84,25 0,18 -5,25 -18,25 -11,0 -27,10 -38,21 -53,59 -233,167 -389,234 -324,138 -673,211 -1128,234 -98,5 -180,11 -182,13 -2,2 26,26 63,52 l 67,49 110,-7 c 238,-13 542,-62 758,-122 297,-82 526,-195 684,-338 33,-31 64,-56 67,-56 3,0 6,18 6,40 0,37 -5,44 -64,92 -72,59 -70,66 17,67 40,1 47,4 47,21 0,19 -7,20 -107,20 l -108,0 -90,47 -90,47 46,7 c 26,4 114,10 198,14 l 151,8 0,24 0,25 -112,-6 c -62,-4 -176,-11 -253,-17 l -140,-11 -105,35 c -58,19 -98,37 -90,40 64,24 461,67 616,67 83,0 84,0 84,25 0,24 -3,25 -57,25 -171,0 -481,-33 -678,-71 -99,-19 -102,-19 -198,0 -54,11 -100,21 -103,24 -6,6 159,54 281,82 147,32 365,63 500,70 235,12 255,15 255,36 0,17 -8,19 -89,19 -298,0 -758,-74 -1019,-164 -65,-22 -80,-24 -148,-17 -41,5 -77,11 -80,14 -5,5 146,73 236,106 98,36 292,89 400,110 58,11 114,22 125,24 11,3 -41,5 -116,6 -125,1 -145,-2 -260,-33 -173,-48 -286,-89 -418,-152 -109,-52 -181,-69 -195,-45 -11,18 204,144 374,219 21,9 9,11 -65,11 -82,1 -96,-2 -159,-33 l -70,-34 -224,14 c -124,8 -282,21 -351,30 -69,9 -215,19 -323,21 -180,4 -210,3 -340,-21 -199,-35 -300,-45 -602,-56 -420,-16 -754,-69 -1034,-164 -65,-22 -81,-24 -148,-17 -41,5 -77,11 -80,14 -5,5 146,73 236,106 98,36 292,89 400,110 58,11 114,22 125,24 11,3 -41,5 -116,6 -125,1 -145,-2 -260,-33 -173,-48 -286,-89 -418,-152 -109,-52 -181,-69 -195,-45 -11,18 204,144 374,219 21,9 9,11 -65,11 -82,1 -96,-2 -159,-33 z m 2325,-3 c 122,-20 120,-22 -87,-81 -272,-78 -473,-107 -854,-122 -341,-14 -505,-30 -730,-75 -69,-14 -82,-14 -173,4 -54,11 -100,21 -103,24 -6,6 159,55 281,82 188,41 381,65 625,75 430,18 664,44 860,94 73,18 67,18 181,-1 z m 342,-43 c 20,0 37,-4 37,-8 0,-12 -196,-103 -300,-140 -318,-113 -564,-156 -975,-172 -132,-5 -303,-15 -380,-21 l -140,-11 -105,35 c -58,19 -98,37 -90,40 8,3 74,15 145,26 151,23 337,38 590,46 357,12 678,65 952,159 107,36 169,52 193,50 19,-2 52,-4 73,-4 z m 227,-50 c -113,-97 -329,-207 -551,-281 -285,-95 -518,-135 -884,-150 l -260,-11 -90,48 -90,48 49,8 c 27,4 171,12 320,18 364,15 541,36 792,95 203,48 462,143 596,219 47,26 75,36 108,36 l 45,-1 -35,-29 z m 210,16 c 0,-10 -250,-213 -312,-253 -211,-136 -517,-249 -840,-307 -148,-28 -395,-56 -483,-56 -52,0 -59,3 -119,53 -50,40 -61,53 -48,58 9,3 100,9 202,12 603,20 1169,193 1500,461 27,21 56,36 73,36 15,0 27,-2 27,-4 z M 798,7325 c 454,-57 831,-174 1069,-332 74,-49 281,-222 282,-235 1,-5 -23,-8 -52,-8 -42,0 -58,5 -73,21 -53,59 -233,167 -389,234 -324,138 -673,211 -1128,234 -98,5 -180,11 -182,13 -3,2 24,25 58,51 l 62,47 115,-5 c 63,-3 170,-12 238,-20 z M 590,7185 c 301,-23 425,-43 667,-111 246,-68 506,-191 635,-299 57,-48 -27,-48 -114,-1 -237,130 -623,241 -958,276 -52,6 -212,17 -355,25 -301,17 -405,25 -404,34 0,3 37,24 82,47 75,38 89,41 167,42 47,1 173,-5 280,-13 z m 3250,0 c 301,-23 425,-43 667,-111 246,-68 506,-191 635,-299 57,-48 -27,-48 -114,-1 -237,130 -623,241 -958,276 -52,6 -212,17 -355,25 -301,17 -405,25 -404,34 0,3 37,24 82,47 75,38 89,41 167,42 47,1 173,-5 280,-13 z m -465,-135 c 61,-5 200,-14 310,-20 392,-20 599,-51 869,-131 87,-26 284,-102 351,-137 l 50,-26 -40,-7 c -72,-14 -116,-9 -201,21 -87,31 -325,88 -474,114 -117,21 -251,34 -485,46 -266,14 -428,28 -555,46 -118,17 -203,34 -198,39 2,2 46,20 98,39 63,23 107,33 130,31 19,-3 85,-9 145,-15 z m -330,-119 c 142,-27 336,-47 670,-66 427,-25 736,-77 930,-155 29,-12 26,-13 -65,-31 l -95,-19 -127,25 c -168,33 -323,50 -688,75 -472,32 -516,37 -650,64 -122,25 -328,80 -338,90 -7,7 10,13 88,30 78,17 130,15 275,-13 z m -438,-55 c 235,-80 553,-131 973,-156 351,-21 738,-64 759,-85 7,-8 2,-9 -102,-40 l -98,-28 -142,12 c -78,6 -227,16 -332,21 -370,19 -560,44 -809,106 -184,46 -479,155 -463,171 5,4 86,18 128,22 8,0 47,-10 86,-23 z m -297,-41 c 38,-19 88,-42 112,-50 425,-156 661,-200 1233,-230 165,-9 316,-20 335,-24 l 35,-8 -45,-18 c -25,-11 -69,-31 -99,-46 l -53,-27 -219,14 c -565,34 -887,101 -1192,248 -106,51 -269,155 -261,168 12,20 87,7 154,-27 z m 16,-172 98,-47 -35,-8 c -19,-4 -182,-15 -364,-23 -181,-8 -386,-22 -455,-31 -345,-43 -668,-133 -902,-250 -85,-43 -158,-58 -172,-35 -5,8 98,79 194,133 25,14 92,46 150,71 341,145 729,219 1215,230 61,2 124,4 142,5 20,1 65,-15 129,-45 z m 409,-154 c 7,-8 -218,-48 -360,-65 -66,-8 -240,-18 -386,-24 -423,-16 -756,-68 -1037,-164 -65,-22 -81,-24 -148,-17 -41,5 -77,11 -80,14 -12,11 235,109 396,157 277,82 504,113 941,131 151,6 317,16 369,22 93,12 97,12 197,-18 56,-17 105,-33 108,-36 z m 236,-46 c 122,-20 120,-22 -87,-81 -272,-78 -473,-107 -854,-122 -341,-14 -505,-30 -730,-75 -69,-14 -82,-14 -173,4 -54,11 -100,21 -103,24 -6,6 159,55 281,82 188,41 381,65 625,75 430,18 664,44 860,94 73,18 67,18 181,-1 z m 342,-43 c 20,0 37,-4 37,-8 0,-12 -196,-103 -300,-140 -318,-113 -564,-156 -975,-172 -132,-5 -303,-15 -380,-21 l -140,-11 -105,35 c -58,19 -98,37 -90,40 8,3 74,15 145,26 151,23 337,38 590,46 357,12 678,65 952,159 107,36 169,52 193,50 19,-2 52,-4 73,-4 z m 227,-50 c -113,-97 -329,-207 -551,-281 -285,-95 -518,-135 -884,-150 l -260,-11 -90,48 -90,48 49,8 c 27,4 171,12 320,18 364,15 541,36 792,95 203,48 462,143 596,219 47,26 75,36 108,36 l 45,-1 -35,-29 z m 210,16 c 0,-10 -250,-213 -312,-253 -211,-136 -517,-249 -840,-307 -148,-28 -395,-56 -483,-56 -52,0 -59,3 -119,53 -50,40 -61,53 -48,58 9,3 100,9 202,12 603,20 1169,193 1500,461 27,21 56,36 73,36 15,0 27,-2 27,-4 z M 778,6185 c 454,-57 832,-174 1069,-332 40,-26 121,-91 181,-143 l 110,-95 -45,-7 c -44,-6 -47,-5 -127,56 -332,253 -839,402 -1479,435 -98,5 -180,11 -182,13 -3,2 24,25 58,51 l 62,47 115,-5 c 63,-3 170,-12 238,-20 z M 570,6045 c 225,-17 317,-28 450,-56 229,-49 449,-123 618,-208 82,-42 255,-152 266,-170 5,-7 -7,-11 -36,-11 -30,0 -64,11 -118,39 -257,134 -618,237 -950,271 -52,6 -212,17 -355,25 -301,17 -405,25 -404,34 0,3 37,24 82,47 75,38 89,41 167,42 47,1 173,-5 280,-13 z m 3250,0 c 225,-17 317,-28 450,-56 229,-49 449,-123 618,-208 82,-42 255,-152 266,-170 5,-7 -7,-11 -36,-11 -30,0 -64,11 -118,39 -257,134 -618,237 -950,271 -52,6 -212,17 -355,25 -301,17 -405,25 -404,34 0,3 37,24 82,47 75,38 89,41 167,42 47,1 173,-5 280,-13 z m -465,-135 c 61,-5 200,-14 310,-20 424,-22 667,-62 945,-156 120,-41 313,-127 317,-141 2,-6 -27,-13 -64,-16 -61,-6 -78,-3 -186,34 -284,96 -530,137 -942,159 -266,14 -428,28 -555,46 -118,17 -203,34 -198,39 2,2 46,20 98,39 63,23 107,33 130,31 19,-3 85,-9 145,-15 z m -330,-119 c 142,-27 336,-46 670,-66 306,-18 497,-42 671,-84 140,-35 288,-80 281,-87 -3,-3 -46,-14 -95,-24 l -90,-19 -114,24 c -144,30 -327,49 -698,75 -330,22 -479,39 -655,75 -117,24 -323,79 -333,89 -7,7 10,13 88,30 78,17 130,15 275,-13 z m -449,-52 c 100,-35 352,-96 484,-118 173,-28 275,-38 570,-56 140,-9 315,-23 389,-31 136,-14 315,-44 308,-50 -2,-2 -50,-19 -108,-37 -88,-28 -112,-31 -159,-25 -30,4 -138,12 -240,18 -602,35 -743,53 -1025,131 -166,46 -436,152 -422,166 5,4 86,18 128,22 9,0 42,-8 75,-20 z m -245,-63 c 357,-169 735,-245 1379,-276 124,-6 242,-14 262,-17 l 37,-5 -95,-48 -95,-48 -167,9 c -569,31 -914,100 -1217,243 -121,57 -307,174 -299,188 14,22 86,6 195,-46 z m -19,-158 c 49,-24 88,-46 88,-49 0,-10 -127,-19 -406,-29 -553,-20 -969,-107 -1320,-276 -67,-33 -103,-44 -137,-44 -26,0 -47,3 -47,8 0,13 164,113 275,167 296,144 657,227 1115,258 25,2 113,4 195,6 l 150,2 87,-43 z m 316,-124 c 51,-15 89,-31 85,-34 -11,-10 -158,-37 -297,-55 -66,-8 -235,-20 -375,-25 -468,-18 -758,-62 -1064,-160 -89,-28 -106,-31 -173,-25 -41,4 -74,11 -74,15 0,20 276,127 453,174 249,68 441,92 862,112 182,9 353,19 380,24 65,11 91,7 203,-26 z m 356,-84 c 77,-14 75,-19 -21,-50 -269,-87 -568,-133 -953,-145 -290,-9 -425,-22 -668,-67 -112,-20 -115,-20 -218,-3 -58,10 -101,22 -97,26 21,19 279,85 448,113 155,26 281,37 550,46 276,11 510,36 690,75 113,24 150,25 269,5 z m 322,-40 c 19,0 34,-4 34,-9 0,-21 -294,-142 -466,-190 -279,-78 -471,-104 -899,-121 -143,-6 -294,-15 -335,-20 -71,-8 -81,-7 -183,27 -60,19 -106,37 -104,39 9,9 223,43 337,53 63,6 225,15 360,21 268,10 383,21 564,51 184,31 499,116 556,150 8,5 35,7 59,4 24,-3 59,-5 77,-5 z m 243,-36 c -41,-50 -270,-180 -418,-239 -316,-125 -636,-186 -1064,-204 l -219,-9 -69,39 c -38,21 -79,41 -90,44 -10,4 -17,10 -14,15 6,9 115,17 438,30 378,16 653,62 954,162 83,27 209,78 280,113 95,47 139,64 172,64 39,1 42,-1 30,-15 z m 191,-4 c 0,-5 -3,-10 -7,-10 -5,0 -53,-39 -108,-86 -203,-174 -403,-281 -696,-374 -52,-16 -85,-30 -74,-31 30,-2 -155,-46 -290,-69 -110,-18 -227,-31 -409,-44 l -69,-5 -59,47 c -113,90 -107,82 -57,82 110,1 415,21 519,36 462,62 874,212 1125,408 65,51 125,73 125,46 z M 638,5055 c 359,-33 652,-95 898,-190 199,-77 335,-157 478,-281 43,-38 94,-80 112,-94 18,-14 34,-28 34,-32 0,-5 -24,-8 -53,-8 -41,0 -58,5 -72,20 -65,72 -365,237 -553,304 -330,117 -615,165 -1137,189 l -50,2 69,53 c 38,28 78,52 90,52 12,0 94,-7 184,-15 z M 465,4910 c 321,-19 554,-55 785,-122 133,-38 360,-133 476,-199 105,-61 206,-133 197,-142 -17,-18 -79,-4 -146,32 -156,85 -410,175 -627,221 -58,12 -112,26 -122,30 -41,22 -238,41 -728,71 -102,6 -203,14 -225,18 l -39,6 89,47 c 102,53 95,52 340,38 z m 3250,0 c 321,-19 554,-55 785,-122 133,-38 360,-133 476,-199 105,-61 206,-133 197,-142 -17,-18 -79,-4 -146,32 -156,85 -410,175 -627,221 -58,12 -112,26 -122,30 -41,22 -238,41 -728,71 -102,6 -203,14 -225,18 l -39,6 89,47 c 102,53 95,52 340,38 z m -145,-156 c 162,-10 297,-21 300,-24 3,-4 46,-10 97,-14 305,-22 658,-116 918,-243 l 78,-38 -39,-7 c -74,-13 -117,-8 -223,26 -158,51 -321,92 -461,114 -164,27 -190,29 -565,52 -176,11 -356,24 -400,30 -132,16 -275,43 -275,51 0,4 15,11 33,15 19,4 26,9 17,12 -31,11 113,51 170,48 30,-2 188,-12 350,-22 z m -520,-120 c 159,-29 368,-49 650,-64 344,-18 500,-38 715,-91 96,-24 237,-69 248,-79 5,-4 -34,-15 -87,-25 -92,-16 -98,-16 -203,4 -149,28 -310,48 -498,61 -397,27 -457,32 -576,45 -210,24 -582,106 -613,135 -4,4 18,13 50,20 33,6 73,15 89,20 17,5 44,7 60,4 17,-3 91,-16 165,-30 z m -445,-54 c 119,-41 382,-101 548,-125 95,-13 312,-34 482,-45 171,-11 353,-25 405,-30 114,-12 280,-39 297,-49 7,-4 -36,-21 -95,-39 -106,-32 -110,-32 -207,-22 -55,6 -224,17 -375,25 -399,22 -626,55 -883,131 -149,44 -387,139 -387,155 0,8 42,14 116,17 22,1 67,-7 99,-18 z m -285,-45 c 169,-85 408,-163 655,-214 192,-39 315,-51 844,-81 101,-6 188,-13 193,-16 5,-3 -33,-27 -84,-52 l -93,-45 -210,12 c -653,37 -1056,142 -1380,357 -107,71 -109,74 -47,74 40,0 69,-8 122,-35 z m 19,-174 94,-48 -39,-6 c -21,-4 -145,-11 -274,-17 -315,-13 -394,-18 -535,-36 -344,-43 -663,-132 -905,-254 -78,-39 -151,-53 -164,-31 -7,10 94,80 194,134 182,100 441,186 725,241 177,35 434,56 765,64 35,1 65,-9 139,-47 z m 303,-122 c 54,-17 97,-33 95,-35 -8,-9 -213,-44 -340,-59 -73,-8 -251,-19 -397,-25 -403,-14 -736,-66 -999,-155 -97,-32 -107,-34 -174,-25 -40,5 -76,10 -82,10 -37,3 235,115 386,159 289,84 509,115 934,132 149,6 297,14 330,18 107,15 145,12 247,-20 z m 333,-79 c 39,-6 77,-14 85,-17 37,-13 -277,-100 -501,-138 -138,-23 -234,-31 -699,-55 -211,-11 -360,-28 -518,-60 l -100,-20 -98,20 c -54,11 -99,22 -102,24 -2,3 27,14 65,25 290,87 551,123 993,141 284,11 444,28 636,70 71,15 138,26 149,24 11,-1 52,-8 90,-14 z m 350,-49 40,-7 -70,-36 c -158,-80 -400,-161 -609,-203 -189,-38 -334,-54 -597,-65 -134,-5 -305,-15 -379,-21 l -135,-11 -105,35 c -58,20 -98,38 -90,41 35,12 275,46 395,55 72,6 213,13 315,16 393,13 764,75 1025,173 81,31 137,37 210,23 z m 249,-20 c 16,-25 -241,-177 -421,-249 -322,-129 -607,-184 -1033,-203 l -255,-11 -90,48 -90,48 34,7 c 19,4 103,10 185,13 455,19 442,18 621,42 330,46 646,140 885,264 89,46 152,62 164,41 z m 180,-9 c 6,-11 -192,-178 -289,-242 -294,-198 -768,-334 -1272,-366 l -112,-7 -40,36 c -22,19 -51,43 -65,52 -14,10 -26,21 -26,25 0,4 57,9 128,9 631,7 1268,193 1590,464 42,35 75,46 86,29 z M 710,3895 c 489,-49 900,-170 1158,-342 74,-49 270,-212 271,-225 1,-5 -22,-8 -50,-8 -46,0 -56,4 -101,44 -116,102 -388,231 -641,305 -253,74 -491,111 -836,131 -102,6 -186,12 -187,13 -2,1 27,25 64,52 77,57 61,56 322,30 z M 530,3750 c 457,-26 803,-108 1120,-266 141,-71 263,-151 254,-166 -13,-21 -77,-4 -179,48 -125,62 -355,140 -543,183 -232,53 -334,65 -687,86 -348,20 -435,26 -435,34 0,3 42,27 93,52 75,37 100,45 137,42 25,-1 133,-7 240,-13 z m 3250,0 c 457,-26 803,-108 1120,-266 141,-71 263,-151 254,-166 -13,-21 -77,-4 -179,48 -125,62 -355,140 -543,183 -232,53 -334,65 -687,86 -348,20 -435,26 -435,34 0,3 42,27 93,52 75,37 100,45 137,42 25,-1 133,-7 240,-13 z m -439,-135 c 79,-8 236,-19 349,-25 374,-19 569,-47 815,-116 157,-43 243,-74 355,-127 l 85,-40 -40,-8 c -71,-14 -115,-10 -202,21 -76,27 -186,55 -373,96 -91,20 -318,41 -638,59 -307,17 -420,28 -572,56 -58,10 -109,19 -114,19 -21,0 8,14 96,45 51,18 94,33 94,34 1,0 66,-6 145,-14 z m -131,-150 c 69,-9 237,-20 374,-25 420,-16 720,-55 930,-120 167,-52 165,-50 56,-71 l -95,-19 -127,25 c -164,32 -327,51 -623,70 -515,33 -593,41 -815,91 -179,40 -230,54 -230,64 0,4 33,13 73,20 39,7 81,16 91,20 11,3 69,-3 130,-16 61,-12 167,-30 236,-39 z m -533,-44 c 269,-75 481,-105 963,-136 295,-19 414,-31 564,-56 112,-18 136,-24 125,-32 -2,-2 -48,-16 -102,-32 l -98,-28 -142,12 c -78,6 -227,16 -332,21 -370,19 -560,44 -809,106 -201,51 -480,155 -446,168 13,5 50,9 117,14 13,1 85,-15 160,-37 z m -377,-16 c 38,-19 88,-42 112,-50 425,-156 661,-200 1233,-230 165,-9 316,-20 335,-24 l 35,-8 -45,-18 c -25,-11 -69,-31 -99,-46 l -53,-27 -219,14 c -565,34 -887,101 -1192,248 -106,51 -269,155 -261,168 12,20 87,7 154,-27 z m 16,-172 98,-47 -35,-8 c -19,-4 -182,-15 -364,-23 -181,-8 -386,-22 -455,-31 -345,-43 -668,-133 -902,-250 -85,-43 -158,-58 -172,-35 -5,8 98,79 194,133 25,14 92,46 150,71 341,145 729,219 1215,230 61,2 124,4 142,5 20,1 65,-15 129,-45 z m 409,-154 c 7,-8 -218,-48 -360,-65 -66,-8 -240,-18 -386,-24 -423,-16 -756,-68 -1037,-164 -65,-22 -81,-24 -148,-17 -41,5 -77,11 -80,14 -12,11 235,109 396,157 277,82 504,113 941,131 151,6 317,16 369,22 93,12 97,12 197,-18 56,-17 105,-33 108,-36 z m 236,-46 c 122,-20 120,-22 -87,-81 -272,-78 -473,-107 -854,-122 -341,-14 -505,-30 -730,-75 -69,-14 -82,-14 -173,4 -54,11 -100,21 -103,24 -6,6 159,55 281,82 188,41 381,65 625,75 430,18 664,44 860,94 73,18 67,18 181,-1 z m 342,-43 c 20,0 37,-4 37,-8 0,-12 -196,-103 -300,-140 -318,-113 -564,-156 -975,-172 -132,-5 -303,-15 -380,-21 l -140,-11 -105,35 c -58,19 -98,37 -90,40 8,3 74,15 145,26 151,23 337,38 590,46 357,12 678,65 952,159 107,36 169,52 193,50 19,-2 52,-4 73,-4 z m 227,-50 c -113,-97 -353,-218 -574,-290 -275,-88 -506,-126 -861,-141 l -260,-11 -90,48 -90,48 49,8 c 27,4 171,12 320,18 364,15 541,36 792,95 203,48 462,143 596,219 47,26 75,36 108,36 l 45,-1 -35,-29 z m 210,16 c 0,-10 -250,-213 -312,-253 -211,-136 -517,-249 -840,-307 -148,-28 -395,-56 -483,-56 -52,0 -59,3 -119,53 -50,40 -61,53 -48,58 9,3 100,9 202,12 603,20 1169,193 1500,461 27,21 56,36 73,36 15,0 27,-2 27,-4 z M 768,2755 c 454,-57 832,-174 1069,-332 40,-26 121,-91 181,-143 l 110,-95 -45,-7 c -44,-6 -47,-5 -127,56 -332,253 -839,402 -1479,435 -98,5 -180,11 -182,13 -3,2 24,25 58,51 l 62,47 115,-5 c 63,-3 170,-12 238,-20 z M 560,2615 c 225,-17 317,-28 450,-56 229,-49 449,-123 618,-208 82,-42 255,-152 266,-170 5,-7 -7,-11 -36,-11 -30,0 -64,11 -118,39 -257,134 -618,237 -950,271 -52,6 -212,17 -355,25 -301,17 -405,25 -404,34 0,3 37,24 82,47 75,38 89,41 167,42 47,1 173,-5 280,-13 z m 3250,0 c 225,-17 317,-28 450,-56 229,-49 449,-123 618,-208 82,-42 255,-152 266,-170 5,-7 -7,-11 -36,-11 -30,0 -64,11 -118,39 -257,134 -618,237 -950,271 -52,6 -212,17 -355,25 -301,17 -405,25 -404,34 0,3 37,24 82,47 75,38 89,41 167,42 47,1 173,-5 280,-13 z m -465,-135 c 61,-5 200,-14 310,-20 424,-22 667,-62 945,-156 120,-41 313,-127 317,-141 2,-6 -27,-13 -64,-16 -61,-6 -78,-3 -186,34 -284,96 -530,137 -942,159 -266,14 -428,28 -555,46 -118,17 -203,34 -198,39 2,2 46,20 98,39 63,23 107,33 130,31 19,-3 85,-9 145,-15 z m -330,-119 c 142,-27 336,-46 670,-66 306,-18 497,-42 671,-84 140,-35 288,-80 281,-87 -3,-3 -46,-14 -95,-24 l -90,-19 -114,24 c -144,30 -327,49 -698,75 -330,22 -479,39 -655,75 -117,24 -323,79 -333,89 -7,7 10,13 88,30 78,17 130,15 275,-13 z m -449,-52 c 100,-35 352,-96 484,-118 173,-28 275,-38 570,-56 140,-9 315,-23 389,-31 136,-14 315,-44 308,-50 -2,-2 -50,-19 -108,-37 -88,-28 -112,-31 -159,-25 -30,4 -138,12 -240,18 -602,35 -743,53 -1025,131 -166,46 -436,152 -422,166 5,4 86,18 128,22 9,0 42,-8 75,-20 z m -245,-63 c 357,-169 735,-245 1379,-276 124,-6 242,-14 262,-17 l 37,-5 -95,-48 -95,-48 -167,9 c -569,31 -914,100 -1217,243 -121,57 -307,174 -299,188 14,22 86,6 195,-46 z m -19,-158 c 49,-24 88,-46 88,-49 0,-10 -127,-19 -406,-29 -553,-20 -969,-107 -1320,-276 -67,-33 -103,-44 -137,-44 -26,0 -47,3 -47,8 0,13 164,113 275,167 296,144 657,227 1115,258 25,2 113,4 195,6 l 150,2 87,-43 z m 316,-124 c 51,-15 89,-31 85,-34 -11,-10 -158,-37 -297,-55 -66,-8 -235,-20 -375,-25 -468,-18 -758,-62 -1064,-160 -89,-28 -106,-31 -173,-25 -41,4 -74,11 -74,15 0,20 276,127 453,174 249,68 441,92 862,112 182,9 353,19 380,24 65,11 91,7 203,-26 z m 356,-84 c 77,-14 75,-19 -21,-50 -269,-87 -568,-133 -953,-145 -290,-9 -425,-22 -668,-67 -112,-20 -115,-20 -218,-3 -58,10 -101,22 -97,26 21,19 279,85 448,113 155,26 281,37 550,46 276,11 510,36 690,75 113,24 150,25 269,5 z m 322,-40 c 19,0 34,-4 34,-9 0,-21 -294,-142 -466,-190 -279,-78 -471,-104 -899,-121 -143,-6 -294,-15 -335,-20 -71,-8 -81,-7 -183,27 -60,19 -106,37 -104,39 9,9 223,43 337,53 63,6 225,15 360,21 268,10 383,21 564,51 184,31 499,116 556,150 8,5 35,7 59,4 24,-3 59,-5 77,-5 z m 243,-36 c -41,-50 -270,-180 -418,-239 -316,-125 -636,-186 -1064,-204 l -219,-9 -69,39 c -38,21 -79,41 -90,44 -10,4 -17,10 -14,15 6,9 115,17 438,30 378,16 653,62 954,162 83,27 209,78 280,113 95,47 139,64 172,64 39,1 42,-1 30,-15 z m 191,-4 c 0,-5 -3,-10 -7,-10 -5,0 -53,-39 -108,-86 -203,-174 -403,-281 -696,-374 -52,-16 -85,-30 -74,-31 30,-2 -155,-46 -290,-69 -110,-18 -227,-31 -409,-44 l -69,-5 -59,47 c -113,90 -107,82 -57,82 110,1 415,21 519,36 462,62 874,212 1125,408 65,51 125,73 125,46 z M 628,1625 c 359,-33 652,-95 898,-190 199,-77 335,-157 478,-281 43,-38 94,-80 112,-94 18,-14 34,-28 34,-32 0,-5 -24,-8 -53,-8 -41,0 -58,5 -72,20 -65,72 -365,237 -553,304 -330,117 -615,165 -1137,189 l -50,2 69,53 c 38,28 78,52 90,52 12,0 94,-7 184,-15 z M 455,1480 c 321,-19 554,-55 785,-122 133,-38 360,-133 476,-199 105,-61 206,-133 197,-142 -17,-18 -79,-4 -146,32 -156,85 -410,175 -627,221 -58,12 -112,26 -122,30 -41,22 -238,41 -728,71 -102,6 -203,14 -225,18 l -39,6 89,47 c 102,53 95,52 340,38 z m 3250,0 c 321,-19 554,-55 785,-122 133,-38 360,-133 476,-199 105,-61 206,-133 197,-142 -17,-18 -79,-4 -146,32 -156,85 -410,175 -627,221 -58,12 -112,26 -122,30 -41,22 -238,41 -728,71 -102,6 -203,14 -225,18 l -39,6 89,47 c 102,53 95,52 340,38 z m -145,-156 c 162,-10 297,-21 300,-24 3,-4 46,-10 97,-14 305,-22 658,-116 918,-243 l 78,-38 -39,-7 c -74,-13 -117,-8 -223,26 -158,51 -321,92 -461,114 -164,27 -190,29 -565,52 -176,11 -356,24 -400,30 -132,16 -275,43 -275,51 0,4 15,11 33,15 19,4 26,9 17,12 -31,11 113,51 170,48 30,-2 188,-12 350,-22 z m -520,-120 c 159,-29 368,-49 650,-64 344,-18 500,-38 715,-91 96,-24 237,-69 248,-79 5,-4 -34,-15 -87,-25 -92,-16 -98,-16 -203,4 -149,28 -310,48 -498,61 -397,27 -457,32 -576,45 -210,24 -582,106 -613,135 -4,4 18,13 50,20 33,6 73,15 89,20 17,5 44,7 60,4 17,-3 91,-16 165,-30 z m -445,-54 c 119,-41 382,-101 548,-125 95,-13 312,-34 482,-45 171,-11 353,-25 405,-30 114,-12 280,-39 297,-49 7,-4 -36,-21 -95,-39 -106,-32 -110,-32 -207,-22 -55,6 -224,17 -375,25 -399,22 -626,55 -883,131 -149,44 -387,139 -387,155 0,8 42,14 116,17 22,1 67,-7 99,-18 z m -285,-45 c 169,-85 408,-163 655,-214 192,-39 315,-51 844,-81 101,-6 188,-13 193,-16 5,-3 -33,-27 -84,-52 l -93,-45 -210,12 c -653,37 -1056,142 -1380,357 -107,71 -109,74 -47,74 40,0 69,-8 122,-35 z m 19,-174 94,-48 -39,-6 C 2363,873 2239,866 2110,860 1795,847 1716,842 1575,824 1231,781 912,692 670,570 592,531 519,517 506,539 c -7,10 94,80 194,134 182,100 441,186 725,241 177,35 434,56 765,64 35,1 65,-9 139,-47 z m 303,-122 c 54,-17 97,-33 95,-35 -8,-9 -213,-44 -340,-59 -73,-8 -251,-19 -397,-25 -403,-14 -736,-66 -999,-155 -97,-32 -107,-34 -174,-25 -40,5 -76,10 -82,10 -37,3 235,115 386,159 289,84 509,115 934,132 149,6 297,14 330,18 107,15 145,12 247,-20 z m 333,-79 c 39,-6 77,-14 85,-17 37,-13 -277,-100 -501,-138 -138,-23 -234,-31 -699,-55 -211,-11 -360,-28 -518,-60 l -100,-20 -98,20 c -54,11 -99,22 -102,24 -2,3 27,14 65,25 290,87 551,123 993,141 284,11 444,28 636,70 71,15 138,26 149,24 11,-1 52,-8 90,-14 z m 350,-49 40,-7 -70,-36 C 3127,558 2885,477 2676,435 2487,397 2342,381 2079,370 1945,365 1774,355 1700,349 l -135,-11 -105,35 c -58,20 -98,38 -90,41 35,12 275,46 395,55 72,6 213,13 315,16 393,13 764,75 1025,173 81,31 137,37 210,23 z m 249,-20 C 3580,636 3323,484 3143,412 2821,283 2536,228 2110,209 l -255,-11 -90,48 -90,48 34,7 c 19,4 103,10 185,13 455,19 442,18 621,42 330,46 646,140 885,264 89,46 152,62 164,41 z m 180,-9 C 3750,641 3552,474 3455,410 3161,212 2687,76 2183,44 l -112,-7 -40,36 c -22,19 -51,43 -65,52 -14,10 -26,21 -26,25 0,4 57,9 128,9 631,7 1268,193 1590,464 42,35 75,46 86,29 z"
       id="path8"
       inkscape:connector-curvature="0"
       style="fill:none;stroke:#000000" />
    <path
       d="M 0,57 C 0,30 27,20 106,20 130,20 150,16 150,10 150,4 273,0 500,0 693,0 850,4 850,9 850,18 771,26 505,40 272,52 41,70 18,76 4,80 0,75 0,57 z"
       id="path10"
       inkscape:connector-curvature="0"
       style="fill:none;stroke:#000000" />
  </g>
</svg>
