<?xml version="1.0" encoding="UTF-8" standalone="no"?>
<svg
   xmlns:dc="http://purl.org/dc/elements/1.1/"
   xmlns:cc="http://creativecommons.org/ns#"
   xmlns:rdf="http://www.w3.org/1999/02/22-rdf-syntax-ns#"
   xmlns:svg="http://www.w3.org/2000/svg"
   xmlns="http://www.w3.org/2000/svg"
   xmlns:sodipodi="http://sodipodi.sourceforge.net/DTD/sodipodi-0.dtd"
   xmlns:inkscape="http://www.inkscape.org/namespaces/inkscape"
   version="1.0"
   width="723.000000pt"
   height="1024.000000pt"
   viewBox="0 0 723.000000 1024.000000"
   preserveAspectRatio="xMidYMid meet"
   id="svg2"
   inkscape:version="0.48.2 r9819"
   sodipodi:docname="wizardofoz.svg">
  <defs
     id="defs12" />
  <sodipodi:namedview
     pagecolor="#ffffff"
     bordercolor="#666666"
     borderopacity="1"
     objecttolerance="10"
     gridtolerance="10"
     guidetolerance="10"
     inkscape:pageopacity="0"
     inkscape:pageshadow="2"
     inkscape:window-width="1920"
     inkscape:window-height="1028"
     id="namedview10"
     showgrid="false"
     inkscape:zoom="0.52149125"
     inkscape:cx="323.44136"
     inkscape:cy="713.86408"
     inkscape:window-x="-8"
     inkscape:window-y="-8"
     inkscape:window-maximized="1"
     inkscape:current-layer="g6" />
  <metadata
     id="metadata4">
Created by potrace 1.11, written by Peter Selinger 2001-2013
<rdf:RDF>
  <cc:Work
     rdf:about="">
    <dc:format>image/svg+xml</dc:format>
    <dc:type
       rdf:resource="http://purl.org/dc/dcmitype/StillImage" />
    <dc:title></dc:title>
  </cc:Work>
</rdf:RDF>
</metadata>
  <g
     transform="translate(0.000000,1024.000000) scale(0.100000,-0.100000)"
     fill="#000000"
     stroke="none"
     id="g6">
    <path
       d="M0 5120 l0 -5120 3615 0 3615 0 0 5120 0 5120 -3615 0 -3615 0 0 -5120z m480 4953 c1 -21 35 -48 80 -63 l50 -17 -40 -27 c-32 -21 -44 -24 -60 -16 -44 24 -197 -4 -187 -34 5 -18 69 -46 105 -46 55 0 30 -44 -31 -53 -65 -10 -138 -77 -106 -98 13 -9 23 -8 77 7 32 9 28 -10 -13 -55 -37 -41 -69 -106 -60 -121 7 -11 33 -3 58 18 23 20 33 8 19 -22 -9 -19 -20 -24 -64 -28 -128 -11 -182 -93 -55 -86 26 2 47 1 47 -2 -1 -15 -22 -32 -73 -58 l-57 -29 0 369 0 368 155 0 c85 0 155 -3 155 -7z m222 -10 c23 -21 23 -29 -3 -36 -13 -4 -32 2 -49 15 -15 11 -43 24 -61 28 -29 7 -24 8 30 9 47 1 69 -3 83 -16z m458 -2 c-5 -11 -10 -29 -10 -40 0 -24 -8 -26 -35 -7 -37 25 -125 48 -195 50 -137 6 -81 16 84 16 162 0 166 -1 156 -19z m2012 -4 c-29 -31 -43 -80 -32 -116 4 -15 5 -40 3 -55 l-5 -27 -35 41 c-37 43 -87 75 -103 65 -6 -3 -3 -22 7 -46 8 -22 14 -41 12 -43 -25 -18 -68 -46 -73 -46 -3 0 -3 7 1 15 7 19 -53 144 -73 152 -8 3 -17 3 -20 0 -11 -11 -9 -73 3 -122 7 -27 13 -51 13 -52 0 -1 -12 2 -26 7 -33 13 -101 13 -109 0 -19 -31 50 -82 112 -84 24 0 43 -6 43 -12 0 -18 -41 -49 -60 -46 -9 2 -37 -12 -61 -30 -34 -26 -46 -43 -53 -76 -8 -32 -14 -41 -25 -37 -9 4 -29 9 -44 12 l-29 6 43 37 c38 32 43 43 43 76 0 64 -13 112 -38 141 -14 17 -25 46 -28 73 -11 102 -108 179 -209 167 -59 -7 -98 -29 -125 -68 -10 -16 -24 -27 -31 -24 -28 10 -43 -25 -43 -99 0 -92 -20 -119 -38 -52 -10 40 -36 65 -51 50 -14 -14 -5 -101 15 -139 16 -32 18 -48 12 -80 -4 -22 -8 -64 -8 -92 0 -52 -1 -53 -29 -53 -16 0 -43 -3 -62 -7 l-33 -6 32 40 c34 42 54 95 45 119 -7 19 -14 18 -54 -9 -39 -26 -68 -78 -69 -124 0 -30 -3 -33 -32 -33 -18 0 -44 -3 -58 -7 -24 -6 -24 -5 -9 13 16 18 41 62 74 133 13 26 14 43 7 78 -10 44 -10 45 14 39 35 -9 42 19 13 50 -12 13 -41 29 -63 35 -70 17 -73 19 -56 29 8 6 25 10 38 10 32 0 82 28 82 45 0 33 -152 42 -209 13 -29 -15 -81 -16 -81 -1 0 2 14 16 30 30 85 71 -36 72 -129 1 -14 -10 -40 -18 -63 -18 l-39 0 35 44 c44 53 46 69 9 60 -65 -15 -136 -73 -155 -126 -2 -4 -19 -14 -39 -22 l-36 -15 18 37 c20 38 26 112 9 112 -16 0 -90 -76 -90 -93 0 -10 -3 -17 -7 -17 -20 1 -28 19 -29 61 -1 26 -8 61 -17 78 l-15 31 1001 0 1000 0 -21 -23z m601 -9 c-39 -42 -53 -69 -53 -105 0 -25 -8 -33 -50 -56 -27 -15 -50 -26 -50 -25 0 2 7 21 15 43 17 47 20 115 5 115 -43 0 -106 -105 -98 -162 5 -31 1 -36 -56 -67 -40 -23 -57 -22 -38 2 7 8 18 32 26 54 12 35 12 44 1 60 -13 17 -15 17 -40 -7 -35 -32 -55 -79 -55 -129 0 -37 -3 -42 -40 -61 -49 -25 -69 -26 -47 -2 36 40 60 133 38 147 -16 9 -79 -53 -93 -91 -6 -19 -15 -34 -19 -34 -11 0 -41 82 -32 89 4 4 28 23 53 43 25 20 53 50 63 67 18 31 18 31 -3 31 -27 0 -58 -16 -92 -47 -45 -43 -50 -21 -8 36 23 31 43 69 46 92 l7 39 275 0 276 0 -31 -32z m185 12 c-20 -11 -47 -32 -60 -48 -12 -16 -43 -37 -67 -46 l-43 -17 26 31 c14 18 29 44 32 58 10 42 11 42 82 42 l67 -1 -37 -19z m488 2 c-35 -16 -47 -16 -110 -5 -39 6 -101 10 -139 7 -37 -3 -75 0 -85 5 -12 7 41 10 178 10 194 0 195 0 156 -17z m272 -21 l43 -38 -82 -20 c-75 -19 -85 -20 -106 -6 -24 16 -24 16 27 33 28 9 53 20 56 23 9 9 -6 27 -30 37 -18 7 -16 9 14 9 26 0 46 -9 78 -38z m422 34 c-8 -2 -62 -11 -121 -20 -104 -17 -105 -17 -140 4 l-34 21 155 -1 c85 -1 148 -3 140 -4z m496 -17 c17 -19 17 -21 1 -15 -19 7 -123 25 -177 30 -19 2 8 5 61 5 87 2 98 0 115 -20z m260 -16 c0 -21 8 -53 17 -71 9 -19 17 -35 17 -37 0 -8 -86 43 -94 56 -13 20 -46 52 -76 72 -25 17 -23 17 55 17 l80 1 1 -38z m284 19 c18 -35 80 -64 148 -70 39 -4 67 -11 70 -18 2 -8 -6 -13 -21 -13 -14 0 -47 -10 -74 -22 -26 -11 -55 -22 -63 -22 -22 -1 -60 -76 -60 -120 0 -34 -2 -37 -16 -25 -13 10 -15 25 -9 75 4 44 2 77 -10 118 -28 96 -69 62 -68 -57 l0 -67 -31 24 c-25 19 -32 33 -36 72 -5 45 -40 119 -64 136 -6 4 42 8 106 8 105 0 118 -2 128 -19z m256 -15 l-11 -35 -31 24 c-17 13 -34 22 -37 19 -3 -3 -18 1 -34 10 -27 15 -26 15 48 16 l76 0 -11 -34z m139 -2 c-27 -40 -34 -118 -14 -155 10 -19 4 -59 -9 -59 -4 0 -19 24 -34 53 -27 51 -27 53 -11 100 12 37 13 54 5 73 -11 24 -11 24 38 24 l49 0 -24 -36z m149 -1 c-19 -21 -38 -51 -41 -66 -3 -15 -14 -32 -24 -37 -16 -9 -18 -3 -21 65 l-3 75 62 0 62 0 -35 -37z m316 20 c0 -15 -10 -18 -61 -19 -47 -2 -75 -9 -122 -33 -74 -38 -97 -41 -73 -8 9 12 21 34 27 50 l11 27 109 0 c97 0 109 -2 109 -17z m-6131 -83 c-22 -29 -19 -50 7 -50 17 0 17 4 1 -42 l-13 -36 -43 29 c-27 18 -57 29 -78 29 -38 0 -40 -6 -16 -40 23 -34 50 -52 102 -70 63 -21 62 -36 -1 -32 -58 3 -120 -22 -126 -51 -7 -36 141 -42 183 -7 7 5 10 -9 10 -43 0 -29 4 -68 8 -87 7 -31 4 -40 -21 -73 l-30 -38 -12 35 c-13 41 -44 71 -65 63 -21 -9 -19 -65 5 -133 17 -50 18 -59 5 -83 -8 -14 -14 -21 -15 -15 0 7 -14 26 -32 43 -28 27 -30 33 -20 56 16 35 15 100 -2 133 -33 64 -120 106 -192 95 -27 -5 -33 -2 -39 18 -4 13 -21 38 -37 56 l-30 31 25 37 26 38 10 -40 c12 -43 43 -79 60 -68 16 9 13 70 -4 112 -19 45 -13 64 24 86 l29 17 -5 -45 c-3 -24 -2 -56 1 -70 6 -23 9 -25 22 -14 30 25 55 88 49 123 -8 41 0 45 110 53 44 3 87 9 95 14 26 13 30 -1 9 -31z m1610 19 c41 -23 67 -55 77 -93 l6 -26 -38 16 c-20 9 -57 16 -81 17 -44 2 -44 2 -38 35 4 24 2 32 -8 32 -23 0 -67 -40 -67 -61 0 -18 -46 -46 -57 -35 -12 12 12 70 42 101 28 30 39 35 80 35 29 0 61 -8 84 -21z m1731 -23 c44 -43 118 -91 127 -82 7 6 -16 84 -27 91 -15 9 -12 25 4 25 8 0 20 -16 26 -35 6 -20 22 -48 35 -64 l24 -28 -44 -21 c-42 -20 -45 -20 -54 -4 -24 44 -181 86 -181 48 0 -22 77 -86 104 -86 41 0 38 -17 -6 -39 l-42 -21 -37 36 c-35 34 -112 64 -165 64 -21 0 -38 22 -27 34 4 3 27 6 52 6 61 0 80 12 60 36 -8 9 -30 24 -49 32 -34 15 -35 15 -10 22 17 4 41 -3 79 -22 88 -47 129 -33 74 24 -24 25 -25 28 -8 28 11 0 40 -20 65 -44z m1083 38 c3 -3 -8 -18 -24 -32 -37 -33 -54 -112 -25 -112 34 0 118 66 141 111 12 21 19 25 47 22 59 -8 60 -11 19 -48 -21 -20 -42 -46 -45 -59 -4 -17 -16 -27 -36 -31 -30 -7 -40 -28 -18 -41 6 -4 38 -10 71 -13 l59 -6 -53 -35 c-58 -38 -108 -113 -96 -144 6 -16 10 -16 48 6 49 27 84 69 102 124 l14 39 7 -45 c4 -25 15 -60 26 -78 25 -40 25 -42 1 -42 -10 0 -24 -7 -31 -15 -11 -13 -3 -26 55 -81 65 -63 70 -66 107 -60 37 6 37 6 32 -22 -7 -34 16 -62 50 -62 39 0 47 -19 25 -62 -11 -21 -23 -68 -26 -103 -5 -56 -3 -71 21 -120 60 -122 185 -165 335 -114 74 25 133 78 163 146 14 32 29 49 53 59 18 7 35 19 37 25 2 6 21 -8 42 -31 41 -46 42 -57 4 -40 -18 9 -36 9 -65 1 -52 -14 -71 -35 -52 -57 11 -13 28 -15 99 -11 47 3 72 3 57 0 -20 -3 -27 -9 -23 -19 4 -10 -2 -14 -17 -14 -32 0 -62 -24 -54 -43 5 -15 23 -21 116 -44 53 -13 51 -32 -4 -26 -31 4 -45 2 -45 -6 0 -13 36 -50 64 -66 16 -9 16 -14 -9 -68 -22 -46 -26 -70 -24 -120 3 -66 -7 -111 -22 -102 -5 4 -9 20 -9 36 0 28 -20 78 -42 103 -5 6 -17 27 -26 46 -31 64 -123 72 -197 15 -17 -12 -45 -51 -63 -85 -26 -51 -32 -74 -32 -125 0 -34 7 -79 16 -100 8 -20 14 -39 12 -41 -2 -2 -15 3 -29 10 -107 55 -117 -8 -12 -77 31 -21 63 -37 73 -37 14 0 60 -49 60 -65 0 -3 -15 -5 -34 -5 -45 0 -96 -19 -96 -36 0 -35 106 -47 165 -18 31 14 36 14 67 -2 l33 -18 -47 -7 c-52 -8 -68 -15 -68 -30 0 -18 68 -39 124 -39 51 0 55 -2 75 -36 12 -19 21 -37 21 -40 0 -2 -17 -4 -37 -4 -81 0 -106 -24 -60 -55 24 -15 116 -23 134 -12 6 4 23 -7 38 -23 l29 -30 -26 0 c-30 0 -88 -19 -88 -29 0 -4 5 -12 11 -18 8 -8 7 -17 -2 -34 -20 -37 -16 -128 7 -174 13 -25 18 -50 15 -67 l-6 -27 -44 30 c-25 16 -49 28 -55 26 -14 -5 -9 -71 9 -114 8 -18 34 -47 59 -64 33 -23 48 -43 59 -75 l14 -43 -64 6 c-55 5 -63 4 -63 -12 0 -45 115 -104 174 -89 14 3 35 -2 56 -14 32 -20 32 -20 9 -27 -13 -5 -38 -23 -56 -42 -31 -34 -34 -35 -265 -79 -128 -24 -238 -44 -244 -44 -6 0 -9 10 -7 24 7 35 -28 67 -64 60 -28 -5 -28 -5 -28 50 0 53 6 68 20 46 12 -20 25 -10 25 20 0 21 4 28 14 24 25 -10 32 60 11 107 -14 30 -16 44 -7 63 8 19 7 27 -9 42 -10 11 -24 37 -32 58 -18 52 -32 55 -47 12 -10 -31 -16 -36 -44 -36 -22 0 -40 8 -56 25 -28 29 -47 32 -54 8 -7 -25 -21 -223 -18 -250 3 -21 -1 -23 -43 -23 -25 0 -67 -5 -92 -12 -41 -10 -47 -9 -59 7 -21 28 -17 67 10 116 33 61 83 299 91 439 l7 115 -37 65 c-21 36 -49 85 -63 110 -14 25 -37 61 -51 80 -25 33 -26 38 -15 80 18 65 17 92 -7 155 -24 64 -45 79 -67 47 -21 -32 -29 -27 -36 26 -8 58 -52 111 -122 146 -27 13 -125 50 -217 80 -92 31 -181 63 -197 71 -43 22 -53 18 -31 -12 11 -16 23 -41 27 -58 l7 -30 -27 33 c-28 33 -52 43 -43 18 12 -30 -15 -86 -69 -146 -62 -70 -74 -94 -74 -151 0 -31 -4 -39 -19 -39 -10 0 -24 7 -31 15 -33 40 -80 -6 -80 -77 0 -21 -3 -38 -6 -38 -3 0 -21 12 -40 26 -30 24 -38 25 -61 15 -22 -10 -29 -9 -49 10 -12 12 -62 34 -110 50 -95 31 -157 81 -147 118 9 34 -14 61 -52 61 -19 0 -35 1 -35 3 0 2 9 22 20 44 11 23 17 48 14 56 -2 7 2 20 11 27 20 17 19 36 -5 60 -24 24 -25 46 -4 67 28 28 11 82 -39 129 -70 64 -183 88 -279 60 -66 -19 -125 -77 -153 -150 -16 -42 -17 -56 -7 -105 6 -31 27 -87 47 -124 19 -37 35 -72 35 -77 0 -4 -17 -6 -38 -3 -51 7 -67 -12 -58 -72 6 -38 11 -45 29 -45 12 0 31 7 41 15 31 23 38 18 16 -12 -22 -30 -50 -144 -50 -205 0 -21 -7 -56 -16 -78 -12 -29 -15 -55 -10 -88 5 -41 2 -56 -30 -119 -26 -50 -38 -87 -40 -125 -1 -31 -8 -56 -16 -60 -7 -4 -38 -19 -68 -33 -61 -29 -98 -61 -140 -118 l-28 -38 -36 32 -36 31 -15 -35 c-16 -39 -30 -47 -86 -47 -22 0 -50 -7 -63 -15 -22 -15 -24 -14 -39 9 -9 13 -41 34 -72 47 -48 20 -55 26 -49 44 9 26 9 74 0 82 -4 4 -16 2 -26 -5 -26 -16 -62 -15 -85 2 -17 13 -18 15 -2 55 10 23 17 57 17 76 0 27 4 35 18 35 24 0 57 -36 77 -83 9 -21 20 -35 25 -32 14 9 12 36 -5 69 -8 15 -15 30 -15 32 0 1 19 4 42 6 61 4 62 28 1 28 -63 0 -82 12 -49 30 34 18 59 83 51 131 -4 21 -12 40 -19 42 -8 3 -11 17 -8 35 6 45 -52 95 -73 62 -18 -28 -149 2 -182 42 -28 34 -51 191 -31 215 6 7 8 22 5 33 -10 40 65 64 127 40 50 -18 44 28 -7 59 -25 15 -46 18 -91 15 -33 -2 -64 -8 -70 -14 -5 -5 -19 -10 -31 -10 -37 0 -56 -53 -90 -263 -6 -37 -7 -38 -38 -32 -18 4 -39 15 -48 25 -29 33 -99 26 -99 -11 0 -10 -4 -19 -10 -19 -5 0 -10 7 -10 15 0 24 -28 18 -46 -10 -11 -17 -14 -36 -10 -55 4 -22 2 -30 -8 -30 -33 0 -30 -117 4 -177 28 -48 93 -120 125 -139 20 -11 19 -12 -4 -38 -14 -14 -39 -31 -58 -38 -18 -7 -33 -16 -33 -20 0 -15 36 -8 83 16 26 13 47 19 47 14 0 -6 -14 -30 -30 -55 -17 -25 -29 -47 -26 -50 11 -11 49 26 71 70 l24 48 14 -28 c8 -15 33 -49 56 -74 22 -26 37 -49 34 -53 -13 -13 -47 -5 -69 15 -13 12 -30 19 -38 16 -18 -7 -21 -58 -5 -88 8 -15 6 -25 -10 -46 -12 -14 -21 -33 -21 -43 0 -9 -25 -56 -57 -104 -55 -86 -56 -88 -46 -132 10 -42 9 -46 -19 -69 -16 -14 -33 -25 -37 -25 -22 0 -174 219 -162 234 5 6 12 21 15 34 6 19 4 22 -17 22 -17 0 -35 13 -59 43 -29 36 -33 47 -27 75 8 37 0 45 -39 40 -21 -2 -28 2 -30 19 -3 20 0 21 55 17 88 -7 98 5 94 111 -2 85 -2 86 21 81 77 -16 109 -16 114 -1 9 23 -10 40 -74 65 -56 22 -58 25 -72 74 -7 28 -13 68 -13 89 1 29 -3 37 -17 37 -25 0 -157 105 -173 138 -8 15 -22 56 -31 92 -31 113 -39 124 -74 101 -11 -7 -10 -28 6 -116 22 -120 16 -156 -29 -179 -17 -8 -23 -19 -22 -37 3 -39 -6 -67 -29 -89 -19 -17 -20 -23 -9 -44 9 -17 10 -29 3 -42 -8 -14 -5 -28 10 -58 36 -71 71 -118 95 -127 18 -7 23 -17 24 -49 1 -22 2 -46 3 -52 1 -7 -12 -19 -27 -25 -25 -11 -28 -17 -22 -42 5 -26 0 -37 -36 -76 -23 -25 -47 -45 -53 -44 -37 4 -50 -23 -24 -49 9 -9 9 -15 1 -23 -13 -13 -39 -1 -66 29 -17 19 -17 23 -2 83 9 35 28 88 42 118 l26 54 -49 45 c-48 43 -150 117 -177 128 -11 4 -16 -13 -21 -73 -4 -43 -12 -95 -17 -117 l-10 -38 -28 26 c-15 14 -35 26 -44 26 -23 0 -49 -55 -45 -98 3 -33 6 -37 41 -45 33 -8 38 -12 33 -31 -19 -65 -18 -70 16 -93 44 -30 148 -65 172 -59 23 6 56 -10 56 -26 0 -11 -80 -109 -122 -151 -29 -28 -21 -98 12 -113 14 -6 66 -31 115 -55 89 -44 90 -44 93 -84 2 -22 7 -42 12 -45 12 -7 -106 -259 -131 -279 -12 -10 -21 -32 -23 -59 -3 -32 -14 -57 -48 -100 -91 -117 -117 -165 -117 -213 1 -24 -3 -64 -8 -89 l-8 -44 -197 -36 -197 -36 15 25 c9 15 41 40 72 57 51 27 102 81 102 107 0 9 -38 5 -89 -9 -19 -6 -22 -4 -20 11 2 10 16 22 31 26 39 10 86 46 103 79 8 16 15 31 15 35 0 13 -49 3 -93 -20 -45 -24 -47 -25 -47 -6 0 11 13 29 30 41 35 25 80 97 80 129 0 20 -4 22 -28 16 -15 -3 -38 -17 -53 -31 -32 -31 -35 -30 -43 7 -5 25 1 39 27 74 34 44 65 120 54 131 -9 9 -53 -21 -88 -59 -23 -25 -31 -29 -38 -18 -6 9 1 29 21 62 35 56 50 139 25 139 -8 0 -35 -22 -59 -48 -42 -47 -44 -48 -58 -30 -14 18 -11 24 37 72 61 61 70 96 24 96 -15 0 -40 -10 -55 -21 -15 -12 -29 -19 -32 -16 -3 3 -12 35 -19 71 -18 84 -62 166 -132 247 -101 117 -125 203 -80 288 17 35 38 54 101 91 43 26 81 53 85 59 5 8 13 5 26 -9 23 -26 71 -26 85 -1 5 11 10 32 10 46 0 20 4 25 18 23 22 -4 122 81 122 103 0 9 -7 20 -16 23 -30 12 -109 6 -158 -11 -39 -14 -50 -15 -54 -5 -9 28 -84 113 -113 128 -29 14 -33 14 -47 0 -15 -14 -15 -20 1 -63 9 -27 17 -55 17 -64 0 -9 9 -24 20 -34 l20 -18 -20 -19 c-48 -44 -3 -103 55 -72 40 21 42 17 10 -16 -15 -16 -52 -41 -81 -55 -159 -78 -174 -235 -37 -387 66 -73 108 -149 127 -231 20 -87 20 -89 -4 -49 -23 37 -35 40 -50 11 -9 -16 -14 -18 -25 -9 -10 8 -12 25 -8 59 9 81 -43 149 -67 85 -6 -14 -10 -40 -11 -57 -1 -28 -3 -25 -14 18 -16 63 -56 146 -69 142 -16 -5 -27 -59 -20 -101 5 -31 3 -37 -7 -31 -42 24 -48 37 -42 85 6 52 -12 123 -30 117 -6 -2 -18 -27 -27 -56 -15 -52 -15 -53 -33 -33 -17 19 -17 23 -3 66 18 52 21 113 7 135 -13 20 -39 -2 -61 -52 -10 -22 -20 -35 -23 -30 -8 15 -38 163 -32 163 1 0 20 -7 41 -16 36 -15 125 -16 140 -1 10 10 -20 46 -48 58 -27 11 -38 29 -18 29 16 0 80 61 74 71 -10 17 -60 9 -110 -16 -27 -14 -49 -25 -50 -25 0 0 14 30 33 66 18 37 33 73 33 80 0 22 -25 17 -59 -12 -33 -27 -35 -25 -25 24 4 22 15 34 38 43 43 18 106 77 106 100 0 23 -29 25 -70 4 -32 -17 -36 -10 -19 28 9 20 21 25 63 30 67 7 99 22 120 58 l17 29 -46 0 c-25 0 -61 -7 -80 -14 l-35 -15 15 37 c9 20 17 37 18 37 1 1 29 7 61 13 65 13 128 40 133 58 5 16 -45 24 -94 15 -24 -5 -43 -6 -43 -4 0 2 12 20 26 38 21 28 29 33 44 25 10 -6 31 -10 47 -10 36 0 133 26 146 39 15 15 -32 34 -100 40 -56 6 -60 7 -49 24 12 16 16 16 49 2 46 -19 98 -19 144 0 l37 16 40 -40 c59 -58 147 -101 205 -101 53 0 141 21 162 38 8 6 29 24 47 38 125 101 81 290 -86 367 -34 16 -49 28 -41 32 21 13 -21 35 -65 35 -23 0 -52 -7 -66 -15 -57 -33 -175 -78 -162 -62 12 15 52 86 52 92 0 13 -55 3 -92 -16 l-41 -21 8 39 c4 21 8 40 10 44 2 3 30 11 61 18 58 13 134 68 134 97 0 19 -76 18 -114 -1 -39 -21 -40 -20 -14 25 21 36 27 40 88 50 112 19 148 70 49 70 l-50 0 19 28 c18 24 26 27 60 24 44 -4 152 23 152 38 0 13 -28 26 -72 34 -44 8 -46 15 -15 37 17 12 36 15 75 11 55 -5 60 -11 42 -58 -14 -37 -4 -61 33 -81 l32 -17 -31 -6 c-46 -10 -53 -18 -52 -53 0 -18 -1 -36 -2 -42 -10 -42 37 -48 91 -11 l36 25 -1 -59 c-1 -69 13 -92 44 -72 11 6 26 12 35 12 22 0 37 37 29 73 l-6 32 23 -21 c38 -34 47 -36 76 -20 16 9 45 22 66 30 27 11 38 21 35 33 -5 27 -92 55 -175 56 l-72 2 -11 47 c-7 26 -25 67 -41 93 -33 52 -35 61 -14 69 26 10 16 25 -26 37 l-41 13 27 14 c25 12 30 11 66 -14 40 -27 125 -48 135 -33 9 15 -21 49 -64 71 l-43 23 38 12 c73 22 91 18 113 -30 21 -44 87 -97 123 -97 17 0 18 5 12 43 -4 23 -11 50 -17 60 -5 9 -6 17 -2 17 14 0 141 -75 215 -126 115 -81 158 -97 264 -97 68 0 106 5 154 22 35 12 64 21 65 19 1 -2 17 -34 36 -71 59 -118 124 -152 290 -151 80 0 104 4 150 25 63 29 85 51 76 76 -6 14 -11 12 -39 -14 -41 -39 -70 -54 -133 -69 -91 -21 -228 18 -280 79 -33 40 -28 61 16 65 44 4 60 24 60 76 l1 41 18 -35 c11 -19 30 -45 43 -58 23 -21 31 -22 96 -16 66 6 72 9 72 29 0 14 -16 37 -41 60 -42 37 -154 95 -185 95 -11 0 -14 5 -9 18 4 9 10 48 12 85 6 66 6 67 25 51 26 -25 40 -7 46 59 4 48 7 54 24 49 10 -2 28 -21 38 -42 25 -49 76 -100 101 -100 24 0 26 42 4 84 -19 36 -20 34 12 28 15 -3 43 -21 63 -40 35 -34 52 -43 103 -56 34 -8 36 13 7 62 -11 18 -20 35 -20 37 0 10 59 5 65 -5 11 -18 84 -50 114 -50 44 0 46 15 6 59 l-36 39 30 7 c22 5 39 0 68 -19 21 -14 57 -29 80 -34 65 -15 70 0 18 56 l-35 39 27 12 c25 11 30 9 80 -41 29 -29 53 -55 53 -58 0 -3 -15 -11 -34 -18 -39 -14 -71 -46 -61 -61 12 -21 118 -13 168 12 29 15 57 22 76 19 29 -4 41 -16 24 -24 -5 -1 -21 -18 -36 -37 -19 -23 -25 -37 -18 -44 17 -17 96 20 134 63 34 37 42 41 100 54 l28 7 -25 -44 c-29 -49 -34 -87 -11 -87 26 0 93 70 111 116 9 24 19 44 23 44 3 0 16 3 28 6 21 6 22 4 13 -27 -12 -42 -13 -96 -1 -103 28 -17 101 87 101 143 0 20 7 34 19 41 35 18 41 12 41 -43 0 -70 15 -85 46 -47 32 38 54 92 54 133 0 25 6 36 28 49 l28 17 0 -55 c0 -29 5 -59 12 -66 29 -29 90 82 78 145 -5 29 -3 35 19 45 35 16 38 15 32 -10 -8 -30 5 -90 20 -95 21 -7 63 80 63 129 0 40 3 46 33 60 l33 16 -10 -58 c-10 -63 -5 -90 19 -90 25 0 68 76 73 129 3 37 9 51 22 54 13 3 20 -2 25 -22 9 -39 27 -81 34 -81 15 0 43 63 38 86 -5 27 9 31 37 11 17 -12 17 -16 -3 -72 -25 -71 -26 -94 -5 -102 24 -9 61 34 68 79 l7 42 25 -25 c22 -23 24 -28 13 -52 -7 -15 -15 -27 -19 -27 -14 0 -60 -76 -60 -98 0 -27 15 -28 58 -2 31 19 66 76 56 92 -3 5 -1 8 4 8 5 0 14 -12 20 -27 24 -62 23 -68 -8 -81 -40 -18 -93 -69 -85 -82 10 -17 55 -11 87 11 16 12 31 19 34 17 2 -3 1 -23 -4 -44 -8 -37 -10 -39 -43 -36 -36 3 -119 -16 -119 -27 0 -17 60 -41 89 -35 34 7 39 -1 15 -27 -13 -14 -26 -16 -69 -12 -68 7 -111 -2 -96 -21 7 -8 26 -20 43 -27 l32 -13 -30 -13 c-59 -25 -138 -9 -178 36 -22 24 -36 27 -36 7 0 -43 131 -96 196 -80 49 12 121 52 143 80 12 15 23 25 24 23 2 -2 11 -17 20 -32 10 -15 22 -25 27 -22 13 8 13 98 0 111 -7 7 -6 27 3 62 l13 52 18 -31 c18 -30 61 -58 72 -46 14 13 -9 61 -50 105 -24 26 -47 57 -50 70 l-7 22 37 -25 c38 -26 74 -33 74 -14 0 25 -63 88 -103 104 -24 9 -48 25 -55 36 -11 18 -9 19 28 19 22 0 40 5 40 11 0 6 -16 27 -35 46 l-35 35 32 38 c18 21 40 47 48 58 8 11 30 23 47 27 l33 7 -25 -44 c-22 -38 -35 -118 -19 -118 35 0 110 88 121 143 3 15 9 27 13 27 4 0 23 3 41 7 l34 6 -27 -32 c-33 -39 -55 -108 -39 -124 19 -19 93 42 121 100 21 42 30 52 55 56 17 2 33 5 36 5 3 1 8 -1 12 -4z m1707 -242 l0 -248 -35 -13 c-19 -6 -58 -38 -86 -69 -29 -31 -49 -52 -45 -45 9 16 10 135 1 162 -9 28 -24 23 -52 -19 -18 -25 -23 -47 -23 -93 l0 -60 -43 40 c-24 22 -49 42 -55 44 -8 3 -8 15 3 44 8 22 14 75 15 117 0 68 2 77 21 83 11 4 18 12 16 18 -8 25 -52 38 -109 33 -32 -2 -58 -1 -58 2 0 4 9 22 20 40 l20 32 50 -25 c35 -18 65 -25 105 -25 30 0 55 4 55 9 0 17 -47 54 -89 71 -23 9 -42 20 -42 25 0 5 16 15 36 23 l36 14 53 -50 c52 -49 102 -77 159 -89 18 -4 27 -1 27 7 0 22 -49 79 -91 107 l-40 26 35 12 c19 7 52 26 73 43 21 17 39 31 41 32 1 0 2 -112 2 -248z m-5900 163 c5 -6 -4 -10 -28 -9 -70 2 -82 -20 -32 -56 28 -20 29 -22 14 -44 -8 -13 -17 -50 -19 -82 -4 -48 -9 -63 -35 -88 l-30 -31 0 30 c0 29 -22 72 -44 87 -6 4 -3 31 8 72 10 37 16 79 13 95 -5 24 -1 30 29 44 19 9 34 22 34 27 0 11 74 -26 90 -45z m3410 5 c0 -4 -10 -10 -22 -14 -17 -4 -28 1 -40 17 -26 33 -22 37 22 20 22 -9 40 -19 40 -23z m1170 15 l35 -12 -42 -12 c-23 -6 -65 -27 -93 -46 -60 -40 -52 -38 -84 -25 l-25 9 52 54 c57 59 71 62 157 32z m-930 -42 c-17 -24 -27 -29 -50 -25 -16 2 -34 10 -41 18 -8 10 -5 15 18 20 15 3 42 9 58 14 17 4 32 6 33 4 2 -1 -6 -15 -18 -31z m-857 -13 c22 0 22 -4 -8 -48 -16 -23 -25 -52 -26 -77 l-1 -40 -14 44 c-14 46 -53 111 -66 111 -19 0 -5 19 19 27 19 7 35 5 53 -4 14 -7 33 -13 43 -13z m1945 4 l37 -15 -38 -14 c-43 -15 -77 -42 -77 -61 0 -31 79 -26 160 9 29 13 38 13 53 2 16 -11 14 -13 -19 -19 -19 -4 -46 -12 -57 -17 -22 -11 -85 -99 -121 -171 -11 -21 -25 -36 -30 -34 -6 2 -43 14 -82 27 l-72 23 1 57 c0 39 -7 70 -21 100 -12 24 -20 43 -19 44 1 1 16 11 32 22 17 11 38 22 47 26 15 5 15 3 2 -29 -12 -28 -13 -43 -4 -70 6 -19 15 -34 20 -34 17 0 88 93 100 131 15 44 30 48 88 23z m584 -41 c4 -23 18 -60 32 -82 24 -38 34 -71 20 -71 -3 0 -18 8 -32 19 -15 10 -44 24 -64 30 -21 7 -38 19 -38 26 0 30 -21 24 -65 -18 -27 -26 -45 -52 -45 -66 0 -14 -5 -21 -12 -18 -14 5 -14 13 1 72 6 22 11 55 11 73 0 30 2 32 38 32 22 0 58 10 83 24 24 14 48 23 54 22 5 -1 13 -21 17 -43z m-4727 11 c67 -18 159 -77 184 -118 27 -43 27 -105 1 -139 -27 -34 -73 -44 -106 -22 -21 13 -24 21 -19 46 7 31 -5 38 -25 14 -18 -21 -4 -61 29 -86 l29 -21 -37 -49 c-26 -36 -43 -49 -61 -49 -14 0 -35 -3 -47 -6 l-23 -6 26 58 c21 48 27 76 28 147 1 73 3 86 16 80 27 -12 88 -15 94 -5 8 14 -39 69 -76 88 -16 8 -42 14 -58 12 -19 -2 -37 5 -52 19 -13 11 -38 28 -55 37 -18 9 -33 18 -33 21 0 8 135 -7 185 -21z m776 -34 c27 -27 54 -50 59 -50 16 0 12 33 -7 60 -16 22 -16 23 1 17 10 -4 22 -7 27 -7 14 0 11 -38 -7 -73 -21 -39 -123 -147 -140 -147 -13 0 -104 88 -104 102 0 4 14 8 30 8 56 0 25 47 -42 64 -36 8 -35 17 3 40 l30 18 32 -35 c18 -19 44 -39 60 -45 24 -10 27 -10 27 9 0 12 -13 33 -30 49 -16 15 -26 30 -23 34 15 15 37 3 84 -44z m1262 13 c3 -16 9 -36 13 -47 7 -17 6 -17 -27 0 -19 9 -45 20 -59 24 -24 7 -24 7 15 28 51 27 51 27 58 -5z m-2333 -34 c16 -49 73 -99 112 -99 24 0 28 4 28 28 0 15 -7 40 -15 56 -9 16 -14 30 -12 32 7 7 82 -43 99 -67 19 -25 19 -28 3 -74 -10 -32 -14 -62 -9 -91 6 -39 3 -48 -24 -78 -16 -18 -32 -50 -36 -70 -4 -20 -12 -36 -19 -36 -7 0 -22 -3 -34 -6 -21 -6 -21 -5 -7 42 17 57 18 94 2 94 -18 0 -86 -79 -109 -127 -19 -40 -22 -42 -34 -26 -11 15 -19 16 -54 7 -43 -12 -49 -7 -31 27 6 11 21 19 36 19 28 0 124 83 124 108 0 19 -74 11 -99 -12 -24 -22 -28 -20 -23 12 2 17 14 34 32 44 56 32 96 158 51 158 -11 0 -33 -11 -49 -25 -17 -14 -33 -25 -36 -25 -14 0 -4 50 12 59 15 9 12 12 -17 22 -32 11 -33 13 -15 27 26 19 75 41 95 42 10 0 21 -15 29 -41z m1664 1 c9 0 21 -11 26 -25 7 -20 3 -35 -25 -81 -19 -32 -35 -70 -35 -85 0 -23 -6 -28 -42 -37 -82 -21 -111 -25 -104 -13 4 6 12 11 18 11 19 0 78 50 93 80 20 38 20 80 0 80 -28 0 -92 -70 -116 -125 -27 -61 -28 -62 -101 -71 l-53 -7 30 31 c39 40 81 91 104 126 10 15 37 39 59 52 21 13 52 40 67 59 25 33 28 35 44 21 10 -9 25 -16 35 -16z m-1880 1 c5 -7 -35 -38 -74 -59 -4 -1 -6 13 -6 33 0 34 1 35 37 35 21 0 40 -4 43 -9z m1447 -60 c11 -36 10 -38 -30 -78 -23 -22 -44 -55 -47 -72 -4 -17 -10 -31 -15 -31 -13 0 -89 34 -89 40 0 3 27 33 59 68 33 34 65 78 72 97 15 41 33 33 50 -24z m1440 -28 c16 -3 32 -9 34 -13 7 -12 -58 -39 -109 -46 -73 -10 -76 -6 -52 69 l20 65 39 -34 c21 -19 51 -37 68 -41z m-394 9 c43 -3 68 -1 78 8 13 11 19 10 38 -7 12 -11 29 -23 37 -26 8 -3 -3 -6 -25 -6 -40 -1 -115 -36 -122 -56 -2 -6 31 -27 72 -45 l76 -35 -38 -17 c-52 -24 -57 -23 -71 15 -18 50 -85 110 -121 109 -17 0 -36 7 -47 19 -9 10 -24 19 -33 19 -9 1 -27 7 -40 14 l-23 13 38 20 39 20 40 -20 c22 -11 68 -22 102 -25z m-1423 -17 c19 -30 49 -66 66 -81 16 -15 30 -30 30 -34 0 -11 -72 -47 -117 -59 -23 -6 -49 -18 -57 -26 -28 -28 -26 -15 3 26 20 27 32 58 36 94 8 64 2 79 -26 65 -10 -6 -19 -7 -19 -3 0 10 38 73 45 73 2 0 20 -25 39 -55z m3871 -26 l40 -41 -35 8 c-42 8 -115 8 -129 -1 -23 -13 -9 -36 34 -57 25 -12 45 -24 45 -27 -1 -4 -37 -23 -81 -43 l-80 -38 -24 28 -24 27 30 14 c24 12 29 21 29 52 0 20 3 51 6 68 5 25 10 30 28 25 12 -3 39 1 61 9 56 20 56 21 100 -24z m332 -116 c18 -9 33 -21 33 -25 0 -9 -11 -5 -74 27 -27 14 -62 25 -77 25 -39 0 -43 13 -19 59 11 22 20 48 20 58 0 10 19 -14 42 -54 28 -48 52 -78 75 -90z m-5201 77 l7 -55 -39 42 c-41 43 -88 63 -106 45 -7 -7 -6 -17 2 -32 15 -28 13 -29 -33 -21 l-38 6 38 37 c33 32 45 37 93 40 30 2 58 1 62 -2 4 -3 10 -30 14 -60z m-811 -18 c-18 -20 -55 2 -55 32 0 35 10 37 40 8 23 -22 26 -29 15 -40z m3022 18 c14 0 23 -16 37 -65 10 -35 25 -70 32 -76 28 -23 16 -27 -55 -20 -7 0 -11 7 -8 15 9 23 -12 83 -40 116 -20 24 -32 30 -49 26 -24 -6 -54 1 -54 14 0 4 10 12 23 17 17 8 31 6 59 -8 21 -11 45 -19 55 -19z m3134 30 l30 0 -27 -45 c-20 -35 -25 -55 -22 -90 2 -25 0 -45 -3 -45 -6 0 -39 84 -41 105 -1 6 0 27 0 49 2 30 5 37 18 32 9 -3 29 -6 45 -6z m-3451 -34 c0 -8 -10 -16 -22 -20 -36 -9 -38 -7 -15 18 22 25 37 25 37 2z m790 0 l45 -13 -43 -22 -43 -22 -28 24 c-25 21 -27 25 -12 35 21 14 28 14 81 -2z m-335 -37 c10 -23 35 -53 54 -67 34 -27 34 -27 10 -33 -41 -12 -47 -10 -53 15 -3 14 -22 45 -41 70 -19 26 -35 48 -35 51 0 3 10 5 23 5 16 0 27 -11 42 -41z m-2995 -2 c41 -14 80 -68 80 -109 0 -36 -24 -84 -49 -98 -32 -16 -99 -12 -143 11 -68 35 -122 111 -62 89 50 -20 57 -5 25 59 l-18 39 31 10 c42 14 94 13 136 -1z m2764 -31 c4 -1 14 -19 21 -39 12 -36 12 -37 -9 -31 -28 9 -88 47 -104 66 -11 14 -7 15 35 11 27 -3 52 -6 57 -7z m-2157 -36 c23 0 36 -30 25 -55 l-12 -25 -36 39 c-19 22 -45 43 -57 47 -20 6 -20 7 4 19 21 12 27 11 45 -6 11 -10 25 -19 31 -19z m1191 1 c3 -17 0 -21 -10 -17 -7 3 -21 9 -31 12 -17 6 -17 7 0 20 24 18 37 13 41 -15z m-1357 -1 c31 0 38 -5 49 -30 12 -30 65 -83 92 -92 10 -4 9 -13 -6 -42 -23 -43 -32 -45 -40 -10 -8 31 -54 94 -69 94 -15 0 0 -88 22 -130 22 -42 18 -56 -19 -75 -37 -19 -39 -19 -33 4 5 19 -11 87 -27 111 -25 39 -58 -75 -40 -139 9 -33 7 -38 -23 -69 l-32 -33 -7 46 c-11 78 -58 125 -58 59 0 -14 -6 -26 -12 -28 -7 -2 -28 -8 -46 -14 -34 -11 -34 -11 -27 16 8 32 33 62 52 62 27 0 92 40 113 70 29 40 18 54 -36 45 -36 -5 -43 -4 -38 8 3 8 26 21 51 28 48 13 117 65 107 80 -3 5 -21 9 -40 9 -32 0 -34 2 -23 21 8 15 17 19 32 15 12 -3 38 -6 58 -6z m5132 -29 c-16 -16 -35 -47 -41 -68 -11 -35 -15 -40 -37 -35 -30 5 -32 -7 -5 -41 25 -32 25 -37 -2 -37 -37 0 -127 -47 -156 -82 -43 -51 -54 -86 -49 -155 4 -56 3 -61 -12 -54 -45 24 -81 94 -81 156 0 81 62 183 151 249 46 34 195 95 232 96 l29 0 -29 -29z m160 7 c42 -15 46 -24 17 -33 -11 -4 -28 -18 -37 -32 l-16 -25 -19 49 c-28 73 -31 70 55 41z m135 -24 c31 -9 28 -17 -18 -36 -42 -17 -43 -17 -34 20 7 23 15 26 52 16z m-6002 -109 c63 -32 110 -40 156 -27 50 14 54 -3 17 -72 l-30 -56 -32 42 c-18 23 -38 43 -44 46 -22 7 -15 -61 12 -114 14 -27 25 -50 25 -50 0 -1 -22 -4 -48 -8 -27 -3 -57 -13 -68 -21 -18 -15 -18 -16 10 -39 49 -41 114 -52 192 -33 4 1 9 -9 11 -23 2 -13 15 -49 28 -79 23 -48 26 -92 7 -91 -4 1 -16 15 -27 33 -20 31 -88 77 -99 66 -12 -11 23 -99 53 -138 24 -30 30 -46 25 -65 -7 -31 -20 -34 -29 -6 -7 22 -65 70 -83 70 -34 0 3 -112 50 -151 l31 -26 -15 -79 -15 -79 -17 40 c-24 54 -64 105 -82 105 -32 0 -7 -158 32 -201 17 -19 17 -21 -9 -47 -25 -24 -27 -25 -26 -7 7 68 -19 74 -56 12 -17 -31 -25 -59 -25 -93 0 -32 -7 -57 -19 -73 l-19 -24 -7 34 c-9 42 -36 99 -46 99 -5 0 -12 -8 -18 -17 -8 -15 -11 -12 -18 17 -9 34 -8 35 21 41 17 3 43 11 57 17 26 11 89 76 89 92 0 17 -83 10 -127 -10 -24 -10 -43 -15 -43 -10 0 5 21 29 46 52 25 23 52 54 60 69 17 33 18 69 3 69 -25 0 -86 -43 -109 -77 -23 -34 -24 -35 -40 -15 -16 19 -93 72 -106 72 -4 0 -4 -16 -1 -36 7 -41 61 -130 88 -145 12 -6 19 -21 19 -41 l0 -31 -23 20 c-29 27 -65 45 -76 39 -13 -8 4 -75 27 -105 10 -14 36 -35 58 -47 30 -16 38 -26 36 -44 -3 -32 -5 -33 -45 -22 -19 5 -49 9 -66 7 l-31 -3 1 402 c0 220 3 395 6 389 7 -18 19 -16 41 8 l19 20 6 -27 c3 -17 -4 -41 -19 -68 -32 -56 -31 -166 1 -166 15 0 42 38 51 74 9 37 19 32 33 -14 14 -46 69 -107 107 -116 14 -4 27 -4 30 -2 3 3 -5 31 -16 62 -15 40 -34 67 -65 93 -24 20 -46 44 -48 54 -5 17 -3 17 31 -2 35 -18 102 -26 115 -13 11 11 -37 66 -75 85 -21 10 -50 19 -66 19 -32 0 -42 17 -42 73 l0 27 55 -36 c32 -22 61 -34 70 -30 14 5 14 11 -6 46 -22 39 -83 90 -108 90 -7 0 -10 7 -7 18 3 9 8 34 12 54 6 38 24 43 24 8 0 -23 56 -90 76 -90 16 0 19 46 5 83 -5 14 -24 41 -41 61 -31 35 -32 37 -18 73 l15 36 12 -34 c17 -50 54 -99 74 -99 26 0 22 67 -8 124 -32 61 -32 68 3 23 15 -20 50 -48 78 -62z m1820 73 c-20 -28 -20 -51 0 -89 15 -30 15 -31 -8 -23 -41 14 -66 7 -96 -27 l-29 -33 -44 36 c-24 20 -60 46 -79 58 -19 12 -26 19 -15 15 54 -20 98 -27 130 -21 42 8 45 27 9 55 l-25 20 38 10 c46 12 80 18 111 20 22 1 22 0 8 -21z m3553 -25 c6 -4 -20 -33 -29 -33 -4 0 -11 11 -14 24 -3 13 -9 32 -13 43 -5 15 -1 13 23 -7 16 -14 31 -26 33 -27z m1125 -105 c-15 -12 -39 -41 -54 -65 l-28 -43 -26 34 c-29 39 -33 56 -11 56 24 0 90 65 116 115 l24 45 3 -60 c3 -56 1 -63 -24 -82z m-715 40 c1 -44 -1 -48 -23 -48 -15 0 -33 12 -50 35 l-27 34 41 21 c22 11 40 26 41 33 2 32 18 -34 18 -75z m-4273 46 c18 -14 18 -14 -6 -3 -31 14 -36 19 -24 19 6 0 19 -7 30 -16z m-1 -39 c39 -19 94 -56 123 -82 52 -45 112 -121 112 -141 0 -14 -104 -40 -186 -48 -94 -9 -152 11 -252 85 -80 59 -204 124 -275 146 l-42 13 29 7 c22 6 39 3 66 -13 20 -11 54 -21 75 -22 97 -5 107 4 48 45 -23 15 -31 25 -21 25 9 0 23 2 31 5 8 4 25 -10 43 -36 16 -23 47 -55 68 -71 39 -28 86 -38 86 -18 0 23 -41 89 -69 113 -26 22 -28 26 -13 31 37 10 110 -5 177 -39z m4684 -8 c-12 -4 -25 -5 -30 -2 -10 7 -69 -22 -69 -34 0 -13 76 -41 110 -41 16 0 40 4 54 10 22 8 29 5 56 -30 l32 -40 -59 0 c-69 0 -90 -10 -75 -36 8 -14 3 -26 -26 -61 -41 -48 -52 -53 -52 -21 0 30 -46 94 -85 118 -18 11 -35 20 -38 20 -13 0 -15 -46 -3 -80 7 -20 9 -45 6 -56 -7 -18 -7 -18 -18 3 -7 12 -12 47 -12 77 0 54 -24 136 -40 136 -21 0 -32 -31 -25 -72 7 -43 7 -43 -12 -23 -11 11 -25 40 -32 64 -12 42 -12 44 17 72 26 26 32 27 63 19 48 -14 87 -12 144 9 49 17 51 17 82 -3 30 -20 31 -21 12 -29z m-524 -93 c-25 -27 -35 -87 -17 -98 14 -9 70 53 77 85 5 20 13 29 26 29 16 0 18 -5 13 -27 -17 -78 -40 -136 -66 -167 -39 -47 -123 -86 -186 -86 -47 0 -51 2 -61 31 -26 76 -4 161 52 201 l30 22 -7 -27 c-7 -29 1 -77 14 -77 12 0 70 94 70 113 0 18 14 25 52 26 l27 1 -24 -26z m-5942 -31 c-3 -21 -21 -63 -39 -93 l-34 -54 0 86 c0 82 1 87 23 91 54 10 56 9 50 -30z m529 -5 c-9 -9 -12 -7 -12 12 0 19 3 21 12 12 9 -9 9 -15 0 -24z m6264 -155 c-9 -24 -32 -14 -49 22 -22 47 -22 47 16 101 l32 46 3 -78 c2 -42 1 -83 -2 -91z m-4714 101 c-22 -15 -42 -12 -42 7 0 5 15 9 32 9 32 0 32 0 10 -16z m-1458 -173 c-41 -53 -54 -61 -54 -36 0 9 -9 33 -20 55 -23 45 -19 65 18 78 15 5 38 19 52 30 l25 21 9 -49 c8 -47 7 -50 -30 -99z m6059 115 c4 -6 13 -31 21 -56 8 -25 17 -54 21 -65 4 -11 -2 -6 -13 11 -24 37 -70 60 -138 69 l-51 7 11 29 c10 29 11 29 76 23 36 -4 68 -12 73 -18z m-144 -85 l21 -29 -44 -26 c-55 -32 -56 -32 -56 -2 0 20 42 86 55 86 2 0 13 -13 24 -29z m-129 -39 l0 -25 -25 23 c-14 13 -25 32 -25 42 0 17 1 18 25 2 16 -10 25 -26 25 -42z m252 -33 c55 -13 55 -13 54 -49 l-1 -36 -34 18 c-41 21 -91 24 -91 6 1 -49 97 -168 135 -168 11 0 15 -11 15 -36 l0 -37 -27 28 c-24 24 -92 65 -108 65 -11 0 -4 -37 16 -80 20 -44 63 -89 86 -90 18 0 31 -29 25 -56 l-4 -24 -40 36 c-22 20 -52 40 -66 45 -18 6 -33 23 -43 48 -18 42 -76 81 -121 81 -22 1 -22 1 -3 12 89 50 123 108 63 108 -17 0 -39 -7 -49 -16 -10 -9 -23 -14 -30 -12 -15 5 2 22 73 74 29 21 51 47 59 69 7 20 18 34 25 31 6 -2 36 -10 66 -17z m-261 -52 c5 -8 5 -25 1 -37 -8 -21 -9 -21 -40 14 -43 49 -43 70 -1 52 18 -7 36 -20 40 -29z m-26 -107 c5 -8 -30 -90 -39 -90 -2 0 -3 22 -2 50 1 40 4 50 18 50 9 0 20 -4 23 -10z m-271 -52 c13 -13 27 -33 31 -44 11 -40 -44 -71 -73 -42 -13 13 -15 8 -6 -16 4 -10 18 -16 38 -16 30 0 31 -1 32 -48 0 -26 10 -65 22 -88 12 -23 18 -50 15 -63 -5 -21 -23 -30 -23 -11 0 13 -70 90 -81 90 -5 0 -9 -10 -9 -23 0 -12 -9 -28 -20 -35 -11 -7 -33 -30 -49 -53 -28 -37 -30 -39 -40 -21 -8 16 -6 31 10 67 22 49 36 143 26 169 -4 9 -13 13 -22 10 -18 -7 -54 -73 -56 -101 -1 -10 -5 -1 -10 20 -7 29 -4 49 12 92 23 62 66 103 126 122 51 16 49 16 77 -9z m371 -131 c19 -22 35 -44 35 -49 0 -16 -18 -7 -34 17 -22 33 -74 65 -106 65 -23 1 -24 1 -7 15 27 20 70 2 112 -48z m325 -190 l0 -172 -52 -20 c-29 -11 -56 -21 -60 -23 -4 -2 4 25 19 60 35 86 59 169 74 256 7 39 15 72 16 72 2 0 3 -78 3 -173z m-5913 127 c45 -18 103 -63 103 -80 0 -11 -12 -8 -47 11 -27 14 -62 25 -80 25 -24 0 -37 7 -52 29 -12 16 -21 32 -21 35 0 8 58 -4 97 -20z m5445 12 c18 -8 62 -18 96 -22 52 -5 62 -10 62 -26 0 -10 9 -36 20 -58 26 -50 25 -53 -6 -46 -31 8 -126 -18 -144 -39 -7 -8 -22 -15 -34 -15 -12 0 -48 -13 -81 -29 -33 -17 -61 -26 -63 -21 -2 5 2 26 7 48 11 39 12 39 70 46 62 7 151 54 151 80 0 25 -85 35 -134 16 -14 -5 -26 -7 -26 -4 0 7 42 84 46 84 1 0 17 -6 36 -14z m-5588 -6 c37 -14 31 -31 -22 -66 -47 -31 -83 -77 -70 -90 15 -14 65 10 105 51 42 45 51 45 67 1 9 -25 -10 -46 -41 -46 -44 0 -143 -67 -143 -97 0 -16 47 -17 87 -2 15 5 45 27 66 47 43 42 47 38 13 -13 -24 -35 -37 -87 -33 -135 3 -42 -39 -38 -111 10 -84 56 -180 170 -144 170 5 0 28 14 52 31 42 30 43 32 24 46 -12 9 -32 12 -51 9 -45 -7 -41 8 10 41 81 53 134 65 191 43z m5859 -84 c10 -24 33 -62 52 -84 34 -39 34 -41 21 -74 -13 -29 -15 -31 -22 -13 -4 11 -16 32 -26 47 -10 14 -18 38 -18 52 0 15 -9 44 -20 66 -22 43 -24 50 -12 50 4 0 15 -20 25 -44z m-5576 -98 c5 -42 -9 -98 -24 -98 -5 0 -18 16 -30 35 -13 19 -41 44 -62 57 -22 13 -42 31 -45 41 -4 16 -1 18 22 11 36 -11 92 -8 105 5 17 17 29 -2 34 -51z m-546 -30 c28 -34 23 -39 -21 -22 -24 10 -51 14 -66 10 -23 -6 -25 -5 -12 7 14 14 38 23 66 26 8 0 22 -9 33 -21z m5617 -34 c22 -30 32 -56 32 -79 l0 -35 -27 17 c-16 9 -45 30 -66 46 l-37 29 27 33 c16 19 30 34 33 34 3 0 20 -20 38 -45z m389 -1 l43 5 -30 -38 c-31 -40 -65 -109 -56 -117 2 -2 13 0 24 6 30 16 42 13 42 -9 0 -11 7 -38 16 -60 16 -40 16 -41 -12 -82 l-29 -41 -6 55 c-10 93 -37 107 -63 31 -19 -55 -20 -98 -5 -142 16 -46 0 -55 -39 -22 -32 28 -32 29 -17 64 17 42 20 153 4 163 -15 9 -57 -44 -65 -83 -7 -39 -20 -42 -35 -9 -9 20 -6 30 25 70 20 26 39 60 42 74 3 15 7 33 10 40 11 36 -94 -17 -117 -59 -14 -26 -25 -15 -33 34 -6 31 -4 37 11 37 47 1 153 71 153 101 0 4 21 0 48 -8 26 -8 66 -12 89 -10z m-5520 -53 c45 0 -45 -68 -103 -77 l-33 -6 11 34 c6 19 13 50 15 71 l5 36 46 -29 c25 -16 52 -29 59 -29z m5663 -5 c0 -26 -8 -60 -17 -78 l-17 -32 -9 45 c-7 36 -6 51 9 77 24 45 34 41 34 -12z m-2186 -36 c31 -34 56 -63 56 -66 0 -8 -80 6 -101 18 -26 14 -24 28 4 21 22 -6 22 -5 -4 29 -38 51 -42 59 -26 59 8 0 40 -27 71 -61z m2356 -64 l0 -55 -60 0 c-33 0 -76 -7 -95 -14 -40 -17 -41 -15 -18 25 10 17 26 29 38 29 27 1 97 33 114 53 7 10 15 17 17 17 2 0 4 -25 4 -55z m-6764 -54 c25 -16 51 -32 57 -34 7 -2 2 -17 -12 -40 l-22 -36 -43 44 c-23 25 -51 45 -60 45 -16 0 -17 -6 -11 -47 7 -50 27 -96 53 -125 13 -16 13 -25 -6 -85 -30 -95 -42 -156 -51 -248 -6 -55 -9 31 -10 273 l-1 353 30 -35 c17 -19 51 -48 76 -65z m4130 87 c24 -8 42 -9 68 -1 24 8 37 8 45 0 19 -19 12 -39 -30 -84 -43 -47 -78 -114 -79 -150 0 -31 -11 -28 -35 10 -25 39 -106 94 -162 109 -39 11 -41 13 -27 32 8 11 14 33 14 48 0 28 0 28 69 28 39 0 73 5 76 10 8 13 21 13 61 -2z m2634 -259 l0 -131 -31 -36 c-17 -20 -44 -62 -59 -93 -24 -51 -29 -56 -42 -43 -11 12 -14 32 -10 87 3 53 0 83 -12 111 -9 22 -15 40 -14 41 2 1 24 14 51 29 47 27 59 49 32 60 -41 15 -113 17 -152 3 -49 -17 -52 -13 -20 23 18 21 31 25 77 26 37 0 73 9 110 26 30 15 58 27 63 27 4 1 7 -58 7 -130z m-271 -80 l57 1 -10 -55 c-6 -30 -13 -55 -16 -55 -14 0 -110 93 -110 106 0 9 5 12 11 8 7 -4 37 -6 68 -5z m-1279 -8 c19 -13 17 -69 -4 -110 -20 -38 -36 -40 -36 -6 0 36 -41 73 -89 81 -77 12 -38 43 54 44 33 0 67 -4 75 -9z m1052 -40 l49 -6 -32 -42 -33 -42 -12 35 c-7 19 -20 45 -31 56 -10 12 -12 18 -4 14 7 -5 35 -11 63 -15z m160 -48 c24 -21 60 -51 79 -66 l34 -28 -35 6 c-19 3 -36 10 -38 15 -5 15 -68 12 -110 -6 -20 -8 -49 -27 -64 -41 -16 -15 -28 -22 -28 -17 0 21 98 173 112 174 4 0 26 -17 50 -37z m338 -250 l-1 -138 -34 90 c-29 75 -32 92 -21 105 8 8 21 30 30 48 9 17 19 32 21 32 3 0 5 -62 5 -137z m-267 72 c20 -8 56 -15 81 -15 40 0 47 -4 65 -34 12 -18 21 -35 21 -38 0 -2 -38 -4 -84 -3 -46 0 -87 -3 -90 -6 -12 -12 7 -40 36 -55 16 -9 60 -16 99 -17 l69 -2 10 -35 c12 -42 13 -63 3 -58 -80 41 -163 60 -163 37 1 -34 53 -98 108 -133 23 -14 42 -33 42 -41 0 -8 -2 -15 -4 -15 -3 0 -37 -7 -77 -15 -44 -9 -76 -12 -83 -6 -6 5 -42 26 -81 46 -38 21 -72 39 -74 41 -2 1 15 25 38 52 34 40 41 56 41 90 0 47 0 48 -40 27 -19 -10 -39 -36 -58 -77 l-30 -62 -31 49 c-36 58 -38 65 -11 65 25 0 106 72 127 113 34 67 -49 57 -123 -15 l-42 -40 -7 30 c-3 17 -3 47 1 67 6 33 9 36 34 30 31 -7 86 13 127 45 23 18 28 19 42 6 9 -9 33 -22 54 -31z m-3412 -59 c-22 -50 -37 -62 -27 -20 7 25 38 75 44 69 1 -1 -6 -23 -17 -49z m-3144 -238 l20 -58 -34 0 -33 0 1 128 1 127 13 -70 c7 -38 21 -96 32 -127z m3069 81 c27 -39 29 -49 30 -143 0 -56 -4 -118 -9 -140 -12 -43 -46 -71 -76 -61 -15 4 -25 -1 -38 -22 -35 -53 -18 -304 33 -480 9 -31 -20 -41 -48 -17 -12 11 -48 60 -80 109 -50 76 -58 95 -53 122 6 35 5 37 -70 86 -45 29 -100 101 -90 118 3 3 15 5 27 2 14 -2 34 6 53 21 30 25 30 25 13 56 -16 28 -16 33 -3 46 21 22 19 32 -14 48 -51 27 -62 56 -59 156 2 49 5 90 8 90 2 0 24 -7 48 -17 l44 -16 65 33 65 34 18 -24 18 -24 38 32 c22 17 42 31 45 32 4 0 19 -19 35 -41z m3754 -164 c0 -15 -6 -25 -15 -25 -12 0 -13 4 -3 25 6 14 13 25 15 25 1 0 3 -11 3 -25z m-5440 -55 l0 -70 -50 25 c-27 14 -50 28 -50 31 0 9 83 84 92 84 5 0 8 -32 8 -70z m3922 -50 c-2 -30 -12 -73 -23 -96 -10 -22 -19 -57 -19 -77 0 -20 -2 -37 -4 -37 -7 0 -428 -79 -453 -85 -19 -5 -24 1 -38 47 -17 60 -19 106 -5 143 16 43 43 28 55 -29 10 -50 35 -76 35 -37 0 22 15 53 39 84 25 31 33 18 12 -19 -12 -20 -20 -38 -18 -40 1 -2 43 18 92 43 85 44 200 129 254 187 l24 25 26 -27 c23 -24 26 -34 23 -82z m-5204 10 l19 -24 -40 -20 c-53 -27 -56 -40 -13 -60 38 -18 92 -21 130 -6 20 7 33 5 55 -8 l29 -18 -51 -12 c-70 -16 -77 -26 -36 -51 40 -25 111 -28 152 -6 23 12 33 12 50 3 21 -11 21 -12 -8 -20 -16 -4 -39 -15 -50 -24 -17 -13 -18 -16 -5 -24 22 -14 72 -11 94 5 24 18 46 19 46 3 0 -6 9 -31 20 -54 17 -34 19 -46 9 -70 l-11 -29 -19 37 c-28 55 -119 103 -119 63 0 -33 32 -91 66 -121 l35 -30 -18 -32 c-10 -18 -21 -32 -24 -32 -3 0 -14 17 -23 38 -22 46 -61 76 -101 76 -38 0 -116 -47 -138 -83 l-16 -26 -1 25 c0 14 10 44 21 65 50 94 59 116 59 144 0 43 -12 45 -48 8 -44 -45 -65 -101 -58 -151 6 -44 -6 -81 -17 -52 -6 15 -93 76 -108 76 -16 0 -15 -41 1 -68 26 -42 75 -75 121 -81 3 -1 11 -13 18 -27 11 -26 11 -26 -16 -18 -41 12 -136 11 -140 -2 -2 -6 15 -24 39 -39 32 -22 58 -29 110 -33 76 -5 93 -18 104 -78 10 -53 -27 -101 -39 -51 -4 12 -25 40 -47 62 -34 33 -42 37 -50 25 -24 -38 -2 -111 45 -148 25 -20 26 -21 10 -58 l-16 -38 -20 41 c-30 62 -113 119 -131 91 -26 -42 14 -128 77 -166 41 -25 44 -30 39 -57 -10 -46 -13 -47 -39 -16 -14 16 -41 36 -60 45 l-35 17 0 548 0 547 64 -31 c36 -17 73 -42 84 -55z m1772 -16 c0 -17 50 -43 70 -36 8 2 44 32 79 65 58 56 64 59 74 41 5 -10 11 -20 12 -22 1 -1 16 5 33 13 24 12 48 14 106 9 l75 -7 -39 -51 c-93 -123 -106 -186 -39 -186 55 0 87 -25 94 -72 7 -49 -3 -85 -34 -112 -33 -30 -27 -73 14 -112 24 -22 35 -42 35 -61 0 -15 11 -67 24 -116 24 -89 20 -122 -9 -67 -8 16 -22 30 -31 30 -20 0 -67 -25 -83 -44 -8 -9 -20 -16 -27 -16 -8 0 -59 44 -114 97 -72 70 -100 104 -100 121 0 16 -16 39 -44 66 -24 22 -76 89 -115 149 -66 99 -70 109 -58 130 11 17 12 40 6 102 -4 44 -8 103 -8 130 l0 50 39 -44 c22 -24 40 -50 40 -57z m2142 -4 c79 -31 251 -70 306 -70 48 0 50 -1 91 -57 49 -66 50 -90 12 -180 l-22 -51 -102 -21 c-171 -35 -163 -35 -183 -14 -11 11 -36 30 -57 42 -20 13 -41 31 -47 40 -12 23 11 68 51 99 38 31 40 82 4 117 -19 20 -34 25 -77 25 -72 0 -80 7 -66 53 13 43 20 44 90 17z m1564 -102 c-3 -13 -6 -26 -6 -30 0 -3 -14 -9 -31 -13 -35 -8 -49 4 -49 43 0 20 5 22 46 22 43 0 46 -2 40 -22z m212 11 c25 -1 -26 -15 -83 -22 l-50 -7 45 19 c25 11 51 18 58 15 8 -2 21 -4 30 -5z m-358 -71 c0 -5 -6 -8 -12 -8 -7 0 -30 -3 -50 -6 -34 -6 -38 -4 -38 14 0 11 12 30 27 42 l27 21 22 -28 c13 -15 23 -31 24 -35z m-1892 -50 c69 -120 145 -223 178 -245 13 -8 24 -18 24 -22 0 -4 -35 -13 -77 -20 -43 -7 -158 -28 -255 -47 l-176 -34 -36 21 c-20 12 -40 29 -45 38 -18 33 -23 109 -11 167 17 82 30 106 52 101 10 -3 35 -1 54 5 40 11 195 101 215 124 6 8 13 14 14 14 2 0 30 -46 63 -102z m380 89 c9 -10 5 -25 -13 -60 -33 -62 -33 -108 3 -147 22 -26 38 -33 91 -40 41 -6 71 -16 84 -28 19 -20 18 -20 -78 -37 l-97 -18 -43 43 c-68 67 -107 192 -69 222 9 7 30 27 48 44 34 35 58 41 74 21z m2572 -131 c0 -19 -5 -38 -10 -41 -6 -4 -45 -10 -86 -14 l-75 -7 3 30 c3 29 7 32 68 48 97 24 100 24 100 -16z m-4881 -9 c31 0 65 3 77 7 18 5 32 -11 107 -122 48 -71 87 -138 87 -150 0 -11 8 -27 18 -34 25 -18 136 -229 125 -238 -4 -4 -125 -28 -268 -55 -143 -26 -316 -58 -385 -71 -109 -20 -127 -21 -140 -9 -12 13 -12 17 4 28 13 10 29 57 52 148 18 74 42 152 53 174 11 22 23 56 26 75 3 19 33 86 66 148 60 112 61 113 91 107 17 -4 56 -7 87 -8z m976 -70 c14 -24 25 -58 25 -75 0 -36 22 -52 68 -52 25 0 37 -9 66 -48 19 -27 56 -68 81 -91 25 -23 45 -43 45 -45 0 -1 -33 -8 -72 -15 -40 -7 -81 -15 -90 -17 -14 -4 -18 1 -18 20 0 29 -34 70 -53 63 -7 -2 -12 -19 -12 -37 0 -60 -87 -99 -112 -49 -19 39 -19 198 1 234 9 17 16 48 16 70 0 48 9 85 21 85 4 0 20 -20 34 -43z m3463 -9 l-3 -43 -160 -32 c-223 -45 -283 -51 -291 -29 -14 38 10 60 87 80 87 23 302 64 342 65 27 1 28 -1 25 -41z m-5464 -93 c47 -22 56 -32 75 -77 12 -28 19 -53 17 -55 -8 -9 -76 32 -76 45 0 12 -13 14 -71 9 l-70 -6 27 47 c15 26 29 50 31 55 6 10 9 10 67 -18z m4892 -10 c3 -20 5 -38 3 -40 -9 -8 -402 -76 -415 -71 -8 3 -14 19 -14 36 0 38 8 42 180 74 239 45 237 45 246 1z m849 -17 c-4 -18 -9 -35 -11 -37 -2 -2 -74 -14 -161 -27 -87 -12 -187 -27 -223 -33 -36 -6 -68 -11 -72 -11 -5 0 -8 16 -8 35 0 19 3 35 8 35 4 0 68 12 142 26 214 40 222 42 278 43 l54 1 -7 -32z m-6027 -3 c0 -14 13 -48 30 -74 l30 -49 -27 -37 -26 -38 -5 47 c-10 78 -47 88 -76 21 -8 -19 -19 -35 -24 -35 -9 0 -50 57 -50 70 0 3 15 14 34 24 19 10 51 36 72 57 21 21 39 39 40 39 1 0 2 -11 2 -25z m4592 -98 c0 -18 -4 -37 -8 -43 -7 -12 -160 -40 -168 -32 -2 3 -6 18 -10 34 -8 44 13 63 86 78 79 16 100 8 100 -37z m-4324 -31 c9 -24 56 -50 99 -56 32 -4 41 -10 43 -27 4 -27 4 -27 -41 -8 -41 17 -127 20 -127 5 0 -29 100 -89 148 -90 19 0 22 -5 22 -35 0 -19 -2 -35 -4 -35 -3 0 -26 13 -53 29 -59 35 -103 47 -103 28 0 -24 78 -135 99 -142 25 -8 26 -18 4 -56 -22 -37 -29 -37 -37 4 -8 44 -73 109 -86 87 -25 -39 -2 -123 42 -154 12 -9 19 -18 16 -21 -4 -5 -360 -75 -379 -75 -3 0 17 23 43 51 27 27 47 56 45 62 -6 19 -77 8 -126 -19 -24 -13 -45 -24 -46 -24 -2 0 2 18 7 40 10 38 13 41 77 60 67 20 141 70 141 96 0 19 -82 19 -120 -1 -38 -20 -37 -14 2 41 31 43 33 44 87 44 61 0 125 24 154 58 31 35 13 45 -69 39 l-74 -5 32 44 c23 32 38 44 57 44 14 0 46 7 71 14 58 19 69 19 76 2z m5984 -19 c0 -33 0 -34 -67 -46 -108 -20 -246 -41 -275 -41 -25 0 -28 3 -28 35 0 19 2 35 5 35 13 0 292 41 300 45 6 2 22 4 38 4 24 1 27 -2 27 -32z m-2115 -28 c8 -34 -4 -49 -41 -49 -11 0 -88 -13 -169 -30 -181 -37 -201 -37 -209 -7 -3 12 -6 27 -6 33 0 21 270 82 367 83 50 1 52 0 58 -30z m821 -54 c-2 -7 -36 -18 -78 -24 -61 -10 -199 -35 -320 -57 -26 -5 -27 -4 -25 32 2 36 3 37 57 51 30 8 125 25 210 37 l155 23 3 -24 c2 -14 1 -31 -2 -38z m604 -44 l0 -49 -42 -10 c-24 -6 -67 -14 -95 -18 l-53 -7 0 44 c0 24 4 49 8 54 10 15 79 32 135 34 l47 1 0 -49z m-2015 -16 c0 -49 0 -50 -40 -63 -21 -7 -62 -12 -90 -10 l-50 3 0 40 0 40 65 22 c36 13 76 22 90 20 23 -2 25 -6 25 -52z m891 13 c-3 -13 -6 -30 -6 -40 0 -11 -15 -19 -47 -27 -80 -18 -355 -62 -366 -58 -6 2 -12 17 -13 35 -3 38 -1 38 211 76 241 43 229 43 221 14z m1534 -83 c0 -31 -3 -35 -37 -44 -21 -5 -64 -13 -95 -16 l-58 -7 0 31 c0 39 18 48 115 60 39 5 71 9 73 10 1 0 2 -15 2 -34z m-2875 -13 c8 -45 -5 -58 -68 -66 -28 -4 -108 -17 -177 -31 -196 -37 -179 -37 -186 1 -3 19 -4 40 -1 47 4 12 154 45 342 76 77 12 83 11 90 -27z m1608 -49 c3 -16 4 -31 2 -34 -2 -3 -37 -11 -77 -18 -40 -6 -125 -21 -190 -33 -64 -11 -123 -18 -132 -15 -19 7 -22 56 -3 61 26 8 245 49 297 56 97 13 97 12 103 -17z m785 -49 c3 -32 3 -32 -60 -43 -35 -5 -115 -15 -178 -21 -63 -6 -122 -12 -130 -13 -17 -2 -27 50 -13 64 10 10 305 48 358 45 15 -1 21 -9 23 -32z m-2107 3 c3 -4 4 -21 1 -37 -5 -35 -20 -40 -177 -65 -55 -9 -116 -20 -135 -25 -19 -4 -56 -11 -82 -15 l-48 -6 0 39 0 40 98 22 c119 28 290 58 317 56 11 0 23 -4 26 -9z m-1000 -23 c5 -15 7 -34 4 -44 -7 -21 -47 -40 -85 -40 -24 0 -30 5 -35 31 -9 38 2 50 58 66 23 6 43 11 45 12 1 1 7 -11 13 -25z m1817 -33 c4 -40 -5 -47 -73 -56 -27 -4 -103 -18 -169 -31 -160 -32 -164 -32 -172 12 -3 19 -3 39 2 44 12 12 340 70 379 67 26 -2 30 -6 33 -36z m-2156 -13 c3 -7 4 -26 4 -42 -1 -24 -6 -31 -31 -37 -16 -3 -70 -16 -120 -27 -109 -26 -275 -56 -279 -51 -9 11 -14 76 -7 87 5 9 82 27 202 47 226 39 226 39 231 23z m788 -62 c0 -50 5 -47 -125 -66 -115 -16 -115 -16 -115 30 0 22 1 40 3 41 6 2 214 37 225 38 8 1 12 -14 12 -43z m3470 15 c0 -17 -4 -32 -8 -35 -5 -3 -46 -8 -91 -12 l-82 -7 3 34 c4 39 21 46 116 48 l62 1 0 -29z m-6565 -122 c-11 -3 -35 -9 -52 -12 l-33 -6 0 65 0 65 53 -53 c46 -47 50 -54 32 -59z m1775 41 c0 -38 -2 -40 -42 -50 -24 -6 -59 -15 -78 -21 -19 -5 -52 -9 -72 -9 -36 0 -38 1 -38 34 0 18 6 38 13 44 13 11 142 39 190 41 25 1 27 -2 27 -39z m672 -52 c3 -24 4 -44 3 -45 -2 -3 -263 -53 -276 -53 -5 0 -9 20 -9 44 l0 43 83 21 c107 28 115 29 158 31 36 1 37 0 41 -41z m968 -7 l0 -49 -92 -16 c-51 -9 -144 -26 -206 -38 -62 -11 -115 -18 -119 -14 -3 3 -7 25 -7 48 l-1 43 90 18 c49 10 141 26 205 36 63 10 118 19 123 20 4 0 7 -21 7 -48z m-2170 -31 c0 -37 -2 -40 -37 -49 -21 -6 -76 -17 -123 -25 -47 -8 -109 -20 -139 -26 -88 -17 -91 -16 -91 30 0 47 -4 44 115 66 50 8 122 22 160 29 114 22 115 21 115 -25z m4690 -69 c0 -18 -2 -19 -30 -5 -16 9 -30 17 -30 20 0 2 14 4 30 4 23 0 30 -5 30 -19z m-285 -8 c-18 -45 -26 -92 -18 -107 8 -14 14 -12 50 14 25 18 47 46 57 70 13 32 21 40 41 40 l26 0 -21 -28 c-22 -30 -43 -100 -34 -114 11 -17 37 -6 69 30 38 40 43 34 20 -21 -20 -49 -19 -96 1 -104 16 -6 38 13 47 40 4 14 47 -29 47 -47 0 -19 -17 -30 -22 -14 -7 19 -59 -1 -96 -38 -30 -30 -59 -46 -50 -26 2 4 10 19 18 35 21 42 2 55 -50 34 -43 -17 -49 -13 -24 14 9 10 14 25 11 34 -8 19 -39 19 -92 0 -51 -19 -80 -19 -39 -1 47 21 50 34 13 67 -31 28 -32 31 -21 62 7 19 12 42 12 53 0 15 8 20 31 22 27 2 30 0 24 -15z m-5037 -50 l-3 -47 -120 -22 c-66 -12 -123 -20 -127 -18 -5 3 -8 25 -8 49 l0 44 73 15 c90 19 113 23 155 25 l33 1 -3 -47z m4732 44 c0 -1 -9 -20 -20 -42 -11 -22 -20 -45 -20 -52 0 -7 9 -13 20 -13 23 0 23 2 9 -39 -9 -27 -16 -31 -45 -31 -40 0 -41 2 -13 39 22 30 19 51 -8 51 -8 0 -42 -14 -74 -32 -53 -29 -60 -31 -83 -18 -16 8 -26 22 -26 36 0 22 1 22 30 8 34 -17 71 -15 78 4 2 7 -12 28 -31 47 l-34 34 46 4 c64 5 171 8 171 4z m-3820 -57 c0 -27 -5 -42 -18 -49 -17 -9 -219 -45 -324 -57 l-58 -6 0 45 0 45 48 10 c26 6 79 15 117 21 39 6 93 15 120 20 28 5 65 9 83 10 31 1 32 0 32 -39z m3410 37 c0 -2 -9 -12 -19 -21 -19 -17 -20 -17 -31 3 -10 19 -8 21 20 21 16 0 30 -2 30 -3z m-2359 -47 c8 0 29 9 47 20 44 27 47 25 23 -16 -27 -46 -27 -58 7 -84 l27 -21 -42 3 c-41 3 -43 2 -67 -42 l-26 -45 0 38 c0 20 -4 37 -9 37 -5 0 -59 -55 -121 -122 -63 -68 -167 -178 -232 -246 -65 -67 -118 -126 -118 -131 0 -10 48 -21 94 -21 27 -1 29 -2 12 -12 -11 -6 -39 -8 -67 -5 -49 6 -49 6 -49 -23 0 -16 -8 -34 -18 -42 -10 -7 -21 -21 -25 -30 -3 -9 -16 -22 -29 -29 -21 -11 -22 -11 -10 4 10 11 11 21 3 35 -10 19 -13 19 -52 6 -23 -8 -50 -12 -60 -9 -30 10 -54 -11 -100 -82 -69 -110 -154 -216 -244 -306 -47 -46 -85 -88 -85 -94 0 -6 -9 -22 -21 -37 -14 -18 -30 -26 -52 -26 -37 0 -96 -28 -111 -52 -8 -13 -5 -22 11 -40 82 -90 83 -186 1 -259 -20 -18 -30 -43 -42 -99 -18 -83 -65 -191 -100 -230 -33 -37 -90 -139 -110 -195 -9 -28 -25 -136 -36 -241 -24 -231 -62 -463 -87 -526 -28 -72 -76 -132 -135 -172 -30 -20 -58 -36 -61 -36 -4 0 -53 -22 -109 -48 -57 -27 -123 -54 -148 -61 -25 -7 -59 -17 -76 -22 -17 -5 -36 -9 -43 -9 -8 0 -44 -28 -81 -63 -108 -102 -284 -237 -309 -237 -12 0 -16 1052 -5 1172 6 57 10 69 28 74 35 11 230 130 421 259 225 150 259 167 364 181 19 2 43 11 52 20 45 41 62 133 36 199 -34 87 -87 146 -87 97 0 -28 -78 -184 -108 -215 -40 -43 -79 -60 -118 -52 -71 13 -123 89 -110 160 14 74 110 154 239 199 76 26 87 33 87 52 0 20 -40 18 -202 -8 -121 -19 -142 -20 -175 -8 -90 32 -147 95 -217 240 -38 80 -41 90 -41 173 0 86 1 90 29 114 26 22 36 25 85 20 66 -6 219 -65 278 -107 23 -17 48 -30 56 -30 8 0 21 18 30 40 9 25 22 40 32 40 9 0 31 7 49 15 31 15 32 18 32 73 -1 31 2 73 6 92 8 35 7 36 -83 110 -50 41 -100 83 -112 93 -22 18 -22 18 15 12 21 -3 54 -3 74 1 52 10 61 37 40 115 -10 33 -15 63 -13 65 3 3 29 -6 58 -20 109 -53 149 -26 139 94 -2 23 1 22 43 -18 38 -38 48 -42 65 -33 11 6 25 25 32 43 12 31 14 26 39 -110 25 -140 27 -144 56 -157 17 -7 46 -26 65 -43 32 -27 35 -34 35 -87 1 -60 5 -65 69 -111 17 -11 17 -15 5 -30 -16 -19 -14 -111 3 -131 15 -19 -3 -36 -61 -57 -59 -21 -66 -29 -74 -78 -7 -49 6 -49 106 -3 56 25 80 42 91 64 20 38 31 44 56 31 11 -6 30 -8 41 -5 11 4 67 53 125 111 58 57 109 104 114 104 5 0 15 6 22 13 7 6 40 32 73 56 33 24 77 60 97 79 37 35 60 42 193 58 28 3 55 12 60 19 6 7 67 73 136 146 274 292 319 342 319 357 0 10 -7 13 -25 10 -33 -7 -32 -4 10 22 30 19 33 24 25 46 -16 41 -12 49 13 26 13 -12 30 -22 38 -22z m2131 -10 c-5 -54 12 -110 33 -110 13 0 55 75 55 98 0 6 11 0 25 -13 32 -33 94 -34 137 -4 l30 22 25 -32 c17 -21 26 -47 28 -77 3 -51 28 -96 49 -88 18 7 40 59 32 79 -3 10 1 15 12 15 11 0 25 -15 35 -37 9 -21 30 -46 46 -55 23 -12 29 -22 26 -39 -6 -31 -13 -34 -33 -16 -21 19 -49 21 -86 7 -32 -12 -33 -27 -4 -57 14 -15 33 -23 55 -23 22 0 33 -5 33 -14 0 -22 -14 -26 -51 -16 -44 13 -99 -4 -99 -30 0 -24 29 -40 69 -40 23 0 29 -4 24 -16 -4 -12 -14 -14 -42 -9 -60 10 -120 -23 -121 -66 0 -19 28 -29 82 -29 28 0 45 8 71 33 l34 32 13 -47 c6 -27 15 -48 18 -48 4 0 17 8 30 18 30 23 39 81 18 122 -11 24 -13 37 -5 51 13 26 32 13 25 -17 -5 -18 -2 -24 9 -24 20 0 57 19 67 34 5 8 12 6 24 -5 15 -16 15 -19 -6 -46 -12 -17 -24 -49 -27 -71 -5 -37 -3 -42 13 -42 31 0 63 28 72 63 l9 32 17 -34 c15 -28 15 -35 4 -42 -7 -5 -16 -9 -19 -9 -10 0 -49 -78 -49 -99 0 -35 43 -27 79 14 l31 36 0 -35 c0 -28 -5 -36 -27 -45 -49 -18 -83 -60 -83 -103 0 -11 41 -7 73 7 13 6 16 4 11 -9 -4 -10 -26 -26 -51 -38 -40 -19 -73 -59 -73 -88 0 -14 53 -13 68 2 9 9 12 6 12 -15 0 -19 -7 -31 -23 -38 -12 -6 -35 -30 -51 -55 -40 -63 -22 -96 32 -58 13 9 24 14 26 13 1 -2 8 -29 15 -60 8 -36 21 -65 37 -80 25 -24 26 -24 40 -5 8 11 14 30 14 41 0 29 -20 86 -36 106 -25 28 -16 42 12 20 29 -23 74 -28 74 -8 0 23 -40 78 -70 95 -16 9 -30 23 -30 30 0 9 11 4 31 -12 17 -14 40 -26 51 -26 19 0 20 4 14 43 -5 27 -18 53 -37 73 -19 20 -27 36 -23 47 5 14 10 12 34 -13 40 -43 60 -40 60 10 0 39 -29 112 -50 125 -5 3 -10 19 -10 35 l0 29 47 -20 c27 -11 58 -18 71 -16 21 4 22 2 16 -31 -4 -19 -17 -51 -30 -70 -16 -23 -24 -49 -24 -78 0 -50 13 -56 53 -24 l25 20 14 -23 c11 -15 14 -40 10 -83 -3 -45 0 -69 13 -94 l18 -34 24 28 c13 16 27 41 30 57 5 24 8 27 25 18 10 -6 23 -21 28 -33 5 -13 23 -40 41 -60 17 -20 29 -40 25 -43 -3 -4 -12 -1 -18 5 -7 7 -29 12 -50 12 -43 0 -47 -10 -24 -65 14 -34 14 -34 -19 -54 -61 -36 -84 -101 -36 -101 24 0 71 20 89 37 19 18 25 16 51 -11 l22 -24 -2 -848 c-2 -838 -2 -848 -23 -896 -18 -40 -27 -50 -58 -58 -43 -12 -43 -12 -22 -44 13 -21 13 -32 1 -92 -12 -63 -16 -68 -46 -79 l-32 -10 31 -30 c29 -28 38 -63 24 -99 -10 -27 -54 10 -54 46 0 25 -3 29 -17 23 -10 -4 -43 -10 -74 -12 -55 -5 -56 -5 -69 26 -7 17 -16 31 -20 31 -4 0 -15 -17 -24 -38 -13 -28 -27 -42 -52 -51 -35 -12 -74 -7 -74 10 0 5 -4 9 -10 9 -5 0 -10 -14 -10 -31 0 -21 -12 -45 -42 -80 -24 -27 -46 -49 -50 -49 -4 0 0 19 8 43 27 75 29 165 5 227 -12 30 -21 76 -21 103 0 40 -3 47 -20 47 -14 0 -20 7 -20 21 0 12 -8 28 -17 35 -16 11 -18 32 -16 220 l3 208 50 51 50 51 -19 57 c-20 57 -44 148 -81 310 -27 118 -57 370 -59 500 -1 52 -21 47 -21 -6 0 -81 -74 -467 -90 -467 -13 0 -48 99 -84 240 -24 99 -37 177 -45 295 -7 88 -15 170 -17 183 -9 43 -24 11 -24 -51 0 -57 -13 -157 -40 -317 -13 -76 -84 -319 -105 -360 -22 -43 -19 -56 20 -80 l35 -22 0 -132 c0 -130 0 -133 -24 -144 -18 -8 -22 -16 -19 -35 3 -17 -2 -32 -16 -46 -28 -28 -28 -93 -1 -131 19 -26 20 -42 18 -156 l-3 -127 -34 32 -34 32 7 480 c7 528 4 501 72 586 30 36 34 49 34 98 l0 57 -40 15 c-44 18 -47 27 -25 88 8 21 13 40 12 40 -1 1 -28 18 -59 39 -46 29 -58 43 -59 64 -1 15 -3 53 -5 85 -3 47 0 57 12 57 13 0 15 8 12 36 -4 30 -1 37 19 45 13 5 23 14 23 21 0 8 18 44 40 81 l39 68 -5 132 c-6 131 -6 132 19 155 l24 23 -24 59 c-26 65 -49 203 -59 350 -4 52 -10 101 -14 108 -3 7 -12 -58 -18 -145 -11 -156 -44 -308 -67 -308 -20 0 -63 184 -79 336 -14 138 -22 449 -12 449 2 0 11 3 20 6 11 4 16 1 16 -10 0 -24 29 -76 42 -76 19 0 37 33 38 68 0 28 3 32 29 32 28 0 28 -1 23 -50z m-2394 -12 c-3 -39 -5 -43 -38 -50 -19 -4 -67 -11 -106 -14 l-71 -6 -7 33 c-3 17 -4 34 -1 37 9 9 151 41 188 41 l38 1 -3 -42z m3108 -26 c-13 -14 -16 -13 -27 11 -10 21 -9 30 1 42 12 15 15 14 28 -10 12 -24 12 -29 -2 -43z m-950 -79 c-10 -214 -38 -380 -91 -539 -26 -76 -58 -161 -73 -188 l-26 -48 26 -19 c74 -54 68 -24 74 -335 l6 -280 -36 -28 -36 -27 0 27 c0 15 7 35 16 45 14 15 14 22 1 61 -34 101 -70 305 -72 413 -2 123 -5 138 -14 81 -8 -53 -45 -80 -108 -80 -27 0 -59 6 -72 13 l-23 13 23 12 c55 27 16 70 -43 47 -38 -14 -56 7 -26 31 23 18 23 19 4 33 -11 8 -29 15 -41 15 -12 0 -31 13 -43 29 -13 18 -34 31 -56 35 -26 5 -36 12 -36 25 0 16 6 18 43 14 60 -7 77 14 44 53 -21 24 -33 28 -73 29 -46 0 -63 8 -64 29 0 4 7 5 16 2 8 -3 29 1 45 10 26 13 29 17 17 31 -20 24 -75 44 -103 37 -26 -7 -59 11 -49 27 3 5 13 9 22 9 9 0 30 11 47 24 l29 23 -31 17 c-18 9 -41 16 -53 16 -12 0 -18 4 -15 10 3 5 25 7 49 4 35 -5 53 -2 85 17 23 12 41 26 41 30 0 4 -18 14 -40 23 l-41 16 23 30 c15 21 24 26 29 18 6 -9 13 -7 28 6 12 11 21 15 22 10 4 -52 33 -114 53 -114 7 0 19 18 26 39 15 46 31 45 49 -4 14 -39 69 -91 83 -77 5 5 10 23 11 40 2 30 4 32 42 32 51 0 104 34 105 66 0 25 -93 46 -137 30 -22 -7 -22 -6 -8 26 7 19 10 40 6 46 -11 19 -61 -2 -91 -39 -23 -28 -26 -29 -45 -14 -20 15 -20 16 -1 28 11 7 36 27 56 45 21 17 44 32 53 32 19 0 87 75 87 98 0 25 12 38 40 47 24 7 24 7 8 -11 -23 -27 -42 -114 -28 -128 8 -8 20 -2 42 23 l30 34 22 -26 c25 -30 56 -47 85 -47 30 0 27 41 -4 78 -24 28 -24 30 -5 35 11 3 29 21 41 41 13 23 29 36 42 36 20 0 20 -3 13 -137z m1062 125 c-7 -20 -58 -23 -58 -4 0 11 10 16 31 16 20 0 29 -4 27 -12z m402 -44 c0 -22 -2 -25 -15 -14 -8 7 -15 19 -15 26 0 8 7 14 15 14 10 0 15 -10 15 -26z m-1864 -36 c-3 -13 -6 -29 -6 -35 0 -7 -10 -13 -22 -13 -13 0 -43 -12 -67 -25 -29 -17 -47 -22 -51 -15 -10 16 63 85 102 97 48 16 51 15 44 -9z m-2244 -38 c3 -17 -1 -35 -7 -40 -11 -9 -207 -43 -320 -55 -33 -4 -68 -9 -77 -11 -15 -4 -18 1 -18 30 0 30 4 36 33 45 46 14 297 56 363 60 17 1 23 -6 26 -29z m3675 -1 c6 -6 9 -28 6 -49 -14 -99 58 -166 73 -70 6 34 8 37 24 28 10 -7 21 -28 24 -48 7 -43 45 -104 68 -108 21 -4 32 45 19 81 -10 25 -9 25 26 20 36 -6 91 -47 75 -57 -15 -9 -1 -66 19 -80 17 -12 18 -15 5 -26 -13 -10 -22 -8 -51 10 -29 18 -44 21 -85 15 -30 -4 -50 -12 -50 -20 0 -21 38 -62 65 -69 24 -6 24 -8 10 -30 -9 -13 -30 -26 -47 -30 -18 -3 -40 -14 -50 -23 -17 -16 -19 -15 -33 4 -8 12 -32 27 -53 34 -33 11 -51 24 -52 39 0 3 18 4 41 2 58 -6 69 10 31 47 -26 26 -38 31 -80 31 -35 0 -54 5 -66 19 -17 19 -16 19 43 14 49 -5 61 -3 61 9 0 24 -44 58 -83 65 -29 4 -36 10 -41 36 -8 38 -5 41 28 26 36 -17 43 -5 22 37 -16 36 -16 37 4 58 11 12 20 28 20 34 0 15 13 15 27 1z m-188 -42 c-35 -25 -49 -25 -49 -2 0 12 18 18 69 24 8 0 -1 -10 -20 -22z m366 -27 c-3 -5 -11 -10 -16 -10 -6 0 -7 5 -4 10 3 6 11 10 16 10 6 0 7 -4 4 -10z m-1855 -19 c0 -12 -9 -21 -24 -25 -14 -3 -38 -17 -54 -30 -29 -25 -29 -25 -26 -3 1 12 3 33 3 46 1 19 4 21 15 12 11 -9 22 -8 48 3 18 8 34 15 36 15 1 1 2 -8 2 -18z m-150 -21 c0 -5 -2 -10 -4 -10 -3 0 -8 5 -11 10 -3 6 -1 10 4 10 6 0 11 -4 11 -10z m-191 -39 c-7 -20 -19 -31 -37 -34 -52 -10 -59 21 -9 46 49 24 58 22 46 -12z m1854 -39 c-15 -11 -19 -10 -24 5 -3 10 1 29 10 42 l15 24 8 -29 c6 -22 4 -32 -9 -42z m597 7 c0 -37 -4 -58 -10 -54 -5 3 -10 19 -10 34 0 16 -7 34 -16 42 -14 12 -14 14 2 26 30 22 34 16 34 -48z m-2350 12 c0 -10 9 -29 19 -42 19 -23 19 -24 -10 -41 -28 -17 -30 -17 -49 2 -11 11 -27 20 -35 20 -22 0 0 42 33 62 36 22 42 21 42 -1z m-264 -86 l-21 -31 -30 30 -30 31 25 11 c17 7 33 7 51 1 l26 -10 -21 -32z m395 -7 c-11 -4 -22 -11 -26 -17 -3 -6 -11 -11 -17 -11 -7 0 1 14 17 30 21 22 31 27 36 18 5 -8 1 -15 -10 -20z m-571 -28 c-25 -35 -30 -37 -30 -12 0 15 25 36 48 41 2 1 -6 -12 -18 -29z m250 -57 c-3 -32 -10 -49 -21 -51 -12 -2 -14 5 -11 35 4 37 17 63 31 63 4 0 4 -21 1 -47z m-103 7 c-6 -8 -13 -17 -14 -19 -4 -6 -33 20 -33 29 0 4 13 7 29 6 24 -1 27 -4 18 -16z m-267 0 c0 -5 -6 -10 -14 -10 -8 0 -28 -12 -45 -26 -55 -46 -31 -79 39 -51 l40 15 -15 -29 c-11 -21 -23 -29 -43 -29 -15 0 -40 -7 -56 -15 -26 -14 -31 -14 -55 2 -14 9 -39 19 -56 23 -29 6 -28 7 45 47 94 51 154 83 157 83 2 0 3 -4 3 -10z m163 -45 c-21 -26 -30 -31 -40 -23 -17 14 -17 28 0 28 8 0 20 11 27 25 10 19 16 22 26 14 11 -9 8 -18 -13 -44z m302 23 c-8 -38 -19 -53 -33 -44 -11 6 18 75 31 76 5 0 6 -15 2 -32z m2387 -3 c-2 -13 -1 -36 2 -51 6 -22 11 -25 31 -20 23 6 25 4 25 -33 0 -31 -5 -41 -20 -46 -23 -7 -64 -70 -55 -85 4 -6 18 -10 32 -8 23 3 25 0 29 -52 11 -145 11 -142 -19 -153 -15 -5 -40 -6 -55 -2 -27 7 -27 7 12 20 56 20 62 29 30 54 -29 23 -59 26 -100 11 -21 -8 -29 -8 -36 2 -15 25 -8 34 25 31 17 -2 38 0 45 5 31 21 -36 92 -87 92 -17 0 -21 6 -21 32 l0 31 23 -20 c12 -11 32 -26 45 -32 21 -11 22 -10 22 31 0 30 -8 55 -26 82 -17 25 -23 41 -16 48 7 7 12 3 17 -11 3 -12 18 -29 32 -38 24 -16 26 -16 39 2 17 23 18 44 4 81 -12 32 -7 54 13 54 10 0 13 -8 9 -25z m-2297 -57 c-15 -50 -17 -69 -11 -103 10 -51 35 -42 67 24 25 51 27 53 39 32 10 -19 8 -27 -14 -56 -32 -41 -37 -105 -8 -105 19 0 54 28 71 57 9 16 12 16 21 3 13 -21 12 -30 -3 -30 -25 0 -56 -44 -59 -84 -4 -54 15 -57 62 -7 22 23 42 36 45 30 10 -15 -2 -39 -19 -39 -21 0 -66 -58 -66 -86 0 -30 21 -31 66 -3 l34 21 0 -25 c0 -19 -6 -26 -30 -31 -29 -5 -80 -49 -80 -67 0 -12 63 -11 94 1 23 8 26 7 26 -10 0 -16 -7 -20 -35 -20 -41 0 -85 -36 -85 -70 0 -23 30 -27 75 -10 39 15 28 -9 -15 -33 -45 -25 -59 -45 -60 -85 0 -30 2 -33 23 -27 12 4 37 18 55 32 24 18 32 20 32 9 0 -8 -15 -24 -33 -35 -47 -29 -75 -99 -47 -116 11 -7 65 28 92 60 31 36 20 -4 -12 -44 -34 -42 -54 -97 -39 -107 11 -6 79 36 79 49 0 20 21 2 45 -40 l28 -48 -12 -140 c-11 -135 -34 -271 -67 -385 -32 -113 -77 -246 -90 -267 -13 -21 -11 -24 31 -53 46 -32 59 -57 53 -106 -2 -22 -11 -30 -44 -41 l-41 -14 5 -48 c4 -41 1 -51 -17 -63 -17 -12 -20 -23 -17 -58 2 -25 9 -46 15 -48 16 -5 49 -74 44 -89 -3 -7 -15 -13 -28 -13 -17 0 -25 -6 -27 -22 -2 -15 -11 -24 -27 -26 l-24 -4 7 111 c6 103 5 111 -13 121 -25 13 -77 13 -102 0 -14 -8 -19 -21 -19 -50 0 -21 5 -42 10 -45 6 -3 10 -35 10 -71 0 -36 -4 -64 -10 -64 -5 0 -10 5 -10 10 0 14 -43 13 -58 -2 -8 -8 -12 -54 -12 -140 l0 -127 30 -16 c17 -9 36 -28 43 -43 6 -15 20 -33 29 -40 16 -12 18 -31 18 -157 l0 -145 -47 -47 -48 -48 -3 35 c-3 28 2 40 27 62 17 15 31 32 31 38 0 6 -18 45 -39 88 -46 91 -80 199 -84 261 -3 62 -24 64 -32 4 -8 -55 -64 -212 -106 -295 l-28 -56 44 -37 45 -36 0 -120 c0 -78 -4 -119 -11 -119 -6 0 -9 14 -7 33 3 29 1 32 -24 29 -17 -2 -47 10 -82 33 -47 30 -56 40 -56 65 0 35 -1 35 -40 15 -40 -21 -164 1 -186 34 -19 26 -31 27 -39 1 -9 -29 -171 -103 -195 -90 -29 16 -37 12 -44 -20 -3 -17 -17 -43 -31 -58 -15 -15 -38 -49 -51 -75 -14 -26 -30 -50 -37 -52 -7 -3 -25 -9 -41 -15 l-29 -11 30 -32 c26 -27 32 -42 37 -102 6 -67 5 -72 -19 -95 -33 -31 -32 -38 12 -42 44 -4 89 -52 63 -68 -8 -5 -29 -10 -47 -10 -42 0 -163 -100 -121 -100 7 0 20 -15 28 -32 17 -36 61 -54 92 -37 19 10 25 49 8 49 -5 0 -10 -4 -10 -10 0 -13 -27 -13 -35 1 -11 17 4 57 24 64 50 16 110 -39 96 -88 -19 -62 -99 -104 -135 -72 -16 14 -23 15 -34 5 -24 -19 -116 15 -116 43 0 37 -15 50 -45 43 -36 -9 -112 35 -121 69 -8 31 -21 31 -50 4 -22 -20 -26 -21 -88 -8 -56 11 -67 16 -77 41 -14 34 -19 35 -49 4 -12 -14 -37 -28 -54 -31 -17 -4 -39 -9 -48 -11 -14 -4 -15 -2 -5 21 7 14 22 28 35 31 24 7 29 23 10 42 -8 8 -8 15 -1 24 6 7 14 36 18 63 4 28 15 58 24 68 14 17 14 20 -2 32 -30 22 -12 105 23 105 13 0 16 6 13 23 -8 43 80 64 117 27 22 -22 27 -79 8 -98 -19 -19 -48 -15 -48 8 0 12 7 20 16 20 26 0 10 25 -19 28 -21 3 -31 -4 -52 -38 l-26 -41 23 -20 c13 -11 35 -25 51 -30 15 -6 27 -15 27 -20 0 -17 25 -9 38 11 7 11 18 20 26 20 8 0 24 20 36 44 12 25 27 47 33 49 8 3 7 10 -5 23 -9 10 -19 31 -23 45 -4 15 -20 39 -36 55 -16 15 -29 34 -29 42 0 10 -5 12 -17 6 -29 -13 -126 -4 -145 13 -18 16 -38 10 -38 -11 0 -7 -18 -27 -40 -45 -31 -25 -45 -30 -66 -25 -26 7 -27 6 -20 -28 13 -69 -2 -72 -51 -14 -24 30 -55 62 -69 70 -17 12 -24 26 -24 47 0 26 -3 30 -17 23 -10 -5 -40 -7 -68 -5 -27 2 -70 4 -95 5 -30 1 -49 7 -58 19 -18 23 -26 22 -41 -7 -7 -13 -32 -31 -54 -40 -36 -14 -43 -14 -64 -1 -29 20 -30 20 -38 -12 -7 -30 -42 -73 -58 -73 -16 0 0 952 18 1092 16 127 70 357 116 493 46 137 176 417 207 448 60 59 92 85 96 78 3 -4 1 -13 -5 -21 -15 -25 -10 -81 11 -111 26 -36 44 -29 66 24 10 25 18 36 21 27 20 -68 81 -149 102 -135 6 3 11 22 11 41 0 29 3 34 24 34 13 0 26 -7 30 -15 9 -24 74 -51 88 -37 9 9 7 19 -11 43 -26 34 -23 46 7 30 27 -15 82 -14 82 1 0 6 -7 19 -15 28 -13 15 -11 18 20 33 l35 17 0 -28 c0 -15 5 -34 10 -42 8 -13 15 -10 41 17 27 26 33 41 37 87 2 31 11 61 18 67 11 9 14 8 14 -5 0 -30 30 -76 49 -76 29 0 45 51 37 123 l-6 62 26 -32 c14 -18 29 -33 33 -33 4 0 21 20 39 45 18 25 40 45 50 45 10 0 28 9 40 20 25 24 32 25 32 6 0 -8 -18 -27 -40 -43 -38 -27 -56 -55 -62 -98 -2 -16 2 -19 22 -17 13 1 35 12 47 24 l23 21 0 -30 c0 -22 -6 -33 -25 -41 -44 -20 -86 -112 -51 -112 7 0 30 11 50 25 31 21 36 22 36 7 0 -23 -10 -35 -41 -49 -32 -14 -83 -78 -74 -93 8 -13 53 -3 88 21 l27 20 0 -25 c0 -31 -20 -51 -63 -65 -19 -6 -44 -25 -56 -41 -35 -49 -12 -62 62 -36 l38 14 -19 -32 c-15 -26 -23 -30 -49 -28 -33 4 -103 -33 -103 -54 0 -15 23 -24 60 -24 l28 0 -33 -33 c-35 -35 -51 -76 -41 -102 7 -20 17 -19 57 8 45 30 75 76 83 129 8 47 8 46 50 -16 8 -13 19 -17 29 -13 25 10 23 104 -3 137 -31 40 -24 52 16 25 20 -14 42 -25 49 -25 42 0 16 98 -32 120 -23 11 -33 22 -33 39 0 23 1 23 19 7 11 -10 35 -19 53 -19 31 -2 33 0 30 28 -5 38 -26 61 -68 77 -26 9 -34 18 -34 36 l0 24 34 -21 c18 -12 43 -21 55 -21 16 0 21 -6 21 -25 0 -33 56 -95 85 -95 20 0 24 5 23 33 0 17 -5 40 -10 50 -7 14 -4 17 19 17 36 0 97 32 101 54 5 25 -41 41 -83 29 -34 -11 -35 -10 -35 16 0 15 -3 30 -6 34 -12 12 -61 -15 -78 -43 -23 -40 -48 -40 -40 -1 7 34 -15 51 -65 51 -22 0 -31 5 -31 16 0 11 5 14 16 10 9 -3 27 -9 40 -12 53 -13 36 64 -21 97 -25 15 -35 28 -35 46 0 21 3 24 23 19 63 -18 77 -19 77 -3 0 31 -24 68 -57 88 -38 24 -41 44 -12 76 12 12 28 44 35 70 7 26 13 41 13 33 1 -9 8 -26 17 -38 15 -22 17 -22 34 -7 10 9 24 30 30 46 7 16 16 26 21 23 17 -10 9 -53 -16 -91 -19 -28 -25 -47 -23 -78 4 -52 32 -55 66 -5 l24 35 -7 -40 c-11 -54 -9 -73 10 -101 28 -43 74 -20 75 39 0 34 17 36 26 2 14 -54 117 -111 139 -75 10 16 -21 75 -51 94 l-28 19 23 9 c55 20 -10 61 -85 52 -37 -4 -53 -2 -62 9 -10 12 -6 14 26 14 44 0 82 18 82 38 0 24 -42 45 -92 45 -45 0 -48 2 -48 25 0 22 3 24 19 15 26 -13 78 -13 87 1 12 20 -18 58 -57 73 -22 9 -39 22 -39 30 0 13 4 13 28 0 35 -18 61 -18 68 1 9 23 -14 71 -42 85 -23 13 -34 50 -14 50 6 0 10 -4 10 -10 0 -16 22 -12 36 8 7 9 14 31 14 49 0 43 16 50 17 8 2 -58 19 -69 54 -34 17 17 20 31 17 71 -4 63 14 74 31 20 11 -34 11 -43 -2 -63 -9 -13 -19 -43 -23 -66 -6 -39 -4 -43 13 -43 12 0 26 7 33 15 19 23 37 18 44 -11 10 -37 54 -80 69 -65 18 18 14 106 -5 128 -24 26 -23 28 17 29 45 2 51 8 35 38 -13 25 -46 43 -90 48 -19 2 -25 9 -26 29 -1 14 -4 37 -7 51 -8 29 0 58 14 58 5 0 9 -6 9 -14 0 -7 6 -19 14 -25 12 -10 18 -6 31 20 10 18 28 44 41 58 13 14 27 34 30 44 7 23 21 22 29 -3 5 -15 0 -26 -19 -41 -31 -24 -60 -75 -51 -89 13 -22 50 -8 87 32 44 48 49 45 13 -8 -30 -45 -35 -114 -8 -114 9 0 30 12 45 27 l28 27 0 -25 c0 -13 -9 -30 -20 -37 -21 -13 -60 -82 -60 -107 0 -25 46 -18 69 11 l21 27 0 -24 c0 -15 -15 -36 -40 -59 -22 -19 -42 -47 -46 -62 -5 -25 -3 -28 18 -28 13 0 34 7 46 16 20 14 22 14 22 -1 0 -9 -14 -24 -32 -33 -81 -44 -109 -92 -53 -92 l23 0 -19 -40 c-20 -40 -26 -100 -10 -100 32 0 104 98 94 128 -7 19 7 14 26 -10 11 -13 24 -19 34 -15 25 9 23 87 -3 120 -23 28 -28 66 -7 50 6 -6 24 -13 40 -17 23 -6 27 -3 27 17 0 26 -24 64 -57 90 -13 10 -23 28 -23 39 0 19 1 19 25 4 35 -23 65 -21 65 4 0 38 -29 78 -65 91 -35 13 -51 45 -17 35 44 -13 72 -18 72 -12 0 15 -32 82 -47 98 -14 16 -14 18 1 24 20 8 21 30 0 38 -12 5 -14 13 -8 38 4 18 6 45 5 61 -1 21 3 27 19 27 14 0 20 -7 20 -22 0 -36 49 -98 77 -98 23 0 24 3 22 52 -3 51 14 78 27 44 9 -24 40 -2 55 39 14 38 36 49 24 13z m-312 -30 c-4 -21 -11 -28 -29 -28 l-23 0 21 36 c23 39 40 35 31 -8z m-183 -26 c0 -13 -12 -22 -22 -16 -10 6 -1 24 13 24 5 0 9 -4 9 -8z m190 -62 c0 -5 -10 -10 -22 -10 -19 0 -20 2 -8 10 19 13 30 13 30 0z m-600 -28 c-10 -12 -22 -37 -25 -53 -8 -38 2 -99 17 -99 5 0 26 17 44 37 22 24 34 31 34 21 0 -9 8 -26 19 -39 10 -12 16 -30 14 -40 -4 -15 -8 -15 -31 -3 -56 29 -85 7 -65 -47 15 -39 -1 -37 -18 2 -16 40 -57 89 -74 89 -16 0 -24 -28 -19 -71 l4 -34 -20 21 c-19 19 -20 23 -6 61 15 43 12 83 -7 83 -6 0 -19 -7 -29 -17 -17 -15 -18 -15 -18 10 0 35 104 102 160 102 l38 1 -18 -24z m278 18 c15 0 22 -5 19 -12 -2 -8 -16 -12 -34 -10 -17 2 -48 -4 -68 -13 -35 -14 -40 -14 -57 1 -10 10 -18 21 -18 25 0 10 56 18 100 13 19 -2 46 -4 58 -4z m-49 -106 c10 -3 11 -8 4 -15 -15 -15 -73 -1 -73 17 0 14 21 13 69 -2z m-470 -55 c-8 -5 -21 -9 -28 -9 -19 0 -71 -50 -71 -67 0 -13 17 -17 61 -14 23 2 25 -1 21 -32 -3 -27 -9 -35 -35 -43 -34 -10 -101 -89 -91 -106 8 -12 71 -2 100 17 21 14 22 13 26 -73 3 -48 4 -88 3 -90 -2 -2 -11 14 -21 34 -38 76 -77 68 -72 -14 3 -33 0 -42 -12 -40 -10 2 -17 19 -20 48 -11 91 -54 118 -77 50 -8 -27 -13 -31 -18 -18 -4 9 0 27 9 40 8 13 16 41 18 63 3 36 1 40 -18 38 -18 -2 -23 5 -27 34 -4 21 -3 40 1 43 5 3 42 30 83 61 140 105 163 119 173 102 5 -10 4 -18 -5 -24z m1442 -75 c11 -14 10 -15 -11 -12 -13 1 -25 9 -28 16 -5 17 23 15 39 -4z m79 -76 c0 -14 -18 -9 -24 8 -11 28 -6 39 9 20 8 -11 15 -23 15 -28z m690 -25 c0 -82 -16 -101 -25 -30 -8 59 -3 87 15 87 6 0 10 -25 10 -57z m-2106 -8 c-4 -26 -2 -36 8 -40 21 -8 70 13 90 38 18 22 18 22 12 -10 -5 -27 -3 -32 15 -35 20 -3 21 -5 8 -22 -13 -18 -18 -18 -46 -6 -25 10 -37 10 -58 1 -28 -13 -43 -3 -43 30 0 8 -6 24 -14 35 -13 17 -12 20 7 31 12 7 23 12 25 13 2 0 0 -16 -4 -35z m1330 6 c3 -5 22 -12 41 -15 20 -4 33 -11 31 -15 -8 -12 -96 12 -96 26 0 15 16 17 24 4z m644 -84 c3 -72 1 -77 -18 -77 -18 0 -20 6 -20 81 0 71 2 80 18 77 14 -3 17 -16 20 -81z m-465 6 c3 -15 13 -37 21 -48 16 -20 16 -20 31 -1 8 11 15 28 15 38 0 10 7 18 18 18 9 1 34 7 55 14 l38 14 -6 -47 c-11 -74 -64 -338 -75 -366 -15 -40 -12 -51 15 -63 23 -11 25 -17 25 -78 0 -45 -5 -73 -15 -84 -11 -12 -13 -36 -8 -120 l6 -105 41 -20 c60 -29 79 -74 84 -205 4 -104 4 -105 -23 -130 l-28 -25 6 102 c7 110 -1 131 -42 118 -26 -8 -37 -47 -23 -83 13 -34 23 -142 13 -142 -4 0 -18 12 -32 26 -13 14 -31 23 -40 21 -20 -5 -50 57 -92 188 -56 173 -67 238 -91 537 -12 143 -15 161 -39 196 -32 45 -34 56 -8 42 23 -12 81 -14 81 -2 0 4 -13 23 -28 41 -19 23 -39 35 -67 40 -53 8 -59 31 -6 24 22 -3 47 -3 56 1 14 5 14 8 0 29 -18 28 -59 49 -80 41 -10 -4 -15 0 -15 10 0 17 13 19 45 7 26 -10 103 16 118 39 15 25 43 10 50 -27z m-1943 -67 c0 -14 -101 -39 -124 -30 -22 8 -21 13 15 50 l31 32 39 -20 c22 -11 39 -25 39 -32z m375 45 c11 -5 20 -14 20 -22 0 -8 16 -18 38 -23 40 -10 45 -17 23 -35 -10 -9 -16 -8 -26 4 -7 9 -29 15 -51 15 -38 0 -39 1 -39 35 0 37 2 38 35 26z m-287 -140 c2 0 -8 -15 -22 -32 -31 -37 -35 -79 -7 -79 26 0 85 26 101 44 18 23 54 21 45 -1 -4 -10 -10 -29 -12 -43 -12 -69 -13 -70 -41 -68 -47 3 -88 -12 -117 -42 -15 -15 -24 -33 -21 -39 4 -6 32 -11 62 -11 l55 0 -17 -23 c-16 -20 -26 -23 -91 -22 -68 0 -74 2 -80 23 -6 25 -57 72 -79 72 -8 0 -14 9 -14 20 0 17 3 19 19 10 22 -11 61 -13 85 -4 25 10 19 43 -13 75 -23 23 -39 29 -70 29 -40 0 -41 1 -41 34 0 19 5 38 10 41 6 3 10 2 10 -3 0 -13 47 -32 82 -32 27 0 30 3 26 28 l-4 27 66 -1 c36 -1 67 -2 68 -3z m242 -76 c0 -16 -6 -25 -15 -25 -16 0 -19 9 -9 34 9 25 24 19 24 -9z m-550 -48 c0 -8 -16 -30 -35 -50 -20 -20 -38 -50 -41 -66 l-6 -30 -67 6 c-36 3 -67 7 -69 8 -1 1 18 25 43 52 37 42 53 52 89 57 24 4 52 13 62 21 24 18 24 18 24 2z m540 -75 c-8 -3 -33 -23 -55 -44 -36 -37 -40 -38 -52 -22 -7 10 -13 23 -13 30 0 20 29 37 53 31 12 -4 33 0 47 7 14 7 27 11 30 8 3 -3 -2 -7 -10 -10z m-478 -124 c10 -15 28 -28 38 -28 10 0 32 -11 48 -25 19 -16 42 -25 63 -25 l33 0 -22 -22 c-16 -17 -25 -20 -30 -11 -9 15 -71 40 -92 38 -8 -1 -25 -3 -37 -3 -30 -2 -29 -20 4 -54 22 -24 24 -28 9 -28 -27 0 -86 -64 -86 -93 0 -20 -8 -28 -40 -41 -53 -21 -58 -20 -32 4 25 23 29 55 8 63 -17 7 -73 -5 -105 -22 -12 -7 -30 -10 -39 -6 -13 5 -3 14 38 33 41 20 56 33 58 51 2 13 10 30 18 38 13 14 34 75 34 102 0 11 4 9 14 -4 22 -31 40 -9 82 100 7 17 8 16 12 -10 2 -16 13 -42 24 -57z m-257 -15 l40 -5 -3 -54 c-4 -50 -6 -54 -28 -54 -14 0 -41 -7 -61 -15 -27 -11 -39 -12 -49 -4 -21 17 -17 27 9 22 27 -5 87 31 87 52 0 18 -31 35 -64 35 -24 0 -25 2 -14 20 8 13 19 18 28 13 8 -3 33 -8 55 -10z m4550 -193 c5 -9 67 -7 163 5 23 3 32 0 32 -11 0 -7 9 -19 20 -26 11 -7 34 -32 52 -55 24 -33 36 -42 51 -37 17 5 19 3 12 -12 -10 -24 -9 -45 5 -114 7 -30 14 -65 16 -77 3 -13 11 -23 19 -23 21 0 19 -14 -5 -35 -11 -10 -20 -30 -20 -45 0 -15 -7 -47 -15 -70 -8 -23 -12 -46 -9 -52 3 -5 -3 -18 -15 -29 -12 -11 -21 -26 -21 -34 0 -7 -12 -27 -26 -44 -23 -28 -24 -36 -1 -32 4 1 27 2 50 2 23 1 52 8 65 15 12 8 22 10 22 4 0 -5 17 -17 37 -25 21 -9 45 -23 54 -31 14 -13 22 -13 40 -4 20 11 21 10 16 -16 -3 -19 1 -36 14 -52 10 -13 21 -40 25 -61 3 -20 13 -42 22 -49 15 -11 14 -14 -6 -28 -12 -8 -22 -26 -22 -39 0 -13 -13 -40 -30 -58 -16 -19 -30 -42 -30 -51 0 -11 -7 -16 -17 -14 -10 1 -22 0 -28 -3 -26 -16 -63 -17 -88 -4 -15 8 -34 12 -42 8 -8 -3 -16 -1 -16 3 -8 63 -9 85 -4 119 l6 41 51 2 c59 2 88 -16 88 -57 l0 -26 -13 25 c-18 36 -61 49 -87 25 -33 -30 -26 -71 17 -94 52 -27 129 4 149 60 19 53 17 96 -6 112 -13 9 -18 20 -14 31 4 11 -3 27 -22 47 -31 32 -52 37 -61 13 -5 -15 -7 -15 -15 0 -11 19 -64 21 -120 4 -31 -9 -40 -18 -45 -39 -5 -25 -9 -27 -35 -22 -26 5 -36 -1 -84 -53 -31 -33 -53 -65 -51 -74 13 -44 12 -45 -25 -48 -33 -3 -38 -7 -58 -53 -14 -34 -19 -60 -15 -80 6 -26 4 -29 -19 -29 -20 0 -34 -11 -59 -47 -17 -25 -42 -58 -54 -72 l-22 -26 -1 55 c0 78 24 216 50 280 15 38 19 65 15 88 -6 33 -5 34 20 30 37 -8 119 74 111 109 -6 20 -4 22 23 17 26 -6 33 -1 65 42 24 34 33 56 30 71 -5 18 -1 22 22 25 21 2 33 15 57 60 24 46 27 60 18 72 -10 12 -8 17 8 25 39 21 57 152 24 176 -15 11 -15 15 -4 29 12 14 10 25 -10 77 -22 56 -26 60 -52 56 -24 -3 -28 1 -35 27 -11 41 -45 58 -109 53 -57 -4 -93 -27 -93 -59 0 -12 -7 -18 -24 -18 -29 0 -44 -17 -52 -58 -21 -106 97 -181 173 -110 28 26 29 38 2 72 -17 21 -18 26 -5 26 9 0 23 -11 32 -25 15 -23 15 -30 2 -63 -7 -20 -24 -42 -38 -49 -13 -6 -27 -19 -32 -27 -6 -11 -14 -13 -26 -7 -9 5 -31 15 -49 21 -17 7 -34 18 -37 27 -4 9 -13 12 -25 8 -15 -4 -20 -1 -20 12 -2 70 -9 124 -21 137 -11 14 -9 16 8 16 12 0 22 9 26 23 3 13 26 42 51 66 25 23 45 46 45 52 0 12 17 12 25 -1z m-1698 -450 c6 -25 12 -93 12 -152 l1 -108 -59 0 -58 0 4 73 c8 139 21 211 40 225 29 21 47 10 60 -38z m512 -37 c0 -5 -13 -46 -29 -93 l-28 -85 -1 76 c-1 69 1 78 22 92 24 18 37 21 36 10z m-759 -225 c0 -122 -4 -178 -10 -168 -5 8 -10 58 -10 110 0 67 -5 101 -15 114 -22 29 -18 76 7 103 12 13 23 23 25 23 2 0 3 -82 3 -182z m-125 149 c24 -38 30 -86 11 -93 -13 -5 -16 -22 -16 -91 0 -82 -1 -84 -22 -81 -19 2 -23 10 -24 38 -1 19 -2 42 -3 51 0 9 -15 20 -33 25 -30 9 -33 13 -36 56 -3 45 -1 48 44 82 26 20 51 36 55 36 5 0 15 -10 24 -23z m740 -92 c0 -46 -4 -70 -12 -72 -10 -4 -13 15 -13 72 0 57 3 76 13 73 8 -3 12 -27 12 -73z m223 -347 c-2 -54 -7 -83 -15 -86 -10 -3 -13 18 -13 82 0 71 3 86 15 86 13 0 15 -14 13 -82z m1322 -325 c0 -17 8 -22 43 -28 23 -4 55 -13 71 -21 26 -13 32 -12 64 8 l35 22 -6 -36 c-5 -31 -1 -40 25 -64 16 -16 39 -46 51 -67 19 -35 23 -37 56 -31 l35 7 -21 -36 c-20 -33 -21 -40 -9 -107 6 -40 18 -75 26 -80 12 -8 11 -13 -8 -30 -12 -11 -22 -31 -22 -43 0 -13 -13 -44 -30 -70 -16 -26 -30 -56 -30 -67 0 -13 -6 -19 -17 -18 -33 4 -122 -45 -132 -72 l-9 -25 -10 27 c-9 20 -17 26 -37 24 -14 -2 -43 3 -63 10 -34 12 -38 11 -54 -9 l-18 -22 0 31 c0 18 -6 34 -13 37 -7 2 -21 22 -32 43 -11 22 -26 47 -34 57 -8 9 -10 17 -4 17 5 0 22 29 38 65 15 36 31 65 36 65 5 0 9 9 9 19 0 23 16 36 25 20 4 -6 18 -8 31 -5 32 8 95 -19 101 -44 3 -11 12 -20 20 -20 10 0 13 -6 9 -16 -3 -9 -6 -24 -6 -34 0 -27 -39 -60 -69 -60 l-26 0 25 13 c38 19 48 61 23 95 -46 62 -139 23 -149 -64 -10 -83 53 -145 149 -146 70 -1 97 14 97 53 0 26 3 29 24 23 48 -12 84 62 71 144 -12 66 -16 74 -36 69 -16 -4 -19 0 -19 32 0 35 -4 41 -49 68 -27 17 -65 36 -86 43 -33 11 -39 10 -61 -10 -21 -20 -24 -21 -30 -6 -9 24 -145 22 -199 -4 -65 -31 -78 -45 -71 -76 6 -24 5 -26 -19 -20 -14 4 -34 2 -45 -4 -19 -10 -20 -7 -20 52 1 73 27 145 83 227 20 29 37 60 37 69 0 12 5 11 23 -6 19 -18 28 -20 62 -12 22 5 54 7 70 4 25 -4 34 0 54 27 25 33 41 27 41 -18z m-2320 -287 c0 -68 -6 -96 -21 -96 -5 0 -9 36 -9 80 0 64 3 80 15 80 12 0 15 -14 15 -64z m118 -18 c-2 -46 -7 -73 -15 -76 -10 -3 -13 16 -13 72 0 62 3 76 15 76 13 0 15 -12 13 -72z m212 -113 c0 -60 -3 -75 -15 -75 -12 0 -15 15 -15 75 0 60 3 75 15 75 12 0 15 -15 15 -75z m120 -75 c0 -74 -2 -80 -21 -80 -19 0 -20 5 -18 73 3 81 4 87 25 87 11 0 14 -17 14 -80z m1065 40 c0 -29 4 -36 23 -38 32 -5 52 -51 52 -121 0 -57 -2 -61 -26 -67 -22 -6 -25 -10 -18 -33 11 -41 7 -60 -21 -97 -26 -34 -48 -43 -60 -24 -15 24 -25 6 -25 -42 0 -56 -24 -98 -79 -137 -28 -21 -29 -21 -53 -1 -31 24 -38 18 -38 -31 0 -34 -6 -43 -51 -79 -28 -22 -55 -40 -60 -40 -5 0 -9 100 -9 235 0 220 1 235 18 235 10 0 33 -11 52 -25 19 -14 39 -25 46 -25 7 0 22 -16 34 -35 24 -38 35 -43 44 -20 3 9 20 22 38 30 18 7 45 24 60 38 14 13 38 27 52 31 22 5 25 9 16 26 -5 10 -10 39 -10 64 0 63 -33 101 -88 101 -66 0 -108 -61 -67 -95 21 -17 51 -5 36 14 -9 11 -9 16 0 22 14 8 49 -30 49 -52 0 -21 -37 -54 -62 -55 -40 -2 -53 2 -78 27 -35 35 -33 100 5 150 24 32 32 36 61 31 30 -5 33 -3 39 24 7 29 8 30 63 27 l57 -3 0 -35z m-947 -124 c-2 -58 -6 -71 -20 -74 -16 -3 -18 5 -18 71 0 78 3 89 26 80 12 -4 14 -22 12 -77z m606 48 c12 -32 6 -121 -9 -134 -13 -11 -15 -2 -15 69 0 76 10 102 24 65z m-486 -119 c3 -63 -8 -98 -25 -82 -9 10 -17 123 -9 143 14 36 31 6 34 -61z m322 19 c11 -11 14 -44 15 -151 l0 -138 -55 0 -55 0 0 143 c0 131 2 145 19 158 21 15 52 10 76 -12z m-4985 -4 c3 -5 16 -10 29 -10 12 0 33 -11 46 -25 13 -14 29 -25 35 -25 8 0 9 -16 4 -52 -11 -85 -17 -95 -56 -103 -29 -5 -40 -2 -57 15 l-21 22 28 -17 c27 -17 29 -17 55 2 34 25 40 78 13 110 -63 74 -172 24 -185 -84 -7 -67 -2 -97 17 -101 13 -3 14 -7 5 -22 -17 -27 7 -75 49 -100 27 -16 38 -18 49 -9 11 9 14 8 14 -4 0 -26 41 -47 91 -47 57 0 79 7 79 26 0 8 5 14 10 14 6 0 10 -7 10 -16 0 -13 7 -15 36 -10 23 5 53 1 86 -10 40 -13 56 -14 70 -5 25 16 28 14 28 -13 0 -20 10 -29 53 -49 28 -13 68 -41 87 -61 27 -28 40 -35 59 -31 21 5 23 3 17 -19 -4 -18 3 -40 24 -76 17 -28 36 -69 43 -91 10 -33 16 -39 40 -39 l29 0 -21 -36 c-20 -33 -21 -41 -10 -97 6 -33 8 -75 5 -93 -6 -28 -3 -32 19 -38 31 -8 32 -19 2 -43 -16 -13 -26 -33 -30 -66 -4 -26 -17 -79 -30 -117 -24 -70 -21 -90 12 -90 10 0 6 -9 -13 -29 -28 -30 -45 -79 -46 -141 l-1 -35 -16 40 c-19 50 -53 190 -53 217 0 11 -13 32 -30 46 -29 26 -29 27 -9 38 18 9 21 22 25 101 3 85 2 91 -21 113 -30 28 -31 37 -5 45 17 5 19 12 13 53 -3 26 -15 68 -26 95 -17 41 -23 47 -48 47 -33 0 -33 0 -18 34 11 23 8 30 -31 73 -24 27 -61 59 -82 72 -33 20 -43 22 -64 12 -26 -11 -24 -12 -38 33 -5 16 -93 29 -144 20 -22 -3 -46 -17 -60 -32 -18 -22 -24 -24 -31 -13 -30 46 -164 -73 -146 -129 5 -16 2 -20 -14 -20 -18 0 -21 -6 -21 -49 0 -55 16 -111 37 -128 8 -6 13 -17 11 -25 -4 -22 31 -71 72 -101 31 -22 44 -26 59 -18 15 9 20 7 24 -9 4 -15 14 -20 40 -20 45 0 127 45 127 71 0 12 7 19 19 19 56 0 32 137 -30 170 -32 18 -100 6 -121 -20 -37 -46 -9 -131 37 -114 13 5 16 3 13 -7 -8 -23 -38 -22 -64 2 -13 12 -24 27 -24 33 0 6 -7 23 -14 39 -12 22 -12 27 -2 27 8 0 19 13 25 29 7 15 23 34 37 41 13 8 24 20 24 28 0 12 3 12 15 2 15 -12 75 -10 108 4 13 6 17 3 17 -13 0 -11 9 -25 20 -31 11 -6 28 -28 38 -48 10 -20 24 -36 30 -35 17 4 15 -12 -3 -27 -8 -7 -15 -27 -15 -44 0 -17 -9 -45 -19 -63 -11 -17 -17 -40 -14 -52 4 -17 1 -21 -17 -21 -12 0 -36 -11 -54 -25 -18 -14 -47 -30 -64 -36 -18 -6 -32 -17 -32 -25 0 -18 -14 -18 -30 1 -7 8 -21 13 -34 10 -11 -3 -46 1 -76 9 -49 13 -57 13 -72 -1 -10 -9 -18 -14 -19 -12 0 2 -2 15 -5 29 -2 14 -13 31 -25 39 -11 8 -34 34 -50 58 -19 27 -38 43 -51 43 -19 0 -20 1 -4 25 12 18 13 30 6 50 -6 15 -10 44 -10 67 0 29 -6 45 -22 59 -23 18 -23 18 -2 19 17 0 23 8 28 42 4 23 16 62 27 87 13 30 16 48 9 55 -19 19 -10 28 19 21 26 -5 32 -2 45 22 8 15 29 43 46 60 l32 33 -23 20 c-13 10 -34 19 -46 20 -15 0 -21 5 -17 14 3 8 -4 32 -15 55 -12 22 -21 46 -21 53 0 7 -10 19 -22 27 -20 13 -21 14 -4 26 16 12 35 86 39 158 1 17 8 27 18 27 9 0 31 17 51 38 63 68 82 80 93 62z m1925 -128 c0 -12 -4 -12 -20 3 -11 10 -20 25 -20 33 0 12 4 12 20 -3 11 -10 20 -25 20 -33z m920 5 c0 -35 9 -38 40 -16 l27 21 39 -25 c61 -38 70 -52 50 -82 -23 -34 -20 -42 14 -50 l31 -7 -3 -66 c-3 -65 -3 -66 -35 -76 -37 -10 -40 -18 -18 -40 23 -22 18 -55 -15 -113 -30 -52 -31 -53 -76 -53 -45 0 -46 0 -39 -30 8 -35 -7 -59 -61 -100 -46 -35 -65 -37 -89 -10 -26 28 -32 25 -39 -19 -8 -53 -18 -58 -129 -68 -47 -5 -56 -3 -52 9 3 8 21 22 40 31 32 15 49 47 25 47 -6 0 -6 9 0 26 6 14 10 38 10 54 0 17 7 33 17 39 14 8 15 12 4 25 -7 9 -19 16 -25 16 -6 0 -24 16 -40 36 l-28 36 30 -16 c17 -9 42 -16 56 -16 16 0 32 -9 42 -25 17 -25 17 -26 38 -7 12 10 40 24 62 30 23 7 47 19 54 27 7 8 26 15 42 15 27 0 29 2 23 28 -6 29 14 123 35 161 10 19 8 21 -24 21 -44 0 -95 29 -102 58 -4 12 -8 22 -11 22 -10 0 -78 -64 -90 -84 -26 -45 -5 -116 34 -116 15 0 17 16 3 25 -14 9 -13 48 2 63 14 14 67 16 88 2 10 -6 15 -25 14 -56 -1 -40 -6 -52 -34 -77 -28 -25 -39 -29 -74 -25 -95 11 -146 63 -146 147 0 33 4 40 30 51 34 14 37 22 15 40 -21 17 -19 35 9 66 19 23 30 28 65 26 35 -2 41 0 41 17 0 33 47 61 101 61 45 0 49 -2 49 -23z m3149 -12 c38 -13 45 -13 68 2 21 14 26 14 33 3 5 -8 7 -17 4 -22 -3 -4 8 -14 23 -22 36 -19 86 -72 108 -115 14 -27 21 -32 42 -28 23 4 24 2 18 -22 -3 -14 -6 -72 -7 -129 0 -89 2 -105 18 -117 17 -13 17 -16 4 -25 -8 -5 -23 -10 -32 -10 -10 0 -18 -3 -18 -8 0 -4 -12 -20 -26 -35 -14 -16 -23 -31 -19 -35 3 -4 34 -9 68 -13 34 -3 69 -9 78 -13 10 -5 20 1 29 19 15 28 30 21 33 -14 1 -13 20 -37 44 -57 33 -27 48 -33 68 -28 27 7 32 -4 15 -37 -8 -14 -7 -25 4 -41 9 -12 23 -54 32 -94 13 -63 19 -73 41 -79 20 -5 23 -8 13 -20 -7 -8 -18 -15 -25 -15 -8 0 -14 -23 -17 -69 -3 -42 -14 -87 -27 -115 -17 -33 -21 -54 -16 -77 7 -31 6 -32 -21 -26 -21 4 -39 -3 -70 -24 -23 -15 -61 -31 -84 -35 -30 -5 -44 -13 -50 -29 -14 -37 -30 -39 -37 -5 -4 21 -14 35 -31 41 -13 5 -38 19 -54 30 -22 16 -32 19 -41 10 -13 -13 -47 -15 -47 -3 0 4 5 13 11 19 8 8 8 21 -1 48 -7 22 -10 58 -7 86 3 27 2 51 -4 54 -14 9 -11 27 4 22 6 -2 29 11 50 29 20 19 46 34 58 34 11 0 31 12 44 26 18 19 25 23 25 11 0 -8 16 -25 36 -38 20 -12 43 -37 51 -56 12 -31 12 -38 -4 -70 -16 -33 -63 -65 -63 -43 0 5 9 11 19 15 46 14 32 94 -19 115 -121 50 -194 -148 -75 -204 64 -31 160 -14 171 31 5 20 12 24 31 20 13 -2 30 2 38 10 20 19 35 79 35 136 0 40 -3 47 -20 47 -22 0 -26 10 -9 27 16 16 -22 84 -68 122 -35 29 -38 30 -61 15 -22 -14 -24 -14 -29 5 -9 36 -89 39 -155 5 -21 -11 -28 -22 -28 -45 l0 -30 -31 17 c-30 15 -32 15 -56 -8 -41 -39 -64 -84 -57 -112 6 -24 3 -26 -24 -26 -19 0 -35 -7 -41 -17 -20 -37 -26 4 -25 177 1 144 4 187 18 224 10 25 22 46 26 46 16 0 34 44 31 79 -2 32 -1 33 29 28 35 -7 54 14 65 74 6 33 4 38 -24 56 -31 19 -32 19 -11 38 11 10 20 28 20 41 0 27 -52 73 -92 81 -37 7 -48 34 -48 119 0 72 2 73 69 49z m-4770 -61 l21 -26 19 23 c19 23 20 23 54 7 48 -23 72 -60 58 -87 -18 -33 -13 -49 17 -53 26 -3 27 -5 30 -74 l3 -72 -32 -11 -33 -11 26 -28 c27 -29 27 -33 -4 -99 -17 -36 -24 -43 -49 -43 -27 0 -29 -3 -29 -37 -1 -32 -7 -43 -36 -65 -27 -20 -43 -26 -64 -22 -23 5 -28 2 -34 -19 -3 -13 -18 -33 -33 -42 -81 -52 -73 -51 -73 -12 0 24 8 42 25 58 31 30 31 33 0 47 -20 9 -25 19 -25 49 0 21 9 53 21 72 21 34 15 50 -18 51 -13 0 -35 36 -47 78 -6 18 -4 22 13 22 12 0 30 -9 41 -20 25 -25 37 -25 45 0 8 26 39 42 73 38 23 -3 27 1 30 26 2 18 11 30 23 33 21 6 25 18 9 28 -5 3 -10 21 -10 38 0 18 -4 37 -8 43 -13 19 -56 44 -76 44 -25 0 -66 -38 -66 -61 0 -24 28 -32 35 -9 10 33 57 36 69 4 7 -18 -7 -56 -27 -72 -8 -7 -32 -13 -52 -14 -51 -2 -95 44 -95 100 0 50 17 70 60 74 26 2 36 8 38 23 9 48 69 60 101 19z m4561 -305 l0 -160 -26 20 c-15 12 -34 21 -42 21 -9 0 -24 8 -35 18 -17 14 -21 15 -25 2 -3 -8 -20 -28 -39 -44 -37 -33 -44 -74 -17 -100 17 -18 54 -22 54 -6 0 6 -4 10 -10 10 -19 0 -10 39 10 45 33 10 70 -20 70 -56 0 -55 -47 -102 -77 -77 -13 10 -19 8 -33 -10 l-18 -22 -27 22 c-36 28 -57 76 -43 102 8 15 7 22 -7 32 -14 11 -17 23 -13 65 6 60 22 77 73 77 50 0 57 8 38 47 -16 34 -16 34 18 80 25 33 39 44 54 41 11 -2 35 -7 53 -11 32 -7 32 -7 32 29 0 20 2 36 5 36 3 0 5 -72 5 -161z m-416 -300 c-16 -17 -16 -22 -4 -29 8 -6 20 -10 27 -10 7 0 18 -10 24 -22 11 -20 7 -26 -37 -65 -27 -24 -52 -43 -56 -43 -11 0 -10 22 3 59 6 18 9 34 7 36 -2 3 -20 -9 -39 -25 -37 -32 -64 -36 -104 -18 -26 12 -30 24 -17 46 7 10 15 10 36 2 45 -17 56 -13 56 20 0 24 10 37 53 69 48 36 53 37 61 20 7 -14 4 -25 -10 -40z m-3608 -69 c-21 -99 -30 -101 -21 -5 8 87 12 102 27 87 5 -5 3 -37 -6 -82z m174 59 c0 -16 -43 -124 -57 -144 -13 -18 -14 -12 -8 55 8 89 17 110 45 103 11 -3 20 -9 20 -14z m-224 -6 c-2 -10 -8 -46 -11 -81 -8 -72 -17 -76 -17 -8 0 25 -3 46 -6 46 -4 0 -15 -30 -25 -67 -30 -109 -38 -117 -34 -36 3 49 9 76 20 88 10 9 17 23 17 30 0 18 28 45 46 45 10 0 14 -6 10 -17z m94 3 c0 -27 22 -29 41 -5 10 13 19 21 19 18 0 -12 -49 -148 -63 -175 l-16 -29 -1 25 c-6 109 -2 180 10 180 6 0 10 -6 10 -14z m175 -6 c15 -24 13 -56 -6 -87 -11 -18 -23 -33 -25 -33 -2 0 -4 29 -4 65 0 50 3 65 14 65 8 0 18 -4 21 -10z m-386 -87 c-1 -38 -4 -79 -8 -93 -7 -23 -8 -22 -15 13 -8 44 -25 40 -27 -6 l-1 -32 -8 30 c-4 17 -8 50 -9 75 -1 39 3 47 27 62 15 9 30 17 35 17 4 1 7 -29 6 -66z m450 22 c-24 -40 -40 -46 -32 -12 8 29 22 47 39 47 10 0 8 -9 -7 -35z m72 -5 c19 -15 21 -19 7 -20 -9 0 -23 -3 -32 -6 -12 -5 -16 0 -16 20 0 31 10 33 41 6z m3631 -75 c-16 -13 -49 -50 -72 -81 -40 -51 -45 -54 -52 -34 -4 11 -4 44 0 73 8 60 35 81 89 72 29 -5 33 -3 39 22 11 46 19 50 22 10 3 -31 -2 -41 -26 -62z m-4249 25 c5 -39 -13 -153 -26 -167 -13 -12 -20 7 -25 62 -2 30 -8 55 -12 55 -9 0 -20 -35 -20 -65 0 -11 -9 -38 -20 -60 l-20 -40 3 69 3 68 -22 -48 -21 -49 -12 28 c-17 44 -14 50 38 90 33 25 59 37 81 37 29 0 32 2 26 24 -5 22 0 36 14 36 4 0 10 -18 13 -40z m3960 34 c3 -3 -6 -25 -20 -48 -32 -51 -32 -51 -39 -43 -7 7 34 97 45 97 4 0 10 -3 14 -6z m37 -51 c0 -10 6 -14 20 -10 20 5 20 4 -2 -36 -43 -77 -73 -55 -47 34 12 37 29 44 29 12z m103 -38 c-8 -24 -23 -51 -34 -61 -18 -16 -19 -16 -19 5 0 12 5 41 11 65 9 37 14 42 34 38 23 -4 23 -5 8 -47z m150 -79 c-15 -31 -31 -56 -35 -56 -12 0 -10 7 23 66 40 70 49 64 12 -10z m-4444 -81 c1 -49 -14 -78 -29 -55 -13 20 -13 47 1 52 7 2 7 12 0 31 -8 21 -8 34 1 50 12 22 12 21 19 -8 4 -16 7 -48 8 -70z m3377 -68 c23 -34 47 -78 54 -97 7 -19 42 -75 77 -125 59 -84 74 -118 56 -128 -15 -8 -197 18 -200 29 -2 7 15 14 44 19 26 4 52 9 56 12 4 2 -23 33 -62 69 -40 37 -75 80 -84 101 -17 44 -32 157 -22 172 15 25 42 8 81 -52z m249 7 c45 -49 52 -62 54 -101 2 -59 17 -93 86 -188 70 -98 72 -101 43 -109 -35 -9 -124 -7 -152 4 -35 13 -33 30 5 30 38 0 69 16 69 36 0 15 -77 93 -92 94 -29 1 -98 179 -98 251 0 55 22 51 85 -17z m-3695 -4 c0 -28 -15 -48 -27 -36 -3 3 -2 21 1 41 8 41 26 38 26 -5z m3804 -22 c9 -12 13 -24 11 -27 -6 -5 -45 29 -45 41 0 15 19 8 34 -14z m-249 -24 c9 -14 14 -28 11 -32 -7 -6 -56 37 -56 50 0 18 29 6 45 -18z m243 -36 c9 -13 23 -118 15 -118 -8 0 -43 86 -43 108 0 24 12 29 28 10z m-4777 -48 c11 0 37 -9 58 -19 30 -16 41 -17 50 -8 10 9 12 8 10 -8 -2 -11 4 -31 14 -45 9 -13 17 -38 17 -55 0 -17 5 -36 12 -43 9 -9 8 -12 -4 -12 -9 0 -20 -9 -23 -21 -4 -12 -24 -39 -45 -60 -29 -30 -41 -37 -47 -27 -4 7 -20 19 -35 27 -27 14 -44 49 -29 64 5 5 11 -3 15 -17 13 -53 94 -39 117 21 19 51 -21 131 -61 118 -12 -4 -19 1 -23 15 -7 25 -57 26 -107 2 -30 -15 -35 -23 -36 -52 0 -30 -3 -35 -24 -35 -20 0 -27 -8 -38 -40 -18 -56 -12 -109 13 -113 30 -6 40 -19 26 -36 -11 -13 -8 -21 14 -48 15 -18 40 -38 54 -45 24 -11 23 -11 -23 -12 -27 -1 -67 5 -90 11 -49 15 -114 78 -123 119 -3 16 -14 36 -25 43 -20 14 -20 14 1 25 12 7 21 22 21 35 0 13 14 50 30 82 17 32 28 64 25 71 -3 10 2 14 18 12 12 -2 38 7 57 19 19 12 52 27 73 33 21 5 41 17 44 25 5 13 9 12 25 -5 10 -12 28 -21 39 -21z m4589 -48 l0 -37 -20 25 c-11 14 -20 35 -20 48 0 20 3 21 20 12 15 -8 20 -21 20 -48z m282 21 c10 -9 18 -29 18 -45 0 -16 9 -56 20 -89 22 -64 22 -73 -1 -64 -35 14 -77 120 -79 198 0 22 18 22 42 0z m533 -15 c16 -7 29 -24 35 -49 6 -20 21 -62 35 -93 14 -31 25 -59 25 -62 0 -3 -15 -4 -32 -2 -29 3 -37 10 -60 58 -36 71 -53 160 -32 160 2 0 15 -5 29 -12z m-80 -55 c9 -32 25 -74 36 -95 24 -47 24 -48 -3 -48 -32 0 -42 9 -66 57 -29 56 -39 122 -21 134 28 17 38 8 54 -48z m-333 14 c4 -7 8 -22 8 -34 0 -12 5 -34 10 -49 10 -26 2 -43 -22 -44 -16 0 -39 50 -47 100 l-8 51 26 -6 c14 -4 29 -12 33 -18z m228 -44 c11 -38 24 -74 27 -81 10 -24 -39 -9 -59 18 -20 28 -34 90 -25 115 14 34 35 14 57 -52z m-103 -13 l20 -60 -29 0 c-24 0 -32 6 -44 35 -22 54 -19 85 10 85 20 0 26 -9 43 -60z m-397 -45 c0 -3 -11 -5 -26 -5 -19 0 -28 8 -40 35 -22 55 -17 58 26 15 22 -22 40 -42 40 -45z m855 -14 c19 -56 19 -53 -7 -49 -16 2 -31 19 -50 58 -15 30 -28 63 -28 73 0 34 68 -33 85 -82z m75 -39 c-7 -3 -16 2 -21 9 -16 25 -9 32 12 13 13 -12 16 -20 9 -22z"
       id="path8" />
  </g>
</svg>
