<?xml version="1.0" standalone="no"?>
<!DOCTYPE svg PUBLIC "-//W3C//DTD SVG 20010904//EN"
 "http://www.w3.org/TR/2001/REC-SVG-20010904/DTD/svg10.dtd">
<svg version="1.0" xmlns="http://www.w3.org/2000/svg"
 width="704.000000pt" height="381.000000pt" viewBox="0 0 704.000000 381.000000"
 preserveAspectRatio="xMidYMid meet">
<metadata>
Created by potrace 1.11, written by Peter Selinger 2001-2013
</metadata>
<g transform="translate(0.000000,381.000000) scale(0.100000,-0.100000)"
fill="#000000" stroke="none">
<path d="M0 1905 l0 -1905 3520 0 3520 0 0 1905 0 1905 -3520 0 -3520 0 0
-1905z m609 1567 c80 -245 121 -392 121 -427 0 -40 -22 -115 -72 -242 -47
-120 -63 -129 -105 -60 -16 27 -48 58 -85 82 -33 21 -66 48 -73 59 -16 25 -31
216 -41 539 l-6 217 103 0 104 0 54 -168z m360 98 c7 -40 10 -88 6 -112 -7
-40 -108 -347 -124 -376 -5 -9 -14 8 -25 45 -43 148 -136 488 -136 500 0 10
31 13 133 13 l134 0 12 -70z m165 -12 c4 -46 18 -195 33 -333 24 -237 25 -261
15 -451 -7 -111 -23 -324 -38 -475 -14 -151 -26 -326 -27 -389 l-2 -115 42
-62 c34 -52 143 -304 143 -333 0 -4 -28 -11 -62 -15 l-63 -7 -105 -107 -106
-106 -22 -190 c-12 -104 -35 -311 -52 -460 -17 -148 -33 -282 -36 -298 l-6
-27 -115 0 -116 0 6 213 c10 346 20 411 137 927 22 97 34 192 45 340 16 207
47 495 66 605 5 33 39 180 75 328 94 390 105 461 114 747 5 135 12 255 15 268
5 14 15 22 30 22 21 0 23 -6 29 -82z m130 64 c3 -10 10 -49 15 -88 10 -79 30
-127 65 -149 28 -18 49 -12 64 18 7 15 11 17 12 7 1 -10 4 -9 10 5 17 40 10
-156 -15 -413 -74 -769 -75 -788 -75 -1116 1 -153 -1 -280 -3 -282 -2 -3 -30
55 -62 127 -39 90 -59 149 -62 188 -7 74 12 394 38 651 26 253 23 665 -5 760
-24 83 -53 209 -61 263 l-6 47 40 0 c29 0 41 -5 45 -18z m434 -91 c7 -63 22
-136 36 -173 40 -106 56 -204 66 -396 l10 -184 -37 -64 c-20 -35 -39 -61 -41
-59 -3 2 -3 71 -1 152 5 233 3 261 -30 377 -50 176 -71 302 -64 384 5 65 8 72
27 72 20 0 23 -8 34 -109z m362 67 c0 -24 7 -80 15 -125 8 -45 18 -143 21
-217 l7 -135 -54 -49 c-30 -28 -57 -48 -61 -45 -4 2 -6 30 -4 61 12 171 17
471 8 510 l-10 42 39 0 39 0 0 -42z m997 20 c-3 -13 -11 -52 -18 -88 -6 -36
-14 -68 -18 -72 -3 -3 -39 -10 -78 -14 l-73 -7 0 102 0 101 96 0 c95 0 96 0
91 -22z m497 -92 c21 -55 42 -108 48 -119 9 -18 8 -19 -13 -12 -13 4 -59 17
-101 28 -43 12 -78 25 -78 29 0 20 93 189 100 182 4 -5 24 -54 44 -108z m256
81 c0 -22 -8 -41 -22 -54 -30 -26 -78 -57 -82 -52 -2 2 -7 34 -11 72 l-7 67
61 0 61 0 0 -33z m180 9 c0 -22 -66 -94 -76 -83 -3 3 -8 28 -13 56 l-8 51 48
0 c45 0 49 -2 49 -24z m205 -13 c-21 -49 -21 -49 -34 -12 -16 46 -14 49 19 49
l30 0 -15 -37z m424 -64 c18 -56 44 -142 57 -191 l24 -89 -26 -62 c-47 -111
-124 -320 -120 -324 2 -2 34 37 70 88 l66 92 -1 -284 c-1 -156 -4 -317 -8
-356 l-6 -73 -47 58 c-25 31 -94 106 -152 166 l-106 109 0 228 c0 207 -2 233
-21 284 -19 51 -66 128 -127 211 l-23 31 53 106 53 107 140 0 141 0 33 -101z
m185 45 l26 -56 -26 -59 c-15 -33 -29 -59 -33 -59 -6 0 -91 208 -91 223 0 4
22 7 49 7 l50 0 25 -56z m534 33 c8 -41 -10 -86 -48 -125 -22 -22 -40 -46 -40
-53 0 -9 3 -10 8 -3 11 17 92 27 87 12 -2 -7 -27 -87 -55 -178 -29 -91 -56
-169 -62 -175 -9 -10 -6 87 8 225 9 81 -1 59 -25 -60 -30 -140 -28 -137 -46
-119 -18 19 -265 410 -265 420 0 5 14 24 31 44 l31 35 187 -2 c172 -3 186 -4
189 -21z m602 15 c0 -4 -7 -18 -16 -30 -37 -54 -92 -246 -132 -462 -13 -74
-52 -200 -61 -200 -8 0 -63 272 -80 395 -5 39 -12 121 -15 183 l-6 112 24 0
c17 0 38 -16 69 -52 l45 -53 7 40 c13 78 9 75 91 75 41 0 74 -3 74 -8z m74
-34 c12 -89 25 -239 37 -415 15 -218 24 -166 -110 -629 -17 -57 -17 -67 -3
-124 12 -49 13 -69 4 -93 -14 -38 -84 -146 -95 -147 -14 0 -95 89 -122 135
-40 69 -36 97 28 193 31 45 63 105 71 132 14 46 13 58 -5 143 -26 115 -22 183
19 302 17 50 44 167 60 261 30 177 66 284 96 284 10 0 17 -14 20 -42z m431
-10 c6 -25 20 -59 30 -74 10 -16 33 -64 50 -107 l32 -79 -24 -89 c-41 -153
-111 -369 -129 -396 -16 -25 -17 -26 -30 -8 -17 23 -50 111 -70 185 -14 49
-43 433 -44 568 l0 53 86 -3 87 -3 12 -47z m197 -10 c-17 -73 -26 -86 -45 -70
-12 11 -67 113 -67 126 0 3 29 6 64 6 l64 0 -16 -62z m-2521 -19 c19 -69 13
-84 -76 -176 -70 -72 -85 -94 -85 -120 0 -17 -3 -34 -8 -37 -10 -6 -274 123
-270 133 9 22 84 130 90 130 4 1 22 -11 38 -26 29 -26 32 -35 37 -108 4 -52 9
-73 14 -60 4 11 19 52 34 92 25 68 30 74 94 118 38 25 77 55 87 66 22 24 36
20 45 -12z m-1331 -21 c6 -24 15 -58 20 -77 5 -19 8 -36 7 -37 -4 -5 -112 -22
-115 -19 -10 9 56 175 69 175 4 0 13 -19 19 -42z m2695 -30 c23 -79 20 -168
-10 -238 -22 -53 -26 -79 -31 -217 -3 -87 -5 -186 -4 -220 1 -35 -3 -63 -8
-63 -13 0 -93 58 -114 82 -26 30 -23 95 8 157 24 48 25 53 10 70 -23 26 -20
46 19 109 27 46 40 87 67 214 18 87 36 158 40 158 4 0 14 -23 23 -52z m-2847
-88 c-3 -29 -7 -35 -29 -38 l-26 -3 15 63 c8 35 17 70 20 78 7 22 23 -59 20
-100z m-127 -62 c-3 -3 -15 -8 -26 -10 -19 -3 -20 2 -16 67 2 39 6 74 9 79 3
6 13 -21 22 -60 9 -38 14 -72 11 -76z m2356 100 c31 -35 122 -196 209 -369
l78 -157 -75 -98 c-41 -53 -78 -97 -84 -97 -5 0 -40 71 -77 156 -88 204 -126
357 -118 474 6 73 20 113 39 113 4 0 17 -10 28 -22z m-1462 -108 c14 -22 25
-44 25 -49 0 -10 -25 -17 -97 -27 -29 -3 -53 -9 -53 -13 0 -3 -7 -87 -15 -186
-16 -194 -19 -421 -8 -639 l6 -137 56 3 c54 3 56 4 59 33 8 92 35 261 43 269
20 21 28 -15 35 -156 l7 -147 51 -10 c28 -5 147 -28 264 -52 117 -23 215 -39
219 -36 3 3 -4 71 -16 151 -11 79 -21 151 -21 158 0 8 31 38 70 67 38 29 74
59 80 66 9 10 2 40 -29 124 -44 119 -60 191 -43 191 6 0 26 -18 45 -41 36 -42
223 -316 232 -342 5 -10 -4 -16 -30 -20 -53 -9 -65 -23 -65 -74 l0 -45 -25 16
c-42 28 -62 21 -70 -24 -8 -50 -20 -58 -33 -22 -23 58 -23 71 -2 112 l21 41
-20 -11 c-47 -25 -54 -52 -48 -183 3 -67 10 -137 17 -155 14 -38 75 -81 127
-89 30 -5 39 -1 75 33 37 36 56 67 72 121 6 17 2 22 -16 26 -13 2 -6 3 16 0
43 -4 66 10 66 41 1 20 1 20 12 2 12 -21 13 -135 2 -224 -10 -82 -21 -84 -214
-37 -123 31 -731 131 -881 146 l-116 12 -7 75 c-3 41 -6 127 -6 191 0 64 -3
146 -7 184 l-6 67 -143 0 -143 0 -5 -42 c-3 -24 -8 -124 -12 -223 -4 -118 -10
-183 -18 -188 -6 -4 -22 -6 -36 -5 -24 3 -25 6 -25 63 0 33 4 139 9 236 l8
176 -63 -10 c-35 -5 -66 -11 -67 -13 -4 -3 -31 -351 -32 -400 0 -23 5 -33 20
-37 29 -7 25 -22 -12 -40 -22 -11 -106 -23 -256 -37 -122 -12 -227 -20 -233
-18 -11 4 316 78 344 78 9 0 17 3 17 8 0 4 9 93 20 197 11 105 20 198 20 208
0 17 -8 18 -112 12 -247 -13 -326 -31 -530 -120 -54 -24 -98 -39 -98 -34 0 20
29 65 62 94 40 37 202 231 240 287 14 22 29 57 33 79 9 53 37 85 104 118 72
37 280 112 418 152 l107 31 196 -6 c107 -4 228 -9 268 -12 l73 -6 -7 41 c-6
41 -6 41 25 41 25 0 35 -7 56 -40z m752 -97 c-4 -58 -7 -133 -7 -166 0 -70 -1
-70 -86 34 l-56 69 36 43 c20 23 51 61 69 84 17 23 36 42 41 43 5 0 6 -45 3
-107z m-673 -21 c-63 -46 -104 -99 -104 -134 0 -62 77 -156 176 -214 49 -29
183 -51 213 -34 22 11 36 54 46 142 10 86 -18 127 -138 203 -32 20 -57 39 -55
41 5 4 257 -61 295 -76 16 -7 24 -23 33 -67 6 -32 29 -132 51 -222 45 -186 44
-185 23 -177 -62 24 -231 48 -333 47 -107 0 -120 2 -254 45 -78 25 -144 48
-147 50 -4 5 39 369 47 391 2 6 41 15 86 21 45 5 86 10 91 11 5 0 -9 -12 -30
-27z m2106 6 c0 -7 6 -78 14 -158 8 -80 17 -200 21 -267 7 -116 6 -128 -20
-213 -31 -99 -44 -109 -86 -64 -32 34 -31 69 9 354 17 124 34 255 38 293 3 37
10 67 15 67 5 0 9 -6 9 -12z m-1350 -5 c0 -5 21 -107 45 -228 25 -121 45 -229
45 -240 0 -17 -2 -17 -13 -5 -8 8 -37 53 -66 99 l-53 83 12 149 c7 82 17 149
22 149 4 0 8 -3 8 -7z m-579 -137 c20 -9 55 -33 78 -52 53 -46 56 -86 10 -139
-38 -43 -46 -40 -23 9 24 49 11 61 -46 46 -56 -15 -91 -6 -112 30 -17 30 -56
47 -84 36 -9 -4 -14 -13 -10 -21 9 -24 -12 -17 -30 10 -21 33 -10 61 34 85 45
25 128 23 183 -4z m1212 -270 c53 -89 97 -166 97 -170 0 -5 -28 -71 -62 -148
l-62 -140 -34 6 c-19 3 -37 8 -40 11 -10 9 -15 605 -6 605 5 0 53 -74 107
-164z m398 -34 c19 -38 20 -49 10 -105 -6 -34 -13 -83 -17 -110 -3 -29 -14
-58 -29 -74 l-23 -27 -31 30 c-27 27 -31 39 -42 125 -11 90 -10 100 11 165 37
113 38 114 71 73 16 -19 38 -53 50 -77z m-4522 -172 c1 -41 7 -111 15 -155 21
-121 30 -241 18 -249 -14 -8 -85 74 -109 127 -26 56 -50 146 -62 231 l-10 69
67 81 67 80 7 -54 c3 -30 6 -89 7 -130z m-263 22 c89 -108 123 -193 149 -382
16 -108 35 -135 106 -146 l40 -7 -7 -61 c-3 -33 -21 -171 -41 -306 -30 -215
-50 -324 -108 -590 -16 -72 -71 -447 -106 -722 -13 -98 -25 -176 -27 -173 -3
2 1 92 8 199 14 213 11 283 -19 396 -35 134 -61 277 -61 339 0 33 12 150 26
258 45 344 32 549 -53 848 -24 85 -25 99 -20 252 2 89 8 166 12 172 11 18 41
-5 101 -77z m2674 33 c0 -58 -8 -75 -34 -75 -33 0 -39 11 -16 27 11 8 18 19
15 24 -10 16 -48 10 -71 -12 l-22 -21 -7 21 c-3 12 -15 21 -25 21 -26 0 -34
-16 -13 -24 15 -6 15 -8 3 -16 -8 -6 -28 -10 -43 -10 -28 0 -28 1 -26 48 2 31
8 49 18 54 9 4 62 7 119 6 l102 0 0 -43z m2907 -7 c-4 -13 -7 -62 -8 -110 -1
-70 -6 -94 -24 -124 -26 -43 -32 -37 -41 39 -9 73 0 114 36 170 32 51 45 60
37 25z m-643 -50 l38 -61 -17 -245 c-9 -135 -20 -253 -26 -263 -5 -10 -25 -23
-44 -29 -33 -11 -40 -9 -111 32 -90 52 -89 26 -9 309 48 170 106 319 124 319
3 0 23 -28 45 -62z m-2334 -48 c21 0 30 -4 23 -8 -7 -4 -47 -7 -90 -6 -101 2
-103 2 -103 15 0 9 20 10 68 6 37 -4 83 -7 102 -7z m2038 -45 c28 -44 28 -80
-1 -108 -87 -82 -101 -106 -108 -184 -4 -41 -10 -77 -13 -80 -4 -4 -98 47
-115 63 -2 2 3 12 12 21 8 10 54 87 102 171 47 83 89 152 93 152 4 0 17 -16
30 -35z m-1998 -36 c5 -8 11 -35 15 -61 6 -42 5 -48 -10 -48 -14 0 -16 6 -11
35 8 41 -7 46 -52 18 -26 -17 -26 -17 -13 0 16 20 14 22 -14 31 -15 4 -26 -3
-43 -29 -13 -18 -21 -39 -17 -44 4 -7 -7 -11 -29 -11 l-36 0 0 60 0 59 83 3
c113 4 118 4 127 -13z m750 -34 c63 -60 45 -164 -32 -187 -50 -15 -103 13
-141 75 -33 52 -31 70 14 118 27 29 33 31 80 27 37 -4 57 -12 79 -33z m1694
-40 l38 -46 -28 -107 c-20 -75 -29 -132 -29 -189 l0 -83 -38 -15 c-20 -8 -42
-15 -47 -15 -18 0 -11 102 21 290 30 183 35 210 42 210 1 0 20 -20 41 -45z
m-374 -23 c0 -16 -51 -266 -56 -274 -3 -4 -19 2 -36 15 -30 22 -30 23 -24 90
7 82 16 102 65 144 37 33 51 40 51 25z m-588 -80 c37 -23 89 -52 116 -66 43
-22 50 -30 55 -63 6 -38 5 -41 -78 -125 -74 -75 -86 -84 -90 -65 -2 12 -14 71
-25 130 -12 60 -30 133 -41 164 -21 61 -23 77 -11 70 4 -3 37 -23 74 -45z
m1108 -110 c31 -46 48 -118 33 -133 -6 -6 -34 -16 -64 -24 -103 -28 -104 -27
-84 121 22 159 21 156 56 114 17 -19 43 -54 59 -78z m-2340 -110 c339 -46 643
-95 795 -127 92 -20 183 -65 247 -124 l53 -49 -71 -21 c-39 -11 -79 -21 -89
-21 -10 0 -66 15 -124 34 -119 38 -172 49 -551 107 -323 49 -477 60 -910 62
-373 2 -381 1 -688 -74 -204 -50 -319 -86 -354 -110 -14 -11 -29 -19 -33 -19
-4 0 -5 23 -3 50 6 64 28 87 127 139 262 136 561 182 1151 176 231 -2 328 -7
450 -23z m1647 7 c35 -6 63 -14 63 -18 0 -3 -14 -57 -30 -120 -27 -102 -70
-201 -87 -201 -3 0 -31 12 -62 28 -44 21 -74 28 -138 31 l-83 3 0 32 c0 42 24
75 95 134 33 27 74 65 90 85 34 40 52 43 152 26z m208 -95 c44 -14 86 -29 93
-33 21 -12 -75 -141 -170 -231 -48 -45 -92 -79 -97 -76 -6 4 1 31 17 64 20 44
27 80 33 162 8 112 14 140 33 140 6 0 47 -12 91 -26z m442 -76 l-36 -63 -53 3
c-29 2 -56 7 -60 11 -5 4 -2 27 5 51 12 43 15 45 57 51 25 3 62 7 83 7 l39 2
-35 -62z m-1070 -60 c-3 -8 -6 -5 -6 6 -1 11 2 17 5 13 3 -3 4 -12 1 -19z
m788 -103 c9 -48 15 -88 13 -89 -2 -1 -42 -28 -89 -59 -110 -72 -122 -90 -124
-187 -3 -138 -29 -206 -39 -103 -13 123 -28 199 -47 242 l-20 45 138 138 c155
156 141 154 168 13z m-2116 106 c12 -8 13 -48 7 -247 -4 -131 -9 -240 -12
-243 -2 -2 -59 4 -127 14 -67 10 -162 21 -212 24 l-90 6 90 22 c50 12 120 27
157 34 74 13 78 19 78 97 l0 42 -117 0 -117 0 -37 36 -38 37 -288 -27 c-334
-31 -381 -32 -431 -10 l-37 16 50 14 c28 7 104 23 170 35 106 20 162 23 484
27 l363 4 -7 46 c-3 26 -8 55 -11 65 -5 15 2 17 53 17 32 0 64 -4 72 -9z m281
-16 c276 -23 329 -32 468 -80 125 -43 222 -82 222 -90 0 -2 -31 -20 -70 -41
-38 -20 -98 -63 -133 -95 -57 -52 -66 -66 -83 -124 l-19 -66 -5 157 -5 158
-30 7 c-16 4 -50 15 -75 24 -33 12 -91 19 -212 22 l-168 6 -1 -404 c-1 -222
-2 -415 -4 -429 -1 -14 -3 -179 -3 -367 l-2 -343 -60 0 -60 0 0 98 c0 53 7
390 15 747 8 358 15 692 15 743 0 67 3 92 13 92 7 0 96 -7 197 -15z m1080
-100 c0 -3 -22 -72 -50 -153 -80 -237 -82 -259 -78 -767 l3 -440 -51 -3 -51
-3 -6 83 c-4 46 -10 211 -14 368 -8 321 -13 301 -32 -130 -16 -354 -11 -330
-69 -330 -26 0 -70 3 -98 6 l-51 6 -7 252 c-6 197 -12 268 -27 331 -11 44 -22
123 -25 175 -6 103 10 177 77 350 41 107 65 139 136 182 54 33 76 39 194 56
74 11 137 20 142 21 4 0 7 -1 7 -4z m289 -21 c63 -32 85 -64 105 -154 20 -87
44 -286 52 -437 6 -117 6 -122 -17 -155 -20 -28 -24 -43 -22 -97 1 -35 -3 -73
-9 -84 -10 -19 -13 -18 -57 26 -25 26 -57 56 -71 66 -19 15 -22 23 -15 34 6 8
19 26 29 42 18 25 19 34 8 139 -23 218 -63 282 -156 246 -40 -15 -47 -62 -35
-232 l10 -147 -33 -30 -33 -29 0 -344 c0 -263 -3 -348 -13 -366 -7 -12 -17
-20 -22 -17 -4 3 -25 35 -46 72 l-37 67 7 335 c13 647 42 982 90 1038 50 57
178 70 265 27z m-3244 -89 c14 -30 29 -55 34 -55 9 0 127 27 290 66 80 20 91
9 75 -74 -6 -28 -11 -31 -58 -38 -28 -4 -80 -6 -116 -6 -51 1 -82 -5 -142 -29
l-78 -31 0 -73 c0 -83 -6 -77 100 -95 36 -6 77 -13 92 -16 24 -5 27 -2 34 30
5 28 12 37 33 42 14 3 51 12 82 20 82 20 99 19 99 -9 0 -21 -12 -27 -122 -61
-98 -31 -318 -111 -412 -151 -18 -8 -19 -5 -12 56 4 35 13 133 21 218 19 201
31 261 51 261 3 0 16 -25 29 -55z m2141 19 l59 -29 0 -90 c0 -247 -16 -1238
-21 -1292 l-6 -63 -189 0 -189 0 0 756 0 757 144 -5 c134 -4 147 -6 202 -34z
m-1396 -275 c-176 -21 -199 -21 -155 4 24 13 57 16 170 15 l140 0 -155 -19z
m605 -44 c82 -8 169 -17 192 -21 l43 -6 0 -169 c0 -140 -2 -169 -14 -169 -8 0
-52 9 -97 20 -45 10 -127 25 -182 31 -110 14 -109 15 33 49 52 13 100 27 105
31 16 12 39 109 29 118 -5 4 -36 13 -69 19 -33 6 -115 22 -183 37 l-122 25
-41 -37 c-38 -35 -49 -39 -147 -55 -58 -9 -109 -15 -113 -12 -4 2 -10 18 -13
36 -12 62 -2 61 -261 14 l-240 -43 -105 -65 c-58 -35 -115 -71 -128 -79 -20
-12 -22 -21 -20 -74 l3 -60 105 -3 105 -3 -75 -25 c-41 -14 -124 -49 -185 -79
-60 -30 -111 -52 -113 -51 -3 4 16 221 24 272 4 27 17 39 107 92 189 113 206
118 510 162 439 63 584 71 852 45z m-1551 -30 c-49 -22 -70 -57 -78 -126 -10
-87 -38 -114 -128 -123 -52 -6 -75 -14 -103 -36 -34 -27 -109 -49 -123 -36 -3
4 4 34 16 68 21 57 21 61 5 73 -23 17 -11 40 60 119 l52 58 145 7 c80 5 154 8
165 9 14 0 10 -4 -11 -13z m34 -285 c0 -169 -11 -315 -20 -275 -15 65 -29 259
-23 308 22 171 44 154 43 -33z m2432 83 c25 -133 64 -289 76 -309 9 -14 19
-93 28 -240 l15 -219 -37 -77 c-36 -76 -38 -77 -74 -78 l-38 0 0 213 c0 223
11 767 16 767 1 0 7 -26 14 -57z m-1218 -40 l41 -28 -34 -7 c-34 -7 -294 -38
-317 -38 -13 0 -16 31 -6 67 7 25 26 29 177 31 91 2 100 0 139 -25z m-1347
-75 c-3 -24 -19 -187 -35 -363 -17 -176 -33 -348 -36 -383 l-7 -62 -107 0
-107 0 -6 100 c-7 108 -2 140 56 420 20 99 32 181 30 206 -6 50 1 56 108 94
113 38 111 39 104 -12z m1803 -59 l82 -12 0 -99 c0 -72 -3 -98 -12 -98 -7 0
-69 11 -137 25 l-125 25 -159 -25 c-88 -14 -162 -26 -163 -28 -3 -3 -34 -470
-34 -513 0 -23 -3 -24 -65 -24 -55 0 -65 3 -65 18 0 9 7 152 15 316 8 165 12
302 10 305 -6 5 -557 -67 -563 -74 -3 -3 -38 -377 -42 -436 0 -3 -35 -9 -78
-12 -74 -6 -164 -32 -299 -86 -29 -11 -54 -17 -56 -13 -3 4 4 108 14 232 10
124 18 233 18 242 1 26 121 83 237 112 183 46 593 120 837 151 130 17 453 13
585 -6z m-2113 -130 c-1 -35 -9 -178 -18 -318 -9 -139 -17 -264 -17 -277 0
-21 -5 -24 -35 -24 -35 0 -35 0 -35 45 0 92 63 615 77 637 2 5 10 7 16 5 8 -2
12 -28 12 -68z m1306 -66 c45 -27 58 -75 65 -241 7 -142 6 -152 -16 -196 -13
-27 -34 -53 -51 -62 -16 -8 -29 -12 -29 -10 0 3 11 45 24 95 l25 91 -22 0
c-12 0 -80 -18 -151 -40 -72 -22 -132 -38 -134 -35 -11 11 18 25 143 70 93 33
140 55 147 69 6 11 13 59 16 107 4 83 4 87 -18 99 -13 7 -62 12 -119 12 -104
0 -167 -17 -188 -52 -20 -31 -33 -138 -33 -274 0 -71 -3 -126 -7 -123 -9 10
-4 374 7 401 11 29 89 63 200 87 107 22 106 22 141 2z m791 -23 c21 -6 51 -22
68 -36 l30 -26 0 -234 0 -234 -290 0 -291 0 5 33 c3 17 11 130 17 249 l12 217
71 16 c151 33 293 39 378 15z m1853 -196 c5 -34 4 -37 -9 -24 -15 16 -19 31
-17 65 2 32 21 3 26 -41z m64 -271 l7 -63 -28 0 c-21 0 -29 6 -34 26 -9 36 3
126 18 135 17 10 27 -18 37 -98z m-3167 -13 l-4 -50 -161 1 -162 1 71 34 c70
34 170 62 229 63 30 1 30 1 27 -49z"/>
<path d="M5241 3404 c0 -11 3 -14 6 -6 3 7 2 16 -1 19 -3 4 -6 -2 -5 -13z"/>
</g>
</svg>
