<?xml version="1.0" standalone="no"?>
<!DOCTYPE svg PUBLIC "-//W3C//DTD SVG 20010904//EN"
 "http://www.w3.org/TR/2001/REC-SVG-20010904/DTD/svg10.dtd">
<svg version="1.0" xmlns="http://www.w3.org/2000/svg"
 width="309.000000pt" height="596.000000pt" viewBox="0 0 309.000000 596.000000"
 preserveAspectRatio="xMidYMid meet">
<metadata>
Created by potrace 1.11, written by Peter Selinger 2001-2013
</metadata>
<g transform="translate(0.000000,596.000000) scale(0.100000,-0.100000)"
fill="#000000" stroke="none">
<path d="M0 2980 l0 -2980 1545 0 1545 0 0 2980 0 2980 -1545 0 -1545 0 0
-2980z m1438 2678 c-25 -24 -53 -58 -62 -76 -21 -40 -46 -152 -46 -204 0 -20
-11 -58 -25 -86 -13 -27 -31 -73 -39 -103 -9 -30 -27 -92 -41 -139 -29 -95
-26 -116 22 -147 20 -14 54 -19 140 -23 65 -3 113 -9 113 -15 0 -5 -16 -11
-35 -13 -26 -2 -47 -15 -79 -45 -54 -53 -66 -75 -67 -129 0 -39 -1 -40 -10
-18 -14 35 -39 60 -61 60 -10 0 -40 -11 -66 -24 -26 -13 -65 -29 -87 -36 -56
-18 -110 -65 -151 -130 -80 -127 -279 -701 -318 -914 -2 -13 -9 -33 -14 -43
-5 -10 -15 -42 -22 -71 -7 -31 -20 -58 -31 -65 -28 -18 -24 -40 6 -35 14 3 29
0 35 -7 7 -8 9 -94 8 -236 l-3 -224 -50 -7 c-70 -10 -135 -29 -135 -40 0 -16
52 -133 72 -161 19 -26 20 -38 13 -120 -4 -51 -8 -103 -8 -117 -2 -21 3 -25
42 -32 62 -11 63 -18 3 -18 -45 0 -52 -3 -56 -22 -6 -26 -52 -335 -94 -633
l-29 -200 24 -3 c30 -4 29 -15 -2 -32 -13 -7 -26 -25 -29 -39 -8 -40 -26 -196
-35 -296 -5 -49 -9 939 -10 2198 l-1 2287 586 0 587 0 -45 -42z m280 -21 c2
-39 0 -57 -7 -52 -6 3 -11 14 -11 23 0 10 -9 35 -19 55 l-19 38 26 -3 c25 -3
27 -6 30 -61z m1132 -1293 c0 -1080 -3 -1355 -12 -1352 -7 3 -14 20 -16 39 -2
19 -11 61 -22 94 -11 39 -16 77 -13 106 4 31 -7 101 -32 220 -20 96 -39 177
-42 182 -2 4 -31 7 -64 7 -47 0 -59 3 -59 16 0 9 9 85 20 170 17 123 19 162
10 196 -23 91 -83 294 -90 307 -8 16 -13 -20 -35 -254 -9 -93 -20 -179 -24
-189 -5 -12 -16 51 -30 165 -37 289 -29 263 -79 267 l-42 3 0 140 0 139 57 0
58 0 -26 25 c-14 14 -59 39 -100 56 -40 16 -90 41 -109 54 -41 29 -173 75
-213 75 -30 0 -77 42 -77 68 0 11 8 13 40 8 38 -6 132 15 153 34 5 4 -10 52
-32 105 -23 54 -41 110 -41 125 0 15 -7 33 -15 40 -31 25 -55 117 -55 209 0
146 -45 243 -127 278 -18 7 -33 15 -33 18 0 3 236 5 525 5 l525 0 0 -1356z
m-1344 1319 c-7 -16 -19 -53 -25 -83 -13 -66 -114 -370 -122 -370 -6 0 -29 69
-29 88 0 6 6 9 13 6 7 -2 20 3 29 13 16 18 82 212 92 270 8 46 33 103 46 103
7 0 5 -10 -4 -27z m324 -194 c0 -136 3 -169 15 -179 13 -11 15 8 15 164 0 116
3 175 10 171 14 -9 13 -520 0 -546 -13 -23 -24 -24 -44 -3 -14 13 -16 55 -16
302 0 189 4 282 10 272 5 -8 10 -90 10 -181z m-210 22 c13 -26 13 -426 0 -452
-6 -10 -17 -19 -25 -19 -29 0 -35 40 -35 245 0 205 6 245 35 245 8 0 19 -9 25
-19z m-135 -568 l8 -33 -43 0 -42 0 4 88 c3 62 11 104 29 147 l24 60 6 -115
c4 -63 10 -130 14 -147z m523 114 c-12 -62 -7 -74 33 -85 44 -11 47 -29 7 -35
-18 -3 -43 -8 -55 -12 -21 -7 -23 -4 -23 28 0 20 7 62 15 94 8 31 16 78 16
103 l2 45 7 -44 c4 -24 3 -66 -2 -94z m-722 58 c19 -47 20 -195 0 -195 -27 0
-59 36 -59 66 0 30 33 164 40 164 2 0 11 -16 19 -35z m492 -207 c11 -11 35
-23 53 -27 l34 -7 3 -134 c1 -75 -1 -130 -6 -125 -5 6 -23 55 -42 110 -47 141
-42 135 -101 135 l-50 0 15 28 c8 15 17 46 21 67 13 78 16 81 35 25 10 -29 27
-61 38 -72z m-128 -105 c0 -26 -1 -26 -14 -8 -14 20 -12 35 5 35 5 0 9 -12 9
-27z m-126 -75 c19 -26 23 -197 6 -229 -13 -24 -75 -27 -84 -3 -11 30 -7 229
6 242 19 19 55 14 72 -10z m500 -18 c-1 -8 -5 -23 -9 -32 -10 -25 19 -24 45 2
27 27 30 26 30 -20 l0 -39 58 -3 57 -3 0 -272 c0 -150 -2 -273 -5 -273 -3 0
-17 89 -30 198 -13 108 -28 203 -33 210 -6 7 -34 12 -75 12 l-65 0 6 -72 c4
-40 10 -89 13 -108 l7 -35 -32 33 c-18 17 -43 35 -57 38 -33 8 -30 23 4 21
l27 -2 3 183 2 183 28 -3 c17 -2 26 -9 26 -18z m-829 -150 l0 -95 -42 -3 c-50
-4 -48 -12 -44 156 l1 43 43 -3 42 -3 0 -95z m608 -65 c19 -55 38 -108 42
-117 6 -15 2 -18 -22 -18 -43 0 -115 -40 -140 -79 -39 -59 -45 -102 -41 -325
3 -195 5 -214 25 -253 12 -22 37 -53 55 -66 l32 -26 -26 -20 c-14 -11 -33 -37
-42 -56 l-17 -36 -22 33 c-33 48 -61 58 -147 56 l-75 -3 0 -375 0 -375 85 -5
85 -5 0 -610 c1 -560 0 -577 -5 -210 -4 243 -10 412 -17 431 -45 129 -132 184
-289 184 -79 0 -161 -24 -208 -61 l-26 -20 0 55 c0 54 0 55 33 61 17 3 64 6
102 8 l70 2 0 50 0 50 -100 5 c-94 5 -100 6 -103 28 -2 12 -2 23 0 24 2 1 82
4 178 7 l175 6 0 50 0 50 -182 3 -183 2 -2 323 -3 322 -42 3 -42 3 -3 -133 -3
-133 -37 -3 -37 -3 -3 133 -3 133 -112 3 c-94 2 -111 5 -106 17 4 12 27 15
112 15 70 0 111 4 119 12 7 7 12 40 12 79 0 62 21 129 42 129 3 0 30 -46 60
-102 l53 -103 5 -330 5 -330 175 0 175 0 0 80 0 80 -125 5 -125 5 0 35 0 35
55 5 55 5 3 82 3 82 -58 3 -58 3 0 40 0 40 80 5 80 5 5 250 5 250 31 -85 c17
-47 44 -123 59 -170 15 -47 32 -91 38 -98 7 -9 33 -12 86 -10 l76 3 5 395 c4
285 8 401 17 415 11 18 12 15 13 -22 0 -46 13 -55 70 -50 l25 2 3 124 c1 68 6
120 11 115 5 -5 24 -54 44 -109z m-439 -98 c14 -15 45 -32 70 -39 l46 -12 0
-183 c0 -101 -3 -183 -7 -183 -5 0 -30 67 -57 148 -26 81 -54 162 -62 180
l-13 33 -153 -3 -152 -3 -68 -114 c-37 -63 -70 -116 -73 -119 -3 -3 -5 55 -5
129 l0 135 168 0 c210 -1 224 4 257 99 7 18 9 16 16 -11 5 -17 20 -43 33 -57z
m-194 -399 c0 -143 -4 -238 -9 -232 -5 5 -37 62 -71 127 l-62 117 67 115 c37
63 68 115 71 115 2 0 4 -109 4 -242z m724 160 c13 -18 16 -53 16 -178 0 -174
-8 -200 -59 -200 -55 0 -66 27 -69 173 -4 144 1 189 24 212 23 23 70 19 88 -7z
m-205 -160 c0 -75 -3 -106 -9 -91 -8 19 -2 203 6 203 2 0 4 -51 3 -112z m443
-365 c12 -15 125 -18 147 -4 8 5 22 61 36 135 12 69 25 129 28 132 3 3 9 -11
13 -32 32 -178 43 -227 55 -235 8 -5 42 -9 77 -9 51 0 62 -3 62 -16 0 -15 -16
-16 -165 -12 -163 6 -165 6 -170 -16 -2 -11 -9 -102 -16 -201 -14 -206 -21
-199 -39 35 -6 85 -13 163 -16 173 -6 20 -56 24 -71 5 -6 -7 -16 -89 -23 -183
-7 -93 -16 -178 -20 -189 -3 -10 -14 81 -23 202 l-16 221 32 61 c28 56 31 71
36 183 l5 122 29 -180 c16 -99 33 -186 39 -192z m-232 -49 c0 -14 -3 -14 -15
-4 -8 7 -15 14 -15 16 0 2 7 4 15 4 8 0 15 -7 15 -16z m819 -117 c10 -26 5
-87 -8 -100 -5 -5 -21 -7 -37 -5 -26 3 -29 7 -32 42 -6 65 4 86 38 86 23 0 33
-6 39 -23z m-895 -23 c13 -13 16 -42 16 -164 0 -122 -3 -151 -16 -164 -8 -9
-19 -16 -24 -16 -5 0 -16 7 -24 16 -13 13 -16 42 -16 164 0 122 3 151 16 164
8 9 19 16 24 16 5 0 16 -7 24 -16z m726 -259 l0 -245 -80 0 -80 0 0 -225 c0
-140 -4 -225 -10 -225 -6 0 -11 86 -12 223 l-3 222 -57 3 c-67 3 -63 -12 -47
165 15 164 31 184 23 31 -4 -67 -4 -133 0 -148 l6 -26 119 0 c99 0 120 3 125
16 11 28 6 120 -6 132 -7 7 -41 12 -81 12 l-68 0 3 38 3 37 53 3 52 3 0 74 0
74 -52 3 c-47 3 -53 6 -56 26 -7 47 2 52 88 52 l80 0 0 -245z m-1770 9 l0
-225 43 3 42 3 3 93 3 93 37 -3 37 -3 3 -107 3 -107 -33 -3 c-27 -2 -34 -8
-36 -30 l-3 -27 -35 24 c-19 13 -60 29 -90 35 l-54 11 0 235 0 234 40 0 40 0
0 -226z m804 200 c10 -27 7 -99 -6 -112 -17 -17 -55 -15 -62 4 -8 21 -8 109 1
117 13 13 61 7 67 -9z m1128 -309 c48 -155 49 -145 -16 -145 l-56 0 0 113 c0
63 3 117 7 121 20 20 39 -5 65 -89z m-592 -6 c18 -150 17 -147 53 -151 l32 -3
0 -90 0 -90 -70 0 -70 0 1 95 c1 52 9 142 18 200 8 58 15 111 16 119 1 37 11
-4 20 -80z m-419 -81 c12 -17 36 -36 53 -44 28 -12 18 -13 -107 -14 l-138 0 3
71 3 72 48 12 c27 7 59 22 70 34 l22 22 12 -61 c7 -34 22 -75 34 -92z m258
-10 l1 -48 -72 0 -73 0 35 18 c41 20 75 76 86 141 l8 46 7 -55 c4 -30 7 -76 8
-102z m-1264 -169 c13 -14 32 -289 20 -289 -3 0 -27 11 -53 25 -26 14 -52 25
-58 25 -6 0 -23 9 -38 21 -25 19 -26 25 -26 108 0 89 7 109 44 128 22 12 93 0
111 -18z m1200 -174 l0 -180 -62 -3 -63 -3 0 180 c0 134 3 181 13 185 6 3 35
4 62 3 l50 -2 0 -180z m955 64 c0 -106 -2 -120 -16 -115 -9 3 -74 6 -145 6
l-129 0 0 24 c0 31 15 36 116 36 l85 0 -3 53 -3 52 -97 3 c-95 3 -98 4 -98 26
0 12 3 26 7 29 3 4 69 7 145 7 l138 0 0 -121z m-659 -89 c15 -9 19 -22 19 -70
0 -36 5 -62 13 -67 9 -6 11 -31 7 -93 -5 -83 -5 -84 -19 -52 -16 39 -61 78
-113 99 l-38 15 0 83 c0 57 4 85 13 88 22 10 98 7 118 -3z m-1299 -127 c6 -8
34 -13 68 -13 l58 0 -14 -37 c-7 -21 -13 -48 -14 -60 0 -13 -2 -23 -4 -23 -2
0 -20 16 -40 35 -41 38 -116 65 -182 65 -57 0 -65 16 -11 24 23 4 60 17 82 31
36 21 40 22 44 7 2 -9 8 -23 13 -29z m1675 -158 c-56 -79 -105 -145 -109 -145
-4 0 -8 65 -10 145 l-3 145 112 0 112 0 -102 -145z m-1216 -4 c23 -18 24 -27
26 -135 1 -92 -1 -119 -13 -131 -19 -19 -134 -21 -152 -3 -8 8 -12 52 -12 130
0 105 2 120 20 138 27 27 99 27 131 1z m1497 -411 l-3 -141 -93 147 c-51 80
-91 152 -89 158 3 7 45 68 94 136 l88 124 3 -142 c1 -78 1 -205 0 -282z
m-2068 310 c19 -19 20 -33 20 -200 0 -217 -1 -220 -103 -220 -36 0 -68 5 -75
12 -17 17 -17 399 0 416 7 7 39 12 75 12 50 0 67 -4 83 -20z m1218 4 c18 -12
22 -25 22 -68 0 -67 -13 -79 -94 -84 -81 -5 -96 8 -96 87 0 31 5 62 12 69 18
18 129 15 156 -4z m230 -407 l-3 -62 -37 67 c-21 36 -38 72 -38 80 0 7 14 26
30 42 16 16 33 38 37 50 9 25 16 -80 11 -177z m-291 16 c10 -14 42 -74 73
-132 l55 -106 48 -3 c39 -3 48 -6 43 -18 -3 -9 -6 -57 -6 -107 l0 -92 -24 50
c-23 51 -73 103 -124 129 -16 8 -60 21 -98 29 l-69 14 -3 111 c-3 132 4 152
53 152 26 0 39 -6 52 -27z m656 -94 c40 -63 76 -120 81 -126 5 -10 -19 -13
-108 -13 l-116 0 0 88 c0 83 2 91 31 130 17 24 33 41 35 39 2 -2 37 -55 77
-118z m-1233 41 c29 -29 29 -161 0 -188 -20 -18 -20 -29 -18 -563 l3 -544 35
0 35 0 0 67 c0 66 15 93 25 46 5 -21 12 -23 75 -26 39 -2 129 2 200 9 72 7
180 13 240 13 l110 1 -1 72 c0 39 3 70 8 67 4 -3 8 -18 8 -34 0 -29 28 -100
40 -100 3 0 11 12 17 28 9 21 11 -9 12 -140 1 -155 2 -168 20 -178 11 -5 29
-10 40 -10 11 0 23 -4 26 -10 4 -7 -264 -10 -796 -10 l-802 0 45 24 c34 18 64
24 136 28 51 2 97 9 102 14 5 5 13 67 16 137 4 70 11 127 16 127 4 0 8 -13 8
-30 0 -32 3 -33 118 -44 66 -6 72 -10 72 -45 0 -25 5 -29 38 -35 70 -11 92 -8
92 14 0 11 7 20 15 20 13 0 15 67 15 545 0 528 -1 545 -19 555 -11 5 -36 10
-55 10 l-36 0 0 90 c0 104 4 109 88 110 39 0 57 -5 72 -20z m-368 -177 c6 -7
19 -13 30 -13 14 0 18 -5 14 -16 -3 -9 -6 -57 -6 -107 l-1 -92 -25 48 c-29 55
-93 121 -143 147 l-35 18 57 27 c32 14 65 37 75 50 l17 23 3 -36 c2 -20 8 -42
14 -49z m1858 -548 l0 -275 -188 0 c-133 0 -192 4 -200 12 -7 7 -12 33 -12 58
0 25 5 51 12 58 8 8 59 12 163 12 104 0 155 4 163 12 17 17 17 229 0 246 -8 8
-59 12 -163 12 -104 0 -155 4 -163 12 -7 7 -12 33 -12 58 0 25 5 51 12 58 8 8
67 12 200 12 l188 0 0 -275z m-2148 239 c28 -14 58 -60 58 -87 0 -8 8 -25 18
-37 l17 -21 112 25 c61 14 114 26 117 26 3 0 6 -89 6 -197 -1 -174 -2 -196
-15 -178 -8 11 -27 37 -42 59 -37 51 -135 127 -268 206 -59 36 -123 79 -142
96 -89 83 21 168 139 108z m1145 -8 l28 -24 3 -215 c4 -230 -4 -289 -40 -308
-11 -6 -55 -13 -98 -16 -70 -5 -79 -4 -99 16 -20 20 -21 29 -21 280 0 223 2
262 16 275 11 12 36 16 99 16 74 0 87 -3 112 -24z m-1416 -363 c30 -17 100
-50 157 -73 144 -60 183 -102 151 -162 -24 -46 -128 -62 -188 -30 -38 21 -71
73 -71 113 0 46 -21 54 -100 37 l-70 -16 0 110 0 110 34 -29 c18 -17 57 -44
87 -60z m56 -284 c62 -21 103 -44 103 -58 0 -24 -101 -117 -172 -158 -43 -25
-85 -52 -93 -60 -13 -13 -15 5 -15 148 l0 162 60 -7 c33 -4 85 -16 117 -27z
m1968 -113 c22 -10 57 -21 77 -23 34 -5 37 -7 31 -33 -4 -22 0 -32 16 -42 13
-8 21 -23 21 -40 0 -40 25 -48 144 -48 l106 0 0 -30 0 -31 -157 3 -157 3 -7
28 c-4 16 -26 48 -48 72 -22 23 -49 61 -60 84 -21 39 -28 86 -13 79 4 -2 25
-12 47 -22z"/>
<path d="M1587 5483 c-4 -3 -7 -42 -7 -85 0 -63 3 -78 15 -78 12 0 15 15 15
73 0 70 -9 105 -23 90z"/>
</g>
</svg>
