<?xml version="1.0" standalone="no"?>
<!DOCTYPE svg PUBLIC "-//W3C//DTD SVG 20010904//EN"
 "http://www.w3.org/TR/2001/REC-SVG-20010904/DTD/svg10.dtd">
<svg version="1.0" xmlns="http://www.w3.org/2000/svg"
 width="400.000000pt" height="418.000000pt" viewBox="0 0 400.000000 418.000000"
 preserveAspectRatio="xMidYMid meet">
<metadata>
Created by potrace 1.11, written by Peter Selinger 2001-2013
</metadata>
<g transform="translate(0.000000,418.000000) scale(0.100000,-0.100000)"
fill="#000000" stroke="none">
<path d="M2720 4129 c-14 -6 -47 -12 -75 -14 -49 -3 -123 -33 -229 -93 -57
-33 -256 -244 -256 -273 0 -10 -9 -34 -20 -54 -16 -28 -20 -54 -20 -120 0 -46
4 -86 9 -89 4 -3 12 -25 15 -48 7 -40 11 -65 32 -186 7 -42 5 -45 -31 -78 -21
-19 -41 -34 -45 -34 -3 0 -4 -28 -2 -62 3 -47 11 -71 29 -96 22 -30 24 -40 20
-110 -4 -74 -19 -147 -38 -184 -5 -10 -9 -63 -9 -119 0 -80 -4 -106 -18 -127
-45 -68 -54 -120 -17 -106 17 7 20 -7 5 -22 -18 -18 -22 -133 -5 -166 8 -17
15 -37 15 -43 0 -7 7 -26 15 -41 8 -16 18 -45 21 -64 4 -19 15 -41 26 -48 34
-24 17 -52 -32 -52 -10 0 -25 -11 -34 -25 -40 -61 -2 -132 74 -137 44 -3 45
-4 48 -41 l3 -37 -135 0 -136 0 0 103 c0 77 4 108 16 125 14 21 14 25 0 47
-12 18 -26 25 -48 25 -48 0 -57 -22 -58 -133 0 -78 -3 -99 -15 -103 -30 -12
-45 15 -45 82 0 34 5 66 10 69 18 11 11 54 -10 65 -52 28 -118 -8 -92 -50 8
-13 12 -68 12 -173 l0 -154 50 -47 c28 -26 50 -49 50 -52 0 -10 -1387 14
-1397 24 -32 30 -76 65 -107 86 -144 97 -339 -80 -255 -231 27 -49 48 -72 81
-89 35 -18 131 -18 166 0 36 19 78 65 91 99 l11 29 203 -5 c111 -3 240 -10
287 -16 47 -6 128 -15 180 -21 255 -28 266 -30 450 -61 30 -5 88 -13 128 -19
73 -9 92 -15 92 -29 0 -9 -127 -91 -141 -91 -5 0 -9 -3 -9 -8 0 -4 -9 -12 -20
-17 -10 -6 -59 -39 -107 -74 -48 -35 -115 -75 -148 -88 -66 -27 -145 -74 -145
-85 0 -5 9 -8 20 -8 11 0 20 -4 20 -10 0 -5 -4 -10 -10 -10 -5 0 -10 -4 -10
-9 0 -5 29 -13 65 -16 63 -7 68 -6 147 34 44 23 83 39 85 37 6 -5 -42 -37
-100 -66 -85 -42 -157 -117 -157 -165 0 -25 14 -17 28 15 8 17 19 30 25 30 7
0 32 21 56 45 24 25 68 58 99 73 55 27 85 58 97 100 5 18 2 22 -17 22 -13 0
-34 -9 -48 -20 -14 -11 -28 -20 -32 -20 -4 0 -29 -14 -57 -31 -36 -23 -59 -30
-80 -27 -17 2 -32 0 -34 -6 -2 -5 -13 0 -25 12 -15 15 -18 23 -10 28 7 4 14 2
16 -4 6 -19 24 -14 18 6 -4 13 11 25 73 54 65 31 150 91 274 193 9 8 24 15 32
15 9 0 27 7 40 16 35 23 80 28 95 9 18 -21 57 -19 98 7 33 20 36 20 47 4 18
-24 8 -50 -26 -70 -16 -9 -29 -25 -29 -34 0 -10 -7 -28 -16 -41 -12 -17 -13
-26 -5 -34 6 -6 11 -20 11 -30 0 -22 -64 -87 -85 -87 -56 0 -190 -99 -166
-123 8 -8 19 -3 39 16 15 15 38 27 51 27 17 0 21 4 17 15 -3 10 1 18 12 21 52
17 74 29 102 55 31 30 68 37 88 17 7 -7 12 -31 12 -55 0 -38 -3 -44 -36 -59
-51 -24 -108 -104 -74 -104 6 0 10 7 10 15 0 17 35 21 45 5 4 -6 17 -3 35 10
15 11 36 20 47 20 19 0 30 16 101 150 25 46 70 114 99 150 29 36 56 76 59 90
3 15 15 30 27 35 12 6 31 28 43 50 18 36 25 41 70 47 27 4 83 12 124 18 41 6
105 14 143 17 64 5 67 5 67 -16 0 -11 -4 -21 -8 -21 -5 0 -17 -6 -28 -14 -19
-14 -19 -15 5 -40 24 -25 24 -26 6 -46 -10 -11 -26 -20 -37 -20 -10 0 -18 -7
-18 -15 0 -8 -5 -15 -11 -15 -7 0 -9 12 -5 34 5 24 2 37 -9 46 -9 8 -13 21 -9
32 5 17 1 19 -53 16 -51 -3 -58 -6 -61 -26 -3 -18 -10 -22 -38 -22 -21 0 -33
-4 -29 -10 3 -6 -2 -13 -12 -16 -56 -18 -72 -28 -84 -52 -15 -30 -21 -37 -108
-132 -70 -77 -101 -130 -101 -171 0 -24 -4 -30 -16 -25 -8 3 -25 -3 -37 -14
-18 -18 -20 -24 -9 -41 16 -25 7 -41 -21 -38 -12 1 -31 -2 -41 -6 -13 -6 -23
-3 -31 9 -28 37 -61 -12 -49 -72 5 -23 0 -39 -16 -62 -17 -24 -21 -41 -18 -73
9 -82 -20 -135 -94 -173 -37 -19 -35 -5 4 26 33 26 63 84 54 106 -3 8 -17 14
-32 14 -32 0 -53 -23 -125 -136 -53 -82 -69 -99 -69 -70 0 14 90 177 113 204
8 10 7 16 -3 22 -14 9 -62 -14 -102 -48 -9 -8 -21 -11 -27 -8 -13 8 -90 -45
-91 -61 0 -7 7 -13 15 -13 22 0 86 28 107 47 30 27 30 8 1 -43 -47 -81 -68
-174 -39 -174 8 0 33 18 55 40 33 33 47 40 80 40 22 0 52 5 66 12 14 6 28 9
31 6 11 -11 -35 -93 -70 -127 -40 -39 -44 -51 -18 -51 32 0 122 110 122 149 0
12 5 21 10 21 6 0 10 -16 10 -36 0 -30 -8 -45 -45 -82 -25 -24 -45 -46 -45
-48 0 -12 46 -1 63 13 18 17 19 17 28 0 9 -15 27 -17 144 -17 l135 0 0 110 c0
98 2 111 17 108 14 -3 17 11 20 106 3 113 11 136 45 136 23 0 22 -7 -6 -115
-17 -67 -20 -115 -8 -115 5 0 15 19 22 43 18 57 29 70 46 56 11 -9 18 -8 28 0
11 9 16 9 22 0 4 -7 0 -18 -10 -25 -16 -11 -17 -19 -7 -63 12 -59 104 -206
109 -177 2 10 -1 23 -7 29 -6 6 -11 37 -11 69 0 51 2 58 20 58 24 0 34 -46 28
-130 -2 -33 -2 -60 1 -60 16 1 28 19 40 60 7 25 17 58 22 74 5 16 9 42 9 58 0
36 14 64 54 105 27 28 36 32 66 27 79 -14 100 -52 54 -95 -15 -13 -36 -40 -49
-59 -27 -42 -65 -148 -65 -179 0 -34 33 -23 40 14 4 17 19 56 33 88 15 32 27
61 27 66 0 4 9 16 21 27 17 16 22 16 29 4 6 -8 10 -35 10 -60 1 -46 19 -125
33 -147 6 -9 39 -13 108 -13 l99 0 25 54 c14 30 29 57 34 60 11 7 21 -17 21
-49 0 -39 48 -65 119 -65 67 0 81 12 81 69 0 16 5 33 10 36 6 3 10 21 10 40 0
19 5 37 10 40 6 3 10 17 10 31 0 13 5 24 10 24 6 0 10 -8 10 -17 0 -9 -4 -32
-10 -50 -20 -66 -28 -99 -35 -135 l-6 -38 63 0 c61 0 64 1 86 35 12 19 22 39
22 45 0 5 5 10 10 10 16 0 11 -23 -10 -50 -11 -14 -20 -28 -20 -32 0 -5 53 -8
118 -8 96 0 121 4 138 18 30 24 59 71 74 115 14 45 15 236 1 250 -7 7 -27 -9
-60 -44 -37 -39 -51 -49 -51 -35 0 10 56 75 131 150 l131 131 -5 -50 c-3 -27
-9 -61 -13 -73 -6 -21 -4 -23 17 -20 63 9 81 -178 29 -297 -30 -66 -60 -138
-60 -141 0 -2 6 -4 14 -4 14 0 78 125 102 200 8 25 19 53 24 62 6 10 10 89 9
175 l-1 157 -24 -27 c-29 -33 -30 -33 -37 1 -14 69 -14 67 26 70 35 3 37 5 37
36 l0 33 -52 -5 -53 -4 26 28 c16 18 25 39 24 56 -2 40 -7 41 -45 8 -89 -76
-166 -78 -236 -5 -43 44 -62 91 -45 108 14 14 31 -1 31 -27 0 -55 72 -106 150
-106 53 0 87 25 110 80 8 18 20 30 31 30 11 0 19 6 19 14 0 26 20 28 29 4 6
-16 9 9 10 79 l2 101 -53 7 c-50 6 -98 29 -86 40 3 3 25 1 49 -4 88 -21 86
-23 87 86 2 84 0 96 -12 81 -26 -34 -39 -22 -33 30 5 40 2 50 -13 60 -22 13
-33 -6 -25 -41 12 -47 -45 -131 -75 -112 -6 4 -17 19 -25 34 -8 16 -28 34 -45
41 -25 10 -30 18 -30 47 0 116 140 188 220 113 18 -16 34 -30 36 -30 2 0 4 12
4 28 0 39 -65 72 -141 72 -61 0 -93 -12 -139 -54 -56 -50 -55 -22 1 45 l41 49
-3 125 c-3 92 -1 121 7 112 16 -17 34 -120 34 -193 l0 -62 68 -4 c37 -2 82
-11 100 -20 l32 -16 0 283 0 283 -56 51 c-59 54 -109 81 -150 81 -39 0 -178
40 -193 55 -21 20 -6 30 24 17 32 -15 31 -7 -5 48 -30 46 -38 84 -20 95 15 10
12 35 -4 29 -8 -3 -17 -1 -20 4 -8 13 64 26 77 13 6 -6 2 -20 -13 -42 l-23
-32 22 -43 c13 -24 31 -50 41 -59 24 -21 78 -33 110 -24 l25 7 -30 7 c-39 9
-89 44 -62 45 9 0 17 3 17 6 0 9 -41 44 -52 44 -11 0 -10 37 2 45 28 17 -15
85 -54 85 -21 0 -17 19 8 34 14 9 22 5 44 -19 15 -17 34 -41 44 -55 15 -23 17
-24 30 -7 12 16 15 16 50 -8 34 -23 125 -51 135 -41 9 9 -8 25 -40 40 -18 7
-49 21 -69 30 -21 9 -38 23 -38 31 0 9 -10 15 -24 15 -13 0 -29 7 -36 15 -7 8
-18 15 -26 15 -7 0 -15 9 -19 19 -4 12 -19 21 -43 26 -50 9 -54 13 -41 36 6
12 7 24 3 27 -4 4 -9 1 -11 -5 -6 -18 -33 -16 -33 1 0 91 115 155 353 198 37
6 67 15 67 20 0 20 -168 3 -266 -27 -19 -6 -26 2 -53 54 -17 34 -31 64 -31 68
0 9 100 -7 124 -19 11 -6 47 -12 81 -14 33 -1 81 -6 108 -10 29 -4 47 -3 47 3
0 15 -71 33 -131 33 -30 0 -81 9 -113 20 -33 11 -79 20 -103 20 -46 0 -73 16
-73 44 0 8 5 18 10 21 30 18 1 91 -60 150 -59 57 -77 91 -84 161 -7 61 -31
124 -67 175 -10 15 -25 52 -33 82 -19 74 -29 89 -75 126 -21 17 -51 55 -65 84
-15 29 -36 58 -46 65 -69 43 -173 91 -220 101 -30 7 -69 17 -86 22 -39 12
-102 11 -134 -2z m55 -36 c-5 -16 -10 -93 -12 -173 -2 -80 -7 -154 -12 -165
-5 -11 -15 -40 -22 -65 -7 -25 -16 -49 -21 -54 -9 -12 -11 -56 -2 -56 4 0 14
8 23 18 84 96 102 114 108 108 4 -3 1 -22 -6 -42 -7 -20 -10 -38 -7 -41 3 -3
21 6 41 21 19 15 35 22 35 16 0 -23 30 -20 68 5 22 15 60 53 83 85 43 59 65
73 39 25 -20 -37 -7 -40 39 -9 23 15 44 25 46 22 3 -3 -13 -26 -36 -52 -43
-48 -48 -75 -8 -37 13 12 30 21 39 21 9 0 21 5 28 12 8 8 15 9 22 2 7 -7 -20
-41 -87 -108 -54 -53 -89 -94 -78 -90 11 4 22 10 25 14 3 3 25 20 50 37 55 37
140 50 140 21 0 -25 -57 -53 -76 -37 -10 8 -14 8 -14 0 0 -6 5 -11 11 -11 20
0 -3 -21 -47 -41 -46 -22 -61 -47 -21 -34 12 3 43 9 69 12 39 5 55 1 92 -21
25 -14 53 -40 63 -56 21 -37 33 -38 33 -4 0 14 4 23 10 19 6 -3 10 -17 10 -31
0 -31 41 -94 80 -123 32 -23 39 -41 16 -41 -8 0 -16 -5 -18 -11 -4 -11 -107
47 -148 84 -51 47 -90 68 -140 74 -44 5 -50 4 -44 -11 3 -9 14 -16 23 -16 17
-1 58 -27 50 -33 -11 -10 -75 -27 -100 -27 -16 0 -29 -4 -29 -10 0 -5 5 -10
11 -10 20 0 99 -61 99 -77 0 -12 -7 -14 -35 -9 -41 8 -44 1 -10 -26 60 -47 -6
-67 -91 -26 -43 20 -48 20 -73 5 -24 -14 -29 -14 -52 0 -17 10 -33 13 -45 8
-18 -8 -18 -8 1 -13 11 -2 24 -8 29 -13 6 -5 29 -9 53 -9 56 0 66 -21 28 -60
-16 -17 -27 -31 -24 -34 14 -12 51 -26 69 -26 20 0 50 -21 50 -34 0 -3 -31 -6
-70 -6 -40 0 -70 -4 -70 -10 0 -5 11 -10 25 -10 28 0 75 -20 75 -32 0 -12 -44
-10 -58 4 -7 7 -22 13 -35 13 -15 0 -21 5 -19 17 2 13 -7 19 -35 24 -21 3 -50
18 -65 32 -15 14 -31 22 -35 18 -8 -8 50 -64 102 -100 20 -14 25 -24 21 -41
-8 -30 2 -55 21 -55 8 0 13 -6 11 -12 -3 -7 -19 -13 -36 -13 -42 0 -58 -16
-41 -43 13 -21 4 -46 -9 -26 -8 12 -67 54 -76 54 -12 0 -5 -23 15 -51 21 -30
18 -52 -6 -42 -11 3 -15 -2 -15 -19 0 -15 16 -40 45 -68 25 -24 45 -48 45 -52
0 -4 -11 -8 -25 -8 -26 0 -34 -15 -12 -23 6 -2 9 -8 4 -12 -4 -5 -13 -3 -19 3
-12 12 -58 17 -58 7 0 -3 5 -14 12 -25 19 -29 3 -35 -32 -10 -38 27 -50 20
-21 -11 25 -27 26 -36 5 -41 -11 -2 -6 -12 21 -42 19 -21 34 -41 31 -43 -5 -5
-74 35 -118 70 -36 29 -78 100 -78 133 0 16 1 16 18 1 22 -20 50 -24 34 -4
-19 23 -48 82 -62 125 -7 23 -17 42 -22 42 -4 0 -8 7 -8 15 0 8 -4 15 -10 15
-5 0 -10 -4 -10 -9 0 -6 5 -13 10 -16 6 -3 10 -13 10 -21 0 -8 -4 -14 -10 -14
-5 0 -10 4 -10 10 0 12 -32 50 -42 50 -3 0 -8 -10 -10 -22 -4 -28 -28 -36 -28
-9 0 50 -33 6 -45 -59 -10 -55 -16 -70 -26 -70 -5 0 -9 14 -9 30 0 40 -13 38
-29 -5 -7 -19 -16 -35 -21 -35 -4 0 -18 21 -30 47 -17 36 -20 56 -15 91 l7 44
-29 -17 c-35 -21 -83 -86 -83 -114 0 -28 14 -26 30 4 7 14 16 25 20 25 7 0 30
-61 30 -82 0 -8 9 -26 19 -39 12 -16 22 -50 26 -94 7 -67 34 -147 54 -160 6
-3 7 25 4 70 -4 53 -3 75 6 75 6 0 11 -7 11 -16 0 -13 7 -15 30 -10 l30 6 0
-92 c0 -135 -22 -203 -97 -294 -31 -39 -43 -62 -40 -76 6 -23 -1 -48 -14 -48
-5 0 -9 10 -9 23 0 22 -16 47 -31 47 -4 0 -10 -13 -14 -30 -7 -30 -35 -43 -35
-16 0 7 -7 19 -15 26 -8 7 -15 19 -15 28 0 8 -7 24 -16 33 -14 16 -15 23 -4
49 7 16 15 30 19 30 4 0 13 -27 20 -60 8 -33 17 -60 22 -60 4 0 16 8 26 18 10
10 32 24 48 31 32 12 64 55 83 109 12 36 7 40 -20 15 -25 -23 -32 -11 -17 31
13 36 9 53 -10 42 -6 -4 -30 -39 -53 -79 -39 -64 -43 -69 -46 -45 -2 18 14 61
48 124 50 94 58 123 24 90 -12 -12 -20 -14 -29 -6 -10 8 -19 3 -38 -22 -13
-18 -29 -48 -35 -65 -28 -79 -35 -93 -43 -93 -30 0 14 132 61 183 35 39 70
105 70 131 0 6 -7 3 -14 -6 -20 -27 -26 -22 -26 22 0 50 -12 51 -29 3 -7 -21
-30 -63 -50 -93 -20 -30 -46 -73 -56 -95 l-20 -40 -3 33 c-3 25 6 47 37 92 38
56 49 80 35 80 -3 0 -12 -7 -20 -15 -34 -33 -47 -6 -15 29 24 27 36 162 15
170 -17 6 0 63 25 86 17 16 20 34 21 145 0 75 11 108 30 89 6 -6 12 -28 13
-48 1 -20 4 -36 8 -36 3 0 20 16 39 35 28 29 31 37 20 50 -10 12 -10 18 0 30
8 10 11 31 7 59 -5 32 -2 47 8 56 19 16 19 30 0 30 -21 0 -19 7 15 40 17 16
30 32 30 35 0 13 -30 3 -42 -13 -7 -10 -32 -31 -55 -47 -24 -15 -44 -33 -44
-39 -1 -6 -2 -26 -3 -45 -1 -45 -25 -60 -54 -35 -27 22 -28 49 -4 63 14 8 15
12 5 22 -21 21 -16 59 7 59 11 0 20 5 20 10 0 6 9 10 21 10 16 0 19 4 14 20
-4 12 -2 20 5 20 7 0 9 8 5 19 -3 12 0 21 10 24 8 4 12 13 9 22 -4 8 -1 22 6
30 11 13 10 18 -6 29 -10 8 -22 12 -26 10 -17 -11 -16 16 2 36 14 16 17 27 10
34 -17 17 -11 30 25 54 26 19 35 32 37 60 4 42 19 51 33 20 13 -28 35 -35 35
-12 0 16 2 15 20 -4 25 -27 32 -28 28 -4 -2 13 6 18 32 23 56 9 80 20 80 36 0
11 -7 13 -24 9 -14 -3 -28 -2 -31 4 -3 5 -24 10 -46 10 -29 0 -53 9 -86 31
-42 29 -50 31 -101 25 -55 -7 -72 -17 -72 -45 0 -8 6 -11 18 -6 28 11 34 11
39 -3 3 -7 -7 -15 -26 -18 -29 -6 -31 -9 -31 -51 0 -27 -4 -42 -10 -38 -6 4
-10 41 -9 83 1 64 6 87 31 139 36 73 119 170 136 159 17 -10 15 -36 -3 -36 -8
0 -21 -13 -30 -30 -9 -16 -22 -30 -31 -30 -11 0 -34 -36 -34 -55 0 -14 37 -35
62 -35 21 0 40 -10 65 -35 35 -35 53 -44 53 -26 0 10 -24 37 -38 43 -4 1 -18
18 -31 36 -23 33 -15 44 13 17 8 -8 17 -15 20 -15 13 0 4 37 -14 60 -21 27
-26 50 -10 50 6 0 10 -8 10 -18 0 -20 46 -69 56 -60 3 4 1 15 -5 26 -14 27
-14 32 3 32 7 0 21 -12 31 -26 24 -37 43 -17 25 26 -16 39 -4 52 20 23 22 -28
30 -29 30 -4 0 10 7 22 16 25 8 3 12 10 9 16 -3 6 -3 19 0 30 5 15 12 19 31
14 20 -5 24 -2 24 15 0 22 16 29 22 9 7 -19 38 -1 38 23 0 12 5 19 13 16 12
-4 13 -63 2 -114 -4 -16 -1 -23 10 -23 22 0 18 -34 -10 -90 -14 -27 -25 -55
-25 -61 0 -23 37 21 63 76 25 49 27 64 27 174 0 92 4 129 17 156 21 43 49 49
38 8z m-161 -49 c19 -7 21 -34 3 -34 -14 0 -37 20 -37 32 0 10 13 10 34 2z
m-174 -52 c0 -11 -41 -34 -48 -28 -3 4 3 13 14 21 21 16 34 19 34 7z m500 -97
c0 -48 -20 -125 -32 -125 -5 0 -8 5 -8 11 0 6 -9 8 -20 4 -11 -3 -20 -5 -20
-3 1 20 32 115 44 134 24 36 36 29 36 -21z m100 -83 c0 -5 -8 -24 -17 -43 -20
-40 -30 -22 -11 21 12 28 28 40 28 22z m-253 -86 c-8 -15 -18 -23 -21 -17 -4
5 -2 12 4 16 5 3 10 19 10 34 0 36 14 50 18 19 2 -13 -4 -36 -11 -52z m642
-543 c37 -32 37 -58 0 -34 -32 19 -33 7 -5 -36 28 -43 45 -103 28 -103 -6 0
-21 15 -33 33 -32 45 -49 60 -57 53 -3 -4 -2 -10 3 -14 19 -14 34 -50 45 -113
25 -131 38 -155 127 -226 44 -35 58 -73 47 -130 -9 -47 -21 -41 -20 10 1 24
-5 51 -13 61 -13 16 -137 106 -146 106 -3 0 13 -27 34 -60 32 -50 41 -73 46
-128 3 -37 10 -86 14 -110 9 -44 3 -56 -22 -46 -13 5 -14 -12 -10 -119 6 -129
0 -175 -17 -147 -6 8 -10 32 -10 53 0 20 -9 56 -19 80 -11 23 -21 52 -23 65
-2 12 -7 22 -13 22 -6 0 -9 -34 -7 -86 1 -55 -1 -83 -8 -79 -5 3 -10 18 -10
33 -1 25 -2 26 -14 9 -8 -10 -20 -15 -30 -11 -16 6 -23 -11 -8 -20 19 -11 33
-114 22 -155 -13 -49 -22 -51 -37 -11 -6 17 -17 30 -24 30 -12 0 -9 -50 7
-122 11 -50 -13 -29 -29 25 -28 94 -29 111 -9 138 11 13 22 33 24 44 2 11 10
19 16 18 16 -4 15 22 -1 39 -7 7 -30 35 -50 61 -38 50 -49 80 -22 57 8 -7 15
-20 15 -28 0 -12 3 -13 12 -4 9 9 7 21 -6 51 -19 41 -91 119 -102 109 -3 -3
-1 -23 5 -45 6 -21 11 -65 11 -98 0 -33 7 -85 15 -115 38 -134 57 -302 36
-314 -5 -3 -11 13 -15 37 -15 102 -19 117 -26 117 -23 0 -41 -189 -21 -228 11
-21 27 -62 35 -84 9 -30 -21 -21 -32 10 -27 71 -32 102 -32 194 0 96 -7 127
-36 156 -8 7 -18 21 -23 30 -16 28 -26 4 -10 -25 8 -14 13 -35 11 -45 -2 -11
1 -25 6 -31 16 -19 25 -94 13 -102 -15 -9 -14 -36 3 -87 8 -24 16 -55 20 -69
3 -14 27 -57 52 -94 44 -65 70 -145 46 -145 -13 0 -22 24 -22 59 0 18 -12 38
-34 60 -19 19 -40 47 -47 62 -6 16 -15 29 -20 29 -14 0 -38 62 -49 130 -12 78
-52 210 -62 210 -15 0 -8 -102 13 -178 11 -42 21 -94 21 -114 -1 -21 3 -38 9
-38 5 0 9 -4 9 -10 0 -5 32 -57 70 -114 72 -108 92 -158 40 -96 -17 19 -30 38
-30 43 0 4 -18 35 -40 67 -22 32 -40 61 -40 65 0 3 -10 21 -22 40 -16 24 -28
33 -40 29 -13 -4 -16 -1 -12 9 3 8 1 18 -5 22 -6 3 -14 -2 -18 -12 -10 -27
-36 -43 -49 -32 -7 5 -15 25 -18 44 -4 20 -13 35 -21 35 -7 0 -24 19 -38 43
-27 45 -77 97 -77 80 0 -6 9 -22 20 -36 11 -14 22 -38 24 -54 2 -15 1 -21 -1
-12 -2 9 -15 21 -29 27 -13 7 -24 16 -24 22 0 5 -7 10 -15 10 -8 0 -15 -4 -15
-10 0 -22 -29 -8 -38 19 -14 39 -60 71 -73 50 -5 -8 -9 -20 -9 -26 0 -7 -5
-13 -11 -13 -17 0 2 169 27 249 7 22 5 23 -20 17 -27 -7 -28 -6 -21 25 4 18 3
34 -3 38 -16 10 -21 141 -5 141 16 0 16 17 2 59 -14 38 -6 50 17 27 14 -14 16
-35 15 -117 -2 -87 0 -100 16 -106 36 -13 42 -34 22 -70 -20 -36 -26 -103 -9
-103 6 0 10 7 10 15 0 8 5 15 10 15 6 0 10 -7 10 -15 0 -27 16 -16 30 20 17
42 36 40 32 -4 -3 -40 8 -39 31 1 18 31 18 33 0 45 -13 10 -15 17 -7 30 17 27
37 29 29 3 -7 -21 -4 -22 23 -18 26 4 32 0 37 -19 7 -28 25 -31 25 -3 0 11 5
20 10 20 6 0 10 -14 10 -31 0 -24 4 -30 18 -27 9 2 18 13 20 26 4 30 20 28 28
-3 4 -16 0 -35 -11 -51 -9 -14 -14 -29 -10 -32 3 -4 10 -1 14 6 4 7 15 10 24
6 13 -4 17 -1 17 15 0 12 7 24 16 28 12 5 14 15 9 54 -6 40 -4 49 8 49 15 0
27 40 27 91 0 22 6 30 26 35 23 6 25 10 19 41 -6 34 -6 34 26 31 30 -3 33 0
42 32 12 48 5 138 -16 179 -9 19 -17 47 -17 62 0 15 -4 31 -10 34 -21 13 -11
36 14 33 17 -2 36 7 60 31 29 28 40 33 65 28 31 -6 31 -6 31 38 0 50 10 57 30
20 19 -36 28 -31 32 18 2 23 8 41 13 40 12 -2 13 5 19 106 2 46 0 82 -7 93 -9
14 -9 20 2 27 10 6 10 13 2 28 -5 11 -8 23 -5 26 8 8 81 -33 123 -70z m198
-927 c27 -19 67 -58 91 -85 48 -57 62 -63 62 -26 0 14 2 25 5 25 13 0 73 -35
108 -64 32 -25 40 -28 47 -16 8 13 12 12 24 -5 17 -22 21 -51 7 -59 -9 -6 -94
45 -105 63 -11 18 -26 13 -26 -9 0 -19 71 -100 88 -100 4 0 13 -10 21 -22 14
-22 13 -22 -5 -8 -10 8 -21 17 -24 20 -3 3 -27 16 -55 30 -83 40 -160 97 -204
147 -39 46 -98 143 -87 143 3 0 27 -16 53 -34z m68 -347 c31 -49 31 -51 -4
-33 -16 8 -40 31 -53 52 -33 53 -33 53 2 36 17 -9 42 -33 55 -55z m-117 10
c12 -22 22 -58 22 -80 0 -28 4 -39 15 -39 8 0 15 -7 15 -16 0 -11 -5 -14 -16
-10 -9 3 -20 6 -25 6 -5 0 -9 19 -9 41 0 36 -2 41 -20 36 -12 -3 -23 1 -29 10
-13 24 -40 8 -47 -27 -8 -39 -24 -39 -24 1 0 37 15 67 49 96 36 31 44 29 69
-18z m-1668 -3 c0 -16 -18 -31 -27 -22 -8 8 5 36 17 36 5 0 10 -6 10 -14z
m-170 -101 c0 -65 5 -113 12 -125 14 -22 6 -35 -17 -27 -12 5 -15 28 -15 132
0 77 4 125 10 125 6 0 10 -42 10 -105z m988 67 c2 -7 -5 -16 -17 -19 -12 -3
-21 -13 -21 -24 0 -20 -15 -26 -25 -9 -3 6 -15 10 -26 10 -10 0 -19 5 -19 10
0 6 6 10 13 10 8 0 22 9 32 20 20 22 56 23 63 2z m-828 -152 c0 -82 -2 -150
-5 -150 -14 0 -54 57 -55 75 0 11 9 28 20 38 17 14 20 29 20 102 0 50 4 85 10
85 6 0 10 -57 10 -150z m275 140 c4 -6 -6 -10 -24 -10 -25 0 -32 -5 -37 -26
-9 -35 18 -64 45 -47 21 13 32 8 24 -13 -7 -19 -62 -18 -85 3 -22 20 -22 31
-2 71 12 25 22 32 44 32 16 0 32 -4 35 -10z m45 -30 c0 -11 -7 -20 -15 -20
-17 0 -18 2 -9 24 9 23 24 20 24 -4z m113 5 c20 -8 43 -12 51 -9 24 9 58 -15
54 -38 -7 -47 -68 -50 -68 -3 0 22 -4 25 -39 25 -40 0 -57 11 -46 30 8 13 6
13 48 -5z m207 0 c0 -8 -4 -15 -10 -15 -5 0 -10 7 -10 15 0 8 5 15 10 15 6 0
10 -7 10 -15z m248 -33 c2 -7 -3 -12 -12 -12 -9 0 -16 7 -16 16 0 17 22 14 28
-4z m-258 -21 c0 -12 -20 -25 -27 -18 -7 7 6 27 18 27 5 0 9 -4 9 -9z m765
-28 c3 -16 10 -44 15 -64 12 -45 13 -139 2 -139 -5 0 -15 33 -22 73 -7 39 -16
89 -20 109 -4 20 -5 39 -2 43 12 12 22 4 27 -22z m113 -31 c6 -15 13 -35 16
-46 5 -15 9 -16 21 -6 8 7 15 23 15 36 0 13 5 24 10 24 6 0 10 -24 10 -52 0
-56 -16 -128 -28 -128 -6 0 -39 68 -62 125 -4 11 -13 33 -19 48 -6 15 -11 35
-11 44 0 14 2 14 19 -1 11 -10 24 -29 29 -44z m-928 32 c0 -8 -4 -12 -10 -9
-5 3 -10 10 -10 16 0 5 5 9 10 9 6 0 10 -7 10 -16z m-210 -21 c14 -6 35 -15
48 -18 12 -4 22 -13 22 -22 0 -12 -7 -14 -31 -9 -17 3 -40 1 -51 -5 -27 -15
-36 -1 -30 45 2 21 7 34 11 30 3 -5 17 -14 31 -21z m1350 5 c0 -7 -9 -24 -20
-38 -16 -20 -20 -22 -20 -7 0 9 5 17 10 17 6 0 10 9 10 20 0 11 5 20 10 20 6
0 10 -6 10 -12z m-1124 -52 c10 -8 16 -17 12 -21 -11 -11 -48 5 -48 21 0 18
11 18 36 0z m-138 -65 c37 -40 161 -60 224 -37 24 9 31 6 59 -22 35 -35 41
-37 71 -21 17 9 20 9 15 -4 -3 -8 -1 -19 5 -25 17 -17 -1 -32 -40 -32 -28 0
-41 7 -58 28 -12 15 -26 24 -30 20 -4 -4 -2 -14 5 -21 9 -12 5 -16 -20 -21
-44 -8 -139 -8 -138 2 2 15 -14 52 -22 52 -13 0 -11 -34 3 -48 9 -9 7 -12 -9
-12 -12 0 -23 6 -26 13 -3 9 -7 9 -19 0 -22 -18 -106 -14 -118 6 -7 13 -11 14
-21 4 -7 -7 -26 -13 -42 -13 -23 0 -28 4 -23 16 4 9 1 22 -4 30 -8 9 -7 20 4
42 18 35 37 51 73 62 54 16 83 11 111 -19z m-556 -8 c23 -20 22 -32 -3 -62
-18 -22 -22 -23 -46 -10 -26 14 -40 35 -29 46 3 3 14 -5 24 -17 23 -29 55 -21
50 12 -2 15 -11 24 -27 26 -19 3 -21 6 -10 13 19 12 20 12 41 -8z m341 -8 c-4
-16 -145 -13 -151 3 -3 10 14 12 75 10 45 -2 77 -7 76 -13z m-47 -45 c24 0 34
-5 34 -15 0 -11 -11 -15 -42 -15 -59 0 -88 9 -88 27 0 12 7 14 31 9 17 -3 47
-6 65 -6z m-136 -16 c0 -8 -5 -12 -10 -9 -6 4 -8 11 -5 16 9 14 15 11 15 -7z
m-82 -63 c20 -16 46 -31 57 -33 18 -3 20 -12 23 -111 l3 -107 -45 0 c-76 0
-76 -1 -76 115 0 98 1 103 23 110 20 6 19 8 -15 23 -39 18 -49 32 -22 32 8 0
32 -13 52 -29z m187 18 c9 -14 -4 -64 -14 -53 -5 5 -11 21 -15 37 -5 20 -3 27
8 27 8 0 18 -5 21 -11z m1570 -29 c29 -15 31 -20 50 -116 12 -58 91 -104 180
-104 37 0 65 -4 65 -10 0 -6 -30 -10 -70 -10 -40 0 -70 4 -70 10 0 6 -9 10
-20 10 -11 0 -49 31 -90 73 l-70 72 -223 0 c-122 0 -262 -6 -312 -12 -49 -7
-133 -17 -185 -23 -52 -6 -122 -15 -155 -21 -237 -39 -572 -81 -595 -74 -19 6
-36 36 -45 82 -5 26 -2 34 15 43 11 6 25 22 30 36 l10 24 322 0 c178 0 366 4
418 10 52 6 131 14 175 19 44 5 184 8 310 7 183 -1 236 -4 260 -16z m-275
-134 c0 -19 -4 -38 -10 -41 -12 -7 -24 39 -16 60 10 27 26 16 26 -19z m60 -11
c0 -25 -4 -45 -9 -45 -13 0 -17 9 -25 53 -6 33 -5 37 14 37 17 0 20 -6 20 -45z
m-192 23 c7 -7 12 -20 12 -30 0 -10 5 -18 10 -18 6 0 10 14 10 31 0 42 22 33
34 -15 8 -29 7 -39 -5 -47 -39 -24 -89 10 -89 61 0 32 9 37 28 18z m-209 -29
c12 -13 26 -19 36 -15 22 8 42 -4 25 -14 -9 -6 1 -15 31 -29 24 -11 66 -41 93
-66 28 -25 59 -45 70 -45 17 0 15 5 -14 30 -36 30 -35 40 0 18 17 -11 22 -10
29 1 8 12 14 12 43 -2 18 -9 47 -25 63 -37 35 -23 45 -25 45 -7 0 12 -62 57
-80 57 -5 0 -10 5 -10 10 0 6 5 10 11 10 19 0 152 -69 195 -101 l41 -31 40 20
c22 11 45 28 52 36 8 9 20 16 27 16 8 0 14 7 14 15 0 23 26 29 52 11 18 -13
19 -16 5 -16 -9 0 -27 -11 -39 -25 -11 -13 -25 -22 -30 -19 -8 5 -13 -31 -10
-69 2 -17 -3 -18 -40 -12 -85 12 -94 16 -136 54 -23 21 -44 36 -46 33 -3 -2 5
-12 17 -22 17 -14 19 -21 9 -32 -10 -12 -7 -17 13 -28 27 -15 55 -61 55 -92 0
-22 31 -83 57 -114 28 -32 74 -60 112 -68 70 -13 77 -39 26 -99 -42 -48 -43
-57 -10 -57 36 0 22 -23 -36 -60 -26 -18 -65 -45 -86 -61 -36 -29 -63 -43
-130 -69 -18 -7 -33 -17 -33 -23 0 -5 -12 -26 -27 -45 -20 -26 -24 -39 -16
-51 14 -22 72 -50 106 -51 16 0 26 -4 22 -10 -3 -5 -28 -10 -56 -10 -43 0 -49
-3 -49 -21 0 -11 -4 -17 -10 -14 -5 3 -10 18 -10 33 -1 40 -24 65 -54 60 -22
-5 -20 1 25 50 50 57 55 67 40 76 -12 8 -130 -24 -169 -45 -18 -11 -41 -19
-52 -19 -36 0 -10 26 53 54 34 15 73 33 87 39 72 32 150 123 150 175 0 20 -3
22 -22 16 -13 -4 -43 -24 -69 -45 -45 -39 -69 -48 -69 -29 0 6 4 10 9 10 5 0
12 7 15 16 6 16 -12 14 -64 -8 -14 -6 -36 -15 -50 -21 -14 -5 -36 -14 -50 -20
-14 -5 -35 -14 -47 -18 -13 -5 -33 -13 -45 -18 -76 -30 -140 -52 -188 -65 -30
-8 -63 -17 -72 -21 -10 -4 -18 -3 -18 3 0 13 46 34 140 66 124 41 150 54 144
71 -5 12 3 15 42 15 50 1 137 20 150 33 4 4 16 7 26 7 10 0 18 5 18 10 0 6 7
10 15 10 8 0 15 4 15 9 0 5 -42 11 -92 13 -67 3 -105 9 -136 24 -23 11 -39 23
-36 27 4 4 44 7 89 7 54 0 93 5 113 15 36 18 122 111 122 131 0 18 -1 18 -47
-5 -36 -19 -105 -43 -203 -71 -25 -8 -49 -17 -55 -22 -13 -11 -55 -10 -55 2 0
6 8 10 18 10 9 0 28 9 42 20 23 18 23 20 5 19 -11 0 -47 -13 -80 -29 -59 -30
-123 -41 -110 -19 4 6 36 24 71 41 35 17 64 35 64 41 0 14 -51 2 -115 -28 -31
-14 -71 -25 -90 -25 -33 0 -35 2 -29 26 8 32 6 31 -82 -38 -61 -47 -114 -114
-114 -143 0 -8 -4 -15 -10 -15 -5 0 -10 9 -10 19 0 11 5 23 10 26 6 3 10 15
10 26 0 29 105 130 165 158 28 13 58 27 67 32 10 5 23 9 30 9 13 0 48 29 48
41 0 14 -108 22 -140 10 -40 -13 -37 7 3 27 33 16 43 16 125 7 42 -5 81 -4
118 5 61 15 71 30 20 30 -43 0 -106 33 -168 88 l-48 44 0 -33 c0 -26 -10 -42
-48 -78 -32 -30 -67 -81 -102 -146 -29 -55 -65 -119 -81 -141 -34 -49 -114
-124 -155 -143 -77 -37 -74 -36 -112 -16 -45 25 -57 51 -12 29 50 -26 105 -10
160 45 115 116 250 351 200 351 -5 0 -10 -9 -10 -20 0 -24 -8 -25 -34 -5 -11
8 -29 12 -43 9 -26 -7 -28 -3 -10 28 23 42 56 67 43 33 -6 -17 2 -45 14 -45 4
0 11 15 16 32 5 18 20 38 33 44 40 20 45 31 22 44 -18 9 -22 19 -19 53 3 42 3
42 46 45 43 3 43 3 40 40 l-3 37 70 6 c39 3 73 6 77 7 4 1 16 -8 27 -19z m531
-30 c0 -5 -4 -9 -10 -9 -5 0 -10 7 -10 16 0 8 5 12 10 9 6 -3 10 -10 10 -16z
m78 -16 c-6 -16 -17 -42 -24 -60 -8 -17 -11 -38 -8 -47 5 -12 0 -16 -20 -16
-30 0 -36 29 -11 54 8 8 15 18 15 23 0 4 9 23 20 41 24 40 44 43 28 5z m-128
-2 c0 -11 -4 -23 -10 -26 -6 -4 -10 5 -10 19 0 14 5 26 10 26 6 0 10 -9 10
-19z m-1480 -31 c0 -22 -4 -40 -9 -40 -12 0 -22 45 -15 64 11 29 24 16 24 -24z
m178 -30 c1 -8 -14 -45 -33 -82 -30 -56 -41 -68 -61 -68 -22 0 -25 4 -22 27 2
19 12 32 31 41 23 11 27 19 27 58 0 43 1 45 27 42 15 -2 29 -10 31 -18z m1447
-30 c-3 -5 -10 -10 -16 -10 -5 0 -9 5 -9 10 0 6 7 10 16 10 8 0 12 -4 9 -10z
m-927 -52 c-11 -31 -11 -31 -20 -8 -6 16 -5 26 4 32 23 14 27 8 16 -24z m-155
-65 c-26 -40 -59 -73 -72 -73 -18 0 -13 9 32 55 47 50 66 59 40 18z m-643 -2
c0 -6 -4 -13 -10 -16 -14 -9 -13 -61 2 -85 16 -26 2 -39 -17 -14 -18 24 -19
78 -3 104 13 21 28 27 28 11z m84 -27 c9 -3 16 -14 16 -23 0 -42 -61 -57 -81
-19 -10 18 -8 24 7 35 20 14 34 16 58 7z m66 -29 c0 -8 -4 -17 -10 -20 -6 -4
-10 5 -10 20 0 15 4 24 10 20 6 -3 10 -12 10 -20z m150 -44 c0 -5 -3 -11 -7
-13 -5 -1 -22 -24 -40 -49 -30 -42 -31 -49 -20 -78 11 -31 30 -40 42 -21 4 6
15 8 25 5 11 -3 28 -1 40 5 13 7 20 7 20 0 0 -19 59 -11 72 10 13 21 28 27 28
11 0 -9 -13 -22 -92 -92 -53 -46 -62 -78 -26 -103 19 -13 20 -19 10 -41 -15
-32 -31 -32 -58 3 l-22 27 -26 -24 c-33 -31 -46 -78 -46 -162 0 -67 -15 -99
-40 -84 -5 3 -13 -1 -16 -9 -30 -79 -34 150 -4 240 11 32 20 67 20 77 0 17 16
24 22 8 2 -4 19 -11 39 -15 28 -5 39 -2 54 14 16 18 16 20 2 20 -10 0 -17 -4
-17 -10 0 -15 -29 -12 -46 4 -8 8 -14 28 -14 45 0 17 -4 31 -10 31 -18 0 -11
59 13 100 38 69 97 130 97 101z m83 -111 c-5 -19 -23 -29 -23 -12 0 7 20 32
26 32 1 0 0 -9 -3 -20z m-383 -88 c0 -4 -9 -13 -20 -20 -22 -13 -27 -3 -8 16
14 14 28 16 28 4z m1160 -2 c0 -5 -4 -10 -10 -10 -5 0 -10 5 -10 10 0 6 5 10
10 10 6 0 10 -4 10 -10z m-154 -15 c7 -18 74 -21 91 -4 15 15 33 3 33 -21 0
-22 -50 -61 -101 -78 -64 -22 -81 -10 -29 20 31 17 40 38 17 38 -6 0 -34 -12
-61 -26 -52 -28 -70 -25 -41 6 22 25 12 39 -16 21 -12 -7 -24 -10 -27 -7 -7 8
29 35 48 36 8 0 26 7 40 14 33 19 40 19 46 1z m184 -81 c0 -11 -34 -33 -51
-34 -9 0 -31 -7 -49 -16 -23 -12 -29 -19 -19 -25 7 -4 11 -9 9 -11 -21 -13
-69 -38 -75 -38 -10 0 18 26 35 32 12 5 11 7 -4 14 -13 5 -21 3 -24 -4 -2 -7
-8 -12 -13 -12 -6 0 -19 -9 -31 -20 -32 -30 -36 -14 -4 19 26 27 144 81 178
81 9 0 20 5 23 10 7 11 25 14 25 4z m-1083 -29 c4 -13 -98 -7 -112 6 -6 7 11
9 49 7 33 -2 61 -7 63 -13z m833 -120 c0 -2 -13 -26 -30 -52 -16 -26 -30 -53
-30 -61 0 -18 -34 -11 -37 8 -3 16 72 110 88 110 5 0 9 -2 9 -5z m-560 -16 c0
-6 -7 -17 -15 -25 -16 -16 -19 -7 -9 20 7 18 24 22 24 5z m-300 -19 c0 -6 -28
-10 -65 -10 -37 0 -65 4 -65 10 0 6 28 10 65 10 37 0 65 -4 65 -10z m443 -16
c10 -10 -12 -44 -28 -44 -18 0 -19 16 -2 35 13 16 21 18 30 9z m647 -4 c0 -5
-7 -10 -15 -10 -8 0 -15 5 -15 10 0 6 7 10 15 10 8 0 15 -4 15 -10z m0 -40 c0
-5 -13 -10 -30 -10 -16 0 -30 5 -30 10 0 6 14 10 30 10 17 0 30 -4 30 -10z
m-1330 -22 c-1 -16 -28 -53 -35 -47 -6 7 18 59 28 59 4 0 7 -6 7 -12z m1390 2
c0 -5 -6 -10 -14 -10 -8 0 -18 5 -21 10 -3 6 3 10 14 10 12 0 21 -4 21 -10z
m-692 -30 c2 -12 -6 -16 -34 -16 -29 0 -42 -6 -60 -29 l-24 -30 0 41 c0 22 3
44 7 48 4 4 30 6 58 4 35 -2 51 -7 53 -18z m342 -49 c-9 -18 -8 -28 8 -54 19
-33 19 -51 0 -99 -12 -32 -28 -37 -28 -8 0 10 -7 45 -15 77 -19 74 -19 79 6
104 26 26 47 12 29 -20z m-795 -1 c-3 -5 -42 -10 -86 -10 -46 0 -79 4 -79 10
0 6 35 10 86 10 54 0 83 -4 79 -10z m855 -20 c0 -5 -7 -10 -15 -10 -8 0 -15 5
-15 10 0 6 7 10 15 10 8 0 15 -4 15 -10z m90 0 c0 -5 -4 -10 -10 -10 -5 0 -10
5 -10 10 0 6 5 10 10 10 6 0 10 -4 10 -10z m-919 -48 c-6 -2 -11 -12 -11 -22
0 -10 -4 -22 -10 -25 -13 -8 -13 20 -1 43 5 9 13 26 17 37 7 19 8 18 12 -5 2
-13 -1 -26 -7 -28z m1089 -12 c0 -5 -11 -10 -25 -10 -14 0 -25 5 -25 10 0 6
11 10 25 10 14 0 25 -4 25 -10z m-1120 -70 c0 -11 -4 -20 -10 -20 -5 0 -10 9
-10 20 0 11 5 20 10 20 6 0 10 -9 10 -20z"/>
<path d="M2580 3786 c0 -24 26 -54 36 -43 11 10 -5 54 -21 61 -11 4 -15 -1
-15 -18z"/>
<path d="M2480 3770 c0 -5 5 -10 10 -10 6 0 10 5 10 10 0 6 -4 10 -10 10 -5 0
-10 -4 -10 -10z"/>
<path d="M2816 3499 c-16 -16 -38 -29 -50 -29 -12 0 -38 -11 -58 -25 -20 -14
-44 -25 -52 -25 -21 0 -20 -6 3 -44 20 -31 21 -35 21 -60 0 -9 15 -16 43 -19
23 -3 51 -7 62 -9 14 -2 19 2 17 13 -5 32 78 29 99 -3 6 -10 39 17 39 32 0 5
-17 10 -37 12 -43 4 -55 24 -21 37 46 19 53 22 78 36 l25 15 -22 6 c-13 4 -23
11 -23 16 0 6 -10 8 -22 5 -25 -7 -59 9 -57 26 3 24 -1 47 -8 46 -5 -1 -21
-14 -37 -30z m-51 -159 c3 -5 -1 -10 -9 -10 -9 0 -16 5 -16 10 0 6 4 10 9 10
6 0 13 -4 16 -10z"/>
<path d="M3033 3485 c-19 -21 -16 -27 7 -13 11 7 20 16 20 20 0 12 -14 9 -27
-7z"/>
<path d="M2360 3430 c0 -5 5 -10 10 -10 6 0 10 5 10 10 0 6 -4 10 -10 10 -5 0
-10 -4 -10 -10z"/>
<path d="M2356 3381 c-42 -24 -42 -35 -1 -51 31 -12 35 -18 30 -38 -6 -26 9
-52 31 -52 8 0 30 18 50 40 20 22 42 40 50 40 27 0 26 23 -2 46 -34 27 -71 30
-102 8 -13 -9 -26 -13 -30 -9 -4 4 -1 10 6 12 13 5 17 23 5 22 -5 0 -21 -8
-37 -18z m84 -71 c0 -5 -4 -10 -10 -10 -5 0 -10 5 -10 10 0 6 5 10 10 10 6 0
10 -4 10 -10z"/>
<path d="M3060 3350 c0 -5 7 -10 15 -10 8 0 15 5 15 10 0 6 -7 10 -15 10 -8 0
-15 -4 -15 -10z"/>
<path d="M2555 3290 c-3 -5 -17 -10 -30 -10 -29 0 -85 -51 -85 -79 0 -16 6
-21 24 -21 13 0 31 -3 40 -6 22 -8 21 22 0 34 -11 6 -14 16 -9 31 7 22 29 28
40 11 4 -6 17 -3 35 10 18 13 31 16 35 10 3 -5 14 -10 23 -10 9 0 34 -19 54
-42 45 -54 62 -43 22 15 -22 31 -38 43 -64 48 -19 3 -45 9 -57 13 -12 4 -24 2
-28 -4z"/>
<path d="M2950 3270 c0 -5 7 -10 15 -10 8 0 15 5 15 10 0 6 -7 10 -15 10 -8 0
-15 -4 -15 -10z"/>
<path d="M2330 3250 c-8 -5 -12 -11 -9 -14 3 -3 14 1 25 9 21 16 8 20 -16 5z"/>
<path d="M2583 3208 c-13 -6 -23 -15 -23 -20 0 -11 17 -10 25 2 3 6 22 10 41
10 19 0 34 5 34 10 0 13 -49 12 -77 -2z"/>
<path d="M2356 3124 c-10 -25 -1 -27 19 -4 15 17 16 20 3 20 -9 0 -19 -7 -22
-16z"/>
<path d="M2540 3111 c0 -13 8 -17 46 -25 23 -5 33 -3 37 8 5 12 0 14 -22 10
-16 -4 -32 -1 -35 5 -9 13 -26 15 -26 2z"/>
<path d="M2435 3084 c-16 -26 -16 -26 7 -19 37 12 52 27 36 36 -20 13 -24 11
-43 -17z"/>
<path d="M2370 3062 c0 -16 -7 -37 -15 -48 -21 -28 -18 -37 9 -30 22 5 26 1
41 -52 9 -31 20 -64 24 -72 11 -21 51 -26 51 -6 0 9 5 16 10 16 6 0 10 -4 10
-9 0 -5 36 -7 83 -4 68 4 85 9 100 27 16 19 19 19 29 5 10 -15 15 -15 50 -1
29 12 44 13 62 4 25 -11 36 -7 36 15 0 20 -85 101 -111 107 -85 18 -253 24
-324 11 -33 -6 -38 -5 -27 6 17 18 15 46 -4 53 -23 9 -24 8 -24 -22z m245 -52
c-3 -5 -17 -10 -30 -10 -13 0 -27 -4 -30 -10 -3 -5 -24 -10 -45 -10 -32 0 -41
-5 -52 -27 -20 -41 -38 -41 -38 1 0 28 5 38 28 50 31 17 177 22 167 6z m85
-35 c0 -14 -4 -25 -10 -25 -5 0 -10 4 -10 9 0 5 -3 16 -6 25 -4 11 -1 16 10
16 10 0 16 -9 16 -25z m-60 -75 c0 -20 -22 -26 -54 -14 -25 10 -19 22 9 16 15
-2 25 0 25 7 0 6 5 11 10 11 6 0 10 -9 10 -20z"/>
<path d="M2685 3070 c3 -5 15 -10 26 -10 10 0 19 5 19 10 0 6 -12 10 -26 10
-14 0 -23 -4 -19 -10z"/>
<path d="M2770 3051 c0 -11 26 -22 34 -14 12 12 5 23 -14 23 -11 0 -20 -4 -20
-9z"/>
<path d="M2750 2850 c0 -5 20 -9 44 -8 25 1 42 6 40 10 -7 12 -84 10 -84 -2z"/>
<path d="M2615 2831 c-6 -5 -50 -12 -100 -14 -108 -6 -103 -5 -87 -16 8 -4 34
-7 59 -5 25 2 51 1 57 -3 17 -11 69 -3 87 13 8 8 32 14 52 14 20 0 37 5 37 10
0 13 -93 13 -105 1z"/>
<path d="M3266 2723 c-10 -10 -7 -81 4 -88 6 -3 10 -1 10 4 0 19 23 12 52 -16
37 -36 35 -13 -4 47 -32 49 -50 64 -62 53z"/>
<path d="M3104 2685 c1 -19 8 -40 15 -47 11 -11 12 -9 6 11 -5 15 -3 26 5 31
16 10 6 40 -13 40 -9 0 -13 -11 -13 -35z"/>
<path d="M3280 2598 c1 -30 34 -75 45 -59 4 7 0 20 -9 30 -9 10 -16 23 -16 29
0 6 -4 14 -10 17 -6 3 -10 -4 -10 -17z"/>
<path d="M2272 1568 c3 -7 14 -18 25 -23 12 -6 28 -17 36 -24 13 -10 17 -9 26
7 9 17 8 19 -9 15 -11 -3 -20 -1 -20 4 0 5 -11 15 -25 21 -33 15 -38 15 -33 0z"/>
<path d="M1878 1409 c-10 -5 -18 -20 -18 -33 0 -53 72 -64 78 -13 6 47 -23 68
-60 46z"/>
<path d="M3290 1190 c0 -5 7 -10 15 -10 8 0 15 -4 15 -9 0 -8 60 -41 74 -41
11 0 -6 30 -18 30 -6 0 -22 9 -36 20 -27 21 -50 26 -50 10z"/>
<path d="M2107 623 c-11 -10 -8 -43 3 -43 6 0 10 11 10 25 0 26 -2 29 -13 18z"/>
<path d="M2085 460 c3 -5 8 -10 11 -10 2 0 4 5 4 10 0 6 -5 10 -11 10 -5 0 -7
-4 -4 -10z"/>
<path d="M3020 730 c0 -5 5 -10 10 -10 6 0 10 5 10 10 0 6 -4 10 -10 10 -5 0
-10 -4 -10 -10z"/>
<path d="M3825 2900 c-16 -4 -43 -13 -60 -20 -26 -11 -27 -14 -10 -18 10 -2
43 1 71 7 41 10 62 9 93 0 45 -13 63 -6 40 16 -17 17 -93 25 -134 15z"/>
<path d="M3715 2850 c-3 -5 -1 -10 4 -10 6 0 11 5 11 10 0 6 -2 10 -4 10 -3 0
-8 -4 -11 -10z"/>
<path d="M3768 2799 c-100 -15 -144 -59 -59 -59 32 0 63 -7 86 -20 43 -24 145
-29 145 -7 0 18 -27 41 -67 57 -18 7 -33 16 -33 20 0 14 -24 17 -72 9z"/>
<path d="M3954 2766 c3 -31 24 -66 40 -66 3 0 6 23 6 50 0 46 -2 50 -24 50
-22 0 -24 -4 -22 -34z"/>
<path d="M3870 2630 c0 -5 15 -10 34 -10 26 0 36 -5 41 -20 4 -13 15 -20 31
-20 19 0 24 5 24 24 0 13 -7 27 -16 30 -26 10 -114 7 -114 -4z"/>
<path d="M3820 2468 c0 -18 91 -100 138 -125 l42 -22 0 24 c0 18 -9 29 -32 40
-18 8 -55 33 -83 55 -53 42 -65 47 -65 28z"/>
<path d="M3980 2471 c0 -6 5 -13 10 -16 6 -3 10 1 10 9 0 9 -4 16 -10 16 -5 0
-10 -4 -10 -9z"/>
<path d="M3900 2290 c0 -5 6 -10 14 -10 8 0 28 -13 46 -30 18 -16 34 -30 36
-30 2 0 4 13 4 28 0 23 -6 30 -33 40 -41 15 -67 15 -67 2z"/>
<path d="M2266 1168 c-31 -30 -57 -89 -39 -87 8 0 93 104 93 113 0 15 -23 3
-54 -26z"/>
<path d="M1735 1088 c-36 -13 -75 -46 -75 -65 0 -18 5 -17 35 11 14 13 42 27
63 30 55 10 72 16 72 27 0 12 -57 10 -95 -3z"/>
<path d="M1703 994 c-18 -14 -37 -23 -42 -19 -15 9 -24 -15 -11 -30 9 -11 7
-21 -10 -45 -12 -17 -19 -36 -16 -43 3 -7 7 -3 11 11 4 12 11 22 16 22 5 0 9
5 9 11 0 6 6 16 13 24 7 7 25 26 38 42 14 17 42 35 65 41 l39 10 -40 1 c-29 1
-49 -6 -72 -25z"/>
<path d="M2149 993 c-13 -16 -12 -17 4 -4 16 13 21 21 13 21 -2 0 -10 -8 -17
-17z"/>
<path d="M1565 750 c-3 -5 -1 -10 4 -10 6 0 11 5 11 10 0 6 -2 10 -4 10 -3 0
-8 -4 -11 -10z"/>
<path d="M1380 720 c-7 -13 -21 -20 -39 -20 -29 0 -49 -17 -71 -58 -16 -31 -4
-42 16 -14 18 26 65 52 94 52 11 0 20 5 20 10 0 6 7 10 15 10 20 0 19 -10 -8
-78 -13 -31 -29 -76 -37 -99 -7 -24 -17 -43 -22 -43 -4 0 -8 -4 -8 -10 0 -23
18 -7 47 43 53 87 76 152 69 192 -6 31 -11 35 -36 35 -19 0 -33 -7 -40 -20z"/>
<path d="M1797 645 c-25 -18 -49 -105 -29 -105 11 0 55 95 51 108 -3 7 -10 6
-22 -3z"/>
<path d="M1621 619 c-13 -5 -39 -16 -57 -25 -18 -9 -37 -13 -43 -10 -5 4 -22
-9 -37 -29 -14 -19 -31 -35 -38 -35 -13 0 -70 -69 -63 -77 3 -3 25 9 49 26 95
69 149 104 153 99 2 -2 -7 -21 -21 -41 -38 -56 -12 -44 45 21 64 73 68 94 12
71z"/>
<path d="M3803 578 c-33 -37 -37 -57 -38 -198 -1 -143 -4 -154 -66 -242 -26
-36 -25 -38 19 -38 40 0 42 2 69 70 6 14 21 48 33 75 29 65 36 82 48 130 18
67 21 86 15 101 -9 23 -21 16 -34 -21 -7 -19 -17 -35 -22 -35 -10 0 -4 123 8
158 4 12 3 22 -2 22 -5 0 -19 -10 -30 -22z"/>
<path d="M3900 390 c0 -11 -4 -28 -9 -38 -21 -40 -70 -150 -82 -182 -7 -19
-16 -40 -21 -46 -4 -6 -5 -14 -1 -17 14 -15 34 -6 45 21 6 15 19 45 28 67 10
22 22 57 29 78 6 20 16 52 21 70 6 18 10 41 10 50 0 9 -4 17 -10 17 -5 0 -10
-9 -10 -20z"/>
<path d="M3980 171 c0 -11 -4 -23 -10 -26 -19 -12 -11 -45 10 -45 17 0 20 7
20 45 0 25 -4 45 -10 45 -5 0 -10 -9 -10 -19z"/>
</g>
</svg>
