<?xml version="1.0" standalone="no"?>
<!DOCTYPE svg PUBLIC "-//W3C//DTD SVG 20010904//EN"
 "http://www.w3.org/TR/2001/REC-SVG-20010904/DTD/svg10.dtd">
<svg version="1.0" xmlns="http://www.w3.org/2000/svg"
 width="704.000000pt" height="381.000000pt" viewBox="0 0 704.000000 381.000000"
 preserveAspectRatio="xMidYMid meet">
<metadata>
Created by potrace 1.11, written by Peter Selinger 2001-2013
</metadata>
<g transform="translate(0.000000,381.000000) scale(0.100000,-0.100000)"
fill="#000000" stroke="none">
<path d="M0 1905 l0 -1905 3520 0 3520 0 0 1905 0 1905 -3520 0 -3520 0 0
-1905z m929 1568 c63 -167 96 -233 117 -233 16 0 21 25 35 162 11 117 9 187
-5 221 -7 15 -1 17 59 17 l68 0 -6 -160 c-3 -88 -3 -160 -1 -160 16 0 103 53
123 74 21 22 23 29 13 51 -7 14 -15 64 -18 110 l-7 85 86 0 86 0 0 -64 c-1
-102 11 -178 27 -172 17 6 21 -11 29 -119 7 -83 29 -209 45 -251 6 -15 15 -22
24 -18 9 3 50 52 93 107 l78 102 3 -42 c2 -27 -5 -61 -21 -100 -14 -32 -36
-96 -50 -143 l-26 -85 -87 -67 c-47 -38 -92 -68 -100 -68 -7 0 -20 21 -28 48
l-14 47 -12 -30 c-89 -227 -101 -248 -161 -291 -64 -47 -81 -81 -87 -175 l-4
-75 43 -38 c57 -49 78 -59 174 -86 136 -38 143 -43 251 -205 106 -157 105
-156 42 -183 -22 -9 -30 -8 -43 4 -8 9 -15 21 -15 27 0 7 -13 39 -29 73 -24
52 -35 63 -70 77 -44 18 -131 23 -131 8 0 -16 39 -58 89 -96 55 -42 73 -76 96
-180 8 -38 25 -100 36 -136 26 -78 20 -113 -20 -133 l-28 -15 -6 57 c-6 53
-48 187 -77 243 -23 45 -63 78 -112 95 -61 20 -80 49 -97 144 -7 39 -16 70
-20 70 -10 0 -51 -74 -51 -93 0 -8 -7 -20 -15 -27 -17 -14 -20 -4 -33 115 -7
55 -22 113 -51 183 -22 56 -41 115 -41 130 0 15 11 63 25 107 13 43 23 81 21
82 -2 2 -19 -3 -38 -12 -39 -16 -74 -69 -119 -180 l-24 -60 -5 125 c-4 100 -9
132 -24 154 -23 36 -33 23 -42 -56 -10 -88 -24 -96 -157 -88 -111 7 -155 23
-101 36 96 24 234 99 234 128 0 12 52 67 103 108 25 21 29 32 42 143 8 65 15
124 15 129 0 5 2 7 5 4 3 -3 12 -63 20 -134 9 -71 18 -144 21 -163 l6 -35 25
33 c14 18 31 30 38 27 16 -6 122 89 157 140 23 35 27 52 33 164 6 126 14 155
37 132 7 -7 20 -12 30 -12 20 0 23 31 12 139 l-7 61 -32 -37 -33 -38 -43 13
c-24 8 -59 16 -78 19 l-34 6 7 -44 c24 -154 20 -219 -15 -219 -26 0 -55 64
-64 140 -10 85 -12 87 -44 56 -17 -16 -35 -51 -46 -86 -11 -38 -27 -65 -41
-75 -13 -8 -43 -41 -66 -72 l-43 -57 2 -135 c2 -113 0 -138 -14 -153 -9 -10
-21 -28 -27 -41 -11 -22 -107 -76 -136 -76 -9 0 -2 11 18 29 28 26 34 41 48
118 11 62 14 114 9 179 -11 146 7 183 144 301 l35 29 -52 139 c-58 155 -67
193 -77 312 l-6 82 33 0 34 0 63 -167z m1181 156 c0 -6 -7 -68 -16 -137 -12
-94 -14 -166 -10 -273 7 -145 7 -147 -17 -175 -28 -33 -47 -25 -47 19 0 18 -7
93 -16 167 -15 133 -14 178 12 370 3 28 0 25 -16 -20 -12 -31 -27 -113 -35
-190 -16 -154 -56 -290 -85 -290 -16 0 -30 73 -30 158 l0 84 -67 69 -66 69 -5
80 -5 80 202 0 c138 0 201 -3 201 -11z m385 -66 c45 -87 51 -144 28 -258 -7
-33 -16 -136 -21 -228 -9 -155 -11 -170 -32 -192 -29 -30 -56 -32 -70 -4 -6
11 -33 45 -60 74 -83 91 -96 132 -110 340 -8 120 -33 226 -76 333 -5 9 29 12
148 12 l153 0 40 -77z m605 21 c0 -93 -41 -246 -73 -272 -11 -10 -19 -3 -40
37 -29 52 -32 82 -21 214 l7 77 63 0 64 0 0 -56z m227 16 c-4 -29 -17 -53 -45
-84 -22 -24 -43 -53 -47 -66 -11 -36 -22 -7 -30 79 -3 42 -9 84 -11 94 -5 15
3 17 67 17 l72 0 -6 -40z m527 -130 c41 -124 56 -185 56 -226 0 -67 -14 -101
-36 -83 -8 6 -14 18 -14 26 0 18 -83 181 -167 327 -35 61 -63 114 -63 118 0 4
38 8 84 8 l84 0 56 -170z m1264 133 c-6 -21 -21 -51 -34 -66 -13 -16 -24 -34
-24 -42 0 -7 -6 -18 -14 -24 -8 -7 -17 -28 -21 -47 -8 -46 -104 -248 -113
-239 -4 3 -21 50 -39 103 l-32 97 3 -78 c1 -43 -1 -80 -6 -83 -11 -7 -238 111
-282 147 -33 28 -36 35 -37 82 l0 52 -16 -32 c-9 -18 -21 -33 -26 -33 -4 0
-38 21 -75 47 -37 26 -95 66 -130 90 -34 25 -60 48 -57 54 4 5 189 9 460 9
l453 0 -10 -37z m1058 9 c-8 -15 -20 -57 -26 -92 -7 -36 -16 -72 -20 -80 -4
-9 -11 -40 -15 -70 -11 -82 -18 -91 -189 -262 -85 -85 -96 -92 -125 -89 -8 2
-10 -2 -5 -10 4 -8 3 -10 -5 -5 -6 4 -9 11 -6 16 3 4 -2 14 -11 21 -9 7 -20
22 -24 33 -6 16 -11 10 -28 -37 -12 -32 -22 -65 -22 -75 0 -24 -29 -68 -82
-126 -42 -47 -68 -55 -68 -21 0 8 -5 26 -11 42 -14 37 -24 18 -34 -62 -10 -92
-23 -105 -99 -105 -68 0 -85 12 -59 41 17 20 22 76 27 292 2 106 -1 170 -7
174 -6 3 -7 1 -3 -5 3 -5 2 -12 -4 -14 -6 -2 -17 -59 -25 -128 -17 -145 -31
-197 -57 -211 -14 -8 -27 0 -65 40 -67 70 -124 147 -138 188 -13 39 -3 138 40
358 13 72 26 144 28 160 2 17 7 36 11 43 5 9 131 12 522 12 l515 0 -15 -28z
m544 -51 c0 -75 -3 -84 -50 -179 -27 -55 -50 -104 -50 -108 0 -5 -16 -26 -35
-46 -19 -20 -35 -41 -35 -47 0 -6 -6 -11 -12 -11 -7 0 -31 -13 -54 -28 -64
-42 -154 -102 -213 -141 -92 -61 -132 -50 -108 30 8 24 12 50 9 57 -2 6 1 12
7 12 6 0 8 7 5 15 -4 8 -1 15 5 15 6 0 11 10 11 23 0 13 4 27 9 33 6 5 11 20
13 34 2 14 9 34 15 45 19 35 63 167 58 175 -3 4 1 13 9 19 8 7 17 24 21 39 3
15 16 53 28 84 l22 58 173 0 172 0 0 -79z m-3092 -231 c84 -39 143 -96 190
-185 20 -38 54 -85 76 -105 77 -69 92 -88 104 -137 13 -48 74 -154 93 -161 22
-8 6 -22 -26 -22 -25 0 -35 -4 -35 -16 0 -12 11 -15 56 -13 52 3 58 1 83 -29
21 -25 31 -30 55 -25 15 3 60 0 98 -7 62 -12 77 -11 138 4 48 13 95 17 158 15
79 -4 93 -7 131 -34 41 -28 96 -94 86 -103 -2 -3 -27 16 -55 41 -28 26 -65 53
-82 61 -28 14 -35 14 -92 -5 -55 -19 -75 -21 -189 -14 -126 6 -129 6 -134 -15
-5 -20 -11 -22 -52 -17 -37 4 -50 1 -68 -16 l-23 -20 0 41 c0 31 -4 42 -15 42
-9 0 -15 -9 -15 -24 0 -13 -3 -38 -6 -55 -6 -28 -10 -31 -44 -31 -21 0 -43 7
-50 15 -9 11 -17 12 -30 5 -39 -21 -78 -11 -129 33 -62 53 -191 136 -237 152
l-36 12 32 7 c61 12 111 6 158 -18 l48 -24 25 39 c27 44 49 55 77 40 15 -8 23
-6 37 9 17 19 17 20 -1 20 -26 0 -44 19 -44 45 -1 15 -4 13 -14 -11 -8 -18
-20 -35 -27 -40 -18 -10 -101 -5 -116 8 -21 17 -15 37 12 44 20 5 23 9 14 20
-6 8 -17 14 -25 14 -15 0 -36 34 -27 44 11 10 -59 5 -102 -8 l-40 -12 33 -13
c17 -7 32 -19 32 -26 0 -7 10 -20 23 -28 19 -14 20 -18 7 -26 -20 -14 -96 -25
-116 -17 -13 5 -15 14 -10 41 4 19 6 35 4 35 -92 12 -142 31 -153 57 -8 21 6
29 79 43 88 16 127 26 164 41 28 12 39 11 80 -5 45 -18 162 -28 162 -14 0 4
-16 19 -35 34 -33 25 -38 26 -79 15 -25 -6 -59 -11 -76 -11 -50 0 -180 77
-166 98 9 15 89 32 145 32 28 0 51 3 51 8 -1 21 -25 27 -122 28 -90 0 -111 4
-128 19 -26 23 -25 35 2 35 27 0 22 5 -26 25 -36 15 -37 15 -27 -4 26 -48 -9
-71 -48 -32 -11 11 -28 24 -39 30 -27 14 -209 34 -241 26 -23 -6 -24 -5 -11 9
8 8 37 26 64 40 47 25 55 26 228 26 177 0 179 0 246 -30z m-509 -110 c26 -25
41 -46 37 -55 -3 -8 -1 -17 4 -20 6 -4 10 -22 10 -41 0 -33 1 -34 41 -34 l42
0 -6 -35 c-5 -33 -3 -37 35 -61 56 -36 134 -116 190 -197 26 -37 59 -72 73
-77 14 -5 25 -15 25 -22 0 -7 17 -22 38 -33 46 -25 82 -86 66 -112 -13 -21
-64 -30 -74 -13 -20 32 -172 39 -215 10 -39 -26 -45 -25 -45 5 0 16 -6 25 -15
25 -10 0 -15 -10 -15 -30 0 -39 -27 -65 -76 -75 -45 -8 -54 -18 -54 -62 0 -41
-25 -44 -63 -9 -43 40 -78 156 -47 156 6 0 10 -7 10 -15 0 -22 27 -18 33 5 4
15 14 20 41 20 33 0 38 4 52 40 9 23 34 54 57 73 37 29 47 32 100 30 87 -2 57
16 -41 26 -45 5 -92 15 -104 23 -13 8 -31 17 -41 21 -20 7 -20 9 21 -56 13
-22 21 -45 19 -52 -8 -20 -98 -66 -117 -60 -23 7 -48 30 -95 88 -40 50 -99 87
-172 106 -35 10 -41 16 -45 42 -3 16 -1 32 3 35 5 3 29 -2 55 -11 91 -31 249
-29 249 4 0 9 -27 14 -105 17 -116 5 -184 19 -174 36 4 7 30 8 75 4 60 -6 68
-5 63 8 -8 22 -41 29 -112 24 -68 -3 -68 -5 -5 74 21 26 69 86 108 135 38 48
74 91 80 95 22 16 52 6 94 -32z m1478 -52 c84 -72 131 -117 206 -193 l78 -80
-6 -55 c-12 -113 -28 -210 -34 -210 -3 0 -21 37 -40 82 -38 90 -49 93 -27 8 8
-30 13 -56 12 -58 -4 -3 -174 94 -194 111 -17 13 -31 48 -98 231 -30 82 -52
151 -49 154 3 3 38 -27 79 -66 41 -40 77 -72 80 -72 4 0 -8 24 -26 53 -35 55
-58 101 -58 117 0 21 41 9 77 -22z m-1258 -10 l20 -33 -42 -8 c-53 -9 -83 -2
-97 22 -18 35 -2 51 50 51 43 0 50 -3 69 -32z m176 -71 c7 -18 23 -41 34 -51
33 -30 27 -46 -16 -46 -21 0 -51 -7 -67 -15 -15 -8 -38 -15 -51 -15 -32 0
-138 78 -131 97 3 8 6 17 6 19 0 2 15 4 33 5 17 0 55 9 82 19 75 28 94 26 110
-13z m3111 -22 c19 -8 33 -22 36 -36 3 -13 17 -63 32 -112 29 -98 36 -206 11
-173 -8 10 -16 24 -19 30 -3 7 -8 6 -16 -4 -9 -12 -10 -11 -5 8 5 18 2 22 -14
22 -24 0 -91 -56 -88 -73 1 -7 -3 -11 -10 -10 -6 1 -24 -14 -39 -35 -15 -20
-31 -39 -34 -42 -24 -21 -71 -93 -67 -103 7 -18 -29 -19 -44 -1 -13 16 -64 20
-54 4 3 -5 1 -10 -4 -10 -6 0 -11 -5 -11 -11 0 -6 -6 -17 -14 -24 -7 -8 -25
-60 -40 -117 -15 -57 -31 -112 -36 -123 -8 -18 -9 -18 -10 5 -1 14 -2 43 -2
65 l0 39 -25 -29 c-62 -76 -74 -95 -67 -106 4 -7 3 -9 -3 -6 -6 4 -15 -22 -22
-68 -17 -106 -87 -265 -116 -265 -9 0 -15 14 -17 43 -3 37 -6 42 -25 39 -29
-4 -30 9 -3 26 27 17 80 100 80 126 0 10 -18 36 -40 57 -45 43 -48 61 -21 103
11 16 17 36 13 44 -3 9 -1 13 5 9 9 -6 56 78 53 97 -1 5 3 12 8 15 6 3 12 13
14 21 2 8 8 20 15 27 6 7 19 34 28 60 10 27 35 66 56 88 103 107 119 128 113
148 -3 11 -7 27 -8 35 -3 19 35 56 75 74 16 7 29 17 29 22 0 4 6 6 14 3 8 -3
24 6 37 21 13 15 17 21 9 15 -8 -7 -19 -13 -24 -13 -6 0 9 13 34 29 25 16 65
48 90 70 48 43 58 45 126 16z m-1540 -58 c4 -26 50 -101 101 -164 l46 -56 -28
-116 c-39 -162 -50 -180 -73 -118 -6 18 -19 42 -27 52 -10 14 -8 2 6 -41 l22
-60 -28 -44 c-16 -25 -36 -67 -46 -94 -19 -56 -34 -68 -44 -37 -13 41 -27 22
-20 -25 10 -68 -12 -54 -57 36 -34 70 -37 82 -37 165 -1 50 3 96 8 104 5 8 22
15 38 15 l28 2 2 79 c4 119 23 275 36 296 20 32 68 36 73 6z m-2936 -213 c386
-121 411 -126 493 -102 38 12 41 11 64 -18 78 -94 106 -125 109 -121 2 2 -5
30 -16 62 -11 32 -20 64 -20 72 0 7 25 -7 58 -32 106 -85 104 -83 98 -112 -8
-40 6 -58 33 -44 11 7 28 23 37 36 22 34 37 21 31 -27 -5 -35 4 -85 28 -163 3
-11 -2 -5 -11 13 -17 30 -44 44 -44 22 0 -22 28 -76 50 -95 27 -25 49 -61 28
-49 -7 4 -32 23 -56 42 -34 28 -45 33 -55 23 -9 -10 -7 -17 13 -33 14 -11 39
-31 55 -45 l30 -24 -44 21 c-23 12 -40 17 -37 12 3 -6 0 -12 -6 -15 -21 -8 5
-28 64 -49 l53 -19 -50 5 c-35 4 -56 13 -69 28 -33 40 -79 149 -84 199 -4 46
-5 48 -32 42 -26 -5 -29 -2 -39 33 -6 22 -11 47 -11 58 0 15 -3 16 -15 6 -22
-18 -61 -4 -114 39 -54 45 -102 71 -131 71 -11 0 -46 13 -78 29 -70 35 -154
61 -199 61 -19 0 -59 13 -91 29 -31 16 -71 32 -88 35 -18 4 -67 22 -110 41
-68 30 -86 34 -139 30 -58 -5 -59 -5 -30 9 17 9 34 15 40 16 5 0 133 -39 285
-86z m3207 -130 l44 -25 -8 -47 c-12 -74 -9 -114 16 -171 32 -74 22 -92 -26
-47 -21 19 -40 32 -44 28 -7 -8 -41 -108 -58 -168 -12 -44 -38 -61 -117 -78
-30 -7 -32 -5 -43 36 -21 79 -15 120 34 218 12 25 33 77 45 115 26 79 78 165
99 165 8 0 34 -12 58 -26z m-3216 -18 c42 -54 81 -67 217 -77 70 -4 128 -8
130 -9 2 0 0 -27 -4 -59 -8 -73 -2 -100 32 -140 21 -26 33 -31 69 -31 46 0 61
-16 50 -51 -7 -22 -16 -24 -33 -7 -20 20 -24 2 -8 -36 8 -20 11 -36 7 -36 -22
0 -109 71 -173 142 -87 97 -126 123 -207 139 -58 11 -66 16 -102 62 -23 28
-38 56 -34 64 3 8 8 26 11 39 8 30 21 30 45 0z m2567 -70 c15 -8 36 -23 46
-35 l19 -21 -40 0 c-36 0 -186 -28 -250 -46 -32 -9 -29 3 9 34 94 81 155 100
216 68z m-302 -61 c-36 -46 -48 -82 -50 -140 -1 -44 -4 -51 -36 -73 l-34 -23
-13 45 c-10 35 -19 47 -39 52 -45 12 -111 -3 -184 -40 -39 -20 -81 -36 -93
-35 -19 0 -17 3 10 16 19 10 40 33 54 60 24 47 71 93 95 93 23 0 88 -30 81
-37 -4 -3 -24 -9 -44 -13 l-38 -8 38 -1 c21 0 47 -6 57 -11 17 -9 21 -4 35 42
8 28 15 58 15 65 0 17 20 16 44 -2 23 -17 56 -20 56 -5 0 18 49 62 61 55 6 -4
0 -20 -15 -40z m-2093 -111 c26 -19 58 -51 71 -72 13 -21 47 -56 76 -78 48
-37 50 -39 26 -42 -43 -5 -79 20 -123 87 -36 56 -51 69 -117 104 -42 22 -76
43 -76 47 0 17 100 -15 143 -46z m1240 7 c8 -8 4 -11 -13 -11 -20 0 -22 -2
-10 -10 8 -5 27 -10 43 -10 17 0 27 -5 27 -15 0 -12 -14 -15 -67 -15 -51 0
-81 -6 -121 -25 -67 -31 -86 -32 -79 -5 4 16 0 20 -19 20 -13 0 -24 3 -24 8 0
8 71 52 115 70 34 14 132 9 148 -7z m2173 -135 c-9 -29 -57 -138 -108 -242
-80 -163 -93 -185 -96 -157 -2 17 1 56 7 85 6 35 6 57 -1 65 -7 8 -5 19 5 34
9 12 13 28 10 37 -4 10 -2 13 5 8 7 -4 15 0 19 11 4 10 23 45 43 78 20 33 50
85 67 115 16 30 36 65 44 78 14 22 14 22 17 -18 2 -22 -4 -65 -12 -94z m-1836
114 c0 -5 -24 -10 -52 -10 -38 0 -49 3 -38 10 20 13 90 13 90 0z m25 -39 c38
-7 39 -7 17 -19 -29 -16 -184 -12 -189 5 -7 19 100 28 172 14z m307 -13 c9 -7
21 -31 27 -53 8 -31 8 -44 -4 -62 -8 -12 -15 -29 -15 -38 0 -12 -13 -15 -64
-15 -60 0 -64 -2 -70 -25 -4 -14 -11 -25 -16 -25 -6 0 -10 -6 -10 -12 0 -17
56 -48 85 -48 34 0 38 -14 14 -44 -15 -19 -30 -26 -53 -26 -29 0 -38 7 -68 53
-34 51 -56 127 -37 127 19 0 8 27 -15 40 -47 25 -37 35 33 33 70 -2 90 -16 45
-33 -26 -10 -26 -11 -8 -25 15 -11 20 -11 26 -1 4 8 18 11 33 8 18 -3 25 0 25
11 0 8 7 20 15 27 8 7 15 23 15 37 0 28 17 22 30 -11 5 -13 3 -26 -4 -35 -8
-11 -8 -13 3 -10 44 15 34 79 -15 101 -23 11 -38 8 -103 -15 -42 -15 -81 -27
-86 -27 -18 1 90 54 135 66 58 16 63 16 82 2z m-616 -13 c-10 -8 -39 -17 -65
-20 -25 -3 -81 -17 -123 -31 -42 -14 -87 -24 -100 -22 -19 3 -12 10 41 37 72
37 120 48 206 50 54 0 58 -1 41 -14z m3112 -144 c-1 -76 -6 -137 -10 -135 -4
3 -42 -9 -85 -26 -43 -16 -84 -30 -91 -30 -7 0 -10 -5 -6 -12 4 -6 3 -8 -4 -5
-14 9 -43 -3 -36 -14 3 -5 -2 -6 -10 -3 -18 7 -64 -17 -94 -50 -12 -13 -63
-78 -112 -143 -113 -148 -109 -143 -148 -188 -18 -20 -35 -35 -38 -32 -4 4 78
178 127 270 12 21 18 45 15 53 -3 8 -2 12 3 9 5 -3 28 33 51 80 47 96 146 207
235 262 67 42 184 103 197 103 6 0 9 -50 6 -139z m-3108 94 c7 -8 10 -26 8
-40 -4 -17 -1 -25 9 -25 11 0 11 -5 -3 -29 -20 -34 -72 -51 -157 -51 -44 0
-62 5 -95 29 -22 16 -43 34 -46 40 -4 5 21 23 54 40 57 29 60 30 60 10 0 -11
10 -33 22 -49 16 -23 30 -30 54 -30 32 0 32 1 39 60 6 48 10 60 25 60 10 0 23
-7 30 -15z m189 -14 c14 -19 33 -31 58 -35 57 -11 73 -16 73 -28 0 -5 11 -23
25 -40 14 -16 25 -33 25 -38 0 -15 -61 -30 -80 -20 -28 15 -87 12 -122 -6 -17
-9 -45 -14 -65 -12 -29 4 -37 0 -46 -19 -5 -13 -13 -23 -17 -23 -11 0 -59 -47
-54 -53 7 -7 -48 -60 -77 -74 -13 -7 -43 -17 -66 -23 -38 -9 -44 -15 -55 -52
l-12 -41 44 -38 c42 -37 50 -66 10 -41 -11 6 -26 9 -33 6 -10 -3 -16 5 -21 27
-10 49 -23 60 -66 53 -39 -6 -130 25 -130 44 0 5 24 13 53 17 51 8 51 8 19 15
-46 11 -49 17 -10 25 61 14 138 46 147 63 8 15 3 17 -51 14 -44 -3 -72 2 -108
17 -27 12 -61 21 -77 21 l-28 1 33 28 33 28 -39 -1 c-23 0 -50 7 -68 19 l-29
19 33 7 c19 4 53 20 76 37 l42 31 50 -17 c40 -14 44 -17 24 -20 -75 -8 -88
-24 -30 -35 34 -7 138 -80 147 -103 5 -13 8 -13 24 1 11 11 25 14 38 10 18 -5
131 35 131 48 0 2 -38 1 -85 -1 -76 -4 -125 1 -114 13 3 2 45 11 94 20 102 18
141 45 169 120 13 33 24 45 49 53 51 16 64 14 86 -17z m-3119 -103 c0 -13 -12
-72 -25 -133 -22 -92 -61 -342 -90 -571 l-7 -52 87 -67 c47 -37 88 -65 91 -63
9 10 27 226 26 308 -2 47 -11 163 -22 258 -11 95 -20 196 -19 225 l0 52 20
-55 c25 -70 31 -110 74 -480 46 -402 41 -372 72 -368 19 2 29 11 34 31 20 75
57 442 76 757 6 109 9 41 13 -354 l5 -490 30 -7 c19 -6 32 -4 36 3 10 15 26
109 40 231 6 54 13 96 15 94 3 -2 54 -357 54 -374 0 -2 36 -3 79 -3 45 0 83
-5 86 -10 8 -13 -25 -58 -100 -138 -50 -54 -54 -56 -71 -41 -11 9 -45 31 -78
49 -51 29 -68 33 -135 34 -95 2 -134 21 -214 104 -57 60 -108 88 -194 107 -27
5 -33 11 -34 33 0 15 -4 36 -9 47 -8 18 -9 17 -9 -6 -1 -27 -30 -71 -66 -101
-30 -25 -35 -5 -25 102 5 52 7 96 5 98 -2 2 -17 -6 -34 -19 -17 -12 -33 -20
-36 -18 -2 3 2 41 9 85 14 76 13 100 -2 79 -4 -6 -15 -16 -24 -24 -17 -13 -18
-1 -18 215 0 131 4 223 9 215 6 -10 13 -11 29 -2 13 7 23 7 27 2 3 -6 9 -72
14 -148 9 -143 22 -194 59 -226 20 -18 21 -18 31 2 12 21 31 215 31 314 0 53
-3 62 -31 88 -35 33 -35 38 17 142 35 68 38 71 100 67 17 -1 36 6 43 14 19 22
31 20 31 -6z m1835 -143 c0 -39 8 -95 17 -125 10 -30 27 -96 39 -147 19 -83
29 -103 101 -210 123 -180 157 -273 158 -428 1 -80 12 -186 25 -237 4 -16 3
-28 -1 -27 -12 0 -159 235 -183 293 -11 25 -24 46 -30 46 -5 0 -11 -38 -12
-84 -4 -82 -11 -107 -26 -92 -5 4 -10 80 -13 169 -4 112 -9 170 -19 187 l-14
24 -15 -22 c-22 -34 -36 -27 -75 37 -41 65 -68 94 -61 64 38 -168 126 -462
163 -549 12 -28 44 -73 72 -100 l49 -48 0 42 0 43 38 -7 c45 -8 82 -26 103
-50 19 -22 31 -175 14 -181 -5 -1 -26 20 -45 49 -31 45 -35 48 -38 28 -3 -15
11 -45 37 -82 l41 -60 -29 7 c-20 4 -49 -2 -92 -20 -35 -14 -111 -42 -169 -62
-75 -25 -118 -46 -152 -74 -26 -21 -54 -39 -62 -39 -21 0 -21 34 0 91 21 60
62 283 70 377 11 144 -38 313 -126 436 -42 58 -47 101 -21 162 l22 49 -23 -23
c-19 -19 -22 -32 -23 -100 0 -54 7 -97 22 -142 48 -140 57 -204 59 -435 1
-121 0 -232 -2 -247 -10 -53 -31 -42 -153 81 -92 92 -131 140 -175 215 -32 53
-64 96 -72 96 -11 0 -6 -16 18 -62 27 -55 31 -72 30 -133 -1 -38 5 -94 12
-122 8 -29 11 -55 7 -57 -3 -2 -29 30 -56 71 -28 42 -63 85 -78 97 -38 28 -57
66 -57 114 0 42 -53 135 -103 180 l-25 24 0 -35 c0 -18 -9 -52 -21 -75 -12
-23 -21 -47 -21 -55 0 -7 22 -30 49 -51 81 -61 121 -111 121 -150 0 -19 9 -45
22 -61 17 -22 24 -51 32 -136 10 -102 13 -110 44 -141 37 -40 42 -83 13 -119
-19 -23 -20 -23 -55 -6 -44 21 -69 59 -97 152 -15 51 -30 79 -55 101 -31 29
-34 37 -35 90 -2 105 -8 116 -69 145 -102 49 -101 50 -59 -40 21 -44 44 -83
52 -88 42 -25 48 -113 14 -213 -21 -63 -23 -65 -60 -68 -38 -3 -242 23 -258
34 -13 8 -11 25 6 44 8 9 18 44 21 77 6 55 5 62 -14 72 -16 9 -31 6 -74 -14
-29 -14 -63 -25 -75 -25 -26 0 -48 30 -58 77 -8 41 -16 41 -49 2 -52 -62 -32
-214 34 -253 33 -19 373 -91 495 -104 62 -7 6 -10 -243 -11 -194 0 -321 3
-318 8 8 12 -8 47 -39 90 -22 30 -25 44 -25 128 0 179 -1 177 364 549 260 266
256 261 412 488 111 163 192 258 363 424 108 105 157 138 219 148 l42 7 0 -49
1 -49 22 54 c12 30 28 56 35 59 11 3 12 -32 8 -184 -6 -204 1 -299 22 -299 10
0 14 51 15 246 2 229 3 248 21 268 36 40 51 23 51 -54z m1533 -95 c6 -91 -9
-116 -75 -126 -26 -4 -62 -13 -80 -20 -42 -18 -113 -18 -138 0 -11 7 -38 12
-60 11 -51 -2 -85 12 -78 33 5 11 3 13 -8 6 -8 -5 -51 -11 -97 -14 -68 -4 -82
-3 -82 10 0 27 14 37 56 44 42 7 83 33 119 75 11 13 37 41 58 63 20 21 37 43
37 49 0 16 53 -2 81 -27 29 -27 71 -31 89 -9 7 9 36 27 64 40 l50 24 30 -45
c22 -35 30 -59 34 -114z m-421 -155 c81 -28 180 -39 235 -26 28 6 53 9 55 7 3
-2 -1 -17 -9 -33 -38 -82 -231 -85 -302 -5 -10 12 -42 28 -72 37 -29 8 -56 20
-59 25 -10 16 104 12 152 -5z m2960 -43 c-15 -3 -16 -5 -2 -25 8 -12 15 -32
15 -45 0 -13 4 -21 9 -18 5 4 11 1 13 -5 3 -8 16 -6 42 5 21 9 40 16 42 16 1
0 -1 -12 -6 -27 -8 -26 -17 -50 -69 -183 -12 -30 -28 -64 -37 -75 -13 -17 -16
-18 -24 -5 -5 8 -10 34 -10 56 0 60 -18 70 -71 39 -48 -27 -99 -33 -99 -12 0
8 3 17 7 21 4 3 8 12 9 19 1 7 29 58 63 115 33 57 61 107 61 111 0 17 23 28
48 23 19 -4 22 -7 9 -10z m-2633 -287 c51 -65 80 -112 91 -148 8 -29 19 -127
25 -227 5 -96 12 -189 16 -207 9 -44 -23 -178 -53 -226 -32 -51 -48 -38 -32
27 7 29 9 69 4 109 -4 34 -7 94 -6 134 1 69 0 73 -29 93 -36 26 -38 43 -6 63
27 18 36 56 41 168 2 60 0 70 -14 67 -12 -2 -18 -20 -23 -74 -8 -83 -22 -124
-42 -124 -31 0 -36 -75 -6 -112 16 -21 17 -31 9 -59 -9 -29 -6 -44 20 -104 16
-38 26 -74 22 -78 -5 -5 -39 -15 -75 -24 -60 -13 -76 -22 -144 -84 -74 -66
-103 -81 -117 -59 -4 6 -22 17 -40 24 -47 20 -52 49 -21 116 23 49 26 68 26
168 l0 114 39 66 c52 88 62 132 64 273 2 115 3 118 25 122 26 5 31 -4 59 -105
9 -31 20 -55 25 -52 4 3 8 36 8 73 0 76 8 131 20 131 4 0 19 -44 33 -97 21
-80 25 -91 26 -58 0 22 -6 71 -14 110 -8 38 -15 71 -15 72 0 11 18 -9 84 -92z
m2556 11 c0 -2 -7 -7 -16 -10 -8 -3 -12 -2 -9 4 6 10 25 14 25 6z m-3540 -532
c19 -20 59 -49 87 -66 78 -44 174 -158 134 -158 -5 0 -24 17 -42 37 l-32 37 7
-75 c8 -95 3 -101 -91 -97 l-68 3 -13 40 c-36 110 -43 151 -36 233 3 45 9 82
13 82 3 0 22 -17 41 -36z m-2253 -73 c-4 -47 -10 -115 -13 -150 -8 -72 4 -77
26 -12 7 23 20 41 27 41 27 0 203 -64 203 -73 0 -6 -11 -24 -23 -41 -59 -78
-80 -126 -81 -189 -1 -48 -5 -62 -16 -60 -56 6 -149 28 -172 39 -40 20 -179
131 -216 172 -18 21 -51 63 -74 96 l-40 58 18 39 c23 53 59 90 79 83 8 -4 26
-25 40 -47 16 -27 26 -36 29 -27 2 8 10 35 18 60 11 39 19 48 68 72 56 28 94
37 119 29 11 -3 13 -22 8 -90z m2725 -111 c47 -30 70 -57 82 -96 6 -19 2 -23
-29 -28 -28 -6 -44 -18 -71 -57 -20 -27 -43 -50 -52 -50 -36 -3 -58 3 -84 22
-34 24 -38 24 -38 -3 0 -37 -11 -68 -24 -68 -14 0 -46 83 -46 117 0 12 5 25
10 28 6 3 10 14 10 24 0 31 50 85 103 113 66 34 82 34 139 -2z m740 -110 c80
-107 135 -223 154 -322 8 -46 17 -91 20 -100 5 -17 -7 -18 -154 -18 -181 0
-173 -4 -192 99 -18 96 -17 99 38 103 l47 3 -52 30 -51 31 25 64 c15 36 39 85
54 110 15 25 30 56 34 69 4 12 10 19 14 15 4 -5 32 -43 63 -84z m-2012 -68
c18 -15 23 -36 36 -141 8 -72 10 -129 5 -134 -16 -16 -89 12 -111 43 -28 40
-28 98 1 213 11 42 33 48 69 19z m1474 -23 c95 -48 96 -49 96 -148 1 -60 5
-92 15 -105 16 -21 19 -53 9 -80 -5 -13 -22 -16 -79 -16 l-72 0 -16 40 -15 40
44 46 c29 30 44 55 44 72 0 23 -8 17 -70 -50 -39 -42 -85 -86 -104 -97 -35
-22 -91 -28 -101 -11 -15 24 -89 3 -118 -34 -5 -6 -6 18 -3 54 6 62 8 67 56
111 28 25 50 55 50 65 0 32 49 120 73 132 45 22 125 14 191 -19z m-484 -18 c0
-45 -21 -55 -95 -47 -71 7 -115 23 -115 41 0 27 26 35 117 35 l93 0 0 -29z
m-2783 -72 c31 -54 60 -74 171 -119 45 -19 82 -37 82 -41 0 -4 -17 -17 -37
-29 l-36 -21 -119 17 -118 18 0 130 c1 145 1 145 57 45z m3539 -165 c57 -48
104 -88 104 -90 0 -2 -42 -4 -93 -4 l-93 0 -13 77 c-7 42 -15 82 -18 90 -10
25 9 13 113 -73z"/>
<path d="M3399 1936 c-45 -41 -46 -42 -18 -38 19 3 36 15 50 39 12 19 20 36
18 38 -2 1 -25 -16 -50 -39z"/>
<path d="M6545 1491 c-3 -5 -1 -12 5 -16 5 -3 10 1 10 9 0 18 -6 21 -15 7z"/>
</g>
</svg>
