<?xml version="1.0" encoding="UTF-8" standalone="no"?>
<!-- Created with Inkscape (http://www.inkscape.org/) -->

<svg
   xmlns:dc="http://purl.org/dc/elements/1.1/"
   xmlns:cc="http://creativecommons.org/ns#"
   xmlns:rdf="http://www.w3.org/1999/02/22-rdf-syntax-ns#"
   xmlns:svg="http://www.w3.org/2000/svg"
   xmlns="http://www.w3.org/2000/svg"
   xmlns:sodipodi="http://sodipodi.sourceforge.net/DTD/sodipodi-0.dtd"
   xmlns:inkscape="http://www.inkscape.org/namespaces/inkscape"
   width="744.09448"
   height="1052.3622"
   id="svg2"
   version="1.1"
   inkscape:version="0.48.4 r9939"
   sodipodi:docname="layered_circles.svg">
  <defs
     id="defs4" />
  <sodipodi:namedview
     id="base"
     pagecolor="#ffffff"
     bordercolor="#666666"
     borderopacity="1.0"
     inkscape:pageopacity="0.0"
     inkscape:pageshadow="2"
     inkscape:zoom="0.90277708"
     inkscape:cx="329.7609"
     inkscape:cy="-37.966685"
     inkscape:document-units="cm"
     inkscape:current-layer="layer1"
     showgrid="false"
     units="cm" />
  <metadata
     id="metadata7">
    <rdf:RDF>
      <cc:Work
         rdf:about="">
        <dc:format>image/svg+xml</dc:format>
        <dc:type
           rdf:resource="http://purl.org/dc/dcmitype/StillImage" />
        <dc:title></dc:title>
      </cc:Work>
    </rdf:RDF>
  </metadata>
  <g
     inkscape:label="Layer 1"
     inkscape:groupmode="layer"
     id="layer1"
     transform="translate(0,0.00130762)">
    <path
       style="font-size:medium;font-style:normal;font-variant:normal;font-weight:normal;font-stretch:normal;text-indent:0;text-align:start;text-decoration:none;line-height:normal;letter-spacing:normal;word-spacing:normal;text-transform:none;direction:ltr;block-progression:tb;writing-mode:lr-tb;text-anchor:start;baseline-shift:baseline;color:#000000;fill:#ff00ff;fill-opacity:1;stroke:none;stroke-width:33.78691100999999700;marker:none;visibility:visible;display:inline;overflow:visible;enable-background:accumulate;font-family:Sans;-inkscape-font-specification:Sans"
       d="M 535.28125 339.09375 C 521.72271 339.09375 508.47725 340.68956 495.71875 343.6875 L 214.71875 343.6875 C 204.20483 341.68693 193.39349 340.625 182.375 340.625 C 171.35651 340.625 160.54444 341.68693 150.03125 343.6875 L 16.90625 343.6875 A 16.895145 16.895145 0 0 0 0 360.59375 L 0 1035.4688 A 16.895145 16.895145 0 0 0 16.90625 1052.375 L 154.21875 1052.375 C 161.74193 1053.38 169.39757 1053.9062 177.15625 1053.9062 C 184.91493 1053.9062 192.57057 1053.38 200.09375 1052.375 L 530.0625 1052.375 L 691.78125 1052.375 A 16.895145 16.895145 0 0 0 708.65625 1035.4688 L 708.65625 547.34375 C 710.21883 537.73793 711.03125 527.8594 711.03125 517.75 C 711.03125 507.66249 710.21271 497.80365 708.65625 488.21875 L 708.65625 360.59375 A 16.895145 16.895145 0 0 0 691.78125 343.6875 L 574.84375 343.6875 C 562.08416 340.68956 548.83979 339.09375 535.28125 339.09375 z M 33.78125 377.5 L 75.5 377.5 C 59.101538 390.26427 44.926057 405.91934 33.78125 423.78125 L 33.78125 377.5 z M 289.28125 377.5 L 426.46875 377.5 C 385.96015 409.93868 359.5625 460.21194 359.5625 517.75 C 359.5625 611.47893 429.59376 686.03928 516.625 695.46875 C 427.18534 702.40984 354.34375 778.02496 354.34375 873.625 C 354.34375 933.97476 383.37613 986.36833 427.28125 1018.5625 L 282.03125 1018.5625 C 324.78158 986.25984 352.90625 934.58061 352.90625 875.1875 C 352.90625 781.46123 282.8718 706.95693 195.84375 697.53125 C 285.26966 690.57033 358.125 614.90201 358.125 519.3125 C 358.125 460.8635 330.89121 409.88414 289.28125 377.5 z M 644.125 377.5 L 674.875 377.5 L 674.875 409.09375 C 665.94594 397.2861 655.59736 386.6857 644.125 377.5 z M 535.28125 380.1875 C 608.53761 380.1875 666.53312 434.21464 674.875 501.125 L 674.875 534.375 C 666.53312 601.29356 608.53761 655.375 535.28125 655.375 C 456.04057 655.375 394.6875 592.1079 394.6875 517.75 C 394.6875 443.39229 456.04057 380.1875 535.28125 380.1875 z M 182.375 381.71875 C 261.61568 381.71875 323 444.95479 323 519.3125 C 323 593.6704 261.61568 656.9375 182.375 656.9375 C 103.13432 656.9375 41.78125 593.6704 41.78125 519.3125 C 41.78125 444.95479 103.13432 381.71875 182.375 381.71875 z M 33.78125 614.8125 C 62.014445 660.0877 109.6261 691.19749 163.84375 697.03125 C 110.71999 701.11539 63.445804 729.44272 33.78125 771.78125 L 33.78125 614.8125 z M 674.875 626.40625 L 674.875 772.28125 C 646.27705 730.20694 600.47116 701.54504 548.625 695.96875 C 599.5322 692.05209 645.06708 665.85577 674.875 626.40625 z M 530.0625 736.0625 C 609.30318 736.0625 670.6875 799.26729 670.6875 873.625 C 670.6875 947.98285 609.30318 1011.25 530.0625 1011.25 C 450.82182 1011.25 389.46875 947.98285 389.46875 873.625 C 389.46875 799.26729 450.82182 736.0625 530.0625 736.0625 z M 177.15625 737.59375 C 256.39693 737.59375 317.75 800.82979 317.75 875.1875 C 317.75 949.5454 256.39693 1012.8125 177.15625 1012.8125 C 97.915573 1012.8125 36.53125 949.5454 36.53125 875.1875 C 36.53125 800.82979 97.915573 737.59375 177.15625 737.59375 z M 674.875 975 L 674.875 1018.5625 L 632.84375 1018.5625 C 649.14272 1006.6135 663.39874 991.89143 674.875 975 z M 33.78125 978.65625 C 44.501209 993.95865 57.515251 1007.4051 72.28125 1018.5625 L 33.78125 1018.5625 L 33.78125 978.65625 z "
       transform="translate(0,-0.00130762)"
       id="rect2985-4" />
    <path
       style="font-size:medium;font-style:normal;font-variant:normal;font-weight:normal;font-stretch:normal;text-indent:0;text-align:start;text-decoration:none;line-height:normal;letter-spacing:normal;word-spacing:normal;text-transform:none;direction:ltr;block-progression:tb;writing-mode:lr-tb;text-anchor:start;baseline-shift:baseline;color:#000000;fill:#0000ff;fill-opacity:1;stroke:none;stroke-width:33.78691101;marker:none;visibility:visible;display:inline;overflow:visible;enable-background:accumulate;font-family:Sans;-inkscape-font-specification:Sans"
       d="m 355.43751,341.45458 c -6.78204,0 -13.38841,0.77414 -19.75,2.21875 l -318.781257,0 A 16.895145,16.895145 0 0 0 3.6520006e-6,360.57958 l 0,336.3125 0,338.56262 A 16.895145,16.895145 0 0 0 16.906253,1052.3609 l 338.531257,0 336.34375,0 a 16.895145,16.895145 0 0 0 16.875,-16.9062 l 0,-318.81262 c 1.44345,-6.36076 2.21875,-12.9701 2.21875,-19.75 0,-6.78204 -0.77414,-13.38841 -2.21875,-19.75 l 0,-316.5625 a 16.895145,16.895145 0 0 0 -16.875,-16.90625 l -316.59375,0 c -6.36159,-1.44461 -12.96796,-2.21875 -19.75,-2.21875 z m -321.656257,36.03125 249.906257,0 c -11.25832,14.99031 -17.9375,33.57834 -17.9375,53.65625 0,44.80742 33.3603,82.0869 76.4375,88.5625 -42.73786,6.42223 -75.88284,43.19697 -76.40625,87.53125 -44.33428,0.52341 -81.10902,33.66838 -87.53125,76.40625 -6.4756,-43.07721 -43.75508,-76.4375 -88.562507,-76.4375 -21.091886,0 -40.546856,7.38137 -55.90625,19.6875 l 0,-249.40625 z m 313.593757,0 16.125,0 c 26.29229,3.84255 46.1875,26.21988 46.1875,53.65625 0,30.17893 -24.071,54.25 -54.25,54.25 -30.1789,0 -54.25,-24.07107 -54.25,-54.25 0,-27.43637 19.89527,-49.8137 46.1875,-53.65625 z m 79.8125,0 247.6875,0 0,247.6875 c -14.99635,-11.27419 -33.59398,-17.96875 -53.6875,-17.96875 -44.80743,0 -82.0869,33.36029 -88.5625,76.4375 -6.42223,-42.73787 -43.19697,-75.88284 -87.53125,-76.40625 -0.52341,-44.33428 -33.66839,-81.10902 -76.40625,-87.53125 43.0772,-6.4756 76.4375,-43.75508 76.4375,-88.5625 0,-20.07791 -6.67918,-38.66594 -17.9375,-53.65625 z m -71.75,176.5625 c 30.179,0 54.25,24.07106 54.25,54.25 0,1.99423 -0.10739,3.97029 -0.3125,5.90625 -21.57453,9.11791 -38.92019,26.48444 -48.03125,48.0625 -1.93525,0.20529 -3.91263,0.3125 -5.90625,0.3125 -1.99362,0 -3.971,-0.10721 -5.90625,-0.3125 -9.11706,-21.5784 -26.45124,-38.94621 -48.03125,-48.0625 -0.20511,-1.93596 -0.3125,-3.91202 -0.3125,-5.90625 0,-30.17894 24.0711,-54.25 54.25,-54.25 z M 89.687503,642.64208 c 30.178937,0 54.249997,24.07106 54.249997,54.25 0,30.17894 -24.08034,54.28125 -54.249997,54.28125 -30.16965,0 -54.25,-24.10231 -54.25,-54.28125 0,-30.17894 24.071065,-54.25 54.25,-54.25 z m 177.156257,0 c 1.99423,0 3.97029,0.10739 5.90625,0.3125 9.1163,21.58003 26.4841,38.9142 48.0625,48.03125 0.20529,1.93524 0.3125,3.91263 0.3125,5.90625 0,1.99362 -0.10714,3.97075 -0.3125,5.90625 -21.58706,9.11485 -38.94765,26.47544 -48.0625,48.0625 -1.9355,0.20536 -3.91263,0.3125 -5.90625,0.3125 -30.16966,0 -54.25,-24.10231 -54.25,-54.28125 0,-30.17894 24.07106,-54.25 54.25,-54.25 z m 177.1875,0 c 30.17894,0 54.25,24.07106 54.25,54.25 0,30.17894 -24.08034,54.28125 -54.25,54.28125 -1.99362,0 -3.97101,-0.10721 -5.90625,-0.3125 -9.11106,-21.57806 -26.45672,-38.94459 -48.03125,-48.0625 -0.20511,-1.93596 -0.3125,-3.91202 -0.3125,-5.90625 0,-1.99423 0.10747,-3.97055 0.3125,-5.90625 21.56572,-9.11995 38.88737,-26.46053 48,-48.03125 1.94572,-0.20721 3.9326,-0.3125 5.9375,-0.3125 z m 177.15625,0 c 27.52308,0 49.95053,20.02173 53.6875,46.4375 l 0,15.625 c -3.73827,26.42035 -26.17289,46.46875 -53.6875,46.46875 -30.16966,0 -54.25,-24.10231 -54.25,-54.28125 0,-30.17894 24.07106,-54.25 54.25,-54.25 z m -442.9375,67.53125 c 6.42785,42.73471 43.19438,75.88279 87.53125,76.40625 0.53866,44.3182 33.6807,81.04601 76.40625,87.46875 -43.07951,6.47357 -76.4375,43.78468 -76.4375,88.59375 0,21.0945 7.37986,40.53942 19.6875,55.90622 l -251.656257,0 0,-251.65622 c 15.35963,12.31539 34.807807,19.71875 55.90625,19.71875 44.810207,0 82.081257,-33.36345 88.562507,-76.4375 z m 354.375,0 c 6.48125,43.07405 43.75229,76.4375 88.5625,76.4375 20.0968,0 38.69184,-6.68892 53.6875,-17.96875 l 0,249.90622 -249.4375,0 c 12.30764,-15.3668 19.6875,-34.81172 19.6875,-55.90622 0,-44.80907 -33.35799,-82.12018 -76.4375,-88.59375 42.72555,-6.42274 75.86759,-43.15055 76.40625,-87.46875 44.33687,-0.52346 81.1034,-33.67154 87.53125,-76.40625 z m -177.1875,21.0625 c 1.99423,0 3.97055,0.10747 5.90625,0.3125 9.11253,21.57111 26.46524,38.91117 48.03125,48.03125 0.20503,1.9357 0.3125,3.91202 0.3125,5.90625 0,30.17894 -24.07106,54.25 -54.25,54.25 -30.17894,0 -54.25,-24.07106 -54.25,-54.25 0,-1.99423 0.10747,-3.97055 0.3125,-5.90625 21.59103,-9.11917 38.91208,-26.44022 48.03125,-48.03125 1.9357,-0.20503 3.91202,-0.3125 5.90625,-0.3125 z m 0,177.15625 c 30.17894,0 54.25,24.07106 54.25,54.25 0,30.17898 -24.08032,54.28122 -54.25,54.28122 -30.16968,0 -54.25,-24.10224 -54.25,-54.28122 0,-30.17894 24.07106,-54.25 54.25,-54.25 z"
       id="rect2985-5"
       inkscape:connector-curvature="0" />
    <path
       style="font-size:medium;font-style:normal;font-variant:normal;font-weight:normal;font-stretch:normal;text-indent:0;text-align:start;text-decoration:none;line-height:normal;letter-spacing:normal;word-spacing:normal;text-transform:none;direction:ltr;block-progression:tb;writing-mode:lr-tb;text-anchor:start;baseline-shift:baseline;color:#000000;fill:#008000;fill-opacity:1;stroke:none;stroke-width:33.78691101;marker:none;visibility:visible;display:inline;overflow:visible;enable-background:accumulate;font-family:Sans;-inkscape-font-specification:Sans"
       d="m 356.09376,341.44175 c -9.59459,0 -19.00293,0.75974 -28.1875,2.21875 l -310.781257,0 A 16.895145,16.895145 0 0 0 0.21875365,360.56675 l 0,327.03125 c -0.153045,3.01372 -0.2187499979994,6.04366 -0.2187499979994,9.09375 0,3.04977 0.065739997999,6.08035 0.2187499979994,9.09375 l 0,329.6564 a 16.895145,16.895145 0 0 0 16.90624935,16.9062 l 338.968757,0 335.90625,0 a 16.895145,16.895145 0 0 0 16.875,-16.9062 l 0,-305.68765 c 2.00567,-10.66568 3.0625,-21.64827 3.0625,-32.875 0,-11.22673 -1.05683,-22.20932 -3.0625,-32.875 l 0,-303.4375 a 16.895145,16.895145 0 0 0 -16.875,-16.90625 l -307.8125,0 c -9.15037,-1.44782 -18.53677,-2.21875 -28.09375,-2.21875 z M 34,377.473 l 214.53126,0 c -42.88709,32.3798 -70.71673,83.56513 -71.125,140.96875 C 118.42433,518.86701 66.242021,547.92813 34,592.25425 L 34,377.473 z m 305.28126,0 33.625,0 c 70.95291,8.29784 126.03125,68.44409 126.03125,142.25 0,0.74159 -0.0202,1.47995 -0.0312,2.21875 -71.226,13.89401 -127.31806,70.13141 -141.09375,141.03125 -0.57286,0.007 -1.14429,0.0312 -1.71875,0.0312 -0.63711,0 -1.27111,-0.023 -1.90625,-0.0312 -13.69001,-70.93407 -69.73627,-127.24252 -140.9375,-141.21875 -0.009,-0.67654 -0.0312,-1.35238 -0.0312,-2.03125 0,-73.80591 55.1057,-133.95216 126.0625,-142.25 z m 124.40625,0 211.40625,0 0,211.1875 C 642.7251,546.53235 591.97239,519.11023 534.78126,518.62925 534.43245,461.15966 506.60811,409.88896 463.68751,377.473 z M 178.71876,553.4105 c 0.63711,0 1.27111,0.023 1.90625,0.0312 13.69594,70.9265 69.70994,127.24429 140.90625,141.21875 0.009,0.67659 0.0312,1.35232 0.0312,2.03125 0,0.8216 -0.0177,1.61933 -0.0312,2.4375 -71.05452,13.94743 -127.00788,70.05359 -140.84375,140.78125 -0.65589,0.009 -1.31076,0.0312 -1.96875,0.0312 -78.876619,0 -142.87501,-63.70522 -142.87501,-143.25 0,-79.54479 63.998391,-143.28125 142.87501,-143.28125 z m 354.53125,0.21875 c 73.19244,0 133.52507,54.84912 141.84375,126.3125 l 0,33.875 C 666.77508,785.284 606.44245,840.1605 533.25001,840.1605 c -0.57446,0 -1.14589,-0.0245 -1.71875,-0.0312 -13.77643,-70.90367 -69.89353,-127.14106 -141.125,-141.03125 -0.0111,-0.73873 -0.0312,-1.47723 -0.0312,-2.21875 0,-0.73108 0.0205,-1.45913 0.0312,-2.1875 71.22819,-13.8886 127.3441,-70.13296 141.125,-141.03125 0.57286,-0.007 1.14429,-0.0312 1.71875,-0.0312 z m -314.59375,5.4375 c 47.05905,13.65044 84.10529,50.84881 97.5,98.28125 -47.07261,-13.64359 -84.10247,-50.83932 -97.5,-98.28125 z m 274.84375,0.15625 c -13.44936,47.42275 -50.55793,84.59678 -97.65625,98.1875 13.44911,-47.42325 50.55759,-84.59668 97.65625,-98.1875 z M 356.09376,730.7855 c 0.57446,0 1.14589,0.0245 1.71875,0.0312 13.77569,70.89984 69.86775,127.13724 141.09375,141.03125 0.0111,0.7388 0.0312,1.47716 0.0312,2.21875 0,79.54478 -63.96713,143.25 -142.84375,143.25 -78.87662,0 -142.875,-63.70522 -142.875,-143.25 0,-0.82505 0.0175,-1.64716 0.0312,-2.46875 71.05378,-13.94729 127.00715,-70.05464 140.84375,-140.78125 0.66626,-0.009 1.33157,-0.0312 2,-0.0312 z m 39.75,5.59375 c 47.09866,13.59082 84.20714,50.76425 97.65625,98.1875 -47.09866,-13.59082 -84.20714,-50.76426 -97.65625,-98.1875 z m -79.8125,0.0937 c -13.49321,47.16866 -50.40373,84.14641 -97.25,97.78125 13.49597,-47.17832 50.39007,-84.15317 97.25,-97.78125 z M 34,801.1292 c 32.236831,44.31324 84.40987,73.37732 143.37501,73.8125 0.28792,58.89359 29.46244,111.28715 74.15625,143.5937 l -217.53126,0 0,-217.4062 z m 641.09376,3.96875 0,213.43745 -214.46875,0 c 44.64952,-32.27112 73.80704,-84.57993 74.15625,-143.4062 57.19108,-0.48104 107.94382,-27.90311 140.3125,-70.03125 z"
       id="rect2985-8"
       inkscape:connector-curvature="0" />
    <path
       style="font-size:medium;font-style:normal;font-variant:normal;font-weight:normal;font-stretch:normal;text-indent:0;text-align:start;text-decoration:none;line-height:normal;letter-spacing:normal;word-spacing:normal;text-transform:none;direction:ltr;block-progression:tb;writing-mode:lr-tb;text-anchor:start;baseline-shift:baseline;color:#000000;fill:#ff0000;fill-opacity:1;stroke:none;stroke-width:11.08099937;marker:none;visibility:visible;display:inline;overflow:visible;enable-background:accumulate;font-family:Sans;-inkscape-font-specification:Sans"
       d="m 354.37502,343.27268 c -5.33209,0 -10.63074,0.1405 -15.90625,0.375 l -321.343763,0 A 16.895145,16.895145 0 0 0 0.21875765,360.55393 l 0,337.3125 0,337.56267 a 16.895145,16.895145 0 0 0 16.90624935,16.9062 l 337.250013,0 337.625,0 a 16.895145,16.895145 0 0 0 16.875,-16.9062 l 0,-674.87517 a 16.895145,16.895145 0 0 0 -16.875,-16.90625 l -321.71875,0 c -5.27551,-0.2345 -10.57416,-0.375 -15.90625,-0.375 z m -320.37501,34.1875 168.71876,0 C 128.84106,412.62582 68.983251,472.64893 34.00001,546.74143 l 0,-169.28125 z m 472.03126,0 169.0625,0 0,170 c -34.93301,-74.41902 -94.95135,-134.72004 -169.0625,-170 z m -151.65625,1.625 c 176.63399,0 319.0625,142.73116 319.0625,318.78125 0,176.05009 -142.42851,318.74997 -319.0625,318.74997 -176.63401,0 -319.15626,-142.69988 -319.15626,-318.74997 0,-176.05009 142.52225,-318.78125 319.15626,-318.78125 z m 320.71875,469.15625 0,170.28127 -169.78125,0 c 74.43935,-35.21303 134.7355,-95.64249 169.78125,-170.28127 z m -641.09376,0.71875 c 35.097561,74.31136 95.23128,134.46432 169.43751,169.56252 l -169.43751,0 0,-169.56252 z"
       id="path2991"
       inkscape:connector-curvature="0" />
    <path
       style="font-size:medium;font-style:normal;font-variant:normal;font-weight:normal;font-stretch:normal;text-indent:0;text-align:start;text-decoration:none;line-height:normal;letter-spacing:normal;word-spacing:normal;text-transform:none;direction:ltr;block-progression:tb;writing-mode:lr-tb;text-anchor:start;baseline-shift:baseline;color:#000000;fill:#000000;fill-opacity:1;stroke:none;stroke-width:33.78691101;marker:none;visibility:visible;display:inline;overflow:visible;enable-background:accumulate;font-family:Sans;-inkscape-font-specification:Sans"
       d="M 17.125007,343.64767 A 16.895145,16.895145 0 0 0 0.21875765,360.55392 l 0,674.87518 a 16.895145,16.895145 0 0 0 16.90624935,16.9062 l 674.875003,0 a 16.895145,16.895145 0 0 0 16.875,-16.9062 l 0,-674.87518 a 16.895145,16.895145 0 0 0 -16.875,-16.90625 l -674.875003,0 z m 16.875003,33.8125 641.09375,0 0,641.06253 -641.09375,0 0,-641.06253 z"
       id="rect2985"
       inkscape:connector-curvature="0" />
  </g>
</svg>
