  0
SECTION
  2
HEADER
  9
$ACADVER
  1
AC1014
  9
$HANDSEED
  5
FFFF
  9
$MEASUREMENT
 70
     1
  0
ENDSEC
  0
SECTION
  2
TABLES
  0
TABLE
  2
VPORT
  5
8
330
0
100
AcDbSymbolTable
 70
     4
  0
VPORT
  5
2E
330
8
100
AcDbSymbolTableRecord
100
AcDbViewportTableRecord
  2
*ACTIVE
 70
     0
 10
0.0
 20
0.0
 11
1.0
 21
1.0
 12
210.0
 22
148.5
 13
0.0
 23
0.0
 14
10.0
 24
10.0
 15
10.0
 25
10.0
 16
0.0
 26
0.0
 36
1.0
 17
0.0
 27
0.0
 37
0.0
 40
341.0
 41
1.24
 42
50.0
 43
0.0
 44
0.0
 50
0.0
 51
0.0
 71
     0
 72
   100
 73
     1
 74
     3
 75
     0
 76
     0
 77
     0
 78
     0
  0
ENDTAB
  0
TABLE
  2
LTYPE
  5
5
330
0
100
AcDbSymbolTable
 70
     1
  0
LTYPE
  5
14
330
5
100
AcDbSymbolTableRecord
100
AcDbLinetypeTableRecord
  2
BYBLOCK
 70
     0
  3

 72
    65
 73
     0
 40
0.0
  0
LTYPE
  5
15
330
5
100
AcDbSymbolTableRecord
100
AcDbLinetypeTableRecord
  2
BYLAYER
 70
     0
  3

 72
    65
 73
     0
 40
0.0
  0
LTYPE
  5
16
330
5
100
AcDbSymbolTableRecord
100
AcDbLinetypeTableRecord
  2
CONTINUOUS
 70
     0
  3
Solid line
 72
    65
 73
     0
 40
0.0
  0
ENDTAB
  0
TABLE
  2
LAYER
  5
2
100
AcDbSymbolTable
 70
2
  0
LAYER
  5
50
100
AcDbSymbolTableRecord
100
AcDbLayerTableRecord
  2
0
 70
0
  6
CONTINUOUS
  0
LAYER
  5
51
100
AcDbSymbolTableRecord
100
AcDbLayerTableRecord
  2
Layer_1
 70
0
  6
CONTINUOUS
  0
ENDTAB
  0
TABLE
  2
STYLE
  5
3
330
0
100
AcDbSymbolTable
 70
     1
  0
STYLE
  5
11
330
3
100
AcDbSymbolTableRecord
100
AcDbTextStyleTableRecord
  2
STANDARD
 70
     0
 40
0.0
 41
1.0
 50
0.0
 71
     0
 42
2.5
  3
txt
  4

  0
ENDTAB
  0
TABLE
  2
VIEW
  5
6
330
0
100
AcDbSymbolTable
 70
     0
  0
ENDTAB
  0
TABLE
  2
UCS
  5
7
330
0
100
AcDbSymbolTable
 70
     0
  0
ENDTAB
  0
TABLE
  2
APPID
  5
9
330
0
100
AcDbSymbolTable
 70
     2
  0
APPID
  5
12
330
9
100
AcDbSymbolTableRecord
100
AcDbRegAppTableRecord
  2
ACAD
 70
     0
  0
ENDTAB
  0
TABLE
  2
DIMSTYLE
  5
A
330
0
100
AcDbSymbolTable
 70
     1
  0
DIMSTYLE
105
27
330
A
100
AcDbSymbolTableRecord
100
AcDbDimStyleTableRecord
  2
ISO-25
 70
     0
  3

  4

  5

  6

  7

 40
1.0
 41
2.5
 42
0.625
 43
3.75
 44
1.25
 45
0.0
 46
0.0
 47
0.0
 48
0.0
140
2.5
141
2.5
142
0.0
143
0.03937007874016
144
1.0
145
0.0
146
1.0
147
0.625
 71
     0
 72
     0
 73
     0
 74
     0
 75
     0
 76
     0
 77
     1
 78
     8
170
     0
171
     3
172
     1
173
     0
174
     0
175
     0
176
     0
177
     0
178
     0
270
     2
271
     2
272
     2
273
     2
274
     3
340
11
275
     0
280
     0
281
     0
282
     0
283
     0
284
     8
285
     0
286
     0
287
     3
288
     0
  0
ENDTAB
  0
TABLE
  2
BLOCK_RECORD
  5
1
330
0
100
AcDbSymbolTable
 70
     1
  0
BLOCK_RECORD
  5
1F
330
1
100
AcDbSymbolTableRecord
100
AcDbBlockTableRecord
  2
*MODEL_SPACE
  0
BLOCK_RECORD
  5
1B
330
1
100
AcDbSymbolTableRecord
100
AcDbBlockTableRecord
  2
*PAPER_SPACE
  0
ENDTAB
  0
ENDSEC
  0
SECTION
  2
BLOCKS
  0
BLOCK
  5
20
330
1F
100
AcDbEntity
  8
0
100
AcDbBlockBegin
  2
*MODEL_SPACE
 70
     0
 10
0.0
 20
0.0
 30
0.0
  3
*MODEL_SPACE
  1

  0
ENDBLK
  5
21
330
1F
100
AcDbEntity
  8
0
100
AcDbBlockEnd
  0
BLOCK
  5
1C
330
1B
100
AcDbEntity
 67
     1
  8
0
100
AcDbBlockBegin
  2
*PAPER_SPACE
  1

  0
ENDBLK
  5
1D
330
1B
100
AcDbEntity
 67
     1
  8
0
100
AcDbBlockEnd
  0
ENDSEC
  0
SECTION
  2
ENTITIES
  0
SPLINE
  5
100
100
AcDbEntity
  8
Layer_1
 62
7
100
AcDbSpline
 70
8
 71
3
 72
8
 73
4
 74
0
 40
0
 40
0
 40
0
 40
0
 40
1
 40
1
 40
1
 40
1
 10
298.996427
 20
698.289762
 30
0.0
 10
261.557579
 20
698.289762
 30
0.0
 10
227.210754
 20
684.329698
 30
0.0
 10
200.871432
 20
661.339744
 30
0.0
  0
SPLINE
  5
101
100
AcDbEntity
  8
Layer_1
 62
7
100
AcDbSpline
 70
8
 71
3
 72
8
 73
4
 74
0
 40
0
 40
0
 40
0
 40
0
 40
1
 40
1
 40
1
 40
1
 10
200.871432
 20
661.339744
 30
0.0
 10
166.119375
 20
658.870532
 30
0.0
 10
132.050343
 20
644.418653
 30
0.0
 10
105.571439
 20
617.939714
 30
0.0
  0
SPLINE
  5
102
100
AcDbEntity
  8
Layer_1
 62
7
100
AcDbSpline
 70
8
 71
3
 72
8
 73
4
 74
0
 40
0
 40
0
 40
0
 40
0
 40
1
 40
1
 40
1
 40
1
 10
105.571439
 20
617.939714
 30
0.0
 10
79.086012
 20
591.454343
 30
0.0
 10
64.635342
 20
557.375656
 30
0.0
 10
62.171437
 20
522.614721
 30
0.0
  0
SPLINE
  5
103
100
AcDbEntity
  8
Layer_1
 62
7
100
AcDbSpline
 70
8
 71
3
 72
8
 73
4
 74
0
 40
0
 40
0
 40
0
 40
0
 40
1
 40
1
 40
1
 40
1
 10
62.171437
 20
522.614721
 30
0.0
 10
39.331984
 20
496.292310
 30
0.0
 10
25.446437
 20
461.972645
 30
0.0
 10
25.446437
 20
424.514732
 30
0.0
  0
SPLINE
  5
104
100
AcDbEntity
  8
Layer_1
 62
7
100
AcDbSpline
 70
8
 71
3
 72
8
 73
4
 74
0
 40
0
 40
0
 40
0
 40
0
 40
1
 40
1
 40
1
 40
1
 10
25.446437
 20
424.514732
 30
0.0
 10
25.446437
 20
387.069473
 30
0.0
 10
39.320701
 20
352.758756
 30
0.0
 10
62.146437
 20
326.439771
 30
0.0
  0
SPLINE
  5
105
100
AcDbEntity
  8
Layer_1
 62
7
100
AcDbSpline
 70
8
 71
3
 72
8
 73
4
 74
0
 40
0
 40
0
 40
0
 40
0
 40
1
 40
1
 40
1
 40
1
 10
62.146437
 20
326.439771
 30
0.0
 10
64.519537
 20
291.566560
 30
0.0
 10
78.953911
 20
257.407268
 30
0.0
 10
105.421434
 20
230.939724
 30
0.0
  0
SPLINE
  5
106
100
AcDbEntity
  8
Layer_1
 62
7
100
AcDbSpline
 70
8
 71
3
 72
8
 73
4
 74
0
 40
0
 40
0
 40
0
 40
0
 40
1
 40
1
 40
1
 40
1
 10
105.421434
 20
230.939724
 30
0.0
 10
131.881833
 20
204.479381
 30
0.0
 10
166.029800
 20
190.046937
 30
0.0
 10
200.896431
 20
187.664763
 30
0.0
  0
SPLINE
  5
107
100
AcDbEntity
  8
Layer_1
 62
7
100
AcDbSpline
 70
8
 71
3
 72
8
 73
4
 74
0
 40
0
 40
0
 40
0
 40
0
 40
1
 40
1
 40
1
 40
1
 10
200.896431
 20
187.664763
 30
0.0
 10
227.232307
 20
164.688581
 30
0.0
 10
261.570135
 20
150.739772
 30
0.0
 10
298.996427
 20
150.739772
 30
0.0
  0
SPLINE
  5
108
100
AcDbEntity
  8
Layer_1
 62
7
100
AcDbSpline
 70
8
 71
3
 72
8
 73
4
 74
0
 40
0
 40
0
 40
0
 40
0
 40
1
 40
1
 40
1
 40
1
 10
298.996427
 20
150.739772
 30
0.0
 10
336.435276
 20
150.739772
 30
0.0
 10
370.802542
 20
164.699836
 30
0.0
 10
397.146423
 20
187.689790
 30
0.0
  0
SPLINE
  5
109
100
AcDbEntity
  8
Layer_1
 62
7
100
AcDbSpline
 70
8
 71
3
 72
8
 73
4
 74
0
 40
0
 40
0
 40
0
 40
0
 40
1
 40
1
 40
1
 40
1
 10
397.146423
 20
187.689790
 30
0.0
 10
431.901688
 20
190.155716
 30
0.0
 10
465.967511
 20
204.585854
 30
0.0
 10
492.446416
 20
231.064793
 30
0.0
  0
SPLINE
  5
10a
100
AcDbEntity
  8
Layer_1
 62
7
100
AcDbSpline
 70
8
 71
3
 72
8
 73
4
 74
0
 40
0
 40
0
 40
0
 40
0
 40
1
 40
1
 40
1
 40
1
 10
492.446416
 20
231.064793
 30
0.0
 10
518.931856
 20
257.550164
 30
0.0
 10
533.385693
 20
291.650592
 30
0.0
 10
535.846446
 20
326.414743
 30
0.0
  0
SPLINE
  5
10b
100
AcDbEntity
  8
Layer_1
 62
7
100
AcDbSpline
 70
8
 71
3
 72
8
 73
4
 74
0
 40
0
 40
0
 40
0
 40
0
 40
1
 40
1
 40
1
 40
1
 10
535.846446
 20
326.414743
 30
0.0
 10
558.690428
 20
352.737224
 30
0.0
 10
572.571425
 20
387.056889
 30
0.0
 10
572.571425
 20
424.514732
 30
0.0
  0
SPLINE
  5
10c
100
AcDbEntity
  8
Layer_1
 62
7
100
AcDbSpline
 70
8
 71
3
 72
8
 73
4
 74
0
 40
0
 40
0
 40
0
 40
0
 40
1
 40
1
 40
1
 40
1
 10
572.571425
 20
424.514732
 30
0.0
 10
572.571425
 20
461.959991
 30
0.0
 10
558.701684
 20
496.270778
 30
0.0
 10
535.871403
 20
522.589763
 30
0.0
  0
SPLINE
  5
10d
100
AcDbEntity
  8
Layer_1
 62
7
100
AcDbSpline
 70
8
 71
3
 72
8
 73
4
 74
0
 40
0
 40
0
 40
0
 40
0
 40
1
 40
1
 40
1
 40
1
 10
535.871403
 20
522.589763
 30
0.0
 10
533.495032
 20
557.466050
 30
0.0
 10
519.063916
 20
591.647293
 30
0.0
 10
492.596442
 20
618.114768
 30
0.0
  0
SPLINE
  5
10e
100
AcDbEntity
  8
Layer_1
 62
7
100
AcDbSpline
 70
8
 71
3
 72
8
 73
4
 74
0
 40
0
 40
0
 40
0
 40
0
 40
1
 40
1
 40
1
 40
1
 10
492.596442
 20
618.114768
 30
0.0
 10
466.136022
 20
644.575111
 30
0.0
 10
431.984839
 20
658.985813
 30
0.0
 10
397.121423
 20
661.364771
 30
0.0
  0
SPLINE
  5
10f
100
AcDbEntity
  8
Layer_1
 62
7
100
AcDbSpline
 70
8
 71
3
 72
8
 73
4
 74
0
 40
0
 40
0
 40
0
 40
0
 40
1
 40
1
 40
1
 40
1
 10
397.121423
 20
661.364771
 30
0.0
 10
370.781003
 20
684.340884
 30
0.0
 10
336.422720
 20
698.289762
 30
0.0
 10
298.996427
 20
698.289762
 30
0.0
  0
SPLINE
  5
110
100
AcDbEntity
  8
Layer_1
 62
7
100
AcDbSpline
 70
8
 71
3
 72
8
 73
4
 74
0
 40
0
 40
0
 40
0
 40
0
 40
1
 40
1
 40
1
 40
1
 10
298.996427
 20
643.589733
 30
0.0
 10
303.822051
 20
643.589733
 30
0.0
 10
308.573054
 20
643.215716
 30
0.0
 10
313.196429
 20
642.539759
 30
0.0
  0
SPLINE
  5
111
100
AcDbEntity
  8
Layer_1
 62
7
100
AcDbSpline
 70
8
 71
3
 72
8
 73
4
 74
0
 40
0
 40
0
 40
0
 40
0
 40
1
 40
1
 40
1
 40
1
 10
313.196429
 20
642.539759
 30
0.0
 10
308.405459
 20
639.848933
 30
0.0
 10
303.725660
 20
636.897764
 30
0.0
 10
299.196425
 20
633.639761
 30
0.0
  0
SPLINE
  5
112
100
AcDbEntity
  8
Layer_1
 62
7
100
AcDbSpline
 70
8
 71
3
 72
8
 73
4
 74
0
 40
0
 40
0
 40
0
 40
0
 40
1
 40
1
 40
1
 40
1
 10
299.196425
 20
633.639761
 30
0.0
 10
294.657144
 20
636.911117
 30
0.0
 10
289.953198
 20
639.889341
 30
0.0
 10
285.146429
 20
642.589744
 30
0.0
  0
SPLINE
  5
113
100
AcDbEntity
  8
Layer_1
 62
7
100
AcDbSpline
 70
8
 71
3
 72
8
 73
4
 74
0
 40
0
 40
0
 40
0
 40
0
 40
1
 40
1
 40
1
 40
1
 10
285.146429
 20
642.589744
 30
0.0
 10
289.666680
 20
643.235011
 30
0.0
 10
294.283498
 20
643.589733
 30
0.0
 10
298.996427
 20
643.589733
 30
0.0
  0
LWPOLYLINE
  5
114
100
AcDbEntity
  8
Layer_1
 62
7
100
AcDbPolyline
 90
2
 70
0
 10
298.996427
 20
698.289762
 30
0.0
 10
298.996427
 20
698.289762
 30
0.0
  0
SPLINE
  5
115
100
AcDbEntity
  8
Layer_1
 62
7
100
AcDbSpline
 70
8
 71
3
 72
8
 73
4
 74
0
 40
0
 40
0
 40
0
 40
0
 40
1
 40
1
 40
1
 40
1
 10
374.546425
 20
606.814769
 30
0.0
 10
382.594867
 20
596.438627
 30
0.0
 10
388.518199
 20
584.340398
 30
0.0
 10
391.721421
 20
571.139764
 30
0.0
  0
SPLINE
  5
116
100
AcDbEntity
  8
Layer_1
 62
7
100
AcDbSpline
 70
8
 71
3
 72
8
 73
4
 74
0
 40
0
 40
0
 40
0
 40
0
 40
1
 40
1
 40
1
 40
1
 10
391.721421
 20
571.139764
 30
0.0
 10
378.472730
 20
568.303875
 30
0.0
 10
365.843635
 20
563.704165
 30
0.0
 10
354.121424
 20
557.589720
 30
0.0
  0
SPLINE
  5
117
100
AcDbEntity
  8
Layer_1
 62
7
100
AcDbSpline
 70
8
 71
3
 72
8
 73
4
 74
0
 40
0
 40
0
 40
0
 40
0
 40
1
 40
1
 40
1
 40
1
 10
354.121424
 20
557.589720
 30
0.0
 10
350.155214
 20
570.200596
 30
0.0
 10
344.483542
 20
582.367826
 30
0.0
 10
337.121426
 20
593.739762
 30
0.0
  0
SPLINE
  5
118
100
AcDbEntity
  8
Layer_1
 62
7
100
AcDbSpline
 70
8
 71
3
 72
8
 73
4
 74
0
 40
0
 40
0
 40
0
 40
0
 40
1
 40
1
 40
1
 40
1
 10
337.121426
 20
593.739762
 30
0.0
 10
348.734292
 20
600.821687
 30
0.0
 10
361.502255
 20
605.169793
 30
0.0
 10
374.546425
 20
606.814769
 30
0.0
  0
LWPOLYLINE
  5
119
100
AcDbEntity
  8
Layer_1
 62
7
100
AcDbPolyline
 90
2
 70
0
 10
298.996427
 20
643.589733
 30
0.0
 10
298.996427
 20
643.589733
 30
0.0
  0
SPLINE
  5
11a
100
AcDbEntity
  8
Layer_1
 62
7
100
AcDbSpline
 70
8
 71
3
 72
8
 73
4
 74
0
 40
0
 40
0
 40
0
 40
0
 40
1
 40
1
 40
1
 40
1
 10
223.471429
 20
606.789601
 30
0.0
 10
236.526960
 20
605.095129
 30
0.0
 10
249.328088
 20
600.677953
 30
0.0
 10
260.971428
 20
593.514582
 30
0.0
  0
SPLINE
  5
11b
100
AcDbEntity
  8
Layer_1
 62
7
100
AcDbSpline
 70
8
 71
3
 72
8
 73
4
 74
0
 40
0
 40
0
 40
0
 40
0
 40
1
 40
1
 40
1
 40
1
 10
260.971428
 20
593.514582
 30
0.0
 10
253.629697
 20
582.182635
 30
0.0
 10
247.969861
 20
570.058680
 30
0.0
 10
243.996430
 20
557.514637
 30
0.0
  0
SPLINE
  5
11c
100
AcDbEntity
  8
Layer_1
 62
7
100
AcDbSpline
 70
8
 71
3
 72
8
 73
4
 74
0
 40
0
 40
0
 40
0
 40
0
 40
1
 40
1
 40
1
 40
1
 10
243.996430
 20
557.514637
 30
0.0
 10
232.241836
 20
563.657535
 30
0.0
 10
219.587189
 20
568.294857
 30
0.0
 10
206.296434
 20
571.139624
 30
0.0
  0
SPLINE
  5
11d
100
AcDbEntity
  8
Layer_1
 62
7
100
AcDbSpline
 70
8
 71
3
 72
8
 73
4
 74
0
 40
0
 40
0
 40
0
 40
0
 40
1
 40
1
 40
1
 40
1
 10
206.296434
 20
571.139624
 30
0.0
 10
209.495566
 20
584.330751
 30
0.0
 10
215.434908
 20
596.418353
 30
0.0
 10
223.471429
 20
606.789601
 30
0.0
  0
LWPOLYLINE
  5
11e
100
AcDbEntity
  8
Layer_1
 62
7
100
AcDbPolyline
 90
2
 70
0
 10
374.546425
 20
606.814769
 30
0.0
 10
374.546425
 20
606.814769
 30
0.0
  0
SPLINE
  5
11f
100
AcDbEntity
  8
Layer_1
 62
7
100
AcDbSpline
 70
8
 71
3
 72
8
 73
4
 74
0
 40
0
 40
0
 40
0
 40
0
 40
1
 40
1
 40
1
 40
1
 10
154.946437
 20
589.014633
 30
0.0
 10
153.421985
 20
583.626340
 30
0.0
 10
152.187177
 20
578.102633
 30
0.0
 10
151.271436
 20
572.489581
 30
0.0
  0
SPLINE
  5
120
100
AcDbEntity
  8
Layer_1
 62
7
100
AcDbSpline
 70
8
 71
3
 72
8
 73
4
 74
0
 40
0
 40
0
 40
0
 40
0
 40
1
 40
1
 40
1
 40
1
 10
151.271436
 20
572.489581
 30
0.0
 10
145.630189
 20
571.574113
 30
0.0
 10
140.088410
 20
570.348246
 30
0.0
 10
134.671434
 20
568.814636
 30
0.0
  0
SPLINE
  5
121
100
AcDbEntity
  8
Layer_1
 62
7
100
AcDbSpline
 70
8
 71
3
 72
8
 73
4
 74
0
 40
0
 40
0
 40
0
 40
0
 40
1
 40
1
 40
1
 40
1
 10
134.671434
 20
568.814636
 30
0.0
 10
137.458749
 20
572.564874
 30
0.0
 10
140.563125
 20
576.156276
 30
0.0
 10
143.971434
 20
579.564585
 30
0.0
  0
SPLINE
  5
122
100
AcDbEntity
  8
Layer_1
 62
7
100
AcDbSpline
 70
8
 71
3
 72
8
 73
4
 74
0
 40
0
 40
0
 40
0
 40
0
 40
1
 40
1
 40
1
 40
1
 10
143.971434
 20
579.564585
 30
0.0
 10
147.445843
 20
583.039029
 30
0.0
 10
151.117362
 20
586.185526
 30
0.0
 10
154.946437
 20
589.014633
 30
0.0
  0
LWPOLYLINE
  5
123
100
AcDbEntity
  8
Layer_1
 62
7
100
AcDbPolyline
 90
2
 70
0
 10
223.471429
 20
606.789601
 30
0.0
 10
223.471429
 20
606.789601
 30
0.0
  0
SPLINE
  5
124
100
AcDbEntity
  8
Layer_1
 62
7
100
AcDbSpline
 70
8
 71
3
 72
8
 73
4
 74
0
 40
0
 40
0
 40
0
 40
0
 40
1
 40
1
 40
1
 40
1
 10
443.196423
 20
588.689623
 30
0.0
 10
446.929071
 20
585.906237
 30
0.0
 10
450.521271
 20
582.814758
 30
0.0
 10
453.921422
 20
579.414629
 30
0.0
  0
SPLINE
  5
125
100
AcDbEntity
  8
Layer_1
 62
7
100
AcDbSpline
 70
8
 71
3
 72
8
 73
4
 74
0
 40
0
 40
0
 40
0
 40
0
 40
1
 40
1
 40
1
 40
1
 10
453.921422
 20
579.414629
 30
0.0
 10
457.266637
 20
576.069378
 30
0.0
 10
460.298042
 20
572.557393
 30
0.0
 10
463.046417
 20
568.889579
 30
0.0
  0
SPLINE
  5
126
100
AcDbEntity
  8
Layer_1
 62
7
100
AcDbSpline
 70
8
 71
3
 72
8
 73
4
 74
0
 40
0
 40
0
 40
0
 40
0
 40
1
 40
1
 40
1
 40
1
 10
463.046417
 20
568.889579
 30
0.0
 10
457.730467
 20
570.382711
 30
0.0
 10
452.302522
 20
571.591031
 30
0.0
 10
446.771418
 20
572.489581
 30
0.0
  0
SPLINE
  5
127
100
AcDbEntity
  8
Layer_1
 62
7
100
AcDbSpline
 70
8
 71
3
 72
8
 73
4
 74
0
 40
0
 40
0
 40
0
 40
0
 40
1
 40
1
 40
1
 40
1
 10
446.771418
 20
572.489581
 30
0.0
 10
445.873973
 20
577.988960
 30
0.0
 10
444.678684
 20
583.405635
 30
0.0
 10
443.196423
 20
588.689623
 30
0.0
  0
LWPOLYLINE
  5
128
100
AcDbEntity
  8
Layer_1
 62
7
100
AcDbPolyline
 90
2
 70
0
 10
154.946437
 20
589.014633
 30
0.0
 10
154.946437
 20
589.014633
 30
0.0
  0
SPLINE
  5
129
100
AcDbEntity
  8
Layer_1
 62
7
100
AcDbSpline
 70
8
 71
3
 72
8
 73
4
 74
0
 40
0
 40
0
 40
0
 40
0
 40
1
 40
1
 40
1
 40
1
 10
298.946428
 20
549.989624
 30
0.0
 10
303.327440
 20
539.999383
 30
0.0
 10
305.897909
 20
529.419525
 30
0.0
 10
306.671425
 20
518.764583
 30
0.0
  0
SPLINE
  5
12a
100
AcDbEntity
  8
Layer_1
 62
7
100
AcDbSpline
 70
8
 71
3
 72
8
 73
4
 74
0
 40
0
 40
0
 40
0
 40
0
 40
1
 40
1
 40
1
 40
1
 10
306.671425
 20
518.764583
 30
0.0
 10
303.980110
 20
515.446947
 30
0.0
 10
301.427545
 20
512.006409
 30
0.0
 10
299.021427
 20
508.464573
 30
0.0
  0
SPLINE
  5
12b
100
AcDbEntity
  8
Layer_1
 62
7
100
AcDbSpline
 70
8
 71
3
 72
8
 73
4
 74
0
 40
0
 40
0
 40
0
 40
0
 40
1
 40
1
 40
1
 40
1
 10
299.021427
 20
508.464573
 30
0.0
 10
296.600292
 20
512.028431
 30
0.0
 10
294.031278
 20
515.477707
 30
0.0
 10
291.321430
 20
518.814638
 30
0.0
  0
SPLINE
  5
12c
100
AcDbEntity
  8
Layer_1
 62
7
100
AcDbSpline
 70
8
 71
3
 72
8
 73
4
 74
0
 40
0
 40
0
 40
0
 40
0
 40
1
 40
1
 40
1
 40
1
 10
291.321430
 20
518.814638
 30
0.0
 10
292.058369
 20
529.468601
 30
0.0
 10
294.612165
 20
540.015043
 30
0.0
 10
298.946428
 20
549.989624
 30
0.0
  0
LWPOLYLINE
  5
12d
100
AcDbEntity
  8
Layer_1
 62
7
100
AcDbPolyline
 90
2
 70
0
 10
443.196423
 20
588.689623
 30
0.0
 10
443.196423
 20
588.689623
 30
0.0
  0
SPLINE
  5
12e
100
AcDbEntity
  8
Layer_1
 62
7
100
AcDbSpline
 70
8
 71
3
 72
8
 73
4
 74
0
 40
0
 40
0
 40
0
 40
0
 40
1
 40
1
 40
1
 40
1
 10
152.621435
 20
517.089616
 30
0.0
 10
155.451632
 20
503.857102
 30
0.0
 10
160.039025
 20
491.264822
 30
0.0
 10
166.121430
 20
479.564589
 30
0.0
  0
SPLINE
  5
12f
100
AcDbEntity
  8
Layer_1
 62
7
100
AcDbSpline
 70
8
 71
3
 72
8
 73
4
 74
0
 40
0
 40
0
 40
0
 40
0
 40
1
 40
1
 40
1
 40
1
 10
166.121430
 20
479.564589
 30
0.0
 10
153.541755
 20
475.592179
 30
0.0
 10
141.409152
 20
469.922919
 30
0.0
 10
130.046437
 20
462.564640
 30
0.0
  0
SPLINE
  5
130
100
AcDbEntity
  8
Layer_1
 62
7
100
AcDbSpline
 70
8
 71
3
 72
8
 73
4
 74
0
 40
0
 40
0
 40
0
 40
0
 40
1
 40
1
 40
1
 40
1
 10
130.046437
 20
462.564640
 30
0.0
 10
122.886429
 20
474.198948
 30
0.0
 10
118.445330
 20
486.968869
 30
0.0
 10
116.746432
 20
500.014584
 30
0.0
  0
SPLINE
  5
131
100
AcDbEntity
  8
Layer_1
 62
7
100
AcDbSpline
 70
8
 71
3
 72
8
 73
4
 74
0
 40
0
 40
0
 40
0
 40
0
 40
1
 40
1
 40
1
 40
1
 10
116.746432
 20
500.014584
 30
0.0
 10
127.168596
 20
508.033230
 30
0.0
 10
139.338342
 20
513.926130
 30
0.0
 10
152.621435
 20
517.089616
 30
0.0
  0
LWPOLYLINE
  5
132
100
AcDbEntity
  8
Layer_1
 62
7
100
AcDbPolyline
 90
2
 70
0
 10
298.946428
 20
549.989624
 30
0.0
 10
298.946428
 20
549.989624
 30
0.0
  0
SPLINE
  5
133
100
AcDbEntity
  8
Layer_1
 62
7
100
AcDbSpline
 70
8
 71
3
 72
8
 73
4
 74
0
 40
0
 40
0
 40
0
 40
0
 40
1
 40
1
 40
1
 40
1
 10
445.421419
 20
517.089616
 30
0.0
 10
458.720487
 20
513.919139
 30
0.0
 10
470.890352
 20
508.000442
 30
0.0
 10
481.321401
 20
499.964598
 30
0.0
  0
SPLINE
  5
134
100
AcDbEntity
  8
Layer_1
 62
7
100
AcDbSpline
 70
8
 71
3
 72
8
 73
4
 74
0
 40
0
 40
0
 40
0
 40
0
 40
1
 40
1
 40
1
 40
1
 10
481.321401
 20
499.964598
 30
0.0
 10
479.671461
 20
486.953069
 30
0.0
 10
475.306437
 20
474.224954
 30
0.0
 10
468.246422
 20
462.639584
 30
0.0
  0
SPLINE
  5
135
100
AcDbEntity
  8
Layer_1
 62
7
100
AcDbSpline
 70
8
 71
3
 72
8
 73
4
 74
0
 40
0
 40
0
 40
0
 40
0
 40
1
 40
1
 40
1
 40
1
 10
468.246422
 20
462.639584
 30
0.0
 10
456.838335
 20
470.024987
 30
0.0
 10
444.624819
 20
475.697603
 30
0.0
 10
431.971423
 20
479.664630
 30
0.0
  0
SPLINE
  5
136
100
AcDbEntity
  8
Layer_1
 62
7
100
AcDbSpline
 70
8
 71
3
 72
8
 73
4
 74
0
 40
0
 40
0
 40
0
 40
0
 40
1
 40
1
 40
1
 40
1
 10
431.971423
 20
479.664630
 30
0.0
 10
438.029591
 20
491.336759
 30
0.0
 10
442.598464
 20
503.894574
 30
0.0
 10
445.421419
 20
517.089616
 30
0.0
  0
LWPOLYLINE
  5
137
100
AcDbEntity
  8
Layer_1
 62
7
100
AcDbPolyline
 90
2
 70
0
 10
152.621435
 20
517.089616
 30
0.0
 10
152.621435
 20
517.089616
 30
0.0
  0
SPLINE
  5
138
100
AcDbEntity
  8
Layer_1
 62
7
100
AcDbSpline
 70
8
 71
3
 72
8
 73
4
 74
0
 40
0
 40
0
 40
0
 40
0
 40
1
 40
1
 40
1
 40
1
 10
387.796423
 20
513.214589
 30
0.0
 10
383.802760
 20
503.079496
 30
0.0
 10
378.124314
 20
493.804922
 30
0.0
 10
371.096422
 20
485.739576
 30
0.0
  0
SPLINE
  5
139
100
AcDbEntity
  8
Layer_1
 62
7
100
AcDbSpline
 70
8
 71
3
 72
8
 73
4
 74
0
 40
0
 40
0
 40
0
 40
0
 40
1
 40
1
 40
1
 40
1
 10
371.096422
 20
485.739576
 30
0.0
 10
366.844729
 20
485.297257
 30
0.0
 10
362.604955
 20
484.692608
 30
0.0
 10
358.396425
 20
483.889625
 30
0.0
  0
SPLINE
  5
13a
100
AcDbEntity
  8
Layer_1
 62
7
100
AcDbSpline
 70
8
 71
3
 72
8
 73
4
 74
0
 40
0
 40
0
 40
0
 40
0
 40
1
 40
1
 40
1
 40
1
 10
358.396425
 20
483.889625
 30
0.0
 10
359.199016
 20
488.098470
 30
0.0
 10
359.804462
 20
492.337516
 30
0.0
 10
360.246425
 20
496.589636
 30
0.0
  0
SPLINE
  5
13b
100
AcDbEntity
  8
Layer_1
 62
7
100
AcDbSpline
 70
8
 71
3
 72
8
 73
4
 74
0
 40
0
 40
0
 40
0
 40
0
 40
1
 40
1
 40
1
 40
1
 10
360.246425
 20
496.589636
 30
0.0
 10
368.333491
 20
503.583825
 30
0.0
 10
377.624026
 20
509.247701
 30
0.0
 10
387.796423
 20
513.214589
 30
0.0
  0
LWPOLYLINE
  5
13c
100
AcDbEntity
  8
Layer_1
 62
7
100
AcDbPolyline
 90
2
 70
0
 10
445.421419
 20
517.089616
 30
0.0
 10
445.421419
 20
517.089616
 30
0.0
  0
SPLINE
  5
13d
100
AcDbEntity
  8
Layer_1
 62
7
100
AcDbSpline
 70
8
 71
3
 72
8
 73
4
 74
0
 40
0
 40
0
 40
0
 40
0
 40
1
 40
1
 40
1
 40
1
 10
210.246431
 20
513.189422
 30
0.0
 10
220.386082
 20
509.231832
 30
0.0
 10
229.652792
 20
503.605357
 30
0.0
 10
237.721430
 20
496.639412
 30
0.0
  0
SPLINE
  5
13e
100
AcDbEntity
  8
Layer_1
 62
7
100
AcDbSpline
 70
8
 71
3
 72
8
 73
4
 74
0
 40
0
 40
0
 40
0
 40
0
 40
1
 40
1
 40
1
 40
1
 10
237.721430
 20
496.639412
 30
0.0
 10
238.150627
 20
492.395821
 30
0.0
 10
238.758310
 20
488.164185
 30
0.0
 10
239.546431
 20
483.964428
 30
0.0
  0
SPLINE
  5
13f
100
AcDbEntity
  8
Layer_1
 62
7
100
AcDbSpline
 70
8
 71
3
 72
8
 73
4
 74
0
 40
0
 40
0
 40
0
 40
0
 40
1
 40
1
 40
1
 40
1
 10
239.546431
 20
483.964428
 30
0.0
 10
235.348442
 20
484.751472
 30
0.0
 10
231.113087
 20
485.360875
 30
0.0
 10
226.871433
 20
485.789422
 30
0.0
  0
SPLINE
  5
140
100
AcDbEntity
  8
Layer_1
 62
7
100
AcDbSpline
 70
8
 71
3
 72
8
 73
4
 74
0
 40
0
 40
0
 40
0
 40
0
 40
1
 40
1
 40
1
 40
1
 10
226.871433
 20
485.789422
 30
0.0
 10
219.872239
 20
493.836451
 30
0.0
 10
214.229209
 20
503.085159
 30
0.0
 10
210.246431
 20
513.189422
 30
0.0
  0
LWPOLYLINE
  5
141
100
AcDbEntity
  8
Layer_1
 62
7
100
AcDbPolyline
 90
2
 70
0
 10
387.796423
 20
513.214589
 30
0.0
 10
387.796423
 20
513.214589
 30
0.0
  0
SPLINE
  5
142
100
AcDbEntity
  8
Layer_1
 62
7
100
AcDbSpline
 70
8
 71
3
 72
8
 73
4
 74
0
 40
0
 40
0
 40
0
 40
0
 40
1
 40
1
 40
1
 40
1
 10
517.221445
 20
438.964374
 30
0.0
 10
517.929001
 20
434.255744
 30
0.0
 10
518.296447
 20
429.428617
 30
0.0
 10
518.296447
 20
424.514383
 30
0.0
  0
SPLINE
  5
143
100
AcDbEntity
  8
Layer_1
 62
7
100
AcDbSpline
 70
8
 71
3
 72
8
 73
4
 74
0
 40
0
 40
0
 40
0
 40
0
 40
1
 40
1
 40
1
 40
1
 10
518.296447
 20
424.514383
 30
0.0
 10
518.296447
 20
419.695085
 30
0.0
 10
517.927463
 20
414.961498
 30
0.0
 10
517.246403
 20
410.339416
 30
0.0
  0
SPLINE
  5
144
100
AcDbEntity
  8
Layer_1
 62
7
100
AcDbSpline
 70
8
 71
3
 72
8
 73
4
 74
0
 40
0
 40
0
 40
0
 40
0
 40
1
 40
1
 40
1
 40
1
 10
517.246403
 20
410.339416
 30
0.0
 10
514.498251
 20
415.259383
 30
0.0
 10
511.466266
 20
420.048549
 30
0.0
 10
508.121435
 20
424.689367
 30
0.0
  0
SPLINE
  5
145
100
AcDbEntity
  8
Layer_1
 62
7
100
AcDbSpline
 70
8
 71
3
 72
8
 73
4
 74
0
 40
0
 40
0
 40
0
 40
0
 40
1
 40
1
 40
1
 40
1
 10
508.121435
 20
424.689367
 30
0.0
 10
511.444315
 20
429.308932
 30
0.0
 10
514.488674
 20
434.073000
 30
0.0
 10
517.221445
 20
438.964374
 30
0.0
  0
LWPOLYLINE
  5
146
100
AcDbEntity
  8
Layer_1
 62
7
100
AcDbPolyline
 90
2
 70
0
 10
210.246431
 20
513.189422
 30
0.0
 10
210.246431
 20
513.189422
 30
0.0
  0
SPLINE
  5
147
100
AcDbEntity
  8
Layer_1
 62
7
100
AcDbSpline
 70
8
 71
3
 72
8
 73
4
 74
0
 40
0
 40
0
 40
0
 40
0
 40
1
 40
1
 40
1
 40
1
 10
80.771438
 20
438.689419
 30
0.0
 10
83.519317
 20
433.769732
 30
0.0
 10
86.551763
 20
428.980076
 30
0.0
 10
89.896433
 20
424.339399
 30
0.0
  0
SPLINE
  5
148
100
AcDbEntity
  8
Layer_1
 62
7
100
AcDbSpline
 70
8
 71
3
 72
8
 73
4
 74
0
 40
0
 40
0
 40
0
 40
0
 40
1
 40
1
 40
1
 40
1
 10
89.896433
 20
424.339399
 30
0.0
 10
86.572659
 20
419.719274
 30
0.0
 10
83.529971
 20
414.956394
 30
0.0
 10
80.796437
 20
410.064391
 30
0.0
  0
SPLINE
  5
149
100
AcDbEntity
  8
Layer_1
 62
7
100
AcDbSpline
 70
8
 71
3
 72
8
 73
4
 74
0
 40
0
 40
0
 40
0
 40
0
 40
1
 40
1
 40
1
 40
1
 10
80.796437
 20
410.064391
 30
0.0
 10
80.089140
 20
414.773091
 30
0.0
 10
79.746435
 20
419.600148
 30
0.0
 10
79.746435
 20
424.514383
 30
0.0
  0
SPLINE
  5
14a
100
AcDbEntity
  8
Layer_1
 62
7
100
AcDbSpline
 70
8
 71
3
 72
8
 73
4
 74
0
 40
0
 40
0
 40
0
 40
0
 40
1
 40
1
 40
1
 40
1
 10
79.746435
 20
424.514383
 30
0.0
 10
79.746435
 20
429.333750
 30
0.0
 10
80.090734
 20
434.067337
 30
0.0
 10
80.771438
 20
438.689419
 30
0.0
  0
LWPOLYLINE
  5
14b
100
AcDbEntity
  8
Layer_1
 62
7
100
AcDbPolyline
 90
2
 70
0
 10
517.221445
 20
438.964374
 30
0.0
 10
517.221445
 20
438.964374
 30
0.0
  0
SPLINE
  5
14c
100
AcDbEntity
  8
Layer_1
 62
7
100
AcDbSpline
 70
8
 71
3
 72
8
 73
4
 74
0
 40
0
 40
0
 40
0
 40
0
 40
1
 40
1
 40
1
 40
1
 10
204.696431
 20
432.189422
 30
0.0
 10
207.996687
 20
429.495381
 30
0.0
 10
211.398823
 20
426.924381
 30
0.0
 10
214.921428
 20
424.514383
 30
0.0
  0
SPLINE
  5
14d
100
AcDbEntity
  8
Layer_1
 62
7
100
AcDbSpline
 70
8
 71
3
 72
8
 73
4
 74
0
 40
0
 40
0
 40
0
 40
0
 40
1
 40
1
 40
1
 40
1
 10
214.921428
 20
424.514383
 30
0.0
 10
211.408499
 20
422.111026
 30
0.0
 10
208.013249
 20
419.550302
 30
0.0
 10
204.721430
 20
416.864371
 30
0.0
  0
SPLINE
  5
14e
100
AcDbEntity
  8
Layer_1
 62
7
100
AcDbSpline
 70
8
 71
3
 72
8
 73
4
 74
0
 40
0
 40
0
 40
0
 40
0
 40
1
 40
1
 40
1
 40
1
 10
204.721430
 20
416.864371
 30
0.0
 10
194.074975
 20
417.640089
 30
0.0
 10
183.528841
 20
420.211788
 30
0.0
 10
173.546431
 20
424.589396
 30
0.0
  0
SPLINE
  5
14f
100
AcDbEntity
  8
Layer_1
 62
7
100
AcDbSpline
 70
8
 71
3
 72
8
 73
4
 74
0
 40
0
 40
0
 40
0
 40
0
 40
1
 40
1
 40
1
 40
1
 10
173.546431
 20
424.589396
 30
0.0
 10
183.507477
 20
428.915130
 30
0.0
 10
194.057848
 20
431.450686
 30
0.0
 10
204.696431
 20
432.189422
 30
0.0
  0
LWPOLYLINE
  5
150
100
AcDbEntity
  8
Layer_1
 62
7
100
AcDbPolyline
 90
2
 70
0
 10
80.771438
 20
438.689419
 30
0.0
 10
80.771438
 20
438.689419
 30
0.0
  0
SPLINE
  5
151
100
AcDbEntity
  8
Layer_1
 62
7
100
AcDbSpline
 70
8
 71
3
 72
8
 73
4
 74
0
 40
0
 40
0
 40
0
 40
0
 40
1
 40
1
 40
1
 40
1
 10
393.296424
 20
432.164255
 30
0.0
 10
403.951953
 20
431.389305
 30
0.0
 10
414.506302
 20
428.823688
 30
0.0
 10
424.496423
 20
424.439230
 30
0.0
  0
SPLINE
  5
152
100
AcDbEntity
  8
Layer_1
 62
7
100
AcDbSpline
 70
8
 71
3
 72
8
 73
4
 74
0
 40
0
 40
0
 40
0
 40
0
 40
1
 40
1
 40
1
 40
1
 10
424.496423
 20
424.439230
 30
0.0
 10
414.528526
 20
420.109510
 30
0.0
 10
403.993466
 20
417.551863
 30
0.0
 10
393.346424
 20
416.814245
 30
0.0
  0
SPLINE
  5
153
100
AcDbEntity
  8
Layer_1
 62
7
100
AcDbSpline
 70
8
 71
3
 72
8
 73
4
 74
0
 40
0
 40
0
 40
0
 40
0
 40
1
 40
1
 40
1
 40
1
 10
393.346424
 20
416.814245
 30
0.0
 10
390.036163
 20
419.517305
 30
0.0
 10
386.630406
 20
422.096974
 30
0.0
 10
383.096427
 20
424.514243
 30
0.0
  0
SPLINE
  5
154
100
AcDbEntity
  8
Layer_1
 62
7
100
AcDbSpline
 70
8
 71
3
 72
8
 73
4
 74
0
 40
0
 40
0
 40
0
 40
0
 40
1
 40
1
 40
1
 40
1
 10
383.096427
 20
424.514243
 30
0.0
 10
386.611048
 20
426.918299
 30
0.0
 10
390.003026
 20
429.477554
 30
0.0
 10
393.296424
 20
432.164255
 30
0.0
  0
LWPOLYLINE
  5
155
100
AcDbEntity
  8
Layer_1
 62
7
100
AcDbPolyline
 90
2
 70
0
 10
204.696431
 20
432.189422
 30
0.0
 10
204.696431
 20
432.189422
 30
0.0
  0
SPLINE
  5
156
100
AcDbEntity
  8
Layer_1
 62
7
100
AcDbSpline
 70
8
 71
3
 72
8
 73
4
 74
0
 40
0
 40
0
 40
0
 40
0
 40
1
 40
1
 40
1
 40
1
 10
467.996417
 20
386.439237
 30
0.0
 10
475.141730
 20
374.820030
 30
0.0
 10
479.569463
 20
362.066328
 30
0.0
 10
481.271415
 20
349.039279
 30
0.0
  0
SPLINE
  5
157
100
AcDbEntity
  8
Layer_1
 62
7
100
AcDbSpline
 70
8
 71
3
 72
8
 73
4
 74
0
 40
0
 40
0
 40
0
 40
0
 40
1
 40
1
 40
1
 40
1
 10
481.271415
 20
349.039279
 30
0.0
 10
470.850098
 20
341.020633
 30
0.0
 10
458.701821
 20
335.105291
 30
0.0
 10
445.421419
 20
331.939289
 30
0.0
  0
SPLINE
  5
158
100
AcDbEntity
  8
Layer_1
 62
7
100
AcDbSpline
 70
8
 71
3
 72
8
 73
4
 74
0
 40
0
 40
0
 40
0
 40
0
 40
1
 40
1
 40
1
 40
1
 10
445.421419
 20
331.939289
 30
0.0
 10
442.590446
 20
345.171803
 30
0.0
 10
438.005269
 20
357.764013
 30
0.0
 10
431.921424
 20
369.464246
 30
0.0
  0
SPLINE
  5
159
100
AcDbEntity
  8
Layer_1
 62
7
100
AcDbSpline
 70
8
 71
3
 72
8
 73
4
 74
0
 40
0
 40
0
 40
0
 40
0
 40
1
 40
1
 40
1
 40
1
 10
431.921424
 20
369.464246
 30
0.0
 10
444.494752
 20
373.435608
 30
0.0
 10
456.639428
 20
379.085293
 30
0.0
 10
467.996417
 20
386.439237
 30
0.0
  0
LWPOLYLINE
  5
15a
100
AcDbEntity
  8
Layer_1
 62
7
100
AcDbPolyline
 90
2
 70
0
 10
393.296424
 20
432.164255
 30
0.0
 10
393.296424
 20
432.164255
 30
0.0
  0
SPLINE
  5
15b
100
AcDbEntity
  8
Layer_1
 62
7
100
AcDbSpline
 70
8
 71
3
 72
8
 73
4
 74
0
 40
0
 40
0
 40
0
 40
0
 40
1
 40
1
 40
1
 40
1
 10
129.796433
 20
386.388902
 30
0.0
 10
141.203596
 20
379.007763
 30
0.0
 10
153.419650
 20
373.328855
 30
0.0
 10
166.071431
 20
369.363925
 30
0.0
  0
SPLINE
  5
15c
100
AcDbEntity
  8
Layer_1
 62
7
100
AcDbSpline
 70
8
 71
3
 72
8
 73
4
 74
0
 40
0
 40
0
 40
0
 40
0
 40
1
 40
1
 40
1
 40
1
 10
166.071431
 20
369.363925
 30
0.0
 10
160.014703
 20
357.691797
 30
0.0
 10
155.443621
 20
345.133982
 30
0.0
 10
152.621435
 20
331.938940
 30
0.0
  0
SPLINE
  5
15d
100
AcDbEntity
  8
Layer_1
 62
7
100
AcDbSpline
 70
8
 71
3
 72
8
 73
4
 74
0
 40
0
 40
0
 40
0
 40
0
 40
1
 40
1
 40
1
 40
1
 10
152.621435
 20
331.938940
 30
0.0
 10
139.314516
 20
335.108018
 30
0.0
 10
127.131040
 20
341.023290
 30
0.0
 10
116.696433
 20
349.063887
 30
0.0
  0
SPLINE
  5
15e
100
AcDbEntity
  8
Layer_1
 62
7
100
AcDbSpline
 70
8
 71
3
 72
8
 73
4
 74
0
 40
0
 40
0
 40
0
 40
0
 40
1
 40
1
 40
1
 40
1
 10
116.696433
 20
349.063887
 30
0.0
 10
118.348952
 20
362.079122
 30
0.0
 10
122.730174
 20
374.800595
 30
0.0
 10
129.796433
 20
386.388902
 30
0.0
  0
LWPOLYLINE
  5
15f
100
AcDbEntity
  8
Layer_1
 62
7
100
AcDbPolyline
 90
2
 70
0
 10
467.996417
 20
386.439237
 30
0.0
 10
467.996417
 20
386.439237
 30
0.0
  0
SPLINE
  5
160
100
AcDbEntity
  8
Layer_1
 62
7
100
AcDbSpline
 70
8
 71
3
 72
8
 73
4
 74
0
 40
0
 40
0
 40
0
 40
0
 40
1
 40
1
 40
1
 40
1
 10
239.646430
 20
365.138931
 30
0.0
 10
238.843132
 20
360.929037
 30
0.0
 10
238.213881
 20
356.692018
 30
0.0
 10
237.771430
 20
352.438919
 30
0.0
  0
SPLINE
  5
161
100
AcDbEntity
  8
Layer_1
 62
7
100
AcDbSpline
 70
8
 71
3
 72
8
 73
4
 74
0
 40
0
 40
0
 40
0
 40
0
 40
1
 40
1
 40
1
 40
1
 10
237.771430
 20
352.438919
 30
0.0
 10
229.690424
 20
345.451792
 30
0.0
 10
220.408258
 20
339.805183
 30
0.0
 10
210.246431
 20
335.838924
 30
0.0
  0
SPLINE
  5
162
100
AcDbEntity
  8
Layer_1
 62
7
100
AcDbSpline
 70
8
 71
3
 72
8
 73
4
 74
0
 40
0
 40
0
 40
0
 40
0
 40
1
 40
1
 40
1
 40
1
 10
210.246431
 20
335.838924
 30
0.0
 10
214.233635
 20
345.954373
 30
0.0
 10
219.886486
 20
355.210631
 30
0.0
 10
226.896433
 20
363.263882
 30
0.0
  0
SPLINE
  5
163
100
AcDbEntity
  8
Layer_1
 62
7
100
AcDbSpline
 70
8
 71
3
 72
8
 73
4
 74
0
 40
0
 40
0
 40
0
 40
0
 40
1
 40
1
 40
1
 40
1
 10
226.896433
 20
363.263882
 30
0.0
 10
231.168582
 20
363.706970
 30
0.0
 10
235.417870
 20
364.331823
 30
0.0
 10
239.646430
 20
365.138931
 30
0.0
  0
LWPOLYLINE
  5
164
100
AcDbEntity
  8
Layer_1
 62
7
100
AcDbPolyline
 90
2
 70
0
 10
129.796433
 20
386.388902
 30
0.0
 10
129.796433
 20
386.388902
 30
0.0
  0
SPLINE
  5
165
100
AcDbEntity
  8
Layer_1
 62
7
100
AcDbSpline
 70
8
 71
3
 72
8
 73
4
 74
0
 40
0
 40
0
 40
0
 40
0
 40
1
 40
1
 40
1
 40
1
 10
358.471424
 20
365.063918
 30
0.0
 10
362.669783
 20
364.276454
 30
0.0
 10
366.904383
 20
363.667820
 30
0.0
 10
371.146421
 20
363.238924
 30
0.0
  0
SPLINE
  5
166
100
AcDbEntity
  8
Layer_1
 62
7
100
AcDbSpline
 70
8
 71
3
 72
8
 73
4
 74
0
 40
0
 40
0
 40
0
 40
0
 40
1
 40
1
 40
1
 40
1
 10
371.146421
 20
363.238924
 30
0.0
 10
378.152781
 20
355.186162
 30
0.0
 10
383.811596
 20
345.926549
 30
0.0
 10
387.796423
 20
335.813896
 30
0.0
  0
SPLINE
  5
167
100
AcDbEntity
  8
Layer_1
 62
7
100
AcDbSpline
 70
8
 71
3
 72
8
 73
4
 74
0
 40
0
 40
0
 40
0
 40
0
 40
1
 40
1
 40
1
 40
1
 10
387.796423
 20
335.813896
 30
0.0
 10
377.646425
 20
339.772115
 30
0.0
 10
368.370977
 20
345.415928
 30
0.0
 10
360.296424
 20
352.388934
 30
0.0
  0
SPLINE
  5
168
100
AcDbEntity
  8
Layer_1
 62
7
100
AcDbSpline
 70
8
 71
3
 72
8
 73
4
 74
0
 40
0
 40
0
 40
0
 40
0
 40
1
 40
1
 40
1
 40
1
 10
360.296424
 20
352.388934
 30
0.0
 10
359.866710
 20
356.639306
 30
0.0
 10
359.261131
 20
360.857379
 30
0.0
 10
358.471424
 20
365.063918
 30
0.0
  0
LWPOLYLINE
  5
169
100
AcDbEntity
  8
Layer_1
 62
7
100
AcDbPolyline
 90
2
 70
0
 10
239.646430
 20
365.138931
 30
0.0
 10
239.646430
 20
365.138931
 30
0.0
  0
SPLINE
  5
16a
100
AcDbEntity
  8
Layer_1
 62
7
100
AcDbSpline
 70
8
 71
3
 72
8
 73
4
 74
0
 40
0
 40
0
 40
0
 40
0
 40
1
 40
1
 40
1
 40
1
 10
299.021427
 20
340.563913
 30
0.0
 10
301.434145
 20
337.012429
 30
0.0
 10
303.996972
 20
333.564970
 30
0.0
 10
306.696425
 20
330.238945
 30
0.0
  0
SPLINE
  5
16b
100
AcDbEntity
  8
Layer_1
 62
7
100
AcDbSpline
 70
8
 71
3
 72
8
 73
4
 74
0
 40
0
 40
0
 40
0
 40
0
 40
1
 40
1
 40
1
 40
1
 10
306.696425
 20
330.238945
 30
0.0
 10
305.963226
 20
319.574356
 30
0.0
 10
303.433388
 20
308.997852
 30
0.0
 10
299.096426
 20
299.013904
 30
0.0
  0
SPLINE
  5
16c
100
AcDbEntity
  8
Layer_1
 62
7
100
AcDbSpline
 70
8
 71
3
 72
8
 73
4
 74
0
 40
0
 40
0
 40
0
 40
0
 40
1
 40
1
 40
1
 40
1
 10
299.096426
 20
299.013904
 30
0.0
 10
294.711968
 20
309.004074
 30
0.0
 10
292.121365
 20
319.583374
 30
0.0
 10
291.346429
 20
330.238945
 30
0.0
  0
SPLINE
  5
16d
100
AcDbEntity
  8
Layer_1
 62
7
100
AcDbSpline
 70
8
 71
3
 72
8
 73
4
 74
0
 40
0
 40
0
 40
0
 40
0
 40
1
 40
1
 40
1
 40
1
 10
291.346429
 20
330.238945
 30
0.0
 10
294.048105
 20
333.567277
 30
0.0
 10
296.606913
 20
337.009842
 30
0.0
 10
299.021427
 20
340.563913
 30
0.0
  0
LWPOLYLINE
  5
16e
100
AcDbEntity
  8
Layer_1
 62
7
100
AcDbPolyline
 90
2
 70
0
 10
358.471424
 20
365.063918
 30
0.0
 10
358.471424
 20
365.063918
 30
0.0
  0
SPLINE
  5
16f
100
AcDbEntity
  8
Layer_1
 62
7
100
AcDbSpline
 70
8
 71
3
 72
8
 73
4
 74
0
 40
0
 40
0
 40
0
 40
0
 40
1
 40
1
 40
1
 40
1
 10
354.021425
 20
291.488891
 30
0.0
 10
365.771621
 20
285.348719
 30
0.0
 10
378.435370
 20
280.732789
 30
0.0
 10
391.721421
 20
277.888932
 30
0.0
  0
SPLINE
  5
170
100
AcDbEntity
  8
Layer_1
 62
7
100
AcDbSpline
 70
8
 71
3
 72
8
 73
4
 74
0
 40
0
 40
0
 40
0
 40
0
 40
1
 40
1
 40
1
 40
1
 10
391.721421
 20
277.888932
 30
0.0
 10
388.521072
 20
264.700112
 30
0.0
 10
382.608848
 20
252.608804
 30
0.0
 10
374.571425
 20
242.238954
 30
0.0
  0
SPLINE
  5
171
100
AcDbEntity
  8
Layer_1
 62
7
100
AcDbSpline
 70
8
 71
3
 72
8
 73
4
 74
0
 40
0
 40
0
 40
0
 40
0
 40
1
 40
1
 40
1
 40
1
 10
374.571425
 20
242.238954
 30
0.0
 10
361.508386
 20
243.934755
 30
0.0
 10
348.720184
 20
248.370457
 30
0.0
 10
337.071426
 20
255.538931
 30
0.0
  0
SPLINE
  5
172
100
AcDbEntity
  8
Layer_1
 62
7
100
AcDbSpline
 70
8
 71
3
 72
8
 73
4
 74
0
 40
0
 40
0
 40
0
 40
0
 40
1
 40
1
 40
1
 40
1
 10
337.071426
 20
255.538931
 30
0.0
 10
344.400616
 20
266.858015
 30
0.0
 10
350.052321
 20
278.960438
 30
0.0
 10
354.021425
 20
291.488891
 30
0.0
  0
LWPOLYLINE
  5
173
100
AcDbEntity
  8
Layer_1
 62
7
100
AcDbPolyline
 90
2
 70
0
 10
299.021427
 20
340.563913
 30
0.0
 10
299.021427
 20
340.563913
 30
0.0
  0
SPLINE
  5
174
100
AcDbEntity
  8
Layer_1
 62
7
100
AcDbSpline
 70
8
 71
3
 72
8
 73
4
 74
0
 40
0
 40
0
 40
0
 40
0
 40
1
 40
1
 40
1
 40
1
 10
243.896431
 20
291.438556
 30
0.0
 10
247.861564
 20
278.830056
 30
0.0
 10
253.535591
 20
266.658772
 30
0.0
 10
260.896429
 20
255.288584
 30
0.0
  0
SPLINE
  5
175
100
AcDbEntity
  8
Layer_1
 62
7
100
AcDbSpline
 70
8
 71
3
 72
8
 73
4
 74
0
 40
0
 40
0
 40
0
 40
0
 40
1
 40
1
 40
1
 40
1
 10
260.896429
 20
255.288584
 30
0.0
 10
249.290763
 20
248.213300
 30
0.0
 10
236.532692
 20
243.858903
 30
0.0
 10
223.496429
 20
242.213577
 30
0.0
  0
SPLINE
  5
176
100
AcDbEntity
  8
Layer_1
 62
7
100
AcDbSpline
 70
8
 71
3
 72
8
 73
4
 74
0
 40
0
 40
0
 40
0
 40
0
 40
1
 40
1
 40
1
 40
1
 10
223.496429
 20
242.213577
 30
0.0
 10
215.448952
 20
252.591047
 30
0.0
 10
209.498425
 20
264.685640
 30
0.0
 10
206.296434
 20
277.888582
 30
0.0
  0
SPLINE
  5
177
100
AcDbEntity
  8
Layer_1
 62
7
100
AcDbSpline
 70
8
 71
3
 72
8
 73
4
 74
0
 40
0
 40
0
 40
0
 40
0
 40
1
 40
1
 40
1
 40
1
 10
206.296434
 20
277.888582
 30
0.0
 10
219.545900
 20
280.724470
 30
0.0
 10
232.172779
 20
285.324111
 30
0.0
 10
243.896431
 20
291.438556
 30
0.0
  0
LWPOLYLINE
  5
178
100
AcDbEntity
  8
Layer_1
 62
7
100
AcDbPolyline
 90
2
 70
0
 10
354.021425
 20
291.488891
 30
0.0
 10
354.021425
 20
291.488891
 30
0.0
  0
SPLINE
  5
179
100
AcDbEntity
  8
Layer_1
 62
7
100
AcDbSpline
 70
8
 71
3
 72
8
 73
4
 74
0
 40
0
 40
0
 40
0
 40
0
 40
1
 40
1
 40
1
 40
1
 10
463.346421
 20
280.213570
 30
0.0
 10
460.559323
 20
276.463053
 30
0.0
 10
457.479736
 20
272.871860
 30
0.0
 10
454.071420
 20
269.463551
 30
0.0
  0
SPLINE
  5
17a
100
AcDbEntity
  8
Layer_1
 62
7
100
AcDbSpline
 70
8
 71
3
 72
8
 73
4
 74
0
 40
0
 40
0
 40
0
 40
0
 40
1
 40
1
 40
1
 40
1
 10
454.071420
 20
269.463551
 30
0.0
 10
450.606680
 20
265.998825
 30
0.0
 10
446.939180
 20
262.836318
 30
0.0
 10
443.121424
 20
260.013573
 30
0.0
  0
SPLINE
  5
17b
100
AcDbEntity
  8
Layer_1
 62
7
100
AcDbSpline
 70
8
 71
3
 72
8
 73
4
 74
0
 40
0
 40
0
 40
0
 40
0
 40
1
 40
1
 40
1
 40
1
 10
443.121424
 20
260.013573
 30
0.0
 10
444.646183
 20
265.402495
 30
0.0
 10
445.855664
 20
270.924874
 30
0.0
 10
446.771418
 20
276.538555
 30
0.0
  0
SPLINE
  5
17c
100
AcDbEntity
  8
Layer_1
 62
7
100
AcDbSpline
 70
8
 71
3
 72
8
 73
4
 74
0
 40
0
 40
0
 40
0
 40
0
 40
1
 40
1
 40
1
 40
1
 10
446.771418
 20
276.538555
 30
0.0
 10
452.405261
 20
277.453813
 30
0.0
 10
457.936142
 20
278.681848
 30
0.0
 10
463.346421
 20
280.213570
 30
0.0
  0
LWPOLYLINE
  5
17d
100
AcDbEntity
  8
Layer_1
 62
7
100
AcDbPolyline
 90
2
 70
0
 10
243.896431
 20
291.438556
 30
0.0
 10
243.896431
 20
291.438556
 30
0.0
  0
SPLINE
  5
17e
100
AcDbEntity
  8
Layer_1
 62
7
100
AcDbSpline
 70
8
 71
3
 72
8
 73
4
 74
0
 40
0
 40
0
 40
0
 40
0
 40
1
 40
1
 40
1
 40
1
 10
134.996437
 20
280.138557
 30
0.0
 10
140.311080
 20
278.646823
 30
0.0
 10
145.741660
 20
277.435986
 30
0.0
 10
151.271436
 20
276.538555
 30
0.0
  0
SPLINE
  5
17f
100
AcDbEntity
  8
Layer_1
 62
7
100
AcDbSpline
 70
8
 71
3
 72
8
 73
4
 74
0
 40
0
 40
0
 40
0
 40
0
 40
1
 40
1
 40
1
 40
1
 10
151.271436
 20
276.538555
 30
0.0
 10
152.170161
 20
271.027711
 30
0.0
 10
153.360625
 20
265.608169
 30
0.0
 10
154.846431
 20
260.313556
 30
0.0
  0
SPLINE
  5
180
100
AcDbEntity
  8
Layer_1
 62
7
100
AcDbSpline
 70
8
 71
3
 72
8
 73
4
 74
0
 40
0
 40
0
 40
0
 40
0
 40
1
 40
1
 40
1
 40
1
 10
154.846431
 20
260.313556
 30
0.0
 10
151.103457
 20
263.102534
 30
0.0
 10
147.505112
 20
266.204918
 30
0.0
 10
144.096433
 20
269.613577
 30
0.0
  0
SPLINE
  5
181
100
AcDbEntity
  8
Layer_1
 62
7
100
AcDbSpline
 70
8
 71
3
 72
8
 73
4
 74
0
 40
0
 40
0
 40
0
 40
0
 40
1
 40
1
 40
1
 40
1
 10
144.096433
 20
269.613577
 30
0.0
 10
140.759704
 20
272.950299
 30
0.0
 10
137.739150
 20
276.481020
 30
0.0
 10
134.996437
 20
280.138557
 30
0.0
  0
LWPOLYLINE
  5
182
100
AcDbEntity
  8
Layer_1
 62
7
100
AcDbPolyline
 90
2
 70
0
 10
463.346421
 20
280.213570
 30
0.0
 10
463.346421
 20
280.213570
 30
0.0
  0
SPLINE
  5
183
100
AcDbEntity
  8
Layer_1
 62
7
100
AcDbSpline
 70
8
 71
3
 72
8
 73
4
 74
0
 40
0
 40
0
 40
0
 40
0
 40
1
 40
1
 40
1
 40
1
 10
298.846429
 20
215.413542
 30
0.0
 10
303.390212
 20
212.138971
 30
0.0
 10
308.084573
 20
209.141172
 30
0.0
 10
312.896425
 20
206.438601
 30
0.0
  0
SPLINE
  5
184
100
AcDbEntity
  8
Layer_1
 62
7
100
AcDbSpline
 70
8
 71
3
 72
8
 73
4
 74
0
 40
0
 40
0
 40
0
 40
0
 40
1
 40
1
 40
1
 40
1
 10
312.896425
 20
206.438601
 30
0.0
 10
308.368127
 20
205.791027
 30
0.0
 10
303.717851
 20
205.438543
 30
0.0
 10
298.996427
 20
205.438543
 30
0.0
  0
SPLINE
  5
185
100
AcDbEntity
  8
Layer_1
 62
7
100
AcDbSpline
 70
8
 71
3
 72
8
 73
4
 74
0
 40
0
 40
0
 40
0
 40
0
 40
1
 40
1
 40
1
 40
1
 10
298.996427
 20
205.438543
 30
0.0
 10
294.188938
 20
205.438543
 30
0.0
 10
289.477973
 20
205.792635
 30
0.0
 10
284.871425
 20
206.463559
 30
0.0
  0
SPLINE
  5
186
100
AcDbEntity
  8
Layer_1
 62
7
100
AcDbSpline
 70
8
 71
3
 72
8
 73
4
 74
0
 40
0
 40
0
 40
0
 40
0
 40
1
 40
1
 40
1
 40
1
 10
284.871425
 20
206.463559
 30
0.0
 10
289.665562
 20
209.156692
 30
0.0
 10
294.314573
 20
212.152323
 30
0.0
 10
298.846429
 20
215.413542
 30
0.0
  0
LWPOLYLINE
  5
187
100
AcDbEntity
  8
Layer_1
 62
7
100
AcDbPolyline
 90
2
 70
0
 10
134.996437
 20
280.138557
 30
0.0
 10
134.996437
 20
280.138557
 30
0.0
  0
LWPOLYLINE
  5
188
100
AcDbEntity
  8
Layer_1
 62
7
100
AcDbPolyline
 90
2
 70
0
 10
298.846429
 20
215.413542
 30
0.0
 10
298.846429
 20
215.413542
 30
0.0
  0
ENDSEC
  0
SECTION
  2
OBJECTS
  0
DICTIONARY
  5
C
330
0
100
AcDbDictionary
  3
ACAD_GROUP
350
D
  3
ACAD_MLINESTYLE
350
17
  0
DICTIONARY
  5
D
330
C
100
AcDbDictionary
  0
DICTIONARY
  5
1A
330
C
100
AcDbDictionary
  0
DICTIONARY
  5
17
330
C
100
AcDbDictionary
  3
STANDARD
350
18
  0
DICTIONARY
  5
19
330
C
100
AcDbDictionary
  0
ENDSEC
  0
EOF
