  0
SECTION
  2
HEADER
  9
$ACADVER
  1
AC1014
  9
$HANDSEED
  5
FFFF
  9
$MEASUREMENT
 70
     1
  0
ENDSEC
  0
SECTION
  2
TABLES
  0
TABLE
  2
VPORT
  5
8
330
0
100
AcDbSymbolTable
 70
     4
  0
VPORT
  5
2E
330
8
100
AcDbSymbolTableRecord
100
AcDbViewportTableRecord
  2
*ACTIVE
 70
     0
 10
0.0
 20
0.0
 11
1.0
 21
1.0
 12
210.0
 22
148.5
 13
0.0
 23
0.0
 14
10.0
 24
10.0
 15
10.0
 25
10.0
 16
0.0
 26
0.0
 36
1.0
 17
0.0
 27
0.0
 37
0.0
 40
341.0
 41
1.24
 42
50.0
 43
0.0
 44
0.0
 50
0.0
 51
0.0
 71
     0
 72
   100
 73
     1
 74
     3
 75
     0
 76
     0
 77
     0
 78
     0
  0
ENDTAB
  0
TABLE
  2
LTYPE
  5
5
330
0
100
AcDbSymbolTable
 70
     1
  0
LTYPE
  5
14
330
5
100
AcDbSymbolTableRecord
100
AcDbLinetypeTableRecord
  2
BYBLOCK
 70
     0
  3

 72
    65
 73
     0
 40
0.0
  0
LTYPE
  5
15
330
5
100
AcDbSymbolTableRecord
100
AcDbLinetypeTableRecord
  2
BYLAYER
 70
     0
  3

 72
    65
 73
     0
 40
0.0
  0
LTYPE
  5
16
330
5
100
AcDbSymbolTableRecord
100
AcDbLinetypeTableRecord
  2
CONTINUOUS
 70
     0
  3
Solid line
 72
    65
 73
     0
 40
0.0
  0
ENDTAB
  0
TABLE
  2
LAYER
  5
2
100
AcDbSymbolTable
 70
2
  0
LAYER
  5
50
100
AcDbSymbolTableRecord
100
AcDbLayerTableRecord
  2
0
 70
0
  6
CONTINUOUS
  0
LAYER
  5
51
100
AcDbSymbolTableRecord
100
AcDbLayerTableRecord
  2
Layer_1
 70
0
  6
CONTINUOUS
  0
ENDTAB
  0
TABLE
  2
STYLE
  5
3
330
0
100
AcDbSymbolTable
 70
     1
  0
STYLE
  5
11
330
3
100
AcDbSymbolTableRecord
100
AcDbTextStyleTableRecord
  2
STANDARD
 70
     0
 40
0.0
 41
1.0
 50
0.0
 71
     0
 42
2.5
  3
txt
  4

  0
ENDTAB
  0
TABLE
  2
VIEW
  5
6
330
0
100
AcDbSymbolTable
 70
     0
  0
ENDTAB
  0
TABLE
  2
UCS
  5
7
330
0
100
AcDbSymbolTable
 70
     0
  0
ENDTAB
  0
TABLE
  2
APPID
  5
9
330
0
100
AcDbSymbolTable
 70
     2
  0
APPID
  5
12
330
9
100
AcDbSymbolTableRecord
100
AcDbRegAppTableRecord
  2
ACAD
 70
     0
  0
ENDTAB
  0
TABLE
  2
DIMSTYLE
  5
A
330
0
100
AcDbSymbolTable
 70
     1
  0
DIMSTYLE
105
27
330
A
100
AcDbSymbolTableRecord
100
AcDbDimStyleTableRecord
  2
ISO-25
 70
     0
  3

  4

  5

  6

  7

 40
1.0
 41
2.5
 42
0.625
 43
3.75
 44
1.25
 45
0.0
 46
0.0
 47
0.0
 48
0.0
140
2.5
141
2.5
142
0.0
143
0.03937007874016
144
1.0
145
0.0
146
1.0
147
0.625
 71
     0
 72
     0
 73
     0
 74
     0
 75
     0
 76
     0
 77
     1
 78
     8
170
     0
171
     3
172
     1
173
     0
174
     0
175
     0
176
     0
177
     0
178
     0
270
     2
271
     2
272
     2
273
     2
274
     3
340
11
275
     0
280
     0
281
     0
282
     0
283
     0
284
     8
285
     0
286
     0
287
     3
288
     0
  0
ENDTAB
  0
TABLE
  2
BLOCK_RECORD
  5
1
330
0
100
AcDbSymbolTable
 70
     1
  0
BLOCK_RECORD
  5
1F
330
1
100
AcDbSymbolTableRecord
100
AcDbBlockTableRecord
  2
*MODEL_SPACE
  0
BLOCK_RECORD
  5
1B
330
1
100
AcDbSymbolTableRecord
100
AcDbBlockTableRecord
  2
*PAPER_SPACE
  0
ENDTAB
  0
ENDSEC
  0
SECTION
  2
BLOCKS
  0
BLOCK
  5
20
330
1F
100
AcDbEntity
  8
0
100
AcDbBlockBegin
  2
*MODEL_SPACE
 70
     0
 10
0.0
 20
0.0
 30
0.0
  3
*MODEL_SPACE
  1

  0
ENDBLK
  5
21
330
1F
100
AcDbEntity
  8
0
100
AcDbBlockEnd
  0
BLOCK
  5
1C
330
1B
100
AcDbEntity
 67
     1
  8
0
100
AcDbBlockBegin
  2
*PAPER_SPACE
  1

  0
ENDBLK
  5
1D
330
1B
100
AcDbEntity
 67
     1
  8
0
100
AcDbBlockEnd
  0
ENDSEC
  0
SECTION
  2
ENTITIES
  0
SPLINE
  5
100
100
AcDbEntity
  8
Layer_1
 62
7
100
AcDbSpline
 70
8
 71
3
 72
8
 73
4
 74
0
 40
0
 40
0
 40
0
 40
0
 40
1
 40
1
 40
1
 40
1
 10
296.150930
 20
676.010689
 30
0.0
 10
261.513456
 20
676.010689
 30
0.0
 10
230.070646
 20
662.158041
 30
0.0
 10
207.075903
 20
639.685691
 30
0.0
  0
SPLINE
  5
101
100
AcDbEntity
  8
Layer_1
 62
7
100
AcDbSpline
 70
8
 71
3
 72
8
 73
4
 74
0
 40
0
 40
0
 40
0
 40
0
 40
1
 40
1
 40
1
 40
1
 10
207.075903
 20
639.685691
 30
0.0
 10
174.943238
 20
639.302837
 30
0.0
 10
142.925938
 20
626.860730
 30
0.0
 10
118.425905
 20
602.360691
 30
0.0
  0
SPLINE
  5
102
100
AcDbEntity
  8
Layer_1
 62
7
100
AcDbSpline
 70
8
 71
3
 72
8
 73
4
 74
0
 40
0
 40
0
 40
0
 40
0
 40
1
 40
1
 40
1
 40
1
 10
118.425905
 20
602.360691
 30
0.0
 10
93.919497
 20
577.854289
 30
0.0
 10
81.477586
 20
545.826776
 30
0.0
 10
81.100912
 20
513.685694
 30
0.0
  0
SPLINE
  5
103
100
AcDbEntity
  8
Layer_1
 62
7
100
AcDbSpline
 70
8
 71
3
 72
8
 73
4
 74
0
 40
0
 40
0
 40
0
 40
0
 40
1
 40
1
 40
1
 40
1
 10
81.100912
 20
513.685694
 30
0.0
 10
58.654023
 20
490.694313
 30
0.0
 10
44.800907
 20
459.255817
 30
0.0
 10
44.800907
 20
424.610701
 30
0.0
  0
SPLINE
  5
104
100
AcDbEntity
  8
Layer_1
 62
7
100
AcDbSpline
 70
8
 71
3
 72
8
 73
4
 74
0
 40
0
 40
0
 40
0
 40
0
 40
1
 40
1
 40
1
 40
1
 10
44.800907
 20
424.610701
 30
0.0
 10
44.800907
 20
389.968857
 30
0.0
 10
58.657764
 20
358.551508
 30
0.0
 10
81.100912
 20
335.560701
 30
0.0
  0
SPLINE
  5
105
100
AcDbEntity
  8
Layer_1
 62
7
100
AcDbSpline
 70
8
 71
3
 72
8
 73
4
 74
0
 40
0
 40
0
 40
0
 40
0
 40
1
 40
1
 40
1
 40
1
 10
81.100912
 20
335.560701
 30
0.0
 10
81.464771
 20
303.403106
 30
0.0
 10
93.902866
 20
271.358744
 30
0.0
 10
118.400906
 20
246.860711
 30
0.0
  0
SPLINE
  5
106
100
AcDbEntity
  8
Layer_1
 62
7
100
AcDbSpline
 70
8
 71
3
 72
8
 73
4
 74
0
 40
0
 40
0
 40
0
 40
0
 40
1
 40
1
 40
1
 40
1
 10
118.400906
 20
246.860711
 30
0.0
 10
142.892577
 20
222.369026
 30
0.0
 10
174.926732
 20
209.930757
 30
0.0
 10
207.075903
 20
209.560725
 30
0.0
  0
SPLINE
  5
107
100
AcDbEntity
  8
Layer_1
 62
7
100
AcDbSpline
 70
8
 71
3
 72
8
 73
4
 74
0
 40
0
 40
0
 40
0
 40
0
 40
1
 40
1
 40
1
 40
1
 10
207.075903
 20
209.560725
 30
0.0
 10
230.070646
 20
187.088382
 30
0.0
 10
261.513456
 20
173.235699
 30
0.0
 10
296.150930
 20
173.235699
 30
0.0
  0
SPLINE
  5
108
100
AcDbEntity
  8
Layer_1
 62
7
100
AcDbSpline
 70
8
 71
3
 72
8
 73
4
 74
0
 40
0
 40
0
 40
0
 40
0
 40
1
 40
1
 40
1
 40
1
 10
296.150930
 20
173.235699
 30
0.0
 10
330.785189
 20
173.235699
 30
0.0
 10
362.231704
 20
187.091947
 30
0.0
 10
385.225923
 20
209.560725
 30
0.0
  0
SPLINE
  5
109
100
AcDbEntity
  8
Layer_1
 62
7
100
AcDbSpline
 70
8
 71
3
 72
8
 73
4
 74
0
 40
0
 40
0
 40
0
 40
0
 40
1
 40
1
 40
1
 40
1
 10
385.225923
 20
209.560725
 30
0.0
 10
417.366991
 20
209.937398
 30
0.0
 10
449.394456
 20
222.379303
 30
0.0
 10
473.900892
 20
246.885711
 30
0.0
  0
SPLINE
  5
10a
100
AcDbEntity
  8
Layer_1
 62
7
100
AcDbSpline
 70
8
 71
3
 72
8
 73
4
 74
0
 40
0
 40
0
 40
0
 40
0
 40
1
 40
1
 40
1
 40
1
 10
473.900892
 20
246.885711
 30
0.0
 10
498.407328
 20
271.392112
 30
0.0
 10
510.849233
 20
303.419626
 30
0.0
 10
511.225906
 20
335.560701
 30
0.0
  0
SPLINE
  5
10b
100
AcDbEntity
  8
Layer_1
 62
7
100
AcDbSpline
 70
8
 71
3
 72
8
 73
4
 74
0
 40
0
 40
0
 40
0
 40
0
 40
1
 40
1
 40
1
 40
1
 10
511.225906
 20
335.560701
 30
0.0
 10
533.669027
 20
358.551508
 30
0.0
 10
547.525904
 20
389.968857
 30
0.0
 10
547.525904
 20
424.610701
 30
0.0
  0
SPLINE
  5
10c
100
AcDbEntity
  8
Layer_1
 62
7
100
AcDbSpline
 70
8
 71
3
 72
8
 73
4
 74
0
 40
0
 40
0
 40
0
 40
0
 40
1
 40
1
 40
1
 40
1
 10
547.525904
 20
424.610701
 30
0.0
 10
547.525904
 20
459.255817
 30
0.0
 10
533.672802
 20
490.694313
 30
0.0
 10
511.225906
 20
513.685694
 30
0.0
  0
SPLINE
  5
10d
100
AcDbEntity
  8
Layer_1
 62
7
100
AcDbSpline
 70
8
 71
3
 72
8
 73
4
 74
0
 40
0
 40
0
 40
0
 40
0
 40
1
 40
1
 40
1
 40
1
 10
511.225906
 20
513.685694
 30
0.0
 10
510.862026
 20
545.843295
 30
0.0
 10
498.423897
 20
577.887657
 30
0.0
 10
473.925920
 20
602.385690
 30
0.0
  0
SPLINE
  5
10e
100
AcDbEntity
  8
Layer_1
 62
7
100
AcDbSpline
 70
8
 71
3
 72
8
 73
4
 74
0
 40
0
 40
0
 40
0
 40
0
 40
1
 40
1
 40
1
 40
1
 10
473.925920
 20
602.385690
 30
0.0
 10
449.427873
 20
626.883731
 30
0.0
 10
417.383490
 20
639.321839
 30
0.0
 10
385.225923
 20
639.685691
 30
0.0
  0
SPLINE
  5
10f
100
AcDbEntity
  8
Layer_1
 62
7
100
AcDbSpline
 70
8
 71
3
 72
8
 73
4
 74
0
 40
0
 40
0
 40
0
 40
0
 40
1
 40
1
 40
1
 40
1
 10
385.225923
 20
639.685691
 30
0.0
 10
362.231704
 20
662.154468
 30
0.0
 10
330.785189
 20
676.010689
 30
0.0
 10
296.150930
 20
676.010689
 30
0.0
  0
SPLINE
  5
110
100
AcDbEntity
  8
Layer_1
 62
7
100
AcDbSpline
 70
8
 71
3
 72
8
 73
4
 74
0
 40
0
 40
0
 40
0
 40
0
 40
1
 40
1
 40
1
 40
1
 10
296.150930
 20
666.060689
 30
0.0
 10
324.688921
 20
666.060689
 30
0.0
 10
350.824533
 20
655.915836
 30
0.0
 10
371.175885
 20
639.060691
 30
0.0
  0
SPLINE
  5
111
100
AcDbEntity
  8
Layer_1
 62
7
100
AcDbSpline
 70
8
 71
3
 72
8
 73
4
 74
0
 40
0
 40
0
 40
0
 40
0
 40
1
 40
1
 40
1
 40
1
 10
371.175885
 20
639.060691
 30
0.0
 10
343.969535
 20
636.378241
 30
0.0
 10
317.464939
 20
624.991973
 30
0.0
 10
296.200916
 20
604.885690
 30
0.0
  0
SPLINE
  5
112
100
AcDbEntity
  8
Layer_1
 62
7
100
AcDbSpline
 70
8
 71
3
 72
8
 73
4
 74
0
 40
0
 40
0
 40
0
 40
0
 40
1
 40
1
 40
1
 40
1
 10
296.200916
 20
604.885690
 30
0.0
 10
274.934096
 20
625.011003
 30
0.0
 10
248.389861
 20
636.411693
 30
0.0
 10
221.150933
 20
639.085691
 30
0.0
  0
SPLINE
  5
113
100
AcDbEntity
  8
Layer_1
 62
7
100
AcDbSpline
 70
8
 71
3
 72
8
 73
4
 74
0
 40
0
 40
0
 40
0
 40
0
 40
1
 40
1
 40
1
 40
1
 10
221.150933
 20
639.085691
 30
0.0
 10
241.498510
 20
655.927944
 30
0.0
 10
267.625034
 20
666.060689
 30
0.0
 10
296.150930
 20
666.060689
 30
0.0
  0
LWPOLYLINE
  5
114
100
AcDbEntity
  8
Layer_1
 62
7
100
AcDbPolyline
 90
2
 70
0
 10
296.150930
 20
676.010689
 30
0.0
 10
296.150930
 20
676.010689
 30
0.0
  0
SPLINE
  5
115
100
AcDbEntity
  8
Layer_1
 62
7
100
AcDbSpline
 70
8
 71
3
 72
8
 73
4
 74
0
 40
0
 40
0
 40
0
 40
0
 40
1
 40
1
 40
1
 40
1
 10
211.200891
 20
629.810690
 30
0.0
 10
239.321591
 20
629.178650
 30
0.0
 10
267.261504
 20
618.488229
 30
0.0
 10
289.225882
 20
597.760693
 30
0.0
  0
SPLINE
  5
116
100
AcDbEntity
  8
Layer_1
 62
7
100
AcDbSpline
 70
8
 71
3
 72
8
 73
4
 74
0
 40
0
 40
0
 40
0
 40
0
 40
1
 40
1
 40
1
 40
1
 10
289.225882
 20
597.760693
 30
0.0
 10
269.199681
 20
575.665262
 30
0.0
 10
258.296420
 20
548.223484
 30
0.0
 10
256.525886
 20
520.310696
 30
0.0
  0
SPLINE
  5
117
100
AcDbEntity
  8
Layer_1
 62
7
100
AcDbSpline
 70
8
 71
3
 72
8
 73
4
 74
0
 40
0
 40
0
 40
0
 40
0
 40
1
 40
1
 40
1
 40
1
 10
256.525886
 20
520.310696
 30
0.0
 10
235.523395
 20
538.823513
 30
0.0
 10
208.395736
 20
550.530701
 30
0.0
 10
178.600908
 20
551.985697
 30
0.0
  0
SPLINE
  5
118
100
AcDbEntity
  8
Layer_1
 62
7
100
AcDbSpline
 70
8
 71
3
 72
8
 73
4
 74
0
 40
0
 40
0
 40
0
 40
0
 40
1
 40
1
 40
1
 40
1
 10
178.600908
 20
551.985697
 30
0.0
 10
179.484322
 20
582.172320
 30
0.0
 10
191.724153
 20
609.482080
 30
0.0
 10
211.200891
 20
629.810690
 30
0.0
  0
LWPOLYLINE
  5
119
100
AcDbEntity
  8
Layer_1
 62
7
100
AcDbPolyline
 90
2
 70
0
 10
296.150930
 20
666.060689
 30
0.0
 10
296.150930
 20
666.060689
 30
0.0
  0
SPLINE
  5
11a
100
AcDbEntity
  8
Layer_1
 62
7
100
AcDbSpline
 70
8
 71
3
 72
8
 73
4
 74
0
 40
0
 40
0
 40
0
 40
0
 40
1
 40
1
 40
1
 40
1
 10
380.900888
 20
629.810690
 30
0.0
 10
380.976390
 20
629.812787
 30
0.0
 10
381.050355
 20
629.809292
 30
0.0
 10
381.125927
 20
629.810690
 30
0.0
  0
SPLINE
  5
11b
100
AcDbEntity
  8
Layer_1
 62
7
100
AcDbSpline
 70
8
 71
3
 72
8
 73
4
 74
0
 40
0
 40
0
 40
0
 40
0
 40
1
 40
1
 40
1
 40
1
 10
381.125927
 20
629.810690
 30
0.0
 10
400.601939
 20
609.482206
 30
0.0
 10
412.842503
 20
582.171705
 30
0.0
 10
413.725883
 20
551.985697
 30
0.0
  0
SPLINE
  5
11c
100
AcDbEntity
  8
Layer_1
 62
7
100
AcDbSpline
 70
8
 71
3
 72
8
 73
4
 74
0
 40
0
 40
0
 40
0
 40
0
 40
1
 40
1
 40
1
 40
1
 10
413.725883
 20
551.985697
 30
0.0
 10
383.932243
 20
550.536084
 30
0.0
 10
356.805800
 20
538.842269
 30
0.0
 10
335.800933
 20
520.335696
 30
0.0
  0
SPLINE
  5
11d
100
AcDbEntity
  8
Layer_1
 62
7
100
AcDbSpline
 70
8
 71
3
 72
8
 73
4
 74
0
 40
0
 40
0
 40
0
 40
0
 40
1
 40
1
 40
1
 40
1
 10
335.800933
 20
520.335696
 30
0.0
 10
334.036761
 20
548.269499
 30
0.0
 10
323.133919
 20
575.719211
 30
0.0
 10
303.100866
 20
597.810693
 30
0.0
  0
SPLINE
  5
11e
100
AcDbEntity
  8
Layer_1
 62
7
100
AcDbSpline
 70
8
 71
3
 72
8
 73
4
 74
0
 40
0
 40
0
 40
0
 40
0
 40
1
 40
1
 40
1
 40
1
 10
303.100866
 20
597.810693
 30
0.0
 10
324.996314
 20
618.459224
 30
0.0
 10
352.851706
 20
629.143010
 30
0.0
 10
380.900888
 20
629.810690
 30
0.0
  0
LWPOLYLINE
  5
11f
100
AcDbEntity
  8
Layer_1
 62
7
100
AcDbPolyline
 90
2
 70
0
 10
211.200891
 20
629.810690
 30
0.0
 10
211.200891
 20
629.810690
 30
0.0
  0
SPLINE
  5
120
100
AcDbEntity
  8
Layer_1
 62
7
100
AcDbSpline
 70
8
 71
3
 72
8
 73
4
 74
0
 40
0
 40
0
 40
0
 40
0
 40
1
 40
1
 40
1
 40
1
 10
197.600904
 20
629.335695
 30
0.0
 10
180.240599
 20
608.197419
 30
0.0
 10
169.548136
 20
581.379502
 30
0.0
 10
168.725907
 20
552.110696
 30
0.0
  0
SPLINE
  5
121
100
AcDbEntity
  8
Layer_1
 62
7
100
AcDbSpline
 70
8
 71
3
 72
8
 73
4
 74
0
 40
0
 40
0
 40
0
 40
0
 40
1
 40
1
 40
1
 40
1
 10
168.725907
 20
552.110696
 30
0.0
 10
139.461400
 20
551.299855
 30
0.0
 10
112.624335
 20
540.579918
 30
0.0
 10
91.475907
 20
523.210699
 30
0.0
  0
SPLINE
  5
122
100
AcDbEntity
  8
Layer_1
 62
7
100
AcDbSpline
 70
8
 71
3
 72
8
 73
4
 74
0
 40
0
 40
0
 40
0
 40
0
 40
1
 40
1
 40
1
 40
1
 10
91.475907
 20
523.210699
 30
0.0
 10
93.930326
 20
549.541954
 30
0.0
 10
105.222369
 20
575.207165
 30
0.0
 10
125.400904
 20
595.385692
 30
0.0
  0
SPLINE
  5
123
100
AcDbEntity
  8
Layer_1
 62
7
100
AcDbSpline
 70
8
 71
3
 72
8
 73
4
 74
0
 40
0
 40
0
 40
0
 40
0
 40
1
 40
1
 40
1
 40
1
 10
125.400904
 20
595.385692
 30
0.0
 10
145.585807
 20
615.570596
 30
0.0
 10
171.260911
 20
626.886101
 30
0.0
 10
197.600904
 20
629.335695
 30
0.0
  0
LWPOLYLINE
  5
124
100
AcDbEntity
  8
Layer_1
 62
7
100
AcDbPolyline
 90
2
 70
0
 10
380.900888
 20
629.810690
 30
0.0
 10
380.900888
 20
629.810690
 30
0.0
  0
SPLINE
  5
125
100
AcDbEntity
  8
Layer_1
 62
7
100
AcDbSpline
 70
8
 71
3
 72
8
 73
4
 74
0
 40
0
 40
0
 40
0
 40
0
 40
1
 40
1
 40
1
 40
1
 10
394.750914
 20
629.310668
 30
0.0
 10
421.059203
 20
626.838114
 30
0.0
 10
446.696989
 20
615.514598
 30
0.0
 10
466.875873
 20
595.335672
 30
0.0
  0
SPLINE
  5
126
100
AcDbEntity
  8
Layer_1
 62
7
100
AcDbSpline
 70
8
 71
3
 72
8
 73
4
 74
0
 40
0
 40
0
 40
0
 40
0
 40
1
 40
1
 40
1
 40
1
 10
466.875873
 20
595.335672
 30
0.0
 10
487.061189
 20
575.150377
 30
0.0
 10
498.383140
 20
549.502706
 30
0.0
 10
500.850883
 20
523.185678
 30
0.0
  0
SPLINE
  5
127
100
AcDbEntity
  8
Layer_1
 62
7
100
AcDbSpline
 70
8
 71
3
 72
8
 73
4
 74
0
 40
0
 40
0
 40
0
 40
0
 40
1
 40
1
 40
1
 40
1
 10
500.850883
 20
523.185678
 30
0.0
 10
479.698506
 20
540.567313
 30
0.0
 10
452.877219
 20
551.299505
 30
0.0
 10
423.600912
 20
552.110675
 30
0.0
  0
SPLINE
  5
128
100
AcDbEntity
  8
Layer_1
 62
7
100
AcDbSpline
 70
8
 71
3
 72
8
 73
4
 74
0
 40
0
 40
0
 40
0
 40
0
 40
1
 40
1
 40
1
 40
1
 10
423.600912
 20
552.110675
 30
0.0
 10
422.778983
 20
581.367002
 30
0.0
 10
412.098104
 20
608.176586
 30
0.0
 10
394.750914
 20
629.310668
 30
0.0
  0
LWPOLYLINE
  5
129
100
AcDbEntity
  8
Layer_1
 62
7
100
AcDbPolyline
 90
2
 70
0
 10
197.600904
 20
629.335695
 30
0.0
 10
197.600904
 20
629.335695
 30
0.0
  0
SPLINE
  5
12a
100
AcDbEntity
  8
Layer_1
 62
7
100
AcDbSpline
 70
8
 71
3
 72
8
 73
4
 74
0
 40
0
 40
0
 40
0
 40
0
 40
1
 40
1
 40
1
 40
1
 10
296.150930
 20
590.685675
 30
0.0
 10
316.490048
 20
568.038956
 30
0.0
 10
326.496437
 20
539.435586
 30
0.0
 10
326.200928
 20
510.935676
 30
0.0
  0
SPLINE
  5
12b
100
AcDbEntity
  8
Layer_1
 62
7
100
AcDbSpline
 70
8
 71
3
 72
8
 73
4
 74
0
 40
0
 40
0
 40
0
 40
0
 40
1
 40
1
 40
1
 40
1
 10
326.200928
 20
510.935676
 30
0.0
 10
311.858388
 20
495.348910
 30
0.0
 10
301.339281
 20
476.180375
 30
0.0
 10
296.150930
 20
454.935675
 30
0.0
  0
SPLINE
  5
12c
100
AcDbEntity
  8
Layer_1
 62
7
100
AcDbSpline
 70
8
 71
3
 72
8
 73
4
 74
0
 40
0
 40
0
 40
0
 40
0
 40
1
 40
1
 40
1
 40
1
 10
296.150930
 20
454.935675
 30
0.0
 10
290.962580
 20
476.180375
 30
0.0
 10
280.468430
 20
495.348910
 30
0.0
 10
266.125890
 20
510.935676
 30
0.0
  0
SPLINE
  5
12d
100
AcDbEntity
  8
Layer_1
 62
7
100
AcDbSpline
 70
8
 71
3
 72
8
 73
4
 74
0
 40
0
 40
0
 40
0
 40
0
 40
1
 40
1
 40
1
 40
1
 10
266.125890
 20
510.935676
 30
0.0
 10
265.810457
 20
539.450491
 30
0.0
 10
275.824257
 20
568.043459
 30
0.0
 10
296.150930
 20
590.685675
 30
0.0
  0
LWPOLYLINE
  5
12e
100
AcDbEntity
  8
Layer_1
 62
7
100
AcDbPolyline
 90
2
 70
0
 10
394.750914
 20
629.310668
 30
0.0
 10
394.750914
 20
629.310668
 30
0.0
  0
SPLINE
  5
12f
100
AcDbEntity
  8
Layer_1
 62
7
100
AcDbSpline
 70
8
 71
3
 72
8
 73
4
 74
0
 40
0
 40
0
 40
0
 40
0
 40
1
 40
1
 40
1
 40
1
 10
168.825906
 20
542.135675
 30
0.0
 10
170.286075
 20
512.352669
 30
0.0
 10
181.969858
 20
485.250995
 30
0.0
 10
200.450907
 20
464.260675
 30
0.0
  0
SPLINE
  5
130
100
AcDbEntity
  8
Layer_1
 62
7
100
AcDbSpline
 70
8
 71
3
 72
8
 73
4
 74
0
 40
0
 40
0
 40
0
 40
0
 40
1
 40
1
 40
1
 40
1
 10
200.450907
 20
464.260675
 30
0.0
 10
172.546648
 20
462.485283
 30
0.0
 10
145.114805
 20
451.581001
 30
0.0
 10
123.025910
 20
431.560679
 30
0.0
  0
SPLINE
  5
131
100
AcDbEntity
  8
Layer_1
 62
7
100
AcDbSpline
 70
8
 71
3
 72
8
 73
4
 74
0
 40
0
 40
0
 40
0
 40
0
 40
1
 40
1
 40
1
 40
1
 10
123.025910
 20
431.560679
 30
0.0
 10
102.298374
 20
453.525114
 30
0.0
 10
91.607946
 20
481.464998
 30
0.0
 10
90.975906
 20
509.585677
 30
0.0
  0
SPLINE
  5
132
100
AcDbEntity
  8
Layer_1
 62
7
100
AcDbSpline
 70
8
 71
3
 72
8
 73
4
 74
0
 40
0
 40
0
 40
0
 40
0
 40
1
 40
1
 40
1
 40
1
 10
90.975906
 20
509.585677
 30
0.0
 10
111.308221
 20
529.036661
 30
0.0
 10
138.627692
 20
541.258734
 30
0.0
 10
168.825906
 20
542.135675
 30
0.0
  0
LWPOLYLINE
  5
133
100
AcDbEntity
  8
Layer_1
 62
7
100
AcDbPolyline
 90
2
 70
0
 10
296.150930
 20
590.685675
 30
0.0
 10
296.150930
 20
590.685675
 30
0.0
  0
SPLINE
  5
134
100
AcDbEntity
  8
Layer_1
 62
7
100
AcDbSpline
 70
8
 71
3
 72
8
 73
4
 74
0
 40
0
 40
0
 40
0
 40
0
 40
1
 40
1
 40
1
 40
1
 10
423.500871
 20
542.135675
 30
0.0
 10
453.699147
 20
541.258734
 30
0.0
 10
481.018611
 20
529.036661
 30
0.0
 10
501.350877
 20
509.585677
 30
0.0
  0
SPLINE
  5
135
100
AcDbEntity
  8
Layer_1
 62
7
100
AcDbSpline
 70
8
 71
3
 72
8
 73
4
 74
0
 40
0
 40
0
 40
0
 40
0
 40
1
 40
1
 40
1
 40
1
 10
501.350877
 20
509.585677
 30
0.0
 10
500.735392
 20
481.459930
 30
0.0
 10
490.055003
 20
453.515081
 30
0.0
 10
469.350887
 20
431.560679
 30
0.0
  0
SPLINE
  5
136
100
AcDbEntity
  8
Layer_1
 62
7
100
AcDbSpline
 70
8
 71
3
 72
8
 73
4
 74
0
 40
0
 40
0
 40
0
 40
0
 40
1
 40
1
 40
1
 40
1
 10
469.350887
 20
431.560679
 30
0.0
 10
447.259413
 20
451.593731
 30
0.0
 10
419.809707
 20
462.496573
 30
0.0
 10
391.875876
 20
464.260675
 30
0.0
  0
SPLINE
  5
137
100
AcDbEntity
  8
Layer_1
 62
7
100
AcDbSpline
 70
8
 71
3
 72
8
 73
4
 74
0
 40
0
 40
0
 40
0
 40
0
 40
1
 40
1
 40
1
 40
1
 10
391.875876
 20
464.260675
 30
0.0
 10
410.354835
 20
485.250414
 30
0.0
 10
422.040806
 20
512.354654
 30
0.0
 10
423.500871
 20
542.135675
 30
0.0
  0
LWPOLYLINE
  5
138
100
AcDbEntity
  8
Layer_1
 62
7
100
AcDbPolyline
 90
2
 70
0
 10
168.825906
 20
542.135675
 30
0.0
 10
168.825906
 20
542.135675
 30
0.0
  0
SPLINE
  5
139
100
AcDbEntity
  8
Layer_1
 62
7
100
AcDbSpline
 70
8
 71
3
 72
8
 73
4
 74
0
 40
0
 40
0
 40
0
 40
0
 40
1
 40
1
 40
1
 40
1
 10
178.725906
 20
542.010676
 30
0.0
 10
209.134919
 20
540.382821
 30
0.0
 10
236.427398
 20
527.258283
 30
0.0
 10
256.375929
 20
506.885679
 30
0.0
  0
SPLINE
  5
13a
100
AcDbEntity
  8
Layer_1
 62
7
100
AcDbSpline
 70
8
 71
3
 72
8
 73
4
 74
0
 40
0
 40
0
 40
0
 40
0
 40
1
 40
1
 40
1
 40
1
 10
256.375929
 20
506.885679
 30
0.0
 10
257.246935
 20
485.750192
 30
0.0
 10
263.339708
 20
464.801993
 30
0.0
 10
274.650892
 20
446.135676
 30
0.0
  0
SPLINE
  5
13b
100
AcDbEntity
  8
Layer_1
 62
7
100
AcDbSpline
 70
8
 71
3
 72
8
 73
4
 74
0
 40
0
 40
0
 40
0
 40
0
 40
1
 40
1
 40
1
 40
1
 10
274.650892
 20
446.135676
 30
0.0
 10
255.977234
 20
457.451307
 30
0.0
 10
235.019905
 20
463.543443
 30
0.0
 10
213.875917
 20
464.410681
 30
0.0
  0
SPLINE
  5
13c
100
AcDbEntity
  8
Layer_1
 62
7
100
AcDbSpline
 70
8
 71
3
 72
8
 73
4
 74
0
 40
0
 40
0
 40
0
 40
0
 40
1
 40
1
 40
1
 40
1
 10
213.875917
 20
464.410681
 30
0.0
 10
193.494344
 20
484.347272
 30
0.0
 10
180.366583
 20
511.634025
 30
0.0
 10
178.725906
 20
542.010676
 30
0.0
  0
LWPOLYLINE
  5
13d
100
AcDbEntity
  8
Layer_1
 62
7
100
AcDbPolyline
 90
2
 70
0
 10
423.500871
 20
542.135675
 30
0.0
 10
423.500871
 20
542.135675
 30
0.0
  0
SPLINE
  5
13e
100
AcDbEntity
  8
Layer_1
 62
7
100
AcDbSpline
 70
8
 71
3
 72
8
 73
4
 74
0
 40
0
 40
0
 40
0
 40
0
 40
1
 40
1
 40
1
 40
1
 10
413.600884
 20
542.010676
 30
0.0
 10
411.960033
 20
511.631061
 30
0.0
 10
398.810851
 20
484.347775
 30
0.0
 10
378.425873
 20
464.410681
 30
0.0
  0
SPLINE
  5
13f
100
AcDbEntity
  8
Layer_1
 62
7
100
AcDbSpline
 70
8
 71
3
 72
8
 73
4
 74
0
 40
0
 40
0
 40
0
 40
0
 40
1
 40
1
 40
1
 40
1
 10
378.425873
 20
464.410681
 30
0.0
 10
357.268463
 20
463.530182
 30
0.0
 10
336.287644
 20
457.409207
 30
0.0
 10
317.600913
 20
446.060677
 30
0.0
  0
SPLINE
  5
140
100
AcDbEntity
  8
Layer_1
 62
7
100
AcDbSpline
 70
8
 71
3
 72
8
 73
4
 74
0
 40
0
 40
0
 40
0
 40
0
 40
1
 40
1
 40
1
 40
1
 10
317.600913
 20
446.060677
 30
0.0
 10
328.949430
 20
464.747422
 30
0.0
 10
335.070376
 20
485.728261
 30
0.0
 10
335.950889
 20
506.885679
 30
0.0
  0
SPLINE
  5
141
100
AcDbEntity
  8
Layer_1
 62
7
100
AcDbSpline
 70
8
 71
3
 72
8
 73
4
 74
0
 40
0
 40
0
 40
0
 40
0
 40
1
 40
1
 40
1
 40
1
 10
335.950889
 20
506.885679
 30
0.0
 10
355.899351
 20
527.258283
 30
0.0
 10
383.191899
 20
540.382821
 30
0.0
 10
413.600884
 20
542.010676
 30
0.0
  0
LWPOLYLINE
  5
142
100
AcDbEntity
  8
Layer_1
 62
7
100
AcDbPolyline
 90
2
 70
0
 10
178.725906
 20
542.010676
 30
0.0
 10
178.725906
 20
542.010676
 30
0.0
  0
SPLINE
  5
143
100
AcDbEntity
  8
Layer_1
 62
7
100
AcDbSpline
 70
8
 71
3
 72
8
 73
4
 74
0
 40
0
 40
0
 40
0
 40
0
 40
1
 40
1
 40
1
 40
1
 10
81.700912
 20
499.660676
 30
0.0
 10
84.369828
 20
472.419246
 30
0.0
 10
95.778054
 20
445.881477
 30
0.0
 10
115.900906
 20
424.610680
 30
0.0
  0
SPLINE
  5
144
100
AcDbEntity
  8
Layer_1
 62
7
100
AcDbSpline
 70
8
 71
3
 72
8
 73
4
 74
0
 40
0
 40
0
 40
0
 40
0
 40
1
 40
1
 40
1
 40
1
 10
115.900906
 20
424.610680
 30
0.0
 10
95.780690
 20
403.337981
 30
0.0
 10
84.404454
 20
376.806400
 30
0.0
 10
81.725912
 20
349.585684
 30
0.0
  0
SPLINE
  5
145
100
AcDbEntity
  8
Layer_1
 62
7
100
AcDbSpline
 70
8
 71
3
 72
8
 73
4
 74
0
 40
0
 40
0
 40
0
 40
0
 40
1
 40
1
 40
1
 40
1
 10
81.725912
 20
349.585684
 30
0.0
 10
64.841817
 20
369.940405
 30
0.0
 10
54.675908
 20
396.073347
 30
0.0
 10
54.675908
 20
424.610680
 30
0.0
  0
SPLINE
  5
146
100
AcDbEntity
  8
Layer_1
 62
7
100
AcDbSpline
 70
8
 71
3
 72
8
 73
4
 74
0
 40
0
 40
0
 40
0
 40
0
 40
1
 40
1
 40
1
 40
1
 10
54.675908
 20
424.610680
 30
0.0
 10
54.675908
 20
453.142190
 30
0.0
 10
64.823012
 20
479.307752
 30
0.0
 10
81.700912
 20
499.660676
 30
0.0
  0
LWPOLYLINE
  5
147
100
AcDbEntity
  8
Layer_1
 62
7
100
AcDbPolyline
 90
2
 70
0
 10
413.600884
 20
542.010676
 30
0.0
 10
413.600884
 20
542.010676
 30
0.0
  0
SPLINE
  5
148
100
AcDbEntity
  8
Layer_1
 62
7
100
AcDbSpline
 70
8
 71
3
 72
8
 73
4
 74
0
 40
0
 40
0
 40
0
 40
0
 40
1
 40
1
 40
1
 40
1
 10
510.600913
 20
499.660676
 30
0.0
 10
527.484952
 20
479.305955
 30
0.0
 10
537.650875
 20
453.148013
 30
0.0
 10
537.650875
 20
424.610680
 30
0.0
  0
SPLINE
  5
149
100
AcDbEntity
  8
Layer_1
 62
7
100
AcDbSpline
 70
8
 71
3
 72
8
 73
4
 74
0
 40
0
 40
0
 40
0
 40
0
 40
1
 40
1
 40
1
 40
1
 10
537.650875
 20
424.610680
 30
0.0
 10
537.650875
 20
396.079170
 30
0.0
 10
527.503758
 20
369.938608
 30
0.0
 10
510.625871
 20
349.585684
 30
0.0
  0
SPLINE
  5
14a
100
AcDbEntity
  8
Layer_1
 62
7
100
AcDbSpline
 70
8
 71
3
 72
8
 73
4
 74
0
 40
0
 40
0
 40
0
 40
0
 40
1
 40
1
 40
1
 40
1
 10
510.625871
 20
349.585684
 30
0.0
 10
507.961052
 20
376.834993
 30
0.0
 10
496.554301
 20
403.359031
 30
0.0
 10
476.425892
 20
424.635680
 30
0.0
  0
SPLINE
  5
14b
100
AcDbEntity
  8
Layer_1
 62
7
100
AcDbSpline
 70
8
 71
3
 72
8
 73
4
 74
0
 40
0
 40
0
 40
0
 40
0
 40
1
 40
1
 40
1
 40
1
 10
476.425892
 20
424.635680
 30
0.0
 10
496.546122
 20
445.908372
 30
0.0
 10
507.922322
 20
472.439960
 30
0.0
 10
510.600913
 20
499.660676
 30
0.0
  0
LWPOLYLINE
  5
14c
100
AcDbEntity
  8
Layer_1
 62
7
100
AcDbPolyline
 90
2
 70
0
 10
81.700912
 20
499.660676
 30
0.0
 10
81.700912
 20
499.660676
 30
0.0
  0
SPLINE
  5
14d
100
AcDbEntity
  8
Layer_1
 62
7
100
AcDbSpline
 70
8
 71
3
 72
8
 73
4
 74
0
 40
0
 40
0
 40
0
 40
0
 40
1
 40
1
 40
1
 40
1
 10
267.600915
 20
493.610674
 30
0.0
 10
278.187066
 20
479.013670
 30
0.0
 10
285.490955
 20
461.874013
 30
0.0
 10
288.450933
 20
443.285680
 30
0.0
  0
SPLINE
  5
14e
100
AcDbEntity
  8
Layer_1
 62
7
100
AcDbSpline
 70
8
 71
3
 72
8
 73
4
 74
0
 40
0
 40
0
 40
0
 40
0
 40
1
 40
1
 40
1
 40
1
 10
288.450933
 20
443.285680
 30
0.0
 10
277.386110
 20
458.527064
 30
0.0
 10
270.447570
 20
475.804883
 30
0.0
 10
267.600915
 20
493.610674
 30
0.0
  0
LWPOLYLINE
  5
14f
100
AcDbEntity
  8
Layer_1
 62
7
100
AcDbPolyline
 90
2
 70
0
 10
510.600913
 20
499.660676
 30
0.0
 10
510.600913
 20
499.660676
 30
0.0
  0
SPLINE
  5
150
100
AcDbEntity
  8
Layer_1
 62
7
100
AcDbSpline
 70
8
 71
3
 72
8
 73
4
 74
0
 40
0
 40
0
 40
0
 40
0
 40
1
 40
1
 40
1
 40
1
 10
324.750931
 20
493.610674
 30
0.0
 10
321.911058
 20
475.769537
 30
0.0
 10
314.936723
 20
458.469521
 30
0.0
 10
303.850928
 20
443.210681
 30
0.0
  0
SPLINE
  5
151
100
AcDbEntity
  8
Layer_1
 62
7
100
AcDbSpline
 70
8
 71
3
 72
8
 73
4
 74
0
 40
0
 40
0
 40
0
 40
0
 40
1
 40
1
 40
1
 40
1
 10
303.850928
 20
443.210681
 30
0.0
 10
306.803635
 20
461.833969
 30
0.0
 10
314.145275
 20
478.990795
 30
0.0
 10
324.750931
 20
493.610674
 30
0.0
  0
LWPOLYLINE
  5
152
100
AcDbEntity
  8
Layer_1
 62
7
100
AcDbPolyline
 90
2
 70
0
 10
267.600915
 20
493.610674
 30
0.0
 10
267.600915
 20
493.610674
 30
0.0
  0
SPLINE
  5
153
100
AcDbEntity
  8
Layer_1
 62
7
100
AcDbSpline
 70
8
 71
3
 72
8
 73
4
 74
0
 40
0
 40
0
 40
0
 40
0
 40
1
 40
1
 40
1
 40
1
 10
208.550900
 20
454.685699
 30
0.0
 10
208.983565
 20
454.685664
 30
0.0
 10
209.418263
 20
454.665495
 30
0.0
 10
209.850935
 20
454.660671
 30
0.0
  0
SPLINE
  5
154
100
AcDbEntity
  8
Layer_1
 62
7
100
AcDbSpline
 70
8
 71
3
 72
8
 73
4
 74
0
 40
0
 40
0
 40
0
 40
0
 40
1
 40
1
 40
1
 40
1
 10
209.850935
 20
454.660671
 30
0.0
 10
225.401934
 20
440.336944
 30
0.0
 10
244.517841
 20
429.842144
 30
0.0
 10
265.700909
 20
424.635673
 30
0.0
  0
SPLINE
  5
155
100
AcDbEntity
  8
Layer_1
 62
7
100
AcDbSpline
 70
8
 71
3
 72
8
 73
4
 74
0
 40
0
 40
0
 40
0
 40
0
 40
1
 40
1
 40
1
 40
1
 10
265.700909
 20
424.635673
 30
0.0
 10
244.515534
 20
419.429691
 30
0.0
 10
225.403333
 20
408.910696
 30
0.0
 10
209.850935
 20
394.585675
 30
0.0
  0
SPLINE
  5
156
100
AcDbEntity
  8
Layer_1
 62
7
100
AcDbSpline
 70
8
 71
3
 72
8
 73
4
 74
0
 40
0
 40
0
 40
0
 40
0
 40
1
 40
1
 40
1
 40
1
 10
209.850935
 20
394.585675
 30
0.0
 10
181.346487
 20
394.290082
 30
0.0
 10
152.749325
 20
404.315061
 30
0.0
 10
130.100907
 20
424.660673
 30
0.0
  0
SPLINE
  5
157
100
AcDbEntity
  8
Layer_1
 62
7
100
AcDbSpline
 70
8
 71
3
 72
8
 73
4
 74
0
 40
0
 40
0
 40
0
 40
0
 40
1
 40
1
 40
1
 40
1
 10
130.100907
 20
424.660673
 30
0.0
 10
152.397595
 20
444.671536
 30
0.0
 10
180.472692
 20
454.687796
 30
0.0
 10
208.550900
 20
454.685671
 30
0.0
  0
LWPOLYLINE
  5
158
100
AcDbEntity
  8
Layer_1
 62
7
100
AcDbPolyline
 90
2
 70
0
 10
324.750931
 20
493.610674
 30
0.0
 10
324.750931
 20
493.610674
 30
0.0
  0
SPLINE
  5
159
100
AcDbEntity
  8
Layer_1
 62
7
100
AcDbSpline
 70
8
 71
3
 72
8
 73
4
 74
0
 40
0
 40
0
 40
0
 40
0
 40
1
 40
1
 40
1
 40
1
 10
383.700912
 20
454.685699
 30
0.0
 10
411.790851
 20
454.683602
 30
0.0
 10
439.906028
 20
444.656302
 30
0.0
 10
462.225897
 20
424.610701
 30
0.0
  0
SPLINE
  5
15a
100
AcDbEntity
  8
Layer_1
 62
7
100
AcDbSpline
 70
8
 71
3
 72
8
 73
4
 74
0
 40
0
 40
0
 40
0
 40
0
 40
1
 40
1
 40
1
 40
1
 10
462.225897
 20
424.610701
 30
0.0
 10
439.583954
 20
404.285034
 30
0.0
 10
410.990035
 20
394.270249
 30
0.0
 10
382.475884
 20
394.585703
 30
0.0
  0
SPLINE
  5
15b
100
AcDbEntity
  8
Layer_1
 62
7
100
AcDbSpline
 70
8
 71
3
 72
8
 73
4
 74
0
 40
0
 40
0
 40
0
 40
0
 40
1
 40
1
 40
1
 40
1
 10
382.475884
 20
394.585703
 30
0.0
 10
366.923486
 20
408.910724
 30
0.0
 10
347.811214
 20
419.429719
 30
0.0
 10
326.625910
 20
424.635701
 30
0.0
  0
SPLINE
  5
15c
100
AcDbEntity
  8
Layer_1
 62
7
100
AcDbSpline
 70
8
 71
3
 72
8
 73
4
 74
0
 40
0
 40
0
 40
0
 40
0
 40
1
 40
1
 40
1
 40
1
 10
326.625910
 20
424.635701
 30
0.0
 10
347.808977
 20
429.842172
 30
0.0
 10
366.924884
 20
440.336972
 30
0.0
 10
382.475884
 20
454.660699
 30
0.0
  0
SPLINE
  5
15d
100
AcDbEntity
  8
Layer_1
 62
7
100
AcDbSpline
 70
8
 71
3
 72
8
 73
4
 74
0
 40
0
 40
0
 40
0
 40
0
 40
1
 40
1
 40
1
 40
1
 10
382.475884
 20
454.660699
 30
0.0
 10
382.887233
 20
454.664894
 30
0.0
 10
383.289563
 20
454.685727
 30
0.0
 10
383.700912
 20
454.685727
 30
0.0
  0
LWPOLYLINE
  5
15e
100
AcDbEntity
  8
Layer_1
 62
7
100
AcDbPolyline
 90
2
 70
0
 10
208.550900
 20
454.685671
 30
0.0
 10
208.550900
 20
454.685699
 30
0.0
  0
SPLINE
  5
15f
100
AcDbEntity
  8
Layer_1
 62
7
100
AcDbSpline
 70
8
 71
3
 72
8
 73
4
 74
0
 40
0
 40
0
 40
0
 40
0
 40
1
 40
1
 40
1
 40
1
 10
365.125897
 20
453.210702
 30
0.0
 10
350.528466
 20
442.638358
 30
0.0
 10
333.417850
 20
435.340733
 30
0.0
 10
314.825916
 20
432.385698
 30
0.0
  0
SPLINE
  5
160
100
AcDbEntity
  8
Layer_1
 62
7
100
AcDbSpline
 70
8
 71
3
 72
8
 73
4
 74
0
 40
0
 40
0
 40
0
 40
0
 40
1
 40
1
 40
1
 40
1
 10
314.825916
 20
432.385698
 30
0.0
 10
330.057009
 20
443.430617
 30
0.0
 10
347.326530
 20
450.373681
 30
0.0
 10
365.125897
 20
453.210702
 30
0.0
  0
LWPOLYLINE
  5
161
100
AcDbEntity
  8
Layer_1
 62
7
100
AcDbPolyline
 90
2
 70
0
 10
383.700912
 20
454.685727
 30
0.0
 10
383.700912
 20
454.685699
 30
0.0
  0
SPLINE
  5
162
100
AcDbEntity
  8
Layer_1
 62
7
100
AcDbSpline
 70
8
 71
3
 72
8
 73
4
 74
0
 40
0
 40
0
 40
0
 40
0
 40
1
 40
1
 40
1
 40
1
 10
227.175894
 20
453.185674
 30
0.0
 10
244.946737
 20
450.344598
 30
0.0
 10
262.181443
 20
443.412643
 30
0.0
 10
277.400931
 20
432.385670
 30
0.0
  0
SPLINE
  5
163
100
AcDbEntity
  8
Layer_1
 62
7
100
AcDbSpline
 70
8
 71
3
 72
8
 73
4
 74
0
 40
0
 40
0
 40
0
 40
0
 40
1
 40
1
 40
1
 40
1
 10
277.400931
 20
432.385670
 30
0.0
 10
258.849196
 20
435.350360
 30
0.0
 10
241.746410
 20
442.634142
 30
0.0
 10
227.175894
 20
453.185674
 30
0.0
  0
LWPOLYLINE
  5
164
100
AcDbEntity
  8
Layer_1
 62
7
100
AcDbPolyline
 90
2
 70
0
 10
365.125897
 20
453.210702
 30
0.0
 10
365.125897
 20
453.210702
 30
0.0
  0
SPLINE
  5
165
100
AcDbEntity
  8
Layer_1
 62
7
100
AcDbSpline
 70
8
 71
3
 72
8
 73
4
 74
0
 40
0
 40
0
 40
0
 40
0
 40
1
 40
1
 40
1
 40
1
 10
122.975910
 20
417.685674
 30
0.0
 10
145.067385
 20
397.652614
 30
0.0
 10
172.517105
 20
386.749780
 30
0.0
 10
200.450907
 20
384.985678
 30
0.0
  0
SPLINE
  5
166
100
AcDbEntity
  8
Layer_1
 62
7
100
AcDbSpline
 70
8
 71
3
 72
8
 73
4
 74
0
 40
0
 40
0
 40
0
 40
0
 40
1
 40
1
 40
1
 40
1
 10
200.450907
 20
384.985678
 30
0.0
 10
181.969858
 20
363.995358
 30
0.0
 10
170.286075
 20
336.893684
 30
0.0
 10
168.825906
 20
307.110678
 30
0.0
  0
SPLINE
  5
167
100
AcDbEntity
  8
Layer_1
 62
7
100
AcDbSpline
 70
8
 71
3
 72
8
 73
4
 74
0
 40
0
 40
0
 40
0
 40
0
 40
1
 40
1
 40
1
 40
1
 10
168.825906
 20
307.110678
 30
0.0
 10
138.628181
 20
307.987619
 30
0.0
 10
111.308109
 20
320.185231
 30
0.0
 10
90.975906
 20
339.635676
 30
0.0
  0
SPLINE
  5
168
100
AcDbEntity
  8
Layer_1
 62
7
100
AcDbSpline
 70
8
 71
3
 72
8
 73
4
 74
0
 40
0
 40
0
 40
0
 40
0
 40
1
 40
1
 40
1
 40
1
 10
90.975906
 20
339.635676
 30
0.0
 10
91.585610
 20
367.769917
 30
0.0
 10
102.265607
 20
395.724721
 30
0.0
 10
122.975910
 20
417.685674
 30
0.0
  0
LWPOLYLINE
  5
169
100
AcDbEntity
  8
Layer_1
 62
7
100
AcDbPolyline
 90
2
 70
0
 10
227.175894
 20
453.185674
 30
0.0
 10
227.175894
 20
453.185674
 30
0.0
  0
SPLINE
  5
16a
100
AcDbEntity
  8
Layer_1
 62
7
100
AcDbSpline
 70
8
 71
3
 72
8
 73
4
 74
0
 40
0
 40
0
 40
0
 40
0
 40
1
 40
1
 40
1
 40
1
 10
469.300902
 20
417.685674
 30
0.0
 10
490.034590
 20
395.714745
 30
0.0
 10
500.724626
 20
367.764779
 30
0.0
 10
501.350877
 20
339.635676
 30
0.0
  0
SPLINE
  5
16b
100
AcDbEntity
  8
Layer_1
 62
7
100
AcDbSpline
 70
8
 71
3
 72
8
 73
4
 74
0
 40
0
 40
0
 40
0
 40
0
 40
1
 40
1
 40
1
 40
1
 10
501.350877
 20
339.635676
 30
0.0
 10
481.018681
 20
320.185231
 30
0.0
 10
453.698658
 20
307.987619
 30
0.0
 10
423.500871
 20
307.110678
 30
0.0
  0
SPLINE
  5
16c
100
AcDbEntity
  8
Layer_1
 62
7
100
AcDbSpline
 70
8
 71
3
 72
8
 73
4
 74
0
 40
0
 40
0
 40
0
 40
0
 40
1
 40
1
 40
1
 40
1
 10
423.500871
 20
307.110678
 30
0.0
 10
422.040806
 20
336.891699
 30
0.0
 10
410.354835
 20
363.995938
 30
0.0
 10
391.875876
 20
384.985678
 30
0.0
  0
SPLINE
  5
16d
100
AcDbEntity
  8
Layer_1
 62
7
100
AcDbSpline
 70
8
 71
3
 72
8
 73
4
 74
0
 40
0
 40
0
 40
0
 40
0
 40
1
 40
1
 40
1
 40
1
 10
391.875876
 20
384.985678
 30
0.0
 10
419.780135
 20
386.761063
 30
0.0
 10
447.212014
 20
397.665352
 30
0.0
 10
469.300902
 20
417.685674
 30
0.0
  0
LWPOLYLINE
  5
16e
100
AcDbEntity
  8
Layer_1
 62
7
100
AcDbPolyline
 90
2
 70
0
 10
122.975910
 20
417.685674
 30
0.0
 10
122.975910
 20
417.685674
 30
0.0
  0
SPLINE
  5
16f
100
AcDbEntity
  8
Layer_1
 62
7
100
AcDbSpline
 70
8
 71
3
 72
8
 73
4
 74
0
 40
0
 40
0
 40
0
 40
0
 40
1
 40
1
 40
1
 40
1
 10
277.500902
 20
416.860676
 30
0.0
 10
262.269739
 20
405.815757
 30
0.0
 10
245.000288
 20
398.872693
 30
0.0
 10
227.200921
 20
396.035672
 30
0.0
  0
SPLINE
  5
170
100
AcDbEntity
  8
Layer_1
 62
7
100
AcDbSpline
 70
8
 71
3
 72
8
 73
4
 74
0
 40
0
 40
0
 40
0
 40
0
 40
1
 40
1
 40
1
 40
1
 10
227.200921
 20
396.035672
 30
0.0
 10
241.795137
 20
406.602311
 30
0.0
 10
258.915191
 20
413.906627
 30
0.0
 10
277.500902
 20
416.860676
 30
0.0
  0
LWPOLYLINE
  5
171
100
AcDbEntity
  8
Layer_1
 62
7
100
AcDbPolyline
 90
2
 70
0
 10
469.300902
 20
417.685674
 30
0.0
 10
469.300902
 20
417.685674
 30
0.0
  0
SPLINE
  5
172
100
AcDbEntity
  8
Layer_1
 62
7
100
AcDbSpline
 70
8
 71
3
 72
8
 73
4
 74
0
 40
0
 40
0
 40
0
 40
0
 40
1
 40
1
 40
1
 40
1
 10
314.900930
 20
416.860676
 30
0.0
 10
333.450707
 20
413.900300
 30
0.0
 10
350.529794
 20
406.606415
 30
0.0
 10
365.100869
 20
396.060672
 30
0.0
  0
SPLINE
  5
173
100
AcDbEntity
  8
Layer_1
 62
7
100
AcDbSpline
 70
8
 71
3
 72
8
 73
4
 74
0
 40
0
 40
0
 40
0
 40
0
 40
1
 40
1
 40
1
 40
1
 10
365.100869
 20
396.060672
 30
0.0
 10
347.345476
 20
398.906907
 30
0.0
 10
330.107554
 20
405.841868
 30
0.0
 10
314.900930
 20
416.860676
 30
0.0
  0
LWPOLYLINE
  5
174
100
AcDbEntity
  8
Layer_1
 62
7
100
AcDbPolyline
 90
2
 70
0
 10
277.500902
 20
416.860676
 30
0.0
 10
277.500902
 20
416.860676
 30
0.0
  0
SPLINE
  5
175
100
AcDbEntity
  8
Layer_1
 62
7
100
AcDbSpline
 70
8
 71
3
 72
8
 73
4
 74
0
 40
0
 40
0
 40
0
 40
0
 40
1
 40
1
 40
1
 40
1
 10
288.475891
 20
406.035672
 30
0.0
 10
285.523743
 20
387.410217
 30
0.0
 10
278.182592
 20
370.257026
 30
0.0
 10
267.575888
 20
355.635679
 30
0.0
  0
SPLINE
  5
176
100
AcDbEntity
  8
Layer_1
 62
7
100
AcDbSpline
 70
8
 71
3
 72
8
 73
4
 74
0
 40
0
 40
0
 40
0
 40
0
 40
1
 40
1
 40
1
 40
1
 10
267.575888
 20
355.635679
 30
0.0
 10
270.415691
 20
373.476816
 30
0.0
 10
277.390095
 20
390.776832
 30
0.0
 10
288.475891
 20
406.035672
 30
0.0
  0
LWPOLYLINE
  5
177
100
AcDbEntity
  8
Layer_1
 62
7
100
AcDbPolyline
 90
2
 70
0
 10
314.900930
 20
416.860676
 30
0.0
 10
314.900930
 20
416.860676
 30
0.0
  0
SPLINE
  5
178
100
AcDbEntity
  8
Layer_1
 62
7
100
AcDbSpline
 70
8
 71
3
 72
8
 73
4
 74
0
 40
0
 40
0
 40
0
 40
0
 40
1
 40
1
 40
1
 40
1
 10
303.875886
 20
405.985686
 30
0.0
 10
314.942386
 20
390.743317
 30
0.0
 10
321.878969
 20
373.443050
 30
0.0
 10
324.725903
 20
355.635693
 30
0.0
  0
SPLINE
  5
179
100
AcDbEntity
  8
Layer_1
 62
7
100
AcDbSpline
 70
8
 71
3
 72
8
 73
4
 74
0
 40
0
 40
0
 40
0
 40
0
 40
1
 40
1
 40
1
 40
1
 10
324.725903
 20
355.635693
 30
0.0
 10
314.133880
 20
370.240695
 30
0.0
 10
306.832718
 20
387.385567
 30
0.0
 10
303.875886
 20
405.985686
 30
0.0
  0
LWPOLYLINE
  5
17a
100
AcDbEntity
  8
Layer_1
 62
7
100
AcDbPolyline
 90
2
 70
0
 10
288.475891
 20
406.035672
 30
0.0
 10
288.475891
 20
406.035672
 30
0.0
  0
SPLINE
  5
17b
100
AcDbEntity
  8
Layer_1
 62
7
100
AcDbSpline
 70
8
 71
3
 72
8
 73
4
 74
0
 40
0
 40
0
 40
0
 40
0
 40
1
 40
1
 40
1
 40
1
 10
274.725905
 20
403.185690
 30
0.0
 10
263.377389
 20
384.498945
 30
0.0
 10
257.256373
 20
363.518105
 30
0.0
 10
256.375929
 20
342.360688
 30
0.0
  0
SPLINE
  5
17c
100
AcDbEntity
  8
Layer_1
 62
7
100
AcDbSpline
 70
8
 71
3
 72
8
 73
4
 74
0
 40
0
 40
0
 40
0
 40
0
 40
1
 40
1
 40
1
 40
1
 10
256.375929
 20
342.360688
 30
0.0
 10
236.427398
 20
321.988042
 30
0.0
 10
209.134989
 20
308.838518
 30
0.0
 10
178.725906
 20
307.210691
 30
0.0
  0
SPLINE
  5
17d
100
AcDbEntity
  8
Layer_1
 62
7
100
AcDbSpline
 70
8
 71
3
 72
8
 73
4
 74
0
 40
0
 40
0
 40
0
 40
0
 40
1
 40
1
 40
1
 40
1
 10
178.725906
 20
307.210691
 30
0.0
 10
180.366317
 20
337.598388
 30
0.0
 10
193.507466
 20
364.896704
 30
0.0
 10
213.900875
 20
384.835686
 30
0.0
  0
SPLINE
  5
17e
100
AcDbEntity
  8
Layer_1
 62
7
100
AcDbSpline
 70
8
 71
3
 72
8
 73
4
 74
0
 40
0
 40
0
 40
0
 40
0
 40
1
 40
1
 40
1
 40
1
 10
213.900875
 20
384.835686
 30
0.0
 10
235.058286
 20
385.716185
 30
0.0
 10
256.039174
 20
391.837160
 30
0.0
 10
274.725905
 20
403.185690
 30
0.0
  0
LWPOLYLINE
  5
17f
100
AcDbEntity
  8
Layer_1
 62
7
100
AcDbPolyline
 90
2
 70
0
 10
303.875886
 20
405.985686
 30
0.0
 10
303.875886
 20
405.985686
 30
0.0
  0
SPLINE
  5
180
100
AcDbEntity
  8
Layer_1
 62
7
100
AcDbSpline
 70
8
 71
3
 72
8
 73
4
 74
0
 40
0
 40
0
 40
0
 40
0
 40
1
 40
1
 40
1
 40
1
 10
317.675926
 20
403.110691
 30
0.0
 10
336.342244
 20
391.799520
 30
0.0
 10
357.290414
 20
385.706706
 30
0.0
 10
378.425873
 20
384.835686
 30
0.0
  0
SPLINE
  5
181
100
AcDbEntity
  8
Layer_1
 62
7
100
AcDbSpline
 70
8
 71
3
 72
8
 73
4
 74
0
 40
0
 40
0
 40
0
 40
0
 40
1
 40
1
 40
1
 40
1
 10
378.425873
 20
384.835686
 30
0.0
 10
398.815466
 20
364.897285
 30
0.0
 10
411.960662
 20
337.595018
 30
0.0
 10
413.600884
 20
307.210691
 30
0.0
  0
SPLINE
  5
182
100
AcDbEntity
  8
Layer_1
 62
7
100
AcDbSpline
 70
8
 71
3
 72
8
 73
4
 74
0
 40
0
 40
0
 40
0
 40
0
 40
1
 40
1
 40
1
 40
1
 10
413.600884
 20
307.210691
 30
0.0
 10
383.191829
 20
308.838518
 30
0.0
 10
355.899421
 20
321.988042
 30
0.0
 10
335.950889
 20
342.360688
 30
0.0
  0
SPLINE
  5
183
100
AcDbEntity
  8
Layer_1
 62
7
100
AcDbSpline
 70
8
 71
3
 72
8
 73
4
 74
0
 40
0
 40
0
 40
0
 40
0
 40
1
 40
1
 40
1
 40
1
 10
335.950889
 20
342.360688
 30
0.0
 10
335.079884
 20
363.496175
 30
0.0
 10
328.987041
 20
384.444374
 30
0.0
 10
317.675926
 20
403.110691
 30
0.0
  0
LWPOLYLINE
  5
184
100
AcDbEntity
  8
Layer_1
 62
7
100
AcDbPolyline
 90
2
 70
0
 10
274.725905
 20
403.185690
 30
0.0
 10
274.725905
 20
403.185690
 30
0.0
  0
SPLINE
  5
185
100
AcDbEntity
  8
Layer_1
 62
7
100
AcDbSpline
 70
8
 71
3
 72
8
 73
4
 74
0
 40
0
 40
0
 40
0
 40
0
 40
1
 40
1
 40
1
 40
1
 10
296.150930
 20
394.285685
 30
0.0
 10
301.340889
 20
373.051947
 30
0.0
 10
311.865309
 20
353.891081
 30
0.0
 10
326.200928
 20
338.310691
 30
0.0
  0
SPLINE
  5
186
100
AcDbEntity
  8
Layer_1
 62
7
100
AcDbSpline
 70
8
 71
3
 72
8
 73
4
 74
0
 40
0
 40
0
 40
0
 40
0
 40
1
 40
1
 40
1
 40
1
 10
326.200928
 20
338.310691
 30
0.0
 10
326.516361
 20
309.795876
 30
0.0
 10
316.502561
 20
281.202908
 30
0.0
 10
296.175888
 20
258.560692
 30
0.0
  0
SPLINE
  5
187
100
AcDbEntity
  8
Layer_1
 62
7
100
AcDbSpline
 70
8
 71
3
 72
8
 73
4
 74
0
 40
0
 40
0
 40
0
 40
0
 40
1
 40
1
 40
1
 40
1
 10
296.175888
 20
258.560692
 30
0.0
 10
275.836771
 20
281.207410
 30
0.0
 10
265.830381
 20
309.810781
 30
0.0
 10
266.125890
 20
338.310691
 30
0.0
  0
SPLINE
  5
188
100
AcDbEntity
  8
Layer_1
 62
7
100
AcDbSpline
 70
8
 71
3
 72
8
 73
4
 74
0
 40
0
 40
0
 40
0
 40
0
 40
1
 40
1
 40
1
 40
1
 10
266.125890
 20
338.310691
 30
0.0
 10
280.461509
 20
353.891081
 30
0.0
 10
290.960902
 20
373.051947
 30
0.0
 10
296.150930
 20
394.285685
 30
0.0
  0
LWPOLYLINE
  5
189
100
AcDbEntity
  8
Layer_1
 62
7
100
AcDbPolyline
 90
2
 70
0
 10
317.675926
 20
403.110691
 30
0.0
 10
317.675926
 20
403.110691
 30
0.0
  0
SPLINE
  5
18a
100
AcDbEntity
  8
Layer_1
 62
7
100
AcDbSpline
 70
8
 71
3
 72
8
 73
4
 74
0
 40
0
 40
0
 40
0
 40
0
 40
1
 40
1
 40
1
 40
1
 10
256.525886
 20
328.935692
 30
0.0
 10
258.286842
 20
300.996366
 30
0.0
 10
269.189055
 20
273.531406
 30
0.0
 10
289.225882
 20
251.435695
 30
0.0
  0
SPLINE
  5
18b
100
AcDbEntity
  8
Layer_1
 62
7
100
AcDbSpline
 70
8
 71
3
 72
8
 73
4
 74
0
 40
0
 40
0
 40
0
 40
0
 40
1
 40
1
 40
1
 40
1
 10
289.225882
 20
251.435695
 30
0.0
 10
267.271501
 20
230.731558
 30
0.0
 10
239.326624
 20
220.051239
 30
0.0
 10
211.200891
 20
219.435684
 30
0.0
  0
SPLINE
  5
18c
100
AcDbEntity
  8
Layer_1
 62
7
100
AcDbSpline
 70
8
 71
3
 72
8
 73
4
 74
0
 40
0
 40
0
 40
0
 40
0
 40
1
 40
1
 40
1
 40
1
 10
211.200891
 20
219.435684
 30
0.0
 10
191.724153
 20
239.764308
 30
0.0
 10
179.484322
 20
267.074068
 30
0.0
 10
178.600908
 20
297.260691
 30
0.0
  0
SPLINE
  5
18d
100
AcDbEntity
  8
Layer_1
 62
7
100
AcDbSpline
 70
8
 71
3
 72
8
 73
4
 74
0
 40
0
 40
0
 40
0
 40
0
 40
1
 40
1
 40
1
 40
1
 10
178.600908
 20
297.260691
 30
0.0
 10
208.395736
 20
298.715687
 30
0.0
 10
235.523395
 20
310.422875
 30
0.0
 10
256.525886
 20
328.935692
 30
0.0
  0
LWPOLYLINE
  5
18e
100
AcDbEntity
  8
Layer_1
 62
7
100
AcDbPolyline
 90
2
 70
0
 10
296.150930
 20
394.285685
 30
0.0
 10
296.150930
 20
394.285685
 30
0.0
  0
SPLINE
  5
18f
100
AcDbEntity
  8
Layer_1
 62
7
100
AcDbSpline
 70
8
 71
3
 72
8
 73
4
 74
0
 40
0
 40
0
 40
0
 40
0
 40
1
 40
1
 40
1
 40
1
 10
335.800933
 20
328.910664
 30
0.0
 10
356.805800
 20
310.404090
 30
0.0
 10
383.932243
 20
298.710269
 30
0.0
 10
413.725883
 20
297.260663
 30
0.0
  0
SPLINE
  5
190
100
AcDbEntity
  8
Layer_1
 62
7
100
AcDbSpline
 70
8
 71
3
 72
8
 73
4
 74
0
 40
0
 40
0
 40
0
 40
0
 40
1
 40
1
 40
1
 40
1
 10
413.725883
 20
297.260663
 30
0.0
 10
412.842503
 20
267.074655
 30
0.0
 10
400.601939
 20
239.764154
 30
0.0
 10
381.125927
 20
219.435614
 30
0.0
  0
SPLINE
  5
191
100
AcDbEntity
  8
Layer_1
 62
7
100
AcDbSpline
 70
8
 71
3
 72
8
 73
4
 74
0
 40
0
 40
0
 40
0
 40
0
 40
1
 40
1
 40
1
 40
1
 10
381.125927
 20
219.435614
 30
0.0
 10
353.005228
 20
220.067668
 30
0.0
 10
325.065315
 20
230.758124
 30
0.0
 10
303.100866
 20
251.485666
 30
0.0
  0
SPLINE
  5
192
100
AcDbEntity
  8
Layer_1
 62
7
100
AcDbSpline
 70
8
 71
3
 72
8
 73
4
 74
0
 40
0
 40
0
 40
0
 40
0
 40
1
 40
1
 40
1
 40
1
 10
303.100866
 20
251.485666
 30
0.0
 10
323.121195
 20
273.574561
 30
0.0
 10
334.025505
 20
301.006405
 30
0.0
 10
335.800933
 20
328.910664
 30
0.0
  0
LWPOLYLINE
  5
193
100
AcDbEntity
  8
Layer_1
 62
7
100
AcDbPolyline
 90
2
 70
0
 10
256.525886
 20
328.935692
 30
0.0
 10
256.525886
 20
328.935692
 30
0.0
  0
SPLINE
  5
194
100
AcDbEntity
  8
Layer_1
 62
7
100
AcDbSpline
 70
8
 71
3
 72
8
 73
4
 74
0
 40
0
 40
0
 40
0
 40
0
 40
1
 40
1
 40
1
 40
1
 10
500.850883
 20
326.035661
 30
0.0
 10
498.396492
 20
299.704406
 30
0.0
 10
487.104393
 20
274.064202
 30
0.0
 10
466.925859
 20
253.885667
 30
0.0
  0
SPLINE
  5
195
100
AcDbEntity
  8
Layer_1
 62
7
100
AcDbSpline
 70
8
 71
3
 72
8
 73
4
 74
0
 40
0
 40
0
 40
0
 40
0
 40
1
 40
1
 40
1
 40
1
 10
466.925859
 20
253.885667
 30
0.0
 10
446.747394
 20
233.707140
 30
0.0
 10
421.082134
 20
222.390069
 30
0.0
 10
394.750914
 20
219.935608
 30
0.0
  0
SPLINE
  5
196
100
AcDbEntity
  8
Layer_1
 62
7
100
AcDbSpline
 70
8
 71
3
 72
8
 73
4
 74
0
 40
0
 40
0
 40
0
 40
0
 40
1
 40
1
 40
1
 40
1
 10
394.750914
 20
219.935608
 30
0.0
 10
412.097266
 20
241.069487
 30
0.0
 10
422.779053
 20
267.880148
 30
0.0
 10
423.600912
 20
297.135664
 30
0.0
  0
SPLINE
  5
197
100
AcDbEntity
  8
Layer_1
 62
7
100
AcDbSpline
 70
8
 71
3
 72
8
 73
4
 74
0
 40
0
 40
0
 40
0
 40
0
 40
1
 40
1
 40
1
 40
1
 10
423.600912
 20
297.135664
 30
0.0
 10
452.876729
 20
297.946813
 30
0.0
 10
479.698716
 20
308.654585
 30
0.0
 10
500.850883
 20
326.035661
 30
0.0
  0
LWPOLYLINE
  5
198
100
AcDbEntity
  8
Layer_1
 62
7
100
AcDbPolyline
 90
2
 70
0
 10
335.800933
 20
328.910664
 30
0.0
 10
335.800933
 20
328.910664
 30
0.0
  0
SPLINE
  5
199
100
AcDbEntity
  8
Layer_1
 62
7
100
AcDbSpline
 70
8
 71
3
 72
8
 73
4
 74
0
 40
0
 40
0
 40
0
 40
0
 40
1
 40
1
 40
1
 40
1
 10
91.475907
 20
326.010634
 30
0.0
 10
112.624139
 20
308.642023
 30
0.0
 10
139.461981
 20
297.946463
 30
0.0
 10
168.725907
 20
297.135636
 30
0.0
  0
SPLINE
  5
19a
100
AcDbEntity
  8
Layer_1
 62
7
100
AcDbSpline
 70
8
 71
3
 72
8
 73
4
 74
0
 40
0
 40
0
 40
0
 40
0
 40
1
 40
1
 40
1
 40
1
 10
168.725907
 20
297.135636
 30
0.0
 10
169.547766
 20
267.880120
 30
0.0
 10
180.229518
 20
241.069459
 30
0.0
 10
197.575905
 20
219.935608
 30
0.0
  0
SPLINE
  5
19b
100
AcDbEntity
  8
Layer_1
 62
7
100
AcDbSpline
 70
8
 71
3
 72
8
 73
4
 74
0
 40
0
 40
0
 40
0
 40
0
 40
1
 40
1
 40
1
 40
1
 10
197.575905
 20
219.935608
 30
0.0
 10
171.267594
 20
222.408176
 30
0.0
 10
145.629844
 20
233.731692
 30
0.0
 10
125.450910
 20
253.910639
 30
0.0
  0
SPLINE
  5
19c
100
AcDbEntity
  8
Layer_1
 62
7
100
AcDbSpline
 70
8
 71
3
 72
8
 73
4
 74
0
 40
0
 40
0
 40
0
 40
0
 40
1
 40
1
 40
1
 40
1
 10
125.450910
 20
253.910639
 30
0.0
 10
105.278339
 20
274.083204
 30
0.0
 10
93.953270
 20
299.711034
 30
0.0
 10
91.475907
 20
326.010634
 30
0.0
  0
LWPOLYLINE
  5
19d
100
AcDbEntity
  8
Layer_1
 62
7
100
AcDbPolyline
 90
2
 70
0
 10
500.850883
 20
326.035661
 30
0.0
 10
500.850883
 20
326.035661
 30
0.0
  0
SPLINE
  5
19e
100
AcDbEntity
  8
Layer_1
 62
7
100
AcDbSpline
 70
8
 71
3
 72
8
 73
4
 74
0
 40
0
 40
0
 40
0
 40
0
 40
1
 40
1
 40
1
 40
1
 10
296.150930
 20
244.360642
 30
0.0
 10
317.421665
 20
224.237783
 30
0.0
 10
343.959468
 20
212.829564
 30
0.0
 10
371.200913
 20
210.160620
 30
0.0
  0
SPLINE
  5
19f
100
AcDbEntity
  8
Layer_1
 62
7
100
AcDbSpline
 70
8
 71
3
 72
8
 73
4
 74
0
 40
0
 40
0
 40
0
 40
0
 40
1
 40
1
 40
1
 40
1
 10
371.200913
 20
210.160620
 30
0.0
 10
350.847464
 20
193.298184
 30
0.0
 10
324.695772
 20
183.185671
 30
0.0
 10
296.150930
 20
183.185671
 30
0.0
  0
SPLINE
  5
1a0
100
AcDbEntity
  8
Layer_1
 62
7
100
AcDbSpline
 70
8
 71
3
 72
8
 73
4
 74
0
 40
0
 40
0
 40
0
 40
0
 40
1
 40
1
 40
1
 40
1
 10
296.150930
 20
183.185671
 30
0.0
 10
267.605459
 20
183.185671
 30
0.0
 10
241.454537
 20
193.297624
 30
0.0
 10
221.100878
 20
210.160620
 30
0.0
  0
SPLINE
  5
1a1
100
AcDbEntity
  8
Layer_1
 62
7
100
AcDbSpline
 70
8
 71
3
 72
8
 73
4
 74
0
 40
0
 40
0
 40
0
 40
0
 40
1
 40
1
 40
1
 40
1
 10
221.100878
 20
210.160620
 30
0.0
 10
248.331207
 20
212.834248
 30
0.0
 10
274.871108
 20
224.233658
 30
0.0
 10
296.150930
 20
244.360642
 30
0.0
  0
LWPOLYLINE
  5
1a2
100
AcDbEntity
  8
Layer_1
 62
7
100
AcDbPolyline
 90
2
 70
0
 10
91.475907
 20
326.010634
 30
0.0
 10
91.475907
 20
326.010634
 30
0.0
  0
LWPOLYLINE
  5
1a3
100
AcDbEntity
  8
Layer_1
 62
7
100
AcDbPolyline
 90
2
 70
0
 10
296.150930
 20
244.360642
 30
0.0
 10
296.150930
 20
244.360642
 30
0.0
  0
ENDSEC
  0
SECTION
  2
OBJECTS
  0
DICTIONARY
  5
C
330
0
100
AcDbDictionary
  3
ACAD_GROUP
350
D
  3
ACAD_MLINESTYLE
350
17
  0
DICTIONARY
  5
D
330
C
100
AcDbDictionary
  0
DICTIONARY
  5
1A
330
C
100
AcDbDictionary
  0
DICTIONARY
  5
17
330
C
100
AcDbDictionary
  3
STANDARD
350
18
  0
DICTIONARY
  5
19
330
C
100
AcDbDictionary
  0
ENDSEC
  0
EOF
