  0
SECTION
  2
HEADER
  9
$ACADVER
  1
AC1014
  9
$HANDSEED
  5
FFFF
  9
$MEASUREMENT
 70
     1
  0
ENDSEC
  0
SECTION
  2
TABLES
  0
TABLE
  2
VPORT
  5
8
330
0
100
AcDbSymbolTable
 70
     4
  0
VPORT
  5
2E
330
8
100
AcDbSymbolTableRecord
100
AcDbViewportTableRecord
  2
*ACTIVE
 70
     0
 10
0.0
 20
0.0
 11
1.0
 21
1.0
 12
210.0
 22
148.5
 13
0.0
 23
0.0
 14
10.0
 24
10.0
 15
10.0
 25
10.0
 16
0.0
 26
0.0
 36
1.0
 17
0.0
 27
0.0
 37
0.0
 40
341.0
 41
1.24
 42
50.0
 43
0.0
 44
0.0
 50
0.0
 51
0.0
 71
     0
 72
   100
 73
     1
 74
     3
 75
     0
 76
     0
 77
     0
 78
     0
  0
ENDTAB
  0
TABLE
  2
LTYPE
  5
5
330
0
100
AcDbSymbolTable
 70
     1
  0
LTYPE
  5
14
330
5
100
AcDbSymbolTableRecord
100
AcDbLinetypeTableRecord
  2
BYBLOCK
 70
     0
  3

 72
    65
 73
     0
 40
0.0
  0
LTYPE
  5
15
330
5
100
AcDbSymbolTableRecord
100
AcDbLinetypeTableRecord
  2
BYLAYER
 70
     0
  3

 72
    65
 73
     0
 40
0.0
  0
LTYPE
  5
16
330
5
100
AcDbSymbolTableRecord
100
AcDbLinetypeTableRecord
  2
CONTINUOUS
 70
     0
  3
Solid line
 72
    65
 73
     0
 40
0.0
  0
ENDTAB
  0
TABLE
  2
LAYER
  5
2
100
AcDbSymbolTable
 70
2
  0
LAYER
  5
50
100
AcDbSymbolTableRecord
100
AcDbLayerTableRecord
  2
0
 70
0
  6
CONTINUOUS
  0
LAYER
  5
51
100
AcDbSymbolTableRecord
100
AcDbLayerTableRecord
  2
Layer_1
 70
0
  6
CONTINUOUS
  0
ENDTAB
  0
TABLE
  2
STYLE
  5
3
330
0
100
AcDbSymbolTable
 70
     1
  0
STYLE
  5
11
330
3
100
AcDbSymbolTableRecord
100
AcDbTextStyleTableRecord
  2
STANDARD
 70
     0
 40
0.0
 41
1.0
 50
0.0
 71
     0
 42
2.5
  3
txt
  4

  0
ENDTAB
  0
TABLE
  2
VIEW
  5
6
330
0
100
AcDbSymbolTable
 70
     0
  0
ENDTAB
  0
TABLE
  2
UCS
  5
7
330
0
100
AcDbSymbolTable
 70
     0
  0
ENDTAB
  0
TABLE
  2
APPID
  5
9
330
0
100
AcDbSymbolTable
 70
     2
  0
APPID
  5
12
330
9
100
AcDbSymbolTableRecord
100
AcDbRegAppTableRecord
  2
ACAD
 70
     0
  0
ENDTAB
  0
TABLE
  2
DIMSTYLE
  5
A
330
0
100
AcDbSymbolTable
 70
     1
  0
DIMSTYLE
105
27
330
A
100
AcDbSymbolTableRecord
100
AcDbDimStyleTableRecord
  2
ISO-25
 70
     0
  3

  4

  5

  6

  7

 40
1.0
 41
2.5
 42
0.625
 43
3.75
 44
1.25
 45
0.0
 46
0.0
 47
0.0
 48
0.0
140
2.5
141
2.5
142
0.0
143
0.03937007874016
144
1.0
145
0.0
146
1.0
147
0.625
 71
     0
 72
     0
 73
     0
 74
     0
 75
     0
 76
     0
 77
     1
 78
     8
170
     0
171
     3
172
     1
173
     0
174
     0
175
     0
176
     0
177
     0
178
     0
270
     2
271
     2
272
     2
273
     2
274
     3
340
11
275
     0
280
     0
281
     0
282
     0
283
     0
284
     8
285
     0
286
     0
287
     3
288
     0
  0
ENDTAB
  0
TABLE
  2
BLOCK_RECORD
  5
1
330
0
100
AcDbSymbolTable
 70
     1
  0
BLOCK_RECORD
  5
1F
330
1
100
AcDbSymbolTableRecord
100
AcDbBlockTableRecord
  2
*MODEL_SPACE
  0
BLOCK_RECORD
  5
1B
330
1
100
AcDbSymbolTableRecord
100
AcDbBlockTableRecord
  2
*PAPER_SPACE
  0
ENDTAB
  0
ENDSEC
  0
SECTION
  2
BLOCKS
  0
BLOCK
  5
20
330
1F
100
AcDbEntity
  8
0
100
AcDbBlockBegin
  2
*MODEL_SPACE
 70
     0
 10
0.0
 20
0.0
 30
0.0
  3
*MODEL_SPACE
  1

  0
ENDBLK
  5
21
330
1F
100
AcDbEntity
  8
0
100
AcDbBlockEnd
  0
BLOCK
  5
1C
330
1B
100
AcDbEntity
 67
     1
  8
0
100
AcDbBlockBegin
  2
*PAPER_SPACE
  1

  0
ENDBLK
  5
1D
330
1B
100
AcDbEntity
 67
     1
  8
0
100
AcDbBlockEnd
  0
ENDSEC
  0
SECTION
  2
ENTITIES
  0
SPLINE
  5
100
100
AcDbEntity
  8
Layer_1
 62
7
100
AcDbSpline
 70
8
 71
3
 72
8
 73
4
 74
0
 40
0
 40
0
 40
0
 40
0
 40
1
 40
1
 40
1
 40
1
 10
297.642023
 20
688.473560
 30
0.0
 10
261.297521
 20
688.473560
 30
0.0
 10
228.064008
 20
674.590124
 30
0.0
 10
202.992023
 20
651.823601
 30
0.0
  0
SPLINE
  5
101
100
AcDbEntity
  8
Layer_1
 62
7
100
AcDbSpline
 70
8
 71
3
 72
8
 73
4
 74
0
 40
0
 40
0
 40
0
 40
0
 40
1
 40
1
 40
1
 40
1
 10
202.992023
 20
651.823601
 30
0.0
 10
169.269024
 20
650.116244
 30
0.0
 10
136.011169
 20
636.442719
 30
0.0
 10
110.317029
 20
610.748565
 30
0.0
  0
SPLINE
  5
102
100
AcDbEntity
  8
Layer_1
 62
7
100
AcDbSpline
 70
8
 71
3
 72
8
 73
4
 74
0
 40
0
 40
0
 40
0
 40
0
 40
1
 40
1
 40
1
 40
1
 10
110.317029
 20
610.748565
 30
0.0
 10
84.610984
 20
585.042485
 30
0.0
 10
70.939046
 20
551.787608
 30
0.0
 10
69.242029
 20
518.048565
 30
0.0
  0
SPLINE
  5
103
100
AcDbEntity
  8
Layer_1
 62
7
100
AcDbSpline
 70
8
 71
3
 72
8
 73
4
 74
0
 40
0
 40
0
 40
0
 40
0
 40
1
 40
1
 40
1
 40
1
 10
69.242029
 20
518.048565
 30
0.0
 10
46.569085
 20
492.988010
 30
0.0
 10
32.742032
 20
459.791689
 30
0.0
 10
32.742032
 20
423.423613
 30
0.0
  0
SPLINE
  5
104
100
AcDbEntity
  8
Layer_1
 62
7
100
AcDbSpline
 70
8
 71
3
 72
8
 73
4
 74
0
 40
0
 40
0
 40
0
 40
0
 40
1
 40
1
 40
1
 40
1
 10
32.742032
 20
423.423613
 30
0.0
 10
32.742032
 20
387.067450
 30
0.0
 10
46.557334
 20
353.856281
 30
0.0
 10
69.217029
 20
328.798606
 30
0.0
  0
SPLINE
  5
105
100
AcDbEntity
  8
Layer_1
 62
7
100
AcDbSpline
 70
8
 71
3
 72
8
 73
4
 74
0
 40
0
 40
0
 40
0
 40
0
 40
1
 40
1
 40
1
 40
1
 10
69.217029
 20
328.798606
 30
0.0
 10
70.856937
 20
294.986765
 30
0.0
 10
84.553714
 20
261.686874
 30
0.0
 10
110.242030
 20
235.998613
 30
0.0
  0
SPLINE
  5
106
100
AcDbEntity
  8
Layer_1
 62
7
100
AcDbSpline
 70
8
 71
3
 72
8
 73
4
 74
0
 40
0
 40
0
 40
0
 40
0
 40
1
 40
1
 40
1
 40
1
 10
110.242030
 20
235.998613
 30
0.0
 10
135.930339
 20
210.310283
 30
0.0
 10
169.230147
 20
196.613429
 30
0.0
 10
203.042023
 20
194.973557
 30
0.0
  0
SPLINE
  5
107
100
AcDbEntity
  8
Layer_1
 62
7
100
AcDbSpline
 70
8
 71
3
 72
8
 73
4
 74
0
 40
0
 40
0
 40
0
 40
0
 40
1
 40
1
 40
1
 40
1
 10
203.042023
 20
194.973557
 30
0.0
 10
228.107911
 20
172.235207
 30
0.0
 10
261.322828
 20
158.348548
 30
0.0
 10
297.642023
 20
158.348548
 30
0.0
  0
SPLINE
  5
108
100
AcDbEntity
  8
Layer_1
 62
7
100
AcDbSpline
 70
8
 71
3
 72
8
 73
4
 74
0
 40
0
 40
0
 40
0
 40
0
 40
1
 40
1
 40
1
 40
1
 10
297.642023
 20
158.348548
 30
0.0
 10
333.967475
 20
158.348548
 30
0.0
 10
367.199617
 20
172.253244
 30
0.0
 10
392.267016
 20
194.998584
 30
0.0
  0
SPLINE
  5
109
100
AcDbEntity
  8
Layer_1
 62
7
100
AcDbSpline
 70
8
 71
3
 72
8
 73
4
 74
0
 40
0
 40
0
 40
0
 40
0
 40
1
 40
1
 40
1
 40
1
 10
392.267016
 20
194.998584
 30
0.0
 10
426.007032
 20
196.695014
 30
0.0
 10
459.285272
 20
210.391868
 30
0.0
 10
484.992010
 20
236.098584
 30
0.0
  0
SPLINE
  5
10a
100
AcDbEntity
  8
Layer_1
 62
7
100
AcDbSpline
 70
8
 71
3
 72
8
 73
4
 74
0
 40
0
 40
0
 40
0
 40
0
 40
1
 40
1
 40
1
 40
1
 10
484.992010
 20
236.098584
 30
0.0
 10
510.698754
 20
261.805301
 30
0.0
 10
524.370602
 20
295.058563
 30
0.0
 10
526.067010
 20
328.798606
 30
0.0
  0
SPLINE
  5
10b
100
AcDbEntity
  8
Layer_1
 62
7
100
AcDbSpline
 70
8
 71
3
 72
8
 73
4
 74
0
 40
0
 40
0
 40
0
 40
0
 40
1
 40
1
 40
1
 40
1
 10
526.067010
 20
328.798606
 30
0.0
 10
548.726704
 20
353.856281
 30
0.0
 10
562.567013
 20
387.067450
 30
0.0
 10
562.567013
 20
423.423613
 30
0.0
  0
SPLINE
  5
10c
100
AcDbEntity
  8
Layer_1
 62
7
100
AcDbSpline
 70
8
 71
3
 72
8
 73
4
 74
0
 40
0
 40
0
 40
0
 40
0
 40
1
 40
1
 40
1
 40
1
 10
562.567013
 20
423.423613
 30
0.0
 10
562.567013
 20
459.766249
 30
0.0
 10
548.736820
 20
492.944169
 30
0.0
 10
526.092010
 20
517.998565
 30
0.0
  0
SPLINE
  5
10d
100
AcDbEntity
  8
Layer_1
 62
7
100
AcDbSpline
 70
8
 71
3
 72
8
 73
4
 74
0
 40
0
 40
0
 40
0
 40
0
 40
1
 40
1
 40
1
 40
1
 10
526.092010
 20
517.998565
 30
0.0
 10
524.457835
 20
551.819368
 30
0.0
 10
510.761890
 20
585.153684
 30
0.0
 10
485.067016
 20
610.848564
 30
0.0
  0
SPLINE
  5
10e
100
AcDbEntity
  8
Layer_1
 62
7
100
AcDbSpline
 70
8
 71
3
 72
8
 73
4
 74
0
 40
0
 40
0
 40
0
 40
0
 40
1
 40
1
 40
1
 40
1
 10
485.067016
 20
610.848564
 30
0.0
 10
459.385027
 20
636.530561
 30
0.0
 10
426.095314
 20
650.203121
 30
0.0
 10
392.292016
 20
651.848558
 30
0.0
  0
SPLINE
  5
10f
100
AcDbEntity
  8
Layer_1
 62
7
100
AcDbSpline
 70
8
 71
3
 72
8
 73
4
 74
0
 40
0
 40
0
 40
0
 40
0
 40
1
 40
1
 40
1
 40
1
 10
392.292016
 20
651.848558
 30
0.0
 10
367.223009
 20
674.601344
 30
0.0
 10
333.974165
 20
688.473560
 30
0.0
 10
297.642023
 20
688.473560
 30
0.0
  0
SPLINE
  5
110
100
AcDbEntity
  8
Layer_1
 62
7
100
AcDbSpline
 70
8
 71
3
 72
8
 73
4
 74
0
 40
0
 40
0
 40
0
 40
0
 40
1
 40
1
 40
1
 40
1
 10
297.642023
 20
651.173524
 30
0.0
 10
311.601339
 20
651.173524
 30
0.0
 10
324.888718
 20
648.468724
 30
0.0
 10
337.017021
 20
643.548561
 30
0.0
  0
SPLINE
  5
111
100
AcDbEntity
  8
Layer_1
 62
7
100
AcDbSpline
 70
8
 71
3
 72
8
 73
4
 74
0
 40
0
 40
0
 40
0
 40
0
 40
1
 40
1
 40
1
 40
1
 10
337.017021
 20
643.548561
 30
0.0
 10
323.097757
 20
638.508964
 30
0.0
 10
309.831491
 20
631.221280
 30
0.0
 10
297.767022
 20
621.673520
 30
0.0
  0
SPLINE
  5
112
100
AcDbEntity
  8
Layer_1
 62
7
100
AcDbSpline
 70
8
 71
3
 72
8
 73
4
 74
0
 40
0
 40
0
 40
0
 40
0
 40
1
 40
1
 40
1
 40
1
 10
297.767022
 20
621.673520
 30
0.0
 10
285.683656
 20
631.249845
 30
0.0
 10
272.360197
 20
638.554321
 30
0.0
 10
258.392023
 20
643.598560
 30
0.0
  0
SPLINE
  5
113
100
AcDbEntity
  8
Layer_1
 62
7
100
AcDbSpline
 70
8
 71
3
 72
8
 73
4
 74
0
 40
0
 40
0
 40
0
 40
0
 40
1
 40
1
 40
1
 40
1
 10
258.392023
 20
643.598560
 30
0.0
 10
270.486749
 20
648.486802
 30
0.0
 10
283.730455
 20
651.173524
 30
0.0
 10
297.642023
 20
651.173524
 30
0.0
  0
LWPOLYLINE
  5
114
100
AcDbEntity
  8
Layer_1
 62
7
100
AcDbPolyline
 90
2
 70
0
 10
297.642023
 20
688.473560
 30
0.0
 10
297.642023
 20
688.473560
 30
0.0
  0
SPLINE
  5
115
100
AcDbEntity
  8
Layer_1
 62
7
100
AcDbSpline
 70
8
 71
3
 72
8
 73
4
 74
0
 40
0
 40
0
 40
0
 40
0
 40
1
 40
1
 40
1
 40
1
 10
376.917021
 20
614.773520
 30
0.0
 10
389.186598
 20
600.402086
 30
0.0
 10
397.558945
 20
582.623287
 30
0.0
 10
400.517015
 20
563.023605
 30
0.0
  0
SPLINE
  5
116
100
AcDbEntity
  8
Layer_1
 62
7
100
AcDbSpline
 70
8
 71
3
 72
8
 73
4
 74
0
 40
0
 40
0
 40
0
 40
0
 40
1
 40
1
 40
1
 40
1
 10
400.517015
 20
563.023605
 30
0.0
 10
381.275878
 20
560.127608
 30
0.0
 10
363.275151
 20
553.338723
 30
0.0
 10
347.367017
 20
543.448566
 30
0.0
  0
SPLINE
  5
117
100
AcDbEntity
  8
Layer_1
 62
7
100
AcDbSpline
 70
8
 71
3
 72
8
 73
4
 74
0
 40
0
 40
0
 40
0
 40
0
 40
1
 40
1
 40
1
 40
1
 10
347.367017
 20
543.448566
 30
0.0
 10
343.110500
 20
561.695208
 30
0.0
 10
335.204612
 20
579.242404
 30
0.0
 10
323.642018
 20
594.898562
 30
0.0
  0
SPLINE
  5
118
100
AcDbEntity
  8
Layer_1
 62
7
100
AcDbSpline
 70
8
 71
3
 72
8
 73
4
 74
0
 40
0
 40
0
 40
0
 40
0
 40
1
 40
1
 40
1
 40
1
 10
323.642018
 20
594.898562
 30
0.0
 10
339.591028
 20
606.662565
 30
0.0
 10
358.081921
 20
613.287526
 30
0.0
 10
376.917021
 20
614.773520
 30
0.0
  0
LWPOLYLINE
  5
119
100
AcDbEntity
  8
Layer_1
 62
7
100
AcDbPolyline
 90
2
 70
0
 10
297.642023
 20
651.173524
 30
0.0
 10
297.642023
 20
651.173524
 30
0.0
  0
SPLINE
  5
11a
100
AcDbEntity
  8
Layer_1
 62
7
100
AcDbSpline
 70
8
 71
3
 72
8
 73
4
 74
0
 40
0
 40
0
 40
0
 40
0
 40
1
 40
1
 40
1
 40
1
 10
218.392025
 20
614.748562
 30
0.0
 10
237.222826
 20
613.213205
 30
0.0
 10
255.721311
 20
606.535442
 30
0.0
 10
271.692021
 20
594.698564
 30
0.0
  0
SPLINE
  5
11b
100
AcDbEntity
  8
Layer_1
 62
7
100
AcDbSpline
 70
8
 71
3
 72
8
 73
4
 74
0
 40
0
 40
0
 40
0
 40
0
 40
1
 40
1
 40
1
 40
1
 10
271.692021
 20
594.698564
 30
0.0
 10
260.157580
 20
579.069363
 30
0.0
 10
252.259556
 20
561.577606
 30
0.0
 10
247.992021
 20
543.398567
 30
0.0
  0
SPLINE
  5
11c
100
AcDbEntity
  8
Layer_1
 62
7
100
AcDbSpline
 70
8
 71
3
 72
8
 73
4
 74
0
 40
0
 40
0
 40
0
 40
0
 40
1
 40
1
 40
1
 40
1
 10
247.992021
 20
543.398567
 30
0.0
 10
232.060097
 20
553.315527
 30
0.0
 10
214.045101
 20
560.151042
 30
0.0
 10
194.767025
 20
563.048563
 30
0.0
  0
SPLINE
  5
11d
100
AcDbEntity
  8
Layer_1
 62
7
100
AcDbSpline
 70
8
 71
3
 72
8
 73
4
 74
0
 40
0
 40
0
 40
0
 40
0
 40
1
 40
1
 40
1
 40
1
 10
194.767025
 20
563.048563
 30
0.0
 10
197.726926
 20
582.633284
 30
0.0
 10
206.133620
 20
600.384805
 30
0.0
 10
218.392025
 20
614.748562
 30
0.0
  0
LWPOLYLINE
  5
11e
100
AcDbEntity
  8
Layer_1
 62
7
100
AcDbPolyline
 90
2
 70
0
 10
376.917021
 20
614.773520
 30
0.0
 10
376.917021
 20
614.773520
 30
0.0
  0
SPLINE
  5
11f
100
AcDbEntity
  8
Layer_1
 62
7
100
AcDbSpline
 70
8
 71
3
 72
8
 73
4
 74
0
 40
0
 40
0
 40
0
 40
0
 40
1
 40
1
 40
1
 40
1
 10
169.892024
 20
607.048565
 30
0.0
 10
163.575002
 20
593.598723
 30
0.0
 10
159.326308
 20
578.990246
 30
0.0
 10
157.542030
 20
563.648563
 30
0.0
  0
SPLINE
  5
120
100
AcDbEntity
  8
Layer_1
 62
7
100
AcDbSpline
 70
8
 71
3
 72
8
 73
4
 74
0
 40
0
 40
0
 40
0
 40
0
 40
1
 40
1
 40
1
 40
1
 10
157.542030
 20
563.648563
 30
0.0
 10
142.179591
 20
561.869283
 30
0.0
 10
127.544646
 20
557.641688
 30
0.0
 10
114.067029
 20
551.298569
 30
0.0
  0
SPLINE
  5
121
100
AcDbEntity
  8
Layer_1
 62
7
100
AcDbSpline
 70
8
 71
3
 72
8
 73
4
 74
0
 40
0
 40
0
 40
0
 40
0
 40
1
 40
1
 40
1
 40
1
 10
114.067029
 20
551.298569
 30
0.0
 10
119.150662
 20
563.383207
 30
0.0
 10
126.624117
 20
574.705682
 30
0.0
 10
136.492029
 20
584.573524
 30
0.0
  0
SPLINE
  5
122
100
AcDbEntity
  8
Layer_1
 62
7
100
AcDbSpline
 70
8
 71
3
 72
8
 73
4
 74
0
 40
0
 40
0
 40
0
 40
0
 40
1
 40
1
 40
1
 40
1
 10
136.492029
 20
584.573524
 30
0.0
 10
146.389736
 20
594.471287
 30
0.0
 10
157.766301
 20
601.964086
 30
0.0
 10
169.892024
 20
607.048565
 30
0.0
  0
LWPOLYLINE
  5
123
100
AcDbEntity
  8
Layer_1
 62
7
100
AcDbPolyline
 90
2
 70
0
 10
218.392025
 20
614.748562
 30
0.0
 10
218.392025
 20
614.748562
 30
0.0
  0
SPLINE
  5
124
100
AcDbEntity
  8
Layer_1
 62
7
100
AcDbSpline
 70
8
 71
3
 72
8
 73
4
 74
0
 40
0
 40
0
 40
0
 40
0
 40
1
 40
1
 40
1
 40
1
 10
425.467014
 20
606.923601
 30
0.0
 10
437.523884
 20
601.826644
 30
0.0
 10
448.844988
 20
594.345604
 30
0.0
 10
458.717011
 20
584.473525
 30
0.0
  0
SPLINE
  5
125
100
AcDbEntity
  8
Layer_1
 62
7
100
AcDbSpline
 70
8
 71
3
 72
8
 73
4
 74
0
 40
0
 40
0
 40
0
 40
0
 40
1
 40
1
 40
1
 40
1
 10
458.717011
 20
584.473525
 30
0.0
 10
468.553981
 20
574.636562
 30
0.0
 10
475.996278
 20
563.357368
 30
0.0
 10
481.092012
 20
551.348568
 30
0.0
  0
SPLINE
  5
126
100
AcDbEntity
  8
Layer_1
 62
7
100
AcDbSpline
 70
8
 71
3
 72
8
 73
4
 74
0
 40
0
 40
0
 40
0
 40
0
 40
1
 40
1
 40
1
 40
1
 10
481.092012
 20
551.348568
 30
0.0
 10
467.653740
 20
557.654803
 30
0.0
 10
453.075415
 20
561.875526
 30
0.0
 10
437.767016
 20
563.648563
 30
0.0
  0
SPLINE
  5
127
100
AcDbEntity
  8
Layer_1
 62
7
100
AcDbSpline
 70
8
 71
3
 72
8
 73
4
 74
0
 40
0
 40
0
 40
0
 40
0
 40
1
 40
1
 40
1
 40
1
 10
437.767016
 20
563.648563
 30
0.0
 10
435.988128
 20
578.943847
 30
0.0
 10
431.752535
 20
593.507442
 30
0.0
 10
425.467014
 20
606.923601
 30
0.0
  0
LWPOLYLINE
  5
128
100
AcDbEntity
  8
Layer_1
 62
7
100
AcDbPolyline
 90
2
 70
0
 10
169.892024
 20
607.048565
 30
0.0
 10
169.892024
 20
607.048565
 30
0.0
  0
SPLINE
  5
129
100
AcDbEntity
  8
Layer_1
 62
7
100
AcDbSpline
 70
8
 71
3
 72
8
 73
4
 74
0
 40
0
 40
0
 40
0
 40
0
 40
1
 40
1
 40
1
 40
1
 10
297.567024
 20
567.123608
 30
0.0
 10
307.895459
 20
551.144565
 30
0.0
 10
313.405150
 20
533.029206
 30
0.0
 10
314.092020
 20
514.773524
 30
0.0
  0
SPLINE
  5
12a
100
AcDbEntity
  8
Layer_1
 62
7
100
AcDbSpline
 70
8
 71
3
 72
8
 73
4
 74
0
 40
0
 40
0
 40
0
 40
0
 40
1
 40
1
 40
1
 40
1
 10
314.092020
 20
514.773524
 30
0.0
 10
307.836274
 20
507.419126
 30
0.0
 10
302.306128
 20
499.405688
 30
0.0
 10
297.642023
 20
490.873527
 30
0.0
  0
SPLINE
  5
12b
100
AcDbEntity
  8
Layer_1
 62
7
100
AcDbSpline
 70
8
 71
3
 72
8
 73
4
 74
0
 40
0
 40
0
 40
0
 40
0
 40
1
 40
1
 40
1
 40
1
 10
297.642023
 20
490.873527
 30
0.0
 10
292.975423
 20
499.410169
 30
0.0
 10
287.451862
 20
507.416008
 30
0.0
 10
281.192019
 20
514.773524
 30
0.0
  0
SPLINE
  5
12c
100
AcDbEntity
  8
Layer_1
 62
7
100
AcDbSpline
 70
8
 71
3
 72
8
 73
4
 74
0
 40
0
 40
0
 40
0
 40
0
 40
1
 40
1
 40
1
 40
1
 10
281.192019
 20
514.773524
 30
0.0
 10
281.832043
 20
533.042650
 30
0.0
 10
287.295187
 20
551.158008
 30
0.0
 10
297.567024
 20
567.123608
 30
0.0
  0
LWPOLYLINE
  5
12d
100
AcDbEntity
  8
Layer_1
 62
7
100
AcDbPolyline
 90
2
 70
0
 10
425.467014
 20
606.923601
 30
0.0
 10
425.467014
 20
606.923601
 30
0.0
  0
SPLINE
  5
12e
100
AcDbEntity
  8
Layer_1
 62
7
100
AcDbSpline
 70
8
 71
3
 72
8
 73
4
 74
0
 40
0
 40
0
 40
0
 40
0
 40
1
 40
1
 40
1
 40
1
 10
158.167030
 20
526.173529
 30
0.0
 10
161.065152
 20
506.945445
 30
0.0
 10
167.863489
 20
488.983287
 30
0.0
 10
177.717027
 20
473.098566
 30
0.0
  0
SPLINE
  5
12f
100
AcDbEntity
  8
Layer_1
 62
7
100
AcDbSpline
 70
8
 71
3
 72
8
 73
4
 74
0
 40
0
 40
0
 40
0
 40
0
 40
1
 40
1
 40
1
 40
1
 10
177.717027
 20
473.098566
 30
0.0
 10
159.519581
 20
468.834086
 30
0.0
 10
142.011024
 20
460.943690
 30
0.0
 10
126.367031
 20
449.398573
 30
0.0
  0
SPLINE
  5
130
100
AcDbEntity
  8
Layer_1
 62
7
100
AcDbSpline
 70
8
 71
3
 72
8
 73
4
 74
0
 40
0
 40
0
 40
0
 40
0
 40
1
 40
1
 40
1
 40
1
 10
126.367031
 20
449.398573
 30
0.0
 10
114.546190
 20
465.354008
 30
0.0
 10
107.883248
 20
483.838245
 30
0.0
 10
106.342032
 20
502.648570
 30
0.0
  0
SPLINE
  5
131
100
AcDbEntity
  8
Layer_1
 62
7
100
AcDbSpline
 70
8
 71
3
 72
8
 73
4
 74
0
 40
0
 40
0
 40
0
 40
0
 40
1
 40
1
 40
1
 40
1
 10
106.342032
 20
502.648570
 30
0.0
 10
120.734599
 20
514.867127
 30
0.0
 10
138.519998
 20
523.247926
 30
0.0
 10
158.167030
 20
526.173529
 30
0.0
  0
LWPOLYLINE
  5
132
100
AcDbEntity
  8
Layer_1
 62
7
100
AcDbPolyline
 90
2
 70
0
 10
297.567024
 20
567.123608
 30
0.0
 10
297.567024
 20
567.123608
 30
0.0
  0
SPLINE
  5
133
100
AcDbEntity
  8
Layer_1
 62
7
100
AcDbSpline
 70
8
 71
3
 72
8
 73
4
 74
0
 40
0
 40
0
 40
0
 40
0
 40
1
 40
1
 40
1
 40
1
 10
437.142016
 20
526.173529
 30
0.0
 10
456.801247
 20
523.246087
 30
0.0
 10
474.594741
 20
514.854487
 30
0.0
 10
488.992014
 20
502.623605
 30
0.0
  0
SPLINE
  5
134
100
AcDbEntity
  8
Layer_1
 62
7
100
AcDbSpline
 70
8
 71
3
 72
8
 73
4
 74
0
 40
0
 40
0
 40
0
 40
0
 40
1
 40
1
 40
1
 40
1
 10
488.992014
 20
502.623605
 30
0.0
 10
487.495247
 20
483.812407
 30
0.0
 10
480.891448
 20
465.328009
 30
0.0
 10
469.142013
 20
449.398573
 30
0.0
  0
SPLINE
  5
135
100
AcDbEntity
  8
Layer_1
 62
7
100
AcDbSpline
 70
8
 71
3
 72
8
 73
4
 74
0
 40
0
 40
0
 40
0
 40
0
 40
1
 40
1
 40
1
 40
1
 10
469.142013
 20
449.398573
 30
0.0
 10
453.466245
 20
460.976009
 30
0.0
 10
435.888381
 20
468.895691
 30
0.0
 10
417.617018
 20
473.148572
 30
0.0
  0
SPLINE
  5
136
100
AcDbEntity
  8
Layer_1
 62
7
100
AcDbSpline
 70
8
 71
3
 72
8
 73
4
 74
0
 40
0
 40
0
 40
0
 40
0
 40
1
 40
1
 40
1
 40
1
 10
417.617018
 20
473.148572
 30
0.0
 10
427.452311
 20
489.019927
 30
0.0
 10
434.247201
 20
506.967446
 30
0.0
 10
437.142016
 20
526.173529
 30
0.0
  0
LWPOLYLINE
  5
137
100
AcDbEntity
  8
Layer_1
 62
7
100
AcDbPolyline
 90
2
 70
0
 10
158.167030
 20
526.173529
 30
0.0
 10
158.167030
 20
526.173529
 30
0.0
  0
SPLINE
  5
138
100
AcDbEntity
  8
Layer_1
 62
7
100
AcDbSpline
 70
8
 71
3
 72
8
 73
4
 74
0
 40
0
 40
0
 40
0
 40
0
 40
1
 40
1
 40
1
 40
1
 10
195.967025
 20
524.973529
 30
0.0
 10
214.572493
 20
520.979048
 30
0.0
 10
231.270600
 20
512.048171
 30
0.0
 10
244.667024
 20
499.623611
 30
0.0
  0
SPLINE
  5
139
100
AcDbEntity
  8
Layer_1
 62
7
100
AcDbSpline
 70
8
 71
3
 72
8
 73
4
 74
0
 40
0
 40
0
 40
0
 40
0
 40
1
 40
1
 40
1
 40
1
 10
244.667024
 20
499.623611
 30
0.0
 10
245.425348
 20
490.036652
 30
0.0
 10
247.167408
 20
480.517128
 30
0.0
 10
249.867021
 20
471.223608
 30
0.0
  0
SPLINE
  5
13a
100
AcDbEntity
  8
Layer_1
 62
7
100
AcDbSpline
 70
8
 71
3
 72
8
 73
4
 74
0
 40
0
 40
0
 40
0
 40
0
 40
1
 40
1
 40
1
 40
1
 10
249.867021
 20
471.223608
 30
0.0
 10
240.550802
 20
473.931212
 30
0.0
 10
231.002873
 20
475.666812
 30
0.0
 10
221.392026
 20
476.423613
 30
0.0
  0
SPLINE
  5
13b
100
AcDbEntity
  8
Layer_1
 62
7
100
AcDbSpline
 70
8
 71
3
 72
8
 73
4
 74
0
 40
0
 40
0
 40
0
 40
0
 40
1
 40
1
 40
1
 40
1
 10
221.392026
 20
476.423613
 30
0.0
 10
208.941942
 20
489.790248
 30
0.0
 10
199.988624
 20
506.434245
 30
0.0
 10
195.967025
 20
524.973529
 30
0.0
  0
LWPOLYLINE
  5
13c
100
AcDbEntity
  8
Layer_1
 62
7
100
AcDbPolyline
 90
2
 70
0
 10
437.142016
 20
526.173529
 30
0.0
 10
437.142016
 20
526.173529
 30
0.0
  0
SPLINE
  5
13d
100
AcDbEntity
  8
Layer_1
 62
7
100
AcDbSpline
 70
8
 71
3
 72
8
 73
4
 74
0
 40
0
 40
0
 40
0
 40
0
 40
1
 40
1
 40
1
 40
1
 10
399.342014
 20
524.973529
 30
0.0
 10
395.317066
 20
506.418725
 30
0.0
 10
386.358316
 20
489.745848
 30
0.0
 10
373.892020
 20
476.373529
 30
0.0
  0
SPLINE
  5
13e
100
AcDbEntity
  8
Layer_1
 62
7
100
AcDbSpline
 70
8
 71
3
 72
8
 73
4
 74
0
 40
0
 40
0
 40
0
 40
0
 40
1
 40
1
 40
1
 40
1
 10
373.892020
 20
476.373529
 30
0.0
 10
364.261311
 20
475.597769
 30
0.0
 10
354.704763
 20
473.860330
 30
0.0
 10
345.367019
 20
471.123609
 30
0.0
  0
SPLINE
  5
13f
100
AcDbEntity
  8
Layer_1
 62
7
100
AcDbSpline
 70
8
 71
3
 72
8
 73
4
 74
0
 40
0
 40
0
 40
0
 40
0
 40
1
 40
1
 40
1
 40
1
 10
345.367019
 20
471.123609
 30
0.0
 10
348.101698
 20
480.453846
 30
0.0
 10
349.840165
 20
490.025606
 30
0.0
 10
350.617016
 20
499.648568
 30
0.0
  0
SPLINE
  5
140
100
AcDbEntity
  8
Layer_1
 62
7
100
AcDbSpline
 70
8
 71
3
 72
8
 73
4
 74
0
 40
0
 40
0
 40
0
 40
0
 40
1
 40
1
 40
1
 40
1
 10
350.617016
 20
499.648568
 30
0.0
 10
364.014551
 20
512.070164
 30
0.0
 10
380.736958
 20
520.981690
 30
0.0
 10
399.342014
 20
524.973529
 30
0.0
  0
LWPOLYLINE
  5
141
100
AcDbEntity
  8
Layer_1
 62
7
100
AcDbPolyline
 90
2
 70
0
 10
195.967025
 20
524.973529
 30
0.0
 10
195.967025
 20
524.973529
 30
0.0
  0
SPLINE
  5
142
100
AcDbEntity
  8
Layer_1
 62
7
100
AcDbSpline
 70
8
 71
3
 72
8
 73
4
 74
0
 40
0
 40
0
 40
0
 40
0
 40
1
 40
1
 40
1
 40
1
 10
517.817012
 20
462.923610
 30
0.0
 10
522.799576
 20
450.750327
 30
0.0
 10
525.567009
 20
437.426490
 30
0.0
 10
525.567009
 20
423.423613
 30
0.0
  0
SPLINE
  5
143
100
AcDbEntity
  8
Layer_1
 62
7
100
AcDbSpline
 70
8
 71
3
 72
8
 73
4
 74
0
 40
0
 40
0
 40
0
 40
0
 40
1
 40
1
 40
1
 40
1
 10
525.567009
 20
423.423613
 30
0.0
 10
525.567009
 20
409.460089
 30
0.0
 10
522.822982
 20
396.144096
 30
0.0
 10
517.867011
 20
383.998574
 30
0.0
  0
SPLINE
  5
144
100
AcDbEntity
  8
Layer_1
 62
7
100
AcDbSpline
 70
8
 71
3
 72
8
 73
4
 74
0
 40
0
 40
0
 40
0
 40
0
 40
1
 40
1
 40
1
 40
1
 10
517.867011
 20
383.998574
 30
0.0
 10
512.821130
 20
398.023290
 30
0.0
 10
505.503497
 20
411.395372
 30
0.0
 10
495.892013
 20
423.523612
 30
0.0
  0
SPLINE
  5
145
100
AcDbEntity
  8
Layer_1
 62
7
100
AcDbSpline
 70
8
 71
3
 72
8
 73
4
 74
0
 40
0
 40
0
 40
0
 40
0
 40
1
 40
1
 40
1
 40
1
 10
495.892013
 20
423.523612
 30
0.0
 10
505.469849
 20
435.624972
 30
0.0
 10
512.775108
 20
448.957527
 30
0.0
 10
517.817012
 20
462.923610
 30
0.0
  0
LWPOLYLINE
  5
146
100
AcDbEntity
  8
Layer_1
 62
7
100
AcDbPolyline
 90
2
 70
0
 10
399.342014
 20
524.973529
 30
0.0
 10
399.342014
 20
524.973529
 30
0.0
  0
SPLINE
  5
147
100
AcDbEntity
  8
Layer_1
 62
7
100
AcDbSpline
 70
8
 71
3
 72
8
 73
4
 74
0
 40
0
 40
0
 40
0
 40
0
 40
1
 40
1
 40
1
 40
1
 10
77.417028
 20
462.848569
 30
0.0
 10
82.464224
 20
448.814408
 30
0.0
 10
89.798460
 20
435.433853
 30
0.0
 10
99.417033
 20
423.298573
 30
0.0
  0
SPLINE
  5
148
100
AcDbEntity
  8
Layer_1
 62
7
100
AcDbSpline
 70
8
 71
3
 72
8
 73
4
 74
0
 40
0
 40
0
 40
0
 40
0
 40
1
 40
1
 40
1
 40
1
 10
99.417033
 20
423.298573
 30
0.0
 10
89.833324
 20
411.189774
 30
0.0
 10
82.509246
 20
397.873935
 30
0.0
 10
77.467027
 20
383.898575
 30
0.0
  0
SPLINE
  5
149
100
AcDbEntity
  8
Layer_1
 62
7
100
AcDbSpline
 70
8
 71
3
 72
8
 73
4
 74
0
 40
0
 40
0
 40
0
 40
0
 40
1
 40
1
 40
1
 40
1
 10
77.467027
 20
383.898575
 30
0.0
 10
72.485442
 20
396.070809
 30
0.0
 10
69.742030
 20
409.422093
 30
0.0
 10
69.742030
 20
423.423613
 30
0.0
  0
SPLINE
  5
14a
100
AcDbEntity
  8
Layer_1
 62
7
100
AcDbSpline
 70
8
 71
3
 72
8
 73
4
 74
0
 40
0
 40
0
 40
0
 40
0
 40
1
 40
1
 40
1
 40
1
 10
69.742030
 20
423.423613
 30
0.0
 10
69.742030
 20
437.393689
 30
0.0
 10
72.456576
 20
450.698328
 30
0.0
 10
77.417028
 20
462.848569
 30
0.0
  0
LWPOLYLINE
  5
14b
100
AcDbEntity
  8
Layer_1
 62
7
100
AcDbPolyline
 90
2
 70
0
 10
517.817012
 20
462.923610
 30
0.0
 10
517.817012
 20
462.923610
 30
0.0
  0
SPLINE
  5
14c
100
AcDbEntity
  8
Layer_1
 62
7
100
AcDbSpline
 70
8
 71
3
 72
8
 73
4
 74
0
 40
0
 40
0
 40
0
 40
0
 40
1
 40
1
 40
1
 40
1
 10
206.242022
 20
439.873534
 30
0.0
 10
213.569246
 20
433.614893
 30
0.0
 10
221.544527
 20
428.095932
 30
0.0
 10
230.042027
 20
423.423613
 30
0.0
  0
SPLINE
  5
14d
100
AcDbEntity
  8
Layer_1
 62
7
100
AcDbSpline
 70
8
 71
3
 72
8
 73
4
 74
0
 40
0
 40
0
 40
0
 40
0
 40
1
 40
1
 40
1
 40
1
 10
230.042027
 20
423.423613
 30
0.0
 10
221.554161
 20
418.756650
 30
0.0
 10
213.587430
 20
413.223294
 30
0.0
 10
206.267021
 20
406.973532
 30
0.0
  0
SPLINE
  5
14e
100
AcDbEntity
  8
Layer_1
 62
7
100
AcDbSpline
 70
8
 71
3
 72
8
 73
4
 74
0
 40
0
 40
0
 40
0
 40
0
 40
1
 40
1
 40
1
 40
1
 10
206.267021
 20
406.973532
 30
0.0
 10
188.023609
 20
407.666890
 30
0.0
 10
169.910264
 20
413.176413
 30
0.0
 10
153.942029
 20
423.498571
 30
0.0
  0
SPLINE
  5
14f
100
AcDbEntity
  8
Layer_1
 62
7
100
AcDbSpline
 70
8
 71
3
 72
8
 73
4
 74
0
 40
0
 40
0
 40
0
 40
0
 40
1
 40
1
 40
1
 40
1
 10
153.942029
 20
423.498571
 30
0.0
 10
169.889473
 20
433.758732
 30
0.0
 10
187.993988
 20
439.223373
 30
0.0
 10
206.242022
 20
439.873534
 30
0.0
  0
LWPOLYLINE
  5
150
100
AcDbEntity
  8
Layer_1
 62
7
100
AcDbPolyline
 90
2
 70
0
 10
77.417028
 20
462.848569
 30
0.0
 10
77.417028
 20
462.848569
 30
0.0
  0
SPLINE
  5
151
100
AcDbEntity
  8
Layer_1
 62
7
100
AcDbSpline
 70
8
 71
3
 72
8
 73
4
 74
0
 40
0
 40
0
 40
0
 40
0
 40
1
 40
1
 40
1
 40
1
 10
389.042018
 20
439.848576
 30
0.0
 10
407.285255
 20
439.155218
 30
0.0
 10
425.398929
 20
433.670660
 30
0.0
 10
441.367017
 20
423.348579
 30
0.0
  0
SPLINE
  5
152
100
AcDbEntity
  8
Layer_1
 62
7
100
AcDbSpline
 70
8
 71
3
 72
8
 73
4
 74
0
 40
0
 40
0
 40
0
 40
0
 40
1
 40
1
 40
1
 40
1
 10
441.367017
 20
423.348579
 30
0.0
 10
425.405053
 20
413.079057
 30
0.0
 10
407.281934
 20
407.615618
 30
0.0
 10
389.017018
 20
406.973539
 30
0.0
  0
SPLINE
  5
153
100
AcDbEntity
  8
Layer_1
 62
7
100
AcDbSpline
 70
8
 71
3
 72
8
 73
4
 74
0
 40
0
 40
0
 40
0
 40
0
 40
1
 40
1
 40
1
 40
1
 10
389.017018
 20
406.973539
 30
0.0
 10
381.697875
 20
413.221700
 30
0.0
 10
373.753095
 20
418.757621
 30
0.0
 10
365.267019
 20
423.423620
 30
0.0
  0
SPLINE
  5
154
100
AcDbEntity
  8
Layer_1
 62
7
100
AcDbSpline
 70
8
 71
3
 72
8
 73
4
 74
0
 40
0
 40
0
 40
0
 40
0
 40
1
 40
1
 40
1
 40
1
 10
365.267019
 20
423.423620
 30
0.0
 10
373.758017
 20
428.092339
 30
0.0
 10
381.719414
 20
433.595857
 30
0.0
 10
389.042018
 20
439.848576
 30
0.0
  0
LWPOLYLINE
  5
155
100
AcDbEntity
  8
Layer_1
 62
7
100
AcDbPolyline
 90
2
 70
0
 10
206.242022
 20
439.873534
 30
0.0
 10
206.242022
 20
439.873534
 30
0.0
  0
SPLINE
  5
156
100
AcDbEntity
  8
Layer_1
 62
7
100
AcDbSpline
 70
8
 71
3
 72
8
 73
4
 74
0
 40
0
 40
0
 40
0
 40
0
 40
1
 40
1
 40
1
 40
1
 10
468.942015
 20
397.448576
 30
0.0
 10
480.765981
 20
381.488982
 30
0.0
 10
487.428098
 20
362.989008
 30
0.0
 10
488.967014
 20
344.173503
 30
0.0
  0
SPLINE
  5
157
100
AcDbEntity
  8
Layer_1
 62
7
100
AcDbSpline
 70
8
 71
3
 72
8
 73
4
 74
0
 40
0
 40
0
 40
0
 40
0
 40
1
 40
1
 40
1
 40
1
 10
488.967014
 20
344.173503
 30
0.0
 10
474.574439
 20
331.955030
 30
0.0
 10
456.789055
 20
323.574252
 30
0.0
 10
437.142016
 20
320.648600
 30
0.0
  0
SPLINE
  5
158
100
AcDbEntity
  8
Layer_1
 62
7
100
AcDbSpline
 70
8
 71
3
 72
8
 73
4
 74
0
 40
0
 40
0
 40
0
 40
0
 40
1
 40
1
 40
1
 40
1
 10
437.142016
 20
320.648600
 30
0.0
 10
434.245264
 20
339.870000
 30
0.0
 10
427.439629
 20
357.842813
 30
0.0
 10
417.592019
 20
373.723619
 30
0.0
  0
SPLINE
  5
159
100
AcDbEntity
  8
Layer_1
 62
7
100
AcDbSpline
 70
8
 71
3
 72
8
 73
4
 74
0
 40
0
 40
0
 40
0
 40
0
 40
1
 40
1
 40
1
 40
1
 10
417.592019
 20
373.723619
 30
0.0
 10
435.790633
 20
377.988099
 30
0.0
 10
453.297162
 20
385.902579
 30
0.0
 10
468.942015
 20
397.448576
 30
0.0
  0
LWPOLYLINE
  5
15a
100
AcDbEntity
  8
Layer_1
 62
7
100
AcDbPolyline
 90
2
 70
0
 10
389.042018
 20
439.848576
 30
0.0
 10
389.042018
 20
439.848576
 30
0.0
  0
SPLINE
  5
15b
100
AcDbEntity
  8
Layer_1
 62
7
100
AcDbSpline
 70
8
 71
3
 72
8
 73
4
 74
0
 40
0
 40
0
 40
0
 40
0
 40
1
 40
1
 40
1
 40
1
 10
126.167026
 20
397.423619
 30
0.0
 10
141.831398
 20
385.857222
 30
0.0
 10
159.410822
 20
377.952018
 30
0.0
 10
177.667028
 20
373.698577
 30
0.0
  0
SPLINE
  5
15c
100
AcDbEntity
  8
Layer_1
 62
7
100
AcDbSpline
 70
8
 71
3
 72
8
 73
4
 74
0
 40
0
 40
0
 40
0
 40
0
 40
1
 40
1
 40
1
 40
1
 10
177.667028
 20
373.698577
 30
0.0
 10
167.830561
 20
357.826035
 30
0.0
 10
161.061754
 20
339.856578
 30
0.0
 10
158.167030
 20
320.648600
 30
0.0
  0
SPLINE
  5
15d
100
AcDbEntity
  8
Layer_1
 62
7
100
AcDbSpline
 70
8
 71
3
 72
8
 73
4
 74
0
 40
0
 40
0
 40
0
 40
0
 40
1
 40
1
 40
1
 40
1
 10
158.167030
 20
320.648600
 30
0.0
 10
138.501227
 20
323.577048
 30
0.0
 10
120.691836
 20
331.960973
 30
0.0
 10
106.292032
 20
344.198601
 30
0.0
  0
SPLINE
  5
15e
100
AcDbEntity
  8
Layer_1
 62
7
100
AcDbSpline
 70
8
 71
3
 72
8
 73
4
 74
0
 40
0
 40
0
 40
0
 40
0
 40
1
 40
1
 40
1
 40
1
 10
106.292032
 20
344.198601
 30
0.0
 10
107.785849
 20
363.016273
 30
0.0
 10
114.413655
 20
381.488737
 30
0.0
 10
126.167026
 20
397.423619
 30
0.0
  0
LWPOLYLINE
  5
15f
100
AcDbEntity
  8
Layer_1
 62
7
100
AcDbPolyline
 90
2
 70
0
 10
468.942015
 20
397.448576
 30
0.0
 10
468.942015
 20
397.448576
 30
0.0
  0
SPLINE
  5
160
100
AcDbEntity
  8
Layer_1
 62
7
100
AcDbSpline
 70
8
 71
3
 72
8
 73
4
 74
0
 40
0
 40
0
 40
0
 40
0
 40
1
 40
1
 40
1
 40
1
 10
249.942020
 20
375.698583
 30
0.0
 10
247.207641
 20
366.368899
 30
0.0
 10
245.468832
 20
356.820873
 30
0.0
 10
244.692023
 20
347.198567
 30
0.0
  0
SPLINE
  5
161
100
AcDbEntity
  8
Layer_1
 62
7
100
AcDbSpline
 70
8
 71
3
 72
8
 73
4
 74
0
 40
0
 40
0
 40
0
 40
0
 40
1
 40
1
 40
1
 40
1
 10
244.692023
 20
347.198567
 30
0.0
 10
231.293341
 20
334.767429
 30
0.0
 10
214.578694
 20
325.844431
 30
0.0
 10
195.967025
 20
321.848600
 30
0.0
  0
SPLINE
  5
162
100
AcDbEntity
  8
Layer_1
 62
7
100
AcDbSpline
 70
8
 71
3
 72
8
 73
4
 74
0
 40
0
 40
0
 40
0
 40
0
 40
1
 40
1
 40
1
 40
1
 10
195.967025
 20
321.848600
 30
0.0
 10
199.993812
 20
340.411801
 30
0.0
 10
208.966865
 20
357.073247
 30
0.0
 10
221.442026
 20
370.448579
 30
0.0
  0
SPLINE
  5
163
100
AcDbEntity
  8
Layer_1
 62
7
100
AcDbSpline
 70
8
 71
3
 72
8
 73
4
 74
0
 40
0
 40
0
 40
0
 40
0
 40
1
 40
1
 40
1
 40
1
 10
221.442026
 20
370.448579
 30
0.0
 10
231.059647
 20
371.225940
 30
0.0
 10
240.616789
 20
372.965539
 30
0.0
 10
249.942020
 20
375.698583
 30
0.0
  0
LWPOLYLINE
  5
164
100
AcDbEntity
  8
Layer_1
 62
7
100
AcDbPolyline
 90
2
 70
0
 10
126.167026
 20
397.423619
 30
0.0
 10
126.167026
 20
397.423619
 30
0.0
  0
SPLINE
  5
165
100
AcDbEntity
  8
Layer_1
 62
7
100
AcDbSpline
 70
8
 71
3
 72
8
 73
4
 74
0
 40
0
 40
0
 40
0
 40
0
 40
1
 40
1
 40
1
 40
1
 10
345.442018
 20
375.623619
 30
0.0
 10
354.749547
 20
372.918504
 30
0.0
 10
364.290261
 20
371.206421
 30
0.0
 10
373.892020
 20
370.448579
 30
0.0
  0
SPLINE
  5
166
100
AcDbEntity
  8
Layer_1
 62
7
100
AcDbSpline
 70
8
 71
3
 72
8
 73
4
 74
0
 40
0
 40
0
 40
0
 40
0
 40
1
 40
1
 40
1
 40
1
 10
373.892020
 20
370.448579
 30
0.0
 10
386.358316
 20
357.076253
 30
0.0
 10
395.317066
 20
340.403342
 30
0.0
 10
399.342014
 20
321.848600
 30
0.0
  0
SPLINE
  5
167
100
AcDbEntity
  8
Layer_1
 62
7
100
AcDbSpline
 70
8
 71
3
 72
8
 73
4
 74
0
 40
0
 40
0
 40
0
 40
0
 40
1
 40
1
 40
1
 40
1
 10
399.342014
 20
321.848600
 30
0.0
 10
380.743159
 20
325.839118
 30
0.0
 10
364.037293
 20
334.758481
 30
0.0
 10
350.642015
 20
347.173540
 30
0.0
  0
SPLINE
  5
168
100
AcDbEntity
  8
Layer_1
 62
7
100
AcDbSpline
 70
8
 71
3
 72
8
 73
4
 74
0
 40
0
 40
0
 40
0
 40
0
 40
1
 40
1
 40
1
 40
1
 10
350.642015
 20
347.173540
 30
0.0
 10
349.884515
 20
356.778158
 30
0.0
 10
348.147923
 20
366.313300
 30
0.0
 10
345.442018
 20
375.623619
 30
0.0
  0
LWPOLYLINE
  5
169
100
AcDbEntity
  8
Layer_1
 62
7
100
AcDbPolyline
 90
2
 70
0
 10
249.942020
 20
375.698583
 30
0.0
 10
249.942020
 20
375.698583
 30
0.0
  0
SPLINE
  5
16a
100
AcDbEntity
  8
Layer_1
 62
7
100
AcDbSpline
 70
8
 71
3
 72
8
 73
4
 74
0
 40
0
 40
0
 40
0
 40
0
 40
1
 40
1
 40
1
 40
1
 10
297.642023
 20
355.948609
 30
0.0
 10
302.310623
 20
347.408157
 30
0.0
 10
307.853814
 20
339.408876
 30
0.0
 10
314.117020
 20
332.048570
 30
0.0
  0
SPLINE
  5
16b
100
AcDbEntity
  8
Layer_1
 62
7
100
AcDbSpline
 70
8
 71
3
 72
8
 73
4
 74
0
 40
0
 40
0
 40
0
 40
0
 40
1
 40
1
 40
1
 40
1
 10
314.117020
 20
332.048570
 30
0.0
 10
313.475130
 20
313.785632
 30
0.0
 10
308.009342
 20
295.659297
 30
0.0
 10
297.742022
 20
279.698556
 30
0.0
  0
SPLINE
  5
16c
100
AcDbEntity
  8
Layer_1
 62
7
100
AcDbSpline
 70
8
 71
3
 72
8
 73
4
 74
0
 40
0
 40
0
 40
0
 40
0
 40
1
 40
1
 40
1
 40
1
 10
297.742022
 20
279.698556
 30
0.0
 10
287.404191
 20
295.685024
 30
0.0
 10
281.902344
 20
313.807513
 30
0.0
 10
281.217019
 20
332.073527
 30
0.0
  0
SPLINE
  5
16d
100
AcDbEntity
  8
Layer_1
 62
7
100
AcDbSpline
 70
8
 71
3
 72
8
 73
4
 74
0
 40
0
 40
0
 40
0
 40
0
 40
1
 40
1
 40
1
 40
1
 10
281.217019
 20
332.073527
 30
0.0
 10
287.470605
 20
339.426283
 30
0.0
 10
292.979198
 20
347.418923
 30
0.0
 10
297.642023
 20
355.948609
 30
0.0
  0
LWPOLYLINE
  5
16e
100
AcDbEntity
  8
Layer_1
 62
7
100
AcDbPolyline
 90
2
 70
0
 10
345.442018
 20
375.623619
 30
0.0
 10
345.442018
 20
375.623619
 30
0.0
  0
SPLINE
  5
16f
100
AcDbEntity
  8
Layer_1
 62
7
100
AcDbSpline
 70
8
 71
3
 72
8
 73
4
 74
0
 40
0
 40
0
 40
0
 40
0
 40
1
 40
1
 40
1
 40
1
 10
347.317018
 20
303.423611
 30
0.0
 10
363.237805
 20
293.516074
 30
0.0
 10
381.255115
 20
286.697639
 30
0.0
 10
400.517015
 20
283.798552
 30
0.0
  0
SPLINE
  5
170
100
AcDbEntity
  8
Layer_1
 62
7
100
AcDbSpline
 70
8
 71
3
 72
8
 73
4
 74
0
 40
0
 40
0
 40
0
 40
0
 40
1
 40
1
 40
1
 40
1
 10
400.517015
 20
283.798552
 30
0.0
 10
397.560791
 20
264.211104
 30
0.0
 10
389.199119
 20
246.440331
 30
0.0
 10
376.942021
 20
232.073532
 30
0.0
  0
SPLINE
  5
171
100
AcDbEntity
  8
Layer_1
 62
7
100
AcDbSpline
 70
8
 71
3
 72
8
 73
4
 74
0
 40
0
 40
0
 40
0
 40
0
 40
1
 40
1
 40
1
 40
1
 10
376.942021
 20
232.073532
 30
0.0
 10
358.102914
 20
233.604904
 30
0.0
 10
339.594691
 20
240.281913
 30
0.0
 10
323.617018
 20
252.123642
 30
0.0
  0
SPLINE
  5
172
100
AcDbEntity
  8
Layer_1
 62
7
100
AcDbSpline
 70
8
 71
3
 72
8
 73
4
 74
0
 40
0
 40
0
 40
0
 40
0
 40
1
 40
1
 40
1
 40
1
 10
323.617018
 20
252.123642
 30
0.0
 10
335.152536
 20
267.753710
 30
0.0
 10
343.049434
 20
285.243237
 30
0.0
 10
347.317018
 20
303.423611
 30
0.0
  0
LWPOLYLINE
  5
173
100
AcDbEntity
  8
Layer_1
 62
7
100
AcDbPolyline
 90
2
 70
0
 10
297.642023
 20
355.948609
 30
0.0
 10
297.642023
 20
355.948609
 30
0.0
  0
SPLINE
  5
174
100
AcDbEntity
  8
Layer_1
 62
7
100
AcDbSpline
 70
8
 71
3
 72
8
 73
4
 74
0
 40
0
 40
0
 40
0
 40
0
 40
1
 40
1
 40
1
 40
1
 10
247.942022
 20
303.398444
 30
0.0
 10
252.197735
 20
285.146621
 30
0.0
 10
260.101372
 20
267.608787
 30
0.0
 10
271.667021
 20
251.948448
 30
0.0
  0
SPLINE
  5
175
100
AcDbEntity
  8
Layer_1
 62
7
100
AcDbSpline
 70
8
 71
3
 72
8
 73
4
 74
0
 40
0
 40
0
 40
0
 40
0
 40
1
 40
1
 40
1
 40
1
 10
271.667021
 20
251.948448
 30
0.0
 10
255.718445
 20
240.184738
 30
0.0
 10
237.226601
 20
233.559743
 30
0.0
 10
218.392025
 20
232.073392
 30
0.0
  0
SPLINE
  5
176
100
AcDbEntity
  8
Layer_1
 62
7
100
AcDbSpline
 70
8
 71
3
 72
8
 73
4
 74
0
 40
0
 40
0
 40
0
 40
0
 40
1
 40
1
 40
1
 40
1
 10
218.392025
 20
232.073392
 30
0.0
 10
206.133620
 20
246.437255
 30
0.0
 10
197.726926
 20
264.188733
 30
0.0
 10
194.767025
 20
283.773385
 30
0.0
  0
SPLINE
  5
177
100
AcDbEntity
  8
Layer_1
 62
7
100
AcDbSpline
 70
8
 71
3
 72
8
 73
4
 74
0
 40
0
 40
0
 40
0
 40
0
 40
1
 40
1
 40
1
 40
1
 10
194.767025
 20
283.773385
 30
0.0
 10
214.023282
 20
286.667647
 30
0.0
 10
232.023381
 20
293.499646
 30
0.0
 10
247.942022
 20
303.398444
 30
0.0
  0
LWPOLYLINE
  5
178
100
AcDbEntity
  8
Layer_1
 62
7
100
AcDbPolyline
 90
2
 70
0
 10
347.317018
 20
303.423611
 30
0.0
 10
347.317018
 20
303.423611
 30
0.0
  0
SPLINE
  5
179
100
AcDbEntity
  8
Layer_1
 62
7
100
AcDbSpline
 70
8
 71
3
 72
8
 73
4
 74
0
 40
0
 40
0
 40
0
 40
0
 40
1
 40
1
 40
1
 40
1
 10
481.217010
 20
295.523462
 30
0.0
 10
476.133531
 20
283.445927
 30
0.0
 10
468.679735
 20
272.111183
 30
0.0
 10
458.817017
 20
262.248459
 30
0.0
  0
SPLINE
  5
17a
100
AcDbEntity
  8
Layer_1
 62
7
100
AcDbSpline
 70
8
 71
3
 72
8
 73
4
 74
0
 40
0
 40
0
 40
0
 40
0
 40
1
 40
1
 40
1
 40
1
 10
458.817017
 20
262.248459
 30
0.0
 10
448.920358
 20
252.351827
 30
0.0
 10
437.541284
 20
244.882952
 30
0.0
 10
425.417015
 20
239.798417
 30
0.0
  0
SPLINE
  5
17b
100
AcDbEntity
  8
Layer_1
 62
7
100
AcDbSpline
 70
8
 71
3
 72
8
 73
4
 74
0
 40
0
 40
0
 40
0
 40
0
 40
1
 40
1
 40
1
 40
1
 10
425.417015
 20
239.798417
 30
0.0
 10
431.728724
 20
253.242617
 30
0.0
 10
435.983640
 20
267.839559
 30
0.0
 10
437.767016
 20
283.173419
 30
0.0
  0
SPLINE
  5
17c
100
AcDbEntity
  8
Layer_1
 62
7
100
AcDbSpline
 70
8
 71
3
 72
8
 73
4
 74
0
 40
0
 40
0
 40
0
 40
0
 40
1
 40
1
 40
1
 40
1
 10
437.767016
 20
283.173419
 30
0.0
 10
453.121660
 20
284.951783
 30
0.0
 10
467.745070
 20
289.185656
 30
0.0
 10
481.217010
 20
295.523462
 30
0.0
  0
LWPOLYLINE
  5
17d
100
AcDbEntity
  8
Layer_1
 62
7
100
AcDbPolyline
 90
2
 70
0
 10
247.942022
 20
303.398444
 30
0.0
 10
247.942022
 20
303.398444
 30
0.0
  0
SPLINE
  5
17e
100
AcDbEntity
  8
Layer_1
 62
7
100
AcDbSpline
 70
8
 71
3
 72
8
 73
4
 74
0
 40
0
 40
0
 40
0
 40
0
 40
1
 40
1
 40
1
 40
1
 10
114.217027
 20
295.473127
 30
0.0
 10
127.655299
 20
289.166850
 30
0.0
 10
142.233624
 20
284.946190
 30
0.0
 10
157.542030
 20
283.173140
 30
0.0
  0
SPLINE
  5
17f
100
AcDbEntity
  8
Layer_1
 62
7
100
AcDbSpline
 70
8
 71
3
 72
8
 73
4
 74
0
 40
0
 40
0
 40
0
 40
0
 40
1
 40
1
 40
1
 40
1
 10
157.542030
 20
283.173140
 30
0.0
 10
159.319590
 20
267.889265
 30
0.0
 10
163.539285
 20
253.330983
 30
0.0
 10
169.817025
 20
239.923206
 30
0.0
  0
SPLINE
  5
180
100
AcDbEntity
  8
Layer_1
 62
7
100
AcDbSpline
 70
8
 71
3
 72
8
 73
4
 74
0
 40
0
 40
0
 40
0
 40
0
 40
1
 40
1
 40
1
 40
1
 10
169.817025
 20
239.923206
 30
0.0
 10
157.769866
 20
245.019835
 30
0.0
 10
146.456962
 20
252.508216
 30
0.0
 10
136.592028
 20
262.373108
 30
0.0
  0
SPLINE
  5
181
100
AcDbEntity
  8
Layer_1
 62
7
100
AcDbSpline
 70
8
 71
3
 72
8
 73
4
 74
0
 40
0
 40
0
 40
0
 40
0
 40
1
 40
1
 40
1
 40
1
 10
136.592028
 20
262.373108
 30
0.0
 10
126.755065
 20
272.210176
 30
0.0
 10
119.312761
 20
283.464384
 30
0.0
 10
114.217027
 20
295.473127
 30
0.0
  0
LWPOLYLINE
  5
182
100
AcDbEntity
  8
Layer_1
 62
7
100
AcDbPolyline
 90
2
 70
0
 10
481.217010
 20
295.523462
 30
0.0
 10
481.217010
 20
295.523462
 30
0.0
  0
SPLINE
  5
183
100
AcDbEntity
  8
Layer_1
 62
7
100
AcDbSpline
 70
8
 71
3
 72
8
 73
4
 74
0
 40
0
 40
0
 40
0
 40
0
 40
1
 40
1
 40
1
 40
1
 10
297.542024
 20
225.173092
 30
0.0
 10
309.625858
 20
215.595389
 30
0.0
 10
322.947933
 20
208.293248
 30
0.0
 10
336.917023
 20
203.248142
 30
0.0
  0
SPLINE
  5
184
100
AcDbEntity
  8
Layer_1
 62
7
100
AcDbSpline
 70
8
 71
3
 72
8
 73
4
 74
0
 40
0
 40
0
 40
0
 40
0
 40
1
 40
1
 40
1
 40
1
 10
336.917023
 20
203.248142
 30
0.0
 10
324.815502
 20
198.353413
 30
0.0
 10
311.563238
 20
195.648186
 30
0.0
 10
297.642023
 20
195.648186
 30
0.0
  0
SPLINE
  5
185
100
AcDbEntity
  8
Layer_1
 62
7
100
AcDbSpline
 70
8
 71
3
 72
8
 73
4
 74
0
 40
0
 40
0
 40
0
 40
0
 40
1
 40
1
 40
1
 40
1
 10
297.642023
 20
195.648186
 30
0.0
 10
283.692711
 20
195.648186
 30
0.0
 10
270.413295
 20
198.359704
 30
0.0
 10
258.292024
 20
203.273100
 30
0.0
  0
SPLINE
  5
186
100
AcDbEntity
  8
Layer_1
 62
7
100
AcDbSpline
 70
8
 71
3
 72
8
 73
4
 74
0
 40
0
 40
0
 40
0
 40
0
 40
1
 40
1
 40
1
 40
1
 10
258.292024
 20
203.273100
 30
0.0
 10
272.212764
 20
208.312892
 30
0.0
 10
285.476381
 20
215.624541
 30
0.0
 10
297.542024
 20
225.173092
 30
0.0
  0
LWPOLYLINE
  5
187
100
AcDbEntity
  8
Layer_1
 62
7
100
AcDbPolyline
 90
2
 70
0
 10
114.217027
 20
295.473127
 30
0.0
 10
114.217027
 20
295.473127
 30
0.0
  0
LWPOLYLINE
  5
188
100
AcDbEntity
  8
Layer_1
 62
7
100
AcDbPolyline
 90
2
 70
0
 10
297.542024
 20
225.173092
 30
0.0
 10
297.542024
 20
225.173092
 30
0.0
  0
ENDSEC
  0
SECTION
  2
OBJECTS
  0
DICTIONARY
  5
C
330
0
100
AcDbDictionary
  3
ACAD_GROUP
350
D
  3
ACAD_MLINESTYLE
350
17
  0
DICTIONARY
  5
D
330
C
100
AcDbDictionary
  0
DICTIONARY
  5
1A
330
C
100
AcDbDictionary
  0
DICTIONARY
  5
17
330
C
100
AcDbDictionary
  3
STANDARD
350
18
  0
DICTIONARY
  5
19
330
C
100
AcDbDictionary
  0
ENDSEC
  0
EOF
