  0
SECTION
  2
HEADER
  9
$ACADVER
  1
AC1014
  9
$HANDSEED
  5
FFFF
  9
$MEASUREMENT
 70
     1
  0
ENDSEC
  0
SECTION
  2
TABLES
  0
TABLE
  2
VPORT
  5
8
330
0
100
AcDbSymbolTable
 70
     4
  0
VPORT
  5
2E
330
8
100
AcDbSymbolTableRecord
100
AcDbViewportTableRecord
  2
*ACTIVE
 70
     0
 10
0.0
 20
0.0
 11
1.0
 21
1.0
 12
210.0
 22
148.5
 13
0.0
 23
0.0
 14
10.0
 24
10.0
 15
10.0
 25
10.0
 16
0.0
 26
0.0
 36
1.0
 17
0.0
 27
0.0
 37
0.0
 40
341.0
 41
1.24
 42
50.0
 43
0.0
 44
0.0
 50
0.0
 51
0.0
 71
     0
 72
   100
 73
     1
 74
     3
 75
     0
 76
     0
 77
     0
 78
     0
  0
ENDTAB
  0
TABLE
  2
LTYPE
  5
5
330
0
100
AcDbSymbolTable
 70
     1
  0
LTYPE
  5
14
330
5
100
AcDbSymbolTableRecord
100
AcDbLinetypeTableRecord
  2
BYBLOCK
 70
     0
  3

 72
    65
 73
     0
 40
0.0
  0
LTYPE
  5
15
330
5
100
AcDbSymbolTableRecord
100
AcDbLinetypeTableRecord
  2
BYLAYER
 70
     0
  3

 72
    65
 73
     0
 40
0.0
  0
LTYPE
  5
16
330
5
100
AcDbSymbolTableRecord
100
AcDbLinetypeTableRecord
  2
CONTINUOUS
 70
     0
  3
Solid line
 72
    65
 73
     0
 40
0.0
  0
ENDTAB
  0
TABLE
  2
LAYER
  5
2
100
AcDbSymbolTable
 70
2
  0
LAYER
  5
50
100
AcDbSymbolTableRecord
100
AcDbLayerTableRecord
  2
0
 70
0
  6
CONTINUOUS
  0
LAYER
  5
51
100
AcDbSymbolTableRecord
100
AcDbLayerTableRecord
  2
Layer_1
 70
0
  6
CONTINUOUS
  0
ENDTAB
  0
TABLE
  2
STYLE
  5
3
330
0
100
AcDbSymbolTable
 70
     1
  0
STYLE
  5
11
330
3
100
AcDbSymbolTableRecord
100
AcDbTextStyleTableRecord
  2
STANDARD
 70
     0
 40
0.0
 41
1.0
 50
0.0
 71
     0
 42
2.5
  3
txt
  4

  0
ENDTAB
  0
TABLE
  2
VIEW
  5
6
330
0
100
AcDbSymbolTable
 70
     0
  0
ENDTAB
  0
TABLE
  2
UCS
  5
7
330
0
100
AcDbSymbolTable
 70
     0
  0
ENDTAB
  0
TABLE
  2
APPID
  5
9
330
0
100
AcDbSymbolTable
 70
     2
  0
APPID
  5
12
330
9
100
AcDbSymbolTableRecord
100
AcDbRegAppTableRecord
  2
ACAD
 70
     0
  0
ENDTAB
  0
TABLE
  2
DIMSTYLE
  5
A
330
0
100
AcDbSymbolTable
 70
     1
  0
DIMSTYLE
105
27
330
A
100
AcDbSymbolTableRecord
100
AcDbDimStyleTableRecord
  2
ISO-25
 70
     0
  3

  4

  5

  6

  7

 40
1.0
 41
2.5
 42
0.625
 43
3.75
 44
1.25
 45
0.0
 46
0.0
 47
0.0
 48
0.0
140
2.5
141
2.5
142
0.0
143
0.03937007874016
144
1.0
145
0.0
146
1.0
147
0.625
 71
     0
 72
     0
 73
     0
 74
     0
 75
     0
 76
     0
 77
     1
 78
     8
170
     0
171
     3
172
     1
173
     0
174
     0
175
     0
176
     0
177
     0
178
     0
270
     2
271
     2
272
     2
273
     2
274
     3
340
11
275
     0
280
     0
281
     0
282
     0
283
     0
284
     8
285
     0
286
     0
287
     3
288
     0
  0
ENDTAB
  0
TABLE
  2
BLOCK_RECORD
  5
1
330
0
100
AcDbSymbolTable
 70
     1
  0
BLOCK_RECORD
  5
1F
330
1
100
AcDbSymbolTableRecord
100
AcDbBlockTableRecord
  2
*MODEL_SPACE
  0
BLOCK_RECORD
  5
1B
330
1
100
AcDbSymbolTableRecord
100
AcDbBlockTableRecord
  2
*PAPER_SPACE
  0
ENDTAB
  0
ENDSEC
  0
SECTION
  2
BLOCKS
  0
BLOCK
  5
20
330
1F
100
AcDbEntity
  8
0
100
AcDbBlockBegin
  2
*MODEL_SPACE
 70
     0
 10
0.0
 20
0.0
 30
0.0
  3
*MODEL_SPACE
  1

  0
ENDBLK
  5
21
330
1F
100
AcDbEntity
  8
0
100
AcDbBlockEnd
  0
BLOCK
  5
1C
330
1B
100
AcDbEntity
 67
     1
  8
0
100
AcDbBlockBegin
  2
*PAPER_SPACE
  1

  0
ENDBLK
  5
1D
330
1B
100
AcDbEntity
 67
     1
  8
0
100
AcDbBlockEnd
  0
ENDSEC
  0
SECTION
  2
ENTITIES
  0
SPLINE
  5
100
100
AcDbEntity
  8
Layer_1
 62
7
100
AcDbSpline
 70
8
 71
3
 72
8
 73
4
 74
0
 40
0
 40
0
 40
0
 40
0
 40
1
 40
1
 40
1
 40
1
 10
297.200881
 20
683.401905
 30
0.0
 10
261.646400
 20
683.401905
 30
0.0
 10
229.239990
 20
669.537268
 30
0.0
 10
205.100901
 20
646.926923
 30
0.0
  0
SPLINE
  5
101
100
AcDbEntity
  8
Layer_1
 62
7
100
AcDbSpline
 70
8
 71
3
 72
8
 73
4
 74
0
 40
0
 40
0
 40
0
 40
0
 40
1
 40
1
 40
1
 40
1
 10
205.100901
 20
646.926923
 30
0.0
 10
172.087464
 20
645.810745
 30
0.0
 10
139.408902
 20
632.684913
 30
0.0
 10
114.250907
 20
607.526918
 30
0.0
  0
SPLINE
  5
102
100
AcDbEntity
  8
Layer_1
 62
7
100
AcDbSpline
 70
8
 71
3
 72
8
 73
4
 74
0
 40
0
 40
0
 40
0
 40
0
 40
1
 40
1
 40
1
 40
1
 10
114.250907
 20
607.526918
 30
0.0
 10
89.092905
 20
582.368923
 30
0.0
 10
75.967095
 20
549.690389
 30
0.0
 10
74.850909
 20
516.676918
 30
0.0
  0
SPLINE
  5
103
100
AcDbEntity
  8
Layer_1
 62
7
100
AcDbSpline
 70
8
 71
3
 72
8
 73
4
 74
0
 40
0
 40
0
 40
0
 40
0
 40
1
 40
1
 40
1
 40
1
 10
74.850909
 20
516.676918
 30
0.0
 10
52.288796
 20
492.542261
 30
0.0
 10
38.450906
 20
460.137284
 30
0.0
 10
38.450906
 20
424.551973
 30
0.0
  0
SPLINE
  5
104
100
AcDbEntity
  8
Layer_1
 62
7
100
AcDbSpline
 70
8
 71
3
 72
8
 73
4
 74
0
 40
0
 40
0
 40
0
 40
0
 40
1
 40
1
 40
1
 40
1
 10
38.450906
 20
424.551973
 30
0.0
 10
38.450906
 20
388.969319
 30
0.0
 10
52.291844
 20
356.586084
 30
0.0
 10
74.850909
 20
332.451917
 30
0.0
  0
SPLINE
  5
105
100
AcDbEntity
  8
Layer_1
 62
7
100
AcDbSpline
 70
8
 71
3
 72
8
 73
4
 74
0
 40
0
 40
0
 40
0
 40
0
 40
1
 40
1
 40
1
 40
1
 10
74.850909
 20
332.451917
 30
0.0
 10
75.931770
 20
299.394961
 30
0.0
 10
89.034943
 20
266.667910
 30
0.0
 10
114.175908
 20
241.526973
 30
0.0
  0
SPLINE
  5
106
100
AcDbEntity
  8
Layer_1
 62
7
100
AcDbSpline
 70
8
 71
3
 72
8
 73
4
 74
0
 40
0
 40
0
 40
0
 40
0
 40
1
 40
1
 40
1
 40
1
 10
114.175908
 20
241.526973
 30
0.0
 10
139.316866
 20
216.385966
 30
0.0
 10
172.043876
 20
203.282786
 30
0.0
 10
205.100901
 20
202.201981
 30
0.0
  0
SPLINE
  5
107
100
AcDbEntity
  8
Layer_1
 62
7
100
AcDbSpline
 70
8
 71
3
 72
8
 73
4
 74
0
 40
0
 40
0
 40
0
 40
0
 40
1
 40
1
 40
1
 40
1
 10
205.100901
 20
202.201981
 30
0.0
 10
229.239990
 20
179.591637
 30
0.0
 10
261.646400
 20
165.726929
 30
0.0
 10
297.200881
 20
165.726929
 30
0.0
  0
SPLINE
  5
108
100
AcDbEntity
  8
Layer_1
 62
7
100
AcDbSpline
 70
8
 71
3
 72
8
 73
4
 74
0
 40
0
 40
0
 40
0
 40
0
 40
1
 40
1
 40
1
 40
1
 10
297.200881
 20
165.726929
 30
0.0
 10
332.755361
 20
165.726929
 30
0.0
 10
365.161807
 20
179.591637
 30
0.0
 10
389.300867
 20
202.201981
 30
0.0
  0
SPLINE
  5
109
100
AcDbEntity
  8
Layer_1
 62
7
100
AcDbSpline
 70
8
 71
3
 72
8
 73
4
 74
0
 40
0
 40
0
 40
0
 40
0
 40
1
 40
1
 40
1
 40
1
 10
389.300867
 20
202.201981
 30
0.0
 10
422.317834
 20
203.315713
 30
0.0
 10
455.015244
 20
216.441265
 30
0.0
 10
480.175896
 20
241.601986
 30
0.0
  0
SPLINE
  5
10a
100
AcDbEntity
  8
Layer_1
 62
7
100
AcDbSpline
 70
8
 71
3
 72
8
 73
4
 74
0
 40
0
 40
0
 40
0
 40
0
 40
1
 40
1
 40
1
 40
1
 10
480.175896
 20
241.601986
 30
0.0
 10
505.330115
 20
266.756206
 30
0.0
 10
518.431269
 20
299.443549
 30
0.0
 10
519.550873
 20
332.451917
 30
0.0
  0
SPLINE
  5
10b
100
AcDbEntity
  8
Layer_1
 62
7
100
AcDbSpline
 70
8
 71
3
 72
8
 73
4
 74
0
 40
0
 40
0
 40
0
 40
0
 40
1
 40
1
 40
1
 40
1
 10
519.550873
 20
332.451917
 30
0.0
 10
542.109974
 20
356.586084
 30
0.0
 10
555.950912
 20
388.969319
 30
0.0
 10
555.950912
 20
424.551973
 30
0.0
  0
SPLINE
  5
10c
100
AcDbEntity
  8
Layer_1
 62
7
100
AcDbSpline
 70
8
 71
3
 72
8
 73
4
 74
0
 40
0
 40
0
 40
0
 40
0
 40
1
 40
1
 40
1
 40
1
 10
555.950912
 20
424.551973
 30
0.0
 10
555.950912
 20
460.124630
 30
0.0
 10
542.123816
 20
492.519960
 30
0.0
 10
519.575901
 20
516.651960
 30
0.0
  0
SPLINE
  5
10d
100
AcDbEntity
  8
Layer_1
 62
7
100
AcDbSpline
 70
8
 71
3
 72
8
 73
4
 74
0
 40
0
 40
0
 40
0
 40
0
 40
1
 40
1
 40
1
 40
1
 10
519.575901
 20
516.651960
 30
0.0
 10
518.500899
 20
549.717584
 30
0.0
 10
505.373250
 20
582.454563
 30
0.0
 10
480.225881
 20
607.601932
 30
0.0
  0
SPLINE
  5
10e
100
AcDbEntity
  8
Layer_1
 62
7
100
AcDbSpline
 70
8
 71
3
 72
8
 73
4
 74
0
 40
0
 40
0
 40
0
 40
0
 40
1
 40
1
 40
1
 40
1
 10
480.225881
 20
607.601932
 30
0.0
 10
455.080959
 20
632.746853
 30
0.0
 10
422.363206
 20
645.849684
 30
0.0
 10
389.300867
 20
646.926923
 30
0.0
  0
SPLINE
  5
10f
100
AcDbEntity
  8
Layer_1
 62
7
100
AcDbSpline
 70
8
 71
3
 72
8
 73
4
 74
0
 40
0
 40
0
 40
0
 40
0
 40
1
 40
1
 40
1
 40
1
 10
389.300867
 20
646.926923
 30
0.0
 10
365.161807
 20
669.537268
 30
0.0
 10
332.755361
 20
683.401905
 30
0.0
 10
297.200881
 20
683.401905
 30
0.0
  0
SPLINE
  5
110
100
AcDbEntity
  8
Layer_1
 62
7
100
AcDbSpline
 70
8
 71
3
 72
8
 73
4
 74
0
 40
0
 40
0
 40
0
 40
0
 40
1
 40
1
 40
1
 40
1
 10
297.200881
 20
658.551933
 30
0.0
 10
317.724350
 20
658.551933
 30
0.0
 10
336.907370
 20
652.993480
 30
0.0
 10
353.325880
 20
643.301964
 30
0.0
  0
SPLINE
  5
111
100
AcDbEntity
  8
Layer_1
 62
7
100
AcDbSpline
 70
8
 71
3
 72
8
 73
4
 74
0
 40
0
 40
0
 40
0
 40
0
 40
1
 40
1
 40
1
 40
1
 10
353.325880
 20
643.301964
 30
0.0
 10
333.151610
 20
638.489868
 30
0.0
 10
313.872813
 20
628.997525
 30
0.0
 10
297.250866
 20
614.801935
 30
0.0
  0
SPLINE
  5
112
100
AcDbEntity
  8
Layer_1
 62
7
100
AcDbSpline
 70
8
 71
3
 72
8
 73
4
 74
0
 40
0
 40
0
 40
0
 40
0
 40
1
 40
1
 40
1
 40
1
 10
297.250866
 20
614.801935
 30
0.0
 10
280.624725
 20
629.006753
 30
0.0
 10
261.337119
 20
638.525102
 30
0.0
 10
241.125867
 20
643.326922
 30
0.0
  0
SPLINE
  5
113
100
AcDbEntity
  8
Layer_1
 62
7
100
AcDbSpline
 70
8
 71
3
 72
8
 73
4
 74
0
 40
0
 40
0
 40
0
 40
0
 40
1
 40
1
 40
1
 40
1
 10
241.125867
 20
643.326922
 30
0.0
 10
257.533820
 20
653.001030
 30
0.0
 10
276.697406
 20
658.551933
 30
0.0
 10
297.200881
 20
658.551933
 30
0.0
  0
LWPOLYLINE
  5
114
100
AcDbEntity
  8
Layer_1
 62
7
100
AcDbPolyline
 90
2
 70
0
 10
297.200881
 20
683.401905
 30
0.0
 10
297.200881
 20
683.401905
 30
0.0
  0
SPLINE
  5
115
100
AcDbEntity
  8
Layer_1
 62
7
100
AcDbSpline
 70
8
 71
3
 72
8
 73
4
 74
0
 40
0
 40
0
 40
0
 40
0
 40
1
 40
1
 40
1
 40
1
 10
215.325898
 20
622.251935
 30
0.0
 10
238.342062
 20
621.042217
 30
0.0
 10
261.060067
 20
612.601456
 30
0.0
 10
279.875921
 20
596.951953
 30
0.0
  0
SPLINE
  5
116
100
AcDbEntity
  8
Layer_1
 62
7
100
AcDbSpline
 70
8
 71
3
 72
8
 73
4
 74
0
 40
0
 40
0
 40
0
 40
0
 40
1
 40
1
 40
1
 40
1
 10
279.875921
 20
596.951953
 30
0.0
 10
264.847287
 20
578.388613
 30
0.0
 10
255.465961
 20
556.735682
 30
0.0
 10
251.750888
 20
534.326957
 30
0.0
  0
SPLINE
  5
117
100
AcDbEntity
  8
Layer_1
 62
7
100
AcDbSpline
 70
8
 71
3
 72
8
 73
4
 74
0
 40
0
 40
0
 40
0
 40
0
 40
1
 40
1
 40
1
 40
1
 10
251.750888
 20
534.326957
 30
0.0
 10
233.244601
 20
547.603654
 30
0.0
 10
211.264982
 20
556.308813
 30
0.0
 10
187.475903
 20
558.801934
 30
0.0
  0
SPLINE
  5
118
100
AcDbEntity
  8
Layer_1
 62
7
100
AcDbSpline
 70
8
 71
3
 72
8
 73
4
 74
0
 40
0
 40
0
 40
0
 40
0
 40
1
 40
1
 40
1
 40
1
 10
187.475903
 20
558.801934
 30
0.0
 10
189.738287
 20
583.132827
 30
0.0
 10
199.866116
 20
605.137404
 30
0.0
 10
215.325898
 20
622.251935
 30
0.0
  0
LWPOLYLINE
  5
119
100
AcDbEntity
  8
Layer_1
 62
7
100
AcDbPolyline
 90
2
 70
0
 10
297.200881
 20
658.551933
 30
0.0
 10
297.200881
 20
658.551933
 30
0.0
  0
SPLINE
  5
11a
100
AcDbEntity
  8
Layer_1
 62
7
100
AcDbSpline
 70
8
 71
3
 72
8
 73
4
 74
0
 40
0
 40
0
 40
0
 40
0
 40
1
 40
1
 40
1
 40
1
 10
379.075870
 20
622.251935
 30
0.0
 10
394.536477
 20
605.137194
 30
0.0
 10
404.663460
 20
583.133526
 30
0.0
 10
406.925879
 20
558.801934
 30
0.0
  0
SPLINE
  5
11b
100
AcDbEntity
  8
Layer_1
 62
7
100
AcDbSpline
 70
8
 71
3
 72
8
 73
4
 74
0
 40
0
 40
0
 40
0
 40
0
 40
1
 40
1
 40
1
 40
1
 10
406.925879
 20
558.801934
 30
0.0
 10
383.150000
 20
556.309652
 30
0.0
 10
361.175554
 20
547.616727
 30
0.0
 10
342.675901
 20
534.351915
 30
0.0
  0
SPLINE
  5
11c
100
AcDbEntity
  8
Layer_1
 62
7
100
AcDbSpline
 70
8
 71
3
 72
8
 73
4
 74
0
 40
0
 40
0
 40
0
 40
0
 40
1
 40
1
 40
1
 40
1
 10
342.675901
 20
534.351915
 30
0.0
 10
338.974041
 20
556.807340
 30
0.0
 10
329.595511
 20
578.506061
 30
0.0
 10
314.550868
 20
597.076952
 30
0.0
  0
SPLINE
  5
11d
100
AcDbEntity
  8
Layer_1
 62
7
100
AcDbSpline
 70
8
 71
3
 72
8
 73
4
 74
0
 40
0
 40
0
 40
0
 40
0
 40
1
 40
1
 40
1
 40
1
 10
314.550868
 20
597.076952
 30
0.0
 10
333.348755
 20
612.672344
 30
0.0
 10
356.052219
 20
621.079059
 30
0.0
 10
379.075870
 20
622.251935
 30
0.0
  0
LWPOLYLINE
  5
11e
100
AcDbEntity
  8
Layer_1
 62
7
100
AcDbPolyline
 90
2
 70
0
 10
215.325898
 20
622.251935
 30
0.0
 10
215.325898
 20
622.251935
 30
0.0
  0
SPLINE
  5
11f
100
AcDbEntity
  8
Layer_1
 62
7
100
AcDbSpline
 70
8
 71
3
 72
8
 73
4
 74
0
 40
0
 40
0
 40
0
 40
0
 40
1
 40
1
 40
1
 40
1
 10
182.250899
 20
618.951916
 30
0.0
 10
171.375546
 20
601.276779
 30
0.0
 10
164.443807
 20
580.931579
 30
0.0
 10
162.725901
 20
559.126945
 30
0.0
  0
SPLINE
  5
120
100
AcDbEntity
  8
Layer_1
 62
7
100
AcDbSpline
 70
8
 71
3
 72
8
 73
4
 74
0
 40
0
 40
0
 40
0
 40
0
 40
1
 40
1
 40
1
 40
1
 10
162.725901
 20
559.126945
 30
0.0
 10
140.914024
 20
557.415484
 30
0.0
 10
120.519636
 20
550.480999
 30
0.0
 10
102.825903
 20
539.576968
 30
0.0
  0
SPLINE
  5
121
100
AcDbEntity
  8
Layer_1
 62
7
100
AcDbSpline
 70
8
 71
3
 72
8
 73
4
 74
0
 40
0
 40
0
 40
0
 40
0
 40
1
 40
1
 40
1
 40
1
 10
102.825903
 20
539.576968
 30
0.0
 10
107.563168
 20
558.070888
 30
0.0
 10
117.169044
 20
575.570062
 30
0.0
 10
131.675908
 20
590.076961
 30
0.0
  0
SPLINE
  5
122
100
AcDbEntity
  8
Layer_1
 62
7
100
AcDbSpline
 70
8
 71
3
 72
8
 73
4
 74
0
 40
0
 40
0
 40
0
 40
0
 40
1
 40
1
 40
1
 40
1
 10
131.675908
 20
590.076961
 30
0.0
 10
146.194991
 20
604.596023
 30
0.0
 10
163.739718
 20
614.218957
 30
0.0
 10
182.250899
 20
618.951916
 30
0.0
  0
LWPOLYLINE
  5
123
100
AcDbEntity
  8
Layer_1
 62
7
100
AcDbPolyline
 90
2
 70
0
 10
379.075870
 20
622.251935
 30
0.0
 10
379.075870
 20
622.251935
 30
0.0
  0
SPLINE
  5
124
100
AcDbEntity
  8
Layer_1
 62
7
100
AcDbSpline
 70
8
 71
3
 72
8
 73
4
 74
0
 40
0
 40
0
 40
0
 40
0
 40
1
 40
1
 40
1
 40
1
 10
412.200918
 20
618.901581
 30
0.0
 10
430.660162
 20
614.144084
 30
0.0
 10
448.140950
 20
604.536530
 30
0.0
 10
462.650925
 20
590.026556
 30
0.0
  0
SPLINE
  5
125
100
AcDbEntity
  8
Layer_1
 62
7
100
AcDbSpline
 70
8
 71
3
 72
8
 73
4
 74
0
 40
0
 40
0
 40
0
 40
0
 40
1
 40
1
 40
1
 40
1
 10
462.650925
 20
590.026556
 30
0.0
 10
477.147756
 20
575.529725
 30
0.0
 10
486.763909
 20
558.042435
 30
0.0
 10
491.525880
 20
539.601577
 30
0.0
  0
SPLINE
  5
126
100
AcDbEntity
  8
Layer_1
 62
7
100
AcDbSpline
 70
8
 71
3
 72
8
 73
4
 74
0
 40
0
 40
0
 40
0
 40
0
 40
1
 40
1
 40
1
 40
1
 10
491.525880
 20
539.601577
 30
0.0
 10
473.836971
 20
550.492604
 30
0.0
 10
453.476880
 20
557.419679
 30
0.0
 10
431.675881
 20
559.126595
 30
0.0
  0
SPLINE
  5
127
100
AcDbEntity
  8
Layer_1
 62
7
100
AcDbSpline
 70
8
 71
3
 72
8
 73
4
 74
0
 40
0
 40
0
 40
0
 40
0
 40
1
 40
1
 40
1
 40
1
 10
431.675881
 20
559.126595
 30
0.0
 10
429.959877
 20
580.906971
 30
0.0
 10
423.055382
 20
601.240146
 30
0.0
 10
412.200918
 20
618.901581
 30
0.0
  0
LWPOLYLINE
  5
128
100
AcDbEntity
  8
Layer_1
 62
7
100
AcDbPolyline
 90
2
 70
0
 10
182.250899
 20
618.951916
 30
0.0
 10
182.250899
 20
618.951916
 30
0.0
  0
SPLINE
  5
129
100
AcDbEntity
  8
Layer_1
 62
7
100
AcDbSpline
 70
8
 71
3
 72
8
 73
4
 74
0
 40
0
 40
0
 40
0
 40
0
 40
1
 40
1
 40
1
 40
1
 10
297.150895
 20
579.001582
 30
0.0
 10
311.956168
 20
559.716284
 30
0.0
 10
319.511173
 20
536.736676
 30
0.0
 10
319.850864
 20
513.676602
 30
0.0
  0
SPLINE
  5
12a
100
AcDbEntity
  8
Layer_1
 62
7
100
AcDbSpline
 70
8
 71
3
 72
8
 73
4
 74
0
 40
0
 40
0
 40
0
 40
0
 40
1
 40
1
 40
1
 40
1
 10
319.850864
 20
513.676602
 30
0.0
 10
310.550913
 20
503.116597
 30
0.0
 10
302.867414
 20
491.116802
 30
0.0
 10
297.200881
 20
478.026625
 30
0.0
  0
SPLINE
  5
12b
100
AcDbEntity
  8
Layer_1
 62
7
100
AcDbSpline
 70
8
 71
3
 72
8
 73
4
 74
0
 40
0
 40
0
 40
0
 40
0
 40
1
 40
1
 40
1
 40
1
 10
297.200881
 20
478.026625
 30
0.0
 10
291.534627
 20
491.114355
 30
0.0
 10
283.849381
 20
503.118275
 30
0.0
 10
274.550897
 20
513.676602
 30
0.0
  0
SPLINE
  5
12c
100
AcDbEntity
  8
Layer_1
 62
7
100
AcDbSpline
 70
8
 71
3
 72
8
 73
4
 74
0
 40
0
 40
0
 40
0
 40
0
 40
1
 40
1
 40
1
 40
1
 10
274.550897
 20
513.676602
 30
0.0
 10
274.852418
 20
536.750448
 30
0.0
 10
282.391903
 20
559.729566
 30
0.0
 10
297.150895
 20
579.001582
 30
0.0
  0
LWPOLYLINE
  5
12d
100
AcDbEntity
  8
Layer_1
 62
7
100
AcDbPolyline
 90
2
 70
0
 10
412.200918
 20
618.901581
 30
0.0
 10
412.200918
 20
618.901581
 30
0.0
  0
SPLINE
  5
12e
100
AcDbEntity
  8
Layer_1
 62
7
100
AcDbSpline
 70
8
 71
3
 72
8
 73
4
 74
0
 40
0
 40
0
 40
0
 40
0
 40
1
 40
1
 40
1
 40
1
 10
163.050905
 20
534.226567
 30
0.0
 10
165.546389
 20
510.443487
 30
0.0
 10
174.236196
 20
488.491412
 30
0.0
 10
187.475903
 20
470.001617
 30
0.0
  0
SPLINE
  5
12f
100
AcDbEntity
  8
Layer_1
 62
7
100
AcDbSpline
 70
8
 71
3
 72
8
 73
4
 74
0
 40
0
 40
0
 40
0
 40
0
 40
1
 40
1
 40
1
 40
1
 10
187.475903
 20
470.001617
 30
0.0
 10
165.057678
 20
466.289550
 30
0.0
 10
143.396567
 20
456.936118
 30
0.0
 10
124.825908
 20
441.901611
 30
0.0
  0
SPLINE
  5
130
100
AcDbEntity
  8
Layer_1
 62
7
100
AcDbSpline
 70
8
 71
3
 72
8
 73
4
 74
0
 40
0
 40
0
 40
0
 40
0
 40
1
 40
1
 40
1
 40
1
 10
124.825908
 20
441.901611
 30
0.0
 10
109.176440
 20
460.717325
 30
0.0
 10
100.735679
 20
483.435610
 30
0.0
 10
99.525905
 20
506.451571
 30
0.0
  0
SPLINE
  5
131
100
AcDbEntity
  8
Layer_1
 62
7
100
AcDbSpline
 70
8
 71
3
 72
8
 73
4
 74
0
 40
0
 40
0
 40
0
 40
0
 40
1
 40
1
 40
1
 40
1
 10
99.525905
 20
506.451571
 30
0.0
 10
116.652726
 20
521.864499
 30
0.0
 10
138.688168
 20
531.986449
 30
0.0
 10
163.050905
 20
534.226567
 30
0.0
  0
LWPOLYLINE
  5
132
100
AcDbEntity
  8
Layer_1
 62
7
100
AcDbPolyline
 90
2
 70
0
 10
297.150895
 20
579.001582
 30
0.0
 10
297.150895
 20
579.001582
 30
0.0
  0
SPLINE
  5
133
100
AcDbEntity
  8
Layer_1
 62
7
100
AcDbSpline
 70
8
 71
3
 72
8
 73
4
 74
0
 40
0
 40
0
 40
0
 40
0
 40
1
 40
1
 40
1
 40
1
 10
431.350871
 20
534.226567
 30
0.0
 10
455.723010
 20
531.987568
 30
0.0
 10
477.745204
 20
521.847651
 30
0.0
 10
494.875884
 20
506.426613
 30
0.0
  0
SPLINE
  5
134
100
AcDbEntity
  8
Layer_1
 62
7
100
AcDbSpline
 70
8
 71
3
 72
8
 73
4
 74
0
 40
0
 40
0
 40
0
 40
0
 40
1
 40
1
 40
1
 40
1
 10
494.875884
 20
506.426613
 30
0.0
 10
493.698884
 20
483.410233
 30
0.0
 10
485.316498
 20
460.693626
 30
0.0
 10
469.725859
 20
441.901611
 30
0.0
  0
SPLINE
  5
135
100
AcDbEntity
  8
Layer_1
 62
7
100
AcDbSpline
 70
8
 71
3
 72
8
 73
4
 74
0
 40
0
 40
0
 40
0
 40
0
 40
1
 40
1
 40
1
 40
1
 10
469.725859
 20
441.901611
 30
0.0
 10
451.135883
 20
456.969255
 30
0.0
 10
429.434086
 20
466.353657
 30
0.0
 10
406.950907
 20
470.051602
 30
0.0
  0
SPLINE
  5
136
100
AcDbEntity
  8
Layer_1
 62
7
100
AcDbSpline
 70
8
 71
3
 72
8
 73
4
 74
0
 40
0
 40
0
 40
0
 40
0
 40
1
 40
1
 40
1
 40
1
 10
406.950907
 20
470.051602
 30
0.0
 10
420.173074
 20
488.532239
 30
0.0
 10
428.857330
 20
510.462222
 30
0.0
 10
431.350871
 20
534.226567
 30
0.0
  0
LWPOLYLINE
  5
137
100
AcDbEntity
  8
Layer_1
 62
7
100
AcDbPolyline
 90
2
 70
0
 10
163.050905
 20
534.226567
 30
0.0
 10
163.050905
 20
534.226567
 30
0.0
  0
SPLINE
  5
138
100
AcDbEntity
  8
Layer_1
 62
7
100
AcDbSpline
 70
8
 71
3
 72
8
 73
4
 74
0
 40
0
 40
0
 40
0
 40
0
 40
1
 40
1
 40
1
 40
1
 10
187.950905
 20
533.726573
 30
0.0
 10
212.058178
 20
530.560011
 30
0.0
 10
233.653517
 20
519.667656
 30
0.0
 10
250.200919
 20
503.601561
 30
0.0
  0
SPLINE
  5
139
100
AcDbEntity
  8
Layer_1
 62
7
100
AcDbSpline
 70
8
 71
3
 72
8
 73
4
 74
0
 40
0
 40
0
 40
0
 40
0
 40
1
 40
1
 40
1
 40
1
 10
250.200919
 20
503.601561
 30
0.0
 10
251.072554
 20
489.594867
 30
0.0
 10
254.097478
 20
475.703594
 30
0.0
 10
259.300929
 20
462.476604
 30
0.0
  0
SPLINE
  5
13a
100
AcDbEntity
  8
Layer_1
 62
7
100
AcDbSpline
 70
8
 71
3
 72
8
 73
4
 74
0
 40
0
 40
0
 40
0
 40
0
 40
1
 40
1
 40
1
 40
1
 10
259.300929
 20
462.476604
 30
0.0
 10
246.068345
 20
467.683270
 30
0.0
 10
232.163894
 20
470.705538
 30
0.0
 10
218.150901
 20
471.576613
 30
0.0
  0
SPLINE
  5
13b
100
AcDbEntity
  8
Layer_1
 62
7
100
AcDbSpline
 70
8
 71
3
 72
8
 73
4
 74
0
 40
0
 40
0
 40
0
 40
0
 40
1
 40
1
 40
1
 40
1
 10
218.150901
 20
471.576613
 30
0.0
 10
202.064134
 20
488.100687
 30
0.0
 10
191.141375
 20
509.678464
 30
0.0
 10
187.950905
 20
533.726573
 30
0.0
  0
LWPOLYLINE
  5
13c
100
AcDbEntity
  8
Layer_1
 62
7
100
AcDbPolyline
 90
2
 70
0
 10
431.350871
 20
534.226567
 30
0.0
 10
431.350871
 20
534.226567
 30
0.0
  0
SPLINE
  5
13d
100
AcDbEntity
  8
Layer_1
 62
7
100
AcDbSpline
 70
8
 71
3
 72
8
 73
4
 74
0
 40
0
 40
0
 40
0
 40
0
 40
1
 40
1
 40
1
 40
1
 10
406.450912
 20
533.726573
 30
0.0
 10
403.260093
 20
509.675878
 30
0.0
 10
392.340542
 20
488.101386
 30
0.0
 10
376.250888
 20
471.576613
 30
0.0
  0
SPLINE
  5
13e
100
AcDbEntity
  8
Layer_1
 62
7
100
AcDbSpline
 70
8
 71
3
 72
8
 73
4
 74
0
 40
0
 40
0
 40
0
 40
0
 40
1
 40
1
 40
1
 40
1
 10
376.250888
 20
471.576613
 30
0.0
 10
362.201269
 20
470.685963
 30
0.0
 10
348.269589
 20
467.604552
 30
0.0
 10
335.000862
 20
462.351605
 30
0.0
  0
SPLINE
  5
13f
100
AcDbEntity
  8
Layer_1
 62
7
100
AcDbSpline
 70
8
 71
3
 72
8
 73
4
 74
0
 40
0
 40
0
 40
0
 40
0
 40
1
 40
1
 40
1
 40
1
 10
335.000862
 20
462.351605
 30
0.0
 10
340.255766
 20
475.625156
 30
0.0
 10
343.311521
 20
489.571797
 30
0.0
 10
344.200912
 20
503.626589
 30
0.0
  0
SPLINE
  5
140
100
AcDbEntity
  8
Layer_1
 62
7
100
AcDbSpline
 70
8
 71
3
 72
8
 73
4
 74
0
 40
0
 40
0
 40
0
 40
0
 40
1
 40
1
 40
1
 40
1
 10
344.200912
 20
503.626589
 30
0.0
 10
360.746658
 20
519.685902
 30
0.0
 10
382.349743
 20
530.560850
 30
0.0
 10
406.450912
 20
533.726573
 30
0.0
  0
LWPOLYLINE
  5
141
100
AcDbEntity
  8
Layer_1
 62
7
100
AcDbPolyline
 90
2
 70
0
 10
187.950905
 20
533.726573
 30
0.0
 10
187.950905
 20
533.726573
 30
0.0
  0
SPLINE
  5
142
100
AcDbEntity
  8
Layer_1
 62
7
100
AcDbSpline
 70
8
 71
3
 72
8
 73
4
 74
0
 40
0
 40
0
 40
0
 40
0
 40
1
 40
1
 40
1
 40
1
 10
515.950871
 20
480.726608
 30
0.0
 10
525.693841
 20
464.290272
 30
0.0
 10
531.275853
 20
445.085090
 30
0.0
 10
531.275853
 20
424.551624
 30
0.0
  0
SPLINE
  5
143
100
AcDbEntity
  8
Layer_1
 62
7
100
AcDbSpline
 70
8
 71
3
 72
8
 73
4
 74
0
 40
0
 40
0
 40
0
 40
0
 40
1
 40
1
 40
1
 40
1
 10
531.275853
 20
424.551624
 30
0.0
 10
531.275853
 20
404.030462
 30
0.0
 10
525.708033
 20
384.856390
 30
0.0
 10
515.975899
 20
368.426625
 30
0.0
  0
SPLINE
  5
144
100
AcDbEntity
  8
Layer_1
 62
7
100
AcDbSpline
 70
8
 71
3
 72
8
 73
4
 74
0
 40
0
 40
0
 40
0
 40
0
 40
1
 40
1
 40
1
 40
1
 10
515.975899
 20
368.426625
 30
0.0
 10
511.176317
 20
388.661367
 30
0.0
 10
501.673976
 20
407.983787
 30
0.0
 10
487.450912
 20
424.626567
 30
0.0
  0
SPLINE
  5
145
100
AcDbEntity
  8
Layer_1
 62
7
100
AcDbSpline
 70
8
 71
3
 72
8
 73
4
 74
0
 40
0
 40
0
 40
0
 40
0
 40
1
 40
1
 40
1
 40
1
 10
487.450912
 20
424.626567
 30
0.0
 10
501.647341
 20
441.253548
 30
0.0
 10
511.142201
 20
460.546955
 30
0.0
 10
515.950871
 20
480.726608
 30
0.0
  0
LWPOLYLINE
  5
146
100
AcDbEntity
  8
Layer_1
 62
7
100
AcDbPolyline
 90
2
 70
0
 10
406.450912
 20
533.726573
 30
0.0
 10
406.450912
 20
533.726573
 30
0.0
  0
SPLINE
  5
147
100
AcDbEntity
  8
Layer_1
 62
7
100
AcDbSpline
 70
8
 71
3
 72
8
 73
4
 74
0
 40
0
 40
0
 40
0
 40
0
 40
1
 40
1
 40
1
 40
1
 10
78.425904
 20
480.701441
 30
0.0
 10
83.225389
 20
460.467048
 30
0.0
 10
92.728253
 20
441.144069
 30
0.0
 10
106.950905
 20
424.501429
 30
0.0
  0
SPLINE
  5
148
100
AcDbEntity
  8
Layer_1
 62
7
100
AcDbSpline
 70
8
 71
3
 72
8
 73
4
 74
0
 40
0
 40
0
 40
0
 40
0
 40
1
 40
1
 40
1
 40
1
 10
106.950905
 20
424.501429
 30
0.0
 10
92.743501
 20
407.861655
 30
0.0
 10
83.256072
 20
388.573071
 30
0.0
 10
78.450904
 20
368.376430
 30
0.0
  0
SPLINE
  5
149
100
AcDbEntity
  8
Layer_1
 62
7
100
AcDbSpline
 70
8
 71
3
 72
8
 73
4
 74
0
 40
0
 40
0
 40
0
 40
0
 40
1
 40
1
 40
1
 40
1
 10
78.450904
 20
368.376430
 30
0.0
 10
68.701118
 20
384.816891
 30
0.0
 10
63.125908
 20
404.010258
 30
0.0
 10
63.125908
 20
424.551484
 30
0.0
  0
SPLINE
  5
14a
100
AcDbEntity
  8
Layer_1
 62
7
100
AcDbSpline
 70
8
 71
3
 72
8
 73
4
 74
0
 40
0
 40
0
 40
0
 40
0
 40
1
 40
1
 40
1
 40
1
 10
63.125908
 20
424.551484
 30
0.0
 10
63.125908
 20
445.072646
 30
0.0
 10
68.693757
 20
464.271676
 30
0.0
 10
78.425904
 20
480.701441
 30
0.0
  0
LWPOLYLINE
  5
14b
100
AcDbEntity
  8
Layer_1
 62
7
100
AcDbPolyline
 90
2
 70
0
 10
515.950871
 20
480.726608
 30
0.0
 10
515.950871
 20
480.726608
 30
0.0
  0
SPLINE
  5
14c
100
AcDbEntity
  8
Layer_1
 62
7
100
AcDbSpline
 70
8
 71
3
 72
8
 73
4
 74
0
 40
0
 40
0
 40
0
 40
0
 40
1
 40
1
 40
1
 40
1
 10
208.050903
 20
447.226425
 30
0.0
 10
218.585887
 20
437.921930
 30
0.0
 10
230.571518
 20
430.230251
 30
0.0
 10
243.625909
 20
424.551484
 30
0.0
  0
SPLINE
  5
14d
100
AcDbEntity
  8
Layer_1
 62
7
100
AcDbSpline
 70
8
 71
3
 72
8
 73
4
 74
0
 40
0
 40
0
 40
0
 40
0
 40
1
 40
1
 40
1
 40
1
 10
243.625909
 20
424.551484
 30
0.0
 10
230.580243
 20
418.875303
 30
0.0
 10
218.580392
 20
411.223823
 30
0.0
 10
208.050903
 20
401.926458
 30
0.0
  0
SPLINE
  5
14e
100
AcDbEntity
  8
Layer_1
 62
7
100
AcDbSpline
 70
8
 71
3
 72
8
 73
4
 74
0
 40
0
 40
0
 40
0
 40
0
 40
1
 40
1
 40
1
 40
1
 10
208.050903
 20
401.926458
 30
0.0
 10
185.007510
 20
402.273141
 30
0.0
 10
162.048910
 20
409.834997
 30
0.0
 10
142.775902
 20
424.626427
 30
0.0
  0
SPLINE
  5
14f
100
AcDbEntity
  8
Layer_1
 62
7
100
AcDbSpline
 70
8
 71
3
 72
8
 73
4
 74
0
 40
0
 40
0
 40
0
 40
0
 40
1
 40
1
 40
1
 40
1
 10
142.775902
 20
424.626427
 30
0.0
 10
162.036046
 20
439.373116
 30
0.0
 10
184.992800
 20
446.917634
 30
0.0
 10
208.050903
 20
447.226425
 30
0.0
  0
LWPOLYLINE
  5
150
100
AcDbEntity
  8
Layer_1
 62
7
100
AcDbPolyline
 90
2
 70
0
 10
78.425904
 20
480.701441
 30
0.0
 10
78.425904
 20
480.701441
 30
0.0
  0
SPLINE
  5
151
100
AcDbEntity
  8
Layer_1
 62
7
100
AcDbSpline
 70
8
 71
3
 72
8
 73
4
 74
0
 40
0
 40
0
 40
0
 40
0
 40
1
 40
1
 40
1
 40
1
 10
386.350886
 20
447.226425
 30
0.0
 10
409.400684
 20
446.879743
 30
0.0
 10
432.374559
 20
439.300969
 30
0.0
 10
451.650908
 20
424.501429
 30
0.0
  0
SPLINE
  5
152
100
AcDbEntity
  8
Layer_1
 62
7
100
AcDbSpline
 70
8
 71
3
 72
8
 73
4
 74
0
 40
0
 40
0
 40
0
 40
0
 40
1
 40
1
 40
1
 40
1
 10
451.650908
 20
424.501429
 30
0.0
 10
432.390009
 20
409.752923
 30
0.0
 10
409.410471
 20
402.235320
 30
0.0
 10
386.350886
 20
401.926458
 30
0.0
  0
SPLINE
  5
153
100
AcDbEntity
  8
Layer_1
 62
7
100
AcDbSpline
 70
8
 71
3
 72
8
 73
4
 74
0
 40
0
 40
0
 40
0
 40
0
 40
1
 40
1
 40
1
 40
1
 10
386.350886
 20
401.926458
 30
0.0
 10
375.821432
 20
411.223823
 30
0.0
 10
363.821567
 20
418.875303
 30
0.0
 10
350.775922
 20
424.551484
 30
0.0
  0
SPLINE
  5
154
100
AcDbEntity
  8
Layer_1
 62
7
100
AcDbSpline
 70
8
 71
3
 72
8
 73
4
 74
0
 40
0
 40
0
 40
0
 40
0
 40
1
 40
1
 40
1
 40
1
 10
350.775922
 20
424.551484
 30
0.0
 10
363.830306
 20
430.230251
 30
0.0
 10
375.815910
 20
437.921930
 30
0.0
 10
386.350886
 20
447.226425
 30
0.0
  0
LWPOLYLINE
  5
155
100
AcDbEntity
  8
Layer_1
 62
7
100
AcDbPolyline
 90
2
 70
0
 10
208.050903
 20
447.226425
 30
0.0
 10
208.050903
 20
447.226425
 30
0.0
  0
SPLINE
  5
156
100
AcDbEntity
  8
Layer_1
 62
7
100
AcDbSpline
 70
8
 71
3
 72
8
 73
4
 74
0
 40
0
 40
0
 40
0
 40
0
 40
1
 40
1
 40
1
 40
1
 10
469.600861
 20
407.251483
 30
0.0
 10
485.254977
 20
388.430175
 30
0.0
 10
493.670011
 20
365.699446
 30
0.0
 10
494.875884
 20
342.676494
 30
0.0
  0
SPLINE
  5
157
100
AcDbEntity
  8
Layer_1
 62
7
100
AcDbSpline
 70
8
 71
3
 72
8
 73
4
 74
0
 40
0
 40
0
 40
0
 40
0
 40
1
 40
1
 40
1
 40
1
 10
494.875884
 20
342.676494
 30
0.0
 10
477.745554
 20
327.256575
 30
0.0
 10
455.721892
 20
317.140428
 30
0.0
 10
431.350871
 20
314.901429
 30
0.0
  0
SPLINE
  5
158
100
AcDbEntity
  8
Layer_1
 62
7
100
AcDbSpline
 70
8
 71
3
 72
8
 73
4
 74
0
 40
0
 40
0
 40
0
 40
0
 40
1
 40
1
 40
1
 40
1
 10
431.350871
 20
314.901429
 30
0.0
 10
428.855303
 20
338.685138
 30
0.0
 10
420.166153
 20
360.636444
 30
0.0
 10
406.925879
 20
379.126449
 30
0.0
  0
SPLINE
  5
159
100
AcDbEntity
  8
Layer_1
 62
7
100
AcDbSpline
 70
8
 71
3
 72
8
 73
4
 74
0
 40
0
 40
0
 40
0
 40
0
 40
1
 40
1
 40
1
 40
1
 10
406.925879
 20
379.126449
 30
0.0
 10
429.355297
 20
382.840263
 30
0.0
 10
451.024028
 20
392.203903
 30
0.0
 10
469.600861
 20
407.251483
 30
0.0
  0
LWPOLYLINE
  5
15a
100
AcDbEntity
  8
Layer_1
 62
7
100
AcDbPolyline
 90
2
 70
0
 10
386.350886
 20
447.226425
 30
0.0
 10
386.350886
 20
447.226425
 30
0.0
  0
SPLINE
  5
15b
100
AcDbEntity
  8
Layer_1
 62
7
100
AcDbSpline
 70
8
 71
3
 72
8
 73
4
 74
0
 40
0
 40
0
 40
0
 40
0
 40
1
 40
1
 40
1
 40
1
 10
124.675902
 20
407.226315
 30
0.0
 10
143.266011
 20
392.158461
 30
0.0
 10
164.992585
 20
382.799296
 30
0.0
 10
187.475903
 20
379.101351
 30
0.0
  0
SPLINE
  5
15c
100
AcDbEntity
  8
Layer_1
 62
7
100
AcDbSpline
 70
8
 71
3
 72
8
 73
4
 74
0
 40
0
 40
0
 40
0
 40
0
 40
1
 40
1
 40
1
 40
1
 10
187.475903
 20
379.101351
 30
0.0
 10
174.242781
 20
360.614912
 30
0.0
 10
165.545654
 20
338.677448
 30
0.0
 10
163.050905
 20
314.901289
 30
0.0
  0
SPLINE
  5
15d
100
AcDbEntity
  8
Layer_1
 62
7
100
AcDbSpline
 70
8
 71
3
 72
8
 73
4
 74
0
 40
0
 40
0
 40
0
 40
0
 40
1
 40
1
 40
1
 40
1
 10
163.050905
 20
314.901289
 30
0.0
 10
138.683421
 20
317.141896
 30
0.0
 10
116.654159
 20
327.258323
 30
0.0
 10
99.525905
 20
342.676355
 30
0.0
  0
SPLINE
  5
15e
100
AcDbEntity
  8
Layer_1
 62
7
100
AcDbSpline
 70
8
 71
3
 72
8
 73
4
 74
0
 40
0
 40
0
 40
0
 40
0
 40
1
 40
1
 40
1
 40
1
 10
99.525905
 20
342.676355
 30
0.0
 10
100.693803
 20
365.705109
 30
0.0
 10
109.079314
 20
388.423254
 30
0.0
 10
124.675902
 20
407.226315
 30
0.0
  0
LWPOLYLINE
  5
15f
100
AcDbEntity
  8
Layer_1
 62
7
100
AcDbPolyline
 90
2
 70
0
 10
469.600861
 20
407.251483
 30
0.0
 10
469.600861
 20
407.251483
 30
0.0
  0
SPLINE
  5
160
100
AcDbEntity
  8
Layer_1
 62
7
100
AcDbSpline
 70
8
 71
3
 72
8
 73
4
 74
0
 40
0
 40
0
 40
0
 40
0
 40
1
 40
1
 40
1
 40
1
 10
259.400900
 20
386.776321
 30
0.0
 10
254.148512
 20
373.508363
 30
0.0
 10
251.091429
 20
359.575004
 30
0.0
 10
250.200919
 20
345.526295
 30
0.0
  0
SPLINE
  5
161
100
AcDbEntity
  8
Layer_1
 62
7
100
AcDbSpline
 70
8
 71
3
 72
8
 73
4
 74
0
 40
0
 40
0
 40
0
 40
0
 40
1
 40
1
 40
1
 40
1
 10
250.200919
 20
345.526295
 30
0.0
 10
233.653517
 20
329.460270
 30
0.0
 10
212.058178
 20
318.567845
 30
0.0
 10
187.950905
 20
315.401353
 30
0.0
  0
SPLINE
  5
162
100
AcDbEntity
  8
Layer_1
 62
7
100
AcDbSpline
 70
8
 71
3
 72
8
 73
4
 74
0
 40
0
 40
0
 40
0
 40
0
 40
1
 40
1
 40
1
 40
1
 10
187.950905
 20
315.401353
 30
0.0
 10
191.141375
 20
339.449461
 30
0.0
 10
202.064134
 20
361.027239
 30
0.0
 10
218.150901
 20
377.551313
 30
0.0
  0
SPLINE
  5
163
100
AcDbEntity
  8
Layer_1
 62
7
100
AcDbSpline
 70
8
 71
3
 72
8
 73
4
 74
0
 40
0
 40
0
 40
0
 40
0
 40
1
 40
1
 40
1
 40
1
 10
218.150901
 20
377.551313
 30
0.0
 10
232.198381
 20
378.440145
 30
0.0
 10
246.133571
 20
381.526520
 30
0.0
 10
259.400900
 20
386.776321
 30
0.0
  0
LWPOLYLINE
  5
164
100
AcDbEntity
  8
Layer_1
 62
7
100
AcDbPolyline
 90
2
 70
0
 10
124.675902
 20
407.226315
 30
0.0
 10
124.675902
 20
407.226315
 30
0.0
  0
SPLINE
  5
165
100
AcDbEntity
  8
Layer_1
 62
7
100
AcDbSpline
 70
8
 71
3
 72
8
 73
4
 74
0
 40
0
 40
0
 40
0
 40
0
 40
1
 40
1
 40
1
 40
1
 10
335.075875
 20
386.676350
 30
0.0
 10
348.320553
 20
381.459966
 30
0.0
 10
362.223710
 20
378.423227
 30
0.0
 10
376.250888
 20
377.551313
 30
0.0
  0
SPLINE
  5
166
100
AcDbEntity
  8
Layer_1
 62
7
100
AcDbSpline
 70
8
 71
3
 72
8
 73
4
 74
0
 40
0
 40
0
 40
0
 40
0
 40
1
 40
1
 40
1
 40
1
 10
376.250888
 20
377.551313
 30
0.0
 10
392.340542
 20
361.026540
 30
0.0
 10
403.260093
 20
339.452048
 30
0.0
 10
406.450912
 20
315.401353
 30
0.0
  0
SPLINE
  5
167
100
AcDbEntity
  8
Layer_1
 62
7
100
AcDbSpline
 70
8
 71
3
 72
8
 73
4
 74
0
 40
0
 40
0
 40
0
 40
0
 40
1
 40
1
 40
1
 40
1
 10
406.450912
 20
315.401353
 30
0.0
 10
382.362117
 20
318.565468
 30
0.0
 10
360.768330
 20
329.430488
 30
0.0
 10
344.225870
 20
345.476309
 30
0.0
  0
SPLINE
  5
168
100
AcDbEntity
  8
Layer_1
 62
7
100
AcDbSpline
 70
8
 71
3
 72
8
 73
4
 74
0
 40
0
 40
0
 40
0
 40
0
 40
1
 40
1
 40
1
 40
1
 10
344.225870
 20
345.476309
 30
0.0
 10
343.357661
 20
359.510478
 30
0.0
 10
340.292749
 20
373.424681
 30
0.0
 10
335.075875
 20
386.676350
 30
0.0
  0
LWPOLYLINE
  5
169
100
AcDbEntity
  8
Layer_1
 62
7
100
AcDbPolyline
 90
2
 70
0
 10
259.400900
 20
386.776321
 30
0.0
 10
259.400900
 20
386.776321
 30
0.0
  0
SPLINE
  5
16a
100
AcDbEntity
  8
Layer_1
 62
7
100
AcDbSpline
 70
8
 71
3
 72
8
 73
4
 74
0
 40
0
 40
0
 40
0
 40
0
 40
1
 40
1
 40
1
 40
1
 10
297.200881
 20
371.101301
 30
0.0
 10
302.867414
 20
358.011054
 30
0.0
 10
310.550913
 20
345.986371
 30
0.0
 10
319.850864
 20
335.426296
 30
0.0
  0
SPLINE
  5
16b
100
AcDbEntity
  8
Layer_1
 62
7
100
AcDbSpline
 70
8
 71
3
 72
8
 73
4
 74
0
 40
0
 40
0
 40
0
 40
0
 40
1
 40
1
 40
1
 40
1
 10
319.850864
 20
335.426296
 30
0.0
 10
319.544240
 20
312.363076
 30
0.0
 10
312.026777
 20
289.390250
 30
0.0
 10
297.275894
 20
270.126344
 30
0.0
  0
SPLINE
  5
16c
100
AcDbEntity
  8
Layer_1
 62
7
100
AcDbSpline
 70
8
 71
3
 72
8
 73
4
 74
0
 40
0
 40
0
 40
0
 40
0
 40
1
 40
1
 40
1
 40
1
 10
297.275894
 20
270.126344
 30
0.0
 10
282.462931
 20
289.414718
 30
0.0
 10
274.890659
 20
312.385168
 30
0.0
 10
274.550897
 20
335.451324
 30
0.0
  0
SPLINE
  5
16d
100
AcDbEntity
  8
Layer_1
 62
7
100
AcDbSpline
 70
8
 71
3
 72
8
 73
4
 74
0
 40
0
 40
0
 40
0
 40
0
 40
1
 40
1
 40
1
 40
1
 10
274.550897
 20
335.451324
 30
0.0
 10
283.843858
 20
346.006295
 30
0.0
 10
291.537144
 20
358.019303
 30
0.0
 10
297.200881
 20
371.101301
 30
0.0
  0
LWPOLYLINE
  5
16e
100
AcDbEntity
  8
Layer_1
 62
7
100
AcDbPolyline
 90
2
 70
0
 10
335.075875
 20
386.676350
 30
0.0
 10
335.075875
 20
386.676350
 30
0.0
  0
SPLINE
  5
16f
100
AcDbEntity
  8
Layer_1
 62
7
100
AcDbSpline
 70
8
 71
3
 72
8
 73
4
 74
0
 40
0
 40
0
 40
0
 40
0
 40
1
 40
1
 40
1
 40
1
 10
342.650874
 20
314.801318
 30
0.0
 10
361.156399
 20
301.525111
 30
0.0
 10
383.137975
 20
292.819881
 30
0.0
 10
406.925879
 20
290.326341
 30
0.0
  0
SPLINE
  5
170
100
AcDbEntity
  8
Layer_1
 62
7
100
AcDbSpline
 70
8
 71
3
 72
8
 73
4
 74
0
 40
0
 40
0
 40
0
 40
0
 40
1
 40
1
 40
1
 40
1
 10
406.925879
 20
290.326341
 30
0.0
 10
404.663460
 20
265.994679
 30
0.0
 10
394.536477
 20
243.991081
 30
0.0
 10
379.075870
 20
226.876341
 30
0.0
  0
SPLINE
  5
171
100
AcDbEntity
  8
Layer_1
 62
7
100
AcDbSpline
 70
8
 71
3
 72
8
 73
4
 74
0
 40
0
 40
0
 40
0
 40
0
 40
1
 40
1
 40
1
 40
1
 10
379.075870
 20
226.876341
 30
0.0
 10
356.061378
 20
228.086967
 30
0.0
 10
333.340436
 20
236.527868
 30
0.0
 10
314.525910
 20
252.176322
 30
0.0
  0
SPLINE
  5
172
100
AcDbEntity
  8
Layer_1
 62
7
100
AcDbSpline
 70
8
 71
3
 72
8
 73
4
 74
0
 40
0
 40
0
 40
0
 40
0
 40
1
 40
1
 40
1
 40
1
 10
314.525910
 20
252.176322
 30
0.0
 10
329.566569
 20
270.745325
 30
0.0
 10
338.934123
 20
292.382316
 30
0.0
 10
342.650874
 20
314.801318
 30
0.0
  0
LWPOLYLINE
  5
173
100
AcDbEntity
  8
Layer_1
 62
7
100
AcDbPolyline
 90
2
 70
0
 10
297.200881
 20
371.101301
 30
0.0
 10
297.200881
 20
371.101301
 30
0.0
  0
SPLINE
  5
174
100
AcDbEntity
  8
Layer_1
 62
7
100
AcDbSpline
 70
8
 71
3
 72
8
 73
4
 74
0
 40
0
 40
0
 40
0
 40
0
 40
1
 40
1
 40
1
 40
1
 10
251.725930
 20
314.776151
 30
0.0
 10
255.429538
 20
292.309750
 30
0.0
 10
264.818344
 20
270.603129
 30
0.0
 10
279.875921
 20
252.026156
 30
0.0
  0
SPLINE
  5
175
100
AcDbEntity
  8
Layer_1
 62
7
100
AcDbSpline
 70
8
 71
3
 72
8
 73
4
 74
0
 40
0
 40
0
 40
0
 40
0
 40
1
 40
1
 40
1
 40
1
 10
279.875921
 20
252.026156
 30
0.0
 10
261.079502
 20
236.436496
 30
0.0
 10
238.345767
 20
228.048167
 30
0.0
 10
215.325898
 20
226.876201
 30
0.0
  0
SPLINE
  5
176
100
AcDbEntity
  8
Layer_1
 62
7
100
AcDbSpline
 70
8
 71
3
 72
8
 73
4
 74
0
 40
0
 40
0
 40
0
 40
0
 40
1
 40
1
 40
1
 40
1
 10
215.325898
 20
226.876201
 30
0.0
 10
199.866116
 20
243.990732
 30
0.0
 10
189.738287
 20
265.995308
 30
0.0
 10
187.475903
 20
290.326201
 30
0.0
  0
SPLINE
  5
177
100
AcDbEntity
  8
Layer_1
 62
7
100
AcDbSpline
 70
8
 71
3
 72
8
 73
4
 74
0
 40
0
 40
0
 40
0
 40
0
 40
1
 40
1
 40
1
 40
1
 10
187.475903
 20
290.326201
 30
0.0
 10
211.252741
 20
292.818134
 30
0.0
 10
233.225571
 20
301.510919
 30
0.0
 10
251.725930
 20
314.776151
 30
0.0
  0
LWPOLYLINE
  5
178
100
AcDbEntity
  8
Layer_1
 62
7
100
AcDbPolyline
 90
2
 70
0
 10
342.650874
 20
314.801318
 30
0.0
 10
342.650874
 20
314.801318
 30
0.0
  0
SPLINE
  5
179
100
AcDbEntity
  8
Layer_1
 62
7
100
AcDbSpline
 70
8
 71
3
 72
8
 73
4
 74
0
 40
0
 40
0
 40
0
 40
0
 40
1
 40
1
 40
1
 40
1
 10
491.600893
 20
309.576195
 30
0.0
 10
486.866047
 20
291.072348
 30
0.0
 10
477.239757
 20
273.565064
 30
0.0
 10
462.725868
 20
259.051175
 30
0.0
  0
SPLINE
  5
17a
100
AcDbEntity
  8
Layer_1
 62
7
100
AcDbSpline
 70
8
 71
3
 72
8
 73
4
 74
0
 40
0
 40
0
 40
0
 40
0
 40
1
 40
1
 40
1
 40
1
 10
462.725868
 20
259.051175
 30
0.0
 10
448.208553
 20
244.533791
 30
0.0
 10
430.684631
 20
234.909807
 30
0.0
 10
412.175890
 20
230.176220
 30
0.0
  0
SPLINE
  5
17b
100
AcDbEntity
  8
Layer_1
 62
7
100
AcDbSpline
 70
8
 71
3
 72
8
 73
4
 74
0
 40
0
 40
0
 40
0
 40
0
 40
1
 40
1
 40
1
 40
1
 10
412.175890
 20
230.176220
 30
0.0
 10
423.047203
 20
247.848700
 30
0.0
 10
429.958339
 20
268.201240
 30
0.0
 10
431.675881
 20
290.001191
 30
0.0
  0
SPLINE
  5
17c
100
AcDbEntity
  8
Layer_1
 62
7
100
AcDbSpline
 70
8
 71
3
 72
8
 73
4
 74
0
 40
0
 40
0
 40
0
 40
0
 40
1
 40
1
 40
1
 40
1
 10
431.675881
 20
290.001191
 30
0.0
 10
453.508480
 20
291.710554
 30
0.0
 10
473.894157
 20
298.657833
 30
0.0
 10
491.600893
 20
309.576195
 30
0.0
  0
LWPOLYLINE
  5
17d
100
AcDbEntity
  8
Layer_1
 62
7
100
AcDbPolyline
 90
2
 70
0
 10
251.725930
 20
314.776151
 30
0.0
 10
251.725930
 20
314.776151
 30
0.0
  0
SPLINE
  5
17e
100
AcDbEntity
  8
Layer_1
 62
7
100
AcDbSpline
 70
8
 71
3
 72
8
 73
4
 74
0
 40
0
 40
0
 40
0
 40
0
 40
1
 40
1
 40
1
 40
1
 10
102.875902
 20
309.525860
 30
0.0
 10
120.558611
 20
298.638608
 30
0.0
 10
140.933536
 20
291.710764
 30
0.0
 10
162.725901
 20
290.000842
 30
0.0
  0
SPLINE
  5
17f
100
AcDbEntity
  8
Layer_1
 62
7
100
AcDbSpline
 70
8
 71
3
 72
8
 73
4
 74
0
 40
0
 40
0
 40
0
 40
0
 40
1
 40
1
 40
1
 40
1
 10
162.725901
 20
290.000842
 30
0.0
 10
164.441906
 20
268.220395
 30
0.0
 10
171.346400
 20
247.887290
 30
0.0
 10
182.200900
 20
230.225856
 30
0.0
  0
SPLINE
  5
180
100
AcDbEntity
  8
Layer_1
 62
7
100
AcDbSpline
 70
8
 71
3
 72
8
 73
4
 74
0
 40
0
 40
0
 40
0
 40
0
 40
1
 40
1
 40
1
 40
1
 10
182.200900
 20
230.225856
 30
0.0
 10
163.750310
 20
234.985450
 30
0.0
 10
146.254659
 20
244.622086
 30
0.0
 10
131.750907
 20
259.125839
 30
0.0
  0
SPLINE
  5
181
100
AcDbEntity
  8
Layer_1
 62
7
100
AcDbSpline
 70
8
 71
3
 72
8
 73
4
 74
0
 40
0
 40
0
 40
0
 40
0
 40
1
 40
1
 40
1
 40
1
 10
131.750907
 20
259.125839
 30
0.0
 10
117.254076
 20
273.622670
 30
0.0
 10
107.637908
 20
291.085002
 30
0.0
 10
102.875902
 20
309.525860
 30
0.0
  0
LWPOLYLINE
  5
182
100
AcDbEntity
  8
Layer_1
 62
7
100
AcDbPolyline
 90
2
 70
0
 10
491.600893
 20
309.576195
 30
0.0
 10
491.600893
 20
309.576195
 30
0.0
  0
SPLINE
  5
183
100
AcDbEntity
  8
Layer_1
 62
7
100
AcDbSpline
 70
8
 71
3
 72
8
 73
4
 74
0
 40
0
 40
0
 40
0
 40
0
 40
1
 40
1
 40
1
 40
1
 10
297.125868
 20
234.325851
 30
0.0
 10
313.747745
 20
220.120684
 30
0.0
 10
333.068906
 20
210.631207
 30
0.0
 10
353.275894
 20
205.825822
 30
0.0
  0
SPLINE
  5
184
100
AcDbEntity
  8
Layer_1
 62
7
100
AcDbSpline
 70
8
 71
3
 72
8
 73
4
 74
0
 40
0
 40
0
 40
0
 40
0
 40
1
 40
1
 40
1
 40
1
 10
353.275894
 20
205.825822
 30
0.0
 10
336.865564
 20
196.147799
 30
0.0
 10
317.708970
 20
190.575853
 30
0.0
 10
297.200881
 20
190.575853
 30
0.0
  0
SPLINE
  5
185
100
AcDbEntity
  8
Layer_1
 62
7
100
AcDbSpline
 70
8
 71
3
 72
8
 73
4
 74
0
 40
0
 40
0
 40
0
 40
0
 40
1
 40
1
 40
1
 40
1
 10
297.200881
 20
190.575853
 30
0.0
 10
276.677411
 20
190.575853
 30
0.0
 10
257.494391
 20
196.134306
 30
0.0
 10
241.075882
 20
205.825822
 30
0.0
  0
SPLINE
  5
186
100
AcDbEntity
  8
Layer_1
 62
7
100
AcDbSpline
 70
8
 71
3
 72
8
 73
4
 74
0
 40
0
 40
0
 40
0
 40
0
 40
1
 40
1
 40
1
 40
1
 10
241.075882
 20
205.825822
 30
0.0
 10
261.239246
 20
210.635332
 30
0.0
 10
280.510073
 20
220.143055
 30
0.0
 10
297.125868
 20
234.325851
 30
0.0
  0
LWPOLYLINE
  5
187
100
AcDbEntity
  8
Layer_1
 62
7
100
AcDbPolyline
 90
2
 70
0
 10
102.875902
 20
309.525860
 30
0.0
 10
102.875902
 20
309.525860
 30
0.0
  0
LWPOLYLINE
  5
188
100
AcDbEntity
  8
Layer_1
 62
7
100
AcDbPolyline
 90
2
 70
0
 10
297.125868
 20
234.325851
 30
0.0
 10
297.125868
 20
234.325851
 30
0.0
  0
ENDSEC
  0
SECTION
  2
OBJECTS
  0
DICTIONARY
  5
C
330
0
100
AcDbDictionary
  3
ACAD_GROUP
350
D
  3
ACAD_MLINESTYLE
350
17
  0
DICTIONARY
  5
D
330
C
100
AcDbDictionary
  0
DICTIONARY
  5
1A
330
C
100
AcDbDictionary
  0
DICTIONARY
  5
17
330
C
100
AcDbDictionary
  3
STANDARD
350
18
  0
DICTIONARY
  5
19
330
C
100
AcDbDictionary
  0
ENDSEC
  0
EOF
