  0
SECTION
  2
HEADER
  9
$ACADVER
  1
AC1014
  9
$HANDSEED
  5
FFFF
  9
$MEASUREMENT
 70
     1
  0
ENDSEC
  0
SECTION
  2
TABLES
  0
TABLE
  2
VPORT
  5
8
330
0
100
AcDbSymbolTable
 70
     4
  0
VPORT
  5
2E
330
8
100
AcDbSymbolTableRecord
100
AcDbViewportTableRecord
  2
*ACTIVE
 70
     0
 10
0.0
 20
0.0
 11
1.0
 21
1.0
 12
210.0
 22
148.5
 13
0.0
 23
0.0
 14
10.0
 24
10.0
 15
10.0
 25
10.0
 16
0.0
 26
0.0
 36
1.0
 17
0.0
 27
0.0
 37
0.0
 40
341.0
 41
1.24
 42
50.0
 43
0.0
 44
0.0
 50
0.0
 51
0.0
 71
     0
 72
   100
 73
     1
 74
     3
 75
     0
 76
     0
 77
     0
 78
     0
  0
ENDTAB
  0
TABLE
  2
LTYPE
  5
5
330
0
100
AcDbSymbolTable
 70
     1
  0
LTYPE
  5
14
330
5
100
AcDbSymbolTableRecord
100
AcDbLinetypeTableRecord
  2
BYBLOCK
 70
     0
  3

 72
    65
 73
     0
 40
0.0
  0
LTYPE
  5
15
330
5
100
AcDbSymbolTableRecord
100
AcDbLinetypeTableRecord
  2
BYLAYER
 70
     0
  3

 72
    65
 73
     0
 40
0.0
  0
LTYPE
  5
16
330
5
100
AcDbSymbolTableRecord
100
AcDbLinetypeTableRecord
  2
CONTINUOUS
 70
     0
  3
Solid line
 72
    65
 73
     0
 40
0.0
  0
ENDTAB
  0
TABLE
  2
LAYER
  5
2
100
AcDbSymbolTable
 70
2
  0
LAYER
  5
50
100
AcDbSymbolTableRecord
100
AcDbLayerTableRecord
  2
0
 70
0
  6
CONTINUOUS
  0
LAYER
  5
51
100
AcDbSymbolTableRecord
100
AcDbLayerTableRecord
  2
Layer_1
 70
0
  6
CONTINUOUS
  0
ENDTAB
  0
TABLE
  2
STYLE
  5
3
330
0
100
AcDbSymbolTable
 70
     1
  0
STYLE
  5
11
330
3
100
AcDbSymbolTableRecord
100
AcDbTextStyleTableRecord
  2
STANDARD
 70
     0
 40
0.0
 41
1.0
 50
0.0
 71
     0
 42
2.5
  3
txt
  4

  0
ENDTAB
  0
TABLE
  2
VIEW
  5
6
330
0
100
AcDbSymbolTable
 70
     0
  0
ENDTAB
  0
TABLE
  2
UCS
  5
7
330
0
100
AcDbSymbolTable
 70
     0
  0
ENDTAB
  0
TABLE
  2
APPID
  5
9
330
0
100
AcDbSymbolTable
 70
     2
  0
APPID
  5
12
330
9
100
AcDbSymbolTableRecord
100
AcDbRegAppTableRecord
  2
ACAD
 70
     0
  0
ENDTAB
  0
TABLE
  2
DIMSTYLE
  5
A
330
0
100
AcDbSymbolTable
 70
     1
  0
DIMSTYLE
105
27
330
A
100
AcDbSymbolTableRecord
100
AcDbDimStyleTableRecord
  2
ISO-25
 70
     0
  3

  4

  5

  6

  7

 40
1.0
 41
2.5
 42
0.625
 43
3.75
 44
1.25
 45
0.0
 46
0.0
 47
0.0
 48
0.0
140
2.5
141
2.5
142
0.0
143
0.03937007874016
144
1.0
145
0.0
146
1.0
147
0.625
 71
     0
 72
     0
 73
     0
 74
     0
 75
     0
 76
     0
 77
     1
 78
     8
170
     0
171
     3
172
     1
173
     0
174
     0
175
     0
176
     0
177
     0
178
     0
270
     2
271
     2
272
     2
273
     2
274
     3
340
11
275
     0
280
     0
281
     0
282
     0
283
     0
284
     8
285
     0
286
     0
287
     3
288
     0
  0
ENDTAB
  0
TABLE
  2
BLOCK_RECORD
  5
1
330
0
100
AcDbSymbolTable
 70
     1
  0
BLOCK_RECORD
  5
1F
330
1
100
AcDbSymbolTableRecord
100
AcDbBlockTableRecord
  2
*MODEL_SPACE
  0
BLOCK_RECORD
  5
1B
330
1
100
AcDbSymbolTableRecord
100
AcDbBlockTableRecord
  2
*PAPER_SPACE
  0
ENDTAB
  0
ENDSEC
  0
SECTION
  2
BLOCKS
  0
BLOCK
  5
20
330
1F
100
AcDbEntity
  8
0
100
AcDbBlockBegin
  2
*MODEL_SPACE
 70
     0
 10
0.0
 20
0.0
 30
0.0
  3
*MODEL_SPACE
  1

  0
ENDBLK
  5
21
330
1F
100
AcDbEntity
  8
0
100
AcDbBlockEnd
  0
BLOCK
  5
1C
330
1B
100
AcDbEntity
 67
     1
  8
0
100
AcDbBlockBegin
  2
*PAPER_SPACE
  1

  0
ENDBLK
  5
1D
330
1B
100
AcDbEntity
 67
     1
  8
0
100
AcDbBlockEnd
  0
ENDSEC
  0
SECTION
  2
ENTITIES
  0
SPLINE
  5
100
100
AcDbEntity
  8
Layer_1
 62
7
100
AcDbSpline
 70
8
 71
3
 72
8
 73
4
 74
0
 40
0
 40
0
 40
0
 40
0
 40
1
 40
1
 40
1
 40
1
 10
298.399971
 20
705.350489
 30
0.0
 10
260.011545
 20
705.350489
 30
0.0
 10
224.657007
 20
691.328624
 30
0.0
 10
197.249974
 20
668.125515
 30
0.0
  0
SPLINE
  5
101
100
AcDbEntity
  8
Layer_1
 62
7
100
AcDbSpline
 70
8
 71
3
 72
8
 73
4
 74
0
 40
0
 40
0
 40
0
 40
0
 40
1
 40
1
 40
1
 40
1
 10
197.249974
 20
668.125515
 30
0.0
 10
161.638461
 20
665.030541
 30
0.0
 10
126.865033
 20
649.940596
 30
0.0
 10
99.724978
 20
622.800521
 30
0.0
  0
SPLINE
  5
102
100
AcDbEntity
  8
Layer_1
 62
7
100
AcDbSpline
 70
8
 71
3
 72
8
 73
4
 74
0
 40
0
 40
0
 40
0
 40
0
 40
1
 40
1
 40
1
 40
1
 10
99.724978
 20
622.800521
 30
0.0
 10
72.569690
 20
595.645205
 30
0.0
 10
57.483192
 20
560.857983
 30
0.0
 10
54.399977
 20
525.225484
 30
0.0
  0
SPLINE
  5
103
100
AcDbEntity
  8
Layer_1
 62
7
100
AcDbSpline
 70
8
 71
3
 72
8
 73
4
 74
0
 40
0
 40
0
 40
0
 40
0
 40
1
 40
1
 40
1
 40
1
 10
54.399977
 20
525.225484
 30
0.0
 10
31.364322
 20
497.843800
 30
0.0
 10
17.424979
 20
462.547426
 30
0.0
 10
17.424979
 20
424.125528
 30
0.0
  0
SPLINE
  5
104
100
AcDbEntity
  8
Layer_1
 62
7
100
AcDbSpline
 70
8
 71
3
 72
8
 73
4
 74
0
 40
0
 40
0
 40
0
 40
0
 40
1
 40
1
 40
1
 40
1
 10
17.424979
 20
424.125528
 30
0.0
 10
17.424979
 20
385.731314
 30
0.0
 10
31.344042
 20
350.473880
 30
0.0
 10
54.349977
 20
323.100516
 30
0.0
  0
SPLINE
  5
105
100
AcDbEntity
  8
Layer_1
 62
7
100
AcDbSpline
 70
8
 71
3
 72
8
 73
4
 74
0
 40
0
 40
0
 40
0
 40
0
 40
1
 40
1
 40
1
 40
1
 10
54.349977
 20
323.100516
 30
0.0
 10
57.326482
 20
287.320576
 30
0.0
 10
72.410212
 20
252.415278
 30
0.0
 10
99.549973
 20
225.275531
 30
0.0
  0
SPLINE
  5
106
100
AcDbEntity
  8
Layer_1
 62
7
100
AcDbSpline
 70
8
 71
3
 72
8
 73
4
 74
0
 40
0
 40
0
 40
0
 40
0
 40
1
 40
1
 40
1
 40
1
 10
99.549973
 20
225.275531
 30
0.0
 10
126.673662
 20
198.151814
 30
0.0
 10
161.542286
 20
183.089553
 30
0.0
 10
197.299973
 20
180.100493
 30
0.0
  0
SPLINE
  5
107
100
AcDbEntity
  8
Layer_1
 62
7
100
AcDbSpline
 70
8
 71
3
 72
8
 73
4
 74
0
 40
0
 40
0
 40
0
 40
0
 40
1
 40
1
 40
1
 40
1
 10
197.299973
 20
180.100493
 30
0.0
 10
224.700330
 20
156.921502
 30
0.0
 10
260.033770
 20
142.900477
 30
0.0
 10
298.399971
 20
142.900477
 30
0.0
  0
SPLINE
  5
108
100
AcDbEntity
  8
Layer_1
 62
7
100
AcDbSpline
 70
8
 71
3
 72
8
 73
4
 74
0
 40
0
 40
0
 40
0
 40
0
 40
1
 40
1
 40
1
 40
1
 10
298.399971
 20
142.900477
 30
0.0
 10
336.782195
 20
142.900477
 30
0.0
 10
372.119787
 20
156.929122
 30
0.0
 10
399.524961
 20
180.125520
 30
0.0
  0
SPLINE
  5
109
100
AcDbEntity
  8
Layer_1
 62
7
100
AcDbSpline
 70
8
 71
3
 72
8
 73
4
 74
0
 40
0
 40
0
 40
0
 40
0
 40
1
 40
1
 40
1
 40
1
 10
399.524961
 20
180.125520
 30
0.0
 10
435.145597
 20
183.215390
 30
0.0
 10
469.928288
 20
198.303798
 30
0.0
 10
497.075005
 20
225.450515
 30
0.0
  0
SPLINE
  5
10a
100
AcDbEntity
  8
Layer_1
 62
7
100
AcDbSpline
 70
8
 71
3
 72
8
 73
4
 74
0
 40
0
 40
0
 40
0
 40
0
 40
1
 40
1
 40
1
 40
1
 10
497.075005
 20
225.450515
 30
0.0
 10
524.240528
 20
252.616058
 30
0.0
 10
539.324684
 20
287.428937
 30
0.0
 10
542.399965
 20
323.075488
 30
0.0
  0
SPLINE
  5
10b
100
AcDbEntity
  8
Layer_1
 62
7
100
AcDbSpline
 70
8
 71
3
 72
8
 73
4
 74
0
 40
0
 40
0
 40
0
 40
0
 40
1
 40
1
 40
1
 40
1
 10
542.399965
 20
323.075488
 30
0.0
 10
565.421644
 20
350.453327
 30
0.0
 10
579.349962
 20
385.716633
 30
0.0
 10
579.349962
 20
424.125528
 30
0.0
  0
SPLINE
  5
10c
100
AcDbEntity
  8
Layer_1
 62
7
100
AcDbSpline
 70
8
 71
3
 72
8
 73
4
 74
0
 40
0
 40
0
 40
0
 40
0
 40
1
 40
1
 40
1
 40
1
 10
579.349962
 20
424.125528
 30
0.0
 10
579.349962
 20
462.517435
 30
0.0
 10
565.428446
 20
497.777875
 30
0.0
 10
542.424922
 20
525.150540
 30
0.0
  0
SPLINE
  5
10d
100
AcDbEntity
  8
Layer_1
 62
7
100
AcDbSpline
 70
8
 71
3
 72
8
 73
4
 74
0
 40
0
 40
0
 40
0
 40
0
 40
1
 40
1
 40
1
 40
1
 10
542.424922
 20
525.150540
 30
0.0
 10
539.450683
 20
560.934325
 30
0.0
 10
524.392603
 20
595.857940
 30
0.0
 10
497.249968
 20
623.000532
 30
0.0
  0
SPLINE
  5
10e
100
AcDbEntity
  8
Layer_1
 62
7
100
AcDbSpline
 70
8
 71
3
 72
8
 73
4
 74
0
 40
0
 40
0
 40
0
 40
0
 40
1
 40
1
 40
1
 40
1
 10
497.249968
 20
623.000532
 30
0.0
 10
470.122770
 20
650.127744
 30
0.0
 10
435.237556
 20
665.189236
 30
0.0
 10
399.474961
 20
668.175500
 30
0.0
  0
SPLINE
  5
10f
100
AcDbEntity
  8
Layer_1
 62
7
100
AcDbSpline
 70
8
 71
3
 72
8
 73
4
 74
0
 40
0
 40
0
 40
0
 40
0
 40
1
 40
1
 40
1
 40
1
 10
399.474961
 20
668.175500
 30
0.0
 10
372.076492
 20
691.347779
 30
0.0
 10
336.759908
 20
705.350489
 30
0.0
 10
298.399971
 20
705.350489
 30
0.0
  0
SPLINE
  5
110
100
AcDbEntity
  8
Layer_1
 62
7
100
AcDbSpline
 70
8
 71
3
 72
8
 73
4
 74
0
 40
0
 40
0
 40
0
 40
0
 40
1
 40
1
 40
1
 40
1
 10
370.624964
 20
598.475500
 30
0.0
 10
375.374274
 20
591.691040
 30
0.0
 10
379.166444
 20
584.180428
 30
0.0
 10
381.849963
 20
576.150527
 30
0.0
  0
SPLINE
  5
111
100
AcDbEntity
  8
Layer_1
 62
7
100
AcDbSpline
 70
8
 71
3
 72
8
 73
4
 74
0
 40
0
 40
0
 40
0
 40
0
 40
1
 40
1
 40
1
 40
1
 10
381.849963
 20
576.150527
 30
0.0
 10
373.552007
 20
573.920267
 30
0.0
 10
365.509669
 20
571.031667
 30
0.0
 10
357.799968
 20
567.525484
 30
0.0
  0
SPLINE
  5
112
100
AcDbEntity
  8
Layer_1
 62
7
100
AcDbSpline
 70
8
 71
3
 72
8
 73
4
 74
0
 40
0
 40
0
 40
0
 40
0
 40
1
 40
1
 40
1
 40
1
 10
357.799968
 20
567.525484
 30
0.0
 10
354.826211
 20
575.463524
 30
0.0
 10
351.169142
 20
583.199525
 30
0.0
 10
346.874965
 20
590.650504
 30
0.0
  0
SPLINE
  5
113
100
AcDbEntity
  8
Layer_1
 62
7
100
AcDbSpline
 70
8
 71
3
 72
8
 73
4
 74
0
 40
0
 40
0
 40
0
 40
0
 40
1
 40
1
 40
1
 40
1
 10
346.874965
 20
590.650504
 30
0.0
 10
354.456885
 20
594.435277
 30
0.0
 10
362.461975
 20
597.036338
 30
0.0
 10
370.624964
 20
598.475500
 30
0.0
  0
LWPOLYLINE
  5
114
100
AcDbEntity
  8
Layer_1
 62
7
100
AcDbPolyline
 90
2
 70
0
 10
298.399971
 20
705.350489
 30
0.0
 10
298.399971
 20
705.350489
 30
0.0
  0
SPLINE
  5
115
100
AcDbEntity
  8
Layer_1
 62
7
100
AcDbSpline
 70
8
 71
3
 72
8
 73
4
 74
0
 40
0
 40
0
 40
0
 40
0
 40
1
 40
1
 40
1
 40
1
 10
226.124971
 20
598.400487
 30
0.0
 10
234.322824
 20
596.913367
 30
0.0
 10
242.349635
 20
594.238341
 30
0.0
 10
249.974969
 20
590.375479
 30
0.0
  0
SPLINE
  5
116
100
AcDbEntity
  8
Layer_1
 62
7
100
AcDbSpline
 70
8
 71
3
 72
8
 73
4
 74
0
 40
0
 40
0
 40
0
 40
0
 40
1
 40
1
 40
1
 40
1
 10
249.974969
 20
590.375479
 30
0.0
 10
245.711035
 20
582.986021
 30
0.0
 10
242.115822
 20
575.311121
 30
0.0
 10
239.149972
 20
567.450541
 30
0.0
  0
SPLINE
  5
117
100
AcDbEntity
  8
Layer_1
 62
7
100
AcDbSpline
 70
8
 71
3
 72
8
 73
4
 74
0
 40
0
 40
0
 40
0
 40
0
 40
1
 40
1
 40
1
 40
1
 10
239.149972
 20
567.450541
 30
0.0
 10
231.381106
 20
570.994894
 30
0.0
 10
223.292327
 20
573.927887
 30
0.0
 10
214.924971
 20
576.175485
 30
0.0
  0
SPLINE
  5
118
100
AcDbEntity
  8
Layer_1
 62
7
100
AcDbSpline
 70
8
 71
3
 72
8
 73
4
 74
0
 40
0
 40
0
 40
0
 40
0
 40
1
 40
1
 40
1
 40
1
 10
214.924971
 20
576.175485
 30
0.0
 10
217.598319
 20
584.167775
 30
0.0
 10
221.404191
 20
591.641894
 30
0.0
 10
226.124971
 20
598.400487
 30
0.0
  0
LWPOLYLINE
  5
119
100
AcDbEntity
  8
Layer_1
 62
7
100
AcDbPolyline
 90
2
 70
0
 10
370.624964
 20
598.475500
 30
0.0
 10
370.624964
 20
598.475500
 30
0.0
  0
SPLINE
  5
11a
100
AcDbEntity
  8
Layer_1
 62
7
100
AcDbSpline
 70
8
 71
3
 72
8
 73
4
 74
0
 40
0
 40
0
 40
0
 40
0
 40
1
 40
1
 40
1
 40
1
 10
298.374971
 20
521.175543
 30
0.0
 10
298.394476
 20
521.001328
 30
0.0
 10
298.406500
 20
520.824736
 30
0.0
 10
298.424956
 20
520.650521
 30
0.0
  0
SPLINE
  5
11b
100
AcDbEntity
  8
Layer_1
 62
7
100
AcDbSpline
 70
8
 71
3
 72
8
 73
4
 74
0
 40
0
 40
0
 40
0
 40
0
 40
1
 40
1
 40
1
 40
1
 10
298.424956
 20
520.650521
 30
0.0
 10
298.417756
 20
520.641433
 30
0.0
 10
298.407129
 20
520.634442
 30
0.0
 10
298.399929
 20
520.625353
 30
0.0
  0
SPLINE
  5
11c
100
AcDbEntity
  8
Layer_1
 62
7
100
AcDbSpline
 70
8
 71
3
 72
8
 73
4
 74
0
 40
0
 40
0
 40
0
 40
0
 40
1
 40
1
 40
1
 40
1
 10
298.399929
 20
520.625353
 30
0.0
 10
298.374272
 20
520.658211
 30
0.0
 10
298.350572
 20
520.692467
 30
0.0
 10
298.324930
 20
520.725394
 30
0.0
  0
SPLINE
  5
11d
100
AcDbEntity
  8
Layer_1
 62
7
100
AcDbSpline
 70
8
 71
3
 72
8
 73
4
 74
0
 40
0
 40
0
 40
0
 40
0
 40
1
 40
1
 40
1
 40
1
 10
298.324930
 20
520.725394
 30
0.0
 10
298.340240
 20
520.876679
 30
0.0
 10
298.358836
 20
521.024119
 30
0.0
 10
298.374915
 20
521.175403
 30
0.0
  0
LWPOLYLINE
  5
11e
100
AcDbEntity
  8
Layer_1
 62
7
100
AcDbPolyline
 90
2
 70
0
 10
226.124971
 20
598.400487
 30
0.0
 10
226.124971
 20
598.400487
 30
0.0
  0
SPLINE
  5
11f
100
AcDbEntity
  8
Layer_1
 62
7
100
AcDbSpline
 70
8
 71
3
 72
8
 73
4
 74
0
 40
0
 40
0
 40
0
 40
0
 40
1
 40
1
 40
1
 40
1
 10
450.175000
 20
507.475543
 30
0.0
 10
458.299885
 20
504.816107
 30
0.0
 10
465.875167
 20
500.995261
 30
0.0
 10
472.724929
 20
496.250487
 30
0.0
  0
SPLINE
  5
120
100
AcDbEntity
  8
Layer_1
 62
7
100
AcDbSpline
 70
8
 71
3
 72
8
 73
4
 74
0
 40
0
 40
0
 40
0
 40
0
 40
1
 40
1
 40
1
 40
1
 10
472.724929
 20
496.250487
 30
0.0
 10
471.284047
 20
488.131591
 30
0.0
 10
468.686929
 20
480.168803
 30
0.0
 10
464.924926
 20
472.625543
 30
0.0
  0
SPLINE
  5
121
100
AcDbEntity
  8
Layer_1
 62
7
100
AcDbSpline
 70
8
 71
3
 72
8
 73
4
 74
0
 40
0
 40
0
 40
0
 40
0
 40
1
 40
1
 40
1
 40
1
 10
464.924926
 20
472.625543
 30
0.0
 10
457.424129
 20
476.949320
 30
0.0
 10
449.643882
 20
480.614967
 30
0.0
 10
441.649963
 20
483.600531
 30
0.0
  0
SPLINE
  5
122
100
AcDbEntity
  8
Layer_1
 62
7
100
AcDbSpline
 70
8
 71
3
 72
8
 73
4
 74
0
 40
0
 40
0
 40
0
 40
0
 40
1
 40
1
 40
1
 40
1
 10
441.649963
 20
483.600531
 30
0.0
 10
445.111166
 20
491.259352
 30
0.0
 10
447.965804
 20
499.231648
 30
0.0
 10
450.175000
 20
507.475543
 30
0.0
  0
LWPOLYLINE
  5
123
100
AcDbEntity
  8
Layer_1
 62
7
100
AcDbPolyline
 90
2
 70
0
 10
298.374915
 20
521.175403
 30
0.0
 10
298.374971
 20
521.175543
 30
0.0
  0
SPLINE
  5
124
100
AcDbEntity
  8
Layer_1
 62
7
100
AcDbSpline
 70
8
 71
3
 72
8
 73
4
 74
0
 40
0
 40
0
 40
0
 40
0
 40
1
 40
1
 40
1
 40
1
 10
146.624976
 20
507.450376
 30
0.0
 10
148.847085
 20
499.163835
 30
0.0
 10
151.713118
 20
491.145259
 30
0.0
 10
155.199978
 20
483.450365
 30
0.0
  0
SPLINE
  5
125
100
AcDbEntity
  8
Layer_1
 62
7
100
AcDbSpline
 70
8
 71
3
 72
8
 73
4
 74
0
 40
0
 40
0
 40
0
 40
0
 40
1
 40
1
 40
1
 40
1
 10
155.199978
 20
483.450365
 30
0.0
 10
147.288286
 20
480.473469
 30
0.0
 10
139.585150
 20
476.841589
 30
0.0
 10
132.149978
 20
472.550390
 30
0.0
  0
SPLINE
  5
126
100
AcDbEntity
  8
Layer_1
 62
7
100
AcDbSpline
 70
8
 71
3
 72
8
 73
4
 74
0
 40
0
 40
0
 40
0
 40
0
 40
1
 40
1
 40
1
 40
1
 10
132.149978
 20
472.550390
 30
0.0
 10
128.303020
 20
480.144264
 30
0.0
 10
125.640760
 20
488.137603
 30
0.0
 10
124.149977
 20
496.300403
 30
0.0
  0
SPLINE
  5
127
100
AcDbEntity
  8
Layer_1
 62
7
100
AcDbSpline
 70
8
 71
3
 72
8
 73
4
 74
0
 40
0
 40
0
 40
0
 40
0
 40
1
 40
1
 40
1
 40
1
 10
124.149977
 20
496.300403
 30
0.0
 10
130.978423
 20
501.019939
 30
0.0
 10
138.531869
 20
504.800587
 30
0.0
 10
146.624976
 20
507.450376
 30
0.0
  0
LWPOLYLINE
  5
128
100
AcDbEntity
  8
Layer_1
 62
7
100
AcDbPolyline
 90
2
 70
0
 10
450.175000
 20
507.475543
 30
0.0
 10
450.175000
 20
507.475543
 30
0.0
  0
SPLINE
  5
129
100
AcDbEntity
  8
Layer_1
 62
7
100
AcDbSpline
 70
8
 71
3
 72
8
 73
4
 74
0
 40
0
 40
0
 40
0
 40
0
 40
1
 40
1
 40
1
 40
1
 10
229.774972
 20
492.725359
 30
0.0
 10
229.881200
 20
492.640489
 30
0.0
 10
229.994153
 20
492.560722
 30
0.0
 10
230.099968
 20
492.475362
 30
0.0
  0
SPLINE
  5
12a
100
AcDbEntity
  8
Layer_1
 62
7
100
AcDbSpline
 70
8
 71
3
 72
8
 73
4
 74
0
 40
0
 40
0
 40
0
 40
0
 40
1
 40
1
 40
1
 40
1
 10
230.099968
 20
492.475362
 30
0.0
 10
230.102066
 20
492.458584
 30
0.0
 10
230.097871
 20
492.441805
 30
0.0
 10
230.099968
 20
492.425027
 30
0.0
  0
SPLINE
  5
12b
100
AcDbEntity
  8
Layer_1
 62
7
100
AcDbSpline
 70
8
 71
3
 72
8
 73
4
 74
0
 40
0
 40
0
 40
0
 40
0
 40
1
 40
1
 40
1
 40
1
 10
230.099968
 20
492.425027
 30
0.0
 10
230.067111
 20
492.432018
 30
0.0
 10
230.032855
 20
492.418036
 30
0.0
 10
229.999970
 20
492.425027
 30
0.0
  0
SPLINE
  5
12c
100
AcDbEntity
  8
Layer_1
 62
7
100
AcDbSpline
 70
8
 71
3
 72
8
 73
4
 74
0
 40
0
 40
0
 40
0
 40
0
 40
1
 40
1
 40
1
 40
1
 10
229.999970
 20
492.425027
 30
0.0
 10
229.921510
 20
492.521293
 30
0.0
 10
229.853026
 20
492.628394
 30
0.0
 10
229.774972
 20
492.725010
 30
0.0
  0
LWPOLYLINE
  5
12d
100
AcDbEntity
  8
Layer_1
 62
7
100
AcDbPolyline
 90
2
 70
0
 10
146.624976
 20
507.450376
 30
0.0
 10
146.624976
 20
507.450376
 30
0.0
  0
SPLINE
  5
12e
100
AcDbEntity
  8
Layer_1
 62
7
100
AcDbSpline
 70
8
 71
3
 72
8
 73
4
 74
0
 40
0
 40
0
 40
0
 40
0
 40
1
 40
1
 40
1
 40
1
 10
367.024962
 20
492.725359
 30
0.0
 10
366.932318
 20
492.610637
 30
0.0
 10
366.843190
 20
492.489623
 30
0.0
 10
366.749965
 20
492.375391
 30
0.0
  0
SPLINE
  5
12f
100
AcDbEntity
  8
Layer_1
 62
7
100
AcDbSpline
 70
8
 71
3
 72
8
 73
4
 74
0
 40
0
 40
0
 40
0
 40
0
 40
1
 40
1
 40
1
 40
1
 10
366.749965
 20
492.375391
 30
0.0
 10
366.716059
 20
492.368400
 30
0.0
 10
366.683901
 20
492.354418
 30
0.0
 10
366.649966
 20
492.350223
 30
0.0
  0
SPLINE
  5
130
100
AcDbEntity
  8
Layer_1
 62
7
100
AcDbSpline
 70
8
 71
3
 72
8
 73
4
 74
0
 40
0
 40
0
 40
0
 40
0
 40
1
 40
1
 40
1
 40
1
 10
366.649966
 20
492.350223
 30
0.0
 10
366.652763
 20
492.374692
 30
0.0
 10
366.647170
 20
492.400558
 30
0.0
 10
366.649966
 20
492.425237
 30
0.0
  0
SPLINE
  5
131
100
AcDbEntity
  8
Layer_1
 62
7
100
AcDbSpline
 70
8
 71
3
 72
8
 73
4
 74
0
 40
0
 40
0
 40
0
 40
0
 40
1
 40
1
 40
1
 40
1
 10
366.649966
 20
492.425237
 30
0.0
 10
366.775007
 20
492.526256
 30
0.0
 10
366.899348
 20
492.624899
 30
0.0
 10
367.024962
 20
492.725219
 30
0.0
  0
LWPOLYLINE
  5
132
100
AcDbEntity
  8
Layer_1
 62
7
100
AcDbPolyline
 90
2
 70
0
 10
229.774972
 20
492.725010
 30
0.0
 10
229.774972
 20
492.725359
 30
0.0
  0
SPLINE
  5
133
100
AcDbEntity
  8
Layer_1
 62
7
100
AcDbSpline
 70
8
 71
3
 72
8
 73
4
 74
0
 40
0
 40
0
 40
0
 40
0
 40
1
 40
1
 40
1
 40
1
 10
201.724972
 20
424.200401
 30
0.0
 10
201.752517
 20
424.178729
 30
0.0
 10
201.772441
 20
424.147270
 30
0.0
 10
201.799972
 20
424.125388
 30
0.0
  0
SPLINE
  5
134
100
AcDbEntity
  8
Layer_1
 62
7
100
AcDbSpline
 70
8
 71
3
 72
8
 73
4
 74
0
 40
0
 40
0
 40
0
 40
0
 40
1
 40
1
 40
1
 40
1
 10
201.799972
 20
424.125388
 30
0.0
 10
201.790813
 20
424.118397
 30
0.0
 10
201.784172
 20
424.107911
 30
0.0
 10
201.774944
 20
424.100221
 30
0.0
  0
SPLINE
  5
135
100
AcDbEntity
  8
Layer_1
 62
7
100
AcDbSpline
 70
8
 71
3
 72
8
 73
4
 74
0
 40
0
 40
0
 40
0
 40
0
 40
1
 40
1
 40
1
 40
1
 10
201.774944
 20
424.100221
 30
0.0
 10
201.633593
 20
424.115601
 30
0.0
 10
201.491243
 20
424.134477
 30
0.0
 10
201.349942
 20
424.150556
 30
0.0
  0
SPLINE
  5
136
100
AcDbEntity
  8
Layer_1
 62
7
100
AcDbSpline
 70
8
 71
3
 72
8
 73
4
 74
0
 40
0
 40
0
 40
0
 40
0
 40
1
 40
1
 40
1
 40
1
 10
201.349942
 20
424.150556
 30
0.0
 10
201.474787
 20
424.163839
 30
0.0
 10
201.600065
 20
424.187608
 30
0.0
 10
201.724945
 20
424.200891
 30
0.0
  0
LWPOLYLINE
  5
137
100
AcDbEntity
  8
Layer_1
 62
7
100
AcDbPolyline
 90
2
 70
0
 10
367.024962
 20
492.725219
 30
0.0
 10
367.024962
 20
492.725359
 30
0.0
  0
SPLINE
  5
138
100
AcDbEntity
  8
Layer_1
 62
7
100
AcDbSpline
 70
8
 71
3
 72
8
 73
4
 74
0
 40
0
 40
0
 40
0
 40
0
 40
1
 40
1
 40
1
 40
1
 10
394.999963
 20
424.150066
 30
0.0
 10
395.117977
 20
424.137483
 30
0.0
 10
395.231986
 20
424.113014
 30
0.0
 10
395.349966
 20
424.099731
 30
0.0
  0
SPLINE
  5
139
100
AcDbEntity
  8
Layer_1
 62
7
100
AcDbSpline
 70
8
 71
3
 72
8
 73
4
 74
0
 40
0
 40
0
 40
0
 40
0
 40
1
 40
1
 40
1
 40
1
 10
395.349966
 20
424.099731
 30
0.0
 10
395.250610
 20
424.089245
 30
0.0
 10
395.149346
 20
424.085050
 30
0.0
 10
395.049962
 20
424.074564
 30
0.0
  0
SPLINE
  5
13a
100
AcDbEntity
  8
Layer_1
 62
7
100
AcDbSpline
 70
8
 71
3
 72
8
 73
4
 74
0
 40
0
 40
0
 40
0
 40
0
 40
1
 40
1
 40
1
 40
1
 10
395.049962
 20
424.074564
 30
0.0
 10
395.026333
 20
424.092740
 30
0.0
 10
394.998578
 20
424.106023
 30
0.0
 10
394.974963
 20
424.124899
 30
0.0
  0
SPLINE
  5
13b
100
AcDbEntity
  8
Layer_1
 62
7
100
AcDbSpline
 70
8
 71
3
 72
8
 73
4
 74
0
 40
0
 40
0
 40
0
 40
0
 40
1
 40
1
 40
1
 40
1
 10
394.974963
 20
424.124899
 30
0.0
 10
394.984191
 20
424.131890
 30
0.0
 10
394.990763
 20
424.142376
 30
0.0
 10
394.999991
 20
424.150066
 30
0.0
  0
LWPOLYLINE
  5
13c
100
AcDbEntity
  8
Layer_1
 62
7
100
AcDbPolyline
 90
2
 70
0
 10
201.724945
 20
424.200891
 30
0.0
 10
201.724972
 20
424.200401
 30
0.0
  0
SPLINE
  5
13d
100
AcDbEntity
  8
Layer_1
 62
7
100
AcDbSpline
 70
8
 71
3
 72
8
 73
4
 74
0
 40
0
 40
0
 40
0
 40
0
 40
1
 40
1
 40
1
 40
1
 10
464.649971
 20
375.750093
 30
0.0
 10
468.502290
 20
368.150276
 30
0.0
 10
471.157888
 20
360.119955
 30
0.0
 10
472.649965
 20
351.950094
 30
0.0
  0
SPLINE
  5
13e
100
AcDbEntity
  8
Layer_1
 62
7
100
AcDbSpline
 70
8
 71
3
 72
8
 73
4
 74
0
 40
0
 40
0
 40
0
 40
0
 40
1
 40
1
 40
1
 40
1
 10
472.649965
 20
351.950094
 30
0.0
 10
465.820050
 20
347.229509
 30
0.0
 10
458.270048
 20
343.449980
 30
0.0
 10
450.175000
 20
340.800121
 30
0.0
  0
SPLINE
  5
13f
100
AcDbEntity
  8
Layer_1
 62
7
100
AcDbSpline
 70
8
 71
3
 72
8
 73
4
 74
0
 40
0
 40
0
 40
0
 40
0
 40
1
 40
1
 40
1
 40
1
 10
450.175000
 20
340.800121
 30
0.0
 10
447.952199
 20
349.092744
 30
0.0
 10
445.089228
 20
357.124882
 30
0.0
 10
441.599964
 20
364.825089
 30
0.0
  0
SPLINE
  5
140
100
AcDbEntity
  8
Layer_1
 62
7
100
AcDbSpline
 70
8
 71
3
 72
8
 73
4
 74
0
 40
0
 40
0
 40
0
 40
0
 40
1
 40
1
 40
1
 40
1
 10
441.599964
 20
364.825089
 30
0.0
 10
449.507481
 20
367.802265
 30
0.0
 10
457.218685
 20
371.459872
 30
0.0
 10
464.649971
 20
375.750093
 30
0.0
  0
LWPOLYLINE
  5
141
100
AcDbEntity
  8
Layer_1
 62
7
100
AcDbPolyline
 90
2
 70
0
 10
394.999991
 20
424.150066
 30
0.0
 10
394.999963
 20
424.150066
 30
0.0
  0
SPLINE
  5
142
100
AcDbEntity
  8
Layer_1
 62
7
100
AcDbSpline
 70
8
 71
3
 72
8
 73
4
 74
0
 40
0
 40
0
 40
0
 40
0
 40
1
 40
1
 40
1
 40
1
 10
131.874974
 20
375.650122
 30
0.0
 10
139.375805
 20
371.326275
 30
0.0
 10
147.156080
 20
367.660628
 30
0.0
 10
155.149971
 20
364.675133
 30
0.0
  0
SPLINE
  5
143
100
AcDbEntity
  8
Layer_1
 62
7
100
AcDbSpline
 70
8
 71
3
 72
8
 73
4
 74
0
 40
0
 40
0
 40
0
 40
0
 40
1
 40
1
 40
1
 40
1
 10
155.149971
 20
364.675133
 30
0.0
 10
151.690048
 20
357.019179
 30
0.0
 10
148.833858
 20
349.040661
 30
0.0
 10
146.624976
 20
340.800121
 30
0.0
  0
SPLINE
  5
144
100
AcDbEntity
  8
Layer_1
 62
7
100
AcDbSpline
 70
8
 71
3
 72
8
 73
4
 74
0
 40
0
 40
0
 40
0
 40
0
 40
1
 40
1
 40
1
 40
1
 10
146.624976
 20
340.800121
 30
0.0
 10
138.489462
 20
343.463193
 30
0.0
 10
130.906752
 20
347.271455
 30
0.0
 10
124.049978
 20
352.025107
 30
0.0
  0
SPLINE
  5
145
100
AcDbEntity
  8
Layer_1
 62
7
100
AcDbSpline
 70
8
 71
3
 72
8
 73
4
 74
0
 40
0
 40
0
 40
0
 40
0
 40
1
 40
1
 40
1
 40
1
 10
124.049978
 20
352.025107
 30
0.0
 10
125.492348
 20
360.148548
 30
0.0
 10
128.108923
 20
368.103226
 30
0.0
 10
131.874974
 20
375.650122
 30
0.0
  0
LWPOLYLINE
  5
146
100
AcDbEntity
  8
Layer_1
 62
7
100
AcDbPolyline
 90
2
 70
0
 10
464.649971
 20
375.750093
 30
0.0
 10
464.649971
 20
375.750093
 30
0.0
  0
SPLINE
  5
147
100
AcDbEntity
  8
Layer_1
 62
7
100
AcDbSpline
 70
8
 71
3
 72
8
 73
4
 74
0
 40
0
 40
0
 40
0
 40
0
 40
1
 40
1
 40
1
 40
1
 10
230.174968
 20
355.925091
 30
0.0
 10
230.171472
 20
355.899225
 30
0.0
 10
230.153156
 20
355.876155
 30
0.0
 10
230.149940
 20
355.850078
 30
0.0
  0
SPLINE
  5
148
100
AcDbEntity
  8
Layer_1
 62
7
100
AcDbSpline
 70
8
 71
3
 72
8
 73
4
 74
0
 40
0
 40
0
 40
0
 40
0
 40
1
 40
1
 40
1
 40
1
 10
230.149940
 20
355.850078
 30
0.0
 10
230.034281
 20
355.756609
 30
0.0
 10
229.916106
 20
355.667963
 30
0.0
 10
229.799944
 20
355.575123
 30
0.0
  0
SPLINE
  5
149
100
AcDbEntity
  8
Layer_1
 62
7
100
AcDbSpline
 70
8
 71
3
 72
8
 73
4
 74
0
 40
0
 40
0
 40
0
 40
0
 40
1
 40
1
 40
1
 40
1
 10
229.799944
 20
355.575123
 30
0.0
 10
229.885360
 20
355.680687
 30
0.0
 10
229.964036
 20
355.794919
 30
0.0
 10
230.049941
 20
355.900134
 30
0.0
  0
SPLINE
  5
14a
100
AcDbEntity
  8
Layer_1
 62
7
100
AcDbSpline
 70
8
 71
3
 72
8
 73
4
 74
0
 40
0
 40
0
 40
0
 40
0
 40
1
 40
1
 40
1
 40
1
 10
230.049941
 20
355.900134
 30
0.0
 10
230.092027
 20
355.907125
 30
0.0
 10
230.132833
 20
355.919708
 30
0.0
 10
230.174940
 20
355.925301
 30
0.0
  0
LWPOLYLINE
  5
14b
100
AcDbEntity
  8
Layer_1
 62
7
100
AcDbPolyline
 90
2
 70
0
 10
131.874974
 20
375.650122
 30
0.0
 10
131.874974
 20
375.650122
 30
0.0
  0
SPLINE
  5
14c
100
AcDbEntity
  8
Layer_1
 62
7
100
AcDbSpline
 70
8
 71
3
 72
8
 73
4
 74
0
 40
0
 40
0
 40
0
 40
0
 40
1
 40
1
 40
1
 40
1
 10
366.699966
 20
355.825120
 30
0.0
 10
366.724574
 20
355.825120
 30
0.0
 10
366.750371
 20
355.825120
 30
0.0
 10
366.774965
 20
355.825120
 30
0.0
  0
SPLINE
  5
14d
100
AcDbEntity
  8
Layer_1
 62
7
100
AcDbSpline
 70
8
 71
3
 72
8
 73
4
 74
0
 40
0
 40
0
 40
0
 40
0
 40
1
 40
1
 40
1
 40
1
 10
366.774965
 20
355.825120
 30
0.0
 10
366.834598
 20
355.751925
 30
0.0
 10
366.890547
 20
355.673486
 30
0.0
 10
366.949963
 20
355.600081
 30
0.0
  0
SPLINE
  5
14e
100
AcDbEntity
  8
Layer_1
 62
7
100
AcDbSpline
 70
8
 71
3
 72
8
 73
4
 74
0
 40
0
 40
0
 40
0
 40
0
 40
1
 40
1
 40
1
 40
1
 10
366.949963
 20
355.600081
 30
0.0
 10
366.865659
 20
355.667893
 30
0.0
 10
366.784004
 20
355.732350
 30
0.0
 10
366.699966
 20
355.800093
 30
0.0
  0
SPLINE
  5
14f
100
AcDbEntity
  8
Layer_1
 62
7
100
AcDbSpline
 70
8
 71
3
 72
8
 73
4
 74
0
 40
0
 40
0
 40
0
 40
0
 40
1
 40
1
 40
1
 40
1
 10
366.699966
 20
355.800093
 30
0.0
 10
366.699267
 20
355.808482
 30
0.0
 10
366.700665
 20
355.816871
 30
0.0
 10
366.699966
 20
355.825260
 30
0.0
  0
LWPOLYLINE
  5
150
100
AcDbEntity
  8
Layer_1
 62
7
100
AcDbPolyline
 90
2
 70
0
 10
230.174940
 20
355.925301
 30
0.0
 10
230.174968
 20
355.925091
 30
0.0
  0
SPLINE
  5
151
100
AcDbEntity
  8
Layer_1
 62
7
100
AcDbSpline
 70
8
 71
3
 72
8
 73
4
 74
0
 40
0
 40
0
 40
0
 40
0
 40
1
 40
1
 40
1
 40
1
 10
298.399971
 20
327.625074
 30
0.0
 10
298.418357
 20
327.601304
 30
0.0
 10
298.431570
 20
327.573340
 30
0.0
 10
298.449956
 20
327.550130
 30
0.0
  0
SPLINE
  5
152
100
AcDbEntity
  8
Layer_1
 62
7
100
AcDbSpline
 70
8
 71
3
 72
8
 73
4
 74
0
 40
0
 40
0
 40
0
 40
0
 40
1
 40
1
 40
1
 40
1
 10
298.449956
 20
327.550130
 30
0.0
 10
298.439050
 20
327.442469
 30
0.0
 10
298.436254
 20
327.332711
 30
0.0
 10
298.424928
 20
327.225120
 30
0.0
  0
SPLINE
  5
153
100
AcDbEntity
  8
Layer_1
 62
7
100
AcDbSpline
 70
8
 71
3
 72
8
 73
4
 74
0
 40
0
 40
0
 40
0
 40
0
 40
1
 40
1
 40
1
 40
1
 10
298.424928
 20
327.225120
 30
0.0
 10
298.411086
 20
327.350049
 30
0.0
 10
298.388226
 20
327.475117
 30
0.0
 10
298.374943
 20
327.600116
 30
0.0
  0
SPLINE
  5
154
100
AcDbEntity
  8
Layer_1
 62
7
100
AcDbSpline
 70
8
 71
3
 72
8
 73
4
 74
0
 40
0
 40
0
 40
0
 40
0
 40
1
 40
1
 40
1
 40
1
 10
298.374943
 20
327.600116
 30
0.0
 10
298.382144
 20
327.609204
 30
0.0
 10
298.392770
 20
327.616195
 30
0.0
 10
298.399971
 20
327.625283
 30
0.0
  0
LWPOLYLINE
  5
155
100
AcDbEntity
  8
Layer_1
 62
7
100
AcDbPolyline
 90
2
 70
0
 10
366.699966
 20
355.825260
 30
0.0
 10
366.699966
 20
355.825120
 30
0.0
  0
SPLINE
  5
156
100
AcDbEntity
  8
Layer_1
 62
7
100
AcDbSpline
 70
8
 71
3
 72
8
 73
4
 74
0
 40
0
 40
0
 40
0
 40
0
 40
1
 40
1
 40
1
 40
1
 10
357.649963
 20
280.775138
 30
0.0
 10
365.403308
 20
277.239733
 30
0.0
 10
373.500665
 20
274.344142
 30
0.0
 10
381.849963
 20
272.100110
 30
0.0
  0
SPLINE
  5
157
100
AcDbEntity
  8
Layer_1
 62
7
100
AcDbSpline
 70
8
 71
3
 72
8
 73
4
 74
0
 40
0
 40
0
 40
0
 40
0
 40
1
 40
1
 40
1
 40
1
 10
381.849963
 20
272.100110
 30
0.0
 10
379.177769
 20
264.104115
 30
0.0
 10
375.396282
 20
256.636916
 30
0.0
 10
370.674963
 20
249.875108
 30
0.0
  0
SPLINE
  5
158
100
AcDbEntity
  8
Layer_1
 62
7
100
AcDbSpline
 70
8
 71
3
 72
8
 73
4
 74
0
 40
0
 40
0
 40
0
 40
0
 40
1
 40
1
 40
1
 40
1
 10
370.674963
 20
249.875108
 30
0.0
 10
362.477166
 20
251.362507
 30
0.0
 10
354.425195
 20
254.036974
 30
0.0
 10
346.799966
 20
257.900115
 30
0.0
  0
SPLINE
  5
159
100
AcDbEntity
  8
Layer_1
 62
7
100
AcDbSpline
 70
8
 71
3
 72
8
 73
4
 74
0
 40
0
 40
0
 40
0
 40
0
 40
1
 40
1
 40
1
 40
1
 10
346.799966
 20
257.900115
 30
0.0
 10
351.057077
 20
265.277340
 30
0.0
 10
354.686664
 20
272.928190
 30
0.0
 10
357.649963
 20
280.775138
 30
0.0
  0
LWPOLYLINE
  5
15a
100
AcDbEntity
  8
Layer_1
 62
7
100
AcDbPolyline
 90
2
 70
0
 10
298.399971
 20
327.625283
 30
0.0
 10
298.399971
 20
327.625074
 30
0.0
  0
SPLINE
  5
15b
100
AcDbEntity
  8
Layer_1
 62
7
100
AcDbSpline
 70
8
 71
3
 72
8
 73
4
 74
0
 40
0
 40
0
 40
0
 40
0
 40
1
 40
1
 40
1
 40
1
 10
238.999973
 20
280.724803
 30
0.0
 10
241.974129
 20
272.790748
 30
0.0
 10
245.606513
 20
265.047127
 30
0.0
 10
249.899970
 20
257.599853
 30
0.0
  0
SPLINE
  5
15c
100
AcDbEntity
  8
Layer_1
 62
7
100
AcDbSpline
 70
8
 71
3
 72
8
 73
4
 74
0
 40
0
 40
0
 40
0
 40
0
 40
1
 40
1
 40
1
 40
1
 10
249.899970
 20
257.599853
 30
0.0
 10
242.326936
 20
253.823120
 30
0.0
 10
234.327214
 20
251.237089
 30
0.0
 10
226.174971
 20
249.799815
 30
0.0
  0
SPLINE
  5
15d
100
AcDbEntity
  8
Layer_1
 62
7
100
AcDbSpline
 70
8
 71
3
 72
8
 73
4
 74
0
 40
0
 40
0
 40
0
 40
0
 40
1
 40
1
 40
1
 40
1
 10
226.174971
 20
249.799815
 30
0.0
 10
221.434182
 20
256.574627
 30
0.0
 10
217.606422
 20
264.058324
 30
0.0
 10
214.924971
 20
272.074802
 30
0.0
  0
SPLINE
  5
15e
100
AcDbEntity
  8
Layer_1
 62
7
100
AcDbSpline
 70
8
 71
3
 72
8
 73
4
 74
0
 40
0
 40
0
 40
0
 40
0
 40
1
 40
1
 40
1
 40
1
 10
214.924971
 20
272.074802
 30
0.0
 10
223.237825
 20
274.307789
 30
0.0
 10
231.277416
 20
277.211490
 30
0.0
 10
238.999973
 20
280.724803
 30
0.0
  0
LWPOLYLINE
  5
15f
100
AcDbEntity
  8
Layer_1
 62
7
100
AcDbPolyline
 90
2
 70
0
 10
357.649963
 20
280.775138
 30
0.0
 10
357.649963
 20
280.775138
 30
0.0
  0
LWPOLYLINE
  5
160
100
AcDbEntity
  8
Layer_1
 62
7
100
AcDbPolyline
 90
2
 70
0
 10
238.999973
 20
280.724803
 30
0.0
 10
238.999973
 20
280.724803
 30
0.0
  0
ENDSEC
  0
SECTION
  2
OBJECTS
  0
DICTIONARY
  5
C
330
0
100
AcDbDictionary
  3
ACAD_GROUP
350
D
  3
ACAD_MLINESTYLE
350
17
  0
DICTIONARY
  5
D
330
C
100
AcDbDictionary
  0
DICTIONARY
  5
1A
330
C
100
AcDbDictionary
  0
DICTIONARY
  5
17
330
C
100
AcDbDictionary
  3
STANDARD
350
18
  0
DICTIONARY
  5
19
330
C
100
AcDbDictionary
  0
ENDSEC
  0
EOF
