<?xml version="1.0" encoding="UTF-8" standalone="no"?>
<!-- Created with Inkscape (http://www.inkscape.org/) -->

<svg
   xmlns:dc="http://purl.org/dc/elements/1.1/"
   xmlns:cc="http://creativecommons.org/ns#"
   xmlns:rdf="http://www.w3.org/1999/02/22-rdf-syntax-ns#"
   xmlns:svg="http://www.w3.org/2000/svg"
   xmlns="http://www.w3.org/2000/svg"
   xmlns:sodipodi="http://sodipodi.sourceforge.net/DTD/sodipodi-0.dtd"
   xmlns:inkscape="http://www.inkscape.org/namespaces/inkscape"
   width="210mm"
   height="297mm"
   viewBox="0 0 744.09448819 1052.3622047"
   id="svg2"
   version="1.1"
   inkscape:version="0.91pre4 r13712"
   sodipodi:docname="earing_leaf.svg">
  <defs
     id="defs4" />
  <sodipodi:namedview
     id="base"
     pagecolor="#ffffff"
     bordercolor="#666666"
     borderopacity="1.0"
     inkscape:pageopacity="0.0"
     inkscape:pageshadow="2"
     inkscape:zoom="0.98994949"
     inkscape:cx="442.17484"
     inkscape:cy="698.4569"
     inkscape:document-units="px"
     inkscape:current-layer="layer1"
     showgrid="false"
     inkscape:window-width="1920"
     inkscape:window-height="1017"
     inkscape:window-x="-8"
     inkscape:window-y="-8"
     inkscape:window-maximized="1" />
  <metadata
     id="metadata7">
    <rdf:RDF>
      <cc:Work
         rdf:about="">
        <dc:format>image/svg+xml</dc:format>
        <dc:type
           rdf:resource="http://purl.org/dc/dcmitype/StillImage" />
        <dc:title></dc:title>
      </cc:Work>
    </rdf:RDF>
  </metadata>
  <g
     inkscape:label="Layer 1"
     inkscape:groupmode="layer"
     id="layer1">
    <path
       style="fill:#000000"
       d="m 365.34958,841.93581 c -33.11797,-24.3573 -63.80127,-58.80955 -86.53261,-89.41235 -59.2156,-73.69263 -68.29255,-134.14864 -65.28466,-222.21485 0.47876,-12.52869 3.65557,-44.81939 4.79611,-48.75 1.96679,-6.77813 3.61315,-19.60537 3.13533,-24.42805 -1.71003,-6.99369 -3.98972,-14.67783 -6.78263,-20.85871 -2.35344,-5.16612 -5.48481,-23.90224 -6.06277,-36.27574 -0.48386,-10.3589 0.5325,-26.31936 2.17906,-34.21875 4.85124,-28.48706 16.01335,-47.43898 23.98927,-74.58961 1.39114,-9.97254 -3.44356,-22.73687 -12.17288,-32.13826 -5.07907,-5.47011 -8.01558,-11.54437 -8.01558,-16.58049 0,-8.07562 6.65684,-15.91039 13.51832,-15.91039 2.99493,0 9.86757,2.37827 11.80485,6.10511 1.85189,3.56256 3.55257,10.76376 1.83664,17.91656 -1.55974,6.50175 -0.46032,8.74484 6.10123,12.44795 12.85058,8.78887 24.81832,20.16205 36.23276,28.76588 26.6082,20.94132 53.50667,44.65566 74.05204,68.35825 5.37163,6.48298 10.81405,12.23555 16.08612,18.92659 1.94601,2.481 4.72549,5.98747 6.17661,7.79216 29.93056,43.87734 47.78833,84.79647 66.63522,130.78125 1.90908,4.55277 9.31953,30.47012 12.06251,42.1875 4.16301,17.78344 5.09919,23.65174 9.64671,60.46875 1.57593,12.75889 2.14192,59.45632 0.90392,74.57961 -2.5863,24.37358 -6.16909,50.8417 -9.96377,70.26414 -9.33903,27.79322 -14.89505,97.34465 -39.7097,108.1694 -19.01454,-7.88353 -39.14826,-19.96596 -54.6321,-31.38595 z m 45.03797,2.0327 c 22.24622,-36.56975 27.40612,-68.19975 38.49473,-108.3474 4.39579,-15.77378 7.49369,-44.11123 8.19914,-75 0.42402,-18.56592 0.1493,-27.55129 -1.43317,-46.875 -3.64103,-30.475 -9.09173,-55.01579 -16.16185,-83.33759 -13.39498,-36.70974 -30.36375,-68.63592 -44.34167,-98.53741 -1.39004,-3.02413 -4.08768,-7.25056 -14.12177,-22.12477 -2.89582,-2.6097 -12.92297,-19.93349 -15.66087,-20.06273 -3.05843,2.15509 2.25124,8.39428 3.49317,12.65625 6.61136,12.77342 9.43682,28.98827 15.38756,40.5596 8.46321,22.90625 10.72634,46.12692 14.12248,69.84842 2.64041,26.01158 -2.69211,57.88759 -8.25781,77.56073 -6.7045,30.60875 -23.77788,60.78239 -31.7073,87.41576 -7.63057,24.33915 -13.83009,49.39409 -9.8061,75.70924 4.80226,28.85161 20.83586,65.27218 38.26962,81.5625 3.79113,3.35156 7.44723,6.59425 8.12466,7.20598 2.96181,2.67453 10.19733,6.69218 11.29417,6.27129 0.66047,-0.25345 2.50775,-2.28064 4.10508,-4.50487 z m -62.34854,-43.35068 c 0.34556,-0.34557 -0.0822,-1.71267 -0.95061,-3.038 -1.99861,-3.05026 -5.44139,-12.31859 -8.38887,-22.58372 -4.85126,-16.89541 -7.84053,-36.04184 -7.83071,-50.15625 0.006,-8.23852 3.38325,-30.16612 6.57036,-42.65625 3.29796,-12.92453 3.34647,-12.28426 -1.17755,-15.54019 -6.24539,-2.35035 -42.4344,-38.43803 -46.72179,-33.37052 -1.35346,1.67144 -1.62449,3.3 -1.3196,7.92898 1.11159,24.21749 5.35855,49.60159 12.42233,71.91923 5.82302,18.01803 17.61187,48.1813 21.61802,55.3125 0.4345,0.77344 2.18574,3.9375 3.89165,7.03125 10.19536,18.4899 18.73538,28.30434 21.88677,25.15297 z m -56.22972,-66.48178 c 1.17978,-0.45272 1.23696,-0.98042 0.33013,-3.04687 -4.51359,-8.6052 -7.0116,-18.40443 -9.19053,-27.34307 -4.86483,-20.26958 -5.93556,-31.50133 -5.98794,-62.8125 l -0.0431,-25.78125 -3.26918,-5.14174 c -1.79805,-2.82796 -6.32777,-9.66906 -10.06606,-15.20247 -2.14013,-2.65239 -14.73156,-24.92721 -16.77984,-22.08677 -0.8761,1.41755 -0.49026,15.30479 0.7491,26.96223 0.52077,4.89844 1.31229,13.33594 1.75892,18.75 2.35622,28.05119 24.97761,118.88469 42.49852,115.70244 z m 56.6129,-83.59306 c 6.97627,-17.08076 15.57026,-35.93625 19.58396,-52.32119 1.44244,-6.16999 1.73394,-11.21606 1.70272,-29.47569 -0.0395,-23.06894 -0.89578,-29.62803 -5.07957,-38.90625 -0.93004,-2.0625 -2.62747,-6.91406 -3.77205,-10.78125 -1.82389,-6.16227 -8.32333,-21.32093 -11.45597,-26.71875 -0.59849,-1.03125 -2.52183,-4.61719 -4.2741,-7.96875 -3.24063,-6.19836 -5.56039,-9.375 -6.84615,-9.375 -0.39275,0 -1.59248,3.74148 -2.66608,8.3144 -11.0312,39.84381 -32.368,71.9157 -40.97695,113.06943 -3.32595,16.73788 -3.0425,18.19719 4.97822,25.62958 9.59708,8.00071 43.01221,36.56843 48.80597,28.53347 z M 238.19935,630.15236 c -2.42406,-22.13773 -4.91553,-45.19542 -2.93249,-67.5 0.55465,-5.15625 1.24163,-10.33334 1.52662,-11.50465 -2.57159,-10.08505 -6.34745,-20.11051 -9.20087,-29.56381 -1.67297,-5.52213 -2.20436,-6.3423 -3.94815,-6.09375 -2.01179,0.28675 -2.01473,0.32929 -1.84981,26.75232 1.29222,28.50106 1.16205,66.73998 12.14607,91.02252 0.18648,0.6856 1.2792,1.10376 2.44988,0.9375 1.85233,-0.26307 2.07566,-0.76314 1.80875,-4.05013 z M 283.03572,588.2 c 0,-2.50859 2.57926,-11.35223 9.60926,-32.94772 l 5.76599,-17.71258 -3.70324,-3.1994 c -7.41836,-5.11205 -28.52894,-24.98451 -33.42053,-25.41743 -2.34994,0.23253 -3.12583,0.86472 -3.81019,3.10449 -3.71755,8.19016 -4.39844,16.45911 -6.8914,25.01991 -3.40721,12.90474 17.59047,38.77668 22.54604,46.29864 1.35718,2.32639 9.73025,12.21603 9.90407,4.85409 z m 99.87295,-90.70389 c -1.90855,-14.20547 -6.01389,-33.66909 -8.00852,-37.96875 -5.01878,-19.38127 -13.6665,-40.23428 -20.20636,-56.25 -1.25865,-3.09375 -2.28724,-5.99656 -2.28576,-6.45069 0.005,-1.5744 -14.63803,-29.84175 -18.75534,-36.20556 -1.16163,-2.39316 -7.51526,-13.08589 -9.4223,-13.125 -2.10287,0 -1.96236,0.45541 1.61051,5.2198 1.18623,1.58184 3.39102,7.48809 4.89954,13.125 1.50852,5.63693 3.44021,12.7802 4.29264,15.87395 2.39923,8.70758 6.86046,39.10449 7.49882,51.09375 0.31572,5.92969 0.20831,13.65769 -0.23869,17.17333 -0.73091,5.74872 -0.59488,6.82237 1.35158,10.6671 23.81726,44.19633 24.09516,44.21475 38.83864,80.90957 5.01222,-3.564 1.36107,-36.69383 0.42524,-44.0625 z m -55.15614,-38.76074 c -7.16185,-9.44348 -16.83302,-19.53634 -24.78142,-27.83258 -0.90672,-1.29452 -2.37472,-1.84418 -4.92538,-1.84418 -2.9525,0 -3.75433,0.39542 -4.2774,2.10938 -11.01198,22.14728 -19.49816,38.87792 -29.06456,59.27129 -1.87296,3.94697 -1.50538,4.57859 7.17039,12.32099 13.86825,12.37627 27.22558,22.47177 30.14712,22.78527 10.80049,-20.32728 24.839,-46.43325 25.73125,-66.81017 z m -81.27551,55.41187 c 0.90298,-3.47468 2.32621,-7.36218 3.16274,-8.63889 2.94041,-4.48762 2.03249,-7.31773 -4.42087,-13.7805 -3.26801,-3.27277 -6.20789,-6.68877 -6.53308,-7.59111 -0.67797,-1.88129 -4.04884,-2.22206 -4.63686,-0.46875 -1.17584,11.67038 -0.12534,25.39288 6.39213,35.2078 2.50169,3.54913 4.23834,2.18865 6.03594,-4.72855 z m 25.3087,-62.4837 c 0,-0.57652 -4.72624,-4.99935 -11.25,-10.52776 -1.28906,-1.09239 -3.88044,-2.96769 -5.75862,-4.16732 -1.87818,-1.19965 -4.33269,-3.47012 -5.45446,-5.04551 -2.97809,-4.18232 -6.79275,-3.98234 -8.90401,0.4668 -2.85323,6.01273 -5.19549,13.77636 -5.19107,17.20625 0.76424,6.90074 12.20146,33.06288 19.1513,32.63629 5.30544,-6.01758 15.41878,-23.41066 17.40686,-30.56875 z m 56.73631,-13.4643 c -0.36843,-1.16016 -1.22181,-4.42969 -1.89639,-7.26563 -1.75816,-7.39131 -6.83643,-22.23183 -8.95531,-26.17064 -5.09007,-9.46199 -10.1059,-16.48561 -11.77299,-16.48561 -1.56495,0 -1.95151,1.44487 -3.36771,12.58777 l -1.59985,12.58776 3.0061,3.48526 c 1.65335,1.91689 4.26992,5.11178 5.81461,7.09974 6.01487,7.74095 14.9868,16.19813 17.2227,16.23456 1.8795,0.0307 2.1163,-0.28634 1.54884,-2.07321 z m -48.54787,-2.34375 c 2.91212,-5.23055 10.37033,-13.91818 7.87926,-18.74116 -1.74205,-2.12603 -22.47835,-23.76571 -25.81896,-20.87637 -1.44493,1.43172 -6.83758,10.17691 -8.56274,13.88611 -3.37473,7.2559 -3.24939,7.60916 5.9566,16.78888 7.01674,6.99673 14.21064,12.18765 17.20052,12.41143 0.3434,0.0257 1.8488,-1.5353 3.34535,-3.4689 z m -48.86437,-7.30562 c 3.94155,-7.60114 4.1126,-9.21443 1.49353,-14.08663 -4.58849,-8.53585 -11.90481,-24.86986 -12.34061,-27.55092 -0.4074,-2.50643 -0.99666,-3.32246 -2.39914,-3.32246 -1.75741,0 -1.85028,0.60218 -1.69786,11.00961 0.18419,12.57752 1.42432,21.75277 4.21398,31.17789 2.22118,7.50442 4.15773,11.05061 5.76266,10.55251 0.61166,-0.18984 2.84701,-3.69084 4.96744,-7.78 z m 61.44528,-26.01165 c 0.73368,-1.14305 1.44715,-7.29485 2.27335,-19.60166 0.5519,-8.22078 0.41262,-9.47688 -1.45528,-13.125 -2.1443,-4.18793 -13.10312,-14.81545 -15.27731,-14.81545 -0.77386,0 -1.85634,2.645 -2.87577,7.02682 -0.89914,3.86475 -2.92917,10.0874 -4.51118,13.82812 -4.49475,10.62799 -4.49892,11.57333 -0.069,15.62269 5.52371,3.80713 10.26621,9.34755 16.18859,12.51574 1.6822,0.65062 4.90105,-0.16512 5.72658,-1.45126 z m -45.60627,-3.22647 c 5.39724,-11.21051 21.35339,-37.52893 22.03051,-49.23751 -2.69212,-6.36171 -25.21604,-24.75982 -30.7046,-25.07813 -1.66755,0 -2.63569,1.08349 -4.3979,4.92188 -7.59189,18.38972 -8.53822,68.30349 9.79074,73.72839 0.26156,0.0548 1.73813,-1.89573 3.28125,-4.33463 z m 81.4357,0.58346 c -0.37765,-4.109 -2.80473,-14.35183 -4.70991,-19.87685 -4.11376,-16.70421 -10.47548,-32.69464 -20.28561,-47.08952 -2.68648,-3.85714 -5.80996,-8.38008 -6.94108,-10.05097 -3.97915,-5.87809 -6.06792,-8.19426 -7.38973,-8.19426 -1.81182,0 -3.10605,0.97522 -1.03545,3.19774 4.44071,7.38117 7.61205,16.43228 11.02579,24.45851 1.66189,3.84232 4.61221,16.88473 4.61221,20.38906 0,2.70466 0.83622,4.72483 3.28125,7.92699 3.65692,4.38734 15.51759,32.18978 20.625,30.8018 0.51562,-0.14143 0.88351,-0.84456 0.81753,-1.5625 z m -36.41217,-49.82097 c -2.57681,-9.19866 -12.78442,-39.3029 -18.11767,-42.63986 -1.73426,-0.6901 -2.42388,0.33253 -1.5422,2.28692 0.85958,1.90539 2.62895,11.22297 4.23583,22.30606 1.51564,10.45373 2.26338,12.02974 7.74968,16.33385 5.54776,4.35233 8.56106,5.02494 7.67436,1.71303 z m -22.99911,-18.41432 c -2.55895,-16.74399 -7.80445,-38.8599 -19.33806,-51.47084 -3.97975,-4.15349 -6.70368,-4.81775 -6.14414,-1.49832 1.58134,9.38136 1.07201,22.00872 -1.34075,33.23993 -0.43018,2.00242 0.0828,2.80948 3.0752,4.83803 5.55264,5.89557 13.9163,8.46791 19.10298,14.37263 1.22869,1.48048 4.64477,1.86187 4.64477,0.51857 z m -35.11364,-83.02745 c 1.45054,-1.45053 2.30114,-3.37226 2.30114,-5.19886 0,-3.5995 -3.65672,-7.5 -7.03125,-7.5 -3.37453,0 -7.03125,3.9005 -7.03125,7.5 0,3.5995 3.65672,7.5 7.03125,7.5 1.33594,0 3.46449,-1.03551 4.73011,-2.30114 z"
       id="path3347"
       inkscape:connector-curvature="0"
       sodipodi:nodetypes="cccsccsccsssssccccccssccccccsccccccccccccsscccsscsccccssccccscsccscccccssssssccccccccsccsccscccccccccccccssssscccccsccsccssssccscsssscccssssscsscscccsssccsssssscscsssssccccccccccsccssccsccsccssscccsscccssssss" />
  </g>
</svg>
