<?xml version="1.0" encoding="UTF-8" standalone="no"?>
<!-- Created with Inkscape (http://www.inkscape.org/) -->

<svg
   xmlns:dc="http://purl.org/dc/elements/1.1/"
   xmlns:cc="http://creativecommons.org/ns#"
   xmlns:rdf="http://www.w3.org/1999/02/22-rdf-syntax-ns#"
   xmlns:svg="http://www.w3.org/2000/svg"
   xmlns="http://www.w3.org/2000/svg"
   xmlns:sodipodi="http://sodipodi.sourceforge.net/DTD/sodipodi-0.dtd"
   xmlns:inkscape="http://www.inkscape.org/namespaces/inkscape"
   width="210mm"
   height="297mm"
   viewBox="0 0 744.09448819 1052.3622047"
   id="svg2"
   version="1.1"
   inkscape:version="0.91pre4 r13712"
   sodipodi:docname="earing_holes.svg">
  <defs
     id="defs4" />
  <sodipodi:namedview
     id="base"
     pagecolor="#ffffff"
     bordercolor="#666666"
     borderopacity="1.0"
     inkscape:pageopacity="0.0"
     inkscape:pageshadow="2"
     inkscape:zoom="1.979899"
     inkscape:cx="-129.5949"
     inkscape:cy="196.5933"
     inkscape:document-units="px"
     inkscape:current-layer="layer1"
     showgrid="false"
     inkscape:window-width="1920"
     inkscape:window-height="1017"
     inkscape:window-x="-8"
     inkscape:window-y="-8"
     inkscape:window-maximized="1" />
  <metadata
     id="metadata7">
    <rdf:RDF>
      <cc:Work
         rdf:about="">
        <dc:format>image/svg+xml</dc:format>
        <dc:type
           rdf:resource="http://purl.org/dc/dcmitype/StillImage" />
        <dc:title></dc:title>
      </cc:Work>
    </rdf:RDF>
  </metadata>
  <g
     inkscape:label="Layer 1"
     inkscape:groupmode="layer"
     id="layer1">
    <path
       style="color:#000000;clip-rule:nonzero;display:inline;overflow:visible;visibility:visible;opacity:1;isolation:auto;mix-blend-mode:normal;color-interpolation:sRGB;color-interpolation-filters:linearRGB;solid-color:#000000;solid-opacity:1;fill:#0000ff;fill-opacity:1;fill-rule:nonzero;stroke:#000080;stroke-width:0.1;stroke-linecap:butt;stroke-linejoin:miter;stroke-miterlimit:4;stroke-dasharray:none;stroke-dashoffset:0;stroke-opacity:1;color-rendering:auto;image-rendering:auto;shape-rendering:auto;text-rendering:auto;enable-background:accumulate"
       d="M 120.36914 825.18164 C 118.42773 825.22234 115.83588 825.5455 112.06641 825.99414 C 55.965226 837.70925 0.05078125 896.46769 0.05078125 941.24219 C 0.05078125 986.0167 41.346584 1052.3125 86.121094 1052.3125 C 130.89561 1052.3125 167.19336 1016.0168 167.19336 971.24219 C 167.19336 930.08893 152.122 863.55967 129.33203 830.71875 C 125.76056 826.37383 124.64024 825.09217 120.36914 825.18164 z M 119.79688 829.11914 A 5.2085991 5.2085991 0 0 1 125.00586 834.32617 A 5.2085991 5.2085991 0 0 1 119.79688 839.53516 A 5.2085991 5.2085991 0 0 1 114.58984 834.32617 A 5.2085991 5.2085991 0 0 1 119.79688 829.11914 z M 103.64453 840.32227 C 124.76291 839.99373 134.64315 863.76692 143.20703 887.5293 C 143.20703 900.57003 128.56149 902.30273 119.2168 902.30273 C 113.46737 901.32834 108.79415 900.97905 105.19727 900.42578 C 78.134776 896.41634 119.06558 864.51078 103.17383 850.38281 C 98.464055 845.00884 80.080638 849.55783 88.955078 843.85742 C 94.395114 841.49731 99.261471 840.39045 103.64453 840.32227 z M 90.203125 852.95312 C 98.747055 853.01252 104.26752 856.56738 98.037109 863.42188 C 93.320559 868.58524 88.40625 876.1095 88.40625 886.89844 C 88.40625 914.51408 54.408249 962.01939 33.099609 963.16406 C 11.492389 964.32477 9.109335 968.55706 9.109375 940.94141 C 9.109375 921.29581 43.431647 877.04424 71.216797 857.80273 C 77.096277 854.50834 84.357295 852.9125 90.203125 852.95312 z M 125.17773 908.76172 C 142.83134 908.76122 157.14258 931.70677 157.14258 960.01172 C 157.14256 988.31665 142.83133 1011.2622 125.17773 1011.2617 C 107.5249 1011.2617 93.214861 988.31542 93.214844 960.01172 C 93.214844 931.708 107.52489 908.76296 125.17773 908.76172 z M 82.910156 934.83594 C 83.029366 934.84494 83.142373 934.87026 83.251953 934.91406 C 89.693073 937.48915 87.584406 965.97704 87.097656 982.74219 C 86.423516 1005.9617 70.429164 1008.9469 53.214844 1009.1191 C 35.265584 1009.1191 20.714834 1000.5643 20.714844 990.01172 C 20.714844 979.45914 24.103484 974.11914 42.052734 974.11914 C 44.258984 974.11914 60.423613 967.17668 63.939453 961.74219 C 70.979353 950.86052 79.214446 934.56897 82.910156 934.83594 z M 94.650391 1007.4883 C 104.20804 1007.3031 109.6137 1016.1548 115.95703 1018.9551 C 121.7577 1021.5157 134.69337 1020.1473 134.69336 1024.125 C 134.69333 1032.9023 112.26033 1044.6895 90.662109 1044.6895 C 69.063879 1044.6895 48.526993 1031.2721 43.095703 1024.377 C 38.550013 1018.6061 41.605532 1013.8374 52.576172 1015.9844 C 62.227822 1017.8735 76.631702 1011.0083 91.544922 1007.8516 C 92.628162 1007.6223 93.661671 1007.5075 94.650391 1007.4883 z "
       id="path3349-8" />
    <path
       style="color:#000000;clip-rule:nonzero;display:inline;overflow:visible;visibility:visible;opacity:1;isolation:auto;mix-blend-mode:normal;color-interpolation:sRGB;color-interpolation-filters:linearRGB;solid-color:#000000;solid-opacity:1;fill:#00ff00;fill-opacity:1;fill-rule:nonzero;stroke:#000080;stroke-width:0.1;stroke-linecap:butt;stroke-linejoin:miter;stroke-miterlimit:4;stroke-dasharray:none;stroke-dashoffset:0;stroke-opacity:1;color-rendering:auto;image-rendering:auto;shape-rendering:auto;text-rendering:auto;enable-background:accumulate"
       d="M 120.36914 825.18164 C 118.42773 825.22234 115.83588 825.54551 112.06641 825.99414 C 55.965226 837.70925 0.05078125 896.46573 0.05078125 941.24023 C 0.05078125 986.01474 41.346584 1052.3125 86.121094 1052.3125 C 130.89561 1052.3125 167.19336 1016.0148 167.19336 971.24023 C 167.19336 930.08697 152.122 863.55968 129.33203 830.71875 C 125.76056 826.37383 124.64024 825.09218 120.36914 825.18164 z M 119.79688 829.11719 A 5.2085004 5.2085996 0 0 1 125.00586 834.32617 A 5.2085004 5.2085996 0 0 1 119.79688 839.53516 A 5.2085004 5.2085996 0 0 1 114.58984 834.32617 A 5.2085004 5.2085996 0 0 1 119.79688 829.11719 z M 106.33008 845.97656 A 77.032951 27.641739 78.43098 0 1 148.50781 918.18945 A 77.032951 27.641739 78.43098 0 1 135.66406 997.16797 A 77.032951 27.641739 78.43098 0 1 93.486328 924.95312 A 77.032951 27.641739 78.43098 0 1 106.33008 845.97656 z M 85.226562 848.57031 C 89.022723 848.47391 85.149358 857.87562 81.861328 877.91211 C 76.676088 904.25598 83.269416 934.10739 84.503906 948.85547 C 86.963906 967.18233 82.768364 967.04217 77.865234 968.38086 C 66.339734 970.16837 54.175026 974.56204 35.134766 974.60547 C 11.232166 974.65997 11.143752 973.03595 10.638672 945.31055 C 13.654622 902.40658 44.530091 867.60844 82.275391 849.59375 C 83.556731 848.93166 84.523572 848.58816 85.226562 848.57031 z M 70.611328 975.9707 C 78.747568 975.8832 88.050177 977.93535 97.648438 982.29102 C 121.27492 993.01265 129.1572 1012.63 122.10742 1027.3535 C 115.05765 1042.0771 95.745631 1046.331 72.119141 1035.6094 C 48.492661 1024.8877 38.084996 1004.2607 45.134766 989.53711 C 49.320566 980.79499 58.719898 976.0985 70.611328 975.9707 z "
       id="path3349-83" />
    <path
       style="color:#000000;clip-rule:nonzero;display:inline;overflow:visible;visibility:visible;opacity:1;isolation:auto;mix-blend-mode:normal;color-interpolation:sRGB;color-interpolation-filters:linearRGB;solid-color:#000000;solid-opacity:1;fill:#ffff00;fill-opacity:1;fill-rule:nonzero;stroke:#000080;stroke-width:0.1;stroke-linecap:butt;stroke-linejoin:miter;stroke-miterlimit:4;stroke-dasharray:none;stroke-dashoffset:0;stroke-opacity:1;color-rendering:auto;image-rendering:auto;shape-rendering:auto;text-rendering:auto;enable-background:accumulate"
       d="M 120.36914 825.18164 C 118.42774 825.22234 115.83588 825.54551 112.06641 825.99414 C 55.965226 837.70925 0.05078125 896.46572 0.05078125 941.24023 C 0.05078125 986.01474 41.346584 1052.3125 86.121094 1052.3125 C 130.89561 1052.3125 167.19336 1016.0148 167.19336 971.24023 C 167.19336 930.08697 152.122 863.55967 129.33203 830.71875 C 125.76055 826.37383 124.64025 825.09218 120.36914 825.18164 z M 119.79688 829.11719 A 5.2085991 5.2085991 0 0 1 125.00586 834.32617 A 5.2085991 5.2085991 0 0 1 119.79688 839.53516 A 5.2085991 5.2085991 0 0 1 114.58984 834.32617 A 5.2085991 5.2085991 0 0 1 119.79688 829.11719 z M 109.91406 845.13477 A 16.128539 37.820461 72.420458 0 1 129.51758 852.91797 A 16.128539 37.820461 72.420458 0 1 98.164062 879.69922 A 16.128539 37.820461 72.420458 0 1 57.369141 875.63672 A 16.128539 37.820461 72.420458 0 1 88.720703 848.85352 A 16.128539 37.820461 72.420458 0 1 109.91406 845.13477 z M 95.533203 892.19336 A 40.73506 71.525974 78.129859 0 1 152.58203 920.0957 A 40.73506 71.525974 78.129859 0 1 90.623047 974.5625 A 40.73506 71.525974 78.129859 0 1 12.517578 949.17188 A 40.73506 71.525974 78.129859 0 1 74.476562 894.70508 A 40.73506 71.525974 78.129859 0 1 95.533203 892.19336 z M 92.013672 983.74219 A 43.391262 29.284119 0 0 1 135.40625 1013.0273 A 43.391262 29.284119 0 0 1 92.013672 1042.3105 A 43.391262 29.284119 0 0 1 48.623047 1013.0273 A 43.391262 29.284119 0 0 1 92.013672 983.74219 z "
       id="path3349" />
  </g>
</svg>
