<?xml version="1.0" encoding="UTF-8" standalone="no"?>
<svg
   xmlns:dc="http://purl.org/dc/elements/1.1/"
   xmlns:cc="http://creativecommons.org/ns#"
   xmlns:rdf="http://www.w3.org/1999/02/22-rdf-syntax-ns#"
   xmlns:svg="http://www.w3.org/2000/svg"
   xmlns="http://www.w3.org/2000/svg"
   xmlns:sodipodi="http://sodipodi.sourceforge.net/DTD/sodipodi-0.dtd"
   xmlns:inkscape="http://www.inkscape.org/namespaces/inkscape"
   version="1.0"
   width="232.000000pt"
   height="270.000000pt"
   viewBox="0 0 232.000000 270.000000"
   preserveAspectRatio="xMidYMid meet"
   id="svg2"
   inkscape:version="0.48.4 r9939"
   sodipodi:docname="3.svg">
  <defs
     id="defs12" />
  <sodipodi:namedview
     pagecolor="#ffffff"
     bordercolor="#666666"
     borderopacity="1"
     objecttolerance="10"
     gridtolerance="10"
     guidetolerance="10"
     inkscape:pageopacity="0"
     inkscape:pageshadow="2"
     inkscape:window-width="640"
     inkscape:window-height="480"
     id="namedview10"
     showgrid="false"
     inkscape:zoom="0.98890193"
     inkscape:cx="197.5038"
     inkscape:cy="207.03732"
     inkscape:current-layer="svg2" />
  <metadata
     id="metadata4">
Created by potrace 1.11, written by Peter Selinger 2001-2013
<rdf:RDF>
  <cc:Work
     rdf:about="">
    <dc:format>image/svg+xml</dc:format>
    <dc:type
       rdf:resource="http://purl.org/dc/dcmitype/StillImage" />
  </cc:Work>
</rdf:RDF>
</metadata>
  <g
     transform="translate(0.000000,270.000000) scale(0.100000,-0.100000)"
     fill="#000000"
     stroke="none"
     id="g6"
     style="fill:none;stroke:#000000">
    <path
       d="M0 1350 l0 -1350 1160 0 1160 0 0 1350 0 1350 -1160 0 -1160 0 0 -1350z m1210 1179 c0 -18 -2 -19 -15 -9 -15 12 -12 30 6 30 5 0 9 -10 9 -21z m55 -19 c-3 -5 -10 -10 -16 -10 -5 0 -9 5 -9 10 0 6 7 10 16 10 8 0 12 -4 9 -10z m-85 -30 c0 -11 -4 -20 -9 -20 -11 0 -22 26 -14 34 12 12 23 5 23 -14z m144 -5 c-7 -17 -20 -20 -28 -6 -7 10 3 21 20 21 8 0 11 -6 8 -15z m-64 -24 c0 -6 -4 -13 -10 -16 -5 -3 -10 1 -10 9 0 9 5 16 10 16 6 0 10 -4 10 -9z m64 -102 c-18 -20 -18 -20 -26 0 -4 12 0 37 10 62 l17 43 8 -43 c7 -35 5 -46 -9 -62z m-179 26 c0 -29 -3 -51 -6 -49 -11 6 -20 74 -14 95 11 33 20 11 20 -46z m54 -15 c0 -12 -3 -11 -14 3 -7 11 -11 26 -8 35 6 13 8 13 14 -4 4 -10 8 -26 8 -34z m57 -6 c-3 -9 -6 -18 -6 -20 0 -3 -4 -3 -10 1 -11 7 -2 35 12 35 6 0 7 -7 4 -16z m-161 -4 c8 -12 -3 -50 -15 -50 -10 0 -21 40 -14 52 7 11 22 10 29 -2z m289 -9 c7 -10 -3 -41 -13 -41 -3 0 -12 4 -20 9 -12 8 -12 12 -2 25 15 18 27 20 35 7z m76 -49 c0 -29 -31 -68 -43 -55 -11 11 -8 58 5 71 21 21 38 14 38 -16z m-406 2 c16 -16 21 -34 9 -34 -10 0 -43 32 -43 42 0 13 17 9 34 -8z m126 -4 c-6 -11 -15 -20 -20 -20 -16 0 -11 18 8 29 24 14 24 14 12 -9z m110 -22 c1 -36 2 -40 11 -24 9 15 13 16 20 5 23 -36 -11 -99 -46 -86 -25 10 -20 147 6 147 5 0 9 -19 9 -42z m-50 7 c0 -8 -4 -15 -10 -15 -5 0 -10 7 -10 15 0 8 5 15 10 15 6 0 10 -7 10 -15z m-120 -10 c0 -8 -4 -15 -10 -15 -5 0 -7 7 -4 15 4 8 8 15 10 15 2 0 4 -7 4 -15z m263 9 c3 -4 1 -16 -4 -27 -9 -16 -13 -17 -20 -6 -13 21 -11 39 4 39 8 0 17 -3 20 -6z m-208 -33 c3 -5 1 -12 -5 -16 -5 -3 -10 1 -10 9 0 18 6 21 15 7z m-195 -11 c0 -5 -2 -10 -4 -10 -3 0 -8 5 -11 10 -3 6 -1 10 4 10 6 0 11 -4 11 -10z m80 1 c0 -12 -29 -23 -41 -15 -5 3 -7 10 -4 15 8 12 45 12 45 0z m74 -61 c5 -32 5 -34 -9 -16 -8 11 -15 31 -15 45 0 34 16 15 24 -29z m100 28 c9 -36 7 -39 -13 -28 -13 6 -17 17 -14 30 7 27 19 25 27 -2z m-135 -41 c1 -5 -3 -5 -9 -2 -5 3 -10 16 -9 28 0 21 1 21 9 2 5 -11 9 -24 9 -28z m386 17 c-11 -8 -26 -12 -33 -9 -8 3 -18 5 -23 5 -6 0 -8 4 -5 8 3 5 22 9 43 10 36 1 37 0 18 -14z m-555 -9 c0 -8 -4 -15 -9 -15 -5 0 -11 7 -15 15 -3 9 0 15 9 15 8 0 15 -7 15 -15z m247 -7 c-3 -8 -6 -5 -6 6 -1 11 2 17 5 13 3 -3 4 -12 1 -19z m209 -15 c-11 -11 -19 6 -11 24 8 17 8 17 12 0 3 -10 2 -21 -1 -24z m-396 11 c0 -8 -4 -12 -10 -9 -5 3 -10 10 -10 16 0 5 5 9 10 9 6 0 10 -7 10 -16z m490 -14 c0 -5 -7 -10 -15 -10 -8 0 -23 -9 -32 -20 -10 -11 -21 -20 -25 -20 -14 0 -9 23 9 42 17 19 63 25 63 8z m-242 -31 c-12 -16 -24 -26 -26 -20 -5 16 17 51 34 51 11 0 10 -7 -8 -31z m87 21 c3 -5 -1 -10 -9 -10 -9 0 -16 5 -16 10 0 6 4 10 9 10 6 0 13 -4 16 -10z m-224 -16 c10 -13 10 -17 -1 -24 -15 -9 -30 4 -30 28 0 17 15 15 31 -4z m469 -4 c-12 -23 -30 -27 -30 -7 0 17 10 27 27 27 11 0 11 -5 3 -20z m-604 -1 c3 -6 2 -15 -4 -21 -7 -7 -14 -3 -21 11 -10 17 -9 21 3 21 8 0 18 -5 22 -11z m64 -4 c0 -8 -2 -15 -4 -15 -2 0 -6 7 -10 15 -3 8 -1 15 4 15 6 0 10 -7 10 -15z m480 0 c-7 -8 -17 -15 -22 -15 -6 0 -5 7 2 15 7 8 17 15 22 15 6 0 5 -7 -2 -15z m-130 -21 c0 -8 -4 -14 -10 -14 -5 0 -10 9 -10 21 0 11 5 17 10 14 6 -3 10 -13 10 -21z m-249 -57 c-13 -13 -15 31 -3 60 5 14 8 10 10 -16 2 -18 -1 -38 -7 -44z m180 55 c10 2 14 -9 14 -37 0 -50 -21 -53 -48 -7 -21 36 -17 72 7 53 8 -7 20 -10 27 -9z m299 0 c0 -4 -5 -13 -12 -20 -7 -7 -16 -12 -20 -12 -13 0 -9 28 5 33 19 8 27 8 27 -1z m-590 -23 c0 -6 -4 -7 -10 -4 -5 3 -10 11 -10 16 0 6 5 7 10 4 6 -3 10 -11 10 -16z m-32 -24 c-3 -3 -9 2 -12 12 -6 14 -5 15 5 6 7 -7 10 -15 7 -18z m192 0 c0 -16 -6 -25 -16 -25 -11 0 -14 5 -10 16 3 9 6 20 6 25 0 5 5 9 10 9 6 0 10 -11 10 -25z m-245 -5 c4 -12 1 -28 -6 -36 -11 -13 -14 -13 -27 -1 -17 17 -8 57 13 57 8 0 17 -9 20 -20z m165 13 c0 -5 -4 -15 -10 -23 -11 -18 -25 -7 -17 15 6 15 27 21 27 8z m143 -15 c13 -20 2 -48 -18 -48 -11 0 -15 10 -15 36 0 37 14 42 33 12z m287 1 c-12 -21 -31 -22 -37 -2 -4 10 11 18 40 22 4 0 3 -8 -3 -20z m-70 1 c0 -5 -9 -10 -19 -10 -11 0 -23 5 -26 10 -4 6 5 10 19 10 14 0 26 -4 26 -10z m-430 -4 c0 -3 -4 -8 -10 -11 -5 -3 -10 -1 -10 4 0 6 5 11 10 11 6 0 10 -2 10 -4z m560 -16 c0 -12 -28 -25 -36 -17 -9 9 6 27 22 27 8 0 14 -5 14 -10z m-736 -17 c4 -9 1 -20 -6 -25 -17 -10 -18 -10 -48 7 -19 10 -21 15 -10 18 8 3 22 8 30 10 25 9 28 8 34 -10z m512 -41 c-14 -14 -16 -14 -22 2 -4 10 1 25 12 38 l19 20 3 -22 c2 -12 -3 -30 -12 -38z m91 42 c-3 -3 -12 -4 -19 -1 -8 3 -5 6 6 6 11 1 17 -2 13 -5z m-457 -14 c0 -5 -7 -10 -15 -10 -8 0 -15 5 -15 10 0 6 7 10 15 10 8 0 15 -4 15 -10z m170 -4 c0 -8 -4 -17 -9 -21 -12 -7 -24 12 -16 25 9 15 25 12 25 -4z m-423 -33 c-11 -10 -26 8 -20 23 5 15 7 14 15 -1 6 -9 7 -19 5 -22z m381 1 c3 -28 3 -28 -12 -9 -19 24 -21 48 -3 43 6 -3 13 -18 15 -34z m402 25 c0 -21 -51 -78 -66 -72 -20 8 -17 40 6 63 21 21 60 27 60 9z m110 1 c0 -5 -12 -10 -26 -10 -14 0 -23 4 -19 10 3 6 15 10 26 10 10 0 19 -4 19 -10z m-354 -32 c-9 -45 -23 -57 -32 -24 -4 16 -1 32 6 41 21 25 33 17 26 -17z m-61 12 c-3 -5 -11 -10 -16 -10 -6 0 -7 5 -4 10 3 6 11 10 16 10 6 0 7 -4 4 -10z m175 -11 c-7 -11 -14 -19 -16 -16 -7 7 7 37 17 37 6 0 5 -9 -1 -21z m-442 -1 c7 -7 12 -21 12 -32 0 -18 -1 -18 -25 4 -13 12 -22 27 -19 31 7 12 18 11 32 -3z m120 -22 c22 -45 -1 -54 -27 -11 -25 44 -26 47 -4 43 10 -2 24 -16 31 -32z m482 15 c0 -10 -7 -21 -15 -25 -16 -6 -19 3 -9 28 8 22 24 20 24 -3z m-697 2 c-7 -2 -19 -2 -25 0 -7 3 -2 5 12 5 14 0 19 -2 13 -5z m478 -46 c-14 -37 -31 -34 -31 6 0 41 9 52 27 34 10 -10 11 -20 4 -40z m306 37 c3 -9 0 -20 -8 -25 -23 -14 -29 -11 -29 16 0 28 27 35 37 9z m-862 -14 c3 -5 1 -10 -4 -10 -6 0 -11 5 -11 10 0 6 2 10 4 10 3 0 8 -4 11 -10z m385 -18 c0 -15 -2 -15 -10 -2 -13 20 -13 33 0 25 6 -3 10 -14 10 -23z m240 7 c-12 -21 -37 -35 -47 -25 -6 6 36 45 50 46 4 0 3 -9 -3 -21z m-373 -26 c-11 -10 -26 8 -20 23 5 15 7 14 15 -1 6 -9 7 -19 5 -22z m203 22 c0 -16 -27 -32 -37 -22 -3 4 -3 13 0 22 8 20 37 20 37 0z m-393 -1 c-3 -3 -12 -4 -19 -1 -8 3 -5 6 6 6 11 1 17 -2 13 -5z m-72 -34 c3 -5 2 -10 -4 -10 -5 0 -13 5 -16 10 -3 6 -2 10 4 10 5 0 13 -4 16 -10z m190 1 c10 -17 -12 -21 -25 -6 -10 12 -10 15 3 15 9 0 18 -4 22 -9z m178 -22 c9 -17 17 -38 17 -46 0 -14 -3 -13 -21 3 -27 24 -42 52 -34 64 10 16 19 11 38 -21z m407 17 c0 -19 -7 -23 -53 -31 -35 -7 -37 -6 -37 19 0 24 3 26 45 26 33 0 45 -4 45 -14z m106 -1 c-22 -17 -52 -20 -60 -6 -9 14 5 21 43 21 34 -1 35 -2 17 -15z m-806 -5 c0 -5 -7 -10 -15 -10 -8 0 -15 5 -15 10 0 6 7 10 15 10 8 0 15 -4 15 -10z m386 -28 c-23 -23 -33 -6 -10 19 12 13 20 16 22 9 3 -7 -3 -19 -12 -28z m164 18 c-30 -23 -50 -26 -50 -6 0 15 19 23 55 25 18 0 18 -1 -5 -19z m-106 -17 c-6 -27 -29 -53 -46 -53 -10 0 8 37 30 63 21 23 23 22 16 -10z m-244 -18 c-16 -19 -36 -19 -44 0 -4 10 2 19 17 24 28 11 44 -3 27 -24z m740 27 c0 -13 -69 -42 -75 -32 -3 5 5 16 17 24 24 17 58 21 58 8z m-142 -24 c-18 -27 -61 -31 -66 -6 -2 12 5 18 30 21 18 2 37 5 42 5 5 1 2 -8 -6 -20z m-898 -8 c23 -23 26 -50 6 -50 -14 0 -46 41 -46 60 0 16 18 12 40 -10z m194 10 c32 -12 34 -30 3 -30 -23 0 -47 17 -47 32 0 11 13 10 44 -2z m476 2 c0 -13 -61 -55 -68 -47 -4 4 7 18 23 31 31 25 45 30 45 16z m-312 -20 c2 -7 -2 -10 -12 -6 -9 3 -16 11 -16 16 0 13 23 5 28 -10z m216 -24 c-6 -35 -33 -58 -69 -58 -22 0 -18 28 5 35 11 3 29 20 41 36 26 37 30 34 23 -13z m221 32 c3 -6 -4 -10 -17 -10 -18 0 -20 2 -8 10 19 12 18 12 25 0z m-885 -16 c0 -8 -4 -12 -10 -9 -5 3 -10 10 -10 16 0 5 5 9 10 9 6 0 10 -7 10 -16z m180 3 c0 -14 -19 -37 -31 -37 -5 0 -5 37 0 48 4 9 31 0 31 -11z m640 -12 c10 -12 10 -18 0 -30 -26 -32 -50 -12 -34 29 8 20 18 20 34 1z m215 -23 c-22 -5 -29 3 -21 25 7 17 8 17 22 -2 13 -18 13 -20 -1 -23z m-788 17 c17 -17 5 -43 -13 -28 -15 12 -19 39 -6 39 4 0 13 -5 19 -11z m893 1 c0 -11 -39 -34 -46 -27 -6 6 25 37 37 37 5 0 9 -4 9 -10z m-380 -7 c-1 -18 -19 -35 -29 -28 -9 5 -9 10 0 21 12 15 29 19 29 7z m157 -9 c8 -22 -36 -66 -59 -58 -13 4 -18 0 -18 -15 0 -24 -13 -33 -34 -25 -23 9 -19 41 7 55 12 7 35 23 50 35 33 28 45 30 54 8z m-452 -5 c4 -5 4 -22 0 -37 -6 -26 -7 -26 -21 -8 -8 11 -14 28 -14 38 0 19 25 25 35 7z m-147 -37 c3 -33 -8 -41 -26 -19 -14 16 -4 59 12 54 6 -2 12 -18 14 -35z m106 -15 c14 -25 21 -49 17 -52 -5 -2 -18 17 -30 44 -34 80 -27 85 13 8z m-369 33 c12 -20 -6 -50 -31 -50 -24 0 -30 13 -18 44 7 18 39 22 49 6z m908 -27 c5 -26 3 -33 -9 -33 -21 0 -28 24 -14 50 14 26 15 25 23 -17z m-1007 18 c-3 -5 -15 -7 -26 -4 -28 7 -25 13 6 13 14 0 23 -4 20 -9z m424 -26 c0 -13 -4 -27 -10 -30 -6 -4 -10 8 -10 30 0 22 4 34 10 30 6 -3 10 -17 10 -30z m144 19 c3 -9 6 -23 6 -32 -1 -14 -5 -12 -20 7 -11 13 -20 27 -20 32 0 15 28 10 34 -7z m-334 -4 c0 -5 -4 -10 -10 -10 -5 0 -10 5 -10 10 0 6 5 10 10 10 6 0 10 -4 10 -10z m857 -27 c-17 -17 -51 -10 -45 9 5 15 52 28 57 15 2 -5 -4 -16 -12 -24z m103 22 c0 -14 -29 -35 -49 -35 -12 0 -15 33 -4 43 13 13 53 7 53 -8z m100 5 c-20 -13 -40 -13 -40 0 0 6 12 10 28 10 21 0 24 -2 12 -10z m-530 -9 c0 -6 -4 -13 -10 -16 -5 -3 -10 1 -10 9 0 9 5 16 10 16 6 0 10 -4 10 -9z m-40 -6 c0 -3 -7 -21 -14 -40 -17 -39 -41 -49 -31 -12 4 12 9 30 11 40 5 15 34 26 34 12z m-573 -11 c-3 -3 -12 -4 -19 -1 -8 3 -5 6 6 6 11 1 17 -2 13 -5z m177 -16 c14 -20 13 -38 -2 -38 -4 0 -16 14 -25 30 -15 25 -16 30 -3 30 8 0 22 -10 30 -22z m334 10 c-6 -18 -28 -21 -28 -4 0 9 7 16 16 16 9 0 14 -5 12 -12z m118 -59 l-14 -34 -1 33 c-1 18 5 43 11 55 l13 22 3 -21 c2 -12 -4 -37 -12 -55z m554 56 c0 -11 -12 -15 -45 -15 -57 0 -59 18 -2 23 23 2 43 4 45 5 1 1 2 -5 2 -13z m-370 -2 c0 -12 -33 -43 -47 -43 -11 0 -10 5 3 25 15 23 44 35 44 18z m-397 -21 c11 -12 13 -22 7 -32 -8 -13 -13 -12 -31 6 -12 12 -18 27 -15 33 10 16 20 14 39 -7z m-383 -7 c7 -9 10 -18 7 -21 -6 -7 -47 18 -47 28 0 14 27 9 40 -7z m290 -58 c0 -16 -2 -16 -24 -2 -31 20 -40 43 -25 62 10 11 15 9 30 -14 11 -15 19 -36 19 -46z m621 41 c-28 -22 -51 -23 -51 -3 0 8 9 15 19 15 11 0 23 5 26 10 4 6 11 7 17 4 7 -5 3 -14 -11 -26z m-1210 12 c21 -12 26 -40 6 -40 -17 0 -37 20 -37 37 0 16 5 16 31 3z m54 0 c3 -5 2 -10 -4 -10 -5 0 -13 5 -16 10 -3 6 -2 10 4 10 5 0 13 -4 16 -10z m55 6 c0 -3 -4 -8 -10 -11 -5 -3 -10 -1 -10 4 0 6 5 11 10 11 6 0 10 -2 10 -4z m748 -8 c-2 -6 -10 -14 -16 -16 -7 -2 -10 2 -6 12 7 18 28 22 22 4z m429 -8 c-14 -11 -28 -20 -32 -20 -10 0 38 39 49 40 5 0 -3 -9 -17 -20z m-882 -27 c26 -39 18 -57 -13 -31 -9 8 -25 18 -34 21 -18 6 -24 28 -11 40 15 15 34 5 58 -30z m360 -2 c-4 -17 -11 -31 -16 -31 -14 0 -11 58 4 63 18 6 20 2 12 -32z m225 18 c0 -9 -33 -29 -49 -29 -11 0 -15 32 -6 42 8 8 55 -3 55 -13z m130 17 c0 -20 -16 -36 -36 -36 -28 0 -30 8 -6 26 16 13 42 19 42 10z m286 -17 c9 -15 -23 -10 -35 5 -10 12 -8 13 9 9 11 -3 23 -9 26 -14z m114 12 c0 -7 -51 -31 -66 -31 -10 0 -2 29 9 33 21 9 57 7 57 -2z m-1331 -25 c17 -18 19 -26 10 -32 -7 -4 -19 2 -31 16 -34 42 -17 56 21 16z m36 14 c3 -5 1 -10 -4 -10 -6 0 -11 5 -11 10 0 6 2 10 4 10 3 0 8 -4 11 -10z m450 -37 c9 -13 15 -27 12 -29 -8 -9 -54 15 -61 31 -16 41 22 40 49 -2z m650 15 c-16 -52 -85 -91 -98 -55 -8 23 4 37 28 31 18 -4 27 0 40 20 21 32 39 34 30 4z m-1020 -28 c4 -6 -8 -10 -29 -10 -24 0 -36 5 -36 14 0 27 47 24 65 -4z m188 -1 c10 -18 15 -34 11 -38 -8 -8 -44 37 -44 55 0 23 14 16 33 -17z m340 -5 c-16 -25 -53 -33 -53 -12 0 21 31 46 50 41 18 -5 18 -7 3 -29z m167 7 c0 -22 -15 -35 -30 -26 -7 4 -7 13 0 26 14 25 30 25 30 0z m103 2 c13 -8 -14 -33 -34 -33 -16 0 -39 27 -39 45 0 7 58 -3 73 -12z m-1053 -3 c0 -5 -7 -10 -15 -10 -8 0 -15 5 -15 10 0 6 7 10 15 10 8 0 15 -4 15 -10z m824 -37 c-5 -14 -14 -28 -20 -30 -20 -7 -24 28 -6 52 22 30 40 16 26 -22z m306 43 c0 -3 -4 -8 -10 -11 -5 -3 -10 -1 -10 4 0 6 5 11 10 11 6 0 10 -2 10 -4z m354 -2 c28 -11 18 -34 -13 -34 -46 0 -64 10 -50 26 12 15 37 18 63 8z m-1554 -14 c12 -8 11 -10 -5 -9 -11 1 -31 5 -45 9 -24 8 -24 8 5 9 17 0 37 -4 45 -9z m580 -9 c14 -27 13 -41 -4 -41 -8 0 -16 13 -18 30 -5 34 6 40 22 11z m385 -6 c0 -10 -6 -20 -12 -22 -8 -3 -13 5 -13 22 0 17 5 25 13 23 6 -3 12 -13 12 -23z m465 6 c0 -14 -31 -22 -45 -11 -6 5 -14 7 -17 4 -3 -3 -9 -1 -13 5 -4 7 8 11 34 11 23 0 41 -4 41 -9z m-1259 -19 c13 -12 18 -21 12 -25 -6 -4 -16 0 -23 8 -7 8 -23 15 -37 15 -14 0 -21 4 -18 10 10 16 41 12 66 -8z m525 -4 c4 -5 -6 -8 -22 -6 -15 2 -29 8 -31 14 -5 14 44 6 53 -8z m524 7 c0 -21 -51 -40 -61 -23 -5 8 2 16 24 24 18 6 33 12 35 13 1 0 2 -6 2 -14z m-966 -8 c11 -8 17 -20 14 -27 -3 -9 -13 -5 -33 13 -32 28 -15 39 19 14z m90 -12 c8 -21 -3 -45 -20 -45 -12 0 -34 37 -34 56 0 12 49 2 54 -11z m699 -25 c-16 -27 -16 -30 0 -48 19 -21 22 -42 7 -42 -5 0 -19 18 -31 41 l-20 41 22 24 c29 31 44 20 22 -16z m-575 13 c5 -17 -21 -19 -76 -7 -36 7 -17 20 29 20 25 -1 44 -6 47 -13z m295 -3 c-3 -11 -7 -20 -9 -20 -2 0 -4 9 -4 20 0 11 4 20 9 20 5 0 7 -9 4 -20z m49 8 c6 -17 -35 -130 -47 -129 -18 1 -16 50 4 96 19 44 35 57 43 33z m565 -4 c5 -15 -51 -44 -66 -35 -9 6 -6 14 15 30 27 22 45 23 51 5z m63 6 c0 -5 -5 -10 -11 -10 -5 0 -7 5 -4 10 3 6 8 10 11 10 2 0 4 -4 4 -10z m138 -17 c4 -15 -44 -36 -61 -27 -24 14 -46 37 -42 43 7 12 98 -3 103 -16z m-1444 11 c29 -11 16 -25 -21 -22 -42 3 -59 28 -20 28 14 0 32 -3 41 -6z m964 -30 c-4 -23 -26 -30 -34 -10 -8 20 15 51 29 37 5 -5 7 -17 5 -27z m-438 9 c41 -28 55 -63 26 -63 -16 0 -76 56 -76 71 0 14 23 11 50 -8z m590 10 c-1 -11 -26 -43 -34 -43 -10 0 -7 25 6 38 13 13 28 16 28 5z m-409 -58 c-19 -41 -34 -46 -25 -7 13 60 15 64 29 52 10 -8 9 -17 -4 -45z m326 30 c7 -20 -2 -29 -21 -22 -9 4 -13 13 -10 22 8 19 23 19 31 0z m250 -10 c-7 -17 -47 -21 -47 -5 0 11 41 31 49 24 2 -2 1 -10 -2 -19z m223 10 c-7 -8 -24 -15 -39 -15 l-26 1 25 14 c35 20 57 20 40 0z m-1600 -10 c0 -8 -4 -15 -10 -15 -5 0 -10 7 -10 15 0 8 5 15 10 15 6 0 10 -7 10 -15z m180 0 c7 -9 10 -18 7 -21 -7 -8 -47 14 -47 26 0 15 26 12 40 -5z m75 -36 c-12 -18 -31 -8 -42 21 l-11 30 29 -21 c16 -11 27 -25 24 -30z m268 13 c24 -41 15 -54 -23 -35 -20 10 -30 22 -30 37 0 47 25 46 53 -2z m407 28 c0 -15 -38 -50 -55 -50 -38 0 6 55 48 59 4 1 7 -3 7 -9z m-976 -21 c-3 -5 -10 -7 -15 -3 -5 3 -7 10 -3 15 3 5 10 7 15 3 5 -3 7 -10 3 -15z m414 3 c3 -9 -2 -13 -14 -10 -9 1 -19 9 -22 16 -3 9 2 13 14 10 9 -1 19 -9 22 -16z m62 3 c0 -8 -9 -15 -20 -15 -20 0 -26 11 -13 23 12 13 33 7 33 -8z m160 -27 c0 -30 -25 -15 -28 17 -3 25 -2 27 12 16 9 -8 16 -22 16 -33z m662 27 c0 -5 -5 -11 -11 -13 -6 -2 -11 4 -11 13 0 9 5 15 11 13 6 -2 11 -8 11 -13z m-1144 -7 c-3 -7 -11 -13 -18 -13 -7 0 -15 6 -17 13 -3 7 4 12 17 12 13 0 20 -5 18 -12z m1319 -13 c-4 -8 -11 -15 -17 -15 -14 0 -13 27 3 33 16 6 21 1 14 -18z m57 9 c23 -9 20 -34 -3 -34 -22 0 -35 15 -26 30 7 12 8 12 29 4z m-644 -13 c0 -6 -4 -13 -10 -16 -5 -3 -10 1 -10 9 0 9 5 16 10 16 6 0 10 -4 10 -9z m120 -16 c0 -25 -41 -55 -75 -55 -23 0 -18 10 23 46 45 40 52 41 52 9z m363 11 c20 -16 14 -23 -33 -36 -16 -5 -32 -5 -35 0 -3 4 5 11 18 15 13 4 17 8 9 12 -14 6 -6 23 11 23 7 0 20 -7 30 -14z m295 8 c28 -8 28 -21 2 -29 -21 -7 -50 9 -50 26 0 10 16 11 48 3z m-498 -8 c0 -2 -9 -6 -20 -9 -11 -3 -20 -1 -20 4 0 5 9 9 20 9 11 0 20 -2 20 -4z m91 -30 c-27 -12 -38 -1 -21 19 10 12 16 13 27 3 13 -11 12 -14 -6 -22z m-1076 14 c-3 -5 -11 -10 -16 -10 -6 0 -7 5 -4 10 3 6 11 10 16 10 6 0 7 -4 4 -10z m45 0 c0 -5 -2 -10 -4 -10 -3 0 -8 5 -11 10 -3 6 -1 10 4 10 6 0 11 -4 11 -10z m1380 -11 c0 -5 -10 -9 -21 -9 -18 0 -19 2 -9 15 12 15 30 12 30 -6z m-1651 -5 c10 -9 -6 -11 -36 -7 -18 3 -33 9 -33 14 0 8 59 1 69 -7z m121 1 c0 -10 -10 -15 -29 -15 -32 0 -50 15 -29 23 27 11 58 7 58 -8z m338 -2 c2 -8 -6 -13 -22 -13 -25 0 -33 10 -19 24 10 10 36 3 41 -11z m302 -38 c0 -44 -7 -44 -26 0 -20 48 -19 58 6 45 14 -8 20 -21 20 -45z m-370 19 c6 -14 7 -30 4 -35 -9 -14 -44 20 -44 43 0 27 29 22 40 -8z m530 -9 c0 -30 -10 -55 -21 -55 -10 0 -12 73 -3 83 12 11 24 -3 24 -28z m-342 2 c2 -10 -3 -17 -12 -17 -10 0 -16 9 -16 21 0 24 23 21 28 -4z m132 -17 c13 -31 7 -51 -10 -34 -5 5 -13 25 -16 43 -9 41 8 36 26 -9z m855 30 c3 -5 -3 -10 -14 -10 -31 0 -35 -19 -7 -30 31 -11 32 -16 7 -30 -16 -8 -25 -5 -45 14 -14 13 -26 33 -26 45 0 18 6 21 39 21 22 0 43 -4 46 -10z m183 -6 c-11 -11 -23 -14 -35 -9 -17 7 -17 8 2 15 11 5 27 9 35 9 12 1 11 -2 -2 -15z m-1418 -13 c14 -28 13 -31 -14 -31 -17 0 -25 7 -28 25 -4 19 -1 25 13 25 10 0 23 -9 29 -19z m168 -3 c-2 -17 -11 -24 -30 -26 -34 -4 -35 4 -5 29 29 25 39 24 35 -3z m600 -10 c-4 -38 -24 -48 -30 -16 -6 32 0 48 18 48 11 0 14 -9 12 -32z m-924 7 c3 -8 2 -15 -3 -15 -5 0 -14 7 -21 15 -10 12 -10 15 3 15 8 0 17 -7 21 -15z m86 -1 c0 -14 -3 -14 -15 -4 -8 7 -15 14 -15 16 0 2 7 4 15 4 8 0 15 -7 15 -16z m380 -4 c11 -21 4 -25 -24 -14 -9 3 -16 12 -16 20 0 21 28 17 40 -6z m593 -5 c-20 -26 -38 -32 -49 -13 -8 13 22 38 48 38 18 0 18 -1 1 -25z m217 11 c0 -8 -4 -18 -10 -21 -21 -13 -10 -27 16 -21 21 6 25 4 22 -11 -2 -10 -14 -19 -28 -21 -14 -2 -29 -8 -34 -13 -6 -5 -16 -9 -23 -9 -26 0 -25 31 2 70 28 40 55 53 55 26z m-628 -28 c-15 -15 -24 -6 -16 16 5 12 10 14 17 7 8 -8 8 -14 -1 -23z m462 -5 c-8 -47 -9 -48 -34 -37 -19 9 -19 9 1 42 28 43 42 41 33 -5z m56 22 c0 -8 -7 -15 -15 -15 -16 0 -20 12 -8 23 11 12 23 8 23 -8z m351 -6 l24 -20 -22 5 c-52 13 -63 18 -63 27 0 16 37 10 61 -12z m-821 -16 c0 -9 -10 -27 -22 -40 -41 -44 -53 -20 -16 33 23 33 38 36 38 7z m170 2 c0 -18 -5 -25 -20 -25 -22 0 -26 20 -8 38 19 19 28 14 28 -13z m-1030 7 c0 -15 -38 -44 -49 -37 -17 10 -13 33 7 38 29 8 42 7 42 -1z m78 -10 c3 -9 -2 -13 -14 -10 -9 1 -19 9 -22 16 -3 9 2 13 14 10 9 -1 19 -9 22 -16z m512 -10 c0 -10 -6 -27 -14 -38 -16 -20 -14 -22 -30 30 -6 18 2 26 26 26 11 0 18 -7 18 -18z m362 -20 c-14 -11 -18 -10 -20 4 -5 21 20 38 30 21 4 -7 0 -18 -10 -25z m206 20 c2 -7 -3 -12 -12 -12 -9 0 -16 7 -16 16 0 17 22 14 28 -4z m-1010 -20 c3 -18 -2 -22 -26 -22 -40 0 -47 11 -20 32 28 21 42 18 46 -10z m1487 17 c11 -16 -1 -22 -30 -15 -14 4 -23 11 -20 16 8 13 42 13 50 -1z m-1203 -59 c3 -29 0 -35 -17 -35 -20 0 -22 14 -16 90 2 23 31 -24 33 -55z m-194 30 c10 -17 10 -21 -4 -27 -19 -7 -49 20 -40 36 11 17 30 13 44 -9z m127 -1 c9 -26 5 -29 -24 -18 -19 8 -21 12 -11 24 17 21 27 19 35 -6z m139 5 c11 -29 7 -64 -9 -64 -8 0 -15 8 -15 18 0 10 -5 23 -11 29 -6 6 -8 16 -5 22 10 16 33 13 40 -5z m161 1 c0 -5 -15 -11 -34 -13 -31 -3 -33 -2 -21 13 14 17 55 17 55 0z m655 5 c0 -5 -7 -10 -15 -10 -8 0 -15 5 -15 10 0 6 7 10 15 10 8 0 15 -4 15 -10z m-1300 -15 c0 -8 -9 -15 -20 -15 -20 0 -26 11 -13 23 12 13 33 7 33 -8z m722 -17 c-9 -9 -12 -7 -12 12 0 19 3 21 12 12 9 -9 9 -15 0 -24z m308 -7 c-6 -12 -15 -21 -20 -21 -17 0 -11 39 8 49 21 12 27 -1 12 -28z m-197 -51 c-33 -59 -53 -65 -53 -16 0 27 8 41 37 67 31 27 39 30 41 16 2 -9 -9 -39 -25 -67z m302 66 c-20 -14 -35 -12 -35 5 0 5 12 9 27 9 26 0 26 -1 8 -14z m508 -17 c-7 -7 -20 -8 -30 -5 -17 7 -17 8 1 22 23 17 48 2 29 -17z m-666 5 c7 -20 -13 -34 -49 -34 -34 0 -36 13 -6 34 29 20 47 20 55 0z m223 -4 c0 -24 -34 -60 -56 -60 -35 0 -30 27 9 50 36 22 47 25 47 10z m291 -13 c-13 -13 -26 -3 -16 12 3 6 11 8 17 5 6 -4 6 -10 -1 -17z m-827 -3 c10 -27 7 -34 -17 -34 -13 0 -32 9 -41 19 -17 18 -17 19 1 24 35 9 51 7 57 -9z m560 -45 c-15 -16 -31 -29 -36 -29 -17 0 -6 27 24 60 28 29 33 31 36 16 2 -10 -9 -31 -24 -47z m104 49 c17 -17 15 -28 -7 -28 -22 0 -35 15 -26 30 8 13 18 13 33 -2z m235 -9 c18 -20 17 -20 -5 -17 -12 2 -24 11 -26 21 -5 23 10 22 31 -4z m-1588 1 c3 -6 -5 -10 -19 -10 -14 0 -28 5 -31 10 -3 6 5 10 19 10 14 0 28 -4 31 -10z m145 -11 c0 -5 -7 -9 -15 -9 -15 0 -20 12 -9 23 8 8 24 -1 24 -14z m210 5 c0 -2 -7 -4 -15 -4 -8 0 -15 4 -15 10 0 5 7 7 15 4 8 -4 15 -8 15 -10z m760 1 c0 -8 -2 -15 -4 -15 -2 0 -11 -3 -19 -6 -12 -4 -14 0 -10 15 6 24 33 29 33 6z m328 -1 c-8 -9 -24 -14 -34 -11 -17 3 -16 5 6 15 36 16 47 14 28 -4z m-1353 -4 c3 -5 -3 -10 -14 -10 -12 0 -21 5 -21 10 0 6 6 10 14 10 8 0 18 -4 21 -10z m1615 0 c0 -5 -7 -10 -15 -10 -8 0 -15 5 -15 10 0 6 7 10 15 10 8 0 15 -4 15 -10z m-953 -22 c-3 -8 -6 -5 -6 6 -1 11 2 17 5 13 3 -3 4 -12 1 -19z m-137 -8 c8 -15 8 -20 -3 -20 -14 0 -37 19 -37 32 0 16 30 7 40 -12z m874 5 c-1 -13 -51 -31 -60 -22 -4 4 -1 14 6 22 14 17 55 17 54 0z m-1205 -10 c8 -8 -11 -23 -36 -30 -26 -6 -53 13 -53 38 0 8 79 0 89 -8z m691 8 c0 -12 -33 -43 -47 -43 -7 0 -13 9 -13 19 0 18 6 21 53 30 4 0 7 -2 7 -6z m574 -1 c2 -4 -2 -15 -9 -25 -15 -20 -28 -8 -19 17 7 17 20 21 28 8z m141 -10 c-3 -3 -11 0 -18 7 -9 10 -8 11 6 5 10 -3 15 -9 12 -12z m-1745 -2 c-20 -13 -33 -13 -25 0 3 6 14 10 23 10 15 0 15 -2 2 -10z m480 -9 c17 -32 12 -41 -23 -41 -53 0 -76 33 -34 50 34 14 45 12 57 -9z m120 -7 c0 -21 -22 -26 -55 -14 -30 11 -25 25 10 32 27 6 45 -1 45 -18z m443 -54 c-29 -52 -51 -69 -64 -49 -4 8 11 37 39 73 55 71 70 57 25 -24z m132 70 c-3 -5 -10 -10 -16 -10 -5 0 -9 5 -9 10 0 6 7 10 16 10 8 0 12 -4 9 -10z m230 -10 c-15 -17 -65 -29 -65 -16 0 24 17 36 48 36 34 0 35 0 17 -20z m270 10 c-3 -5 -13 -10 -21 -10 -8 0 -12 5 -9 10 3 6 13 10 21 10 8 0 12 -4 9 -10z m-1502 -20 c6 -23 -3 -26 -21 -8 -16 16 -15 28 2 28 7 0 16 -9 19 -20z m97 -52 c0 -22 -13 -23 -45 -2 -24 15 -33 52 -18 67 10 11 63 -44 63 -65z m884 32 c8 0 16 6 19 13 2 6 8 8 13 4 9 -9 -29 -43 -60 -53 -28 -9 -35 7 -18 46 14 33 15 34 23 13 5 -13 15 -23 23 -23z m-380 13 c14 -36 -63 -66 -94 -38 -28 25 -25 33 13 44 50 14 74 13 81 -6z m647 -25 c-17 -15 -41 -28 -53 -28 -25 0 -20 7 32 43 46 32 62 21 21 -15z m323 17 c16 -12 17 -15 4 -15 -8 0 -21 7 -28 15 -16 19 -1 19 24 0z m-1636 -12 c-5 -24 -66 -59 -80 -45 -8 8 -4 14 13 21 14 5 31 16 38 25 18 21 33 20 29 -1z m1452 2 c15 -19 6 -30 -32 -39 -25 -6 -28 -3 -28 18 0 35 38 48 60 21z m-1197 -9 c7 -18 -1 -26 -28 -26 -33 0 -38 12 -13 27 30 16 35 16 41 -1z m852 -22 c-23 -23 -28 -13 -8 16 10 14 18 19 21 12 2 -7 -4 -19 -13 -28z m495 21 c10 -12 9 -15 -8 -15 -11 0 -28 3 -37 6 -13 5 -14 8 -3 15 19 13 34 11 48 -6z m-747 -1 c9 -9 -4 -34 -18 -34 -16 0 -37 25 -28 33 8 9 38 9 46 1z m287 -39 c-22 -26 -30 -16 -12 15 12 21 18 25 20 14 2 -8 -2 -21 -8 -29z m67 20 c-4 -8 -11 -15 -17 -15 -7 0 -7 6 0 21 13 23 26 19 17 -6z m-748 4 c33 -12 40 -26 17 -35 -19 -7 -56 13 -56 31 0 18 -1 18 39 4z m892 -13 c-10 -12 -8 -15 11 -18 23 -3 23 -3 2 -15 -13 -7 -32 -9 -49 -5 l-28 8 34 26 c34 28 51 30 30 4z m-1311 -5 c0 -10 -6 -24 -14 -30 -11 -9 -15 -7 -19 8 -5 19 9 41 25 41 4 0 8 -8 8 -19z m345 -1 c-3 -5 -17 -10 -31 -10 -13 0 -24 5 -24 10 0 6 14 10 31 10 17 0 28 -4 24 -10z m138 -5 c4 -8 2 -17 -3 -20 -6 -4 -10 3 -10 14 0 25 6 27 13 6z m1023 -23 c-9 -8 -26 10 -26 26 1 15 2 15 15 -2 8 -11 13 -21 11 -24z m-858 1 c4 -27 -21 -45 -55 -41 -43 5 -44 42 -1 55 42 14 52 11 56 -14z m902 17 c0 -5 -4 -10 -10 -10 -5 0 -10 5 -10 10 0 6 5 10 10 10 6 0 10 -4 10 -10z m60 -24 c-15 -15 -33 4 -19 20 10 12 14 12 20 2 5 -7 4 -17 -1 -22z m-836 11 c17 -12 17 -14 -1 -45 -25 -44 -43 -41 -43 6 0 53 11 63 44 39z m634 -17 c-21 -29 -42 -38 -52 -22 -7 12 7 30 34 41 40 16 42 13 18 -19z m-1468 6 c0 -21 -20 -30 -33 -17 -9 9 -8 14 3 21 21 14 30 12 30 -4z m145 -22 c8 -13 24 -24 35 -24 27 0 25 -14 -4 -28 -21 -9 -27 -6 -55 25 -32 36 -35 68 -7 57 8 -3 22 -17 31 -30z m125 21 c0 -16 -9 -19 -34 -9 -20 8 -11 24 15 24 10 0 19 -7 19 -15z m740 0 c-13 -16 -40 -20 -40 -7 0 14 12 22 33 22 16 0 17 -3 7 -15z m45 -4 c-3 -6 -16 -16 -28 -22 -21 -11 -21 -10 2 15 23 25 40 29 26 7z m225 -2 c0 -5 -9 -9 -20 -9 -22 0 -27 16 -7 23 15 5 27 -1 27 -14z m254 -37 c-1 -2 -12 1 -23 7 -18 10 -19 15 -9 31 12 18 13 18 24 -8 6 -15 10 -28 8 -30z m-1081 28 c3 -11 1 -20 -4 -20 -5 0 -9 9 -9 20 0 11 2 20 4 20 2 0 6 -9 9 -20z m793 -37 c-12 -12 -56 8 -56 26 0 30 12 32 37 5 13 -15 22 -29 19 -31z m-828 20 c15 -32 15 -43 2 -43 -8 0 -40 51 -40 65 0 16 27 1 38 -22z m702 -9 c0 -17 -6 -24 -19 -24 -11 0 -21 6 -24 13 -2 6 -14 -5 -27 -25 -22 -38 -50 -51 -50 -23 0 8 16 32 35 54 27 30 40 37 60 33 18 -3 25 -11 25 -28z m510 20 c0 -9 -5 -14 -12 -12 -18 6 -21 28 -4 28 9 0 16 -7 16 -16z m-1282 -39 c-3 -3 -17 0 -32 6 -21 10 -24 15 -14 26 10 12 15 11 32 -6 11 -11 17 -23 14 -26z m1012 29 c0 -2 -11 -4 -25 -4 -14 0 -25 4 -25 9 0 4 11 6 25 3 14 -2 25 -6 25 -8z m-490 -35 c-9 -15 -15 -18 -23 -10 -7 7 -5 16 8 32 22 24 32 10 15 -22z m-787 21 c8 0 7 -3 -2 -9 -17 -11 -53 -2 -45 11 3 5 13 7 21 4 8 -3 20 -6 26 -6z m455 -20 c6 0 9 7 6 15 -9 24 23 18 40 -7 23 -32 20 -48 -10 -48 -36 0 -84 30 -84 54 0 18 1 18 18 3 10 -10 24 -17 30 -17z m407 10 c-7 -22 5 -26 23 -8 9 9 12 7 12 -9 0 -14 -8 -23 -26 -27 -38 -10 -50 6 -29 38 21 31 29 34 20 6z m654 7 c6 -8 8 -16 5 -20 -10 -9 -34 4 -34 19 0 18 14 18 29 1z m-1678 -17 c-26 -22 -65 -27 -59 -7 3 6 20 15 39 18 19 4 36 7 39 7 3 1 -6 -8 -19 -18z m787 -23 c2 -15 -1 -27 -6 -27 -17 0 -34 29 -28 46 9 23 31 11 34 -19z m477 23 c9 -15 -22 -60 -40 -60 -19 0 -19 4 0 40 16 31 29 37 40 20z m163 -2 c-3 -7 -17 -13 -33 -13 -16 0 -30 6 -32 13 -3 8 7 12 32 12 25 0 35 -4 33 -12z m82 3 c0 -12 -54 -51 -69 -51 -17 0 -13 11 11 37 21 23 58 32 58 14z m75 -11 c10 -11 28 -20 41 -20 33 0 40 -19 15 -43 l-21 -22 -41 42 c-23 22 -38 46 -35 52 10 16 20 14 41 -9z m-1535 1 c0 -5 -7 -12 -16 -15 -14 -5 -15 -4 -4 9 14 17 20 19 20 6z m116 -15 c24 -4 25 -30 1 -34 -20 -4 -67 23 -67 38 0 6 10 8 23 5 13 -4 32 -7 43 -9z m414 -21 c0 -16 -35 -21 -44 -6 -4 5 -3 16 0 25 5 12 10 13 25 5 10 -5 19 -16 19 -24z m1155 25 c4 -6 -5 -10 -20 -10 -15 0 -24 4 -20 10 3 6 12 10 20 10 8 0 17 -4 20 -10z m-1376 -18 c17 -32 -2 -45 -32 -22 -15 12 -27 26 -27 31 0 17 49 9 59 -9z m798 -29 c-27 -27 -41 -4 -15 24 20 21 23 22 26 8 2 -10 -3 -24 -11 -32z m163 37 c0 -9 -32 -30 -46 -30 -4 0 1 9 11 20 19 21 35 26 35 10z m-420 -4 c0 -2 -7 -6 -15 -10 -8 -3 -15 -1 -15 4 0 6 7 10 15 10 8 0 15 -2 15 -4z m-840 -41 c-13 -15 -50 -21 -50 -7 0 11 55 39 58 30 2 -5 -2 -15 -8 -23z m1330 27 c0 -16 -32 -52 -46 -52 -20 0 -18 37 4 49 21 12 42 14 42 3z m138 -4 c-6 -18 -28 -21 -28 -4 0 9 7 16 16 16 9 0 14 -5 12 -12z m222 -8 c0 -5 -9 -10 -19 -10 -11 0 -23 5 -26 10 -4 6 5 10 19 10 14 0 26 -4 26 -10z m-1442 -20 c19 -11 32 -26 29 -33 -6 -19 -20 -14 -62 21 -31 25 -35 32 -20 32 11 0 35 -9 53 -20z m123 10 c24 -13 24 -26 2 -34 -10 -3 -24 -9 -30 -12 -14 -6 -19 37 -6 49 8 9 11 9 34 -3z m297 -2 c22 -22 13 -38 -21 -38 -47 0 -77 33 -39 43 32 8 48 7 60 -5z m702 -5 c0 -20 -38 -63 -57 -63 -18 0 -17 7 13 46 29 37 44 43 44 17z m-1355 -40 c-28 -25 -55 -27 -63 -5 -2 7 6 12 22 12 15 0 34 9 44 20 11 13 18 16 21 8 2 -6 -9 -22 -24 -35z m912 36 c8 -8 21 -9 45 -1 27 9 29 9 14 -1 -11 -7 -34 -25 -52 -40 -25 -21 -39 -26 -58 -21 -37 9 -41 22 -15 50 24 26 48 31 66 13z m523 -14 c0 -8 -8 -11 -20 -8 -20 5 -25 15 -14 26 9 9 34 -4 34 -18z m58 2 c2 -10 -3 -17 -12 -17 -18 0 -29 16 -21 31 9 14 29 6 33 -14z m-1622 4 c-3 -5 -18 -11 -33 -14 -26 -5 -26 -4 -8 9 21 15 49 19 41 5z m269 -10 c-3 -6 -14 -11 -23 -11 -15 1 -15 2 2 15 21 16 32 13 21 -4z m387 5 c27 -6 58 -30 58 -46 0 -22 -43 -21 -67 2 -32 29 -49 59 -31 54 7 -3 25 -7 40 -10z m513 -18 c-15 -50 -31 -73 -53 -76 -30 -4 -28 8 6 34 15 12 24 26 20 30 -5 4 -16 0 -25 -8 -28 -23 -43 -30 -43 -19 0 10 78 61 93 61 5 0 5 -10 2 -22z m185 7 c0 -8 -7 -15 -15 -15 -9 0 -28 -12 -42 -26 -23 -23 -28 -25 -50 -13 -31 16 -28 53 5 57 13 2 29 -1 36 -7 9 -8 18 -7 32 4 25 19 34 19 34 0z m384 -16 c-10 -16 -24 -9 -24 12 0 18 2 19 15 9 8 -7 12 -16 9 -21z m51 21 c13 -6 15 -9 5 -9 -8 0 -22 4 -30 9 -18 12 -2 12 25 0z m-1456 -19 c21 -13 6 -41 -19 -34 -24 6 -34 19 -25 33 8 12 25 13 44 1z m-116 -19 c10 -10 14 -22 10 -25 -12 -12 -20 -8 -31 18 -14 29 -2 33 21 7z m327 -2 c0 -27 -47 -50 -61 -29 -6 10 -3 19 12 32 28 23 49 22 49 -3z m287 3 c3 -7 -4 -9 -16 -6 -12 3 -18 9 -15 15 7 11 26 6 31 -9z m-812 -2 c-6 -4 -23 -11 -40 -15 l-30 -6 25 15 c27 16 60 21 45 6z m1363 -24 c2 -19 -1 -27 -12 -27 -17 0 -31 34 -21 50 11 18 30 5 33 -23z m180 21 c-3 -7 -15 -13 -28 -13 -13 0 -25 6 -27 13 -3 8 6 12 27 12 21 0 30 -4 28 -12z m132 2 c0 -5 -4 -10 -10 -10 -5 0 -10 5 -10 10 0 6 5 10 10 10 6 0 10 -4 10 -10z m-243 -36 c-15 -14 -27 -31 -27 -39 0 -16 -12 -20 -24 -8 -3 4 10 24 31 45 20 21 39 35 42 32 3 -2 -7 -16 -22 -30z m181 12 c3 -13 -1 -17 -14 -14 -11 2 -20 11 -22 22 -3 13 1 17 14 14 11 -2 20 -11 22 -22z m-1455 -7 c-7 -26 -30 -36 -46 -20 -9 10 -8 16 7 27 29 21 45 18 39 -7z m237 -4 c0 -25 -23 -35 -35 -15 -10 16 2 40 20 40 9 0 15 -9 15 -25z m194 6 c16 -17 15 -19 -14 -31 -23 -9 -34 -10 -42 -2 -8 8 -7 13 5 18 9 3 17 12 17 20 0 19 14 17 34 -5z m219 -3 c22 -11 19 -51 -5 -56 -19 -4 -90 56 -82 70 6 10 57 2 87 -14z m-773 3 c0 -5 -7 -12 -16 -15 -14 -5 -15 -4 -4 9 14 17 20 19 20 6z m1690 -6 c8 -9 8 -15 2 -15 -18 0 -42 12 -42 21 0 14 26 10 40 -6z m-1436 -26 c-4 -6 -11 -6 -20 2 -21 17 -17 31 6 19 11 -6 18 -15 14 -21z m670 4 c-9 -37 -21 -50 -35 -36 -18 18 -2 63 21 63 17 0 19 -5 14 -27z m249 20 c4 -3 -2 -12 -13 -20 -11 -8 -20 -21 -20 -29 0 -13 6 -12 34 5 40 25 46 26 46 6 0 -15 -90 -65 -117 -65 -21 0 -15 33 12 73 24 35 43 45 58 30z m111 -19 c5 -17 0 -36 -14 -60 -12 -19 -23 -34 -25 -34 -2 0 -11 -3 -20 -6 -15 -6 -14 -1 4 35 12 22 25 41 30 41 4 0 6 11 3 25 -6 33 14 32 22 -1z m-870 -15 c-8 -13 -24 -1 -24 18 0 13 3 13 15 3 8 -7 12 -16 9 -21z m591 21 c5 -8 -59 -80 -71 -80 -10 0 -2 28 16 58 20 32 43 41 55 22z m519 0 c14 -5 26 -15 26 -21 0 -7 -7 -8 -17 -4 -10 4 -30 7 -45 6 -19 -1 -28 4 -28 14 0 17 27 19 64 5z m-1314 -19 c13 -24 5 -29 -40 -22 l-35 6 25 18 c31 22 37 21 50 -2z m1214 4 c-4 -8 -13 -15 -21 -15 -13 0 -13 3 -3 15 7 8 16 15 21 15 5 0 6 -7 3 -15z m220 -1 c5 -14 4 -15 -9 -4 -17 14 -19 20 -6 20 5 0 12 -7 15 -16z m-1634 -9 c-7 -8 -22 -14 -34 -14 -20 1 -20 2 -1 6 11 3 24 9 30 14 15 14 19 10 5 -6z m701 -4 c13 -11 21 -23 17 -26 -9 -9 -58 21 -58 35 0 15 15 12 41 -9z m-328 -9 c10 -10 14 -22 10 -25 -7 -8 -43 21 -43 35 0 14 16 9 33 -10z m1228 -4 c11 -21 11 -22 -4 -9 -10 7 -17 17 -17 22 0 15 9 10 21 -13z m-1097 -27 c24 -27 17 -27 -28 0 -20 12 -33 25 -30 30 7 11 33 -2 58 -30z m96 31 c0 -15 -24 -32 -47 -32 -25 0 -29 10 -11 28 13 13 58 16 58 4z m430 -10 c0 -22 -25 -47 -57 -56 -33 -10 -29 10 8 45 36 34 49 36 49 11z m-995 -3 c-8 -12 -56 -32 -62 -25 -5 4 45 33 60 35 5 1 5 -4 2 -10z m1459 5 c19 -7 9 -34 -13 -34 -9 0 -24 7 -34 14 -18 14 -18 14 0 19 28 7 30 7 47 1z m-1414 -35 c0 -6 -4 -7 -10 -4 -5 3 -10 11 -10 16 0 6 5 7 10 4 6 -3 10 -11 10 -16z m394 -15 c18 -18 21 -34 6 -34 -21 0 -68 43 -63 56 6 15 29 6 57 -22z m916 26 c0 -4 -7 -13 -15 -20 -12 -10 -18 -10 -30 0 -8 7 -13 15 -11 19 6 9 56 10 56 1z m-1059 -18 c12 -11 18 -21 13 -24 -14 -8 -105 22 -99 33 10 15 62 10 86 -9z m333 -7 c25 -20 28 -26 17 -39 -19 -22 -37 -20 -55 6 -19 27 -21 58 -3 58 6 -1 25 -11 41 -25z m124 13 c-3 -7 -11 -13 -18 -13 -7 0 -15 6 -17 13 -3 7 4 12 17 12 13 0 20 -5 18 -12z m513 -7 c-11 -20 -61 -56 -61 -44 0 5 11 21 25 36 30 32 51 37 36 8z m149 -6 c10 -12 8 -16 -15 -25 -36 -14 -51 -3 -29 21 21 23 28 24 44 4z m145 4 c11 -17 -1 -21 -15 -4 -8 9 -8 15 -2 15 6 0 14 -5 17 -11z m-1432 -19 c-6 -23 -16 -25 -32 -7 -13 16 -5 27 20 27 12 0 16 -6 12 -20z m753 5 c15 -12 16 -16 5 -24 -7 -5 -11 -13 -7 -19 3 -5 0 -15 -8 -21 -11 -9 -15 -5 -20 20 -12 62 -6 71 30 44z m-328 -7 c14 -14 16 -38 4 -38 -5 0 -14 11 -20 25 -12 26 -4 33 16 13z m-301 -13 c28 -12 34 -18 25 -27 -9 -9 -20 -7 -48 8 -64 34 -47 48 23 19z m873 5 c12 -7 12 -11 -3 -28 -24 -26 -84 -58 -93 -49 -4 4 -2 13 4 19 7 7 12 22 12 33 0 12 3 25 7 28 9 10 56 8 73 -3z m-720 -44 c-8 -8 -15 -6 -26 8 -22 30 -17 38 12 20 18 -13 22 -20 14 -28z m602 -2 c-8 -41 -32 -54 -62 -34 -13 9 -9 16 23 46 21 20 41 34 43 31 2 -2 1 -22 -4 -43z m298 40 c0 -6 -65 -34 -77 -34 -4 1 3 10 16 20 21 18 61 28 61 14z m147 -16 c-3 -8 -6 -5 -6 6 -1 11 2 17 5 13 3 -3 4 -12 1 -19z m-1437 3 c0 -5 -7 -11 -14 -14 -10 -4 -13 -1 -9 9 6 15 23 19 23 5z m506 -16 c9 -14 14 -28 11 -31 -9 -9 -57 27 -57 42 0 23 28 16 46 -11z m980 8 c17 -23 17 -33 0 -33 -8 0 -17 7 -20 16 -14 36 -2 46 20 17z m-1551 -3 c-3 -5 -11 -10 -16 -10 -6 0 -7 5 -4 10 3 6 11 10 16 10 6 0 7 -4 4 -10z m115 -4 c0 -8 -7 -16 -15 -20 -12 -4 -13 -2 -2 14 14 24 17 25 17 6z m150 -10 c0 -2 -9 -2 -20 1 -11 3 -20 9 -20 15 0 5 9 4 20 -2 11 -6 20 -12 20 -14z m509 -2 c21 -27 29 -84 12 -84 -17 0 -73 80 -67 95 8 23 32 18 55 -11z m731 -36 c0 -13 -20 -9 -51 9 -33 19 -38 40 -11 45 15 4 61 -36 62 -54z m-1102 34 c2 -7 -3 -12 -12 -12 -9 0 -16 7 -16 16 0 17 22 14 28 -4z m832 -11 c0 -20 -18 -31 -51 -31 -25 0 -24 15 3 34 30 21 48 20 48 -3z m85 -1 c-3 -5 -13 -10 -21 -10 -8 0 -12 5 -9 10 3 6 13 10 21 10 8 0 12 -4 9 -10z m-1159 -26 c-4 -9 -9 -15 -11 -12 -3 3 -3 13 1 22 4 9 9 15 11 12 3 -3 3 -13 -1 -22z m548 4 c9 -12 14 -23 12 -25 -4 -4 -76 37 -76 43 0 14 52 0 64 -18z m681 12 c-3 -5 -13 -10 -21 -10 -8 0 -12 5 -9 10 3 6 13 10 21 10 8 0 12 -4 9 -10z m-698 -45 c60 -29 82 -53 68 -75 -3 -5 -12 -10 -19 -10 -15 0 -126 98 -126 112 0 5 3 8 8 6 4 -2 35 -17 69 -33z m757 20 c19 -14 18 -15 -12 -15 -22 0 -32 5 -32 15 0 19 19 19 44 0z m131 5 c-3 -5 -12 -7 -20 -3 -21 7 -19 13 6 13 11 0 18 -4 14 -10z m-1210 -38 c-17 -4 -45 15 -45 30 0 5 14 1 31 -9 22 -13 26 -19 14 -21z m95 18 c0 -5 -7 -10 -16 -10 -8 0 -12 5 -9 10 3 6 10 10 16 10 5 0 9 -4 9 -10z m80 -21 c0 -14 -26 -10 -39 5 -9 11 -9 15 1 19 14 5 38 -10 38 -24z m429 5 c-6 -8 -21 -14 -32 -14 -19 0 -19 1 -3 19 21 23 54 18 35 -5z m-679 6 c0 -5 -7 -10 -16 -10 -8 0 -12 5 -9 10 3 6 10 10 16 10 5 0 9 -4 9 -10z m729 -16 c-6 -8 -18 -14 -27 -14 -13 0 -12 3 3 20 20 22 43 17 24 -6z m259 14 c-3 -7 -22 -14 -44 -16 -39 -2 -39 -2 -14 13 31 18 63 19 58 3z m52 2 c0 -5 -4 -10 -10 -10 -5 0 -10 5 -10 10 0 6 5 10 10 10 6 0 10 -4 10 -10z m-196 -6 c28 -11 17 -24 -19 -24 -36 0 -48 15 -17 23 9 3 18 5 19 6 1 0 8 -2 17 -5z m404 -12 c3 -9 -2 -13 -14 -10 -9 1 -19 9 -22 16 -3 9 2 13 14 10 9 -1 19 -9 22 -16z m-158 -2 c8 -5 11 -10 5 -10 -5 0 -17 5 -25 10 -8 5 -10 10 -5 10 6 0 17 -5 25 -10z m90 1 c0 -15 -19 -23 -38 -16 -14 5 -14 7 -2 15 19 12 40 13 40 1z m-1007 -8 c-7 -2 -21 -2 -30 0 -10 3 -4 5 12 5 17 0 24 -2 18 -5z m892 -9 c13 -5 14 -8 3 -15 -19 -12 -25 -11 -32 6 -6 16 3 19 29 9z m-555 -20 c0 -8 -5 -12 -10 -9 -6 4 -8 11 -5 16 9 14 15 11 15 -7z m170 1 c0 -16 -27 -32 -37 -22 -3 4 -3 13 0 22 8 20 37 20 37 0z m273 8 c-7 -2 -21 -2 -30 0 -10 3 -4 5 12 5 17 0 24 -2 18 -5z m55 -15 c-5 -13 -68 -30 -68 -19 0 7 45 28 63 30 5 1 7 -5 5 -11z m-178 -8 c0 -5 -18 -10 -41 -10 -24 0 -38 4 -34 10 3 6 22 10 41 10 19 0 34 -4 34 -10z m66 -18 c-22 -5 -30 3 -21 18 5 8 11 7 22 -2 15 -12 14 -13 -1 -16z m-973 3 c-3 -9 -8 -14 -10 -11 -3 3 -2 9 2 15 9 16 15 13 8 -4z m60 -5 c3 -11 1 -20 -4 -20 -5 0 -9 9 -9 20 0 11 2 20 4 20 2 0 6 -9 9 -20z m267 4 c0 -2 -14 -4 -31 -4 -16 0 -28 4 -25 9 5 8 56 3 56 -5z m888 -2 c3 -9 -2 -13 -14 -10 -9 1 -19 9 -22 16 -3 9 2 13 14 10 9 -1 19 -9 22 -16z m-967 -18 c9 -11 9 -14 0 -14 -18 0 -51 19 -51 29 0 13 37 2 51 -15z m127 -6 c-5 -15 -78 -24 -78 -9 0 8 19 14 68 20 8 0 12 -5 10 -11z m212 2 c0 -5 -2 -10 -4 -10 -3 0 -8 5 -11 10 -3 6 -1 10 4 10 6 0 11 -4 11 -10z m273 3 c-7 -2 -21 -2 -30 0 -10 3 -4 5 12 5 17 0 24 -2 18 -5z m252 -2 c-15 -15 -65 -25 -65 -13 0 13 17 20 50 21 15 1 20 -3 15 -8z m-690 -11 c3 -5 1 -10 -4 -10 -6 0 -11 5 -11 10 0 6 2 10 4 10 3 0 8 -4 11 -10z m595 0 c0 -5 -7 -10 -15 -10 -8 0 -15 5 -15 10 0 6 7 10 15 10 8 0 15 -4 15 -10z m174 -11 c-3 -5 -10 -7 -15 -3 -5 3 -7 10 -3 15 3 5 10 7 15 3 5 -3 7 -10 3 -15z m-234 1 c8 -5 12 -12 8 -15 -8 -8 -58 5 -58 16 0 12 31 11 50 -1z m200 -17 c0 -13 -3 -13 -15 -3 -8 7 -15 16 -15 21 0 5 7 6 15 3 8 -4 15 -13 15 -21z m-969 -6 c-10 -9 -11 -8 -5 6 3 10 9 15 12 12 3 -3 0 -11 -7 -18z m639 7 c0 -10 -33 -33 -47 -34 -21 0 -14 20 10 30 27 11 37 12 37 4z m-566 -10 c20 -8 11 -24 -15 -24 -19 0 -25 11 -12 23 8 8 8 8 27 1z m106 -13 c0 -14 -37 -24 -52 -15 -9 6 -5 10 12 15 36 10 40 10 40 0z m545 0 c-6 -4 -30 -13 -55 -19 l-45 -11 25 19 c24 19 94 29 75 11z m-403 -18 c10 -3 15 -9 12 -14 -7 -12 -61 -11 -69 1 -10 16 5 32 24 25 9 -4 24 -10 33 -12z m508 7 c8 -5 12 -12 9 -15 -8 -8 -39 5 -39 16 0 11 11 11 30 -1z m-757 -27 c-7 -2 -19 -2 -25 0 -7 3 -2 5 12 5 14 0 19 -2 13 -5z m161 -2 c6 -10 -16 -21 -41 -21 -13 0 -13 3 -3 15 14 17 36 20 44 6z m514 -9 c4 -14 -34 -16 -42 -3 -6 10 13 21 28 17 6 -1 12 -8 14 -14z m42 8 c0 -5 -4 -10 -10 -10 -5 0 -10 5 -10 10 0 6 5 10 10 10 6 0 10 -4 10 -10z m-121 -29 c9 -6 4 -10 -18 -13 -21 -3 -31 0 -31 9 0 15 28 17 49 4z m-569 -15 c0 -3 -4 -8 -10 -11 -5 -3 -10 -1 -10 4 0 6 5 11 10 11 6 0 10 -2 10 -4z"
       id="path8"
       style="fill:none;stroke:#000000" />
  </g>
</svg>
