  0
SECTION
  2
HEADER
  9
$ACADVER
  1
AC1014
  9
$HANDSEED
  5
FFFF
  9
$MEASUREMENT
 70
     1
  0
ENDSEC
  0
SECTION
  2
TABLES
  0
TABLE
  2
VPORT
  5
8
330
0
100
AcDbSymbolTable
 70
     4
  0
VPORT
  5
2E
330
8
100
AcDbSymbolTableRecord
100
AcDbViewportTableRecord
  2
*ACTIVE
 70
     0
 10
0.0
 20
0.0
 11
1.0
 21
1.0
 12
210.0
 22
148.5
 13
0.0
 23
0.0
 14
10.0
 24
10.0
 15
10.0
 25
10.0
 16
0.0
 26
0.0
 36
1.0
 17
0.0
 27
0.0
 37
0.0
 40
341.0
 41
1.24
 42
50.0
 43
0.0
 44
0.0
 50
0.0
 51
0.0
 71
     0
 72
   100
 73
     1
 74
     3
 75
     0
 76
     0
 77
     0
 78
     0
  0
ENDTAB
  0
TABLE
  2
LTYPE
  5
5
330
0
100
AcDbSymbolTable
 70
     1
  0
LTYPE
  5
14
330
5
100
AcDbSymbolTableRecord
100
AcDbLinetypeTableRecord
  2
BYBLOCK
 70
     0
  3

 72
    65
 73
     0
 40
0.0
  0
LTYPE
  5
15
330
5
100
AcDbSymbolTableRecord
100
AcDbLinetypeTableRecord
  2
BYLAYER
 70
     0
  3

 72
    65
 73
     0
 40
0.0
  0
LTYPE
  5
16
330
5
100
AcDbSymbolTableRecord
100
AcDbLinetypeTableRecord
  2
CONTINUOUS
 70
     0
  3
Solid line
 72
    65
 73
     0
 40
0.0
  0
ENDTAB
  0
TABLE
  2
LAYER
  5
2
100
AcDbSymbolTable
 70
2
  0
LAYER
  5
50
100
AcDbSymbolTableRecord
100
AcDbLayerTableRecord
  2
0
 70
0
  6
CONTINUOUS
  0
LAYER
  5
51
100
AcDbSymbolTableRecord
100
AcDbLayerTableRecord
  2
Layer_1
 70
0
  6
CONTINUOUS
  0
ENDTAB
  0
TABLE
  2
STYLE
  5
3
330
0
100
AcDbSymbolTable
 70
     1
  0
STYLE
  5
11
330
3
100
AcDbSymbolTableRecord
100
AcDbTextStyleTableRecord
  2
STANDARD
 70
     0
 40
0.0
 41
1.0
 50
0.0
 71
     0
 42
2.5
  3
txt
  4

  0
ENDTAB
  0
TABLE
  2
VIEW
  5
6
330
0
100
AcDbSymbolTable
 70
     0
  0
ENDTAB
  0
TABLE
  2
UCS
  5
7
330
0
100
AcDbSymbolTable
 70
     0
  0
ENDTAB
  0
TABLE
  2
APPID
  5
9
330
0
100
AcDbSymbolTable
 70
     2
  0
APPID
  5
12
330
9
100
AcDbSymbolTableRecord
100
AcDbRegAppTableRecord
  2
ACAD
 70
     0
  0
ENDTAB
  0
TABLE
  2
DIMSTYLE
  5
A
330
0
100
AcDbSymbolTable
 70
     1
  0
DIMSTYLE
105
27
330
A
100
AcDbSymbolTableRecord
100
AcDbDimStyleTableRecord
  2
ISO-25
 70
     0
  3

  4

  5

  6

  7

 40
1.0
 41
2.5
 42
0.625
 43
3.75
 44
1.25
 45
0.0
 46
0.0
 47
0.0
 48
0.0
140
2.5
141
2.5
142
0.0
143
0.03937007874016
144
1.0
145
0.0
146
1.0
147
0.625
 71
     0
 72
     0
 73
     0
 74
     0
 75
     0
 76
     0
 77
     1
 78
     8
170
     0
171
     3
172
     1
173
     0
174
     0
175
     0
176
     0
177
     0
178
     0
270
     2
271
     2
272
     2
273
     2
274
     3
340
11
275
     0
280
     0
281
     0
282
     0
283
     0
284
     8
285
     0
286
     0
287
     3
288
     0
  0
ENDTAB
  0
TABLE
  2
BLOCK_RECORD
  5
1
330
0
100
AcDbSymbolTable
 70
     1
  0
BLOCK_RECORD
  5
1F
330
1
100
AcDbSymbolTableRecord
100
AcDbBlockTableRecord
  2
*MODEL_SPACE
  0
BLOCK_RECORD
  5
1B
330
1
100
AcDbSymbolTableRecord
100
AcDbBlockTableRecord
  2
*PAPER_SPACE
  0
ENDTAB
  0
ENDSEC
  0
SECTION
  2
BLOCKS
  0
BLOCK
  5
20
330
1F
100
AcDbEntity
  8
0
100
AcDbBlockBegin
  2
*MODEL_SPACE
 70
     0
 10
0.0
 20
0.0
 30
0.0
  3
*MODEL_SPACE
  1

  0
ENDBLK
  5
21
330
1F
100
AcDbEntity
  8
0
100
AcDbBlockEnd
  0
BLOCK
  5
1C
330
1B
100
AcDbEntity
 67
     1
  8
0
100
AcDbBlockBegin
  2
*PAPER_SPACE
  1

  0
ENDBLK
  5
1D
330
1B
100
AcDbEntity
 67
     1
  8
0
100
AcDbBlockEnd
  0
ENDSEC
  0
SECTION
  2
ENTITIES
  0
LWPOLYLINE
  5
100
100
AcDbEntity
  8
Layer_1
 62
5
100
AcDbPolyline
 90
6
 70
0
 10
0.125785
 20
303.025844
 30
0.0
 10
0.125785
 20
0.125764
 30
0.0
 10
300.725792
 20
0.125764
 30
0.0
 10
300.725792
 20
303.025844
 30
0.0
 10
0.125785
 20
303.025844
 30
0.0
 10
0.125785
 20
303.025844
 30
0.0
  0
SPLINE
  5
101
100
AcDbEntity
  8
Layer_1
 62
5
100
AcDbSpline
 70
8
 71
3
 72
8
 73
4
 74
0
 40
0
 40
0
 40
0
 40
0
 40
1
 40
1
 40
1
 40
1
 10
131.708904
 20
-18.935516
 30
0.0
 10
135.970751
 20
-19.004547
 30
0.0
 10
139.833914
 20
-21.457656
 30
0.0
 10
141.708904
 20
-25.285516
 30
0.0
  0
LWPOLYLINE
  5
102
100
AcDbEntity
  8
Layer_1
 62
5
100
AcDbPolyline
 90
6
 70
0
 10
0.933907
 20
-4.060556
 30
0.0
 10
0.933907
 20
-306.960636
 30
0.0
 10
301.533904
 20
-306.960636
 30
0.0
 10
301.533904
 20
-4.060556
 30
0.0
 10
0.933907
 20
-4.060556
 30
0.0
 10
0.933907
 20
-4.060556
 30
0.0
  0
SPLINE
  5
103
100
AcDbEntity
  8
Layer_1
 62
5
100
AcDbSpline
 70
8
 71
3
 72
8
 73
4
 74
0
 40
0
 40
0
 40
0
 40
0
 40
1
 40
1
 40
1
 40
1
 10
261.308904
 20
-83.385516
 30
0.0
 10
266.249258
 20
-82.341156
 30
0.0
 10
271.284931
 20
-84.689279
 30
0.0
 10
273.660577
 20
-89.145072
 30
0.0
  0
SPLINE
  5
104
100
AcDbEntity
  8
Layer_1
 62
5
100
AcDbSpline
 70
8
 71
3
 72
8
 73
4
 74
0
 40
0
 40
0
 40
0
 40
0
 40
1
 40
1
 40
1
 40
1
 10
273.660577
 20
-89.145072
 30
0.0
 10
276.036222
 20
-93.600865
 30
0.0
 10
275.179388
 20
-99.090630
 30
0.0
 10
271.558904
 20
-102.610556
 30
0.0
  0
LWPOLYLINE
  5
105
100
AcDbEntity
  8
Layer_1
 62
5
100
AcDbPolyline
 90
3
 70
0
 10
141.708904
 20
-25.285516
 30
0.0
 10
178.833904
 20
-101.010556
 30
0.0
 10
261.308904
 20
-83.385516
 30
0.0
  0
SPLINE
  5
106
100
AcDbEntity
  8
Layer_1
 62
5
100
AcDbSpline
 70
8
 71
3
 72
8
 73
4
 74
0
 40
0
 40
0
 40
0
 40
0
 40
1
 40
1
 40
1
 40
1
 10
210.983904
 20
-161.310556
 30
0.0
 10
210.983904
 20
-161.310556
 30
0.0
 10
253.258904
 20
-234.285516
 30
0.0
 10
253.258904
 20
-234.285516
 30
0.0
  0
SPLINE
  5
107
100
AcDbEntity
  8
Layer_1
 62
5
100
AcDbSpline
 70
8
 71
3
 72
8
 73
4
 74
0
 40
0
 40
0
 40
0
 40
0
 40
1
 40
1
 40
1
 40
1
 10
253.258904
 20
-234.285516
 30
0.0
 10
255.815407
 20
-238.664707
 30
0.0
 10
255.153815
 20
-244.208864
 30
0.0
 10
251.638623
 20
-247.863511
 30
0.0
  0
SPLINE
  5
108
100
AcDbEntity
  8
Layer_1
 62
5
100
AcDbSpline
 70
8
 71
3
 72
8
 73
4
 74
0
 40
0
 40
0
 40
0
 40
0
 40
1
 40
1
 40
1
 40
1
 10
251.638623
 20
-247.863511
 30
0.0
 10
248.123431
 20
-251.518158
 30
0.0
 10
242.609194
 20
-252.394838
 30
0.0
 10
238.133904
 20
-250.010556
 30
0.0
  0
LWPOLYLINE
  5
109
100
AcDbEntity
  8
Layer_1
 62
5
100
AcDbPolyline
 90
2
 70
0
 10
271.558904
 20
-102.610556
 30
0.0
 10
210.983904
 20
-161.310556
 30
0.0
  0
SPLINE
  5
10a
100
AcDbEntity
  8
Layer_1
 62
5
100
AcDbSpline
 70
8
 71
3
 72
8
 73
4
 74
0
 40
0
 40
0
 40
0
 40
0
 40
1
 40
1
 40
1
 40
1
 10
163.583904
 20
-210.510556
 30
0.0
 10
163.583904
 20
-210.510556
 30
0.0
 10
107.233904
 20
-273.285596
 30
0.0
 10
107.233904
 20
-273.285596
 30
0.0
  0
SPLINE
  5
10b
100
AcDbEntity
  8
Layer_1
 62
5
100
AcDbSpline
 70
8
 71
3
 72
8
 73
4
 74
0
 40
0
 40
0
 40
0
 40
0
 40
1
 40
1
 40
1
 40
1
 10
107.233904
 20
-273.285596
 30
0.0
 10
103.850572
 20
-277.048511
 30
0.0
 10
98.383489
 20
-278.114318
 30
0.0
 10
93.834471
 20
-275.897813
 30
0.0
  0
SPLINE
  5
10c
100
AcDbEntity
  8
Layer_1
 62
5
100
AcDbSpline
 70
8
 71
3
 72
8
 73
4
 74
0
 40
0
 40
0
 40
0
 40
0
 40
1
 40
1
 40
1
 40
1
 10
93.834471
 20
-275.897813
 30
0.0
 10
89.285452
 20
-273.681309
 30
0.0
 10
86.755568
 20
-268.718988
 30
0.0
 10
87.633904
 20
-263.735516
 30
0.0
  0
LWPOLYLINE
  5
10d
100
AcDbEntity
  8
Layer_1
 62
5
100
AcDbPolyline
 90
2
 70
0
 10
238.133904
 20
-250.010556
 30
0.0
 10
163.583904
 20
-210.510556
 30
0.0
  0
SPLINE
  5
10e
100
AcDbEntity
  8
Layer_1
 62
5
100
AcDbSpline
 70
8
 71
3
 72
8
 73
4
 74
0
 40
0
 40
0
 40
0
 40
0
 40
1
 40
1
 40
1
 40
1
 10
102.133904
 20
-180.660556
 30
0.0
 10
102.133904
 20
-180.660556
 30
0.0
 10
25.033907
 20
-146.460556
 30
0.0
 10
25.033907
 20
-146.460556
 30
0.0
  0
SPLINE
  5
10f
100
AcDbEntity
  8
Layer_1
 62
5
100
AcDbSpline
 70
8
 71
3
 72
8
 73
4
 74
0
 40
0
 40
0
 40
0
 40
0
 40
1
 40
1
 40
1
 40
1
 10
25.033907
 20
-146.460556
 30
0.0
 10
20.402887
 20
-144.413418
 30
0.0
 10
17.690194
 20
-139.544177
 30
0.0
 10
18.386745
 20
-134.529006
 30
0.0
  0
SPLINE
  5
110
100
AcDbEntity
  8
Layer_1
 62
5
100
AcDbSpline
 70
8
 71
3
 72
8
 73
4
 74
0
 40
0
 40
0
 40
0
 40
0
 40
1
 40
1
 40
1
 40
1
 10
18.386745
 20
-134.529006
 30
0.0
 10
19.083297
 20
-129.513835
 30
0.0
 10
23.020284
 20
-125.568160
 30
0.0
 10
28.033907
 20
-124.860556
 30
0.0
  0
LWPOLYLINE
  5
111
100
AcDbEntity
  8
Layer_1
 62
5
100
AcDbPolyline
 90
2
 70
0
 10
87.633904
 20
-263.735516
 30
0.0
 10
102.133904
 20
-180.660556
 30
0.0
  0
SPLINE
  5
112
100
AcDbEntity
  8
Layer_1
 62
5
100
AcDbSpline
 70
8
 71
3
 72
8
 73
4
 74
0
 40
0
 40
0
 40
0
 40
0
 40
1
 40
1
 40
1
 40
1
 10
120.258904
 20
-29.085516
 30
0.0
 10
120.778232
 20
-24.090066
 30
0.0
 10
124.521656
 20
-20.031317
 30
0.0
 10
129.458904
 20
-19.110556
 30
0.0
  0
SPLINE
  5
113
100
AcDbEntity
  8
Layer_1
 62
5
100
AcDbSpline
 70
8
 71
3
 72
8
 73
4
 74
0
 40
0
 40
0
 40
0
 40
0
 40
1
 40
1
 40
1
 40
1
 10
129.458904
 20
-19.110556
 30
0.0
 10
130.201218
 20
-18.977538
 30
0.0
 10
130.954949
 20
-18.918901
 30
0.0
 10
131.708904
 20
-18.935516
 30
0.0
  0
LWPOLYLINE
  5
114
100
AcDbEntity
  8
Layer_1
 62
5
100
AcDbPolyline
 90
3
 70
0
 10
28.033907
 20
-124.860556
 30
0.0
 10
111.533904
 20
-112.985516
 30
0.0
 10
120.258904
 20
-29.085516
 30
0.0
  0
LWPOLYLINE
  5
115
100
AcDbEntity
  8
Layer_1
 62
5
100
AcDbPolyline
 90
2
 70
0
 10
131.708904
 20
-18.935516
 30
0.0
 10
131.708904
 20
-18.935516
 30
0.0
  0
SPLINE
  5
116
100
AcDbEntity
  8
Layer_1
 62
5
100
AcDbSpline
 70
8
 71
3
 72
8
 73
4
 74
0
 40
0
 40
0
 40
0
 40
0
 40
1
 40
1
 40
1
 40
1
 10
456.062160
 20
-17.491196
 30
0.0
 10
461.154034
 20
-17.444732
 30
0.0
 10
465.652486
 20
-20.798123
 30
0.0
 10
467.062160
 20
-25.691196
 30
0.0
  0
LWPOLYLINE
  5
117
100
AcDbEntity
  8
Layer_1
 62
5
100
AcDbPolyline
 90
6
 70
0
 10
305.612160
 20
-4.966156
 30
0.0
 10
305.612160
 20
-307.866236
 30
0.0
 10
606.212160
 20
-307.866236
 30
0.0
 10
606.212160
 20
-4.966156
 30
0.0
 10
305.612160
 20
-4.966156
 30
0.0
 10
305.612160
 20
-4.966156
 30
0.0
  0
SPLINE
  5
118
100
AcDbEntity
  8
Layer_1
 62
5
100
AcDbSpline
 70
8
 71
3
 72
8
 73
4
 74
0
 40
0
 40
0
 40
0
 40
0
 40
1
 40
1
 40
1
 40
1
 10
574.737160
 20
-103.666156
 30
0.0
 10
579.794919
 20
-103.477684
 30
0.0
 10
584.365223
 20
-106.663803
 30
0.0
 10
585.937852
 20
-111.474549
 30
0.0
  0
SPLINE
  5
119
100
AcDbEntity
  8
Layer_1
 62
5
100
AcDbSpline
 70
8
 71
3
 72
8
 73
4
 74
0
 40
0
 40
0
 40
0
 40
0
 40
1
 40
1
 40
1
 40
1
 10
585.937852
 20
-111.474549
 30
0.0
 10
587.510482
 20
-116.285296
 30
0.0
 10
585.704633
 20
-121.555774
 30
0.0
 10
581.512160
 20
-124.391196
 30
0.0
  0
LWPOLYLINE
  5
11a
100
AcDbEntity
  8
Layer_1
 62
5
100
AcDbPolyline
 90
3
 70
0
 10
467.062160
 20
-25.691196
 30
0.0
 10
490.462160
 20
-106.716156
 30
0.0
 10
574.737160
 20
-103.666156
 30
0.0
  0
SPLINE
  5
11b
100
AcDbEntity
  8
Layer_1
 62
5
100
AcDbSpline
 70
8
 71
3
 72
8
 73
4
 74
0
 40
0
 40
0
 40
0
 40
0
 40
1
 40
1
 40
1
 40
1
 10
540.612160
 20
-250.891196
 30
0.0
 10
542.361370
 20
-255.646117
 30
0.0
 10
540.744151
 20
-260.984452
 30
0.0
 10
536.650242
 20
-263.969231
 30
0.0
  0
SPLINE
  5
11c
100
AcDbEntity
  8
Layer_1
 62
5
100
AcDbSpline
 70
8
 71
3
 72
8
 73
4
 74
0
 40
0
 40
0
 40
0
 40
0
 40
1
 40
1
 40
1
 40
1
 10
536.650242
 20
-263.969231
 30
0.0
 10
532.556332
 20
-266.954011
 30
0.0
 10
526.979186
 20
-266.860929
 30
0.0
 10
522.987160
 20
-263.741196
 30
0.0
  0
LWPOLYLINE
  5
11d
100
AcDbEntity
  8
Layer_1
 62
5
100
AcDbPolyline
 90
3
 70
0
 10
581.512160
 20
-124.391196
 30
0.0
 10
511.662160
 20
-171.691196
 30
0.0
 10
540.612160
 20
-250.891196
 30
0.0
  0
SPLINE
  5
11e
100
AcDbEntity
  8
Layer_1
 62
5
100
AcDbSpline
 70
8
 71
3
 72
8
 73
4
 74
0
 40
0
 40
0
 40
0
 40
0
 40
1
 40
1
 40
1
 40
1
 10
390.037160
 20
-263.941196
 30
0.0
 10
386.053305
 20
-267.061311
 30
0.0
 10
380.484282
 20
-267.164236
 30
0.0
 10
376.387857
 20
-264.193458
 30
0.0
  0
SPLINE
  5
11f
100
AcDbEntity
  8
Layer_1
 62
5
100
AcDbSpline
 70
8
 71
3
 72
8
 73
4
 74
0
 40
0
 40
0
 40
0
 40
0
 40
1
 40
1
 40
1
 40
1
 10
376.387857
 20
-264.193458
 30
0.0
 10
372.291432
 20
-261.222679
 30
0.0
 10
370.659116
 20
-255.897254
 30
0.0
 10
372.387160
 20
-251.141196
 30
0.0
  0
LWPOLYLINE
  5
120
100
AcDbEntity
  8
Layer_1
 62
5
100
AcDbPolyline
 90
3
 70
0
 10
522.987160
 20
-263.741196
 30
0.0
 10
456.437160
 20
-211.916156
 30
0.0
 10
390.037160
 20
-263.941196
 30
0.0
  0
SPLINE
  5
121
100
AcDbEntity
  8
Layer_1
 62
5
100
AcDbSpline
 70
8
 71
3
 72
8
 73
4
 74
0
 40
0
 40
0
 40
0
 40
0
 40
1
 40
1
 40
1
 40
1
 10
331.112160
 20
-124.766156
 30
0.0
 10
326.908866
 20
-121.946119
 30
0.0
 10
325.083525
 20
-116.681844
 30
0.0
 10
326.638822
 20
-111.865066
 30
0.0
  0
SPLINE
  5
122
100
AcDbEntity
  8
Layer_1
 62
5
100
AcDbSpline
 70
8
 71
3
 72
8
 73
4
 74
0
 40
0
 40
0
 40
0
 40
0
 40
1
 40
1
 40
1
 40
1
 10
326.638822
 20
-111.865066
 30
0.0
 10
328.194119
 20
-107.048289
 30
0.0
 10
332.753387
 20
-103.845550
 30
0.0
 10
337.812160
 20
-104.016156
 30
0.0
  0
LWPOLYLINE
  5
123
100
AcDbEntity
  8
Layer_1
 62
5
100
AcDbPolyline
 90
3
 70
0
 10
372.387160
 20
-251.141196
 30
0.0
 10
401.087160
 20
-171.841196
 30
0.0
 10
331.112160
 20
-124.766156
 30
0.0
  0
SPLINE
  5
124
100
AcDbEntity
  8
Layer_1
 62
5
100
AcDbSpline
 70
8
 71
3
 72
8
 73
4
 74
0
 40
0
 40
0
 40
0
 40
0
 40
1
 40
1
 40
1
 40
1
 10
445.262160
 20
-25.716156
 30
0.0
 10
446.642181
 20
-20.884445
 30
0.0
 10
451.037443
 20
-17.537143
 30
0.0
 10
456.062160
 20
-17.491196
 30
0.0
  0
LWPOLYLINE
  5
125
100
AcDbEntity
  8
Layer_1
 62
5
100
AcDbPolyline
 90
3
 70
0
 10
337.812160
 20
-104.016156
 30
0.0
 10
422.112160
 20
-106.816156
 30
0.0
 10
445.262160
 20
-25.716156
 30
0.0
  0
LWPOLYLINE
  5
126
100
AcDbEntity
  8
Layer_1
 62
5
100
AcDbPolyline
 90
2
 70
0
 10
456.062160
 20
-17.491196
 30
0.0
 10
456.062160
 20
-17.491196
 30
0.0
  0
SPLINE
  5
127
100
AcDbEntity
  8
Layer_1
 62
5
100
AcDbSpline
 70
8
 71
3
 72
8
 73
4
 74
0
 40
0
 40
0
 40
0
 40
0
 40
1
 40
1
 40
1
 40
1
 10
477.278400
 20
898.831705
 30
0.0
 10
478.039847
 20
898.858260
 30
0.0
 10
478.802032
 20
898.808006
 30
0.0
 10
479.553400
 20
898.681705
 30
0.0
  0
SPLINE
  5
128
100
AcDbEntity
  8
Layer_1
 62
5
100
AcDbSpline
 70
8
 71
3
 72
8
 73
4
 74
0
 40
0
 40
0
 40
0
 40
0
 40
1
 40
1
 40
1
 40
1
 10
479.553400
 20
898.681705
 30
0.0
 10
484.569030
 20
897.840748
 30
0.0
 10
488.411363
 20
893.763379
 30
0.0
 10
488.953400
 20
888.706705
 30
0.0
  0
LWPOLYLINE
  5
129
100
AcDbEntity
  8
Layer_1
 62
5
100
AcDbPolyline
 90
6
 70
0
 10
305.628400
 20
913.206705
 30
0.0
 10
305.628400
 20
610.306636
 30
0.0
 10
606.228400
 20
610.306636
 30
0.0
 10
606.228400
 20
913.206705
 30
0.0
 10
305.628400
 20
913.206705
 30
0.0
 10
305.628400
 20
913.206705
 30
0.0
  0
SPLINE
  5
12a
100
AcDbEntity
  8
Layer_1
 62
5
100
AcDbSpline
 70
8
 71
3
 72
8
 73
4
 74
0
 40
0
 40
0
 40
0
 40
0
 40
1
 40
1
 40
1
 40
1
 10
497.928400
 20
804.856705
 30
0.0
 10
497.928400
 20
804.856705
 30
0.0
 10
581.453400
 20
793.206705
 30
0.0
 10
581.453400
 20
793.206705
 30
0.0
  0
SPLINE
  5
12b
100
AcDbEntity
  8
Layer_1
 62
5
100
AcDbSpline
 70
8
 71
3
 72
8
 73
4
 74
0
 40
0
 40
0
 40
0
 40
0
 40
1
 40
1
 40
1
 40
1
 10
581.453400
 20
793.206705
 30
0.0
 10
586.458402
 20
792.506845
 30
0.0
 10
590.396211
 20
788.579423
 30
0.0
 10
591.109288
 20
783.576287
 30
0.0
  0
SPLINE
  5
12c
100
AcDbEntity
  8
Layer_1
 62
5
100
AcDbSpline
 70
8
 71
3
 72
8
 73
4
 74
0
 40
0
 40
0
 40
0
 40
0
 40
1
 40
1
 40
1
 40
1
 10
591.109288
 20
783.576287
 30
0.0
 10
591.822366
 20
778.573151
 30
0.0
 10
589.138586
 20
773.701980
 30
0.0
 10
584.528400
 20
771.631705
 30
0.0
  0
LWPOLYLINE
  5
12d
100
AcDbEntity
  8
Layer_1
 62
5
100
AcDbPolyline
 90
2
 70
0
 10
488.953400
 20
888.706705
 30
0.0
 10
497.928400
 20
804.856705
 30
0.0
  0
SPLINE
  5
12e
100
AcDbEntity
  8
Layer_1
 62
5
100
AcDbSpline
 70
8
 71
3
 72
8
 73
4
 74
0
 40
0
 40
0
 40
0
 40
0
 40
1
 40
1
 40
1
 40
1
 10
522.278400
 20
654.156708
 30
0.0
 10
523.169046
 20
649.175767
 30
0.0
 10
520.651887
 20
644.207467
 30
0.0
 10
516.108871
 20
641.979458
 30
0.0
  0
SPLINE
  5
12f
100
AcDbEntity
  8
Layer_1
 62
5
100
AcDbSpline
 70
8
 71
3
 72
8
 73
4
 74
0
 40
0
 40
0
 40
0
 40
0
 40
1
 40
1
 40
1
 40
1
 10
516.108871
 20
641.979458
 30
0.0
 10
511.565855
 20
639.751449
 30
0.0
 10
506.096443
 20
640.802933
 30
0.0
 10
502.703400
 20
644.556636
 30
0.0
  0
LWPOLYLINE
  5
130
100
AcDbEntity
  8
Layer_1
 62
5
100
AcDbPolyline
 90
3
 70
0
 10
584.528400
 20
771.631705
 30
0.0
 10
507.528400
 20
737.181708
 30
0.0
 10
522.278400
 20
654.156708
 30
0.0
  0
SPLINE
  5
131
100
AcDbEntity
  8
Layer_1
 62
5
100
AcDbSpline
 70
8
 71
3
 72
8
 73
4
 74
0
 40
0
 40
0
 40
0
 40
0
 40
1
 40
1
 40
1
 40
1
 10
371.728400
 20
667.456708
 30
0.0
 10
367.268586
 20
665.095786
 30
0.0
 10
361.785271
 20
665.965942
 30
0.0
 10
358.275474
 20
669.591575
 30
0.0
  0
SPLINE
  5
132
100
AcDbEntity
  8
Layer_1
 62
5
100
AcDbSpline
 70
8
 71
3
 72
8
 73
4
 74
0
 40
0
 40
0
 40
0
 40
0
 40
1
 40
1
 40
1
 40
1
 10
358.275474
 20
669.591575
 30
0.0
 10
354.765676
 20
673.217207
 30
0.0
 10
354.073961
 20
678.725877
 30
0.0
 10
356.578400
 20
683.106708
 30
0.0
  0
LWPOLYLINE
  5
133
100
AcDbEntity
  8
Layer_1
 62
5
100
AcDbPolyline
 90
3
 70
0
 10
502.703400
 20
644.556636
 30
0.0
 10
446.153400
 20
707.156708
 30
0.0
 10
371.728400
 20
667.456708
 30
0.0
  0
SPLINE
  5
134
100
AcDbEntity
  8
Layer_1
 62
5
100
AcDbSpline
 70
8
 71
3
 72
8
 73
4
 74
0
 40
0
 40
0
 40
0
 40
0
 40
1
 40
1
 40
1
 40
1
 10
337.878400
 20
814.731705
 30
0.0
 10
334.225459
 20
818.237989
 30
0.0
 10
333.339731
 20
823.741165
 30
0.0
 10
335.708033
 20
828.216559
 30
0.0
  0
SPLINE
  5
135
100
AcDbEntity
  8
Layer_1
 62
5
100
AcDbSpline
 70
8
 71
3
 72
8
 73
4
 74
0
 40
0
 40
0
 40
0
 40
0
 40
1
 40
1
 40
1
 40
1
 10
335.708033
 20
828.216559
 30
0.0
 10
338.076335
 20
832.691953
 30
0.0
 10
343.124688
 20
835.054915
 30
0.0
 10
348.078400
 20
834.006705
 30
0.0
  0
LWPOLYLINE
  5
136
100
AcDbEntity
  8
Layer_1
 62
5
100
AcDbPolyline
 90
3
 70
0
 10
356.578400
 20
683.106708
 30
0.0
 10
398.603400
 20
756.231708
 30
0.0
 10
337.878400
 20
814.731705
 30
0.0
  0
SPLINE
  5
137
100
AcDbEntity
  8
Layer_1
 62
5
100
AcDbSpline
 70
8
 71
3
 72
8
 73
4
 74
0
 40
0
 40
0
 40
0
 40
0
 40
1
 40
1
 40
1
 40
1
 10
467.478400
 20
892.456705
 30
0.0
 10
469.313475
 20
896.231652
 30
0.0
 10
473.083646
 20
898.684186
 30
0.0
 10
477.278400
 20
898.831705
 30
0.0
  0
LWPOLYLINE
  5
138
100
AcDbEntity
  8
Layer_1
 62
5
100
AcDbPolyline
 90
3
 70
0
 10
348.078400
 20
834.006705
 30
0.0
 10
430.603400
 20
816.606705
 30
0.0
 10
467.478400
 20
892.456705
 30
0.0
  0
LWPOLYLINE
  5
139
100
AcDbEntity
  8
Layer_1
 62
5
100
AcDbPolyline
 90
2
 70
0
 10
477.278400
 20
898.831705
 30
0.0
 10
477.278400
 20
898.831705
 30
0.0
  0
SPLINE
  5
13a
100
AcDbEntity
  8
Layer_1
 62
5
100
AcDbSpline
 70
8
 71
3
 72
8
 73
4
 74
0
 40
0
 40
0
 40
0
 40
0
 40
1
 40
1
 40
1
 40
1
 10
194.117040
 20
890.265397
 30
0.0
 10
195.243235
 20
890.213974
 30
0.0
 10
196.355466
 20
889.994899
 30
0.0
 10
197.417040
 20
889.615397
 30
0.0
  0
SPLINE
  5
13b
100
AcDbEntity
  8
Layer_1
 62
5
100
AcDbSpline
 70
8
 71
3
 72
8
 73
4
 74
0
 40
0
 40
0
 40
0
 40
0
 40
1
 40
1
 40
1
 40
1
 10
197.417040
 20
889.615397
 30
0.0
 10
202.217693
 20
887.914317
 30
0.0
 10
205.295275
 20
883.221260
 30
0.0
 10
204.942040
 20
878.140397
 30
0.0
  0
LWPOLYLINE
  5
13c
100
AcDbEntity
  8
Layer_1
 62
5
100
AcDbPolyline
 90
6
 70
0
 10
0.142029
 20
911.590397
 30
0.0
 10
0.142029
 20
608.690388
 30
0.0
 10
300.742040
 20
608.690388
 30
0.0
 10
300.742040
 20
911.590397
 30
0.0
 10
0.142029
 20
911.590397
 30
0.0
 10
0.142029
 20
911.590397
 30
0.0
  0
SPLINE
  5
13d
100
AcDbEntity
  8
Layer_1
 62
5
100
AcDbSpline
 70
8
 71
3
 72
8
 73
4
 74
0
 40
0
 40
0
 40
0
 40
0
 40
1
 40
1
 40
1
 40
1
 10
279.467040
 20
768.040397
 30
0.0
 10
284.290949
 20
766.491428
 30
0.0
 10
287.502027
 20
761.930422
 30
0.0
 10
287.333624
 20
756.866723
 30
0.0
  0
SPLINE
  5
13e
100
AcDbEntity
  8
Layer_1
 62
5
100
AcDbSpline
 70
8
 71
3
 72
8
 73
4
 74
0
 40
0
 40
0
 40
0
 40
0
 40
1
 40
1
 40
1
 40
1
 10
287.333624
 20
756.866723
 30
0.0
 10
287.165221
 20
751.803024
 30
0.0
 10
283.658204
 20
747.465441
 30
0.0
 10
278.742040
 20
746.240396
 30
0.0
  0
LWPOLYLINE
  5
13f
100
AcDbEntity
  8
Layer_1
 62
5
100
AcDbPolyline
 90
3
 70
0
 10
204.942040
 20
878.140397
 30
0.0
 10
199.217040
 20
793.990397
 30
0.0
 10
279.467040
 20
768.040397
 30
0.0
  0
SPLINE
  5
140
100
AcDbEntity
  8
Layer_1
 62
5
100
AcDbSpline
 70
8
 71
3
 72
8
 73
4
 74
0
 40
0
 40
0
 40
0
 40
0
 40
1
 40
1
 40
1
 40
1
 10
196.917040
 20
725.690396
 30
0.0
 10
196.917040
 20
725.690396
 30
0.0
 10
197.042040
 20
641.365348
 30
0.0
 10
197.042040
 20
641.365348
 30
0.0
  0
SPLINE
  5
141
100
AcDbEntity
  8
Layer_1
 62
5
100
AcDbSpline
 70
8
 71
3
 72
8
 73
4
 74
0
 40
0
 40
0
 40
0
 40
0
 40
1
 40
1
 40
1
 40
1
 10
197.042040
 20
641.365348
 30
0.0
 10
197.055788
 20
636.302906
 30
0.0
 10
193.712235
 20
631.844575
 30
0.0
 10
188.848519
 20
630.440018
 30
0.0
  0
SPLINE
  5
142
100
AcDbEntity
  8
Layer_1
 62
5
100
AcDbSpline
 70
8
 71
3
 72
8
 73
4
 74
0
 40
0
 40
0
 40
0
 40
0
 40
1
 40
1
 40
1
 40
1
 10
188.848519
 20
630.440018
 30
0.0
 10
183.984804
 20
629.035461
 30
0.0
 10
178.779231
 20
631.024950
 30
0.0
 10
176.092040
 20
635.315348
 30
0.0
  0
LWPOLYLINE
  5
143
100
AcDbEntity
  8
Layer_1
 62
5
100
AcDbPolyline
 90
2
 70
0
 10
278.742040
 20
746.240396
 30
0.0
 10
196.917040
 20
725.690396
 30
0.0
  0
SPLINE
  5
144
100
AcDbEntity
  8
Layer_1
 62
5
100
AcDbSpline
 70
8
 71
3
 72
8
 73
4
 74
0
 40
0
 40
0
 40
0
 40
0
 40
1
 40
1
 40
1
 40
1
 10
131.267040
 20
706.765396
 30
0.0
 10
131.267040
 20
706.765396
 30
0.0
 10
51.092030
 20
680.590396
 30
0.0
 10
51.092030
 20
680.590396
 30
0.0
  0
SPLINE
  5
145
100
AcDbEntity
  8
Layer_1
 62
5
100
AcDbSpline
 70
8
 71
3
 72
8
 73
4
 74
0
 40
0
 40
0
 40
0
 40
0
 40
1
 40
1
 40
1
 40
1
 10
51.092030
 20
680.590396
 30
0.0
 10
46.274833
 20
679.001178
 30
0.0
 10
40.988167
 20
680.804491
 30
0.0
 10
38.146309
 20
685.006257
 30
0.0
  0
SPLINE
  5
146
100
AcDbEntity
  8
Layer_1
 62
5
100
AcDbSpline
 70
8
 71
3
 72
8
 73
4
 74
0
 40
0
 40
0
 40
0
 40
0
 40
1
 40
1
 40
1
 40
1
 10
38.146309
 20
685.006257
 30
0.0
 10
35.304451
 20
689.208023
 30
0.0
 10
35.598773
 20
694.786028
 30
0.0
 10
38.867030
 20
698.665396
 30
0.0
  0
LWPOLYLINE
  5
147
100
AcDbEntity
  8
Layer_1
 62
5
100
AcDbPolyline
 90
2
 70
0
 10
176.092040
 20
635.315348
 30
0.0
 10
131.267040
 20
706.765396
 30
0.0
  0
SPLINE
  5
148
100
AcDbEntity
  8
Layer_1
 62
5
100
AcDbSpline
 70
8
 71
3
 72
8
 73
4
 74
0
 40
0
 40
0
 40
0
 40
0
 40
1
 40
1
 40
1
 40
1
 10
92.967040
 20
763.365397
 30
0.0
 10
92.967040
 20
763.365397
 30
0.0
 10
43.317030
 20
831.540397
 30
0.0
 10
43.317030
 20
831.540397
 30
0.0
  0
SPLINE
  5
149
100
AcDbEntity
  8
Layer_1
 62
5
100
AcDbSpline
 70
8
 71
3
 72
8
 73
4
 74
0
 40
0
 40
0
 40
0
 40
0
 40
1
 40
1
 40
1
 40
1
 10
43.317030
 20
831.540397
 30
0.0
 10
40.347247
 20
835.625538
 30
0.0
 10
40.437117
 20
841.182335
 30
0.0
 10
43.537449
 20
845.169304
 30
0.0
  0
SPLINE
  5
14a
100
AcDbEntity
  8
Layer_1
 62
5
100
AcDbSpline
 70
8
 71
3
 72
8
 73
4
 74
0
 40
0
 40
0
 40
0
 40
0
 40
1
 40
1
 40
1
 40
1
 10
43.537449
 20
845.169304
 30
0.0
 10
46.637782
 20
849.156273
 30
0.0
 10
52.001185
 20
850.612284
 30
0.0
 10
56.692030
 20
848.740397
 30
0.0
  0
LWPOLYLINE
  5
14b
100
AcDbEntity
  8
Layer_1
 62
5
100
AcDbPolyline
 90
2
 70
0
 10
38.867030
 20
698.665396
 30
0.0
 10
92.967040
 20
763.365397
 30
0.0
  0
SPLINE
  5
14c
100
AcDbEntity
  8
Layer_1
 62
5
100
AcDbSpline
 70
8
 71
3
 72
8
 73
4
 74
0
 40
0
 40
0
 40
0
 40
0
 40
1
 40
1
 40
1
 40
1
 10
134.967040
 20
817.265397
 30
0.0
 10
134.967040
 20
817.265397
 30
0.0
 10
184.467040
 20
885.565397
 30
0.0
 10
184.467040
 20
885.565397
 30
0.0
  0
SPLINE
  5
14d
100
AcDbEntity
  8
Layer_1
 62
5
100
AcDbSpline
 70
8
 71
3
 72
8
 73
4
 74
0
 40
0
 40
0
 40
0
 40
0
 40
1
 40
1
 40
1
 40
1
 10
184.467040
 20
885.565397
 30
0.0
 10
186.457168
 20
888.318164
 30
0.0
 10
189.576516
 20
890.033806
 30
0.0
 10
192.967040
 20
890.240397
 30
0.0
  0
SPLINE
  5
14e
100
AcDbEntity
  8
Layer_1
 62
5
100
AcDbSpline
 70
8
 71
3
 72
8
 73
4
 74
0
 40
0
 40
0
 40
0
 40
0
 40
1
 40
1
 40
1
 40
1
 10
192.967040
 20
890.240397
 30
0.0
 10
193.349704
 20
890.268167
 30
0.0
 10
193.733531
 20
890.276497
 30
0.0
 10
194.117040
 20
890.265357
 30
0.0
  0
LWPOLYLINE
  5
14f
100
AcDbEntity
  8
Layer_1
 62
5
100
AcDbPolyline
 90
2
 70
0
 10
56.692030
 20
848.740397
 30
0.0
 10
134.967040
 20
817.265397
 30
0.0
  0
LWPOLYLINE
  5
150
100
AcDbEntity
  8
Layer_1
 62
5
100
AcDbPolyline
 90
2
 70
0
 10
194.117040
 20
890.265357
 30
0.0
 10
194.117040
 20
890.265397
 30
0.0
  0
SPLINE
  5
151
100
AcDbEntity
  8
Layer_1
 62
5
100
AcDbSpline
 70
8
 71
3
 72
8
 73
4
 74
0
 40
0
 40
0
 40
0
 40
0
 40
1
 40
1
 40
1
 40
1
 10
516.962160
 20
577.462148
 30
0.0
 10
518.857139
 20
577.429470
 30
0.0
 10
520.713705
 20
576.922353
 30
0.0
 10
522.362160
 20
575.987148
 30
0.0
  0
SPLINE
  5
152
100
AcDbEntity
  8
Layer_1
 62
5
100
AcDbSpline
 70
8
 71
3
 72
8
 73
4
 74
0
 40
0
 40
0
 40
0
 40
0
 40
1
 40
1
 40
1
 40
1
 10
522.362160
 20
575.987148
 30
0.0
 10
526.793992
 20
573.481221
 30
0.0
 10
529.012411
 20
568.328763
 30
0.0
 10
527.787160
 20
563.387148
 30
0.0
  0
LWPOLYLINE
  5
153
100
AcDbEntity
  8
Layer_1
 62
5
100
AcDbPolyline
 90
6
 70
0
 10
304.012160
 20
608.512148
 30
0.0
 10
304.012160
 20
305.612140
 30
0.0
 10
604.612160
 20
305.612140
 30
0.0
 10
604.612160
 20
608.512148
 30
0.0
 10
304.012160
 20
608.512148
 30
0.0
 10
304.012160
 20
608.512148
 30
0.0
  0
SPLINE
  5
154
100
AcDbEntity
  8
Layer_1
 62
5
100
AcDbSpline
 70
8
 71
3
 72
8
 73
4
 74
0
 40
0
 40
0
 40
0
 40
0
 40
1
 40
1
 40
1
 40
1
 10
582.062160
 20
442.012148
 30
0.0
 10
586.526372
 20
439.641192
 30
0.0
 10
588.882266
 20
434.601754
 30
0.0
 10
587.838595
 20
429.655910
 30
0.0
  0
SPLINE
  5
155
100
AcDbEntity
  8
Layer_1
 62
5
100
AcDbSpline
 70
8
 71
3
 72
8
 73
4
 74
0
 40
0
 40
0
 40
0
 40
0
 40
1
 40
1
 40
1
 40
1
 10
587.838595
 20
429.655910
 30
0.0
 10
586.794923
 20
424.710066
 30
0.0
 10
582.603723
 20
421.052195
 30
0.0
 10
577.562160
 20
420.687148
 30
0.0
  0
LWPOLYLINE
  5
156
100
AcDbEntity
  8
Layer_1
 62
5
100
AcDbPolyline
 90
3
 70
0
 10
527.787160
 20
563.387148
 30
0.0
 10
507.562160
 20
481.512148
 30
0.0
 10
582.062160
 20
442.012148
 30
0.0
  0
SPLINE
  5
157
100
AcDbEntity
  8
Layer_1
 62
5
100
AcDbSpline
 70
8
 71
3
 72
8
 73
4
 74
0
 40
0
 40
0
 40
0
 40
0
 40
1
 40
1
 40
1
 40
1
 10
478.887160
 20
331.587100
 30
0.0
 10
478.018281
 20
326.604365
 30
0.0
 10
473.954503
 20
322.799504
 30
0.0
 10
468.925428
 20
322.260062
 30
0.0
  0
SPLINE
  5
158
100
AcDbEntity
  8
Layer_1
 62
5
100
AcDbSpline
 70
8
 71
3
 72
8
 73
4
 74
0
 40
0
 40
0
 40
0
 40
0
 40
1
 40
1
 40
1
 40
1
 10
468.925428
 20
322.260062
 30
0.0
 10
463.896353
 20
321.720620
 30
0.0
 10
459.118055
 20
324.577040
 30
0.0
 10
457.212160
 20
329.262140
 30
0.0
  0
LWPOLYLINE
  5
159
100
AcDbEntity
  8
Layer_1
 62
5
100
AcDbPolyline
 90
3
 70
0
 10
577.562160
 20
420.687148
 30
0.0
 10
493.412160
 20
414.637148
 30
0.0
 10
478.887160
 20
331.587100
 30
0.0
  0
SPLINE
  5
15a
100
AcDbEntity
  8
Layer_1
 62
5
100
AcDbSpline
 70
8
 71
3
 72
8
 73
4
 74
0
 40
0
 40
0
 40
0
 40
0
 40
1
 40
1
 40
1
 40
1
 10
341.962160
 20
395.562148
 30
0.0
 10
336.946285
 20
394.847108
 30
0.0
 10
332.064699
 20
397.546208
 30
0.0
 10
330.003193
 20
402.174433
 30
0.0
  0
SPLINE
  5
15b
100
AcDbEntity
  8
Layer_1
 62
5
100
AcDbSpline
 70
8
 71
3
 72
8
 73
4
 74
0
 40
0
 40
0
 40
0
 40
0
 40
1
 40
1
 40
1
 40
1
 10
330.003193
 20
402.174433
 30
0.0
 10
327.941687
 20
406.802659
 30
0.0
 10
329.200546
 20
412.236838
 30
0.0
 10
333.087160
 20
415.487148
 30
0.0
  0
LWPOLYLINE
  5
15c
100
AcDbEntity
  8
Layer_1
 62
5
100
AcDbPolyline
 90
3
 70
0
 10
457.212160
 20
329.262140
 30
0.0
 10
425.487160
 20
407.412148
 30
0.0
 10
341.962160
 20
395.562148
 30
0.0
  0
SPLINE
  5
15d
100
AcDbEntity
  8
Layer_1
 62
5
100
AcDbSpline
 70
8
 71
3
 72
8
 73
4
 74
0
 40
0
 40
0
 40
0
 40
0
 40
1
 40
1
 40
1
 40
1
 10
360.537160
 20
545.562148
 30
0.0
 10
358.304302
 20
550.105868
 30
0.0
 10
359.353888
 20
555.579260
 30
0.0
 10
363.109170
 20
558.974685
 30
0.0
  0
SPLINE
  5
15e
100
AcDbEntity
  8
Layer_1
 62
5
100
AcDbSpline
 70
8
 71
3
 72
8
 73
4
 74
0
 40
0
 40
0
 40
0
 40
0
 40
1
 40
1
 40
1
 40
1
 10
363.109170
 20
558.974685
 30
0.0
 10
366.864452
 20
562.370110
 30
0.0
 10
372.415564
 20
562.864892
 30
0.0
 10
376.712160
 20
560.187148
 30
0.0
  0
LWPOLYLINE
  5
15f
100
AcDbEntity
  8
Layer_1
 62
5
100
AcDbPolyline
 90
3
 70
0
 10
333.087160
 20
415.487148
 30
0.0
 10
397.587160
 20
469.812148
 30
0.0
 10
360.537160
 20
545.562148
 30
0.0
  0
SPLINE
  5
160
100
AcDbEntity
  8
Layer_1
 62
5
100
AcDbSpline
 70
8
 71
3
 72
8
 73
4
 74
0
 40
0
 40
0
 40
0
 40
0
 40
1
 40
1
 40
1
 40
1
 10
448.312160
 20
515.612148
 30
0.0
 10
448.312160
 20
515.612148
 30
0.0
 10
508.912160
 20
574.262148
 30
0.0
 10
508.912160
 20
574.262148
 30
0.0
  0
SPLINE
  5
161
100
AcDbEntity
  8
Layer_1
 62
5
100
AcDbSpline
 70
8
 71
3
 72
8
 73
4
 74
0
 40
0
 40
0
 40
0
 40
0
 40
1
 40
1
 40
1
 40
1
 10
508.912160
 20
574.262148
 30
0.0
 10
511.066274
 20
576.352104
 30
0.0
 10
513.961082
 20
577.502835
 30
0.0
 10
516.962160
 20
577.462148
 30
0.0
  0
LWPOLYLINE
  5
162
100
AcDbEntity
  8
Layer_1
 62
5
100
AcDbPolyline
 90
2
 70
0
 10
376.712160
 20
560.187148
 30
0.0
 10
448.312160
 20
515.612148
 30
0.0
  0
LWPOLYLINE
  5
163
100
AcDbEntity
  8
Layer_1
 62
5
100
AcDbPolyline
 90
2
 70
0
 10
516.962160
 20
577.462148
 30
0.0
 10
516.962160
 20
577.462148
 30
0.0
  0
SPLINE
  5
164
100
AcDbEntity
  8
Layer_1
 62
5
100
AcDbSpline
 70
8
 71
3
 72
8
 73
4
 74
0
 40
0
 40
0
 40
0
 40
0
 40
1
 40
1
 40
1
 40
1
 10
388.420912
 20
270.375140
 30
0.0
 10
391.096012
 20
270.291389
 30
0.0
 10
393.655273
 20
269.264142
 30
0.0
 10
395.645912
 20
267.475140
 30
0.0
  0
LWPOLYLINE
  5
165
100
AcDbEntity
  8
Layer_1
 62
5
100
AcDbPolyline
 90
6
 70
0
 10
303.995912
 20
303.850140
 30
0.0
 10
303.995912
 20
0.950164
 30
0.0
 10
604.595912
 20
0.950164
 30
0.0
 10
604.595912
 20
303.850140
 30
0.0
 10
303.995912
 20
303.850140
 30
0.0
 10
303.995912
 20
303.850140
 30
0.0
  0
SPLINE
  5
166
100
AcDbEntity
  8
Layer_1
 62
5
100
AcDbSpline
 70
8
 71
3
 72
8
 73
4
 74
0
 40
0
 40
0
 40
0
 40
0
 40
1
 40
1
 40
1
 40
1
 10
528.295912
 20
258.375140
 30
0.0
 10
532.453040
 20
261.188934
 30
0.0
 10
537.965460
 20
260.934671
 30
0.0
 10
541.845912
 20
257.750140
 30
0.0
  0
SPLINE
  5
167
100
AcDbEntity
  8
Layer_1
 62
5
100
AcDbSpline
 70
8
 71
3
 72
8
 73
4
 74
0
 40
0
 40
0
 40
0
 40
0
 40
1
 40
1
 40
1
 40
1
 10
541.845912
 20
257.750140
 30
0.0
 10
545.785114
 20
254.508033
 30
0.0
 10
547.074219
 20
249.034454
 30
0.0
 10
544.995912
 20
244.375140
 30
0.0
  0
LWPOLYLINE
  5
168
100
AcDbEntity
  8
Layer_1
 62
5
100
AcDbPolyline
 90
3
 70
0
 10
395.645912
 20
267.475140
 30
0.0
 10
458.420912
 20
211.125140
 30
0.0
 10
528.295912
 20
258.375140
 30
0.0
  0
SPLINE
  5
169
100
AcDbEntity
  8
Layer_1
 62
5
100
AcDbSpline
 70
8
 71
3
 72
8
 73
4
 74
0
 40
0
 40
0
 40
0
 40
0
 40
1
 40
1
 40
1
 40
1
 10
510.845912
 20
167.275140
 30
0.0
 10
510.845912
 20
167.275140
 30
0.0
 10
577.370912
 20
115.450140
 30
0.0
 10
577.370912
 20
115.450140
 30
0.0
  0
SPLINE
  5
16a
100
AcDbEntity
  8
Layer_1
 62
5
100
AcDbSpline
 70
8
 71
3
 72
8
 73
4
 74
0
 40
0
 40
0
 40
0
 40
0
 40
1
 40
1
 40
1
 40
1
 10
577.370912
 20
115.450140
 30
0.0
 10
581.383847
 20
112.349334
 30
0.0
 10
582.850046
 20
106.961051
 30
0.0
 10
580.961584
 20
102.254423
 30
0.0
  0
SPLINE
  5
16b
100
AcDbEntity
  8
Layer_1
 62
5
100
AcDbSpline
 70
8
 71
3
 72
8
 73
4
 74
0
 40
0
 40
0
 40
0
 40
0
 40
1
 40
1
 40
1
 40
1
 10
580.961584
 20
102.254423
 30
0.0
 10
579.073122
 20
97.547794
 30
0.0
 10
574.289195
 20
94.667278
 30
0.0
 10
569.245912
 20
95.200140
 30
0.0
  0
LWPOLYLINE
  5
16c
100
AcDbEntity
  8
Layer_1
 62
5
100
AcDbPolyline
 90
2
 70
0
 10
544.995912
 20
244.375140
 30
0.0
 10
510.845912
 20
167.275140
 30
0.0
  0
SPLINE
  5
16d
100
AcDbEntity
  8
Layer_1
 62
5
100
AcDbSpline
 70
8
 71
3
 72
8
 73
4
 74
0
 40
0
 40
0
 40
0
 40
0
 40
1
 40
1
 40
1
 40
1
 10
485.320912
 20
103.875140
 30
0.0
 10
485.320912
 20
103.875140
 30
0.0
 10
456.595912
 20
24.600164
 30
0.0
 10
456.595912
 20
24.600164
 30
0.0
  0
SPLINE
  5
16e
100
AcDbEntity
  8
Layer_1
 62
5
100
AcDbSpline
 70
8
 71
3
 72
8
 73
4
 74
0
 40
0
 40
0
 40
0
 40
0
 40
1
 40
1
 40
1
 40
1
 10
456.595912
 20
24.600164
 30
0.0
 10
454.888966
 20
19.820599
 30
0.0
 10
450.214061
 20
16.757258
 30
0.0
 10
445.150441
 20
17.100250
 30
0.0
  0
SPLINE
  5
16f
100
AcDbEntity
  8
Layer_1
 62
5
100
AcDbSpline
 70
8
 71
3
 72
8
 73
4
 74
0
 40
0
 40
0
 40
0
 40
0
 40
1
 40
1
 40
1
 40
1
 10
445.150441
 20
17.100250
 30
0.0
 10
440.086820
 20
17.443241
 30
0.0
 10
435.867722
 20
21.109030
 30
0.0
 10
434.820912
 20
26.075124
 30
0.0
  0
LWPOLYLINE
  5
170
100
AcDbEntity
  8
Layer_1
 62
5
100
AcDbPolyline
 90
2
 70
0
 10
569.245912
 20
95.200140
 30
0.0
 10
485.320912
 20
103.875140
 30
0.0
  0
SPLINE
  5
171
100
AcDbEntity
  8
Layer_1
 62
5
100
AcDbSpline
 70
8
 71
3
 72
8
 73
4
 74
0
 40
0
 40
0
 40
0
 40
0
 40
1
 40
1
 40
1
 40
1
 10
417.170912
 20
108.550140
 30
0.0
 10
417.170912
 20
108.550140
 30
0.0
 10
332.845912
 20
111.375140
 30
0.0
 10
332.845912
 20
111.375140
 30
0.0
  0
SPLINE
  5
172
100
AcDbEntity
  8
Layer_1
 62
5
100
AcDbSpline
 70
8
 71
3
 72
8
 73
4
 74
0
 40
0
 40
0
 40
0
 40
0
 40
1
 40
1
 40
1
 40
1
 10
332.845912
 20
111.375140
 30
0.0
 10
327.792109
 20
111.553645
 30
0.0
 10
323.467285
 20
115.056977
 30
0.0
 10
322.243523
 20
119.963625
 30
0.0
  0
SPLINE
  5
173
100
AcDbEntity
  8
Layer_1
 62
5
100
AcDbSpline
 70
8
 71
3
 72
8
 73
4
 74
0
 40
0
 40
0
 40
0
 40
0
 40
1
 40
1
 40
1
 40
1
 10
322.243523
 20
119.963625
 30
0.0
 10
321.019761
 20
124.870273
 30
0.0
 10
323.192858
 20
129.994244
 30
0.0
 10
327.570912
 20
132.525140
 30
0.0
  0
LWPOLYLINE
  5
174
100
AcDbEntity
  8
Layer_1
 62
5
100
AcDbPolyline
 90
2
 70
0
 10
434.820912
 20
26.075124
 30
0.0
 10
417.170912
 20
108.550140
 30
0.0
  0
SPLINE
  5
175
100
AcDbEntity
  8
Layer_1
 62
5
100
AcDbSpline
 70
8
 71
3
 72
8
 73
4
 74
0
 40
0
 40
0
 40
0
 40
0
 40
1
 40
1
 40
1
 40
1
 10
400.520912
 20
174.825140
 30
0.0
 10
400.520912
 20
174.825140
 30
0.0
 10
377.170912
 20
255.875140
 30
0.0
 10
377.170912
 20
255.875140
 30
0.0
  0
SPLINE
  5
176
100
AcDbEntity
  8
Layer_1
 62
5
100
AcDbSpline
 70
8
 71
3
 72
8
 73
4
 74
0
 40
0
 40
0
 40
0
 40
0
 40
1
 40
1
 40
1
 40
1
 10
377.170912
 20
255.875140
 30
0.0
 10
376.157078
 20
259.361959
 30
0.0
 10
376.874415
 20
263.123417
 30
0.0
 10
379.100343
 20
265.992391
 30
0.0
  0
SPLINE
  5
177
100
AcDbEntity
  8
Layer_1
 62
5
100
AcDbSpline
 70
8
 71
3
 72
8
 73
4
 74
0
 40
0
 40
0
 40
0
 40
0
 40
1
 40
1
 40
1
 40
1
 10
379.100343
 20
265.992391
 30
0.0
 10
381.326271
 20
268.861366
 30
0.0
 10
384.791533
 20
270.490812
 30
0.0
 10
388.420912
 20
270.375140
 30
0.0
  0
LWPOLYLINE
  5
178
100
AcDbEntity
  8
Layer_1
 62
5
100
AcDbPolyline
 90
2
 70
0
 10
327.570912
 20
132.525140
 30
0.0
 10
400.520912
 20
174.825140
 30
0.0
  0
LWPOLYLINE
  5
179
100
AcDbEntity
  8
Layer_1
 62
5
100
AcDbPolyline
 90
2
 70
0
 10
388.420912
 20
270.375140
 30
0.0
 10
388.420912
 20
270.375140
 30
0.0
  0
SPLINE
  5
17a
100
AcDbEntity
  8
Layer_1
 62
5
100
AcDbSpline
 70
8
 71
3
 72
8
 73
4
 74
0
 40
0
 40
0
 40
0
 40
0
 40
1
 40
1
 40
1
 40
1
 10
103.675776
 20
584.154132
 30
0.0
 10
107.134843
 20
584.129864
 30
0.0
 10
110.393666
 20
582.528070
 30
0.0
 10
112.525776
 20
579.804132
 30
0.0
  0
LWPOLYLINE
  5
17b
100
AcDbEntity
  8
Layer_1
 62
5
100
AcDbPolyline
 90
6
 70
0
 10
0.125785
 20
607.704132
 30
0.0
 10
0.125785
 20
304.804012
 30
0.0
 10
300.725776
 20
304.804012
 30
0.0
 10
300.725776
 20
607.704132
 30
0.0
 10
0.125785
 20
607.704132
 30
0.0
 10
0.125785
 20
607.704132
 30
0.0
  0
SPLINE
  5
17c
100
AcDbEntity
  8
Layer_1
 62
5
100
AcDbSpline
 70
8
 71
3
 72
8
 73
4
 74
0
 40
0
 40
0
 40
0
 40
0
 40
1
 40
1
 40
1
 40
1
 10
241.575776
 20
547.804132
 30
0.0
 10
246.163627
 20
549.859026
 30
0.0
 10
251.556776
 20
548.648111
 30
0.0
 10
254.825776
 20
544.829132
 30
0.0
  0
SPLINE
  5
17d
100
AcDbEntity
  8
Layer_1
 62
5
100
AcDbSpline
 70
8
 71
3
 72
8
 73
4
 74
0
 40
0
 40
0
 40
0
 40
0
 40
1
 40
1
 40
1
 40
1
 10
254.825776
 20
544.829132
 30
0.0
 10
258.131302
 20
540.954651
 30
0.0
 10
258.448258
 20
535.351684
 30
0.0
 10
255.600776
 20
531.129132
 30
0.0
  0
LWPOLYLINE
  5
17e
100
AcDbEntity
  8
Layer_1
 62
5
100
AcDbPolyline
 90
3
 70
0
 10
112.525776
 20
579.804132
 30
0.0
 10
164.575776
 20
513.429132
 30
0.0
 10
241.575776
 20
547.804132
 30
0.0
  0
SPLINE
  5
17f
100
AcDbEntity
  8
Layer_1
 62
5
100
AcDbSpline
 70
8
 71
3
 72
8
 73
4
 74
0
 40
0
 40
0
 40
0
 40
0
 40
1
 40
1
 40
1
 40
1
 10
265.075776
 20
398.529132
 30
0.0
 10
268.485805
 20
394.777038
 30
0.0
 10
268.990735
 20
389.217251
 30
0.0
 10
266.312440
 20
384.912226
 30
0.0
  0
SPLINE
  5
180
100
AcDbEntity
  8
Layer_1
 62
5
100
AcDbSpline
 70
8
 71
3
 72
8
 73
4
 74
0
 40
0
 40
0
 40
0
 40
0
 40
1
 40
1
 40
1
 40
1
 10
266.312440
 20
384.912226
 30
0.0
 10
263.634145
 20
380.607201
 30
0.0
 10
258.423554
 20
378.603224
 30
0.0
 10
253.550776
 20
380.004132
 30
0.0
  0
LWPOLYLINE
  5
181
100
AcDbEntity
  8
Layer_1
 62
5
100
AcDbPolyline
 90
3
 70
0
 10
255.600776
 20
531.129132
 30
0.0
 10
208.575776
 20
461.129132
 30
0.0
 10
265.075776
 20
398.529132
 30
0.0
  0
SPLINE
  5
182
100
AcDbEntity
  8
Layer_1
 62
5
100
AcDbSpline
 70
8
 71
3
 72
8
 73
4
 74
0
 40
0
 40
0
 40
0
 40
0
 40
1
 40
1
 40
1
 40
1
 10
172.425776
 20
403.129132
 30
0.0
 10
172.425776
 20
403.129132
 30
0.0
 10
130.375776
 20
330.029052
 30
0.0
 10
130.375776
 20
330.029052
 30
0.0
  0
SPLINE
  5
183
100
AcDbEntity
  8
Layer_1
 62
5
100
AcDbSpline
 70
8
 71
3
 72
8
 73
4
 74
0
 40
0
 40
0
 40
0
 40
0
 40
1
 40
1
 40
1
 40
1
 10
130.375776
 20
330.029052
 30
0.0
 10
127.857686
 20
325.629442
 30
0.0
 10
122.725432
 20
323.435541
 30
0.0
 10
117.805150
 20
324.655445
 30
0.0
  0
SPLINE
  5
184
100
AcDbEntity
  8
Layer_1
 62
5
100
AcDbSpline
 70
8
 71
3
 72
8
 73
4
 74
0
 40
0
 40
0
 40
0
 40
0
 40
1
 40
1
 40
1
 40
1
 10
117.805150
 20
324.655445
 30
0.0
 10
112.884869
 20
325.875350
 30
0.0
 10
109.371930
 20
330.212688
 30
0.0
 10
109.200776
 20
335.279052
 30
0.0
  0
LWPOLYLINE
  5
185
100
AcDbEntity
  8
Layer_1
 62
5
100
AcDbPolyline
 90
2
 70
0
 10
253.550776
 20
380.004132
 30
0.0
 10
172.425776
 20
403.129132
 30
0.0
  0
SPLINE
  5
186
100
AcDbEntity
  8
Layer_1
 62
5
100
AcDbSpline
 70
8
 71
3
 72
8
 73
4
 74
0
 40
0
 40
0
 40
0
 40
0
 40
1
 40
1
 40
1
 40
1
 10
106.125776
 20
419.554132
 30
0.0
 10
106.125776
 20
419.554132
 30
0.0
 10
23.575786
 20
436.979132
 30
0.0
 10
23.575786
 20
436.979132
 30
0.0
  0
SPLINE
  5
187
100
AcDbEntity
  8
Layer_1
 62
5
100
AcDbSpline
 70
8
 71
3
 72
8
 73
4
 74
0
 40
0
 40
0
 40
0
 40
0
 40
1
 40
1
 40
1
 40
1
 10
23.575786
 20
436.979132
 30
0.0
 10
18.625097
 20
438.028372
 30
0.0
 10
14.968896
 20
442.231044
 30
0.0
 10
14.614937
 20
447.279305
 30
0.0
  0
SPLINE
  5
188
100
AcDbEntity
  8
Layer_1
 62
5
100
AcDbSpline
 70
8
 71
3
 72
8
 73
4
 74
0
 40
0
 40
0
 40
0
 40
0
 40
1
 40
1
 40
1
 40
1
 10
14.614937
 20
447.279305
 30
0.0
 10
14.260979
 20
452.327566
 30
0.0
 10
17.294950
 20
456.999319
 30
0.0
 10
22.050786
 20
458.729132
 30
0.0
  0
LWPOLYLINE
  5
189
100
AcDbEntity
  8
Layer_1
 62
5
100
AcDbPolyline
 90
2
 70
0
 10
109.200776
 20
335.279052
 30
0.0
 10
106.125776
 20
419.554132
 30
0.0
  0
SPLINE
  5
18a
100
AcDbEntity
  8
Layer_1
 62
5
100
AcDbSpline
 70
8
 71
3
 72
8
 73
4
 74
0
 40
0
 40
0
 40
0
 40
0
 40
1
 40
1
 40
1
 40
1
 10
92.325784
 20
571.579132
 30
0.0
 10
91.973182
 20
574.795997
 30
0.0
 10
93.011782
 20
578.010253
 30
0.0
 10
95.180067
 20
580.412562
 30
0.0
  0
SPLINE
  5
18b
100
AcDbEntity
  8
Layer_1
 62
5
100
AcDbSpline
 70
8
 71
3
 72
8
 73
4
 74
0
 40
0
 40
0
 40
0
 40
0
 40
1
 40
1
 40
1
 40
1
 10
95.180067
 20
580.412562
 30
0.0
 10
97.348352
 20
582.814871
 30
0.0
 10
100.439720
 20
584.176331
 30
0.0
 10
103.675776
 20
584.154132
 30
0.0
  0
LWPOLYLINE
  5
18c
100
AcDbEntity
  8
Layer_1
 62
5
100
AcDbPolyline
 90
3
 70
0
 10
22.050786
 20
458.729132
 30
0.0
 10
101.250776
 20
487.729132
 30
0.0
 10
92.325784
 20
571.579132
 30
0.0
  0
LWPOLYLINE
  5
18d
100
AcDbEntity
  8
Layer_1
 62
5
100
AcDbPolyline
 90
2
 70
0
 10
103.675776
 20
584.154132
 30
0.0
 10
103.675776
 20
584.154132
 30
0.0
  0
ENDSEC
  0
SECTION
  2
OBJECTS
  0
DICTIONARY
  5
C
330
0
100
AcDbDictionary
  3
ACAD_GROUP
350
D
  3
ACAD_MLINESTYLE
350
17
  0
DICTIONARY
  5
D
330
C
100
AcDbDictionary
  0
DICTIONARY
  5
1A
330
C
100
AcDbDictionary
  0
DICTIONARY
  5
17
330
C
100
AcDbDictionary
  3
STANDARD
350
18
  0
DICTIONARY
  5
19
330
C
100
AcDbDictionary
  0
ENDSEC
  0
EOF
