<?xml version="1.0" encoding="UTF-8" standalone="no"?>
<!-- Created with Inkscape (http://www.inkscape.org/) -->

<svg
   xmlns:dc="http://purl.org/dc/elements/1.1/"
   xmlns:cc="http://creativecommons.org/ns#"
   xmlns:rdf="http://www.w3.org/1999/02/22-rdf-syntax-ns#"
   xmlns:svg="http://www.w3.org/2000/svg"
   xmlns="http://www.w3.org/2000/svg"
   xmlns:sodipodi="http://sodipodi.sourceforge.net/DTD/sodipodi-0.dtd"
   xmlns:inkscape="http://www.inkscape.org/namespaces/inkscape"
   width="744.09448819"
   height="1052.3622047"
   id="svg2"
   version="1.1"
   inkscape:version="0.48.4 r9939"
   sodipodi:docname="all_star.dxf">
  <defs
     id="defs4" />
  <sodipodi:namedview
     id="base"
     pagecolor="#ffffff"
     bordercolor="#666666"
     borderopacity="1.0"
     inkscape:pageopacity="0.0"
     inkscape:pageshadow="2"
     inkscape:zoom="0.98994949"
     inkscape:cx="454.8903"
     inkscape:cy="1045.433"
     inkscape:document-units="px"
     inkscape:current-layer="layer1"
     showgrid="false" />
  <metadata
     id="metadata7">
    <rdf:RDF>
      <cc:Work
         rdf:about="">
        <dc:format>image/svg+xml</dc:format>
        <dc:type
           rdf:resource="http://purl.org/dc/dcmitype/StillImage" />
        <dc:title></dc:title>
      </cc:Work>
    </rdf:RDF>
  </metadata>
  <g
     inkscape:label="Layer 1"
     inkscape:groupmode="layer"
     id="layer1">
    <path
       style="color:#000000;fill:#00ff00;stroke:#0000ff;stroke-width:0.31446272;stroke-linecap:square;stroke-linejoin:round;stroke-miterlimit:4;stroke-opacity:1;stroke-dasharray:none;stroke-dashoffset:0;marker:none;visibility:visible;display:inline;overflow:visible;enable-background:accumulate"
       d="m 0.15723136,673.5799 0,378.6251 375.75000864,0 0,-378.6251 -375.75000864,0 z"
       id="path3185"
       inkscape:connector-curvature="0" />
    <path
       style="color:#000000;fill:#800000;stroke:#0000ff;stroke-width:0.31446272;stroke-linecap:square;stroke-linejoin:round;stroke-miterlimit:4;stroke-opacity:1;stroke-dasharray:none;stroke-dashoffset:0;marker:none;visibility:visible;display:inline;overflow:visible;enable-background:accumulate"
       d="m 1.1673839,1057.4379 0,378.6251 375.7499961,0 0,-378.6251 -375.7499961,0 z m 163.4687461,18.5937 a 14.174646,14.174646 0 0 1 12.5,7.9375 l 46.40625,94.6563 103.09375,-22.0313 a 14.174646,14.174646 0 0 1 12.8125,24.0313 l -75.71875,73.375 52.84375,91.2187 a 14.174646,14.174646 0 0 1 -18.90625,19.6563 l -93.1875,-49.375 -70.4375,78.4688 a 14.174646,14.174646 0 0 1 -24.5,-11.9376 l 18.125,-103.8437 -96.374996,-42.75 a 14.174646,14.174646 0 0 1 3.75,-27 l 104.374996,-14.8438 10.90625,-104.875 a 14.174646,14.174646 0 0 1 11.5,-12.4687 14.174646,14.174646 0 0 1 2.8125,-0.2188 z"
       id="path3177"
       inkscape:connector-curvature="0" />
    <path
       inkscape:connector-curvature="0"
       style="color:#000000;fill:#ffff00;stroke:#0000ff;stroke-width:0.31446272;stroke-linecap:square;stroke-linejoin:round;stroke-miterlimit:4;stroke-opacity:1;stroke-dasharray:none;stroke-dashoffset:0;marker:none;visibility:visible;display:inline;overflow:visible;enable-background:accumulate"
       d="m 382.0152,1058.5699 0,378.6251 375.75,0 0,-378.6251 -375.75,0 z m 188.0625,15.6563 a 14.174646,14.174646 0 0 1 13.75,10.25 l 29.25,101.2812 105.34375,-3.8125 a 14.174646,14.174646 0 0 1 8.46875,25.9063 l -87.3125,59.125 36.1875,99 a 14.174646,14.174646 0 0 1 -22.03125,16.0625 l -83.1875,-64.7813 -83,65.0313 a 14.174646,14.174646 0 0 1 -22.0625,-16 l 35.875,-99.125 -87.46875,-58.8438 a 14.174646,14.174646 0 0 1 8.375,-25.9375 l 105.375,3.5 28.9375,-101.375 a 14.174646,14.174646 0 0 1 13.5,-10.2812 z"
       id="path3185-5" />
    <path
       style="color:#000000;fill:#00ffff;stroke:#0000ff;stroke-width:0.31446272;stroke-linecap:square;stroke-linejoin:round;stroke-miterlimit:4;stroke-opacity:1;stroke-dasharray:none;stroke-dashoffset:0;marker:none;visibility:visible;display:inline;overflow:visible;enable-background:accumulate"
       d="m 382.0355,-89.146177 0,378.625087 375.75,0 0,-378.625087 -375.75,0 z m 214.5625,17.96875 a 14.174646,14.174646 0 0 1 2.84375,0.1875 14.174646,14.174646 0 0 1 11.75,12.46875 l 11.21875,104.8125 104.40625,14.5625 a 14.174646,14.174646 0 0 1 3.84375,26.96875 l -96.25,43.062497 18.4375,103.78125 a 14.174646,14.174646 0 0 1 -24.46875,12.00009 l -70.6875,-78.25009 -93.03125,49.625 A 14.174646,14.174646 0 0 1 445.723,198.47882 L 498.25425,107.07257 422.348,33.947573 a 14.174646,14.174646 0 0 1 12.75,-24.09375 l 103.15625,21.75 46.09375,-94.8125 a 14.174646,14.174646 0 0 1 12.25,-7.96875 z"
       id="path3236"
       inkscape:connector-curvature="0" />
    <path
       style="color:#000000;fill:#ff0000;stroke:#0000ff;stroke-width:0.31446272;stroke-linecap:square;stroke-linejoin:round;stroke-miterlimit:4;stroke-opacity:1;stroke-dasharray:none;stroke-dashoffset:0;marker:none;visibility:visible;display:inline;overflow:visible;enable-background:accumulate"
       d="m 0.1775365,-87.125792 0,378.625012 375.7500135,0 0,-378.625012 -375.7500135,0 z M 242.6463,-60.469542 a 14.174646,14.174646 0 0 1 4.125,0.8125 14.174646,14.174646 0 0 1 9.40625,14.34375 l -7.15625,105.1875 100.3125,32.4375 a 14.174646,14.174646 0 0 1 -0.90625,27.250002 l -102.28125,25.6875 0.15625,105.40631 a 14.174646,14.174646 0 0 1 -26.1875,7.5625 L 164.0838,168.90546 63.865037,201.62421 A 14.174646,14.174646 0 0 1 48.583787,179.03046 L 116.2088,98.155458 54.146287,12.936708 a 14.174646,14.174646 0 0 1 16.71875,-21.5 l 97.843763,39.34375 61.875,-85.375 a 14.174646,14.174646 0 0 1 10.625,-5.84375 14.174646,14.174646 0 0 1 1.4375,-0.0312 z"
       id="path3262"
       inkscape:connector-curvature="0" />
    <path
       style="color:#000000;fill:#0000ff;stroke:#0000ff;stroke-width:0.31446272;stroke-linecap:square;stroke-linejoin:round;stroke-miterlimit:4;stroke-opacity:1;stroke-dasharray:none;stroke-dashoffset:0;marker:none;visibility:visible;display:inline;overflow:visible;enable-background:accumulate"
       d="m 380.0152,291.72202 0,378.62501 375.75,0 0,-378.62501 -375.75,0 z m 266.1875,38.8125 a 14.174646,14.174646 0 0 1 6.75,1.84375 14.174646,14.174646 0 0 1 6.78125,15.75 l -25.28125,102.34375 93.125,49.375 a 14.174646,14.174646 0 0 1 -5.625,26.65625 l -105.1875,7.5625 -18.15625,103.81256 a 14.174646,14.174646 0 0 1 -27.09375,2.9062 l -39.65625,-97.68751 -104.40625,14.8125 a 14.174646,14.174646 0 0 1 -11.09375,-24.90625 l 80.625,-67.90625 -46.3125,-94.6875 a 14.174646,14.174646 0 0 1 20.21875,-18.28125 l 89.5,55.71875 75.75,-73.3125 a 14.174646,14.174646 0 0 1 10.0625,-4 z"
       id="path3288"
       inkscape:connector-curvature="0" />
    <path
       style="color:#000000;fill:#ff00ff;stroke:#0000ff;stroke-width:0.31446272;stroke-linecap:square;stroke-linejoin:round;stroke-miterlimit:4;stroke-opacity:1;stroke-dasharray:none;stroke-dashoffset:0;marker:none;visibility:visible;display:inline;overflow:visible;enable-background:accumulate"
       d="m 379.99489,672.54953 0,378.62497 375.75,0 0,-378.62497 -375.75,0 z m 105.53125,41.84375 a 14.174646,14.174646 0 0 1 9.03125,3.625 l 78.46875,70.4375 87.34375,-59.0625 a 14.174646,14.174646 0 0 1 16.9375,0.78125 14.174646,14.174646 0 0 1 3.9375,16.71875 l -42.6875,96.375 83.15625,64.78125 a 14.174646,14.174646 0 0 1 -10.15625,25.3125 L 606.65114,922.51828 570.74489,1021.612 a 14.174646,14.174646 0 0 1 -27.21875,-1.8437 l -22.0625,-103.09377 -105.40625,-3.53125 a 14.174646,14.174646 0 0 1 -6.59375,-26.4375 l 91.1875,-52.875 -29.1875,-101.3125 a 14.174646,14.174646 0 0 1 14.0625,-18.125 z"
       id="path3315"
       inkscape:connector-curvature="0" />
    <path
       style="color:#000000;fill:#000000;stroke:#0000ff;stroke-width:0.31446272;stroke-linecap:square;stroke-linejoin:round;stroke-miterlimit:4;stroke-opacity:1;stroke-dasharray:none;stroke-dashoffset:0;marker:none;visibility:visible;display:inline;overflow:visible;enable-background:accumulate"
       d="m 0.15723132,292.73204 0,378.62515 375.74998868,0 0,-378.62515 -375.74998868,0 z M 129.59472,322.16954 a 14.174646,14.174646 0 0 1 11.0625,5.4375 l 65.0625,82.96875 96.25,-42.96875 a 14.174646,14.174646 0 0 1 16.5625,3.71875 14.174646,14.174646 0 0 1 0.96875,17.125 l -58.78125,87.5 70.625,78.25 a 14.174646,14.174646 0 0 1 -14.40625,23.15625 l -101.40625,-28.90625 -52.5625,91.3751 a 14.174646,14.174646 0 0 1 -26.46875,-6.5625 L 132.65722,527.91954 29.469732,506.13829 a 14.174646,14.174646 0 0 1 -1.90625,-27.1875 l 98.999988,-36.25 -11.15624,-104.8125 a 14.174646,14.174646 0 0 1 14.18749,-15.71875 z"
       id="path3341"
       inkscape:connector-curvature="0" />
  </g>
</svg>
